G04 #@! TF.FileFunction,Legend,Top*
%FSLAX46Y46*%
G04 Gerber Fmt 4.6, Leading zero omitted, Abs format (unit mm)*
G04 Created by KiCad (PCBNEW 4.0.2+dfsg1-stable) date Fri 08 Feb 2019 16:08:27 CET*
%MOMM*%
G01*
G04 APERTURE LIST*
%ADD10C,0.100000*%
%ADD11C,0.150000*%
%ADD12C,0.300000*%
%ADD13C,0.240000*%
%ADD14C,0.127000*%
%ADD15C,0.200000*%
%ADD16C,0.120000*%
%ADD17C,0.010000*%
%ADD18C,0.050000*%
G04 APERTURE END LIST*
D10*
D11*
X129160000Y-116022381D02*
X129160000Y-115022381D01*
X129160000Y-115974762D02*
X129064762Y-116022381D01*
X128874285Y-116022381D01*
X128779047Y-115974762D01*
X128731428Y-115927143D01*
X128683809Y-115831905D01*
X128683809Y-115546190D01*
X128731428Y-115450952D01*
X128779047Y-115403333D01*
X128874285Y-115355714D01*
X129064762Y-115355714D01*
X129160000Y-115403333D01*
X130017143Y-115974762D02*
X129921905Y-116022381D01*
X129731428Y-116022381D01*
X129636190Y-115974762D01*
X129588571Y-115879524D01*
X129588571Y-115498571D01*
X129636190Y-115403333D01*
X129731428Y-115355714D01*
X129921905Y-115355714D01*
X130017143Y-115403333D01*
X130064762Y-115498571D01*
X130064762Y-115593810D01*
X129588571Y-115689048D01*
X130445714Y-115974762D02*
X130540952Y-116022381D01*
X130731428Y-116022381D01*
X130826667Y-115974762D01*
X130874286Y-115879524D01*
X130874286Y-115831905D01*
X130826667Y-115736667D01*
X130731428Y-115689048D01*
X130588571Y-115689048D01*
X130493333Y-115641429D01*
X130445714Y-115546190D01*
X130445714Y-115498571D01*
X130493333Y-115403333D01*
X130588571Y-115355714D01*
X130731428Y-115355714D01*
X130826667Y-115403333D01*
X131302857Y-116022381D02*
X131302857Y-115355714D01*
X131302857Y-115022381D02*
X131255238Y-115070000D01*
X131302857Y-115117619D01*
X131350476Y-115070000D01*
X131302857Y-115022381D01*
X131302857Y-115117619D01*
X132207619Y-115355714D02*
X132207619Y-116165238D01*
X132160000Y-116260476D01*
X132112381Y-116308095D01*
X132017142Y-116355714D01*
X131874285Y-116355714D01*
X131779047Y-116308095D01*
X132207619Y-115974762D02*
X132112381Y-116022381D01*
X131921904Y-116022381D01*
X131826666Y-115974762D01*
X131779047Y-115927143D01*
X131731428Y-115831905D01*
X131731428Y-115546190D01*
X131779047Y-115450952D01*
X131826666Y-115403333D01*
X131921904Y-115355714D01*
X132112381Y-115355714D01*
X132207619Y-115403333D01*
X132683809Y-115355714D02*
X132683809Y-116022381D01*
X132683809Y-115450952D02*
X132731428Y-115403333D01*
X132826666Y-115355714D01*
X132969524Y-115355714D01*
X133064762Y-115403333D01*
X133112381Y-115498571D01*
X133112381Y-116022381D01*
X133969524Y-115974762D02*
X133874286Y-116022381D01*
X133683809Y-116022381D01*
X133588571Y-115974762D01*
X133540952Y-115879524D01*
X133540952Y-115498571D01*
X133588571Y-115403333D01*
X133683809Y-115355714D01*
X133874286Y-115355714D01*
X133969524Y-115403333D01*
X134017143Y-115498571D01*
X134017143Y-115593810D01*
X133540952Y-115689048D01*
X134874286Y-116022381D02*
X134874286Y-115022381D01*
X134874286Y-115974762D02*
X134779048Y-116022381D01*
X134588571Y-116022381D01*
X134493333Y-115974762D01*
X134445714Y-115927143D01*
X134398095Y-115831905D01*
X134398095Y-115546190D01*
X134445714Y-115450952D01*
X134493333Y-115403333D01*
X134588571Y-115355714D01*
X134779048Y-115355714D01*
X134874286Y-115403333D01*
X136064762Y-115117619D02*
X136112381Y-115070000D01*
X136207619Y-115022381D01*
X136445715Y-115022381D01*
X136540953Y-115070000D01*
X136588572Y-115117619D01*
X136636191Y-115212857D01*
X136636191Y-115308095D01*
X136588572Y-115450952D01*
X136017143Y-116022381D01*
X136636191Y-116022381D01*
X137255238Y-115022381D02*
X137350477Y-115022381D01*
X137445715Y-115070000D01*
X137493334Y-115117619D01*
X137540953Y-115212857D01*
X137588572Y-115403333D01*
X137588572Y-115641429D01*
X137540953Y-115831905D01*
X137493334Y-115927143D01*
X137445715Y-115974762D01*
X137350477Y-116022381D01*
X137255238Y-116022381D01*
X137160000Y-115974762D01*
X137112381Y-115927143D01*
X137064762Y-115831905D01*
X137017143Y-115641429D01*
X137017143Y-115403333D01*
X137064762Y-115212857D01*
X137112381Y-115117619D01*
X137160000Y-115070000D01*
X137255238Y-115022381D01*
X138540953Y-116022381D02*
X137969524Y-116022381D01*
X138255238Y-116022381D02*
X138255238Y-115022381D01*
X138160000Y-115165238D01*
X138064762Y-115260476D01*
X137969524Y-115308095D01*
X139017143Y-116022381D02*
X139207619Y-116022381D01*
X139302858Y-115974762D01*
X139350477Y-115927143D01*
X139445715Y-115784286D01*
X139493334Y-115593810D01*
X139493334Y-115212857D01*
X139445715Y-115117619D01*
X139398096Y-115070000D01*
X139302858Y-115022381D01*
X139112381Y-115022381D01*
X139017143Y-115070000D01*
X138969524Y-115117619D01*
X138921905Y-115212857D01*
X138921905Y-115450952D01*
X138969524Y-115546190D01*
X139017143Y-115593810D01*
X139112381Y-115641429D01*
X139302858Y-115641429D01*
X139398096Y-115593810D01*
X139445715Y-115546190D01*
X139493334Y-115450952D01*
X140683810Y-116022381D02*
X140683810Y-115022381D01*
X140683810Y-115403333D02*
X140779048Y-115355714D01*
X140969525Y-115355714D01*
X141064763Y-115403333D01*
X141112382Y-115450952D01*
X141160001Y-115546190D01*
X141160001Y-115831905D01*
X141112382Y-115927143D01*
X141064763Y-115974762D01*
X140969525Y-116022381D01*
X140779048Y-116022381D01*
X140683810Y-115974762D01*
X141493334Y-115355714D02*
X141731429Y-116022381D01*
X141969525Y-115355714D02*
X141731429Y-116022381D01*
X141636191Y-116260476D01*
X141588572Y-116308095D01*
X141493334Y-116355714D01*
X143683811Y-116022381D02*
X143350477Y-115546190D01*
X143112382Y-116022381D02*
X143112382Y-115022381D01*
X143493335Y-115022381D01*
X143588573Y-115070000D01*
X143636192Y-115117619D01*
X143683811Y-115212857D01*
X143683811Y-115355714D01*
X143636192Y-115450952D01*
X143588573Y-115498571D01*
X143493335Y-115546190D01*
X143112382Y-115546190D01*
X144112382Y-115927143D02*
X144160001Y-115974762D01*
X144112382Y-116022381D01*
X144064763Y-115974762D01*
X144112382Y-115927143D01*
X144112382Y-116022381D01*
X145112382Y-115070000D02*
X145017144Y-115022381D01*
X144874287Y-115022381D01*
X144731429Y-115070000D01*
X144636191Y-115165238D01*
X144588572Y-115260476D01*
X144540953Y-115450952D01*
X144540953Y-115593810D01*
X144588572Y-115784286D01*
X144636191Y-115879524D01*
X144731429Y-115974762D01*
X144874287Y-116022381D01*
X144969525Y-116022381D01*
X145112382Y-115974762D01*
X145160001Y-115927143D01*
X145160001Y-115593810D01*
X144969525Y-115593810D01*
X145588572Y-115927143D02*
X145636191Y-115974762D01*
X145588572Y-116022381D01*
X145540953Y-115974762D01*
X145588572Y-115927143D01*
X145588572Y-116022381D01*
D12*
X160497143Y-99738571D02*
X159997143Y-99024286D01*
X159640000Y-99738571D02*
X159640000Y-98238571D01*
X160211428Y-98238571D01*
X160354286Y-98310000D01*
X160425714Y-98381429D01*
X160497143Y-98524286D01*
X160497143Y-98738571D01*
X160425714Y-98881429D01*
X160354286Y-98952857D01*
X160211428Y-99024286D01*
X159640000Y-99024286D01*
X161140000Y-98952857D02*
X161640000Y-98952857D01*
X161854286Y-99738571D02*
X161140000Y-99738571D01*
X161140000Y-98238571D01*
X161854286Y-98238571D01*
X162282857Y-98238571D02*
X163140000Y-98238571D01*
X162711429Y-99738571D02*
X162711429Y-98238571D01*
X164497143Y-99738571D02*
X163997143Y-99024286D01*
X163640000Y-99738571D02*
X163640000Y-98238571D01*
X164211428Y-98238571D01*
X164354286Y-98310000D01*
X164425714Y-98381429D01*
X164497143Y-98524286D01*
X164497143Y-98738571D01*
X164425714Y-98881429D01*
X164354286Y-98952857D01*
X164211428Y-99024286D01*
X163640000Y-99024286D01*
X165425714Y-98238571D02*
X165711428Y-98238571D01*
X165854286Y-98310000D01*
X165997143Y-98452857D01*
X166068571Y-98738571D01*
X166068571Y-99238571D01*
X165997143Y-99524286D01*
X165854286Y-99667143D01*
X165711428Y-99738571D01*
X165425714Y-99738571D01*
X165282857Y-99667143D01*
X165140000Y-99524286D01*
X165068571Y-99238571D01*
X165068571Y-98738571D01*
X165140000Y-98452857D01*
X165282857Y-98310000D01*
X165425714Y-98238571D01*
X167211429Y-98952857D02*
X167425715Y-99024286D01*
X167497143Y-99095714D01*
X167568572Y-99238571D01*
X167568572Y-99452857D01*
X167497143Y-99595714D01*
X167425715Y-99667143D01*
X167282857Y-99738571D01*
X166711429Y-99738571D01*
X166711429Y-98238571D01*
X167211429Y-98238571D01*
X167354286Y-98310000D01*
X167425715Y-98381429D01*
X167497143Y-98524286D01*
X167497143Y-98667143D01*
X167425715Y-98810000D01*
X167354286Y-98881429D01*
X167211429Y-98952857D01*
X166711429Y-98952857D01*
X168211429Y-99738571D02*
X168211429Y-98238571D01*
X168711429Y-98238571D02*
X169568572Y-98238571D01*
X169140001Y-99738571D02*
X169140001Y-98238571D01*
X171925715Y-99738571D02*
X171211429Y-99738571D01*
X171211429Y-98238571D01*
X172354286Y-99310000D02*
X173068572Y-99310000D01*
X172211429Y-99738571D02*
X172711429Y-98238571D01*
X173211429Y-99738571D01*
X174211429Y-98952857D02*
X174425715Y-99024286D01*
X174497143Y-99095714D01*
X174568572Y-99238571D01*
X174568572Y-99452857D01*
X174497143Y-99595714D01*
X174425715Y-99667143D01*
X174282857Y-99738571D01*
X173711429Y-99738571D01*
X173711429Y-98238571D01*
X174211429Y-98238571D01*
X174354286Y-98310000D01*
X174425715Y-98381429D01*
X174497143Y-98524286D01*
X174497143Y-98667143D01*
X174425715Y-98810000D01*
X174354286Y-98881429D01*
X174211429Y-98952857D01*
X173711429Y-98952857D01*
D13*
X192587619Y-38678571D02*
X193587619Y-38678571D01*
X192873333Y-39178571D01*
X193587619Y-39678571D01*
X192587619Y-39678571D01*
X193587619Y-40392857D02*
X192778095Y-40392857D01*
X192682857Y-40464285D01*
X192635238Y-40535714D01*
X192587619Y-40678571D01*
X192587619Y-40964285D01*
X192635238Y-41107143D01*
X192682857Y-41178571D01*
X192778095Y-41250000D01*
X193587619Y-41250000D01*
X192587619Y-42678572D02*
X192587619Y-41964286D01*
X193587619Y-41964286D01*
X193587619Y-42964286D02*
X193587619Y-43821429D01*
X192587619Y-43392858D02*
X193587619Y-43392858D01*
X192587619Y-44321429D02*
X193587619Y-44321429D01*
X193111429Y-45535715D02*
X193111429Y-45035715D01*
X192587619Y-45035715D02*
X193587619Y-45035715D01*
X193587619Y-45750001D01*
X193587619Y-46321429D02*
X192778095Y-46321429D01*
X192682857Y-46392857D01*
X192635238Y-46464286D01*
X192587619Y-46607143D01*
X192587619Y-46892857D01*
X192635238Y-47035715D01*
X192682857Y-47107143D01*
X192778095Y-47178572D01*
X193587619Y-47178572D01*
X192587619Y-47892858D02*
X193587619Y-47892858D01*
X192587619Y-48750001D01*
X193587619Y-48750001D01*
X192682857Y-50321430D02*
X192635238Y-50250001D01*
X192587619Y-50035715D01*
X192587619Y-49892858D01*
X192635238Y-49678573D01*
X192730476Y-49535715D01*
X192825714Y-49464287D01*
X193016190Y-49392858D01*
X193159048Y-49392858D01*
X193349524Y-49464287D01*
X193444762Y-49535715D01*
X193540000Y-49678573D01*
X193587619Y-49892858D01*
X193587619Y-50035715D01*
X193540000Y-50250001D01*
X193492381Y-50321430D01*
X193587619Y-50750001D02*
X193587619Y-51607144D01*
X192587619Y-51178573D02*
X193587619Y-51178573D01*
X192587619Y-52107144D02*
X193587619Y-52107144D01*
X193587619Y-53107144D02*
X193587619Y-53392858D01*
X193540000Y-53535716D01*
X193444762Y-53678573D01*
X193254286Y-53750001D01*
X192920952Y-53750001D01*
X192730476Y-53678573D01*
X192635238Y-53535716D01*
X192587619Y-53392858D01*
X192587619Y-53107144D01*
X192635238Y-52964287D01*
X192730476Y-52821430D01*
X192920952Y-52750001D01*
X193254286Y-52750001D01*
X193444762Y-52821430D01*
X193540000Y-52964287D01*
X193587619Y-53107144D01*
X192587619Y-54392859D02*
X193587619Y-54392859D01*
X192587619Y-55250002D01*
X193587619Y-55250002D01*
X192873333Y-57035716D02*
X192873333Y-57750002D01*
X192587619Y-56892859D02*
X193587619Y-57392859D01*
X192587619Y-57892859D01*
X193587619Y-58178573D02*
X193587619Y-59035716D01*
X192587619Y-58607145D02*
X193587619Y-58607145D01*
X192873333Y-59464287D02*
X192873333Y-60178573D01*
X192587619Y-59321430D02*
X193587619Y-59821430D01*
X192587619Y-60321430D01*
X192587619Y-61678573D02*
X193063810Y-61178573D01*
X192587619Y-60821430D02*
X193587619Y-60821430D01*
X193587619Y-61392858D01*
X193540000Y-61535716D01*
X193492381Y-61607144D01*
X193397143Y-61678573D01*
X193254286Y-61678573D01*
X193159048Y-61607144D01*
X193111429Y-61535716D01*
X193063810Y-61392858D01*
X193063810Y-60821430D01*
X192587619Y-62321430D02*
X193587619Y-62321430D01*
X193587619Y-64035716D02*
X192587619Y-65035716D01*
X193587619Y-65035716D02*
X192587619Y-64035716D01*
X193111429Y-65607144D02*
X193111429Y-66107144D01*
X192587619Y-66321430D02*
X192587619Y-65607144D01*
X193587619Y-65607144D01*
X193587619Y-66321430D01*
X193111429Y-68107144D02*
X193111429Y-68607144D01*
X192587619Y-68821430D02*
X192587619Y-68107144D01*
X193587619Y-68107144D01*
X193587619Y-68821430D01*
X193587619Y-69321430D02*
X192587619Y-70321430D01*
X193587619Y-70321430D02*
X192587619Y-69321430D01*
X192587619Y-70892858D02*
X193587619Y-70892858D01*
X193587619Y-71464286D01*
X193540000Y-71607144D01*
X193492381Y-71678572D01*
X193397143Y-71750001D01*
X193254286Y-71750001D01*
X193159048Y-71678572D01*
X193111429Y-71607144D01*
X193063810Y-71464286D01*
X193063810Y-70892858D01*
X192873333Y-72321429D02*
X192873333Y-73035715D01*
X192587619Y-72178572D02*
X193587619Y-72678572D01*
X192587619Y-73178572D01*
X192587619Y-73678572D02*
X193587619Y-73678572D01*
X192587619Y-74535715D01*
X193587619Y-74535715D01*
X192635238Y-75178572D02*
X192587619Y-75392858D01*
X192587619Y-75750001D01*
X192635238Y-75892858D01*
X192682857Y-75964287D01*
X192778095Y-76035715D01*
X192873333Y-76035715D01*
X192968571Y-75964287D01*
X193016190Y-75892858D01*
X193063810Y-75750001D01*
X193111429Y-75464287D01*
X193159048Y-75321429D01*
X193206667Y-75250001D01*
X193301905Y-75178572D01*
X193397143Y-75178572D01*
X193492381Y-75250001D01*
X193540000Y-75321429D01*
X193587619Y-75464287D01*
X193587619Y-75821429D01*
X193540000Y-76035715D01*
X192587619Y-76678572D02*
X193587619Y-76678572D01*
X193587619Y-77678572D02*
X193587619Y-77964286D01*
X193540000Y-78107144D01*
X193444762Y-78250001D01*
X193254286Y-78321429D01*
X192920952Y-78321429D01*
X192730476Y-78250001D01*
X192635238Y-78107144D01*
X192587619Y-77964286D01*
X192587619Y-77678572D01*
X192635238Y-77535715D01*
X192730476Y-77392858D01*
X192920952Y-77321429D01*
X193254286Y-77321429D01*
X193444762Y-77392858D01*
X193540000Y-77535715D01*
X193587619Y-77678572D01*
X192587619Y-78964287D02*
X193587619Y-78964287D01*
X192587619Y-79821430D01*
X193587619Y-79821430D01*
X193111429Y-82178573D02*
X193063810Y-82392859D01*
X193016190Y-82464287D01*
X192920952Y-82535716D01*
X192778095Y-82535716D01*
X192682857Y-82464287D01*
X192635238Y-82392859D01*
X192587619Y-82250001D01*
X192587619Y-81678573D01*
X193587619Y-81678573D01*
X193587619Y-82178573D01*
X193540000Y-82321430D01*
X193492381Y-82392859D01*
X193397143Y-82464287D01*
X193301905Y-82464287D01*
X193206667Y-82392859D01*
X193159048Y-82321430D01*
X193111429Y-82178573D01*
X193111429Y-81678573D01*
X193587619Y-83464287D02*
X193587619Y-83750001D01*
X193540000Y-83892859D01*
X193444762Y-84035716D01*
X193254286Y-84107144D01*
X192920952Y-84107144D01*
X192730476Y-84035716D01*
X192635238Y-83892859D01*
X192587619Y-83750001D01*
X192587619Y-83464287D01*
X192635238Y-83321430D01*
X192730476Y-83178573D01*
X192920952Y-83107144D01*
X193254286Y-83107144D01*
X193444762Y-83178573D01*
X193540000Y-83321430D01*
X193587619Y-83464287D01*
X192873333Y-84678573D02*
X192873333Y-85392859D01*
X192587619Y-84535716D02*
X193587619Y-85035716D01*
X192587619Y-85535716D01*
X192587619Y-86892859D02*
X193063810Y-86392859D01*
X192587619Y-86035716D02*
X193587619Y-86035716D01*
X193587619Y-86607144D01*
X193540000Y-86750002D01*
X193492381Y-86821430D01*
X193397143Y-86892859D01*
X193254286Y-86892859D01*
X193159048Y-86821430D01*
X193111429Y-86750002D01*
X193063810Y-86607144D01*
X193063810Y-86035716D01*
X192587619Y-87535716D02*
X193587619Y-87535716D01*
X193587619Y-87892859D01*
X193540000Y-88107144D01*
X193444762Y-88250002D01*
X193349524Y-88321430D01*
X193159048Y-88392859D01*
X193016190Y-88392859D01*
X192825714Y-88321430D01*
X192730476Y-88250002D01*
X192635238Y-88107144D01*
X192587619Y-87892859D01*
X192587619Y-87535716D01*
D11*
X105743334Y-31400000D02*
X105676668Y-31366667D01*
X105576668Y-31366667D01*
X105476668Y-31400000D01*
X105410001Y-31466667D01*
X105376668Y-31533333D01*
X105343334Y-31666667D01*
X105343334Y-31766667D01*
X105376668Y-31900000D01*
X105410001Y-31966667D01*
X105476668Y-32033333D01*
X105576668Y-32066667D01*
X105643334Y-32066667D01*
X105743334Y-32033333D01*
X105776668Y-32000000D01*
X105776668Y-31766667D01*
X105643334Y-31766667D01*
X106076668Y-32066667D02*
X106076668Y-31366667D01*
X106476668Y-32066667D01*
X106476668Y-31366667D01*
X106810001Y-32066667D02*
X106810001Y-31366667D01*
X106976667Y-31366667D01*
X107076667Y-31400000D01*
X107143334Y-31466667D01*
X107176667Y-31533333D01*
X107210001Y-31666667D01*
X107210001Y-31766667D01*
X107176667Y-31900000D01*
X107143334Y-31966667D01*
X107076667Y-32033333D01*
X106976667Y-32066667D01*
X106810001Y-32066667D01*
X108010000Y-32033333D02*
X108110000Y-32066667D01*
X108276667Y-32066667D01*
X108343334Y-32033333D01*
X108376667Y-32000000D01*
X108410000Y-31933333D01*
X108410000Y-31866667D01*
X108376667Y-31800000D01*
X108343334Y-31766667D01*
X108276667Y-31733333D01*
X108143334Y-31700000D01*
X108076667Y-31666667D01*
X108043334Y-31633333D01*
X108010000Y-31566667D01*
X108010000Y-31500000D01*
X108043334Y-31433333D01*
X108076667Y-31400000D01*
X108143334Y-31366667D01*
X108310000Y-31366667D01*
X108410000Y-31400000D01*
X108643334Y-31366667D02*
X108810001Y-32066667D01*
X108943334Y-31566667D01*
X109076667Y-32066667D01*
X109243334Y-31366667D01*
X109510001Y-32066667D02*
X109510001Y-31366667D01*
X109676667Y-31366667D01*
X109776667Y-31400000D01*
X109843334Y-31466667D01*
X109876667Y-31533333D01*
X109910001Y-31666667D01*
X109910001Y-31766667D01*
X109876667Y-31900000D01*
X109843334Y-31966667D01*
X109776667Y-32033333D01*
X109676667Y-32066667D01*
X109510001Y-32066667D01*
X110210001Y-32066667D02*
X110210001Y-31366667D01*
X110676667Y-31366667D02*
X110810000Y-31366667D01*
X110876667Y-31400000D01*
X110943334Y-31466667D01*
X110976667Y-31600000D01*
X110976667Y-31833333D01*
X110943334Y-31966667D01*
X110876667Y-32033333D01*
X110810000Y-32066667D01*
X110676667Y-32066667D01*
X110610000Y-32033333D01*
X110543334Y-31966667D01*
X110510000Y-31833333D01*
X110510000Y-31600000D01*
X110543334Y-31466667D01*
X110610000Y-31400000D01*
X110676667Y-31366667D01*
X111776666Y-32033333D02*
X111876666Y-32066667D01*
X112043333Y-32066667D01*
X112110000Y-32033333D01*
X112143333Y-32000000D01*
X112176666Y-31933333D01*
X112176666Y-31866667D01*
X112143333Y-31800000D01*
X112110000Y-31766667D01*
X112043333Y-31733333D01*
X111910000Y-31700000D01*
X111843333Y-31666667D01*
X111810000Y-31633333D01*
X111776666Y-31566667D01*
X111776666Y-31500000D01*
X111810000Y-31433333D01*
X111843333Y-31400000D01*
X111910000Y-31366667D01*
X112076666Y-31366667D01*
X112176666Y-31400000D01*
X112410000Y-31366667D02*
X112576667Y-32066667D01*
X112710000Y-31566667D01*
X112843333Y-32066667D01*
X113010000Y-31366667D01*
X113276667Y-32066667D02*
X113276667Y-31366667D01*
X113443333Y-31366667D01*
X113543333Y-31400000D01*
X113610000Y-31466667D01*
X113643333Y-31533333D01*
X113676667Y-31666667D01*
X113676667Y-31766667D01*
X113643333Y-31900000D01*
X113610000Y-31966667D01*
X113543333Y-32033333D01*
X113443333Y-32066667D01*
X113276667Y-32066667D01*
X114376667Y-32000000D02*
X114343333Y-32033333D01*
X114243333Y-32066667D01*
X114176667Y-32066667D01*
X114076667Y-32033333D01*
X114010000Y-31966667D01*
X113976667Y-31900000D01*
X113943333Y-31766667D01*
X113943333Y-31666667D01*
X113976667Y-31533333D01*
X114010000Y-31466667D01*
X114076667Y-31400000D01*
X114176667Y-31366667D01*
X114243333Y-31366667D01*
X114343333Y-31400000D01*
X114376667Y-31433333D01*
X115010000Y-32066667D02*
X114676667Y-32066667D01*
X114676667Y-31366667D01*
X115243334Y-32066667D02*
X115243334Y-31366667D01*
X115643334Y-32066667D02*
X115343334Y-31666667D01*
X115643334Y-31366667D02*
X115243334Y-31766667D01*
X116376667Y-31366667D02*
X116610000Y-32066667D01*
X116843333Y-31366667D01*
X117476667Y-32000000D02*
X117443333Y-32033333D01*
X117343333Y-32066667D01*
X117276667Y-32066667D01*
X117176667Y-32033333D01*
X117110000Y-31966667D01*
X117076667Y-31900000D01*
X117043333Y-31766667D01*
X117043333Y-31666667D01*
X117076667Y-31533333D01*
X117110000Y-31466667D01*
X117176667Y-31400000D01*
X117276667Y-31366667D01*
X117343333Y-31366667D01*
X117443333Y-31400000D01*
X117476667Y-31433333D01*
X118176667Y-32000000D02*
X118143333Y-32033333D01*
X118043333Y-32066667D01*
X117976667Y-32066667D01*
X117876667Y-32033333D01*
X117810000Y-31966667D01*
X117776667Y-31900000D01*
X117743333Y-31766667D01*
X117743333Y-31666667D01*
X117776667Y-31533333D01*
X117810000Y-31466667D01*
X117876667Y-31400000D01*
X117976667Y-31366667D01*
X118043333Y-31366667D01*
X118143333Y-31400000D01*
X118176667Y-31433333D01*
D12*
X132121430Y-29888571D02*
X132121430Y-28388571D01*
X132692858Y-28388571D01*
X132835716Y-28460000D01*
X132907144Y-28531429D01*
X132978573Y-28674286D01*
X132978573Y-28888571D01*
X132907144Y-29031429D01*
X132835716Y-29102857D01*
X132692858Y-29174286D01*
X132121430Y-29174286D01*
X134121430Y-29102857D02*
X134335716Y-29174286D01*
X134407144Y-29245714D01*
X134478573Y-29388571D01*
X134478573Y-29602857D01*
X134407144Y-29745714D01*
X134335716Y-29817143D01*
X134192858Y-29888571D01*
X133621430Y-29888571D01*
X133621430Y-28388571D01*
X134121430Y-28388571D01*
X134264287Y-28460000D01*
X134335716Y-28531429D01*
X134407144Y-28674286D01*
X134407144Y-28817143D01*
X134335716Y-28960000D01*
X134264287Y-29031429D01*
X134121430Y-29102857D01*
X133621430Y-29102857D01*
X135121430Y-29888571D02*
X135121430Y-28388571D01*
X136978573Y-29888571D02*
X136978573Y-28388571D01*
X137335716Y-28388571D01*
X137550001Y-28460000D01*
X137692859Y-28602857D01*
X137764287Y-28745714D01*
X137835716Y-29031429D01*
X137835716Y-29245714D01*
X137764287Y-29531429D01*
X137692859Y-29674286D01*
X137550001Y-29817143D01*
X137335716Y-29888571D01*
X136978573Y-29888571D01*
X139050001Y-29817143D02*
X138907144Y-29888571D01*
X138621430Y-29888571D01*
X138478573Y-29817143D01*
X138407144Y-29674286D01*
X138407144Y-29102857D01*
X138478573Y-28960000D01*
X138621430Y-28888571D01*
X138907144Y-28888571D01*
X139050001Y-28960000D01*
X139121430Y-29102857D01*
X139121430Y-29245714D01*
X138407144Y-29388571D01*
X139621430Y-28888571D02*
X139978573Y-29888571D01*
X140335715Y-28888571D01*
X140907144Y-29888571D02*
X140907144Y-28888571D01*
X140907144Y-28388571D02*
X140835715Y-28460000D01*
X140907144Y-28531429D01*
X140978572Y-28460000D01*
X140907144Y-28388571D01*
X140907144Y-28531429D01*
X142264287Y-29817143D02*
X142121430Y-29888571D01*
X141835716Y-29888571D01*
X141692858Y-29817143D01*
X141621430Y-29745714D01*
X141550001Y-29602857D01*
X141550001Y-29174286D01*
X141621430Y-29031429D01*
X141692858Y-28960000D01*
X141835716Y-28888571D01*
X142121430Y-28888571D01*
X142264287Y-28960000D01*
X143478572Y-29817143D02*
X143335715Y-29888571D01*
X143050001Y-29888571D01*
X142907144Y-29817143D01*
X142835715Y-29674286D01*
X142835715Y-29102857D01*
X142907144Y-28960000D01*
X143050001Y-28888571D01*
X143335715Y-28888571D01*
X143478572Y-28960000D01*
X143550001Y-29102857D01*
X143550001Y-29245714D01*
X142835715Y-29388571D01*
X145264286Y-29817143D02*
X145478572Y-29888571D01*
X145835715Y-29888571D01*
X145978572Y-29817143D01*
X146050001Y-29745714D01*
X146121429Y-29602857D01*
X146121429Y-29460000D01*
X146050001Y-29317143D01*
X145978572Y-29245714D01*
X145835715Y-29174286D01*
X145550001Y-29102857D01*
X145407143Y-29031429D01*
X145335715Y-28960000D01*
X145264286Y-28817143D01*
X145264286Y-28674286D01*
X145335715Y-28531429D01*
X145407143Y-28460000D01*
X145550001Y-28388571D01*
X145907143Y-28388571D01*
X146121429Y-28460000D01*
X147335714Y-29817143D02*
X147192857Y-29888571D01*
X146907143Y-29888571D01*
X146764286Y-29817143D01*
X146692857Y-29674286D01*
X146692857Y-29102857D01*
X146764286Y-28960000D01*
X146907143Y-28888571D01*
X147192857Y-28888571D01*
X147335714Y-28960000D01*
X147407143Y-29102857D01*
X147407143Y-29245714D01*
X146692857Y-29388571D01*
X148264286Y-29888571D02*
X148121428Y-29817143D01*
X148050000Y-29674286D01*
X148050000Y-28388571D01*
X149407142Y-29817143D02*
X149264285Y-29888571D01*
X148978571Y-29888571D01*
X148835714Y-29817143D01*
X148764285Y-29674286D01*
X148764285Y-29102857D01*
X148835714Y-28960000D01*
X148978571Y-28888571D01*
X149264285Y-28888571D01*
X149407142Y-28960000D01*
X149478571Y-29102857D01*
X149478571Y-29245714D01*
X148764285Y-29388571D01*
X150764285Y-29817143D02*
X150621428Y-29888571D01*
X150335714Y-29888571D01*
X150192856Y-29817143D01*
X150121428Y-29745714D01*
X150049999Y-29602857D01*
X150049999Y-29174286D01*
X150121428Y-29031429D01*
X150192856Y-28960000D01*
X150335714Y-28888571D01*
X150621428Y-28888571D01*
X150764285Y-28960000D01*
X151192856Y-28888571D02*
X151764285Y-28888571D01*
X151407142Y-28388571D02*
X151407142Y-29674286D01*
X151478570Y-29817143D01*
X151621428Y-29888571D01*
X151764285Y-29888571D01*
X153407142Y-29888571D02*
X153407142Y-28388571D01*
X153764285Y-28388571D01*
X153978570Y-28460000D01*
X154121428Y-28602857D01*
X154192856Y-28745714D01*
X154264285Y-29031429D01*
X154264285Y-29245714D01*
X154192856Y-29531429D01*
X154121428Y-29674286D01*
X153978570Y-29817143D01*
X153764285Y-29888571D01*
X153407142Y-29888571D01*
X154764285Y-28388571D02*
X155764285Y-28388571D01*
X155121428Y-29888571D01*
X156335713Y-29745714D02*
X156407141Y-29817143D01*
X156335713Y-29888571D01*
X156264284Y-29817143D01*
X156335713Y-29745714D01*
X156335713Y-29888571D01*
X157049999Y-29745714D02*
X157121427Y-29817143D01*
X157049999Y-29888571D01*
X156978570Y-29817143D01*
X157049999Y-29745714D01*
X157049999Y-29888571D01*
X157764285Y-29888571D02*
X157764285Y-28388571D01*
X158121428Y-28388571D01*
X158335713Y-28460000D01*
X158478571Y-28602857D01*
X158549999Y-28745714D01*
X158621428Y-29031429D01*
X158621428Y-29245714D01*
X158549999Y-29531429D01*
X158478571Y-29674286D01*
X158335713Y-29817143D01*
X158121428Y-29888571D01*
X157764285Y-29888571D01*
X159549999Y-28388571D02*
X159692856Y-28388571D01*
X159835713Y-28460000D01*
X159907142Y-28531429D01*
X159978571Y-28674286D01*
X160049999Y-28960000D01*
X160049999Y-29317143D01*
X159978571Y-29602857D01*
X159907142Y-29745714D01*
X159835713Y-29817143D01*
X159692856Y-29888571D01*
X159549999Y-29888571D01*
X159407142Y-29817143D01*
X159335713Y-29745714D01*
X159264285Y-29602857D01*
X159192856Y-29317143D01*
X159192856Y-28960000D01*
X159264285Y-28674286D01*
X159335713Y-28531429D01*
X159407142Y-28460000D01*
X159549999Y-28388571D01*
D11*
X132163728Y-63500000D02*
X132701130Y-64037401D01*
X142240000Y-53423728D02*
X142777401Y-53961130D01*
X152316272Y-63500000D02*
X151778870Y-62962599D01*
X142240000Y-73576272D02*
X141702599Y-73038870D01*
X132163728Y-63500000D02*
X132701130Y-62962599D01*
X142240000Y-73576272D02*
X142777401Y-73038870D01*
X152316272Y-63500000D02*
X151778870Y-64037401D01*
X142240000Y-53423728D02*
X141702599Y-53961130D01*
X132701130Y-64037401D02*
X131622792Y-65115739D01*
X129032000Y-102362000D02*
X129032000Y-100838000D01*
X129032000Y-100838000D02*
X104648000Y-100838000D01*
X104648000Y-100838000D02*
X104648000Y-109982000D01*
X104648000Y-109982000D02*
X129032000Y-109982000D01*
X129032000Y-102362000D02*
X129032000Y-109982000D01*
D14*
X149352000Y-100736700D02*
X149352000Y-110083700D01*
D15*
X124560000Y-100139500D02*
G75*
G03X124560000Y-100139500I-100000J0D01*
G01*
D11*
X122555000Y-88646000D02*
X123952000Y-88646000D01*
X122301000Y-88519000D02*
X124079000Y-88519000D01*
X121920000Y-88392000D02*
X124460000Y-88392000D01*
X124587000Y-88265000D02*
X121793000Y-88265000D01*
X121666000Y-88138000D02*
X124714000Y-88138000D01*
X124841000Y-88011000D02*
X121539000Y-88011000D01*
X121412000Y-87884000D02*
X124968000Y-87884000D01*
X120523000Y-89027000D02*
X120523000Y-84455000D01*
X120523000Y-84455000D02*
X121285000Y-83693000D01*
X121285000Y-83693000D02*
X125095000Y-83693000D01*
X125095000Y-83693000D02*
X125857000Y-84455000D01*
X125857000Y-84455000D02*
X125857000Y-89027000D01*
X125857000Y-89027000D02*
X120523000Y-89027000D01*
X123190000Y-84201000D02*
X123190000Y-84963000D01*
X122809000Y-84582000D02*
X123571000Y-84582000D01*
X125603000Y-86360000D02*
G75*
G03X125603000Y-86360000I-2413000J0D01*
G01*
X101346000Y-85725000D02*
X101346000Y-87122000D01*
X101473000Y-85471000D02*
X101473000Y-87249000D01*
X101600000Y-85090000D02*
X101600000Y-87630000D01*
X101727000Y-87757000D02*
X101727000Y-84963000D01*
X101854000Y-84836000D02*
X101854000Y-87884000D01*
X101981000Y-88011000D02*
X101981000Y-84709000D01*
X102108000Y-84582000D02*
X102108000Y-88138000D01*
X100965000Y-83693000D02*
X105537000Y-83693000D01*
X105537000Y-83693000D02*
X106299000Y-84455000D01*
X106299000Y-84455000D02*
X106299000Y-88265000D01*
X106299000Y-88265000D02*
X105537000Y-89027000D01*
X105537000Y-89027000D02*
X100965000Y-89027000D01*
X100965000Y-89027000D02*
X100965000Y-83693000D01*
X105791000Y-86360000D02*
X105029000Y-86360000D01*
X105410000Y-85979000D02*
X105410000Y-86741000D01*
X106045000Y-86360000D02*
G75*
G03X106045000Y-86360000I-2413000J0D01*
G01*
X102616000Y-93091000D02*
X102616000Y-94488000D01*
X102743000Y-92837000D02*
X102743000Y-94615000D01*
X102870000Y-92456000D02*
X102870000Y-94996000D01*
X102997000Y-95123000D02*
X102997000Y-92329000D01*
X103124000Y-92202000D02*
X103124000Y-95250000D01*
X103251000Y-95377000D02*
X103251000Y-92075000D01*
X103378000Y-91948000D02*
X103378000Y-95504000D01*
X102235000Y-91059000D02*
X106807000Y-91059000D01*
X106807000Y-91059000D02*
X107569000Y-91821000D01*
X107569000Y-91821000D02*
X107569000Y-95631000D01*
X107569000Y-95631000D02*
X106807000Y-96393000D01*
X106807000Y-96393000D02*
X102235000Y-96393000D01*
X102235000Y-96393000D02*
X102235000Y-91059000D01*
X107061000Y-93726000D02*
X106299000Y-93726000D01*
X106680000Y-93345000D02*
X106680000Y-94107000D01*
X107315000Y-93726000D02*
G75*
G03X107315000Y-93726000I-2413000J0D01*
G01*
X140986000Y-42427000D02*
X142986000Y-42427000D01*
X142986000Y-40377000D02*
X140986000Y-40377000D01*
X136636000Y-45965000D02*
X134636000Y-45965000D01*
X134636000Y-48015000D02*
X136636000Y-48015000D01*
X140725000Y-82280000D02*
X140725000Y-80280000D01*
X138675000Y-80280000D02*
X138675000Y-82280000D01*
X123460000Y-67065000D02*
X125460000Y-67065000D01*
X125460000Y-65015000D02*
X123460000Y-65015000D01*
X135366000Y-40377000D02*
X133366000Y-40377000D01*
X133366000Y-42427000D02*
X135366000Y-42427000D01*
X125460000Y-61205000D02*
X123460000Y-61205000D01*
X123460000Y-63255000D02*
X125460000Y-63255000D01*
X132833000Y-90694000D02*
X132833000Y-92694000D01*
X134883000Y-92694000D02*
X134883000Y-90694000D01*
X122158000Y-95749000D02*
X120158000Y-95749000D01*
X120158000Y-97799000D02*
X122158000Y-97799000D01*
X131080000Y-53095000D02*
X133080000Y-53095000D01*
X133080000Y-51045000D02*
X131080000Y-51045000D01*
X112005000Y-56150000D02*
X112005000Y-58150000D01*
X114055000Y-58150000D02*
X114055000Y-56150000D01*
X117085000Y-56150000D02*
X117085000Y-58150000D01*
X119135000Y-58150000D02*
X119135000Y-56150000D01*
X143247000Y-34052000D02*
X143247000Y-36052000D01*
X145297000Y-36052000D02*
X145297000Y-34052000D01*
X115688000Y-79214000D02*
X112088000Y-79214000D01*
X115688000Y-81314000D02*
X112088000Y-81314000D01*
X113638000Y-80564000D02*
X113638000Y-79964000D01*
X113638000Y-79964000D02*
X113938000Y-80264000D01*
X113938000Y-80264000D02*
X113738000Y-80464000D01*
X113738000Y-80464000D02*
X113738000Y-80214000D01*
X113738000Y-80214000D02*
X113788000Y-80264000D01*
X114038000Y-80764000D02*
X114038000Y-79764000D01*
X113538000Y-80264000D02*
X113038000Y-80264000D01*
X114038000Y-80264000D02*
X113538000Y-80764000D01*
X113538000Y-80764000D02*
X113538000Y-79764000D01*
X113538000Y-79764000D02*
X114038000Y-80264000D01*
X115688000Y-95724000D02*
X112088000Y-95724000D01*
X115688000Y-97824000D02*
X112088000Y-97824000D01*
X113638000Y-97074000D02*
X113638000Y-96474000D01*
X113638000Y-96474000D02*
X113938000Y-96774000D01*
X113938000Y-96774000D02*
X113738000Y-96974000D01*
X113738000Y-96974000D02*
X113738000Y-96724000D01*
X113738000Y-96724000D02*
X113788000Y-96774000D01*
X114038000Y-97274000D02*
X114038000Y-96274000D01*
X113538000Y-96774000D02*
X113038000Y-96774000D01*
X114038000Y-96774000D02*
X113538000Y-97274000D01*
X113538000Y-97274000D02*
X113538000Y-96274000D01*
X113538000Y-96274000D02*
X114038000Y-96774000D01*
X185810000Y-30260000D02*
X189410000Y-30260000D01*
X185810000Y-28160000D02*
X189410000Y-28160000D01*
X187860000Y-28910000D02*
X187860000Y-29510000D01*
X187860000Y-29510000D02*
X187560000Y-29210000D01*
X187560000Y-29210000D02*
X187760000Y-29010000D01*
X187760000Y-29010000D02*
X187760000Y-29260000D01*
X187760000Y-29260000D02*
X187710000Y-29210000D01*
X187460000Y-28710000D02*
X187460000Y-29710000D01*
X187960000Y-29210000D02*
X188460000Y-29210000D01*
X187460000Y-29210000D02*
X187960000Y-28710000D01*
X187960000Y-28710000D02*
X187960000Y-29710000D01*
X187960000Y-29710000D02*
X187460000Y-29210000D01*
X145170000Y-84870000D02*
X148770000Y-84870000D01*
X145170000Y-82770000D02*
X148770000Y-82770000D01*
X147220000Y-83520000D02*
X147220000Y-84120000D01*
X147220000Y-84120000D02*
X146920000Y-83820000D01*
X146920000Y-83820000D02*
X147120000Y-83620000D01*
X147120000Y-83620000D02*
X147120000Y-83870000D01*
X147120000Y-83870000D02*
X147070000Y-83820000D01*
X146820000Y-83320000D02*
X146820000Y-84320000D01*
X147320000Y-83820000D02*
X147820000Y-83820000D01*
X146820000Y-83820000D02*
X147320000Y-83320000D01*
X147320000Y-83320000D02*
X147320000Y-84320000D01*
X147320000Y-84320000D02*
X146820000Y-83820000D01*
X122310000Y-28990000D02*
X125910000Y-28990000D01*
X122310000Y-26890000D02*
X125910000Y-26890000D01*
X124360000Y-27640000D02*
X124360000Y-28240000D01*
X124360000Y-28240000D02*
X124060000Y-27940000D01*
X124060000Y-27940000D02*
X124260000Y-27740000D01*
X124260000Y-27740000D02*
X124260000Y-27990000D01*
X124260000Y-27990000D02*
X124210000Y-27940000D01*
X123960000Y-27440000D02*
X123960000Y-28440000D01*
X124460000Y-27940000D02*
X124960000Y-27940000D01*
X123960000Y-27940000D02*
X124460000Y-27440000D01*
X124460000Y-27440000D02*
X124460000Y-28440000D01*
X124460000Y-28440000D02*
X123960000Y-27940000D01*
X104140000Y-57150000D02*
X104140000Y-59690000D01*
X104420000Y-54330000D02*
X104420000Y-55880000D01*
X104140000Y-57150000D02*
X101600000Y-57150000D01*
X101320000Y-55880000D02*
X101320000Y-54330000D01*
X101320000Y-54330000D02*
X104420000Y-54330000D01*
X101600000Y-57150000D02*
X101600000Y-59690000D01*
X101600000Y-59690000D02*
X104140000Y-59690000D01*
X109250000Y-49810000D02*
X109250000Y-48260000D01*
X107950000Y-49810000D02*
X109250000Y-49810000D01*
X103759000Y-48387000D02*
X97917000Y-48387000D01*
X97917000Y-48387000D02*
X97917000Y-48133000D01*
X97917000Y-48133000D02*
X103759000Y-48133000D01*
X103759000Y-48133000D02*
X103759000Y-48260000D01*
X103759000Y-48260000D02*
X97917000Y-48260000D01*
X106426000Y-48514000D02*
X106807000Y-48514000D01*
X106426000Y-48006000D02*
X106807000Y-48006000D01*
X106426000Y-45974000D02*
X106807000Y-45974000D01*
X106426000Y-45466000D02*
X106807000Y-45466000D01*
X106426000Y-43434000D02*
X106807000Y-43434000D01*
X106426000Y-42926000D02*
X106807000Y-42926000D01*
X106426000Y-40386000D02*
X106807000Y-40386000D01*
X106426000Y-40894000D02*
X106807000Y-40894000D01*
X106426000Y-49530000D02*
X103886000Y-49530000D01*
X106426000Y-46990000D02*
X103886000Y-46990000D01*
X106426000Y-46990000D02*
X106426000Y-44450000D01*
X106426000Y-44450000D02*
X103886000Y-44450000D01*
X103886000Y-45974000D02*
X97790000Y-45974000D01*
X97790000Y-45974000D02*
X97790000Y-45466000D01*
X97790000Y-45466000D02*
X103886000Y-45466000D01*
X103886000Y-44450000D02*
X103886000Y-46990000D01*
X103886000Y-46990000D02*
X103886000Y-49530000D01*
X97790000Y-48006000D02*
X103886000Y-48006000D01*
X97790000Y-48514000D02*
X97790000Y-48006000D01*
X103886000Y-48514000D02*
X97790000Y-48514000D01*
X106426000Y-46990000D02*
X103886000Y-46990000D01*
X106426000Y-49530000D02*
X106426000Y-46990000D01*
X106426000Y-41910000D02*
X103886000Y-41910000D01*
X106426000Y-41910000D02*
X106426000Y-39370000D01*
X106426000Y-39370000D02*
X103886000Y-39370000D01*
X103886000Y-40894000D02*
X97790000Y-40894000D01*
X97790000Y-40894000D02*
X97790000Y-40386000D01*
X97790000Y-40386000D02*
X103886000Y-40386000D01*
X103886000Y-39370000D02*
X103886000Y-41910000D01*
X103886000Y-41910000D02*
X103886000Y-44450000D01*
X97790000Y-42926000D02*
X103886000Y-42926000D01*
X97790000Y-43434000D02*
X97790000Y-42926000D01*
X103886000Y-43434000D02*
X97790000Y-43434000D01*
X106426000Y-41910000D02*
X103886000Y-41910000D01*
X106426000Y-44450000D02*
X106426000Y-41910000D01*
X106426000Y-44450000D02*
X103886000Y-44450000D01*
X121920000Y-24130000D02*
X127000000Y-24130000D01*
X127000000Y-24130000D02*
X127000000Y-21590000D01*
X127000000Y-21590000D02*
X121920000Y-21590000D01*
X119100000Y-21310000D02*
X120650000Y-21310000D01*
X121920000Y-21590000D02*
X121920000Y-24130000D01*
X120650000Y-24410000D02*
X119100000Y-24410000D01*
X119100000Y-24410000D02*
X119100000Y-21310000D01*
X149860000Y-24130000D02*
X149860000Y-26670000D01*
X150140000Y-21310000D02*
X150140000Y-22860000D01*
X149860000Y-24130000D02*
X147320000Y-24130000D01*
X147040000Y-22860000D02*
X147040000Y-21310000D01*
X147040000Y-21310000D02*
X150140000Y-21310000D01*
X147320000Y-24130000D02*
X147320000Y-26670000D01*
X147320000Y-26670000D02*
X149860000Y-26670000D01*
X134620000Y-24130000D02*
X134620000Y-26670000D01*
X134900000Y-21310000D02*
X134900000Y-22860000D01*
X134620000Y-24130000D02*
X132080000Y-24130000D01*
X131800000Y-22860000D02*
X131800000Y-21310000D01*
X131800000Y-21310000D02*
X134900000Y-21310000D01*
X132080000Y-24130000D02*
X132080000Y-26670000D01*
X132080000Y-26670000D02*
X134620000Y-26670000D01*
X153670000Y-24130000D02*
X153670000Y-26670000D01*
X153950000Y-21310000D02*
X153950000Y-22860000D01*
X153670000Y-24130000D02*
X151130000Y-24130000D01*
X150850000Y-22860000D02*
X150850000Y-21310000D01*
X150850000Y-21310000D02*
X153950000Y-21310000D01*
X151130000Y-24130000D02*
X151130000Y-26670000D01*
X151130000Y-26670000D02*
X153670000Y-26670000D01*
X138430000Y-24130000D02*
X138430000Y-26670000D01*
X138710000Y-21310000D02*
X138710000Y-22860000D01*
X138430000Y-24130000D02*
X135890000Y-24130000D01*
X135610000Y-22860000D02*
X135610000Y-21310000D01*
X135610000Y-21310000D02*
X138710000Y-21310000D01*
X135890000Y-24130000D02*
X135890000Y-26670000D01*
X135890000Y-26670000D02*
X138430000Y-26670000D01*
X157480000Y-24130000D02*
X157480000Y-26670000D01*
X157760000Y-21310000D02*
X157760000Y-22860000D01*
X157480000Y-24130000D02*
X154940000Y-24130000D01*
X154660000Y-22860000D02*
X154660000Y-21310000D01*
X154660000Y-21310000D02*
X157760000Y-21310000D01*
X154940000Y-24130000D02*
X154940000Y-26670000D01*
X154940000Y-26670000D02*
X157480000Y-26670000D01*
X142240000Y-24130000D02*
X142240000Y-26670000D01*
X142520000Y-21310000D02*
X142520000Y-22860000D01*
X142240000Y-24130000D02*
X139700000Y-24130000D01*
X139420000Y-22860000D02*
X139420000Y-21310000D01*
X139420000Y-21310000D02*
X142520000Y-21310000D01*
X139700000Y-24130000D02*
X139700000Y-26670000D01*
X139700000Y-26670000D02*
X142240000Y-26670000D01*
X161290000Y-24130000D02*
X161290000Y-26670000D01*
X161570000Y-21310000D02*
X161570000Y-22860000D01*
X161290000Y-24130000D02*
X158750000Y-24130000D01*
X158470000Y-22860000D02*
X158470000Y-21310000D01*
X158470000Y-21310000D02*
X161570000Y-21310000D01*
X158750000Y-24130000D02*
X158750000Y-26670000D01*
X158750000Y-26670000D02*
X161290000Y-26670000D01*
X146050000Y-24130000D02*
X146050000Y-26670000D01*
X146330000Y-21310000D02*
X146330000Y-22860000D01*
X146050000Y-24130000D02*
X143510000Y-24130000D01*
X143230000Y-22860000D02*
X143230000Y-21310000D01*
X143230000Y-21310000D02*
X146330000Y-21310000D01*
X143510000Y-24130000D02*
X143510000Y-26670000D01*
X143510000Y-26670000D02*
X146050000Y-26670000D01*
X135890000Y-31750000D02*
X130810000Y-31750000D01*
X130810000Y-31750000D02*
X130810000Y-34290000D01*
X130810000Y-34290000D02*
X135890000Y-34290000D01*
X138710000Y-34570000D02*
X137160000Y-34570000D01*
X135890000Y-34290000D02*
X135890000Y-31750000D01*
X137160000Y-31470000D02*
X138710000Y-31470000D01*
X138710000Y-31470000D02*
X138710000Y-34570000D01*
X121201180Y-79717900D02*
X120149620Y-79717900D01*
X120098820Y-81318100D02*
X121150380Y-81318100D01*
X122217180Y-91909900D02*
X121165620Y-91909900D01*
X121114820Y-93510100D02*
X122166380Y-93510100D01*
X107172000Y-81339000D02*
X105172000Y-81339000D01*
X105172000Y-79189000D02*
X107172000Y-79189000D01*
X112030000Y-91635000D02*
X114030000Y-91635000D01*
X114030000Y-93785000D02*
X112030000Y-93785000D01*
X125460000Y-58225000D02*
X123460000Y-58225000D01*
X123460000Y-56075000D02*
X125460000Y-56075000D01*
X168640000Y-115375000D02*
X166640000Y-115375000D01*
X166640000Y-113225000D02*
X168640000Y-113225000D01*
X158480000Y-115375000D02*
X156480000Y-115375000D01*
X156480000Y-113225000D02*
X158480000Y-113225000D01*
X134815000Y-83550000D02*
X134815000Y-81550000D01*
X136965000Y-81550000D02*
X136965000Y-83550000D01*
X123460000Y-70045000D02*
X125460000Y-70045000D01*
X125460000Y-72195000D02*
X123460000Y-72195000D01*
X160841000Y-64532000D02*
X160841000Y-66532000D01*
X158691000Y-66532000D02*
X158691000Y-64532000D01*
X152416000Y-55059000D02*
X154416000Y-55059000D01*
X154416000Y-57209000D02*
X152416000Y-57209000D01*
X153908000Y-52891000D02*
X151908000Y-52891000D01*
X151908000Y-50741000D02*
X153908000Y-50741000D01*
X160841000Y-56150000D02*
X160841000Y-58150000D01*
X158691000Y-58150000D02*
X158691000Y-56150000D01*
X146034000Y-48319000D02*
X144034000Y-48319000D01*
X144034000Y-46169000D02*
X146034000Y-46169000D01*
X186960000Y-33215000D02*
X188960000Y-33215000D01*
X188960000Y-35365000D02*
X186960000Y-35365000D01*
X147590000Y-77665000D02*
X149590000Y-77665000D01*
X149590000Y-79815000D02*
X147590000Y-79815000D01*
X123460000Y-31945000D02*
X125460000Y-31945000D01*
X125460000Y-34095000D02*
X123460000Y-34095000D01*
X106400000Y-30510000D02*
X107950000Y-30510000D01*
X106400000Y-29210000D02*
X106400000Y-30510000D01*
X107823000Y-25019000D02*
X107823000Y-19177000D01*
X107823000Y-19177000D02*
X108077000Y-19177000D01*
X108077000Y-19177000D02*
X108077000Y-25019000D01*
X108077000Y-25019000D02*
X107950000Y-25019000D01*
X107950000Y-25019000D02*
X107950000Y-19177000D01*
X107696000Y-27686000D02*
X107696000Y-28067000D01*
X108204000Y-27686000D02*
X108204000Y-28067000D01*
X110236000Y-27686000D02*
X110236000Y-28067000D01*
X110744000Y-27686000D02*
X110744000Y-28067000D01*
X112776000Y-27686000D02*
X112776000Y-28067000D01*
X113284000Y-27686000D02*
X113284000Y-28067000D01*
X115824000Y-27686000D02*
X115824000Y-28067000D01*
X115316000Y-27686000D02*
X115316000Y-28067000D01*
X106680000Y-27686000D02*
X106680000Y-25146000D01*
X109220000Y-27686000D02*
X109220000Y-25146000D01*
X109220000Y-27686000D02*
X111760000Y-27686000D01*
X111760000Y-27686000D02*
X111760000Y-25146000D01*
X110236000Y-25146000D02*
X110236000Y-19050000D01*
X110236000Y-19050000D02*
X110744000Y-19050000D01*
X110744000Y-19050000D02*
X110744000Y-25146000D01*
X111760000Y-25146000D02*
X109220000Y-25146000D01*
X109220000Y-25146000D02*
X106680000Y-25146000D01*
X108204000Y-19050000D02*
X108204000Y-25146000D01*
X107696000Y-19050000D02*
X108204000Y-19050000D01*
X107696000Y-25146000D02*
X107696000Y-19050000D01*
X109220000Y-27686000D02*
X109220000Y-25146000D01*
X106680000Y-27686000D02*
X109220000Y-27686000D01*
X114300000Y-27686000D02*
X114300000Y-25146000D01*
X114300000Y-27686000D02*
X116840000Y-27686000D01*
X116840000Y-27686000D02*
X116840000Y-25146000D01*
X115316000Y-25146000D02*
X115316000Y-19050000D01*
X115316000Y-19050000D02*
X115824000Y-19050000D01*
X115824000Y-19050000D02*
X115824000Y-25146000D01*
X116840000Y-25146000D02*
X114300000Y-25146000D01*
X114300000Y-25146000D02*
X111760000Y-25146000D01*
X113284000Y-19050000D02*
X113284000Y-25146000D01*
X112776000Y-19050000D02*
X113284000Y-19050000D01*
X112776000Y-25146000D02*
X112776000Y-19050000D01*
X114300000Y-27686000D02*
X114300000Y-25146000D01*
X111760000Y-27686000D02*
X114300000Y-27686000D01*
X111760000Y-27686000D02*
X111760000Y-25146000D01*
X114554000Y-89916000D02*
X117602000Y-89916000D01*
X117602000Y-89916000D02*
X117602000Y-82804000D01*
X117602000Y-82804000D02*
X114554000Y-82804000D01*
X111506000Y-89916000D02*
X110744000Y-89916000D01*
X110744000Y-89916000D02*
X108458000Y-88392000D01*
X108458000Y-88392000D02*
X108458000Y-84328000D01*
X108458000Y-84328000D02*
X110744000Y-82804000D01*
X110744000Y-82804000D02*
X111506000Y-82804000D01*
X186255000Y-89115000D02*
X186230000Y-89115000D01*
X186255000Y-93765000D02*
X186230000Y-93765000D01*
X179505000Y-93765000D02*
X179530000Y-93765000D01*
X179505000Y-89115000D02*
X179530000Y-89115000D01*
X186255000Y-89115000D02*
X186255000Y-93765000D01*
X179505000Y-89115000D02*
X179505000Y-93765000D01*
X186230000Y-89115000D02*
X186230000Y-88040000D01*
X145615000Y-89115000D02*
X145590000Y-89115000D01*
X145615000Y-93765000D02*
X145590000Y-93765000D01*
X138865000Y-93765000D02*
X138890000Y-93765000D01*
X138865000Y-89115000D02*
X138890000Y-89115000D01*
X145615000Y-89115000D02*
X145615000Y-93765000D01*
X138865000Y-89115000D02*
X138865000Y-93765000D01*
X145590000Y-89115000D02*
X145590000Y-88040000D01*
X176095000Y-89115000D02*
X176070000Y-89115000D01*
X176095000Y-93765000D02*
X176070000Y-93765000D01*
X169345000Y-93765000D02*
X169370000Y-93765000D01*
X169345000Y-89115000D02*
X169370000Y-89115000D01*
X176095000Y-89115000D02*
X176095000Y-93765000D01*
X169345000Y-89115000D02*
X169345000Y-93765000D01*
X176070000Y-89115000D02*
X176070000Y-88040000D01*
X155775000Y-89115000D02*
X155750000Y-89115000D01*
X155775000Y-93765000D02*
X155750000Y-93765000D01*
X149025000Y-93765000D02*
X149050000Y-93765000D01*
X149025000Y-89115000D02*
X149050000Y-89115000D01*
X155775000Y-89115000D02*
X155775000Y-93765000D01*
X149025000Y-89115000D02*
X149025000Y-93765000D01*
X155750000Y-89115000D02*
X155750000Y-88040000D01*
X165935000Y-89115000D02*
X165910000Y-89115000D01*
X165935000Y-93765000D02*
X165910000Y-93765000D01*
X159185000Y-93765000D02*
X159210000Y-93765000D01*
X159185000Y-89115000D02*
X159210000Y-89115000D01*
X165935000Y-89115000D02*
X165935000Y-93765000D01*
X159185000Y-89115000D02*
X159185000Y-93765000D01*
X165910000Y-89115000D02*
X165910000Y-88040000D01*
X160255000Y-38835000D02*
X160255000Y-37935000D01*
X154705000Y-38835000D02*
X154705000Y-37935000D01*
X154705000Y-32285000D02*
X154705000Y-33185000D01*
X160255000Y-32285000D02*
X160255000Y-33185000D01*
X160255000Y-38835000D02*
X154705000Y-38835000D01*
X160255000Y-32285000D02*
X154705000Y-32285000D01*
X160255000Y-37935000D02*
X161530000Y-37935000D01*
X156565000Y-47345000D02*
X156565000Y-47120000D01*
X153315000Y-47345000D02*
X153315000Y-47120000D01*
X153315000Y-44095000D02*
X153315000Y-44320000D01*
X156565000Y-44095000D02*
X156565000Y-44320000D01*
X156565000Y-47345000D02*
X153315000Y-47345000D01*
X156565000Y-44095000D02*
X153315000Y-44095000D01*
X156565000Y-47120000D02*
X157640000Y-47120000D01*
X118465000Y-46635000D02*
X118240000Y-46635000D01*
X118465000Y-49885000D02*
X118240000Y-49885000D01*
X115215000Y-49885000D02*
X115440000Y-49885000D01*
X115215000Y-46635000D02*
X115440000Y-46635000D01*
X118465000Y-46635000D02*
X118465000Y-49885000D01*
X115215000Y-46635000D02*
X115215000Y-49885000D01*
X118240000Y-46635000D02*
X118240000Y-45560000D01*
X126085000Y-46635000D02*
X125860000Y-46635000D01*
X126085000Y-49885000D02*
X125860000Y-49885000D01*
X122835000Y-49885000D02*
X123060000Y-49885000D01*
X122835000Y-46635000D02*
X123060000Y-46635000D01*
X126085000Y-46635000D02*
X126085000Y-49885000D01*
X122835000Y-46635000D02*
X122835000Y-49885000D01*
X125860000Y-46635000D02*
X125860000Y-45560000D01*
D16*
X133991981Y-78957716D02*
X133284874Y-78250610D01*
X133284874Y-78250610D02*
X132860610Y-78674874D01*
X128335126Y-74149390D02*
X128759390Y-73725126D01*
X130208959Y-78356676D02*
X128653324Y-76801041D01*
X131411041Y-74043324D02*
X132966676Y-75598959D01*
X132966676Y-75598959D02*
X133567716Y-74997918D01*
D11*
X164998400Y-58343800D02*
G75*
G03X164998400Y-58343800I-25400J0D01*
G01*
X164998400Y-57378600D02*
X166014400Y-58369200D01*
X164984600Y-43239400D02*
X164984600Y-57379400D01*
X165010000Y-43231600D02*
X185510000Y-43231600D01*
X185510000Y-58370000D02*
X185510000Y-43230000D01*
X185510000Y-58368400D02*
X166010000Y-58368400D01*
X164998400Y-81203800D02*
G75*
G03X164998400Y-81203800I-25400J0D01*
G01*
X164998400Y-80238600D02*
X166014400Y-81229200D01*
X164984600Y-66099400D02*
X164984600Y-80239400D01*
X165010000Y-66091600D02*
X185510000Y-66091600D01*
X185510000Y-81230000D02*
X185510000Y-66090000D01*
X185510000Y-81228400D02*
X166010000Y-81228400D01*
D16*
X151450000Y-113350000D02*
X153350000Y-113350000D01*
X153350000Y-113350000D02*
X153350000Y-115250000D01*
X153350000Y-115250000D02*
X151450000Y-115250000D01*
X151450000Y-115250000D02*
X151450000Y-113350000D01*
X161610000Y-113350000D02*
X163510000Y-113350000D01*
X163510000Y-113350000D02*
X163510000Y-115250000D01*
X163510000Y-115250000D02*
X161610000Y-115250000D01*
X161610000Y-115250000D02*
X161610000Y-113350000D01*
X180425000Y-24595000D02*
X180425000Y-30895000D01*
X167555000Y-25295000D02*
X167555000Y-30895000D01*
X180425000Y-20885000D02*
X180425000Y-22695000D01*
X167555000Y-20885000D02*
X178815000Y-20885000D01*
X167555000Y-22045000D02*
X167555000Y-20885000D01*
X180315000Y-20885000D02*
X180425000Y-20885000D01*
D14*
X144018000Y-110083700D02*
X144018000Y-100736700D01*
X144018000Y-100736700D02*
X188722000Y-100736700D01*
X188722000Y-100736700D02*
X188722000Y-110083700D01*
X188722000Y-110083700D02*
X144018000Y-110083700D01*
D15*
X184250000Y-99631500D02*
G75*
G03X184250000Y-99631500I-100000J0D01*
G01*
D16*
X113780000Y-36290000D02*
X119900000Y-36290000D01*
X119900000Y-36290000D02*
X119900000Y-39910000D01*
X119900000Y-39910000D02*
X113780000Y-39910000D01*
X113780000Y-39910000D02*
X113780000Y-36290000D01*
D11*
X103912000Y-35026000D02*
X103912000Y-36576000D01*
X100812000Y-36576000D02*
X100812000Y-35026000D01*
X100812000Y-35026000D02*
X103912000Y-35026000D01*
X101092000Y-37846000D02*
X103632000Y-37846000D01*
D17*
G36*
X104648000Y-70104000D02*
X104656147Y-70320774D01*
X104713177Y-70417097D01*
X104867971Y-70441852D01*
X104986667Y-70442667D01*
X105203441Y-70450814D01*
X105299764Y-70507843D01*
X105324519Y-70662637D01*
X105325334Y-70781333D01*
X105325334Y-71120000D01*
X103970667Y-71120000D01*
X103970667Y-70442667D01*
X102616000Y-70442667D01*
X102616000Y-73152000D01*
X103970667Y-73152000D01*
X103970667Y-72474667D01*
X105325334Y-72474667D01*
X105325334Y-72813333D01*
X105317186Y-73030107D01*
X105260157Y-73126431D01*
X105105363Y-73151185D01*
X104986667Y-73152000D01*
X104769893Y-73160147D01*
X104673569Y-73217176D01*
X104648815Y-73371970D01*
X104648000Y-73490667D01*
X104648000Y-73829333D01*
X101938667Y-73829333D01*
X101938667Y-73490667D01*
X101929696Y-73273830D01*
X101874304Y-73177467D01*
X101729774Y-73152757D01*
X101642334Y-73152000D01*
X101346000Y-73152000D01*
X101346000Y-70442667D01*
X101642334Y-70442667D01*
X101832065Y-70432414D01*
X101916383Y-70369109D01*
X101938004Y-70203932D01*
X101938667Y-70104000D01*
X101938667Y-69765333D01*
X104648000Y-69765333D01*
X104648000Y-70104000D01*
X104648000Y-70104000D01*
G37*
X104648000Y-70104000D02*
X104656147Y-70320774D01*
X104713177Y-70417097D01*
X104867971Y-70441852D01*
X104986667Y-70442667D01*
X105203441Y-70450814D01*
X105299764Y-70507843D01*
X105324519Y-70662637D01*
X105325334Y-70781333D01*
X105325334Y-71120000D01*
X103970667Y-71120000D01*
X103970667Y-70442667D01*
X102616000Y-70442667D01*
X102616000Y-73152000D01*
X103970667Y-73152000D01*
X103970667Y-72474667D01*
X105325334Y-72474667D01*
X105325334Y-72813333D01*
X105317186Y-73030107D01*
X105260157Y-73126431D01*
X105105363Y-73151185D01*
X104986667Y-73152000D01*
X104769893Y-73160147D01*
X104673569Y-73217176D01*
X104648815Y-73371970D01*
X104648000Y-73490667D01*
X104648000Y-73829333D01*
X101938667Y-73829333D01*
X101938667Y-73490667D01*
X101929696Y-73273830D01*
X101874304Y-73177467D01*
X101729774Y-73152757D01*
X101642334Y-73152000D01*
X101346000Y-73152000D01*
X101346000Y-70442667D01*
X101642334Y-70442667D01*
X101832065Y-70432414D01*
X101916383Y-70369109D01*
X101938004Y-70203932D01*
X101938667Y-70104000D01*
X101938667Y-69765333D01*
X104648000Y-69765333D01*
X104648000Y-70104000D01*
G36*
X108627334Y-70104000D02*
X108635481Y-70320774D01*
X108692510Y-70417097D01*
X108847304Y-70441852D01*
X108966000Y-70442667D01*
X109182774Y-70450814D01*
X109279098Y-70507843D01*
X109303852Y-70662637D01*
X109304667Y-70781333D01*
X109312814Y-70998107D01*
X109369843Y-71094431D01*
X109524637Y-71119185D01*
X109643334Y-71120000D01*
X109982000Y-71120000D01*
X109982000Y-73829333D01*
X108712000Y-73829333D01*
X108712000Y-73152000D01*
X107272667Y-73152000D01*
X107272667Y-73829333D01*
X106002667Y-73829333D01*
X106002667Y-71120000D01*
X106341334Y-71120000D01*
X107272667Y-71120000D01*
X107272667Y-72474667D01*
X108712000Y-72474667D01*
X108712000Y-71120000D01*
X107272667Y-71120000D01*
X106341334Y-71120000D01*
X106558108Y-71111853D01*
X106654431Y-71054823D01*
X106679186Y-70900029D01*
X106680000Y-70781333D01*
X106688147Y-70564559D01*
X106745177Y-70468236D01*
X106899971Y-70443481D01*
X107018667Y-70442667D01*
X107235441Y-70434519D01*
X107331764Y-70377490D01*
X107356519Y-70222696D01*
X107357334Y-70104000D01*
X107357334Y-69765333D01*
X108627334Y-69765333D01*
X108627334Y-70104000D01*
X108627334Y-70104000D01*
G37*
X108627334Y-70104000D02*
X108635481Y-70320774D01*
X108692510Y-70417097D01*
X108847304Y-70441852D01*
X108966000Y-70442667D01*
X109182774Y-70450814D01*
X109279098Y-70507843D01*
X109303852Y-70662637D01*
X109304667Y-70781333D01*
X109312814Y-70998107D01*
X109369843Y-71094431D01*
X109524637Y-71119185D01*
X109643334Y-71120000D01*
X109982000Y-71120000D01*
X109982000Y-73829333D01*
X108712000Y-73829333D01*
X108712000Y-73152000D01*
X107272667Y-73152000D01*
X107272667Y-73829333D01*
X106002667Y-73829333D01*
X106002667Y-71120000D01*
X106341334Y-71120000D01*
X107272667Y-71120000D01*
X107272667Y-72474667D01*
X108712000Y-72474667D01*
X108712000Y-71120000D01*
X107272667Y-71120000D01*
X106341334Y-71120000D01*
X106558108Y-71111853D01*
X106654431Y-71054823D01*
X106679186Y-70900029D01*
X106680000Y-70781333D01*
X106688147Y-70564559D01*
X106745177Y-70468236D01*
X106899971Y-70443481D01*
X107018667Y-70442667D01*
X107235441Y-70434519D01*
X107331764Y-70377490D01*
X107356519Y-70222696D01*
X107357334Y-70104000D01*
X107357334Y-69765333D01*
X108627334Y-69765333D01*
X108627334Y-70104000D01*
G36*
X114130667Y-70104000D02*
X114138814Y-70320774D01*
X114195843Y-70417097D01*
X114350637Y-70441852D01*
X114469334Y-70442667D01*
X114808000Y-70442667D01*
X114808000Y-71797333D01*
X114130667Y-71797333D01*
X114130667Y-73152000D01*
X114469334Y-73152000D01*
X114686108Y-73160147D01*
X114782431Y-73217176D01*
X114807186Y-73371970D01*
X114808000Y-73490667D01*
X114808000Y-73829333D01*
X113453334Y-73829333D01*
X113453334Y-73490667D01*
X113445186Y-73273892D01*
X113388157Y-73177569D01*
X113233363Y-73152814D01*
X113114667Y-73152000D01*
X112897893Y-73143853D01*
X112801569Y-73086823D01*
X112776815Y-72932029D01*
X112776000Y-72813333D01*
X112767853Y-72596559D01*
X112710824Y-72500236D01*
X112556030Y-72475481D01*
X112437334Y-72474667D01*
X112098667Y-72474667D01*
X112098667Y-73829333D01*
X110744000Y-73829333D01*
X110744000Y-70442667D01*
X112098667Y-70442667D01*
X112098667Y-71797333D01*
X113453334Y-71797333D01*
X113453334Y-70442667D01*
X112098667Y-70442667D01*
X110744000Y-70442667D01*
X110744000Y-69765333D01*
X114130667Y-69765333D01*
X114130667Y-70104000D01*
X114130667Y-70104000D01*
G37*
X114130667Y-70104000D02*
X114138814Y-70320774D01*
X114195843Y-70417097D01*
X114350637Y-70441852D01*
X114469334Y-70442667D01*
X114808000Y-70442667D01*
X114808000Y-71797333D01*
X114130667Y-71797333D01*
X114130667Y-73152000D01*
X114469334Y-73152000D01*
X114686108Y-73160147D01*
X114782431Y-73217176D01*
X114807186Y-73371970D01*
X114808000Y-73490667D01*
X114808000Y-73829333D01*
X113453334Y-73829333D01*
X113453334Y-73490667D01*
X113445186Y-73273892D01*
X113388157Y-73177569D01*
X113233363Y-73152814D01*
X113114667Y-73152000D01*
X112897893Y-73143853D01*
X112801569Y-73086823D01*
X112776815Y-72932029D01*
X112776000Y-72813333D01*
X112767853Y-72596559D01*
X112710824Y-72500236D01*
X112556030Y-72475481D01*
X112437334Y-72474667D01*
X112098667Y-72474667D01*
X112098667Y-73829333D01*
X110744000Y-73829333D01*
X110744000Y-70442667D01*
X112098667Y-70442667D01*
X112098667Y-71797333D01*
X113453334Y-71797333D01*
X113453334Y-70442667D01*
X112098667Y-70442667D01*
X110744000Y-70442667D01*
X110744000Y-69765333D01*
X114130667Y-69765333D01*
X114130667Y-70104000D01*
G36*
X119634000Y-70442667D02*
X118279334Y-70442667D01*
X118279334Y-73829333D01*
X117009334Y-73829333D01*
X117009334Y-70442667D01*
X115654667Y-70442667D01*
X115654667Y-69765333D01*
X119634000Y-69765333D01*
X119634000Y-70442667D01*
X119634000Y-70442667D01*
G37*
X119634000Y-70442667D02*
X118279334Y-70442667D01*
X118279334Y-73829333D01*
X117009334Y-73829333D01*
X117009334Y-70442667D01*
X115654667Y-70442667D01*
X115654667Y-69765333D01*
X119634000Y-69765333D01*
X119634000Y-70442667D01*
G36*
X106764667Y-64699807D02*
X106764667Y-68034208D01*
X106191042Y-68603437D01*
X105617417Y-69172667D01*
X100922667Y-69172667D01*
X100922667Y-65193333D01*
X102870000Y-65193333D01*
X102870000Y-67564000D01*
X104732667Y-67564000D01*
X104732667Y-65193333D01*
X102870000Y-65193333D01*
X100922667Y-65193333D01*
X100922667Y-63330667D01*
X105393685Y-63330667D01*
X106764667Y-64699807D01*
X106764667Y-64699807D01*
G37*
X106764667Y-64699807D02*
X106764667Y-68034208D01*
X106191042Y-68603437D01*
X105617417Y-69172667D01*
X100922667Y-69172667D01*
X100922667Y-65193333D01*
X102870000Y-65193333D01*
X102870000Y-67564000D01*
X104732667Y-67564000D01*
X104732667Y-65193333D01*
X102870000Y-65193333D01*
X100922667Y-65193333D01*
X100922667Y-63330667D01*
X105393685Y-63330667D01*
X106764667Y-64699807D01*
G36*
X109304667Y-67394667D02*
X111252000Y-67394667D01*
X111252000Y-63330667D01*
X113114667Y-63330667D01*
X113114667Y-69172667D01*
X110849834Y-69160944D01*
X108585000Y-69149221D01*
X107971167Y-68514502D01*
X107357334Y-67879784D01*
X107357334Y-63330667D01*
X109304667Y-63330667D01*
X109304667Y-67394667D01*
X109304667Y-67394667D01*
G37*
X109304667Y-67394667D02*
X111252000Y-67394667D01*
X111252000Y-63330667D01*
X113114667Y-63330667D01*
X113114667Y-69172667D01*
X110849834Y-69160944D01*
X108585000Y-69149221D01*
X107971167Y-68514502D01*
X107357334Y-67879784D01*
X107357334Y-63330667D01*
X109304667Y-63330667D01*
X109304667Y-67394667D01*
G36*
X119108742Y-64021539D02*
X119803334Y-64712412D01*
X119803334Y-69172667D01*
X117496167Y-69172067D01*
X115189000Y-69171468D01*
X114532834Y-68507292D01*
X113876667Y-67843116D01*
X113876667Y-65193333D01*
X115908667Y-65193333D01*
X115908667Y-67394667D01*
X117771334Y-67394667D01*
X117771334Y-65193333D01*
X115908667Y-65193333D01*
X113876667Y-65193333D01*
X113876667Y-63330667D01*
X118414150Y-63330667D01*
X119108742Y-64021539D01*
X119108742Y-64021539D01*
G37*
X119108742Y-64021539D02*
X119803334Y-64712412D01*
X119803334Y-69172667D01*
X117496167Y-69172067D01*
X115189000Y-69171468D01*
X114532834Y-68507292D01*
X113876667Y-67843116D01*
X113876667Y-65193333D01*
X115908667Y-65193333D01*
X115908667Y-67394667D01*
X117771334Y-67394667D01*
X117771334Y-65193333D01*
X115908667Y-65193333D01*
X113876667Y-65193333D01*
X113876667Y-63330667D01*
X118414150Y-63330667D01*
X119108742Y-64021539D01*
G36*
X152053600Y-71489054D02*
X152064465Y-71602993D01*
X152096082Y-71710616D01*
X152146985Y-71809615D01*
X152215707Y-71897684D01*
X152300781Y-71972516D01*
X152397768Y-72030384D01*
X152504036Y-72070005D01*
X152611050Y-72088573D01*
X152716700Y-72087434D01*
X152818875Y-72067930D01*
X152915466Y-72031406D01*
X153004362Y-71979205D01*
X153083454Y-71912673D01*
X153150631Y-71833152D01*
X153203783Y-71741987D01*
X153240801Y-71640523D01*
X153259573Y-71530102D01*
X153261511Y-71480206D01*
X153261511Y-71392267D01*
X153313440Y-71392267D01*
X153349747Y-71395111D01*
X153376645Y-71406911D01*
X153403751Y-71430649D01*
X153442133Y-71469031D01*
X153442133Y-73660602D01*
X153442124Y-73922739D01*
X153442092Y-74163241D01*
X153442028Y-74383048D01*
X153441924Y-74583101D01*
X153441773Y-74764344D01*
X153441566Y-74927716D01*
X153441294Y-75074160D01*
X153440950Y-75204617D01*
X153440526Y-75320029D01*
X153440013Y-75421338D01*
X153439403Y-75509484D01*
X153438688Y-75585410D01*
X153437860Y-75650057D01*
X153436911Y-75704367D01*
X153435833Y-75749280D01*
X153434617Y-75785740D01*
X153433255Y-75814687D01*
X153431739Y-75837063D01*
X153430062Y-75853809D01*
X153428214Y-75865868D01*
X153426187Y-75874180D01*
X153423975Y-75879687D01*
X153422892Y-75881537D01*
X153418729Y-75888549D01*
X153415195Y-75894996D01*
X153411365Y-75900900D01*
X153406318Y-75906286D01*
X153399129Y-75911178D01*
X153388877Y-75915598D01*
X153374636Y-75919572D01*
X153355486Y-75923121D01*
X153330501Y-75926270D01*
X153298760Y-75929042D01*
X153259338Y-75931461D01*
X153211314Y-75933551D01*
X153153763Y-75935335D01*
X153085763Y-75936837D01*
X153006390Y-75938080D01*
X152914721Y-75939089D01*
X152809834Y-75939885D01*
X152690804Y-75940494D01*
X152556710Y-75940939D01*
X152406627Y-75941243D01*
X152239633Y-75941430D01*
X152054804Y-75941524D01*
X151851217Y-75941548D01*
X151627950Y-75941525D01*
X151384078Y-75941480D01*
X151118679Y-75941437D01*
X151080296Y-75941432D01*
X150813318Y-75941389D01*
X150567998Y-75941318D01*
X150343417Y-75941213D01*
X150138655Y-75941066D01*
X149952794Y-75940869D01*
X149784912Y-75940616D01*
X149634092Y-75940300D01*
X149499413Y-75939913D01*
X149379956Y-75939447D01*
X149274801Y-75938897D01*
X149183029Y-75938253D01*
X149103721Y-75937511D01*
X149035957Y-75936661D01*
X148978818Y-75935697D01*
X148931383Y-75934611D01*
X148892734Y-75933397D01*
X148861951Y-75932047D01*
X148838115Y-75930555D01*
X148820306Y-75928911D01*
X148807605Y-75927111D01*
X148799092Y-75925145D01*
X148794734Y-75923477D01*
X148786272Y-75919906D01*
X148778503Y-75917270D01*
X148771398Y-75914634D01*
X148764927Y-75911062D01*
X148759061Y-75905621D01*
X148753771Y-75897375D01*
X148749026Y-75885390D01*
X148744798Y-75868731D01*
X148741057Y-75846463D01*
X148737773Y-75817652D01*
X148734917Y-75781363D01*
X148732460Y-75736661D01*
X148730371Y-75682611D01*
X148728622Y-75618279D01*
X148727183Y-75542730D01*
X148726024Y-75455030D01*
X148725117Y-75354243D01*
X148724431Y-75239434D01*
X148723937Y-75109670D01*
X148723605Y-74964015D01*
X148723407Y-74801535D01*
X148723313Y-74621295D01*
X148723292Y-74422360D01*
X148723315Y-74203796D01*
X148723354Y-73964668D01*
X148723378Y-73704040D01*
X148723378Y-73661889D01*
X148723364Y-73398992D01*
X148723339Y-73157732D01*
X148723329Y-72937165D01*
X148723358Y-72736352D01*
X148723452Y-72554349D01*
X148723638Y-72390216D01*
X148723941Y-72243011D01*
X148724386Y-72111792D01*
X148724966Y-72001867D01*
X149027803Y-72001867D01*
X149067593Y-72059711D01*
X149078764Y-72075479D01*
X149088834Y-72089441D01*
X149097862Y-72102784D01*
X149105903Y-72116693D01*
X149113014Y-72132356D01*
X149119253Y-72150958D01*
X149124675Y-72173686D01*
X149129338Y-72201727D01*
X149133299Y-72236267D01*
X149136615Y-72278492D01*
X149139341Y-72329589D01*
X149141536Y-72390744D01*
X149143255Y-72463144D01*
X149144556Y-72547975D01*
X149145495Y-72646422D01*
X149146130Y-72759674D01*
X149146516Y-72888916D01*
X149146712Y-73035334D01*
X149146773Y-73200116D01*
X149146757Y-73384447D01*
X149146720Y-73589513D01*
X149146711Y-73712133D01*
X149146735Y-73929082D01*
X149146769Y-74124642D01*
X149146757Y-74299999D01*
X149146642Y-74456341D01*
X149146370Y-74594857D01*
X149145882Y-74716734D01*
X149145124Y-74823160D01*
X149144038Y-74915322D01*
X149142569Y-74994409D01*
X149140660Y-75061608D01*
X149138256Y-75118107D01*
X149135299Y-75165093D01*
X149131734Y-75203755D01*
X149127505Y-75235280D01*
X149122554Y-75260855D01*
X149116827Y-75281670D01*
X149110267Y-75298911D01*
X149102817Y-75313765D01*
X149094421Y-75327422D01*
X149085024Y-75341069D01*
X149074568Y-75355893D01*
X149068477Y-75364783D01*
X149029704Y-75422400D01*
X149561268Y-75422400D01*
X149684517Y-75422365D01*
X149787013Y-75422215D01*
X149870580Y-75421878D01*
X149937044Y-75421286D01*
X149988229Y-75420367D01*
X150025959Y-75419051D01*
X150052060Y-75417269D01*
X150068356Y-75414951D01*
X150076672Y-75412026D01*
X150078832Y-75408424D01*
X150076661Y-75404075D01*
X150075465Y-75402645D01*
X150050315Y-75365573D01*
X150024417Y-75312772D01*
X150000808Y-75250770D01*
X149992539Y-75224357D01*
X149987922Y-75206416D01*
X149984021Y-75185355D01*
X149980752Y-75159089D01*
X149978034Y-75125532D01*
X149975785Y-75082599D01*
X149973923Y-75028204D01*
X149972364Y-74960262D01*
X149971028Y-74876688D01*
X149969831Y-74775395D01*
X149968692Y-74654300D01*
X149968315Y-74609600D01*
X149967298Y-74484449D01*
X149966540Y-74380082D01*
X149966097Y-74294707D01*
X149966030Y-74226533D01*
X149966395Y-74173765D01*
X149967252Y-74134614D01*
X149968659Y-74107285D01*
X149970675Y-74089986D01*
X149973357Y-74080926D01*
X149976764Y-74078312D01*
X149980956Y-74080351D01*
X149985429Y-74084667D01*
X149995784Y-74097602D01*
X150017842Y-74126676D01*
X150050043Y-74169759D01*
X150090826Y-74224718D01*
X150138630Y-74289423D01*
X150191895Y-74361742D01*
X150249060Y-74439544D01*
X150308563Y-74520698D01*
X150368845Y-74603072D01*
X150428345Y-74684536D01*
X150485502Y-74762957D01*
X150538755Y-74836204D01*
X150586543Y-74902147D01*
X150627307Y-74958654D01*
X150659484Y-75003593D01*
X150681515Y-75034834D01*
X150686083Y-75041466D01*
X150709004Y-75078369D01*
X150735812Y-75126359D01*
X150761211Y-75175897D01*
X150764432Y-75182577D01*
X150786110Y-75230772D01*
X150798696Y-75268334D01*
X150804426Y-75304160D01*
X150805544Y-75346200D01*
X150804910Y-75422400D01*
X151959349Y-75422400D01*
X151868185Y-75328669D01*
X151821388Y-75278775D01*
X151771101Y-75222295D01*
X151725056Y-75168026D01*
X151704631Y-75142673D01*
X151674193Y-75103128D01*
X151634138Y-75049916D01*
X151585639Y-74984667D01*
X151529865Y-74909011D01*
X151467989Y-74824577D01*
X151401181Y-74732994D01*
X151330613Y-74635892D01*
X151257455Y-74534901D01*
X151182879Y-74431650D01*
X151108056Y-74327768D01*
X151034157Y-74224885D01*
X150962354Y-74124631D01*
X150893816Y-74028636D01*
X150829716Y-73938527D01*
X150771225Y-73855936D01*
X150719514Y-73782492D01*
X150675753Y-73719824D01*
X150641115Y-73669561D01*
X150616770Y-73633334D01*
X150603889Y-73612771D01*
X150602131Y-73608668D01*
X150610090Y-73597342D01*
X150630885Y-73570162D01*
X150663153Y-73528829D01*
X150705530Y-73475044D01*
X150756653Y-73410506D01*
X150815159Y-73336918D01*
X150879686Y-73255978D01*
X150948869Y-73169388D01*
X151021347Y-73078848D01*
X151095754Y-72986060D01*
X151155483Y-72911702D01*
X152166489Y-72911702D01*
X152172398Y-72924659D01*
X152186728Y-72946908D01*
X152187775Y-72948391D01*
X152206562Y-72978544D01*
X152226209Y-73015375D01*
X152230108Y-73023511D01*
X152233644Y-73031940D01*
X152236770Y-73042059D01*
X152239514Y-73055260D01*
X152241908Y-73072938D01*
X152243981Y-73096484D01*
X152245765Y-73127293D01*
X152247288Y-73166757D01*
X152248581Y-73216269D01*
X152249674Y-73277223D01*
X152250597Y-73351011D01*
X152251381Y-73439028D01*
X152252055Y-73542665D01*
X152252650Y-73663316D01*
X152253195Y-73802374D01*
X152253721Y-73961232D01*
X152254255Y-74140089D01*
X152254794Y-74325207D01*
X152255228Y-74489145D01*
X152255491Y-74633303D01*
X152255516Y-74759079D01*
X152255235Y-74867871D01*
X152254581Y-74961077D01*
X152253486Y-75040097D01*
X152251882Y-75106328D01*
X152249703Y-75161170D01*
X152246881Y-75206021D01*
X152243349Y-75242278D01*
X152239039Y-75271341D01*
X152233883Y-75294609D01*
X152227815Y-75313479D01*
X152220767Y-75329351D01*
X152212671Y-75343622D01*
X152203460Y-75357691D01*
X152194960Y-75370158D01*
X152177824Y-75396452D01*
X152167678Y-75414037D01*
X152166489Y-75417257D01*
X152177396Y-75418334D01*
X152208589Y-75419335D01*
X152257777Y-75420235D01*
X152322667Y-75421010D01*
X152400970Y-75421637D01*
X152490393Y-75422091D01*
X152588644Y-75422349D01*
X152657555Y-75422400D01*
X152762548Y-75422180D01*
X152859390Y-75421548D01*
X152945893Y-75420549D01*
X153019868Y-75419227D01*
X153079126Y-75417626D01*
X153121480Y-75415791D01*
X153144740Y-75413765D01*
X153148622Y-75412493D01*
X153140924Y-75397591D01*
X153132926Y-75389560D01*
X153119754Y-75372434D01*
X153102515Y-75342183D01*
X153090593Y-75317622D01*
X153063955Y-75258711D01*
X153060880Y-74081845D01*
X153057805Y-72904978D01*
X152612147Y-72904978D01*
X152514330Y-72905142D01*
X152423936Y-72905611D01*
X152343370Y-72906347D01*
X152275038Y-72907316D01*
X152221344Y-72908480D01*
X152184695Y-72909803D01*
X152167496Y-72911249D01*
X152166489Y-72911702D01*
X151155483Y-72911702D01*
X151170730Y-72892722D01*
X151244910Y-72800537D01*
X151316931Y-72711204D01*
X151385431Y-72626424D01*
X151449045Y-72547898D01*
X151506412Y-72477326D01*
X151556167Y-72416409D01*
X151596948Y-72366847D01*
X151614112Y-72346178D01*
X151700404Y-72245516D01*
X151777003Y-72162259D01*
X151845817Y-72094438D01*
X151908752Y-72040089D01*
X151918133Y-72032722D01*
X151957644Y-72002117D01*
X150825884Y-72001867D01*
X150831173Y-72049844D01*
X150827870Y-72107188D01*
X150806339Y-72175463D01*
X150766365Y-72255212D01*
X150721057Y-72327495D01*
X150704839Y-72350140D01*
X150676786Y-72387696D01*
X150638570Y-72438021D01*
X150591863Y-72498973D01*
X150538339Y-72568411D01*
X150479669Y-72644194D01*
X150417525Y-72724180D01*
X150353579Y-72806228D01*
X150289505Y-72888196D01*
X150226973Y-72967943D01*
X150167657Y-73043327D01*
X150113229Y-73112207D01*
X150065361Y-73172442D01*
X150025725Y-73221889D01*
X149995994Y-73258408D01*
X149977839Y-73279858D01*
X149974780Y-73283156D01*
X149971921Y-73275149D01*
X149969707Y-73244855D01*
X149968143Y-73192556D01*
X149967233Y-73118531D01*
X149966980Y-73023063D01*
X149967387Y-72906434D01*
X149968296Y-72786445D01*
X149969618Y-72654333D01*
X149971143Y-72542594D01*
X149973119Y-72449025D01*
X149975794Y-72371419D01*
X149979418Y-72307574D01*
X149984239Y-72255283D01*
X149990506Y-72212344D01*
X149998468Y-72176551D01*
X150008373Y-72145700D01*
X150020469Y-72117586D01*
X150035007Y-72090005D01*
X150049689Y-72064966D01*
X150087686Y-72001867D01*
X149027803Y-72001867D01*
X148724966Y-72001867D01*
X148724999Y-71995617D01*
X148725805Y-71893544D01*
X148726830Y-71804633D01*
X148728100Y-71727941D01*
X148729640Y-71662527D01*
X148731476Y-71607449D01*
X148733633Y-71561765D01*
X148736137Y-71524534D01*
X148739013Y-71494813D01*
X148742287Y-71471662D01*
X148745985Y-71454139D01*
X148750131Y-71441301D01*
X148754753Y-71432208D01*
X148759874Y-71425918D01*
X148765522Y-71421488D01*
X148771721Y-71417978D01*
X148778496Y-71414445D01*
X148784492Y-71410876D01*
X148789725Y-71408300D01*
X148797901Y-71405972D01*
X148810114Y-71403878D01*
X148827459Y-71402007D01*
X148851031Y-71400347D01*
X148881923Y-71398884D01*
X148921232Y-71397608D01*
X148970050Y-71396504D01*
X149029473Y-71395561D01*
X149100596Y-71394767D01*
X149184512Y-71394109D01*
X149282317Y-71393575D01*
X149395106Y-71393153D01*
X149523971Y-71392829D01*
X149670009Y-71392592D01*
X149834314Y-71392430D01*
X150017980Y-71392330D01*
X150222103Y-71392280D01*
X150433247Y-71392267D01*
X152053600Y-71392267D01*
X152053600Y-71489054D01*
X152053600Y-71489054D01*
G37*
X152053600Y-71489054D02*
X152064465Y-71602993D01*
X152096082Y-71710616D01*
X152146985Y-71809615D01*
X152215707Y-71897684D01*
X152300781Y-71972516D01*
X152397768Y-72030384D01*
X152504036Y-72070005D01*
X152611050Y-72088573D01*
X152716700Y-72087434D01*
X152818875Y-72067930D01*
X152915466Y-72031406D01*
X153004362Y-71979205D01*
X153083454Y-71912673D01*
X153150631Y-71833152D01*
X153203783Y-71741987D01*
X153240801Y-71640523D01*
X153259573Y-71530102D01*
X153261511Y-71480206D01*
X153261511Y-71392267D01*
X153313440Y-71392267D01*
X153349747Y-71395111D01*
X153376645Y-71406911D01*
X153403751Y-71430649D01*
X153442133Y-71469031D01*
X153442133Y-73660602D01*
X153442124Y-73922739D01*
X153442092Y-74163241D01*
X153442028Y-74383048D01*
X153441924Y-74583101D01*
X153441773Y-74764344D01*
X153441566Y-74927716D01*
X153441294Y-75074160D01*
X153440950Y-75204617D01*
X153440526Y-75320029D01*
X153440013Y-75421338D01*
X153439403Y-75509484D01*
X153438688Y-75585410D01*
X153437860Y-75650057D01*
X153436911Y-75704367D01*
X153435833Y-75749280D01*
X153434617Y-75785740D01*
X153433255Y-75814687D01*
X153431739Y-75837063D01*
X153430062Y-75853809D01*
X153428214Y-75865868D01*
X153426187Y-75874180D01*
X153423975Y-75879687D01*
X153422892Y-75881537D01*
X153418729Y-75888549D01*
X153415195Y-75894996D01*
X153411365Y-75900900D01*
X153406318Y-75906286D01*
X153399129Y-75911178D01*
X153388877Y-75915598D01*
X153374636Y-75919572D01*
X153355486Y-75923121D01*
X153330501Y-75926270D01*
X153298760Y-75929042D01*
X153259338Y-75931461D01*
X153211314Y-75933551D01*
X153153763Y-75935335D01*
X153085763Y-75936837D01*
X153006390Y-75938080D01*
X152914721Y-75939089D01*
X152809834Y-75939885D01*
X152690804Y-75940494D01*
X152556710Y-75940939D01*
X152406627Y-75941243D01*
X152239633Y-75941430D01*
X152054804Y-75941524D01*
X151851217Y-75941548D01*
X151627950Y-75941525D01*
X151384078Y-75941480D01*
X151118679Y-75941437D01*
X151080296Y-75941432D01*
X150813318Y-75941389D01*
X150567998Y-75941318D01*
X150343417Y-75941213D01*
X150138655Y-75941066D01*
X149952794Y-75940869D01*
X149784912Y-75940616D01*
X149634092Y-75940300D01*
X149499413Y-75939913D01*
X149379956Y-75939447D01*
X149274801Y-75938897D01*
X149183029Y-75938253D01*
X149103721Y-75937511D01*
X149035957Y-75936661D01*
X148978818Y-75935697D01*
X148931383Y-75934611D01*
X148892734Y-75933397D01*
X148861951Y-75932047D01*
X148838115Y-75930555D01*
X148820306Y-75928911D01*
X148807605Y-75927111D01*
X148799092Y-75925145D01*
X148794734Y-75923477D01*
X148786272Y-75919906D01*
X148778503Y-75917270D01*
X148771398Y-75914634D01*
X148764927Y-75911062D01*
X148759061Y-75905621D01*
X148753771Y-75897375D01*
X148749026Y-75885390D01*
X148744798Y-75868731D01*
X148741057Y-75846463D01*
X148737773Y-75817652D01*
X148734917Y-75781363D01*
X148732460Y-75736661D01*
X148730371Y-75682611D01*
X148728622Y-75618279D01*
X148727183Y-75542730D01*
X148726024Y-75455030D01*
X148725117Y-75354243D01*
X148724431Y-75239434D01*
X148723937Y-75109670D01*
X148723605Y-74964015D01*
X148723407Y-74801535D01*
X148723313Y-74621295D01*
X148723292Y-74422360D01*
X148723315Y-74203796D01*
X148723354Y-73964668D01*
X148723378Y-73704040D01*
X148723378Y-73661889D01*
X148723364Y-73398992D01*
X148723339Y-73157732D01*
X148723329Y-72937165D01*
X148723358Y-72736352D01*
X148723452Y-72554349D01*
X148723638Y-72390216D01*
X148723941Y-72243011D01*
X148724386Y-72111792D01*
X148724966Y-72001867D01*
X149027803Y-72001867D01*
X149067593Y-72059711D01*
X149078764Y-72075479D01*
X149088834Y-72089441D01*
X149097862Y-72102784D01*
X149105903Y-72116693D01*
X149113014Y-72132356D01*
X149119253Y-72150958D01*
X149124675Y-72173686D01*
X149129338Y-72201727D01*
X149133299Y-72236267D01*
X149136615Y-72278492D01*
X149139341Y-72329589D01*
X149141536Y-72390744D01*
X149143255Y-72463144D01*
X149144556Y-72547975D01*
X149145495Y-72646422D01*
X149146130Y-72759674D01*
X149146516Y-72888916D01*
X149146712Y-73035334D01*
X149146773Y-73200116D01*
X149146757Y-73384447D01*
X149146720Y-73589513D01*
X149146711Y-73712133D01*
X149146735Y-73929082D01*
X149146769Y-74124642D01*
X149146757Y-74299999D01*
X149146642Y-74456341D01*
X149146370Y-74594857D01*
X149145882Y-74716734D01*
X149145124Y-74823160D01*
X149144038Y-74915322D01*
X149142569Y-74994409D01*
X149140660Y-75061608D01*
X149138256Y-75118107D01*
X149135299Y-75165093D01*
X149131734Y-75203755D01*
X149127505Y-75235280D01*
X149122554Y-75260855D01*
X149116827Y-75281670D01*
X149110267Y-75298911D01*
X149102817Y-75313765D01*
X149094421Y-75327422D01*
X149085024Y-75341069D01*
X149074568Y-75355893D01*
X149068477Y-75364783D01*
X149029704Y-75422400D01*
X149561268Y-75422400D01*
X149684517Y-75422365D01*
X149787013Y-75422215D01*
X149870580Y-75421878D01*
X149937044Y-75421286D01*
X149988229Y-75420367D01*
X150025959Y-75419051D01*
X150052060Y-75417269D01*
X150068356Y-75414951D01*
X150076672Y-75412026D01*
X150078832Y-75408424D01*
X150076661Y-75404075D01*
X150075465Y-75402645D01*
X150050315Y-75365573D01*
X150024417Y-75312772D01*
X150000808Y-75250770D01*
X149992539Y-75224357D01*
X149987922Y-75206416D01*
X149984021Y-75185355D01*
X149980752Y-75159089D01*
X149978034Y-75125532D01*
X149975785Y-75082599D01*
X149973923Y-75028204D01*
X149972364Y-74960262D01*
X149971028Y-74876688D01*
X149969831Y-74775395D01*
X149968692Y-74654300D01*
X149968315Y-74609600D01*
X149967298Y-74484449D01*
X149966540Y-74380082D01*
X149966097Y-74294707D01*
X149966030Y-74226533D01*
X149966395Y-74173765D01*
X149967252Y-74134614D01*
X149968659Y-74107285D01*
X149970675Y-74089986D01*
X149973357Y-74080926D01*
X149976764Y-74078312D01*
X149980956Y-74080351D01*
X149985429Y-74084667D01*
X149995784Y-74097602D01*
X150017842Y-74126676D01*
X150050043Y-74169759D01*
X150090826Y-74224718D01*
X150138630Y-74289423D01*
X150191895Y-74361742D01*
X150249060Y-74439544D01*
X150308563Y-74520698D01*
X150368845Y-74603072D01*
X150428345Y-74684536D01*
X150485502Y-74762957D01*
X150538755Y-74836204D01*
X150586543Y-74902147D01*
X150627307Y-74958654D01*
X150659484Y-75003593D01*
X150681515Y-75034834D01*
X150686083Y-75041466D01*
X150709004Y-75078369D01*
X150735812Y-75126359D01*
X150761211Y-75175897D01*
X150764432Y-75182577D01*
X150786110Y-75230772D01*
X150798696Y-75268334D01*
X150804426Y-75304160D01*
X150805544Y-75346200D01*
X150804910Y-75422400D01*
X151959349Y-75422400D01*
X151868185Y-75328669D01*
X151821388Y-75278775D01*
X151771101Y-75222295D01*
X151725056Y-75168026D01*
X151704631Y-75142673D01*
X151674193Y-75103128D01*
X151634138Y-75049916D01*
X151585639Y-74984667D01*
X151529865Y-74909011D01*
X151467989Y-74824577D01*
X151401181Y-74732994D01*
X151330613Y-74635892D01*
X151257455Y-74534901D01*
X151182879Y-74431650D01*
X151108056Y-74327768D01*
X151034157Y-74224885D01*
X150962354Y-74124631D01*
X150893816Y-74028636D01*
X150829716Y-73938527D01*
X150771225Y-73855936D01*
X150719514Y-73782492D01*
X150675753Y-73719824D01*
X150641115Y-73669561D01*
X150616770Y-73633334D01*
X150603889Y-73612771D01*
X150602131Y-73608668D01*
X150610090Y-73597342D01*
X150630885Y-73570162D01*
X150663153Y-73528829D01*
X150705530Y-73475044D01*
X150756653Y-73410506D01*
X150815159Y-73336918D01*
X150879686Y-73255978D01*
X150948869Y-73169388D01*
X151021347Y-73078848D01*
X151095754Y-72986060D01*
X151155483Y-72911702D01*
X152166489Y-72911702D01*
X152172398Y-72924659D01*
X152186728Y-72946908D01*
X152187775Y-72948391D01*
X152206562Y-72978544D01*
X152226209Y-73015375D01*
X152230108Y-73023511D01*
X152233644Y-73031940D01*
X152236770Y-73042059D01*
X152239514Y-73055260D01*
X152241908Y-73072938D01*
X152243981Y-73096484D01*
X152245765Y-73127293D01*
X152247288Y-73166757D01*
X152248581Y-73216269D01*
X152249674Y-73277223D01*
X152250597Y-73351011D01*
X152251381Y-73439028D01*
X152252055Y-73542665D01*
X152252650Y-73663316D01*
X152253195Y-73802374D01*
X152253721Y-73961232D01*
X152254255Y-74140089D01*
X152254794Y-74325207D01*
X152255228Y-74489145D01*
X152255491Y-74633303D01*
X152255516Y-74759079D01*
X152255235Y-74867871D01*
X152254581Y-74961077D01*
X152253486Y-75040097D01*
X152251882Y-75106328D01*
X152249703Y-75161170D01*
X152246881Y-75206021D01*
X152243349Y-75242278D01*
X152239039Y-75271341D01*
X152233883Y-75294609D01*
X152227815Y-75313479D01*
X152220767Y-75329351D01*
X152212671Y-75343622D01*
X152203460Y-75357691D01*
X152194960Y-75370158D01*
X152177824Y-75396452D01*
X152167678Y-75414037D01*
X152166489Y-75417257D01*
X152177396Y-75418334D01*
X152208589Y-75419335D01*
X152257777Y-75420235D01*
X152322667Y-75421010D01*
X152400970Y-75421637D01*
X152490393Y-75422091D01*
X152588644Y-75422349D01*
X152657555Y-75422400D01*
X152762548Y-75422180D01*
X152859390Y-75421548D01*
X152945893Y-75420549D01*
X153019868Y-75419227D01*
X153079126Y-75417626D01*
X153121480Y-75415791D01*
X153144740Y-75413765D01*
X153148622Y-75412493D01*
X153140924Y-75397591D01*
X153132926Y-75389560D01*
X153119754Y-75372434D01*
X153102515Y-75342183D01*
X153090593Y-75317622D01*
X153063955Y-75258711D01*
X153060880Y-74081845D01*
X153057805Y-72904978D01*
X152612147Y-72904978D01*
X152514330Y-72905142D01*
X152423936Y-72905611D01*
X152343370Y-72906347D01*
X152275038Y-72907316D01*
X152221344Y-72908480D01*
X152184695Y-72909803D01*
X152167496Y-72911249D01*
X152166489Y-72911702D01*
X151155483Y-72911702D01*
X151170730Y-72892722D01*
X151244910Y-72800537D01*
X151316931Y-72711204D01*
X151385431Y-72626424D01*
X151449045Y-72547898D01*
X151506412Y-72477326D01*
X151556167Y-72416409D01*
X151596948Y-72366847D01*
X151614112Y-72346178D01*
X151700404Y-72245516D01*
X151777003Y-72162259D01*
X151845817Y-72094438D01*
X151908752Y-72040089D01*
X151918133Y-72032722D01*
X151957644Y-72002117D01*
X150825884Y-72001867D01*
X150831173Y-72049844D01*
X150827870Y-72107188D01*
X150806339Y-72175463D01*
X150766365Y-72255212D01*
X150721057Y-72327495D01*
X150704839Y-72350140D01*
X150676786Y-72387696D01*
X150638570Y-72438021D01*
X150591863Y-72498973D01*
X150538339Y-72568411D01*
X150479669Y-72644194D01*
X150417525Y-72724180D01*
X150353579Y-72806228D01*
X150289505Y-72888196D01*
X150226973Y-72967943D01*
X150167657Y-73043327D01*
X150113229Y-73112207D01*
X150065361Y-73172442D01*
X150025725Y-73221889D01*
X149995994Y-73258408D01*
X149977839Y-73279858D01*
X149974780Y-73283156D01*
X149971921Y-73275149D01*
X149969707Y-73244855D01*
X149968143Y-73192556D01*
X149967233Y-73118531D01*
X149966980Y-73023063D01*
X149967387Y-72906434D01*
X149968296Y-72786445D01*
X149969618Y-72654333D01*
X149971143Y-72542594D01*
X149973119Y-72449025D01*
X149975794Y-72371419D01*
X149979418Y-72307574D01*
X149984239Y-72255283D01*
X149990506Y-72212344D01*
X149998468Y-72176551D01*
X150008373Y-72145700D01*
X150020469Y-72117586D01*
X150035007Y-72090005D01*
X150049689Y-72064966D01*
X150087686Y-72001867D01*
X149027803Y-72001867D01*
X148724966Y-72001867D01*
X148724999Y-71995617D01*
X148725805Y-71893544D01*
X148726830Y-71804633D01*
X148728100Y-71727941D01*
X148729640Y-71662527D01*
X148731476Y-71607449D01*
X148733633Y-71561765D01*
X148736137Y-71524534D01*
X148739013Y-71494813D01*
X148742287Y-71471662D01*
X148745985Y-71454139D01*
X148750131Y-71441301D01*
X148754753Y-71432208D01*
X148759874Y-71425918D01*
X148765522Y-71421488D01*
X148771721Y-71417978D01*
X148778496Y-71414445D01*
X148784492Y-71410876D01*
X148789725Y-71408300D01*
X148797901Y-71405972D01*
X148810114Y-71403878D01*
X148827459Y-71402007D01*
X148851031Y-71400347D01*
X148881923Y-71398884D01*
X148921232Y-71397608D01*
X148970050Y-71396504D01*
X149029473Y-71395561D01*
X149100596Y-71394767D01*
X149184512Y-71394109D01*
X149282317Y-71393575D01*
X149395106Y-71393153D01*
X149523971Y-71392829D01*
X149670009Y-71392592D01*
X149834314Y-71392430D01*
X150017980Y-71392330D01*
X150222103Y-71392280D01*
X150433247Y-71392267D01*
X152053600Y-71392267D01*
X152053600Y-71489054D01*
G36*
X155328429Y-71949071D02*
X155488570Y-71970245D01*
X155652510Y-72010385D01*
X155822313Y-72069889D01*
X156000043Y-72149154D01*
X156011310Y-72154699D01*
X156069005Y-72182725D01*
X156120552Y-72206802D01*
X156162191Y-72225249D01*
X156190162Y-72236386D01*
X156199733Y-72238933D01*
X156218950Y-72243941D01*
X156223561Y-72248147D01*
X156218458Y-72258580D01*
X156202418Y-72284868D01*
X156177288Y-72324257D01*
X156144914Y-72373991D01*
X156107143Y-72431315D01*
X156065822Y-72493476D01*
X156022798Y-72557718D01*
X155979917Y-72621285D01*
X155939026Y-72681425D01*
X155901971Y-72735380D01*
X155870600Y-72780397D01*
X155846759Y-72813721D01*
X155832294Y-72832597D01*
X155830309Y-72834787D01*
X155820191Y-72830138D01*
X155797850Y-72812962D01*
X155767280Y-72786440D01*
X155751536Y-72771964D01*
X155655047Y-72696682D01*
X155548336Y-72641241D01*
X155432832Y-72606141D01*
X155309962Y-72591880D01*
X155240561Y-72593051D01*
X155119423Y-72610212D01*
X155010205Y-72646094D01*
X154912582Y-72700959D01*
X154826228Y-72775070D01*
X154750815Y-72868688D01*
X154686018Y-72982076D01*
X154648601Y-73068667D01*
X154604748Y-73204366D01*
X154572428Y-73351850D01*
X154551557Y-73507314D01*
X154542051Y-73666956D01*
X154543827Y-73826973D01*
X154556803Y-73983561D01*
X154580894Y-74132918D01*
X154616018Y-74271240D01*
X154662092Y-74394724D01*
X154678373Y-74428978D01*
X154746620Y-74543064D01*
X154827079Y-74639557D01*
X154918570Y-74717670D01*
X155019911Y-74776617D01*
X155129920Y-74815612D01*
X155247415Y-74833868D01*
X155288883Y-74835211D01*
X155410441Y-74824290D01*
X155530878Y-74791474D01*
X155648666Y-74737439D01*
X155762277Y-74662865D01*
X155853685Y-74584539D01*
X155900215Y-74540008D01*
X156081483Y-74837271D01*
X156126580Y-74911433D01*
X156167819Y-74979646D01*
X156203735Y-75039459D01*
X156232866Y-75088420D01*
X156253750Y-75124079D01*
X156264924Y-75143984D01*
X156266375Y-75147079D01*
X156258146Y-75156718D01*
X156232567Y-75173999D01*
X156192873Y-75197283D01*
X156142297Y-75224934D01*
X156084074Y-75255315D01*
X156021437Y-75286790D01*
X155957621Y-75317722D01*
X155895860Y-75346473D01*
X155839388Y-75371408D01*
X155791438Y-75390889D01*
X155767986Y-75399318D01*
X155634221Y-75437133D01*
X155496327Y-75462136D01*
X155348622Y-75475140D01*
X155221833Y-75477468D01*
X155153878Y-75476373D01*
X155088277Y-75474275D01*
X155030847Y-75471434D01*
X154987403Y-75468106D01*
X154973298Y-75466422D01*
X154834284Y-75437587D01*
X154692757Y-75392468D01*
X154555275Y-75333750D01*
X154428394Y-75264120D01*
X154350889Y-75211441D01*
X154223481Y-75103239D01*
X154105178Y-74976671D01*
X153998172Y-74834866D01*
X153904652Y-74680951D01*
X153826810Y-74518053D01*
X153782956Y-74400756D01*
X153732708Y-74217128D01*
X153699209Y-74022581D01*
X153682449Y-73821325D01*
X153682416Y-73617568D01*
X153699101Y-73415521D01*
X153732493Y-73219392D01*
X153782580Y-73033391D01*
X153786397Y-73021803D01*
X153849281Y-72859750D01*
X153926028Y-72711832D01*
X154019242Y-72573865D01*
X154131527Y-72441661D01*
X154175392Y-72396399D01*
X154311534Y-72272457D01*
X154451491Y-72169915D01*
X154597411Y-72087656D01*
X154751442Y-72024564D01*
X154915732Y-71979523D01*
X155011289Y-71962033D01*
X155170023Y-71946466D01*
X155328429Y-71949071D01*
X155328429Y-71949071D01*
G37*
X155328429Y-71949071D02*
X155488570Y-71970245D01*
X155652510Y-72010385D01*
X155822313Y-72069889D01*
X156000043Y-72149154D01*
X156011310Y-72154699D01*
X156069005Y-72182725D01*
X156120552Y-72206802D01*
X156162191Y-72225249D01*
X156190162Y-72236386D01*
X156199733Y-72238933D01*
X156218950Y-72243941D01*
X156223561Y-72248147D01*
X156218458Y-72258580D01*
X156202418Y-72284868D01*
X156177288Y-72324257D01*
X156144914Y-72373991D01*
X156107143Y-72431315D01*
X156065822Y-72493476D01*
X156022798Y-72557718D01*
X155979917Y-72621285D01*
X155939026Y-72681425D01*
X155901971Y-72735380D01*
X155870600Y-72780397D01*
X155846759Y-72813721D01*
X155832294Y-72832597D01*
X155830309Y-72834787D01*
X155820191Y-72830138D01*
X155797850Y-72812962D01*
X155767280Y-72786440D01*
X155751536Y-72771964D01*
X155655047Y-72696682D01*
X155548336Y-72641241D01*
X155432832Y-72606141D01*
X155309962Y-72591880D01*
X155240561Y-72593051D01*
X155119423Y-72610212D01*
X155010205Y-72646094D01*
X154912582Y-72700959D01*
X154826228Y-72775070D01*
X154750815Y-72868688D01*
X154686018Y-72982076D01*
X154648601Y-73068667D01*
X154604748Y-73204366D01*
X154572428Y-73351850D01*
X154551557Y-73507314D01*
X154542051Y-73666956D01*
X154543827Y-73826973D01*
X154556803Y-73983561D01*
X154580894Y-74132918D01*
X154616018Y-74271240D01*
X154662092Y-74394724D01*
X154678373Y-74428978D01*
X154746620Y-74543064D01*
X154827079Y-74639557D01*
X154918570Y-74717670D01*
X155019911Y-74776617D01*
X155129920Y-74815612D01*
X155247415Y-74833868D01*
X155288883Y-74835211D01*
X155410441Y-74824290D01*
X155530878Y-74791474D01*
X155648666Y-74737439D01*
X155762277Y-74662865D01*
X155853685Y-74584539D01*
X155900215Y-74540008D01*
X156081483Y-74837271D01*
X156126580Y-74911433D01*
X156167819Y-74979646D01*
X156203735Y-75039459D01*
X156232866Y-75088420D01*
X156253750Y-75124079D01*
X156264924Y-75143984D01*
X156266375Y-75147079D01*
X156258146Y-75156718D01*
X156232567Y-75173999D01*
X156192873Y-75197283D01*
X156142297Y-75224934D01*
X156084074Y-75255315D01*
X156021437Y-75286790D01*
X155957621Y-75317722D01*
X155895860Y-75346473D01*
X155839388Y-75371408D01*
X155791438Y-75390889D01*
X155767986Y-75399318D01*
X155634221Y-75437133D01*
X155496327Y-75462136D01*
X155348622Y-75475140D01*
X155221833Y-75477468D01*
X155153878Y-75476373D01*
X155088277Y-75474275D01*
X155030847Y-75471434D01*
X154987403Y-75468106D01*
X154973298Y-75466422D01*
X154834284Y-75437587D01*
X154692757Y-75392468D01*
X154555275Y-75333750D01*
X154428394Y-75264120D01*
X154350889Y-75211441D01*
X154223481Y-75103239D01*
X154105178Y-74976671D01*
X153998172Y-74834866D01*
X153904652Y-74680951D01*
X153826810Y-74518053D01*
X153782956Y-74400756D01*
X153732708Y-74217128D01*
X153699209Y-74022581D01*
X153682449Y-73821325D01*
X153682416Y-73617568D01*
X153699101Y-73415521D01*
X153732493Y-73219392D01*
X153782580Y-73033391D01*
X153786397Y-73021803D01*
X153849281Y-72859750D01*
X153926028Y-72711832D01*
X154019242Y-72573865D01*
X154131527Y-72441661D01*
X154175392Y-72396399D01*
X154311534Y-72272457D01*
X154451491Y-72169915D01*
X154597411Y-72087656D01*
X154751442Y-72024564D01*
X154915732Y-71979523D01*
X155011289Y-71962033D01*
X155170023Y-71946466D01*
X155328429Y-71949071D01*
G36*
X157673574Y-72866552D02*
X157825492Y-72886567D01*
X157960756Y-72920202D01*
X158080239Y-72967725D01*
X158184815Y-73029405D01*
X158262424Y-73092965D01*
X158331265Y-73167099D01*
X158385006Y-73246871D01*
X158427910Y-73339091D01*
X158443384Y-73382161D01*
X158456244Y-73421142D01*
X158467446Y-73457289D01*
X158477120Y-73492434D01*
X158485396Y-73528410D01*
X158492403Y-73567050D01*
X158498272Y-73610185D01*
X158503131Y-73659649D01*
X158507110Y-73717273D01*
X158510340Y-73784891D01*
X158512949Y-73864334D01*
X158515067Y-73957436D01*
X158516824Y-74066027D01*
X158518349Y-74191942D01*
X158519772Y-74337012D01*
X158521025Y-74479778D01*
X158522351Y-74635968D01*
X158523556Y-74771239D01*
X158524766Y-74887246D01*
X158526106Y-74985645D01*
X158527700Y-75068093D01*
X158529675Y-75136246D01*
X158532156Y-75191760D01*
X158535269Y-75236292D01*
X158539138Y-75271498D01*
X158543889Y-75299034D01*
X158549648Y-75320556D01*
X158556539Y-75337722D01*
X158564689Y-75352186D01*
X158574223Y-75365606D01*
X158585266Y-75379638D01*
X158589566Y-75385071D01*
X158605386Y-75407910D01*
X158612422Y-75423463D01*
X158612444Y-75423922D01*
X158601567Y-75426121D01*
X158570582Y-75428147D01*
X158521957Y-75429942D01*
X158458163Y-75431451D01*
X158381669Y-75432616D01*
X158294944Y-75433380D01*
X158200457Y-75433686D01*
X158189550Y-75433689D01*
X157766657Y-75433689D01*
X157763395Y-75337622D01*
X157760133Y-75241556D01*
X157698044Y-75292543D01*
X157600714Y-75360057D01*
X157490813Y-75414749D01*
X157404349Y-75444978D01*
X157335278Y-75459666D01*
X157251925Y-75469659D01*
X157162159Y-75474646D01*
X157073845Y-75474313D01*
X156994851Y-75468351D01*
X156958622Y-75462638D01*
X156818603Y-75424776D01*
X156692178Y-75369932D01*
X156580260Y-75298924D01*
X156483762Y-75212568D01*
X156403600Y-75111679D01*
X156340687Y-74997076D01*
X156296312Y-74870984D01*
X156283978Y-74814401D01*
X156276368Y-74752202D01*
X156272739Y-74677363D01*
X156272245Y-74643467D01*
X156272310Y-74640282D01*
X157032248Y-74640282D01*
X157041541Y-74715333D01*
X157069728Y-74779160D01*
X157118197Y-74834798D01*
X157123254Y-74839211D01*
X157171548Y-74874037D01*
X157223257Y-74896620D01*
X157283989Y-74908540D01*
X157359352Y-74911383D01*
X157377459Y-74910978D01*
X157431278Y-74908325D01*
X157471308Y-74902909D01*
X157506324Y-74892745D01*
X157545103Y-74875850D01*
X157555745Y-74870672D01*
X157616396Y-74834844D01*
X157663215Y-74792212D01*
X157675952Y-74776973D01*
X157720622Y-74720462D01*
X157720622Y-74524586D01*
X157720086Y-74445939D01*
X157718396Y-74387988D01*
X157715428Y-74348875D01*
X157711057Y-74326741D01*
X157706972Y-74320274D01*
X157691047Y-74317111D01*
X157657264Y-74314488D01*
X157610340Y-74312655D01*
X157554993Y-74311857D01*
X157546106Y-74311842D01*
X157425330Y-74317096D01*
X157322660Y-74333263D01*
X157236106Y-74360961D01*
X157163681Y-74400808D01*
X157108751Y-74447758D01*
X157064204Y-74505645D01*
X157039480Y-74568693D01*
X157032248Y-74640282D01*
X156272310Y-74640282D01*
X156274178Y-74549712D01*
X156282522Y-74470812D01*
X156298768Y-74399590D01*
X156324405Y-74328864D01*
X156348401Y-74276493D01*
X156407020Y-74181196D01*
X156485117Y-74093170D01*
X156580315Y-74014017D01*
X156690238Y-73945340D01*
X156812510Y-73888741D01*
X156944755Y-73845821D01*
X157009422Y-73830882D01*
X157145604Y-73808777D01*
X157294049Y-73794194D01*
X157445505Y-73787813D01*
X157572064Y-73789445D01*
X157733950Y-73796224D01*
X157726530Y-73737245D01*
X157707238Y-73638092D01*
X157676104Y-73557372D01*
X157632269Y-73494466D01*
X157574871Y-73448756D01*
X157503048Y-73419622D01*
X157415941Y-73406447D01*
X157312686Y-73408611D01*
X157274711Y-73412612D01*
X157133520Y-73437780D01*
X156996707Y-73478814D01*
X156902178Y-73516815D01*
X156857018Y-73536190D01*
X156818585Y-73551760D01*
X156792234Y-73561405D01*
X156784546Y-73563452D01*
X156774802Y-73554374D01*
X156758083Y-73525405D01*
X156734232Y-73476217D01*
X156703093Y-73406484D01*
X156664507Y-73315879D01*
X156657910Y-73300089D01*
X156627853Y-73227772D01*
X156600874Y-73162425D01*
X156578136Y-73106906D01*
X156560806Y-73064072D01*
X156550048Y-73036781D01*
X156546941Y-73027942D01*
X156556940Y-73023187D01*
X156583217Y-73017910D01*
X156611489Y-73014231D01*
X156641646Y-73009474D01*
X156689433Y-73000028D01*
X156750612Y-72986820D01*
X156820946Y-72970776D01*
X156896194Y-72952820D01*
X156924755Y-72945797D01*
X157029816Y-72920209D01*
X157117480Y-72900147D01*
X157192068Y-72884969D01*
X157257903Y-72874035D01*
X157319307Y-72866704D01*
X157380602Y-72862335D01*
X157446110Y-72860287D01*
X157504128Y-72859889D01*
X157673574Y-72866552D01*
X157673574Y-72866552D01*
G37*
X157673574Y-72866552D02*
X157825492Y-72886567D01*
X157960756Y-72920202D01*
X158080239Y-72967725D01*
X158184815Y-73029405D01*
X158262424Y-73092965D01*
X158331265Y-73167099D01*
X158385006Y-73246871D01*
X158427910Y-73339091D01*
X158443384Y-73382161D01*
X158456244Y-73421142D01*
X158467446Y-73457289D01*
X158477120Y-73492434D01*
X158485396Y-73528410D01*
X158492403Y-73567050D01*
X158498272Y-73610185D01*
X158503131Y-73659649D01*
X158507110Y-73717273D01*
X158510340Y-73784891D01*
X158512949Y-73864334D01*
X158515067Y-73957436D01*
X158516824Y-74066027D01*
X158518349Y-74191942D01*
X158519772Y-74337012D01*
X158521025Y-74479778D01*
X158522351Y-74635968D01*
X158523556Y-74771239D01*
X158524766Y-74887246D01*
X158526106Y-74985645D01*
X158527700Y-75068093D01*
X158529675Y-75136246D01*
X158532156Y-75191760D01*
X158535269Y-75236292D01*
X158539138Y-75271498D01*
X158543889Y-75299034D01*
X158549648Y-75320556D01*
X158556539Y-75337722D01*
X158564689Y-75352186D01*
X158574223Y-75365606D01*
X158585266Y-75379638D01*
X158589566Y-75385071D01*
X158605386Y-75407910D01*
X158612422Y-75423463D01*
X158612444Y-75423922D01*
X158601567Y-75426121D01*
X158570582Y-75428147D01*
X158521957Y-75429942D01*
X158458163Y-75431451D01*
X158381669Y-75432616D01*
X158294944Y-75433380D01*
X158200457Y-75433686D01*
X158189550Y-75433689D01*
X157766657Y-75433689D01*
X157763395Y-75337622D01*
X157760133Y-75241556D01*
X157698044Y-75292543D01*
X157600714Y-75360057D01*
X157490813Y-75414749D01*
X157404349Y-75444978D01*
X157335278Y-75459666D01*
X157251925Y-75469659D01*
X157162159Y-75474646D01*
X157073845Y-75474313D01*
X156994851Y-75468351D01*
X156958622Y-75462638D01*
X156818603Y-75424776D01*
X156692178Y-75369932D01*
X156580260Y-75298924D01*
X156483762Y-75212568D01*
X156403600Y-75111679D01*
X156340687Y-74997076D01*
X156296312Y-74870984D01*
X156283978Y-74814401D01*
X156276368Y-74752202D01*
X156272739Y-74677363D01*
X156272245Y-74643467D01*
X156272310Y-74640282D01*
X157032248Y-74640282D01*
X157041541Y-74715333D01*
X157069728Y-74779160D01*
X157118197Y-74834798D01*
X157123254Y-74839211D01*
X157171548Y-74874037D01*
X157223257Y-74896620D01*
X157283989Y-74908540D01*
X157359352Y-74911383D01*
X157377459Y-74910978D01*
X157431278Y-74908325D01*
X157471308Y-74902909D01*
X157506324Y-74892745D01*
X157545103Y-74875850D01*
X157555745Y-74870672D01*
X157616396Y-74834844D01*
X157663215Y-74792212D01*
X157675952Y-74776973D01*
X157720622Y-74720462D01*
X157720622Y-74524586D01*
X157720086Y-74445939D01*
X157718396Y-74387988D01*
X157715428Y-74348875D01*
X157711057Y-74326741D01*
X157706972Y-74320274D01*
X157691047Y-74317111D01*
X157657264Y-74314488D01*
X157610340Y-74312655D01*
X157554993Y-74311857D01*
X157546106Y-74311842D01*
X157425330Y-74317096D01*
X157322660Y-74333263D01*
X157236106Y-74360961D01*
X157163681Y-74400808D01*
X157108751Y-74447758D01*
X157064204Y-74505645D01*
X157039480Y-74568693D01*
X157032248Y-74640282D01*
X156272310Y-74640282D01*
X156274178Y-74549712D01*
X156282522Y-74470812D01*
X156298768Y-74399590D01*
X156324405Y-74328864D01*
X156348401Y-74276493D01*
X156407020Y-74181196D01*
X156485117Y-74093170D01*
X156580315Y-74014017D01*
X156690238Y-73945340D01*
X156812510Y-73888741D01*
X156944755Y-73845821D01*
X157009422Y-73830882D01*
X157145604Y-73808777D01*
X157294049Y-73794194D01*
X157445505Y-73787813D01*
X157572064Y-73789445D01*
X157733950Y-73796224D01*
X157726530Y-73737245D01*
X157707238Y-73638092D01*
X157676104Y-73557372D01*
X157632269Y-73494466D01*
X157574871Y-73448756D01*
X157503048Y-73419622D01*
X157415941Y-73406447D01*
X157312686Y-73408611D01*
X157274711Y-73412612D01*
X157133520Y-73437780D01*
X156996707Y-73478814D01*
X156902178Y-73516815D01*
X156857018Y-73536190D01*
X156818585Y-73551760D01*
X156792234Y-73561405D01*
X156784546Y-73563452D01*
X156774802Y-73554374D01*
X156758083Y-73525405D01*
X156734232Y-73476217D01*
X156703093Y-73406484D01*
X156664507Y-73315879D01*
X156657910Y-73300089D01*
X156627853Y-73227772D01*
X156600874Y-73162425D01*
X156578136Y-73106906D01*
X156560806Y-73064072D01*
X156550048Y-73036781D01*
X156546941Y-73027942D01*
X156556940Y-73023187D01*
X156583217Y-73017910D01*
X156611489Y-73014231D01*
X156641646Y-73009474D01*
X156689433Y-73000028D01*
X156750612Y-72986820D01*
X156820946Y-72970776D01*
X156896194Y-72952820D01*
X156924755Y-72945797D01*
X157029816Y-72920209D01*
X157117480Y-72900147D01*
X157192068Y-72884969D01*
X157257903Y-72874035D01*
X157319307Y-72866704D01*
X157380602Y-72862335D01*
X157446110Y-72860287D01*
X157504128Y-72859889D01*
X157673574Y-72866552D01*
G36*
X161186507Y-73472245D02*
X161186526Y-73706662D01*
X161186552Y-73919603D01*
X161186625Y-74112168D01*
X161186782Y-74285459D01*
X161187064Y-74440576D01*
X161187509Y-74578620D01*
X161188156Y-74700692D01*
X161189045Y-74807894D01*
X161190213Y-74901326D01*
X161191701Y-74982090D01*
X161193546Y-75051286D01*
X161195789Y-75110015D01*
X161198469Y-75159379D01*
X161201623Y-75200478D01*
X161205292Y-75234413D01*
X161209513Y-75262286D01*
X161214327Y-75285198D01*
X161219773Y-75304249D01*
X161225888Y-75320540D01*
X161232712Y-75335173D01*
X161240285Y-75349249D01*
X161248645Y-75363868D01*
X161253839Y-75372974D01*
X161288104Y-75433689D01*
X160429955Y-75433689D01*
X160429955Y-75337733D01*
X160429224Y-75294370D01*
X160427272Y-75261205D01*
X160424463Y-75243424D01*
X160423221Y-75241778D01*
X160411799Y-75248662D01*
X160389084Y-75266505D01*
X160366385Y-75285879D01*
X160311800Y-75326614D01*
X160242321Y-75367617D01*
X160165270Y-75405123D01*
X160087965Y-75435364D01*
X160057113Y-75445012D01*
X159988616Y-75459578D01*
X159905764Y-75469539D01*
X159816371Y-75474583D01*
X159728248Y-75474396D01*
X159649207Y-75468666D01*
X159611511Y-75462858D01*
X159473414Y-75424797D01*
X159346113Y-75367073D01*
X159230292Y-75290211D01*
X159126637Y-75194739D01*
X159035833Y-75081179D01*
X158969031Y-74970381D01*
X158914164Y-74853625D01*
X158872163Y-74734276D01*
X158842167Y-74608283D01*
X158823311Y-74471594D01*
X158814732Y-74320158D01*
X158814006Y-74242711D01*
X158816100Y-74185934D01*
X159645217Y-74185934D01*
X159645424Y-74279002D01*
X159648337Y-74366692D01*
X159654000Y-74443772D01*
X159662455Y-74505009D01*
X159665038Y-74517350D01*
X159696840Y-74624633D01*
X159738498Y-74711658D01*
X159790363Y-74778642D01*
X159852781Y-74825805D01*
X159926100Y-74853365D01*
X160010669Y-74861541D01*
X160106835Y-74850551D01*
X160170311Y-74834829D01*
X160219454Y-74816639D01*
X160273583Y-74790791D01*
X160314244Y-74767089D01*
X160384800Y-74720721D01*
X160384800Y-73570530D01*
X160317392Y-73526962D01*
X160238867Y-73486040D01*
X160154681Y-73459389D01*
X160069557Y-73447465D01*
X159988216Y-73450722D01*
X159915380Y-73469615D01*
X159883426Y-73485184D01*
X159825501Y-73528181D01*
X159776544Y-73584953D01*
X159735390Y-73657575D01*
X159700874Y-73748121D01*
X159671833Y-73858666D01*
X159670552Y-73864533D01*
X159660381Y-73926788D01*
X159652739Y-74004594D01*
X159647670Y-74092720D01*
X159645217Y-74185934D01*
X158816100Y-74185934D01*
X158821857Y-74029895D01*
X158843802Y-73834059D01*
X158879786Y-73655332D01*
X158929759Y-73493845D01*
X158993668Y-73349726D01*
X159071462Y-73223106D01*
X159163089Y-73114115D01*
X159268497Y-73022883D01*
X159313662Y-72991932D01*
X159414611Y-72935785D01*
X159517901Y-72896174D01*
X159627989Y-72872014D01*
X159749330Y-72862219D01*
X159841836Y-72863265D01*
X159971490Y-72874231D01*
X160084084Y-72896046D01*
X160182875Y-72929714D01*
X160271121Y-72976236D01*
X160319986Y-73010448D01*
X160349353Y-73032362D01*
X160371043Y-73047333D01*
X160379253Y-73051733D01*
X160380868Y-73040904D01*
X160382159Y-73010251D01*
X160383138Y-72962526D01*
X160383817Y-72900479D01*
X160384210Y-72826862D01*
X160384330Y-72744427D01*
X160384188Y-72655925D01*
X160383797Y-72564107D01*
X160383171Y-72471724D01*
X160382320Y-72381528D01*
X160381260Y-72296271D01*
X160380001Y-72218703D01*
X160378556Y-72151576D01*
X160376938Y-72097641D01*
X160375161Y-72059650D01*
X160374669Y-72052667D01*
X160367092Y-71982251D01*
X160355531Y-71927102D01*
X160337792Y-71879981D01*
X160311682Y-71833647D01*
X160305415Y-71824067D01*
X160280983Y-71787378D01*
X161186311Y-71787378D01*
X161186507Y-73472245D01*
X161186507Y-73472245D01*
G37*
X161186507Y-73472245D02*
X161186526Y-73706662D01*
X161186552Y-73919603D01*
X161186625Y-74112168D01*
X161186782Y-74285459D01*
X161187064Y-74440576D01*
X161187509Y-74578620D01*
X161188156Y-74700692D01*
X161189045Y-74807894D01*
X161190213Y-74901326D01*
X161191701Y-74982090D01*
X161193546Y-75051286D01*
X161195789Y-75110015D01*
X161198469Y-75159379D01*
X161201623Y-75200478D01*
X161205292Y-75234413D01*
X161209513Y-75262286D01*
X161214327Y-75285198D01*
X161219773Y-75304249D01*
X161225888Y-75320540D01*
X161232712Y-75335173D01*
X161240285Y-75349249D01*
X161248645Y-75363868D01*
X161253839Y-75372974D01*
X161288104Y-75433689D01*
X160429955Y-75433689D01*
X160429955Y-75337733D01*
X160429224Y-75294370D01*
X160427272Y-75261205D01*
X160424463Y-75243424D01*
X160423221Y-75241778D01*
X160411799Y-75248662D01*
X160389084Y-75266505D01*
X160366385Y-75285879D01*
X160311800Y-75326614D01*
X160242321Y-75367617D01*
X160165270Y-75405123D01*
X160087965Y-75435364D01*
X160057113Y-75445012D01*
X159988616Y-75459578D01*
X159905764Y-75469539D01*
X159816371Y-75474583D01*
X159728248Y-75474396D01*
X159649207Y-75468666D01*
X159611511Y-75462858D01*
X159473414Y-75424797D01*
X159346113Y-75367073D01*
X159230292Y-75290211D01*
X159126637Y-75194739D01*
X159035833Y-75081179D01*
X158969031Y-74970381D01*
X158914164Y-74853625D01*
X158872163Y-74734276D01*
X158842167Y-74608283D01*
X158823311Y-74471594D01*
X158814732Y-74320158D01*
X158814006Y-74242711D01*
X158816100Y-74185934D01*
X159645217Y-74185934D01*
X159645424Y-74279002D01*
X159648337Y-74366692D01*
X159654000Y-74443772D01*
X159662455Y-74505009D01*
X159665038Y-74517350D01*
X159696840Y-74624633D01*
X159738498Y-74711658D01*
X159790363Y-74778642D01*
X159852781Y-74825805D01*
X159926100Y-74853365D01*
X160010669Y-74861541D01*
X160106835Y-74850551D01*
X160170311Y-74834829D01*
X160219454Y-74816639D01*
X160273583Y-74790791D01*
X160314244Y-74767089D01*
X160384800Y-74720721D01*
X160384800Y-73570530D01*
X160317392Y-73526962D01*
X160238867Y-73486040D01*
X160154681Y-73459389D01*
X160069557Y-73447465D01*
X159988216Y-73450722D01*
X159915380Y-73469615D01*
X159883426Y-73485184D01*
X159825501Y-73528181D01*
X159776544Y-73584953D01*
X159735390Y-73657575D01*
X159700874Y-73748121D01*
X159671833Y-73858666D01*
X159670552Y-73864533D01*
X159660381Y-73926788D01*
X159652739Y-74004594D01*
X159647670Y-74092720D01*
X159645217Y-74185934D01*
X158816100Y-74185934D01*
X158821857Y-74029895D01*
X158843802Y-73834059D01*
X158879786Y-73655332D01*
X158929759Y-73493845D01*
X158993668Y-73349726D01*
X159071462Y-73223106D01*
X159163089Y-73114115D01*
X159268497Y-73022883D01*
X159313662Y-72991932D01*
X159414611Y-72935785D01*
X159517901Y-72896174D01*
X159627989Y-72872014D01*
X159749330Y-72862219D01*
X159841836Y-72863265D01*
X159971490Y-72874231D01*
X160084084Y-72896046D01*
X160182875Y-72929714D01*
X160271121Y-72976236D01*
X160319986Y-73010448D01*
X160349353Y-73032362D01*
X160371043Y-73047333D01*
X160379253Y-73051733D01*
X160380868Y-73040904D01*
X160382159Y-73010251D01*
X160383138Y-72962526D01*
X160383817Y-72900479D01*
X160384210Y-72826862D01*
X160384330Y-72744427D01*
X160384188Y-72655925D01*
X160383797Y-72564107D01*
X160383171Y-72471724D01*
X160382320Y-72381528D01*
X160381260Y-72296271D01*
X160380001Y-72218703D01*
X160378556Y-72151576D01*
X160376938Y-72097641D01*
X160375161Y-72059650D01*
X160374669Y-72052667D01*
X160367092Y-71982251D01*
X160355531Y-71927102D01*
X160337792Y-71879981D01*
X160311682Y-71833647D01*
X160305415Y-71824067D01*
X160280983Y-71787378D01*
X161186311Y-71787378D01*
X161186507Y-73472245D01*
G36*
X152726957Y-71026571D02*
X152823232Y-71050809D01*
X152909816Y-71093641D01*
X152984627Y-71153419D01*
X153045582Y-71228494D01*
X153090601Y-71317220D01*
X153116864Y-71413530D01*
X153122714Y-71510795D01*
X153107860Y-71604654D01*
X153074160Y-71692511D01*
X153023472Y-71771770D01*
X152957655Y-71839836D01*
X152878566Y-71894112D01*
X152788066Y-71932002D01*
X152736800Y-71944426D01*
X152692302Y-71951947D01*
X152658001Y-71954919D01*
X152625040Y-71953094D01*
X152584566Y-71946225D01*
X152551469Y-71939250D01*
X152458053Y-71907741D01*
X152374381Y-71856617D01*
X152302335Y-71787429D01*
X152243800Y-71701728D01*
X152229852Y-71674489D01*
X152213414Y-71638122D01*
X152203106Y-71607582D01*
X152197540Y-71575450D01*
X152195331Y-71534307D01*
X152195052Y-71488222D01*
X152199139Y-71403865D01*
X152212554Y-71334586D01*
X152237744Y-71273961D01*
X152277154Y-71215567D01*
X152315702Y-71171302D01*
X152387594Y-71105484D01*
X152462687Y-71060053D01*
X152545438Y-71032850D01*
X152623072Y-71022576D01*
X152726957Y-71026571D01*
X152726957Y-71026571D01*
G37*
X152726957Y-71026571D02*
X152823232Y-71050809D01*
X152909816Y-71093641D01*
X152984627Y-71153419D01*
X153045582Y-71228494D01*
X153090601Y-71317220D01*
X153116864Y-71413530D01*
X153122714Y-71510795D01*
X153107860Y-71604654D01*
X153074160Y-71692511D01*
X153023472Y-71771770D01*
X152957655Y-71839836D01*
X152878566Y-71894112D01*
X152788066Y-71932002D01*
X152736800Y-71944426D01*
X152692302Y-71951947D01*
X152658001Y-71954919D01*
X152625040Y-71953094D01*
X152584566Y-71946225D01*
X152551469Y-71939250D01*
X152458053Y-71907741D01*
X152374381Y-71856617D01*
X152302335Y-71787429D01*
X152243800Y-71701728D01*
X152229852Y-71674489D01*
X152213414Y-71638122D01*
X152203106Y-71607582D01*
X152197540Y-71575450D01*
X152195331Y-71534307D01*
X152195052Y-71488222D01*
X152199139Y-71403865D01*
X152212554Y-71334586D01*
X152237744Y-71273961D01*
X152277154Y-71215567D01*
X152315702Y-71171302D01*
X152387594Y-71105484D01*
X152462687Y-71060053D01*
X152545438Y-71032850D01*
X152623072Y-71022576D01*
X152726957Y-71026571D01*
D11*
X134153730Y-57164660D02*
X134726149Y-57737080D01*
X134827165Y-57770752D01*
X134894508Y-57770752D01*
X134995523Y-57737080D01*
X135130211Y-57602393D01*
X135163882Y-57501377D01*
X135163882Y-57434034D01*
X135130211Y-57333019D01*
X134557791Y-56760599D01*
X135972004Y-56760599D02*
X135567943Y-57164660D01*
X135769973Y-56962630D02*
X135062867Y-56255523D01*
X135096538Y-56423882D01*
X135096538Y-56558569D01*
X135062867Y-56659584D01*
X135500600Y-55817790D02*
X135938333Y-55380057D01*
X135972004Y-55885134D01*
X136073020Y-55784118D01*
X136174035Y-55750446D01*
X136241378Y-55750446D01*
X136342394Y-55784118D01*
X136510753Y-55952477D01*
X136544424Y-56053492D01*
X136544424Y-56120836D01*
X136510753Y-56221851D01*
X136308722Y-56423882D01*
X136207706Y-56457553D01*
X136140363Y-56457553D01*
D18*
X105553314Y-98859891D02*
X105887024Y-98859891D01*
X106030043Y-99384292D02*
X105553314Y-99384292D01*
X105553314Y-98383162D01*
X106030043Y-98383162D01*
X107031173Y-99288946D02*
X106983500Y-99336619D01*
X106840481Y-99384292D01*
X106745135Y-99384292D01*
X106602117Y-99336619D01*
X106506771Y-99241274D01*
X106459098Y-99145928D01*
X106411425Y-98955236D01*
X106411425Y-98812218D01*
X106459098Y-98621526D01*
X106506771Y-98526181D01*
X106602117Y-98430835D01*
X106745135Y-98383162D01*
X106840481Y-98383162D01*
X106983500Y-98430835D01*
X107031173Y-98478508D01*
X107460228Y-99384292D02*
X107460228Y-98383162D01*
X107889284Y-98478508D02*
X107936957Y-98430835D01*
X108032303Y-98383162D01*
X108270667Y-98383162D01*
X108366013Y-98430835D01*
X108413686Y-98478508D01*
X108461359Y-98573854D01*
X108461359Y-98669199D01*
X108413686Y-98812218D01*
X107841612Y-99384292D01*
X108461359Y-99384292D01*
X105409218Y-111638901D02*
X105743068Y-111638901D01*
X105886147Y-112163522D02*
X105409218Y-112163522D01*
X105409218Y-111161972D01*
X105886147Y-111161972D01*
X106887697Y-112068136D02*
X106840004Y-112115829D01*
X106696925Y-112163522D01*
X106601539Y-112163522D01*
X106458461Y-112115829D01*
X106363075Y-112020444D01*
X106315382Y-111925058D01*
X106267689Y-111734286D01*
X106267689Y-111591208D01*
X106315382Y-111400436D01*
X106363075Y-111305051D01*
X106458461Y-111209665D01*
X106601539Y-111161972D01*
X106696925Y-111161972D01*
X106840004Y-111209665D01*
X106887697Y-111257358D01*
X107316932Y-112163522D02*
X107316932Y-111161972D01*
X108127711Y-111638901D02*
X108270790Y-111686594D01*
X108318483Y-111734286D01*
X108366176Y-111829672D01*
X108366176Y-111972751D01*
X108318483Y-112068136D01*
X108270790Y-112115829D01*
X108175404Y-112163522D01*
X107793861Y-112163522D01*
X107793861Y-111161972D01*
X108127711Y-111161972D01*
X108223097Y-111209665D01*
X108270790Y-111257358D01*
X108318483Y-111352744D01*
X108318483Y-111448129D01*
X108270790Y-111543515D01*
X108223097Y-111591208D01*
X108127711Y-111638901D01*
X107793861Y-111638901D01*
X108795411Y-111161972D02*
X108795411Y-111972751D01*
X108843104Y-112068136D01*
X108890797Y-112115829D01*
X108986183Y-112163522D01*
X109176954Y-112163522D01*
X109272340Y-112115829D01*
X109320033Y-112068136D01*
X109367726Y-111972751D01*
X109367726Y-111161972D01*
X109796961Y-112115829D02*
X109940040Y-112163522D01*
X110178504Y-112163522D01*
X110273890Y-112115829D01*
X110321583Y-112068136D01*
X110369276Y-111972751D01*
X110369276Y-111877365D01*
X110321583Y-111781979D01*
X110273890Y-111734286D01*
X110178504Y-111686594D01*
X109987733Y-111638901D01*
X109892347Y-111591208D01*
X109844654Y-111543515D01*
X109796961Y-111448129D01*
X109796961Y-111352744D01*
X109844654Y-111257358D01*
X109892347Y-111209665D01*
X109987733Y-111161972D01*
X110226197Y-111161972D01*
X110369276Y-111209665D01*
D11*
X119737143Y-86526666D02*
X119784762Y-86574285D01*
X119832381Y-86717142D01*
X119832381Y-86812380D01*
X119784762Y-86955238D01*
X119689524Y-87050476D01*
X119594286Y-87098095D01*
X119403810Y-87145714D01*
X119260952Y-87145714D01*
X119070476Y-87098095D01*
X118975238Y-87050476D01*
X118880000Y-86955238D01*
X118832381Y-86812380D01*
X118832381Y-86717142D01*
X118880000Y-86574285D01*
X118927619Y-86526666D01*
X119832381Y-85574285D02*
X119832381Y-86145714D01*
X119832381Y-85860000D02*
X118832381Y-85860000D01*
X118975238Y-85955238D01*
X119070476Y-86050476D01*
X119118095Y-86145714D01*
X103465334Y-82907143D02*
X103417715Y-82954762D01*
X103274858Y-83002381D01*
X103179620Y-83002381D01*
X103036762Y-82954762D01*
X102941524Y-82859524D01*
X102893905Y-82764286D01*
X102846286Y-82573810D01*
X102846286Y-82430952D01*
X102893905Y-82240476D01*
X102941524Y-82145238D01*
X103036762Y-82050000D01*
X103179620Y-82002381D01*
X103274858Y-82002381D01*
X103417715Y-82050000D01*
X103465334Y-82097619D01*
X103846286Y-82097619D02*
X103893905Y-82050000D01*
X103989143Y-82002381D01*
X104227239Y-82002381D01*
X104322477Y-82050000D01*
X104370096Y-82097619D01*
X104417715Y-82192857D01*
X104417715Y-82288095D01*
X104370096Y-82430952D01*
X103798667Y-83002381D01*
X104417715Y-83002381D01*
X104735334Y-90273143D02*
X104687715Y-90320762D01*
X104544858Y-90368381D01*
X104449620Y-90368381D01*
X104306762Y-90320762D01*
X104211524Y-90225524D01*
X104163905Y-90130286D01*
X104116286Y-89939810D01*
X104116286Y-89796952D01*
X104163905Y-89606476D01*
X104211524Y-89511238D01*
X104306762Y-89416000D01*
X104449620Y-89368381D01*
X104544858Y-89368381D01*
X104687715Y-89416000D01*
X104735334Y-89463619D01*
X105068667Y-89368381D02*
X105687715Y-89368381D01*
X105354381Y-89749333D01*
X105497239Y-89749333D01*
X105592477Y-89796952D01*
X105640096Y-89844571D01*
X105687715Y-89939810D01*
X105687715Y-90177905D01*
X105640096Y-90273143D01*
X105592477Y-90320762D01*
X105497239Y-90368381D01*
X105211524Y-90368381D01*
X105116286Y-90320762D01*
X105068667Y-90273143D01*
X141819334Y-44059143D02*
X141771715Y-44106762D01*
X141628858Y-44154381D01*
X141533620Y-44154381D01*
X141390762Y-44106762D01*
X141295524Y-44011524D01*
X141247905Y-43916286D01*
X141200286Y-43725810D01*
X141200286Y-43582952D01*
X141247905Y-43392476D01*
X141295524Y-43297238D01*
X141390762Y-43202000D01*
X141533620Y-43154381D01*
X141628858Y-43154381D01*
X141771715Y-43202000D01*
X141819334Y-43249619D01*
X142676477Y-43487714D02*
X142676477Y-44154381D01*
X142438381Y-43106762D02*
X142200286Y-43821048D01*
X142819334Y-43821048D01*
X135469334Y-45047143D02*
X135421715Y-45094762D01*
X135278858Y-45142381D01*
X135183620Y-45142381D01*
X135040762Y-45094762D01*
X134945524Y-44999524D01*
X134897905Y-44904286D01*
X134850286Y-44713810D01*
X134850286Y-44570952D01*
X134897905Y-44380476D01*
X134945524Y-44285238D01*
X135040762Y-44190000D01*
X135183620Y-44142381D01*
X135278858Y-44142381D01*
X135421715Y-44190000D01*
X135469334Y-44237619D01*
X136374096Y-44142381D02*
X135897905Y-44142381D01*
X135850286Y-44618571D01*
X135897905Y-44570952D01*
X135993143Y-44523333D01*
X136231239Y-44523333D01*
X136326477Y-44570952D01*
X136374096Y-44618571D01*
X136421715Y-44713810D01*
X136421715Y-44951905D01*
X136374096Y-45047143D01*
X136326477Y-45094762D01*
X136231239Y-45142381D01*
X135993143Y-45142381D01*
X135897905Y-45094762D01*
X135850286Y-45047143D01*
X142357143Y-81446666D02*
X142404762Y-81494285D01*
X142452381Y-81637142D01*
X142452381Y-81732380D01*
X142404762Y-81875238D01*
X142309524Y-81970476D01*
X142214286Y-82018095D01*
X142023810Y-82065714D01*
X141880952Y-82065714D01*
X141690476Y-82018095D01*
X141595238Y-81970476D01*
X141500000Y-81875238D01*
X141452381Y-81732380D01*
X141452381Y-81637142D01*
X141500000Y-81494285D01*
X141547619Y-81446666D01*
X141452381Y-80589523D02*
X141452381Y-80780000D01*
X141500000Y-80875238D01*
X141547619Y-80922857D01*
X141690476Y-81018095D01*
X141880952Y-81065714D01*
X142261905Y-81065714D01*
X142357143Y-81018095D01*
X142404762Y-80970476D01*
X142452381Y-80875238D01*
X142452381Y-80684761D01*
X142404762Y-80589523D01*
X142357143Y-80541904D01*
X142261905Y-80494285D01*
X142023810Y-80494285D01*
X141928571Y-80541904D01*
X141880952Y-80589523D01*
X141833333Y-80684761D01*
X141833333Y-80875238D01*
X141880952Y-80970476D01*
X141928571Y-81018095D01*
X142023810Y-81065714D01*
X124293334Y-68697143D02*
X124245715Y-68744762D01*
X124102858Y-68792381D01*
X124007620Y-68792381D01*
X123864762Y-68744762D01*
X123769524Y-68649524D01*
X123721905Y-68554286D01*
X123674286Y-68363810D01*
X123674286Y-68220952D01*
X123721905Y-68030476D01*
X123769524Y-67935238D01*
X123864762Y-67840000D01*
X124007620Y-67792381D01*
X124102858Y-67792381D01*
X124245715Y-67840000D01*
X124293334Y-67887619D01*
X124626667Y-67792381D02*
X125293334Y-67792381D01*
X124864762Y-68792381D01*
X134199334Y-39459143D02*
X134151715Y-39506762D01*
X134008858Y-39554381D01*
X133913620Y-39554381D01*
X133770762Y-39506762D01*
X133675524Y-39411524D01*
X133627905Y-39316286D01*
X133580286Y-39125810D01*
X133580286Y-38982952D01*
X133627905Y-38792476D01*
X133675524Y-38697238D01*
X133770762Y-38602000D01*
X133913620Y-38554381D01*
X134008858Y-38554381D01*
X134151715Y-38602000D01*
X134199334Y-38649619D01*
X134770762Y-38982952D02*
X134675524Y-38935333D01*
X134627905Y-38887714D01*
X134580286Y-38792476D01*
X134580286Y-38744857D01*
X134627905Y-38649619D01*
X134675524Y-38602000D01*
X134770762Y-38554381D01*
X134961239Y-38554381D01*
X135056477Y-38602000D01*
X135104096Y-38649619D01*
X135151715Y-38744857D01*
X135151715Y-38792476D01*
X135104096Y-38887714D01*
X135056477Y-38935333D01*
X134961239Y-38982952D01*
X134770762Y-38982952D01*
X134675524Y-39030571D01*
X134627905Y-39078190D01*
X134580286Y-39173429D01*
X134580286Y-39363905D01*
X134627905Y-39459143D01*
X134675524Y-39506762D01*
X134770762Y-39554381D01*
X134961239Y-39554381D01*
X135056477Y-39506762D01*
X135104096Y-39459143D01*
X135151715Y-39363905D01*
X135151715Y-39173429D01*
X135104096Y-39078190D01*
X135056477Y-39030571D01*
X134961239Y-38982952D01*
X124293334Y-60287143D02*
X124245715Y-60334762D01*
X124102858Y-60382381D01*
X124007620Y-60382381D01*
X123864762Y-60334762D01*
X123769524Y-60239524D01*
X123721905Y-60144286D01*
X123674286Y-59953810D01*
X123674286Y-59810952D01*
X123721905Y-59620476D01*
X123769524Y-59525238D01*
X123864762Y-59430000D01*
X124007620Y-59382381D01*
X124102858Y-59382381D01*
X124245715Y-59430000D01*
X124293334Y-59477619D01*
X124769524Y-60382381D02*
X124960000Y-60382381D01*
X125055239Y-60334762D01*
X125102858Y-60287143D01*
X125198096Y-60144286D01*
X125245715Y-59953810D01*
X125245715Y-59572857D01*
X125198096Y-59477619D01*
X125150477Y-59430000D01*
X125055239Y-59382381D01*
X124864762Y-59382381D01*
X124769524Y-59430000D01*
X124721905Y-59477619D01*
X124674286Y-59572857D01*
X124674286Y-59810952D01*
X124721905Y-59906190D01*
X124769524Y-59953810D01*
X124864762Y-60001429D01*
X125055239Y-60001429D01*
X125150477Y-59953810D01*
X125198096Y-59906190D01*
X125245715Y-59810952D01*
X131915143Y-92336857D02*
X131962762Y-92384476D01*
X132010381Y-92527333D01*
X132010381Y-92622571D01*
X131962762Y-92765429D01*
X131867524Y-92860667D01*
X131772286Y-92908286D01*
X131581810Y-92955905D01*
X131438952Y-92955905D01*
X131248476Y-92908286D01*
X131153238Y-92860667D01*
X131058000Y-92765429D01*
X131010381Y-92622571D01*
X131010381Y-92527333D01*
X131058000Y-92384476D01*
X131105619Y-92336857D01*
X132010381Y-91384476D02*
X132010381Y-91955905D01*
X132010381Y-91670191D02*
X131010381Y-91670191D01*
X131153238Y-91765429D01*
X131248476Y-91860667D01*
X131296095Y-91955905D01*
X131010381Y-90765429D02*
X131010381Y-90670190D01*
X131058000Y-90574952D01*
X131105619Y-90527333D01*
X131200857Y-90479714D01*
X131391333Y-90432095D01*
X131629429Y-90432095D01*
X131819905Y-90479714D01*
X131915143Y-90527333D01*
X131962762Y-90574952D01*
X132010381Y-90670190D01*
X132010381Y-90765429D01*
X131962762Y-90860667D01*
X131915143Y-90908286D01*
X131819905Y-90955905D01*
X131629429Y-91003524D01*
X131391333Y-91003524D01*
X131200857Y-90955905D01*
X131105619Y-90908286D01*
X131058000Y-90860667D01*
X131010381Y-90765429D01*
X125595143Y-97131143D02*
X125547524Y-97178762D01*
X125404667Y-97226381D01*
X125309429Y-97226381D01*
X125166571Y-97178762D01*
X125071333Y-97083524D01*
X125023714Y-96988286D01*
X124976095Y-96797810D01*
X124976095Y-96654952D01*
X125023714Y-96464476D01*
X125071333Y-96369238D01*
X125166571Y-96274000D01*
X125309429Y-96226381D01*
X125404667Y-96226381D01*
X125547524Y-96274000D01*
X125595143Y-96321619D01*
X126547524Y-97226381D02*
X125976095Y-97226381D01*
X126261809Y-97226381D02*
X126261809Y-96226381D01*
X126166571Y-96369238D01*
X126071333Y-96464476D01*
X125976095Y-96512095D01*
X127499905Y-97226381D02*
X126928476Y-97226381D01*
X127214190Y-97226381D02*
X127214190Y-96226381D01*
X127118952Y-96369238D01*
X127023714Y-96464476D01*
X126928476Y-96512095D01*
X131437143Y-54727143D02*
X131389524Y-54774762D01*
X131246667Y-54822381D01*
X131151429Y-54822381D01*
X131008571Y-54774762D01*
X130913333Y-54679524D01*
X130865714Y-54584286D01*
X130818095Y-54393810D01*
X130818095Y-54250952D01*
X130865714Y-54060476D01*
X130913333Y-53965238D01*
X131008571Y-53870000D01*
X131151429Y-53822381D01*
X131246667Y-53822381D01*
X131389524Y-53870000D01*
X131437143Y-53917619D01*
X132389524Y-54822381D02*
X131818095Y-54822381D01*
X132103809Y-54822381D02*
X132103809Y-53822381D01*
X132008571Y-53965238D01*
X131913333Y-54060476D01*
X131818095Y-54108095D01*
X132770476Y-53917619D02*
X132818095Y-53870000D01*
X132913333Y-53822381D01*
X133151429Y-53822381D01*
X133246667Y-53870000D01*
X133294286Y-53917619D01*
X133341905Y-54012857D01*
X133341905Y-54108095D01*
X133294286Y-54250952D01*
X132722857Y-54822381D01*
X133341905Y-54822381D01*
X111087143Y-57792857D02*
X111134762Y-57840476D01*
X111182381Y-57983333D01*
X111182381Y-58078571D01*
X111134762Y-58221429D01*
X111039524Y-58316667D01*
X110944286Y-58364286D01*
X110753810Y-58411905D01*
X110610952Y-58411905D01*
X110420476Y-58364286D01*
X110325238Y-58316667D01*
X110230000Y-58221429D01*
X110182381Y-58078571D01*
X110182381Y-57983333D01*
X110230000Y-57840476D01*
X110277619Y-57792857D01*
X111182381Y-56840476D02*
X111182381Y-57411905D01*
X111182381Y-57126191D02*
X110182381Y-57126191D01*
X110325238Y-57221429D01*
X110420476Y-57316667D01*
X110468095Y-57411905D01*
X110182381Y-56507143D02*
X110182381Y-55888095D01*
X110563333Y-56221429D01*
X110563333Y-56078571D01*
X110610952Y-55983333D01*
X110658571Y-55935714D01*
X110753810Y-55888095D01*
X110991905Y-55888095D01*
X111087143Y-55935714D01*
X111134762Y-55983333D01*
X111182381Y-56078571D01*
X111182381Y-56364286D01*
X111134762Y-56459524D01*
X111087143Y-56507143D01*
X116167143Y-57792857D02*
X116214762Y-57840476D01*
X116262381Y-57983333D01*
X116262381Y-58078571D01*
X116214762Y-58221429D01*
X116119524Y-58316667D01*
X116024286Y-58364286D01*
X115833810Y-58411905D01*
X115690952Y-58411905D01*
X115500476Y-58364286D01*
X115405238Y-58316667D01*
X115310000Y-58221429D01*
X115262381Y-58078571D01*
X115262381Y-57983333D01*
X115310000Y-57840476D01*
X115357619Y-57792857D01*
X116262381Y-56840476D02*
X116262381Y-57411905D01*
X116262381Y-57126191D02*
X115262381Y-57126191D01*
X115405238Y-57221429D01*
X115500476Y-57316667D01*
X115548095Y-57411905D01*
X115595714Y-55983333D02*
X116262381Y-55983333D01*
X115214762Y-56221429D02*
X115929048Y-56459524D01*
X115929048Y-55840476D01*
X142329143Y-35694857D02*
X142376762Y-35742476D01*
X142424381Y-35885333D01*
X142424381Y-35980571D01*
X142376762Y-36123429D01*
X142281524Y-36218667D01*
X142186286Y-36266286D01*
X141995810Y-36313905D01*
X141852952Y-36313905D01*
X141662476Y-36266286D01*
X141567238Y-36218667D01*
X141472000Y-36123429D01*
X141424381Y-35980571D01*
X141424381Y-35885333D01*
X141472000Y-35742476D01*
X141519619Y-35694857D01*
X142424381Y-34742476D02*
X142424381Y-35313905D01*
X142424381Y-35028191D02*
X141424381Y-35028191D01*
X141567238Y-35123429D01*
X141662476Y-35218667D01*
X141710095Y-35313905D01*
X141424381Y-33837714D02*
X141424381Y-34313905D01*
X141900571Y-34361524D01*
X141852952Y-34313905D01*
X141805333Y-34218667D01*
X141805333Y-33980571D01*
X141852952Y-33885333D01*
X141900571Y-33837714D01*
X141995810Y-33790095D01*
X142233905Y-33790095D01*
X142329143Y-33837714D01*
X142376762Y-33885333D01*
X142424381Y-33980571D01*
X142424381Y-34218667D01*
X142376762Y-34313905D01*
X142329143Y-34361524D01*
X112799905Y-78176381D02*
X112799905Y-77176381D01*
X113038000Y-77176381D01*
X113180858Y-77224000D01*
X113276096Y-77319238D01*
X113323715Y-77414476D01*
X113371334Y-77604952D01*
X113371334Y-77747810D01*
X113323715Y-77938286D01*
X113276096Y-78033524D01*
X113180858Y-78128762D01*
X113038000Y-78176381D01*
X112799905Y-78176381D01*
X114323715Y-78176381D02*
X113752286Y-78176381D01*
X114038000Y-78176381D02*
X114038000Y-77176381D01*
X113942762Y-77319238D01*
X113847524Y-77414476D01*
X113752286Y-77462095D01*
X112799905Y-99226381D02*
X112799905Y-98226381D01*
X113038000Y-98226381D01*
X113180858Y-98274000D01*
X113276096Y-98369238D01*
X113323715Y-98464476D01*
X113371334Y-98654952D01*
X113371334Y-98797810D01*
X113323715Y-98988286D01*
X113276096Y-99083524D01*
X113180858Y-99178762D01*
X113038000Y-99226381D01*
X112799905Y-99226381D01*
X113752286Y-98321619D02*
X113799905Y-98274000D01*
X113895143Y-98226381D01*
X114133239Y-98226381D01*
X114228477Y-98274000D01*
X114276096Y-98321619D01*
X114323715Y-98416857D01*
X114323715Y-98512095D01*
X114276096Y-98654952D01*
X113704667Y-99226381D01*
X114323715Y-99226381D01*
X187221905Y-27662381D02*
X187221905Y-26662381D01*
X187460000Y-26662381D01*
X187602858Y-26710000D01*
X187698096Y-26805238D01*
X187745715Y-26900476D01*
X187793334Y-27090952D01*
X187793334Y-27233810D01*
X187745715Y-27424286D01*
X187698096Y-27519524D01*
X187602858Y-27614762D01*
X187460000Y-27662381D01*
X187221905Y-27662381D01*
X188126667Y-26662381D02*
X188745715Y-26662381D01*
X188412381Y-27043333D01*
X188555239Y-27043333D01*
X188650477Y-27090952D01*
X188698096Y-27138571D01*
X188745715Y-27233810D01*
X188745715Y-27471905D01*
X188698096Y-27567143D01*
X188650477Y-27614762D01*
X188555239Y-27662381D01*
X188269524Y-27662381D01*
X188174286Y-27614762D01*
X188126667Y-27567143D01*
X146581905Y-82272381D02*
X146581905Y-81272381D01*
X146820000Y-81272381D01*
X146962858Y-81320000D01*
X147058096Y-81415238D01*
X147105715Y-81510476D01*
X147153334Y-81700952D01*
X147153334Y-81843810D01*
X147105715Y-82034286D01*
X147058096Y-82129524D01*
X146962858Y-82224762D01*
X146820000Y-82272381D01*
X146581905Y-82272381D01*
X148010477Y-81605714D02*
X148010477Y-82272381D01*
X147772381Y-81224762D02*
X147534286Y-81939048D01*
X148153334Y-81939048D01*
X123721905Y-26392381D02*
X123721905Y-25392381D01*
X123960000Y-25392381D01*
X124102858Y-25440000D01*
X124198096Y-25535238D01*
X124245715Y-25630476D01*
X124293334Y-25820952D01*
X124293334Y-25963810D01*
X124245715Y-26154286D01*
X124198096Y-26249524D01*
X124102858Y-26344762D01*
X123960000Y-26392381D01*
X123721905Y-26392381D01*
X125198096Y-25392381D02*
X124721905Y-25392381D01*
X124674286Y-25868571D01*
X124721905Y-25820952D01*
X124817143Y-25773333D01*
X125055239Y-25773333D01*
X125150477Y-25820952D01*
X125198096Y-25868571D01*
X125245715Y-25963810D01*
X125245715Y-26201905D01*
X125198096Y-26297143D01*
X125150477Y-26344762D01*
X125055239Y-26392381D01*
X124817143Y-26392381D01*
X124721905Y-26344762D01*
X124674286Y-26297143D01*
X99648096Y-52522381D02*
X99648096Y-51522381D01*
X99886191Y-51522381D01*
X100029049Y-51570000D01*
X100124287Y-51665238D01*
X100171906Y-51760476D01*
X100219525Y-51950952D01*
X100219525Y-52093810D01*
X100171906Y-52284286D01*
X100124287Y-52379524D01*
X100029049Y-52474762D01*
X99886191Y-52522381D01*
X99648096Y-52522381D01*
X100648096Y-52522381D02*
X100648096Y-51522381D01*
X101076667Y-52474762D02*
X101219524Y-52522381D01*
X101457620Y-52522381D01*
X101552858Y-52474762D01*
X101600477Y-52427143D01*
X101648096Y-52331905D01*
X101648096Y-52236667D01*
X101600477Y-52141429D01*
X101552858Y-52093810D01*
X101457620Y-52046190D01*
X101267143Y-51998571D01*
X101171905Y-51950952D01*
X101124286Y-51903333D01*
X101076667Y-51808095D01*
X101076667Y-51712857D01*
X101124286Y-51617619D01*
X101171905Y-51570000D01*
X101267143Y-51522381D01*
X101505239Y-51522381D01*
X101648096Y-51570000D01*
X102029048Y-52236667D02*
X102505239Y-52236667D01*
X101933810Y-52522381D02*
X102267143Y-51522381D01*
X102600477Y-52522381D01*
X103267144Y-51998571D02*
X103410001Y-52046190D01*
X103457620Y-52093810D01*
X103505239Y-52189048D01*
X103505239Y-52331905D01*
X103457620Y-52427143D01*
X103410001Y-52474762D01*
X103314763Y-52522381D01*
X102933810Y-52522381D01*
X102933810Y-51522381D01*
X103267144Y-51522381D01*
X103362382Y-51570000D01*
X103410001Y-51617619D01*
X103457620Y-51712857D01*
X103457620Y-51808095D01*
X103410001Y-51903333D01*
X103362382Y-51950952D01*
X103267144Y-51998571D01*
X102933810Y-51998571D01*
X104410001Y-52522381D02*
X103933810Y-52522381D01*
X103933810Y-51522381D01*
X104743334Y-51998571D02*
X105076668Y-51998571D01*
X105219525Y-52522381D02*
X104743334Y-52522381D01*
X104743334Y-51522381D01*
X105219525Y-51522381D01*
X105648096Y-52427143D02*
X105695715Y-52474762D01*
X105648096Y-52522381D01*
X105600477Y-52474762D01*
X105648096Y-52427143D01*
X105648096Y-52522381D01*
X106124286Y-52522381D02*
X106124286Y-51522381D01*
X106457620Y-52236667D01*
X106790953Y-51522381D01*
X106790953Y-52522381D01*
X107457619Y-51522381D02*
X107648096Y-51522381D01*
X107743334Y-51570000D01*
X107838572Y-51665238D01*
X107886191Y-51855714D01*
X107886191Y-52189048D01*
X107838572Y-52379524D01*
X107743334Y-52474762D01*
X107648096Y-52522381D01*
X107457619Y-52522381D01*
X107362381Y-52474762D01*
X107267143Y-52379524D01*
X107219524Y-52189048D01*
X107219524Y-51855714D01*
X107267143Y-51665238D01*
X107362381Y-51570000D01*
X107457619Y-51522381D01*
X108314762Y-52522381D02*
X108314762Y-51522381D01*
X108552857Y-51522381D01*
X108695715Y-51570000D01*
X108790953Y-51665238D01*
X108838572Y-51760476D01*
X108886191Y-51950952D01*
X108886191Y-52093810D01*
X108838572Y-52284286D01*
X108790953Y-52379524D01*
X108695715Y-52474762D01*
X108552857Y-52522381D01*
X108314762Y-52522381D01*
X109314762Y-51998571D02*
X109648096Y-51998571D01*
X109790953Y-52522381D02*
X109314762Y-52522381D01*
X109314762Y-51522381D01*
X109790953Y-51522381D01*
X110219524Y-52427143D02*
X110267143Y-52474762D01*
X110219524Y-52522381D01*
X110171905Y-52474762D01*
X110219524Y-52427143D01*
X110219524Y-52522381D01*
X111219524Y-52522381D02*
X110648095Y-52522381D01*
X110933809Y-52522381D02*
X110933809Y-51522381D01*
X110838571Y-51665238D01*
X110743333Y-51760476D01*
X110648095Y-51808095D01*
X111180571Y-47823048D02*
X111180571Y-47489714D01*
X111704381Y-47346857D02*
X111704381Y-47823048D01*
X110704381Y-47823048D01*
X110704381Y-47346857D01*
X110704381Y-47013524D02*
X111704381Y-46346857D01*
X110704381Y-46346857D02*
X111704381Y-47013524D01*
X110704381Y-46108762D02*
X110704381Y-45537333D01*
X111704381Y-45823048D02*
X110704381Y-45823048D01*
X111704381Y-45204000D02*
X110704381Y-45204000D01*
X110704381Y-44823047D01*
X110752000Y-44727809D01*
X110799619Y-44680190D01*
X110894857Y-44632571D01*
X111037714Y-44632571D01*
X111132952Y-44680190D01*
X111180571Y-44727809D01*
X111228190Y-44823047D01*
X111228190Y-45204000D01*
X110704381Y-44299238D02*
X111704381Y-44061143D01*
X110990095Y-43870666D01*
X111704381Y-43680190D01*
X110704381Y-43442095D01*
X111704381Y-42489714D02*
X111228190Y-42823048D01*
X111704381Y-43061143D02*
X110704381Y-43061143D01*
X110704381Y-42680190D01*
X110752000Y-42584952D01*
X110799619Y-42537333D01*
X110894857Y-42489714D01*
X111037714Y-42489714D01*
X111132952Y-42537333D01*
X111180571Y-42584952D01*
X111228190Y-42680190D01*
X111228190Y-43061143D01*
X111704381Y-41537333D02*
X111704381Y-42108762D01*
X111704381Y-41823048D02*
X110704381Y-41823048D01*
X110847238Y-41918286D01*
X110942476Y-42013524D01*
X110990095Y-42108762D01*
X119570953Y-20248571D02*
X119237619Y-20248571D01*
X119237619Y-20772381D02*
X119237619Y-19772381D01*
X119713810Y-19772381D01*
X119951905Y-19772381D02*
X120523334Y-19772381D01*
X120237619Y-20772381D02*
X120237619Y-19772381D01*
X120809048Y-19867619D02*
X120856667Y-19820000D01*
X120951905Y-19772381D01*
X121190001Y-19772381D01*
X121285239Y-19820000D01*
X121332858Y-19867619D01*
X121380477Y-19962857D01*
X121380477Y-20058095D01*
X121332858Y-20200952D01*
X120761429Y-20772381D01*
X121380477Y-20772381D01*
X121713810Y-19772381D02*
X122332858Y-19772381D01*
X121999524Y-20153333D01*
X122142382Y-20153333D01*
X122237620Y-20200952D01*
X122285239Y-20248571D01*
X122332858Y-20343810D01*
X122332858Y-20581905D01*
X122285239Y-20677143D01*
X122237620Y-20724762D01*
X122142382Y-20772381D01*
X121856667Y-20772381D01*
X121761429Y-20724762D01*
X121713810Y-20677143D01*
X122713810Y-19867619D02*
X122761429Y-19820000D01*
X122856667Y-19772381D01*
X123094763Y-19772381D01*
X123190001Y-19820000D01*
X123237620Y-19867619D01*
X123285239Y-19962857D01*
X123285239Y-20058095D01*
X123237620Y-20200952D01*
X122666191Y-20772381D01*
X123285239Y-20772381D01*
X124285239Y-20772381D02*
X123951905Y-20296190D01*
X123713810Y-20772381D02*
X123713810Y-19772381D01*
X124094763Y-19772381D01*
X124190001Y-19820000D01*
X124237620Y-19867619D01*
X124285239Y-19962857D01*
X124285239Y-20105714D01*
X124237620Y-20200952D01*
X124190001Y-20248571D01*
X124094763Y-20296190D01*
X123713810Y-20296190D01*
X124713810Y-20772381D02*
X124713810Y-19772381D01*
X125094763Y-19772381D01*
X125190001Y-19820000D01*
X125237620Y-19867619D01*
X125285239Y-19962857D01*
X125285239Y-20105714D01*
X125237620Y-20200952D01*
X125190001Y-20248571D01*
X125094763Y-20296190D01*
X124713810Y-20296190D01*
X125713810Y-20772381D02*
X125713810Y-20105714D01*
X125713810Y-19772381D02*
X125666191Y-19820000D01*
X125713810Y-19867619D01*
X125761429Y-19820000D01*
X125713810Y-19772381D01*
X125713810Y-19867619D01*
X126190000Y-20677143D02*
X126237619Y-20724762D01*
X126190000Y-20772381D01*
X126142381Y-20724762D01*
X126190000Y-20677143D01*
X126190000Y-20772381D01*
X127190000Y-20772381D02*
X126618571Y-20772381D01*
X126904285Y-20772381D02*
X126904285Y-19772381D01*
X126809047Y-19915238D01*
X126713809Y-20010476D01*
X126618571Y-20058095D01*
X148256667Y-17212381D02*
X148256667Y-17926667D01*
X148209047Y-18069524D01*
X148113809Y-18164762D01*
X147970952Y-18212381D01*
X147875714Y-18212381D01*
X149256667Y-18212381D02*
X148685238Y-18212381D01*
X148970952Y-18212381D02*
X148970952Y-17212381D01*
X148875714Y-17355238D01*
X148780476Y-17450476D01*
X148685238Y-17498095D01*
X133016667Y-17212381D02*
X133016667Y-17926667D01*
X132969047Y-18069524D01*
X132873809Y-18164762D01*
X132730952Y-18212381D01*
X132635714Y-18212381D01*
X133445238Y-17307619D02*
X133492857Y-17260000D01*
X133588095Y-17212381D01*
X133826191Y-17212381D01*
X133921429Y-17260000D01*
X133969048Y-17307619D01*
X134016667Y-17402857D01*
X134016667Y-17498095D01*
X133969048Y-17640952D01*
X133397619Y-18212381D01*
X134016667Y-18212381D01*
X152066667Y-17212381D02*
X152066667Y-17926667D01*
X152019047Y-18069524D01*
X151923809Y-18164762D01*
X151780952Y-18212381D01*
X151685714Y-18212381D01*
X152447619Y-17212381D02*
X153066667Y-17212381D01*
X152733333Y-17593333D01*
X152876191Y-17593333D01*
X152971429Y-17640952D01*
X153019048Y-17688571D01*
X153066667Y-17783810D01*
X153066667Y-18021905D01*
X153019048Y-18117143D01*
X152971429Y-18164762D01*
X152876191Y-18212381D01*
X152590476Y-18212381D01*
X152495238Y-18164762D01*
X152447619Y-18117143D01*
X136826667Y-17212381D02*
X136826667Y-17926667D01*
X136779047Y-18069524D01*
X136683809Y-18164762D01*
X136540952Y-18212381D01*
X136445714Y-18212381D01*
X137731429Y-17545714D02*
X137731429Y-18212381D01*
X137493333Y-17164762D02*
X137255238Y-17879048D01*
X137874286Y-17879048D01*
X155876667Y-17212381D02*
X155876667Y-17926667D01*
X155829047Y-18069524D01*
X155733809Y-18164762D01*
X155590952Y-18212381D01*
X155495714Y-18212381D01*
X156829048Y-17212381D02*
X156352857Y-17212381D01*
X156305238Y-17688571D01*
X156352857Y-17640952D01*
X156448095Y-17593333D01*
X156686191Y-17593333D01*
X156781429Y-17640952D01*
X156829048Y-17688571D01*
X156876667Y-17783810D01*
X156876667Y-18021905D01*
X156829048Y-18117143D01*
X156781429Y-18164762D01*
X156686191Y-18212381D01*
X156448095Y-18212381D01*
X156352857Y-18164762D01*
X156305238Y-18117143D01*
X140636667Y-17212381D02*
X140636667Y-17926667D01*
X140589047Y-18069524D01*
X140493809Y-18164762D01*
X140350952Y-18212381D01*
X140255714Y-18212381D01*
X141541429Y-17212381D02*
X141350952Y-17212381D01*
X141255714Y-17260000D01*
X141208095Y-17307619D01*
X141112857Y-17450476D01*
X141065238Y-17640952D01*
X141065238Y-18021905D01*
X141112857Y-18117143D01*
X141160476Y-18164762D01*
X141255714Y-18212381D01*
X141446191Y-18212381D01*
X141541429Y-18164762D01*
X141589048Y-18117143D01*
X141636667Y-18021905D01*
X141636667Y-17783810D01*
X141589048Y-17688571D01*
X141541429Y-17640952D01*
X141446191Y-17593333D01*
X141255714Y-17593333D01*
X141160476Y-17640952D01*
X141112857Y-17688571D01*
X141065238Y-17783810D01*
X159686667Y-17212381D02*
X159686667Y-17926667D01*
X159639047Y-18069524D01*
X159543809Y-18164762D01*
X159400952Y-18212381D01*
X159305714Y-18212381D01*
X160067619Y-17212381D02*
X160734286Y-17212381D01*
X160305714Y-18212381D01*
X144446667Y-17212381D02*
X144446667Y-17926667D01*
X144399047Y-18069524D01*
X144303809Y-18164762D01*
X144160952Y-18212381D01*
X144065714Y-18212381D01*
X145065714Y-17640952D02*
X144970476Y-17593333D01*
X144922857Y-17545714D01*
X144875238Y-17450476D01*
X144875238Y-17402857D01*
X144922857Y-17307619D01*
X144970476Y-17260000D01*
X145065714Y-17212381D01*
X145256191Y-17212381D01*
X145351429Y-17260000D01*
X145399048Y-17307619D01*
X145446667Y-17402857D01*
X145446667Y-17450476D01*
X145399048Y-17545714D01*
X145351429Y-17593333D01*
X145256191Y-17640952D01*
X145065714Y-17640952D01*
X144970476Y-17688571D01*
X144922857Y-17736190D01*
X144875238Y-17831429D01*
X144875238Y-18021905D01*
X144922857Y-18117143D01*
X144970476Y-18164762D01*
X145065714Y-18212381D01*
X145256191Y-18212381D01*
X145351429Y-18164762D01*
X145399048Y-18117143D01*
X145446667Y-18021905D01*
X145446667Y-17831429D01*
X145399048Y-17736190D01*
X145351429Y-17688571D01*
X145256191Y-17640952D01*
X133786667Y-36028381D02*
X133786667Y-36742667D01*
X133739047Y-36885524D01*
X133643809Y-36980762D01*
X133500952Y-37028381D01*
X133405714Y-37028381D01*
X134262857Y-37028381D02*
X134262857Y-36028381D01*
X134643810Y-36028381D01*
X134739048Y-36076000D01*
X134786667Y-36123619D01*
X134834286Y-36218857D01*
X134834286Y-36361714D01*
X134786667Y-36456952D01*
X134739048Y-36504571D01*
X134643810Y-36552190D01*
X134262857Y-36552190D01*
X135786667Y-37028381D02*
X135215238Y-37028381D01*
X135500952Y-37028381D02*
X135500952Y-36028381D01*
X135405714Y-36171238D01*
X135310476Y-36266476D01*
X135215238Y-36314095D01*
X120991334Y-78938381D02*
X120515143Y-78938381D01*
X120515143Y-77938381D01*
X121848477Y-78938381D02*
X121277048Y-78938381D01*
X121562762Y-78938381D02*
X121562762Y-77938381D01*
X121467524Y-78081238D01*
X121372286Y-78176476D01*
X121277048Y-78224095D01*
X121499334Y-95194381D02*
X121023143Y-95194381D01*
X121023143Y-94194381D01*
X121785048Y-94289619D02*
X121832667Y-94242000D01*
X121927905Y-94194381D01*
X122166001Y-94194381D01*
X122261239Y-94242000D01*
X122308858Y-94289619D01*
X122356477Y-94384857D01*
X122356477Y-94480095D01*
X122308858Y-94622952D01*
X121737429Y-95194381D01*
X122356477Y-95194381D01*
X106005334Y-78416381D02*
X105672000Y-77940190D01*
X105433905Y-78416381D02*
X105433905Y-77416381D01*
X105814858Y-77416381D01*
X105910096Y-77464000D01*
X105957715Y-77511619D01*
X106005334Y-77606857D01*
X106005334Y-77749714D01*
X105957715Y-77844952D01*
X105910096Y-77892571D01*
X105814858Y-77940190D01*
X105433905Y-77940190D01*
X106957715Y-78416381D02*
X106386286Y-78416381D01*
X106672000Y-78416381D02*
X106672000Y-77416381D01*
X106576762Y-77559238D01*
X106481524Y-77654476D01*
X106386286Y-77702095D01*
X112863334Y-95462381D02*
X112530000Y-94986190D01*
X112291905Y-95462381D02*
X112291905Y-94462381D01*
X112672858Y-94462381D01*
X112768096Y-94510000D01*
X112815715Y-94557619D01*
X112863334Y-94652857D01*
X112863334Y-94795714D01*
X112815715Y-94890952D01*
X112768096Y-94938571D01*
X112672858Y-94986190D01*
X112291905Y-94986190D01*
X113244286Y-94557619D02*
X113291905Y-94510000D01*
X113387143Y-94462381D01*
X113625239Y-94462381D01*
X113720477Y-94510000D01*
X113768096Y-94557619D01*
X113815715Y-94652857D01*
X113815715Y-94748095D01*
X113768096Y-94890952D01*
X113196667Y-95462381D01*
X113815715Y-95462381D01*
X124293334Y-55302381D02*
X123960000Y-54826190D01*
X123721905Y-55302381D02*
X123721905Y-54302381D01*
X124102858Y-54302381D01*
X124198096Y-54350000D01*
X124245715Y-54397619D01*
X124293334Y-54492857D01*
X124293334Y-54635714D01*
X124245715Y-54730952D01*
X124198096Y-54778571D01*
X124102858Y-54826190D01*
X123721905Y-54826190D01*
X124626667Y-54302381D02*
X125245715Y-54302381D01*
X124912381Y-54683333D01*
X125055239Y-54683333D01*
X125150477Y-54730952D01*
X125198096Y-54778571D01*
X125245715Y-54873810D01*
X125245715Y-55111905D01*
X125198096Y-55207143D01*
X125150477Y-55254762D01*
X125055239Y-55302381D01*
X124769524Y-55302381D01*
X124674286Y-55254762D01*
X124626667Y-55207143D01*
X167473334Y-112452381D02*
X167140000Y-111976190D01*
X166901905Y-112452381D02*
X166901905Y-111452381D01*
X167282858Y-111452381D01*
X167378096Y-111500000D01*
X167425715Y-111547619D01*
X167473334Y-111642857D01*
X167473334Y-111785714D01*
X167425715Y-111880952D01*
X167378096Y-111928571D01*
X167282858Y-111976190D01*
X166901905Y-111976190D01*
X168330477Y-111785714D02*
X168330477Y-112452381D01*
X168092381Y-111404762D02*
X167854286Y-112119048D01*
X168473334Y-112119048D01*
X157313334Y-112452381D02*
X156980000Y-111976190D01*
X156741905Y-112452381D02*
X156741905Y-111452381D01*
X157122858Y-111452381D01*
X157218096Y-111500000D01*
X157265715Y-111547619D01*
X157313334Y-111642857D01*
X157313334Y-111785714D01*
X157265715Y-111880952D01*
X157218096Y-111928571D01*
X157122858Y-111976190D01*
X156741905Y-111976190D01*
X158218096Y-111452381D02*
X157741905Y-111452381D01*
X157694286Y-111928571D01*
X157741905Y-111880952D01*
X157837143Y-111833333D01*
X158075239Y-111833333D01*
X158170477Y-111880952D01*
X158218096Y-111928571D01*
X158265715Y-112023810D01*
X158265715Y-112261905D01*
X158218096Y-112357143D01*
X158170477Y-112404762D01*
X158075239Y-112452381D01*
X157837143Y-112452381D01*
X157741905Y-112404762D01*
X157694286Y-112357143D01*
X138642381Y-82716666D02*
X138166190Y-83050000D01*
X138642381Y-83288095D02*
X137642381Y-83288095D01*
X137642381Y-82907142D01*
X137690000Y-82811904D01*
X137737619Y-82764285D01*
X137832857Y-82716666D01*
X137975714Y-82716666D01*
X138070952Y-82764285D01*
X138118571Y-82811904D01*
X138166190Y-82907142D01*
X138166190Y-83288095D01*
X137642381Y-81859523D02*
X137642381Y-82050000D01*
X137690000Y-82145238D01*
X137737619Y-82192857D01*
X137880476Y-82288095D01*
X138070952Y-82335714D01*
X138451905Y-82335714D01*
X138547143Y-82288095D01*
X138594762Y-82240476D01*
X138642381Y-82145238D01*
X138642381Y-81954761D01*
X138594762Y-81859523D01*
X138547143Y-81811904D01*
X138451905Y-81764285D01*
X138213810Y-81764285D01*
X138118571Y-81811904D01*
X138070952Y-81859523D01*
X138023333Y-81954761D01*
X138023333Y-82145238D01*
X138070952Y-82240476D01*
X138118571Y-82288095D01*
X138213810Y-82335714D01*
X124293334Y-73872381D02*
X123960000Y-73396190D01*
X123721905Y-73872381D02*
X123721905Y-72872381D01*
X124102858Y-72872381D01*
X124198096Y-72920000D01*
X124245715Y-72967619D01*
X124293334Y-73062857D01*
X124293334Y-73205714D01*
X124245715Y-73300952D01*
X124198096Y-73348571D01*
X124102858Y-73396190D01*
X123721905Y-73396190D01*
X124626667Y-72872381D02*
X125293334Y-72872381D01*
X124864762Y-73872381D01*
X157918381Y-65698666D02*
X157442190Y-66032000D01*
X157918381Y-66270095D02*
X156918381Y-66270095D01*
X156918381Y-65889142D01*
X156966000Y-65793904D01*
X157013619Y-65746285D01*
X157108857Y-65698666D01*
X157251714Y-65698666D01*
X157346952Y-65746285D01*
X157394571Y-65793904D01*
X157442190Y-65889142D01*
X157442190Y-66270095D01*
X157346952Y-65127238D02*
X157299333Y-65222476D01*
X157251714Y-65270095D01*
X157156476Y-65317714D01*
X157108857Y-65317714D01*
X157013619Y-65270095D01*
X156966000Y-65222476D01*
X156918381Y-65127238D01*
X156918381Y-64936761D01*
X156966000Y-64841523D01*
X157013619Y-64793904D01*
X157108857Y-64746285D01*
X157156476Y-64746285D01*
X157251714Y-64793904D01*
X157299333Y-64841523D01*
X157346952Y-64936761D01*
X157346952Y-65127238D01*
X157394571Y-65222476D01*
X157442190Y-65270095D01*
X157537429Y-65317714D01*
X157727905Y-65317714D01*
X157823143Y-65270095D01*
X157870762Y-65222476D01*
X157918381Y-65127238D01*
X157918381Y-64936761D01*
X157870762Y-64841523D01*
X157823143Y-64793904D01*
X157727905Y-64746285D01*
X157537429Y-64746285D01*
X157442190Y-64793904D01*
X157394571Y-64841523D01*
X157346952Y-64936761D01*
X153249334Y-58886381D02*
X152916000Y-58410190D01*
X152677905Y-58886381D02*
X152677905Y-57886381D01*
X153058858Y-57886381D01*
X153154096Y-57934000D01*
X153201715Y-57981619D01*
X153249334Y-58076857D01*
X153249334Y-58219714D01*
X153201715Y-58314952D01*
X153154096Y-58362571D01*
X153058858Y-58410190D01*
X152677905Y-58410190D01*
X153725524Y-58886381D02*
X153916000Y-58886381D01*
X154011239Y-58838762D01*
X154058858Y-58791143D01*
X154154096Y-58648286D01*
X154201715Y-58457810D01*
X154201715Y-58076857D01*
X154154096Y-57981619D01*
X154106477Y-57934000D01*
X154011239Y-57886381D01*
X153820762Y-57886381D01*
X153725524Y-57934000D01*
X153677905Y-57981619D01*
X153630286Y-58076857D01*
X153630286Y-58314952D01*
X153677905Y-58410190D01*
X153725524Y-58457810D01*
X153820762Y-58505429D01*
X154011239Y-58505429D01*
X154106477Y-58457810D01*
X154154096Y-58410190D01*
X154201715Y-58314952D01*
X152265143Y-49968381D02*
X151931809Y-49492190D01*
X151693714Y-49968381D02*
X151693714Y-48968381D01*
X152074667Y-48968381D01*
X152169905Y-49016000D01*
X152217524Y-49063619D01*
X152265143Y-49158857D01*
X152265143Y-49301714D01*
X152217524Y-49396952D01*
X152169905Y-49444571D01*
X152074667Y-49492190D01*
X151693714Y-49492190D01*
X153217524Y-49968381D02*
X152646095Y-49968381D01*
X152931809Y-49968381D02*
X152931809Y-48968381D01*
X152836571Y-49111238D01*
X152741333Y-49206476D01*
X152646095Y-49254095D01*
X153836571Y-48968381D02*
X153931810Y-48968381D01*
X154027048Y-49016000D01*
X154074667Y-49063619D01*
X154122286Y-49158857D01*
X154169905Y-49349333D01*
X154169905Y-49587429D01*
X154122286Y-49777905D01*
X154074667Y-49873143D01*
X154027048Y-49920762D01*
X153931810Y-49968381D01*
X153836571Y-49968381D01*
X153741333Y-49920762D01*
X153693714Y-49873143D01*
X153646095Y-49777905D01*
X153598476Y-49587429D01*
X153598476Y-49349333D01*
X153646095Y-49158857D01*
X153693714Y-49063619D01*
X153741333Y-49016000D01*
X153836571Y-48968381D01*
X157918381Y-57792857D02*
X157442190Y-58126191D01*
X157918381Y-58364286D02*
X156918381Y-58364286D01*
X156918381Y-57983333D01*
X156966000Y-57888095D01*
X157013619Y-57840476D01*
X157108857Y-57792857D01*
X157251714Y-57792857D01*
X157346952Y-57840476D01*
X157394571Y-57888095D01*
X157442190Y-57983333D01*
X157442190Y-58364286D01*
X157918381Y-56840476D02*
X157918381Y-57411905D01*
X157918381Y-57126191D02*
X156918381Y-57126191D01*
X157061238Y-57221429D01*
X157156476Y-57316667D01*
X157204095Y-57411905D01*
X157918381Y-55888095D02*
X157918381Y-56459524D01*
X157918381Y-56173810D02*
X156918381Y-56173810D01*
X157061238Y-56269048D01*
X157156476Y-56364286D01*
X157204095Y-56459524D01*
X144391143Y-45396381D02*
X144057809Y-44920190D01*
X143819714Y-45396381D02*
X143819714Y-44396381D01*
X144200667Y-44396381D01*
X144295905Y-44444000D01*
X144343524Y-44491619D01*
X144391143Y-44586857D01*
X144391143Y-44729714D01*
X144343524Y-44824952D01*
X144295905Y-44872571D01*
X144200667Y-44920190D01*
X143819714Y-44920190D01*
X145343524Y-45396381D02*
X144772095Y-45396381D01*
X145057809Y-45396381D02*
X145057809Y-44396381D01*
X144962571Y-44539238D01*
X144867333Y-44634476D01*
X144772095Y-44682095D01*
X145724476Y-44491619D02*
X145772095Y-44444000D01*
X145867333Y-44396381D01*
X146105429Y-44396381D01*
X146200667Y-44444000D01*
X146248286Y-44491619D01*
X146295905Y-44586857D01*
X146295905Y-44682095D01*
X146248286Y-44824952D01*
X145676857Y-45396381D01*
X146295905Y-45396381D01*
X187317143Y-37042381D02*
X186983809Y-36566190D01*
X186745714Y-37042381D02*
X186745714Y-36042381D01*
X187126667Y-36042381D01*
X187221905Y-36090000D01*
X187269524Y-36137619D01*
X187317143Y-36232857D01*
X187317143Y-36375714D01*
X187269524Y-36470952D01*
X187221905Y-36518571D01*
X187126667Y-36566190D01*
X186745714Y-36566190D01*
X188269524Y-37042381D02*
X187698095Y-37042381D01*
X187983809Y-37042381D02*
X187983809Y-36042381D01*
X187888571Y-36185238D01*
X187793333Y-36280476D01*
X187698095Y-36328095D01*
X188602857Y-36042381D02*
X189221905Y-36042381D01*
X188888571Y-36423333D01*
X189031429Y-36423333D01*
X189126667Y-36470952D01*
X189174286Y-36518571D01*
X189221905Y-36613810D01*
X189221905Y-36851905D01*
X189174286Y-36947143D01*
X189126667Y-36994762D01*
X189031429Y-37042381D01*
X188745714Y-37042381D01*
X188650476Y-36994762D01*
X188602857Y-36947143D01*
X147947143Y-81492381D02*
X147613809Y-81016190D01*
X147375714Y-81492381D02*
X147375714Y-80492381D01*
X147756667Y-80492381D01*
X147851905Y-80540000D01*
X147899524Y-80587619D01*
X147947143Y-80682857D01*
X147947143Y-80825714D01*
X147899524Y-80920952D01*
X147851905Y-80968571D01*
X147756667Y-81016190D01*
X147375714Y-81016190D01*
X148899524Y-81492381D02*
X148328095Y-81492381D01*
X148613809Y-81492381D02*
X148613809Y-80492381D01*
X148518571Y-80635238D01*
X148423333Y-80730476D01*
X148328095Y-80778095D01*
X149756667Y-80825714D02*
X149756667Y-81492381D01*
X149518571Y-80444762D02*
X149280476Y-81159048D01*
X149899524Y-81159048D01*
X123817143Y-35772381D02*
X123483809Y-35296190D01*
X123245714Y-35772381D02*
X123245714Y-34772381D01*
X123626667Y-34772381D01*
X123721905Y-34820000D01*
X123769524Y-34867619D01*
X123817143Y-34962857D01*
X123817143Y-35105714D01*
X123769524Y-35200952D01*
X123721905Y-35248571D01*
X123626667Y-35296190D01*
X123245714Y-35296190D01*
X124769524Y-35772381D02*
X124198095Y-35772381D01*
X124483809Y-35772381D02*
X124483809Y-34772381D01*
X124388571Y-34915238D01*
X124293333Y-35010476D01*
X124198095Y-35058095D01*
X125674286Y-34772381D02*
X125198095Y-34772381D01*
X125150476Y-35248571D01*
X125198095Y-35200952D01*
X125293333Y-35153333D01*
X125531429Y-35153333D01*
X125626667Y-35200952D01*
X125674286Y-35248571D01*
X125721905Y-35343810D01*
X125721905Y-35581905D01*
X125674286Y-35677143D01*
X125626667Y-35724762D01*
X125531429Y-35772381D01*
X125293333Y-35772381D01*
X125198095Y-35724762D01*
X125150476Y-35677143D01*
X107974286Y-33932762D02*
X108117143Y-33980381D01*
X108355239Y-33980381D01*
X108450477Y-33932762D01*
X108498096Y-33885143D01*
X108545715Y-33789905D01*
X108545715Y-33694667D01*
X108498096Y-33599429D01*
X108450477Y-33551810D01*
X108355239Y-33504190D01*
X108164762Y-33456571D01*
X108069524Y-33408952D01*
X108021905Y-33361333D01*
X107974286Y-33266095D01*
X107974286Y-33170857D01*
X108021905Y-33075619D01*
X108069524Y-33028000D01*
X108164762Y-32980381D01*
X108402858Y-32980381D01*
X108545715Y-33028000D01*
X108831429Y-32980381D02*
X109402858Y-32980381D01*
X109117143Y-33980381D02*
X109117143Y-32980381D01*
X110212382Y-33980381D02*
X109736191Y-33980381D01*
X109736191Y-32980381D01*
X110545715Y-33980381D02*
X110545715Y-33313714D01*
X110545715Y-32980381D02*
X110498096Y-33028000D01*
X110545715Y-33075619D01*
X110593334Y-33028000D01*
X110545715Y-32980381D01*
X110545715Y-33075619D01*
X111021905Y-33313714D02*
X111021905Y-33980381D01*
X111021905Y-33408952D02*
X111069524Y-33361333D01*
X111164762Y-33313714D01*
X111307620Y-33313714D01*
X111402858Y-33361333D01*
X111450477Y-33456571D01*
X111450477Y-33980381D01*
X111926667Y-33980381D02*
X111926667Y-32980381D01*
X112021905Y-33599429D02*
X112307620Y-33980381D01*
X112307620Y-33313714D02*
X111926667Y-33694667D01*
X112593334Y-32980381D02*
X112926667Y-33980381D01*
X113260001Y-32980381D01*
X113545715Y-33075619D02*
X113593334Y-33028000D01*
X113688572Y-32980381D01*
X113926668Y-32980381D01*
X114021906Y-33028000D01*
X114069525Y-33075619D01*
X114117144Y-33170857D01*
X114117144Y-33266095D01*
X114069525Y-33408952D01*
X113498096Y-33980381D01*
X114117144Y-33980381D01*
X114545715Y-33885143D02*
X114593334Y-33932762D01*
X114545715Y-33980381D01*
X114498096Y-33932762D01*
X114545715Y-33885143D01*
X114545715Y-33980381D01*
X115545715Y-33980381D02*
X114974286Y-33980381D01*
X115260000Y-33980381D02*
X115260000Y-32980381D01*
X115164762Y-33123238D01*
X115069524Y-33218476D01*
X114974286Y-33266095D01*
X111720381Y-87121905D02*
X112529905Y-87121905D01*
X112625143Y-87074286D01*
X112672762Y-87026667D01*
X112720381Y-86931429D01*
X112720381Y-86740952D01*
X112672762Y-86645714D01*
X112625143Y-86598095D01*
X112529905Y-86550476D01*
X111720381Y-86550476D01*
X112720381Y-85550476D02*
X112720381Y-86121905D01*
X112720381Y-85836191D02*
X111720381Y-85836191D01*
X111863238Y-85931429D01*
X111958476Y-86026667D01*
X112006095Y-86121905D01*
X186632381Y-92201905D02*
X187441905Y-92201905D01*
X187537143Y-92154286D01*
X187584762Y-92106667D01*
X187632381Y-92011429D01*
X187632381Y-91820952D01*
X187584762Y-91725714D01*
X187537143Y-91678095D01*
X187441905Y-91630476D01*
X186632381Y-91630476D01*
X186727619Y-91201905D02*
X186680000Y-91154286D01*
X186632381Y-91059048D01*
X186632381Y-90820952D01*
X186680000Y-90725714D01*
X186727619Y-90678095D01*
X186822857Y-90630476D01*
X186918095Y-90630476D01*
X187060952Y-90678095D01*
X187632381Y-91249524D01*
X187632381Y-90630476D01*
X145992381Y-92201905D02*
X146801905Y-92201905D01*
X146897143Y-92154286D01*
X146944762Y-92106667D01*
X146992381Y-92011429D01*
X146992381Y-91820952D01*
X146944762Y-91725714D01*
X146897143Y-91678095D01*
X146801905Y-91630476D01*
X145992381Y-91630476D01*
X145992381Y-91249524D02*
X145992381Y-90630476D01*
X146373333Y-90963810D01*
X146373333Y-90820952D01*
X146420952Y-90725714D01*
X146468571Y-90678095D01*
X146563810Y-90630476D01*
X146801905Y-90630476D01*
X146897143Y-90678095D01*
X146944762Y-90725714D01*
X146992381Y-90820952D01*
X146992381Y-91106667D01*
X146944762Y-91201905D01*
X146897143Y-91249524D01*
X176472381Y-92201905D02*
X177281905Y-92201905D01*
X177377143Y-92154286D01*
X177424762Y-92106667D01*
X177472381Y-92011429D01*
X177472381Y-91820952D01*
X177424762Y-91725714D01*
X177377143Y-91678095D01*
X177281905Y-91630476D01*
X176472381Y-91630476D01*
X176805714Y-90725714D02*
X177472381Y-90725714D01*
X176424762Y-90963810D02*
X177139048Y-91201905D01*
X177139048Y-90582857D01*
X156152381Y-92201905D02*
X156961905Y-92201905D01*
X157057143Y-92154286D01*
X157104762Y-92106667D01*
X157152381Y-92011429D01*
X157152381Y-91820952D01*
X157104762Y-91725714D01*
X157057143Y-91678095D01*
X156961905Y-91630476D01*
X156152381Y-91630476D01*
X156152381Y-90678095D02*
X156152381Y-91154286D01*
X156628571Y-91201905D01*
X156580952Y-91154286D01*
X156533333Y-91059048D01*
X156533333Y-90820952D01*
X156580952Y-90725714D01*
X156628571Y-90678095D01*
X156723810Y-90630476D01*
X156961905Y-90630476D01*
X157057143Y-90678095D01*
X157104762Y-90725714D01*
X157152381Y-90820952D01*
X157152381Y-91059048D01*
X157104762Y-91154286D01*
X157057143Y-91201905D01*
X166312381Y-92201905D02*
X167121905Y-92201905D01*
X167217143Y-92154286D01*
X167264762Y-92106667D01*
X167312381Y-92011429D01*
X167312381Y-91820952D01*
X167264762Y-91725714D01*
X167217143Y-91678095D01*
X167121905Y-91630476D01*
X166312381Y-91630476D01*
X166312381Y-90725714D02*
X166312381Y-90916191D01*
X166360000Y-91011429D01*
X166407619Y-91059048D01*
X166550476Y-91154286D01*
X166740952Y-91201905D01*
X167121905Y-91201905D01*
X167217143Y-91154286D01*
X167264762Y-91106667D01*
X167312381Y-91011429D01*
X167312381Y-90820952D01*
X167264762Y-90725714D01*
X167217143Y-90678095D01*
X167121905Y-90630476D01*
X166883810Y-90630476D01*
X166788571Y-90678095D01*
X166740952Y-90725714D01*
X166693333Y-90820952D01*
X166693333Y-91011429D01*
X166740952Y-91106667D01*
X166788571Y-91154286D01*
X166883810Y-91201905D01*
X156718095Y-39212381D02*
X156718095Y-40021905D01*
X156765714Y-40117143D01*
X156813333Y-40164762D01*
X156908571Y-40212381D01*
X157099048Y-40212381D01*
X157194286Y-40164762D01*
X157241905Y-40117143D01*
X157289524Y-40021905D01*
X157289524Y-39212381D01*
X157813333Y-40212381D02*
X158003809Y-40212381D01*
X158099048Y-40164762D01*
X158146667Y-40117143D01*
X158241905Y-39974286D01*
X158289524Y-39783810D01*
X158289524Y-39402857D01*
X158241905Y-39307619D01*
X158194286Y-39260000D01*
X158099048Y-39212381D01*
X157908571Y-39212381D01*
X157813333Y-39260000D01*
X157765714Y-39307619D01*
X157718095Y-39402857D01*
X157718095Y-39640952D01*
X157765714Y-39736190D01*
X157813333Y-39783810D01*
X157908571Y-39831429D01*
X158099048Y-39831429D01*
X158194286Y-39783810D01*
X158241905Y-39736190D01*
X158289524Y-39640952D01*
X153701905Y-47722381D02*
X153701905Y-48531905D01*
X153749524Y-48627143D01*
X153797143Y-48674762D01*
X153892381Y-48722381D01*
X154082858Y-48722381D01*
X154178096Y-48674762D01*
X154225715Y-48627143D01*
X154273334Y-48531905D01*
X154273334Y-47722381D01*
X155273334Y-48722381D02*
X154701905Y-48722381D01*
X154987619Y-48722381D02*
X154987619Y-47722381D01*
X154892381Y-47865238D01*
X154797143Y-47960476D01*
X154701905Y-48008095D01*
X155892381Y-47722381D02*
X155987620Y-47722381D01*
X156082858Y-47770000D01*
X156130477Y-47817619D01*
X156178096Y-47912857D01*
X156225715Y-48103333D01*
X156225715Y-48341429D01*
X156178096Y-48531905D01*
X156130477Y-48627143D01*
X156082858Y-48674762D01*
X155987620Y-48722381D01*
X155892381Y-48722381D01*
X155797143Y-48674762D01*
X155749524Y-48627143D01*
X155701905Y-48531905D01*
X155654286Y-48341429D01*
X155654286Y-48103333D01*
X155701905Y-47912857D01*
X155749524Y-47817619D01*
X155797143Y-47770000D01*
X155892381Y-47722381D01*
X118842381Y-49498095D02*
X119651905Y-49498095D01*
X119747143Y-49450476D01*
X119794762Y-49402857D01*
X119842381Y-49307619D01*
X119842381Y-49117142D01*
X119794762Y-49021904D01*
X119747143Y-48974285D01*
X119651905Y-48926666D01*
X118842381Y-48926666D01*
X119842381Y-47926666D02*
X119842381Y-48498095D01*
X119842381Y-48212381D02*
X118842381Y-48212381D01*
X118985238Y-48307619D01*
X119080476Y-48402857D01*
X119128095Y-48498095D01*
X119842381Y-46974285D02*
X119842381Y-47545714D01*
X119842381Y-47260000D02*
X118842381Y-47260000D01*
X118985238Y-47355238D01*
X119080476Y-47450476D01*
X119128095Y-47545714D01*
X126462381Y-49498095D02*
X127271905Y-49498095D01*
X127367143Y-49450476D01*
X127414762Y-49402857D01*
X127462381Y-49307619D01*
X127462381Y-49117142D01*
X127414762Y-49021904D01*
X127367143Y-48974285D01*
X127271905Y-48926666D01*
X126462381Y-48926666D01*
X127462381Y-47926666D02*
X127462381Y-48498095D01*
X127462381Y-48212381D02*
X126462381Y-48212381D01*
X126605238Y-48307619D01*
X126700476Y-48402857D01*
X126748095Y-48498095D01*
X126557619Y-47545714D02*
X126510000Y-47498095D01*
X126462381Y-47402857D01*
X126462381Y-47164761D01*
X126510000Y-47069523D01*
X126557619Y-47021904D01*
X126652857Y-46974285D01*
X126748095Y-46974285D01*
X126890952Y-47021904D01*
X127462381Y-47593333D01*
X127462381Y-46974285D01*
X127809847Y-77516565D02*
X127574145Y-78695077D01*
X128281252Y-77987970D02*
X127102741Y-78223672D01*
X128449611Y-78156329D02*
X128853672Y-78560390D01*
X127944534Y-79065466D02*
X128651641Y-78358359D01*
X128752657Y-79873588D02*
X128348596Y-79469527D01*
X128550626Y-79671557D02*
X129257733Y-78964451D01*
X129089374Y-78998122D01*
X128954687Y-78998122D01*
X128853672Y-78964451D01*
X163152857Y-51714286D02*
X164124286Y-51714286D01*
X164238571Y-51657143D01*
X164295714Y-51600000D01*
X164352857Y-51485714D01*
X164352857Y-51257143D01*
X164295714Y-51142857D01*
X164238571Y-51085714D01*
X164124286Y-51028571D01*
X163152857Y-51028571D01*
X163667143Y-50285714D02*
X163610000Y-50400000D01*
X163552857Y-50457143D01*
X163438571Y-50514286D01*
X163381429Y-50514286D01*
X163267143Y-50457143D01*
X163210000Y-50400000D01*
X163152857Y-50285714D01*
X163152857Y-50057143D01*
X163210000Y-49942857D01*
X163267143Y-49885714D01*
X163381429Y-49828571D01*
X163438571Y-49828571D01*
X163552857Y-49885714D01*
X163610000Y-49942857D01*
X163667143Y-50057143D01*
X163667143Y-50285714D01*
X163724286Y-50400000D01*
X163781429Y-50457143D01*
X163895714Y-50514286D01*
X164124286Y-50514286D01*
X164238571Y-50457143D01*
X164295714Y-50400000D01*
X164352857Y-50285714D01*
X164352857Y-50057143D01*
X164295714Y-49942857D01*
X164238571Y-49885714D01*
X164124286Y-49828571D01*
X163895714Y-49828571D01*
X163781429Y-49885714D01*
X163724286Y-49942857D01*
X163667143Y-50057143D01*
X163152857Y-74574286D02*
X164124286Y-74574286D01*
X164238571Y-74517143D01*
X164295714Y-74460000D01*
X164352857Y-74345714D01*
X164352857Y-74117143D01*
X164295714Y-74002857D01*
X164238571Y-73945714D01*
X164124286Y-73888571D01*
X163152857Y-73888571D01*
X163152857Y-73431428D02*
X163152857Y-72631428D01*
X164352857Y-73145714D01*
X151661905Y-113104381D02*
X151661905Y-112104381D01*
X152042858Y-112104381D01*
X152138096Y-112152000D01*
X152185715Y-112199619D01*
X152233334Y-112294857D01*
X152233334Y-112437714D01*
X152185715Y-112532952D01*
X152138096Y-112580571D01*
X152042858Y-112628190D01*
X151661905Y-112628190D01*
X152804762Y-112532952D02*
X152709524Y-112485333D01*
X152661905Y-112437714D01*
X152614286Y-112342476D01*
X152614286Y-112294857D01*
X152661905Y-112199619D01*
X152709524Y-112152000D01*
X152804762Y-112104381D01*
X152995239Y-112104381D01*
X153090477Y-112152000D01*
X153138096Y-112199619D01*
X153185715Y-112294857D01*
X153185715Y-112342476D01*
X153138096Y-112437714D01*
X153090477Y-112485333D01*
X152995239Y-112532952D01*
X152804762Y-112532952D01*
X152709524Y-112580571D01*
X152661905Y-112628190D01*
X152614286Y-112723429D01*
X152614286Y-112913905D01*
X152661905Y-113009143D01*
X152709524Y-113056762D01*
X152804762Y-113104381D01*
X152995239Y-113104381D01*
X153090477Y-113056762D01*
X153138096Y-113009143D01*
X153185715Y-112913905D01*
X153185715Y-112723429D01*
X153138096Y-112628190D01*
X153090477Y-112580571D01*
X152995239Y-112532952D01*
X161821905Y-113104381D02*
X161821905Y-112104381D01*
X162202858Y-112104381D01*
X162298096Y-112152000D01*
X162345715Y-112199619D01*
X162393334Y-112294857D01*
X162393334Y-112437714D01*
X162345715Y-112532952D01*
X162298096Y-112580571D01*
X162202858Y-112628190D01*
X161821905Y-112628190D01*
X162726667Y-112104381D02*
X163393334Y-112104381D01*
X162964762Y-113104381D01*
X102131905Y-115252381D02*
X102131905Y-114252381D01*
X102512858Y-114252381D01*
X102608096Y-114300000D01*
X102655715Y-114347619D01*
X102703334Y-114442857D01*
X102703334Y-114585714D01*
X102655715Y-114680952D01*
X102608096Y-114728571D01*
X102512858Y-114776190D01*
X102131905Y-114776190D01*
X103608096Y-114252381D02*
X103131905Y-114252381D01*
X103084286Y-114728571D01*
X103131905Y-114680952D01*
X103227143Y-114633333D01*
X103465239Y-114633333D01*
X103560477Y-114680952D01*
X103608096Y-114728571D01*
X103655715Y-114823810D01*
X103655715Y-115061905D01*
X103608096Y-115157143D01*
X103560477Y-115204762D01*
X103465239Y-115252381D01*
X103227143Y-115252381D01*
X103131905Y-115204762D01*
X103084286Y-115157143D01*
X191031905Y-115252381D02*
X191031905Y-114252381D01*
X191412858Y-114252381D01*
X191508096Y-114300000D01*
X191555715Y-114347619D01*
X191603334Y-114442857D01*
X191603334Y-114585714D01*
X191555715Y-114680952D01*
X191508096Y-114728571D01*
X191412858Y-114776190D01*
X191031905Y-114776190D01*
X192460477Y-114585714D02*
X192460477Y-115252381D01*
X192222381Y-114204762D02*
X191984286Y-114919048D01*
X192603334Y-114919048D01*
X102131905Y-23812381D02*
X102131905Y-22812381D01*
X102512858Y-22812381D01*
X102608096Y-22860000D01*
X102655715Y-22907619D01*
X102703334Y-23002857D01*
X102703334Y-23145714D01*
X102655715Y-23240952D01*
X102608096Y-23288571D01*
X102512858Y-23336190D01*
X102131905Y-23336190D01*
X103036667Y-22812381D02*
X103655715Y-22812381D01*
X103322381Y-23193333D01*
X103465239Y-23193333D01*
X103560477Y-23240952D01*
X103608096Y-23288571D01*
X103655715Y-23383810D01*
X103655715Y-23621905D01*
X103608096Y-23717143D01*
X103560477Y-23764762D01*
X103465239Y-23812381D01*
X103179524Y-23812381D01*
X103084286Y-23764762D01*
X103036667Y-23717143D01*
X165401667Y-21042381D02*
X165401667Y-21756667D01*
X165354047Y-21899524D01*
X165258809Y-21994762D01*
X165115952Y-22042381D01*
X165020714Y-22042381D01*
X165925476Y-22042381D02*
X166115952Y-22042381D01*
X166211191Y-21994762D01*
X166258810Y-21947143D01*
X166354048Y-21804286D01*
X166401667Y-21613810D01*
X166401667Y-21232857D01*
X166354048Y-21137619D01*
X166306429Y-21090000D01*
X166211191Y-21042381D01*
X166020714Y-21042381D01*
X165925476Y-21090000D01*
X165877857Y-21137619D01*
X165830238Y-21232857D01*
X165830238Y-21470952D01*
X165877857Y-21566190D01*
X165925476Y-21613810D01*
X166020714Y-21661429D01*
X166211191Y-21661429D01*
X166306429Y-21613810D01*
X166354048Y-21566190D01*
X166401667Y-21470952D01*
D18*
X144875642Y-99288946D02*
X144827969Y-99336619D01*
X144684950Y-99384292D01*
X144589604Y-99384292D01*
X144446586Y-99336619D01*
X144351240Y-99241274D01*
X144303567Y-99145928D01*
X144255894Y-98955236D01*
X144255894Y-98812218D01*
X144303567Y-98621526D01*
X144351240Y-98526181D01*
X144446586Y-98430835D01*
X144589604Y-98383162D01*
X144684950Y-98383162D01*
X144827969Y-98430835D01*
X144875642Y-98478508D01*
X145257024Y-99098255D02*
X145733753Y-99098255D01*
X145161679Y-99384292D02*
X145495389Y-98383162D01*
X145829099Y-99384292D01*
X146734883Y-99384292D02*
X146401173Y-98907564D01*
X146162808Y-99384292D02*
X146162808Y-98383162D01*
X146544191Y-98383162D01*
X146639537Y-98430835D01*
X146687210Y-98478508D01*
X146734883Y-98573854D01*
X146734883Y-98716872D01*
X146687210Y-98812218D01*
X146639537Y-98859891D01*
X146544191Y-98907564D01*
X146162808Y-98907564D01*
X147020920Y-98383162D02*
X147592994Y-98383162D01*
X147306957Y-99384292D02*
X147306957Y-98383162D01*
X147879031Y-98478508D02*
X147926704Y-98430835D01*
X148022050Y-98383162D01*
X148260414Y-98383162D01*
X148355760Y-98430835D01*
X148403433Y-98478508D01*
X148451106Y-98573854D01*
X148451106Y-98669199D01*
X148403433Y-98812218D01*
X147831359Y-99384292D01*
X148451106Y-99384292D01*
X141440718Y-111877365D02*
X141917647Y-111877365D01*
X141345333Y-112163522D02*
X141679183Y-111161972D01*
X142013033Y-112163522D01*
X142203804Y-111161972D02*
X142776118Y-111161972D01*
X142489961Y-112163522D02*
X142489961Y-111161972D01*
X143062275Y-111877365D02*
X143539204Y-111877365D01*
X142966890Y-112163522D02*
X143300740Y-111161972D01*
X143634590Y-112163522D01*
X144540754Y-112163522D02*
X144206904Y-111686594D01*
X143968439Y-112163522D02*
X143968439Y-111161972D01*
X144349982Y-111161972D01*
X144445368Y-111209665D01*
X144493061Y-111257358D01*
X144540754Y-111352744D01*
X144540754Y-111495822D01*
X144493061Y-111591208D01*
X144445368Y-111638901D01*
X144349982Y-111686594D01*
X143968439Y-111686594D01*
X144969989Y-112163522D02*
X144969989Y-111161972D01*
X146019233Y-112068136D02*
X145971540Y-112115829D01*
X145828461Y-112163522D01*
X145733075Y-112163522D01*
X145589997Y-112115829D01*
X145494611Y-112020444D01*
X145446918Y-111925058D01*
X145399225Y-111734286D01*
X145399225Y-111591208D01*
X145446918Y-111400436D01*
X145494611Y-111305051D01*
X145589997Y-111209665D01*
X145733075Y-111161972D01*
X145828461Y-111161972D01*
X145971540Y-111209665D01*
X146019233Y-111257358D01*
X146400775Y-111877365D02*
X146877704Y-111877365D01*
X146305390Y-112163522D02*
X146639240Y-111161972D01*
X146973090Y-112163522D01*
X147879254Y-112163522D02*
X147545404Y-111686594D01*
X147306939Y-112163522D02*
X147306939Y-111161972D01*
X147688482Y-111161972D01*
X147783868Y-111209665D01*
X147831561Y-111257358D01*
X147879254Y-111352744D01*
X147879254Y-111495822D01*
X147831561Y-111591208D01*
X147783868Y-111638901D01*
X147688482Y-111686594D01*
X147306939Y-111686594D01*
X148165411Y-111161972D02*
X148737725Y-111161972D01*
X148451568Y-112163522D02*
X148451568Y-111161972D01*
X149643890Y-112163522D02*
X149310040Y-111686594D01*
X149071575Y-112163522D02*
X149071575Y-111161972D01*
X149453118Y-111161972D01*
X149548504Y-111209665D01*
X149596197Y-111257358D01*
X149643890Y-111352744D01*
X149643890Y-111495822D01*
X149596197Y-111591208D01*
X149548504Y-111638901D01*
X149453118Y-111686594D01*
X149071575Y-111686594D01*
X150073125Y-112163522D02*
X150073125Y-111161972D01*
X150550054Y-112163522D02*
X150550054Y-111161972D01*
X150788519Y-111161972D01*
X150931597Y-111209665D01*
X151026983Y-111305051D01*
X151074676Y-111400436D01*
X151122369Y-111591208D01*
X151122369Y-111734286D01*
X151074676Y-111925058D01*
X151026983Y-112020444D01*
X150931597Y-112115829D01*
X150788519Y-112163522D01*
X150550054Y-112163522D01*
X152076226Y-111209665D02*
X151980840Y-111161972D01*
X151837761Y-111161972D01*
X151694683Y-111209665D01*
X151599297Y-111305051D01*
X151551604Y-111400436D01*
X151503911Y-111591208D01*
X151503911Y-111734286D01*
X151551604Y-111925058D01*
X151599297Y-112020444D01*
X151694683Y-112115829D01*
X151837761Y-112163522D01*
X151933147Y-112163522D01*
X152076226Y-112115829D01*
X152123919Y-112068136D01*
X152123919Y-111734286D01*
X151933147Y-111734286D01*
X152553154Y-111638901D02*
X152887004Y-111638901D01*
X153030083Y-112163522D02*
X152553154Y-112163522D01*
X152553154Y-111161972D01*
X153030083Y-111161972D01*
D11*
X166417810Y-127611143D02*
X166370191Y-127658762D01*
X166227334Y-127706381D01*
X166132096Y-127706381D01*
X165989238Y-127658762D01*
X165894000Y-127563524D01*
X165846381Y-127468286D01*
X165798762Y-127277810D01*
X165798762Y-127134952D01*
X165846381Y-126944476D01*
X165894000Y-126849238D01*
X165989238Y-126754000D01*
X166132096Y-126706381D01*
X166227334Y-126706381D01*
X166370191Y-126754000D01*
X166417810Y-126801619D01*
X166798762Y-127420667D02*
X167274953Y-127420667D01*
X166703524Y-127706381D02*
X167036857Y-126706381D01*
X167370191Y-127706381D01*
X168274953Y-127706381D02*
X167941619Y-127230190D01*
X167703524Y-127706381D02*
X167703524Y-126706381D01*
X168084477Y-126706381D01*
X168179715Y-126754000D01*
X168227334Y-126801619D01*
X168274953Y-126896857D01*
X168274953Y-127039714D01*
X168227334Y-127134952D01*
X168179715Y-127182571D01*
X168084477Y-127230190D01*
X167703524Y-127230190D01*
X168560667Y-126706381D02*
X169132096Y-126706381D01*
X168846381Y-127706381D02*
X168846381Y-126706381D01*
X169989239Y-127706381D02*
X169417810Y-127706381D01*
X169703524Y-127706381D02*
X169703524Y-126706381D01*
X169608286Y-126849238D01*
X169513048Y-126944476D01*
X169417810Y-126992095D01*
X148883714Y-128065571D02*
X148990857Y-128101286D01*
X149169428Y-128101286D01*
X149240857Y-128065571D01*
X149276571Y-128029857D01*
X149312286Y-127958429D01*
X149312286Y-127887000D01*
X149276571Y-127815571D01*
X149240857Y-127779857D01*
X149169428Y-127744143D01*
X149026571Y-127708429D01*
X148955143Y-127672714D01*
X148919428Y-127637000D01*
X148883714Y-127565571D01*
X148883714Y-127494143D01*
X148919428Y-127422714D01*
X148955143Y-127387000D01*
X149026571Y-127351286D01*
X149205143Y-127351286D01*
X149312286Y-127387000D01*
X184733429Y-127887000D02*
X185090572Y-127887000D01*
X184662001Y-128101286D02*
X184912001Y-127351286D01*
X185162001Y-128101286D01*
X165235333Y-128706571D02*
X164901999Y-128706571D01*
X164901999Y-129230381D02*
X164901999Y-128230381D01*
X165378190Y-128230381D01*
X165759142Y-129230381D02*
X165759142Y-128563714D01*
X165759142Y-128754190D02*
X165806761Y-128658952D01*
X165854380Y-128611333D01*
X165949618Y-128563714D01*
X166044857Y-128563714D01*
X166521047Y-129230381D02*
X166425809Y-129182762D01*
X166378190Y-129135143D01*
X166330571Y-129039905D01*
X166330571Y-128754190D01*
X166378190Y-128658952D01*
X166425809Y-128611333D01*
X166521047Y-128563714D01*
X166663905Y-128563714D01*
X166759143Y-128611333D01*
X166806762Y-128658952D01*
X166854381Y-128754190D01*
X166854381Y-129039905D01*
X166806762Y-129135143D01*
X166759143Y-129182762D01*
X166663905Y-129230381D01*
X166521047Y-129230381D01*
X167282952Y-128563714D02*
X167282952Y-129230381D01*
X167282952Y-128658952D02*
X167330571Y-128611333D01*
X167425809Y-128563714D01*
X167568667Y-128563714D01*
X167663905Y-128611333D01*
X167711524Y-128706571D01*
X167711524Y-129230381D01*
X168044857Y-128563714D02*
X168425809Y-128563714D01*
X168187714Y-128230381D02*
X168187714Y-129087524D01*
X168235333Y-129182762D01*
X168330571Y-129230381D01*
X168425809Y-129230381D01*
X169473429Y-128182762D02*
X168616286Y-129468476D01*
X169663905Y-128230381D02*
X170235334Y-128230381D01*
X169949619Y-129230381D02*
X169949619Y-128230381D01*
X170711524Y-129230381D02*
X170616286Y-129182762D01*
X170568667Y-129135143D01*
X170521048Y-129039905D01*
X170521048Y-128754190D01*
X170568667Y-128658952D01*
X170616286Y-128611333D01*
X170711524Y-128563714D01*
X170854382Y-128563714D01*
X170949620Y-128611333D01*
X170997239Y-128658952D01*
X171044858Y-128754190D01*
X171044858Y-129039905D01*
X170997239Y-129135143D01*
X170949620Y-129182762D01*
X170854382Y-129230381D01*
X170711524Y-129230381D01*
X171473429Y-128563714D02*
X171473429Y-129563714D01*
X171473429Y-128611333D02*
X171568667Y-128563714D01*
X171759144Y-128563714D01*
X171854382Y-128611333D01*
X171902001Y-128658952D01*
X171949620Y-128754190D01*
X171949620Y-129039905D01*
X171902001Y-129135143D01*
X171854382Y-129182762D01*
X171759144Y-129230381D01*
X171568667Y-129230381D01*
X171473429Y-129182762D01*
X181872000Y-132079904D02*
X181824381Y-132175142D01*
X181824381Y-132317999D01*
X181872000Y-132460857D01*
X181967238Y-132556095D01*
X182062476Y-132603714D01*
X182252952Y-132651333D01*
X182395810Y-132651333D01*
X182586286Y-132603714D01*
X182681524Y-132556095D01*
X182776762Y-132460857D01*
X182824381Y-132317999D01*
X182824381Y-132222761D01*
X182776762Y-132079904D01*
X182729143Y-132032285D01*
X182395810Y-132032285D01*
X182395810Y-132222761D01*
X182824381Y-131603714D02*
X181824381Y-131603714D01*
X182824381Y-131032285D01*
X181824381Y-131032285D01*
X182824381Y-130556095D02*
X181824381Y-130556095D01*
X181824381Y-130318000D01*
X181872000Y-130175142D01*
X181967238Y-130079904D01*
X182062476Y-130032285D01*
X182252952Y-129984666D01*
X182395810Y-129984666D01*
X182586286Y-130032285D01*
X182681524Y-130079904D01*
X182776762Y-130175142D01*
X182824381Y-130318000D01*
X182824381Y-130556095D01*
X177458667Y-132540286D02*
X177458667Y-132064095D01*
X177744381Y-132635524D02*
X176744381Y-132302191D01*
X177744381Y-131968857D01*
X176744381Y-131159333D02*
X176744381Y-131635524D01*
X177220571Y-131683143D01*
X177172952Y-131635524D01*
X177125333Y-131540286D01*
X177125333Y-131302190D01*
X177172952Y-131206952D01*
X177220571Y-131159333D01*
X177315810Y-131111714D01*
X177553905Y-131111714D01*
X177649143Y-131159333D01*
X177696762Y-131206952D01*
X177744381Y-131302190D01*
X177744381Y-131540286D01*
X177696762Y-131635524D01*
X177649143Y-131683143D01*
X174918667Y-132540286D02*
X174918667Y-132064095D01*
X175204381Y-132635524D02*
X174204381Y-132302191D01*
X175204381Y-131968857D01*
X174204381Y-131206952D02*
X174204381Y-131397429D01*
X174252000Y-131492667D01*
X174299619Y-131540286D01*
X174442476Y-131635524D01*
X174632952Y-131683143D01*
X175013905Y-131683143D01*
X175109143Y-131635524D01*
X175156762Y-131587905D01*
X175204381Y-131492667D01*
X175204381Y-131302190D01*
X175156762Y-131206952D01*
X175109143Y-131159333D01*
X175013905Y-131111714D01*
X174775810Y-131111714D01*
X174680571Y-131159333D01*
X174632952Y-131206952D01*
X174585333Y-131302190D01*
X174585333Y-131492667D01*
X174632952Y-131587905D01*
X174680571Y-131635524D01*
X174775810Y-131683143D01*
X172378667Y-132540286D02*
X172378667Y-132064095D01*
X172664381Y-132635524D02*
X171664381Y-132302191D01*
X172664381Y-131968857D01*
X171664381Y-131730762D02*
X171664381Y-131064095D01*
X172664381Y-131492667D01*
X169838667Y-132540286D02*
X169838667Y-132064095D01*
X170124381Y-132635524D02*
X169124381Y-132302191D01*
X170124381Y-131968857D01*
X169552952Y-131492667D02*
X169505333Y-131587905D01*
X169457714Y-131635524D01*
X169362476Y-131683143D01*
X169314857Y-131683143D01*
X169219619Y-131635524D01*
X169172000Y-131587905D01*
X169124381Y-131492667D01*
X169124381Y-131302190D01*
X169172000Y-131206952D01*
X169219619Y-131159333D01*
X169314857Y-131111714D01*
X169362476Y-131111714D01*
X169457714Y-131159333D01*
X169505333Y-131206952D01*
X169552952Y-131302190D01*
X169552952Y-131492667D01*
X169600571Y-131587905D01*
X169648190Y-131635524D01*
X169743429Y-131683143D01*
X169933905Y-131683143D01*
X170029143Y-131635524D01*
X170076762Y-131587905D01*
X170124381Y-131492667D01*
X170124381Y-131302190D01*
X170076762Y-131206952D01*
X170029143Y-131159333D01*
X169933905Y-131111714D01*
X169743429Y-131111714D01*
X169648190Y-131159333D01*
X169600571Y-131206952D01*
X169552952Y-131302190D01*
X167298667Y-132540286D02*
X167298667Y-132064095D01*
X167584381Y-132635524D02*
X166584381Y-132302191D01*
X167584381Y-131968857D01*
X167584381Y-131587905D02*
X167584381Y-131397429D01*
X167536762Y-131302190D01*
X167489143Y-131254571D01*
X167346286Y-131159333D01*
X167155810Y-131111714D01*
X166774857Y-131111714D01*
X166679619Y-131159333D01*
X166632000Y-131206952D01*
X166584381Y-131302190D01*
X166584381Y-131492667D01*
X166632000Y-131587905D01*
X166679619Y-131635524D01*
X166774857Y-131683143D01*
X167012952Y-131683143D01*
X167108190Y-131635524D01*
X167155810Y-131587905D01*
X167203429Y-131492667D01*
X167203429Y-131302190D01*
X167155810Y-131206952D01*
X167108190Y-131159333D01*
X167012952Y-131111714D01*
X164758667Y-132508476D02*
X164758667Y-132032285D01*
X165044381Y-132603714D02*
X164044381Y-132270381D01*
X165044381Y-131937047D01*
X165044381Y-131079904D02*
X165044381Y-131651333D01*
X165044381Y-131365619D02*
X164044381Y-131365619D01*
X164187238Y-131460857D01*
X164282476Y-131556095D01*
X164330095Y-131651333D01*
X164139619Y-130698952D02*
X164092000Y-130651333D01*
X164044381Y-130556095D01*
X164044381Y-130317999D01*
X164092000Y-130222761D01*
X164139619Y-130175142D01*
X164234857Y-130127523D01*
X164330095Y-130127523D01*
X164472952Y-130175142D01*
X165044381Y-130746571D01*
X165044381Y-130127523D01*
X157138667Y-132508476D02*
X157138667Y-132032285D01*
X157424381Y-132603714D02*
X156424381Y-132270381D01*
X157424381Y-131937047D01*
X157424381Y-131079904D02*
X157424381Y-131651333D01*
X157424381Y-131365619D02*
X156424381Y-131365619D01*
X156567238Y-131460857D01*
X156662476Y-131556095D01*
X156710095Y-131651333D01*
X157424381Y-130127523D02*
X157424381Y-130698952D01*
X157424381Y-130413238D02*
X156424381Y-130413238D01*
X156567238Y-130508476D01*
X156662476Y-130603714D01*
X156710095Y-130698952D01*
X154598667Y-132508476D02*
X154598667Y-132032285D01*
X154884381Y-132603714D02*
X153884381Y-132270381D01*
X154884381Y-131937047D01*
X154884381Y-131079904D02*
X154884381Y-131651333D01*
X154884381Y-131365619D02*
X153884381Y-131365619D01*
X154027238Y-131460857D01*
X154122476Y-131556095D01*
X154170095Y-131651333D01*
X153884381Y-130460857D02*
X153884381Y-130365618D01*
X153932000Y-130270380D01*
X153979619Y-130222761D01*
X154074857Y-130175142D01*
X154265333Y-130127523D01*
X154503429Y-130127523D01*
X154693905Y-130175142D01*
X154789143Y-130222761D01*
X154836762Y-130270380D01*
X154884381Y-130365618D01*
X154884381Y-130460857D01*
X154836762Y-130556095D01*
X154789143Y-130603714D01*
X154693905Y-130651333D01*
X154503429Y-130698952D01*
X154265333Y-130698952D01*
X154074857Y-130651333D01*
X153979619Y-130603714D01*
X153932000Y-130556095D01*
X153884381Y-130460857D01*
X152344381Y-131849714D02*
X151868190Y-132183048D01*
X152344381Y-132421143D02*
X151344381Y-132421143D01*
X151344381Y-132040190D01*
X151392000Y-131944952D01*
X151439619Y-131897333D01*
X151534857Y-131849714D01*
X151677714Y-131849714D01*
X151772952Y-131897333D01*
X151820571Y-131944952D01*
X151868190Y-132040190D01*
X151868190Y-132421143D01*
X151296762Y-130706857D02*
X152582476Y-131564000D01*
X151344381Y-130468762D02*
X152344381Y-130230667D01*
X151630095Y-130040190D01*
X152344381Y-129849714D01*
X151344381Y-129611619D01*
X151172000Y-130611619D02*
X151172000Y-129468762D01*
X149280571Y-132198952D02*
X149328190Y-132056095D01*
X149375810Y-132008476D01*
X149471048Y-131960857D01*
X149613905Y-131960857D01*
X149709143Y-132008476D01*
X149756762Y-132056095D01*
X149804381Y-132151333D01*
X149804381Y-132532286D01*
X148804381Y-132532286D01*
X148804381Y-132198952D01*
X148852000Y-132103714D01*
X148899619Y-132056095D01*
X148994857Y-132008476D01*
X149090095Y-132008476D01*
X149185333Y-132056095D01*
X149232952Y-132103714D01*
X149280571Y-132198952D01*
X149280571Y-132532286D01*
X148804381Y-131341810D02*
X148804381Y-131246571D01*
X148852000Y-131151333D01*
X148899619Y-131103714D01*
X148994857Y-131056095D01*
X149185333Y-131008476D01*
X149423429Y-131008476D01*
X149613905Y-131056095D01*
X149709143Y-131103714D01*
X149756762Y-131151333D01*
X149804381Y-131246571D01*
X149804381Y-131341810D01*
X149756762Y-131437048D01*
X149709143Y-131484667D01*
X149613905Y-131532286D01*
X149423429Y-131579905D01*
X149185333Y-131579905D01*
X148994857Y-131532286D01*
X148899619Y-131484667D01*
X148852000Y-131437048D01*
X148804381Y-131341810D01*
X148899619Y-130627524D02*
X148852000Y-130579905D01*
X148804381Y-130484667D01*
X148804381Y-130246571D01*
X148852000Y-130151333D01*
X148899619Y-130103714D01*
X148994857Y-130056095D01*
X149090095Y-130056095D01*
X149232952Y-130103714D01*
X149804381Y-130675143D01*
X149804381Y-130056095D01*
X162504381Y-132564095D02*
X161504381Y-132564095D01*
X161504381Y-132326000D01*
X161552000Y-132183142D01*
X161647238Y-132087904D01*
X161742476Y-132040285D01*
X161932952Y-131992666D01*
X162075810Y-131992666D01*
X162266286Y-132040285D01*
X162361524Y-132087904D01*
X162456762Y-132183142D01*
X162504381Y-132326000D01*
X162504381Y-132564095D01*
X161504381Y-131659333D02*
X161504381Y-131040285D01*
X161885333Y-131373619D01*
X161885333Y-131230761D01*
X161932952Y-131135523D01*
X161980571Y-131087904D01*
X162075810Y-131040285D01*
X162313905Y-131040285D01*
X162409143Y-131087904D01*
X162456762Y-131135523D01*
X162504381Y-131230761D01*
X162504381Y-131516476D01*
X162456762Y-131611714D01*
X162409143Y-131659333D01*
X179998667Y-132540286D02*
X179998667Y-132064095D01*
X180284381Y-132635524D02*
X179284381Y-132302191D01*
X180284381Y-131968857D01*
X179617714Y-131206952D02*
X180284381Y-131206952D01*
X179236762Y-131445048D02*
X179951048Y-131683143D01*
X179951048Y-131064095D01*
X159964381Y-132564095D02*
X158964381Y-132564095D01*
X158964381Y-132326000D01*
X159012000Y-132183142D01*
X159107238Y-132087904D01*
X159202476Y-132040285D01*
X159392952Y-131992666D01*
X159535810Y-131992666D01*
X159726286Y-132040285D01*
X159821524Y-132087904D01*
X159916762Y-132183142D01*
X159964381Y-132326000D01*
X159964381Y-132564095D01*
X158964381Y-131659333D02*
X158964381Y-130992666D01*
X159964381Y-131421238D01*
X185364381Y-131984666D02*
X184888190Y-132318000D01*
X185364381Y-132556095D02*
X184364381Y-132556095D01*
X184364381Y-132175142D01*
X184412000Y-132079904D01*
X184459619Y-132032285D01*
X184554857Y-131984666D01*
X184697714Y-131984666D01*
X184792952Y-132032285D01*
X184840571Y-132079904D01*
X184888190Y-132175142D01*
X184888190Y-132556095D01*
X185364381Y-131556095D02*
X184364381Y-131556095D01*
X184364381Y-131318000D01*
X184412000Y-131175142D01*
X184507238Y-131079904D01*
X184602476Y-131032285D01*
X184792952Y-130984666D01*
X184935810Y-130984666D01*
X185126286Y-131032285D01*
X185221524Y-131079904D01*
X185316762Y-131175142D01*
X185364381Y-131318000D01*
X185364381Y-131556095D01*
X184697714Y-130127523D02*
X185364381Y-130127523D01*
X184316762Y-130365619D02*
X185031048Y-130603714D01*
X185031048Y-129984666D01*
X116681429Y-126166571D02*
X117014763Y-126166571D01*
X117157620Y-126690381D02*
X116681429Y-126690381D01*
X116681429Y-125690381D01*
X117157620Y-125690381D01*
X118157620Y-126595143D02*
X118110001Y-126642762D01*
X117967144Y-126690381D01*
X117871906Y-126690381D01*
X117729048Y-126642762D01*
X117633810Y-126547524D01*
X117586191Y-126452286D01*
X117538572Y-126261810D01*
X117538572Y-126118952D01*
X117586191Y-125928476D01*
X117633810Y-125833238D01*
X117729048Y-125738000D01*
X117871906Y-125690381D01*
X117967144Y-125690381D01*
X118110001Y-125738000D01*
X118157620Y-125785619D01*
X118586191Y-126690381D02*
X118586191Y-125690381D01*
X119586191Y-126690381D02*
X119014762Y-126690381D01*
X119300476Y-126690381D02*
X119300476Y-125690381D01*
X119205238Y-125833238D01*
X119110000Y-125928476D01*
X119014762Y-125976095D01*
X115481001Y-127708429D02*
X115231001Y-127708429D01*
X115231001Y-128101286D02*
X115231001Y-127351286D01*
X115588144Y-127351286D01*
X115873858Y-128101286D02*
X115873858Y-127601286D01*
X115873858Y-127744143D02*
X115909573Y-127672714D01*
X115945287Y-127637000D01*
X116016716Y-127601286D01*
X116088144Y-127601286D01*
X116445287Y-128101286D02*
X116373859Y-128065571D01*
X116338144Y-128029857D01*
X116302430Y-127958429D01*
X116302430Y-127744143D01*
X116338144Y-127672714D01*
X116373859Y-127637000D01*
X116445287Y-127601286D01*
X116552430Y-127601286D01*
X116623859Y-127637000D01*
X116659573Y-127672714D01*
X116695287Y-127744143D01*
X116695287Y-127958429D01*
X116659573Y-128029857D01*
X116623859Y-128065571D01*
X116552430Y-128101286D01*
X116445287Y-128101286D01*
X117016715Y-127601286D02*
X117016715Y-128101286D01*
X117016715Y-127672714D02*
X117052430Y-127637000D01*
X117123858Y-127601286D01*
X117231001Y-127601286D01*
X117302430Y-127637000D01*
X117338144Y-127708429D01*
X117338144Y-128101286D01*
X117588144Y-127601286D02*
X117873858Y-127601286D01*
X117695286Y-127351286D02*
X117695286Y-127994143D01*
X117731001Y-128065571D01*
X117802429Y-128101286D01*
X117873858Y-128101286D01*
X118659572Y-127315571D02*
X118016715Y-128279857D01*
X118802429Y-127351286D02*
X119231000Y-127351286D01*
X119016714Y-128101286D02*
X119016714Y-127351286D01*
X119588143Y-128101286D02*
X119516715Y-128065571D01*
X119481000Y-128029857D01*
X119445286Y-127958429D01*
X119445286Y-127744143D01*
X119481000Y-127672714D01*
X119516715Y-127637000D01*
X119588143Y-127601286D01*
X119695286Y-127601286D01*
X119766715Y-127637000D01*
X119802429Y-127672714D01*
X119838143Y-127744143D01*
X119838143Y-127958429D01*
X119802429Y-128029857D01*
X119766715Y-128065571D01*
X119695286Y-128101286D01*
X119588143Y-128101286D01*
X120159571Y-127601286D02*
X120159571Y-128351286D01*
X120159571Y-127637000D02*
X120231000Y-127601286D01*
X120373857Y-127601286D01*
X120445286Y-127637000D01*
X120481000Y-127672714D01*
X120516714Y-127744143D01*
X120516714Y-127958429D01*
X120481000Y-128029857D01*
X120445286Y-128065571D01*
X120373857Y-128101286D01*
X120231000Y-128101286D01*
X120159571Y-128065571D01*
X109513714Y-126831286D02*
X109513714Y-126081286D01*
X109513714Y-126438429D02*
X109942286Y-126438429D01*
X109942286Y-126831286D02*
X109942286Y-126081286D01*
X125043429Y-126617000D02*
X125400572Y-126617000D01*
X124972001Y-126831286D02*
X125222001Y-126081286D01*
X125472001Y-126831286D01*
X125561286Y-132194857D02*
X125204143Y-132444857D01*
X125561286Y-132623429D02*
X124811286Y-132623429D01*
X124811286Y-132337714D01*
X124847000Y-132266286D01*
X124882714Y-132230571D01*
X124954143Y-132194857D01*
X125061286Y-132194857D01*
X125132714Y-132230571D01*
X125168429Y-132266286D01*
X125204143Y-132337714D01*
X125204143Y-132623429D01*
X125525571Y-131587714D02*
X125561286Y-131659143D01*
X125561286Y-131802000D01*
X125525571Y-131873429D01*
X125454143Y-131909143D01*
X125168429Y-131909143D01*
X125097000Y-131873429D01*
X125061286Y-131802000D01*
X125061286Y-131659143D01*
X125097000Y-131587714D01*
X125168429Y-131552000D01*
X125239857Y-131552000D01*
X125311286Y-131909143D01*
X125525571Y-131266286D02*
X125561286Y-131194857D01*
X125561286Y-131052000D01*
X125525571Y-130980572D01*
X125454143Y-130944857D01*
X125418429Y-130944857D01*
X125347000Y-130980572D01*
X125311286Y-131052000D01*
X125311286Y-131159143D01*
X125275571Y-131230572D01*
X125204143Y-131266286D01*
X125168429Y-131266286D01*
X125097000Y-131230572D01*
X125061286Y-131159143D01*
X125061286Y-131052000D01*
X125097000Y-130980572D01*
X125525571Y-130337714D02*
X125561286Y-130409143D01*
X125561286Y-130552000D01*
X125525571Y-130623429D01*
X125454143Y-130659143D01*
X125168429Y-130659143D01*
X125097000Y-130623429D01*
X125061286Y-130552000D01*
X125061286Y-130409143D01*
X125097000Y-130337714D01*
X125168429Y-130302000D01*
X125239857Y-130302000D01*
X125311286Y-130659143D01*
X125561286Y-129980572D02*
X125061286Y-129980572D01*
X125204143Y-129980572D02*
X125132714Y-129944857D01*
X125097000Y-129909143D01*
X125061286Y-129837714D01*
X125061286Y-129766286D01*
X125061286Y-129587714D02*
X125561286Y-129409143D01*
X125061286Y-129230571D01*
X125525571Y-128659142D02*
X125561286Y-128730571D01*
X125561286Y-128873428D01*
X125525571Y-128944857D01*
X125454143Y-128980571D01*
X125168429Y-128980571D01*
X125097000Y-128944857D01*
X125061286Y-128873428D01*
X125061286Y-128730571D01*
X125097000Y-128659142D01*
X125168429Y-128623428D01*
X125239857Y-128623428D01*
X125311286Y-128980571D01*
X125561286Y-127980571D02*
X124811286Y-127980571D01*
X125525571Y-127980571D02*
X125561286Y-128052000D01*
X125561286Y-128194857D01*
X125525571Y-128266285D01*
X125489857Y-128302000D01*
X125418429Y-128337714D01*
X125204143Y-128337714D01*
X125132714Y-128302000D01*
X125097000Y-128266285D01*
X125061286Y-128194857D01*
X125061286Y-128052000D01*
X125097000Y-127980571D01*
X123134381Y-132341809D02*
X122134381Y-132341809D01*
X123134381Y-131294190D02*
X122658190Y-131627524D01*
X123134381Y-131865619D02*
X122134381Y-131865619D01*
X122134381Y-131484666D01*
X122182000Y-131389428D01*
X122229619Y-131341809D01*
X122324857Y-131294190D01*
X122467714Y-131294190D01*
X122562952Y-131341809D01*
X122610571Y-131389428D01*
X122658190Y-131484666D01*
X122658190Y-131865619D01*
X123229619Y-130198952D02*
X123182000Y-130294190D01*
X123086762Y-130389428D01*
X122943905Y-130532285D01*
X122896286Y-130627524D01*
X122896286Y-130722762D01*
X123134381Y-130675143D02*
X123086762Y-130770381D01*
X122991524Y-130865619D01*
X122801048Y-130913238D01*
X122467714Y-130913238D01*
X122277238Y-130865619D01*
X122182000Y-130770381D01*
X122134381Y-130675143D01*
X122134381Y-130484666D01*
X122182000Y-130389428D01*
X122277238Y-130294190D01*
X122467714Y-130246571D01*
X122801048Y-130246571D01*
X122991524Y-130294190D01*
X123086762Y-130389428D01*
X123134381Y-130484666D01*
X123134381Y-130675143D01*
X121962000Y-132579904D02*
X121962000Y-130056095D01*
X120340381Y-132310000D02*
X119340381Y-132310000D01*
X119816571Y-132310000D02*
X119816571Y-131738571D01*
X120340381Y-131738571D02*
X119340381Y-131738571D01*
X120054667Y-131310000D02*
X120054667Y-130833809D01*
X120340381Y-131405238D02*
X119340381Y-131071905D01*
X120340381Y-130738571D01*
X120340381Y-129929047D02*
X120340381Y-130405238D01*
X119340381Y-130405238D01*
X119340381Y-129738571D02*
X119340381Y-129167142D01*
X120340381Y-129452857D02*
X119340381Y-129452857D01*
X119168000Y-132548095D02*
X119168000Y-129071904D01*
X117768667Y-132508476D02*
X117768667Y-132032285D01*
X118054381Y-132603714D02*
X117054381Y-132270381D01*
X118054381Y-131937047D01*
X118054381Y-131079904D02*
X118054381Y-131651333D01*
X118054381Y-131365619D02*
X117054381Y-131365619D01*
X117197238Y-131460857D01*
X117292476Y-131556095D01*
X117340095Y-131651333D01*
X117054381Y-130746571D02*
X117054381Y-130127523D01*
X117435333Y-130460857D01*
X117435333Y-130317999D01*
X117482952Y-130222761D01*
X117530571Y-130175142D01*
X117625810Y-130127523D01*
X117863905Y-130127523D01*
X117959143Y-130175142D01*
X118006762Y-130222761D01*
X118054381Y-130317999D01*
X118054381Y-130603714D01*
X118006762Y-130698952D01*
X117959143Y-130746571D01*
X115228667Y-132508476D02*
X115228667Y-132032285D01*
X115514381Y-132603714D02*
X114514381Y-132270381D01*
X115514381Y-131937047D01*
X115514381Y-131079904D02*
X115514381Y-131651333D01*
X115514381Y-131365619D02*
X114514381Y-131365619D01*
X114657238Y-131460857D01*
X114752476Y-131556095D01*
X114800095Y-131651333D01*
X114847714Y-130222761D02*
X115514381Y-130222761D01*
X114466762Y-130460857D02*
X115181048Y-130698952D01*
X115181048Y-130079904D01*
X112688667Y-132508476D02*
X112688667Y-132032285D01*
X112974381Y-132603714D02*
X111974381Y-132270381D01*
X112974381Y-131937047D01*
X112974381Y-131079904D02*
X112974381Y-131651333D01*
X112974381Y-131365619D02*
X111974381Y-131365619D01*
X112117238Y-131460857D01*
X112212476Y-131556095D01*
X112260095Y-131651333D01*
X111974381Y-130175142D02*
X111974381Y-130651333D01*
X112450571Y-130698952D01*
X112402952Y-130651333D01*
X112355333Y-130556095D01*
X112355333Y-130317999D01*
X112402952Y-130222761D01*
X112450571Y-130175142D01*
X112545810Y-130127523D01*
X112783905Y-130127523D01*
X112879143Y-130175142D01*
X112926762Y-130222761D01*
X112974381Y-130317999D01*
X112974381Y-130556095D01*
X112926762Y-130651333D01*
X112879143Y-130698952D01*
X109482000Y-131825904D02*
X109434381Y-131921142D01*
X109434381Y-132063999D01*
X109482000Y-132206857D01*
X109577238Y-132302095D01*
X109672476Y-132349714D01*
X109862952Y-132397333D01*
X110005810Y-132397333D01*
X110196286Y-132349714D01*
X110291524Y-132302095D01*
X110386762Y-132206857D01*
X110434381Y-132063999D01*
X110434381Y-131968761D01*
X110386762Y-131825904D01*
X110339143Y-131778285D01*
X110005810Y-131778285D01*
X110005810Y-131968761D01*
X110434381Y-131349714D02*
X109434381Y-131349714D01*
X110434381Y-130778285D01*
X109434381Y-130778285D01*
X110434381Y-130302095D02*
X109434381Y-130302095D01*
X109434381Y-130064000D01*
X109482000Y-129921142D01*
X109577238Y-129825904D01*
X109672476Y-129778285D01*
X109862952Y-129730666D01*
X110005810Y-129730666D01*
X110196286Y-129778285D01*
X110291524Y-129825904D01*
X110386762Y-129921142D01*
X110434381Y-130064000D01*
X110434381Y-130302095D01*
X115506667Y-35904762D02*
X115649524Y-35952381D01*
X115887620Y-35952381D01*
X115982858Y-35904762D01*
X116030477Y-35857143D01*
X116078096Y-35761905D01*
X116078096Y-35666667D01*
X116030477Y-35571429D01*
X115982858Y-35523810D01*
X115887620Y-35476190D01*
X115697143Y-35428571D01*
X115601905Y-35380952D01*
X115554286Y-35333333D01*
X115506667Y-35238095D01*
X115506667Y-35142857D01*
X115554286Y-35047619D01*
X115601905Y-35000000D01*
X115697143Y-34952381D01*
X115935239Y-34952381D01*
X116078096Y-35000000D01*
X116411429Y-34952381D02*
X116649524Y-35952381D01*
X116840001Y-35238095D01*
X117030477Y-35952381D01*
X117268572Y-34952381D01*
X118173334Y-35952381D02*
X117601905Y-35952381D01*
X117887619Y-35952381D02*
X117887619Y-34952381D01*
X117792381Y-35095238D01*
X117697143Y-35190476D01*
X117601905Y-35238095D01*
X189761905Y-23812381D02*
X189761905Y-22812381D01*
X190142858Y-22812381D01*
X190238096Y-22860000D01*
X190285715Y-22907619D01*
X190333334Y-23002857D01*
X190333334Y-23145714D01*
X190285715Y-23240952D01*
X190238096Y-23288571D01*
X190142858Y-23336190D01*
X189761905Y-23336190D01*
X190714286Y-22907619D02*
X190761905Y-22860000D01*
X190857143Y-22812381D01*
X191095239Y-22812381D01*
X191190477Y-22860000D01*
X191238096Y-22907619D01*
X191285715Y-23002857D01*
X191285715Y-23098095D01*
X191238096Y-23240952D01*
X190666667Y-23812381D01*
X191285715Y-23812381D01*
X105687905Y-37028381D02*
X105687905Y-36028381D01*
X106068858Y-36028381D01*
X106164096Y-36076000D01*
X106211715Y-36123619D01*
X106259334Y-36218857D01*
X106259334Y-36361714D01*
X106211715Y-36456952D01*
X106164096Y-36504571D01*
X106068858Y-36552190D01*
X105687905Y-36552190D01*
X107211715Y-37028381D02*
X106640286Y-37028381D01*
X106926000Y-37028381D02*
X106926000Y-36028381D01*
X106830762Y-36171238D01*
X106735524Y-36266476D01*
X106640286Y-36314095D01*
M02*
