G04 #@! TF.FileFunction,Copper,L1,Top,Signal*
%FSLAX46Y46*%
G04 Gerber Fmt 4.6, Leading zero omitted, Abs format (unit mm)*
G04 Created by KiCad (PCBNEW 4.0.2+dfsg1-stable) date mar 15 gen 2019 12:05:05 CET*
%MOMM*%
G01*
G04 APERTURE LIST*
%ADD10C,0.100000*%
%ADD11C,0.381000*%
%ADD12R,1.930400X5.588000*%
%ADD13R,2.032000X1.727200*%
%ADD14O,2.032000X1.727200*%
%ADD15C,1.524000*%
%ADD16R,1.524000X1.524000*%
%ADD17R,1.600200X2.999740*%
%ADD18R,2.000000X1.600000*%
%ADD19R,1.600000X2.000000*%
%ADD20R,1.597660X1.800860*%
%ADD21R,1.800860X1.597660*%
%ADD22R,1.727200X2.032000*%
%ADD23O,1.727200X2.032000*%
%ADD24R,2.598420X1.198880*%
%ADD25R,2.600960X1.198880*%
%ADD26C,4.064000*%
%ADD27R,2.000000X1.700000*%
%ADD28R,1.700000X2.000000*%
%ADD29R,2.180000X1.600000*%
%ADD30R,1.500000X0.450000*%
%ADD31R,0.400000X1.000000*%
%ADD32R,0.450000X1.450000*%
%ADD33R,0.400000X1.200000*%
%ADD34R,0.450000X1.400000*%
%ADD35R,1.399540X1.800860*%
%ADD36R,2.032000X3.657600*%
%ADD37R,2.032000X1.016000*%
%ADD38R,2.235200X2.235200*%
%ADD39R,2.032000X2.032000*%
%ADD40O,2.032000X2.032000*%
%ADD41R,1.200000X0.400000*%
%ADD42C,0.800000*%
%ADD43C,0.400000*%
%ADD44C,0.350000*%
%ADD45C,0.250000*%
%ADD46C,0.249800*%
%ADD47C,0.500000*%
%ADD48C,0.399800*%
G04 APERTURE END LIST*
D10*
D11*
X105986580Y-76499720D02*
X105986580Y-78099920D01*
X105986580Y-78099920D02*
X107185460Y-78099920D01*
X103487220Y-78099920D02*
X103487220Y-76598780D01*
X103487220Y-76598780D02*
X104386380Y-76598780D01*
X104386380Y-76598780D02*
X104587040Y-76598780D01*
X104587040Y-76598780D02*
X104785160Y-76700380D01*
X104785160Y-76700380D02*
X104886760Y-76901040D01*
X104886760Y-76901040D02*
X104886760Y-77099160D01*
X104886760Y-77099160D02*
X104686100Y-77299820D01*
X104686100Y-77299820D02*
X104386380Y-77398880D01*
X104386380Y-77398880D02*
X103487220Y-77398880D01*
X102285800Y-76700380D02*
X102085140Y-76598780D01*
X102085140Y-76598780D02*
X101584760Y-76598780D01*
X101584760Y-76598780D02*
X101285040Y-76700380D01*
X101285040Y-76700380D02*
X101086920Y-76799440D01*
X101086920Y-76799440D02*
X100886260Y-77099160D01*
X100886260Y-77099160D02*
X100886260Y-77398880D01*
X100886260Y-77398880D02*
X100985320Y-77800200D01*
X100985320Y-77800200D02*
X101285040Y-78000860D01*
X101285040Y-78000860D02*
X101584760Y-78099920D01*
X101584760Y-78099920D02*
X101887020Y-78099920D01*
X101887020Y-78099920D02*
X102384860Y-78000860D01*
X102384860Y-78000860D02*
X102384860Y-77500480D01*
X102384860Y-77500480D02*
X101887020Y-77500480D01*
X105686860Y-74000360D02*
X105686860Y-75300840D01*
X105686860Y-75300840D02*
X105986580Y-75498960D01*
X105986580Y-75498960D02*
X106286300Y-75498960D01*
X106286300Y-75498960D02*
X106685080Y-75498960D01*
X106685080Y-75498960D02*
X106984800Y-75399900D01*
X106984800Y-75399900D02*
X107185460Y-75300840D01*
X107185460Y-75300840D02*
X107185460Y-74000360D01*
X103085900Y-75498960D02*
X103085900Y-74000360D01*
X103085900Y-74000360D02*
X104587040Y-75498960D01*
X104587040Y-75498960D02*
X104587040Y-74000360D01*
X101887020Y-74099420D02*
X101584760Y-74000360D01*
X101584760Y-74000360D02*
X101086920Y-74099420D01*
X101086920Y-74099420D02*
X100685600Y-74300080D01*
X100685600Y-74300080D02*
X100484940Y-74698860D01*
X100484940Y-74698860D02*
X100586540Y-75100180D01*
X100586540Y-75100180D02*
X100886260Y-75399900D01*
X100886260Y-75399900D02*
X101386640Y-75600560D01*
X101386640Y-75600560D02*
X102085140Y-75399900D01*
X102085140Y-75399900D02*
X102085140Y-74899520D01*
X102085140Y-74899520D02*
X101584760Y-74899520D01*
X99822000Y-73152000D02*
X107950000Y-73152000D01*
X107950000Y-73152000D02*
X107950000Y-78740000D01*
X107950000Y-78740000D02*
X99822000Y-78740000D01*
X99822000Y-78740000D02*
X99822000Y-73152000D01*
D12*
X184912000Y-135890000D03*
X182372000Y-135890000D03*
X179832000Y-135890000D03*
X177292000Y-135890000D03*
X174752000Y-135890000D03*
X172212000Y-135890000D03*
X169672000Y-135890000D03*
X167132000Y-135890000D03*
X164592000Y-135890000D03*
X162052000Y-135890000D03*
X159512000Y-135890000D03*
X156972000Y-135890000D03*
X154432000Y-135890000D03*
X151892000Y-135890000D03*
X149352000Y-135890000D03*
D13*
X96520000Y-66040000D03*
D14*
X96520000Y-63500000D03*
X96520000Y-60960000D03*
X96520000Y-58420000D03*
D15*
X110490000Y-110604300D03*
X110490000Y-115455700D03*
X113030000Y-110604300D03*
X113030000Y-115455700D03*
X115570000Y-110604300D03*
X115570000Y-115455700D03*
X118110000Y-110604300D03*
X118110000Y-115455700D03*
X120650000Y-110604300D03*
X120650000Y-115455700D03*
X123190000Y-110604300D03*
X123190000Y-115455700D03*
D16*
X125730000Y-110604300D03*
D15*
X125730000Y-115455700D03*
D17*
X214630000Y-104480360D03*
X214630000Y-108879640D03*
X186690000Y-100670360D03*
X186690000Y-105069640D03*
D18*
X119920000Y-76200000D03*
X123920000Y-76200000D03*
X119920000Y-91440000D03*
X123920000Y-91440000D03*
X133890000Y-96520000D03*
X137890000Y-96520000D03*
D19*
X148590000Y-85820000D03*
X148590000Y-81820000D03*
D18*
X137890000Y-64770000D03*
X133890000Y-64770000D03*
D19*
X107950000Y-85820000D03*
X107950000Y-81820000D03*
D18*
X196310000Y-54610000D03*
X192310000Y-54610000D03*
X196310000Y-76200000D03*
X192310000Y-76200000D03*
X169640000Y-54610000D03*
X165640000Y-54610000D03*
X169640000Y-76200000D03*
X165640000Y-76200000D03*
D20*
X195729860Y-114300000D03*
X192890140Y-114300000D03*
X208429860Y-100330000D03*
X205590140Y-100330000D03*
D21*
X114300000Y-86210140D03*
X114300000Y-89049860D03*
D13*
X109220000Y-64770000D03*
D14*
X109220000Y-62230000D03*
X109220000Y-59690000D03*
D22*
X133350000Y-71120000D03*
D23*
X135890000Y-71120000D03*
X138430000Y-71120000D03*
D24*
X213121240Y-114300000D03*
D25*
X208518760Y-114300000D03*
D24*
X197088760Y-100330000D03*
D25*
X201691240Y-100330000D03*
D15*
X129540000Y-97790000D03*
D26*
X88900000Y-115570000D03*
X88900000Y-53340000D03*
X217170000Y-53340000D03*
X217170000Y-115570000D03*
D27*
X203930000Y-114300000D03*
X199930000Y-114300000D03*
X216630000Y-100330000D03*
X212630000Y-100330000D03*
X99790000Y-53340000D03*
X95790000Y-53340000D03*
X152940000Y-101600000D03*
X156940000Y-101600000D03*
D28*
X114300000Y-78010000D03*
X114300000Y-82010000D03*
X102870000Y-56420000D03*
X102870000Y-60420000D03*
X102870000Y-69310000D03*
X102870000Y-65310000D03*
D29*
X88107570Y-73657680D03*
X97312430Y-73662320D03*
D10*
G36*
X128307676Y-85530800D02*
X128130899Y-85354023D01*
X128838006Y-84646916D01*
X129014783Y-84823693D01*
X128307676Y-85530800D01*
X128307676Y-85530800D01*
G37*
G36*
X128661229Y-85884354D02*
X128484452Y-85707577D01*
X129191559Y-85000470D01*
X129368336Y-85177247D01*
X128661229Y-85884354D01*
X128661229Y-85884354D01*
G37*
G36*
X129014783Y-86237907D02*
X128838006Y-86061130D01*
X129545113Y-85354023D01*
X129721890Y-85530800D01*
X129014783Y-86237907D01*
X129014783Y-86237907D01*
G37*
G36*
X129368336Y-86591460D02*
X129191559Y-86414683D01*
X129898666Y-85707576D01*
X130075443Y-85884353D01*
X129368336Y-86591460D01*
X129368336Y-86591460D01*
G37*
G36*
X129721889Y-86945014D02*
X129545112Y-86768237D01*
X130252219Y-86061130D01*
X130428996Y-86237907D01*
X129721889Y-86945014D01*
X129721889Y-86945014D01*
G37*
G36*
X130075443Y-87298567D02*
X129898666Y-87121790D01*
X130605773Y-86414683D01*
X130782550Y-86591460D01*
X130075443Y-87298567D01*
X130075443Y-87298567D01*
G37*
G36*
X130428996Y-87652121D02*
X130252219Y-87475344D01*
X130959326Y-86768237D01*
X131136103Y-86945014D01*
X130428996Y-87652121D01*
X130428996Y-87652121D01*
G37*
G36*
X130782550Y-88005674D02*
X130605773Y-87828897D01*
X131312880Y-87121790D01*
X131489657Y-87298567D01*
X130782550Y-88005674D01*
X130782550Y-88005674D01*
G37*
G36*
X131136103Y-88359227D02*
X130959326Y-88182450D01*
X131666433Y-87475343D01*
X131843210Y-87652120D01*
X131136103Y-88359227D01*
X131136103Y-88359227D01*
G37*
G36*
X131489656Y-88712781D02*
X131312879Y-88536004D01*
X132019986Y-87828897D01*
X132196763Y-88005674D01*
X131489656Y-88712781D01*
X131489656Y-88712781D01*
G37*
G36*
X131843210Y-89066334D02*
X131666433Y-88889557D01*
X132373540Y-88182450D01*
X132550317Y-88359227D01*
X131843210Y-89066334D01*
X131843210Y-89066334D01*
G37*
G36*
X132196763Y-89419888D02*
X132019986Y-89243111D01*
X132727093Y-88536004D01*
X132903870Y-88712781D01*
X132196763Y-89419888D01*
X132196763Y-89419888D01*
G37*
G36*
X132550317Y-89773441D02*
X132373540Y-89596664D01*
X133080647Y-88889557D01*
X133257424Y-89066334D01*
X132550317Y-89773441D01*
X132550317Y-89773441D01*
G37*
G36*
X132903870Y-90126994D02*
X132727093Y-89950217D01*
X133434200Y-89243110D01*
X133610977Y-89419887D01*
X132903870Y-90126994D01*
X132903870Y-90126994D01*
G37*
G36*
X133257423Y-90480548D02*
X133080646Y-90303771D01*
X133787753Y-89596664D01*
X133964530Y-89773441D01*
X133257423Y-90480548D01*
X133257423Y-90480548D01*
G37*
G36*
X133610977Y-90834101D02*
X133434200Y-90657324D01*
X134141307Y-89950217D01*
X134318084Y-90126994D01*
X133610977Y-90834101D01*
X133610977Y-90834101D01*
G37*
G36*
X137075800Y-90657324D02*
X136899023Y-90834101D01*
X136191916Y-90126994D01*
X136368693Y-89950217D01*
X137075800Y-90657324D01*
X137075800Y-90657324D01*
G37*
G36*
X137429354Y-90303771D02*
X137252577Y-90480548D01*
X136545470Y-89773441D01*
X136722247Y-89596664D01*
X137429354Y-90303771D01*
X137429354Y-90303771D01*
G37*
G36*
X137782907Y-89950217D02*
X137606130Y-90126994D01*
X136899023Y-89419887D01*
X137075800Y-89243110D01*
X137782907Y-89950217D01*
X137782907Y-89950217D01*
G37*
G36*
X138136460Y-89596664D02*
X137959683Y-89773441D01*
X137252576Y-89066334D01*
X137429353Y-88889557D01*
X138136460Y-89596664D01*
X138136460Y-89596664D01*
G37*
G36*
X138490014Y-89243111D02*
X138313237Y-89419888D01*
X137606130Y-88712781D01*
X137782907Y-88536004D01*
X138490014Y-89243111D01*
X138490014Y-89243111D01*
G37*
G36*
X138843567Y-88889557D02*
X138666790Y-89066334D01*
X137959683Y-88359227D01*
X138136460Y-88182450D01*
X138843567Y-88889557D01*
X138843567Y-88889557D01*
G37*
G36*
X139197121Y-88536004D02*
X139020344Y-88712781D01*
X138313237Y-88005674D01*
X138490014Y-87828897D01*
X139197121Y-88536004D01*
X139197121Y-88536004D01*
G37*
G36*
X139550674Y-88182450D02*
X139373897Y-88359227D01*
X138666790Y-87652120D01*
X138843567Y-87475343D01*
X139550674Y-88182450D01*
X139550674Y-88182450D01*
G37*
G36*
X139904227Y-87828897D02*
X139727450Y-88005674D01*
X139020343Y-87298567D01*
X139197120Y-87121790D01*
X139904227Y-87828897D01*
X139904227Y-87828897D01*
G37*
G36*
X140257781Y-87475344D02*
X140081004Y-87652121D01*
X139373897Y-86945014D01*
X139550674Y-86768237D01*
X140257781Y-87475344D01*
X140257781Y-87475344D01*
G37*
G36*
X140611334Y-87121790D02*
X140434557Y-87298567D01*
X139727450Y-86591460D01*
X139904227Y-86414683D01*
X140611334Y-87121790D01*
X140611334Y-87121790D01*
G37*
G36*
X140964888Y-86768237D02*
X140788111Y-86945014D01*
X140081004Y-86237907D01*
X140257781Y-86061130D01*
X140964888Y-86768237D01*
X140964888Y-86768237D01*
G37*
G36*
X141318441Y-86414683D02*
X141141664Y-86591460D01*
X140434557Y-85884353D01*
X140611334Y-85707576D01*
X141318441Y-86414683D01*
X141318441Y-86414683D01*
G37*
G36*
X141671994Y-86061130D02*
X141495217Y-86237907D01*
X140788110Y-85530800D01*
X140964887Y-85354023D01*
X141671994Y-86061130D01*
X141671994Y-86061130D01*
G37*
G36*
X142025548Y-85707577D02*
X141848771Y-85884354D01*
X141141664Y-85177247D01*
X141318441Y-85000470D01*
X142025548Y-85707577D01*
X142025548Y-85707577D01*
G37*
G36*
X142379101Y-85354023D02*
X142202324Y-85530800D01*
X141495217Y-84823693D01*
X141671994Y-84646916D01*
X142379101Y-85354023D01*
X142379101Y-85354023D01*
G37*
G36*
X141671994Y-82773084D02*
X141495217Y-82596307D01*
X142202324Y-81889200D01*
X142379101Y-82065977D01*
X141671994Y-82773084D01*
X141671994Y-82773084D01*
G37*
G36*
X141318441Y-82419530D02*
X141141664Y-82242753D01*
X141848771Y-81535646D01*
X142025548Y-81712423D01*
X141318441Y-82419530D01*
X141318441Y-82419530D01*
G37*
G36*
X140964887Y-82065977D02*
X140788110Y-81889200D01*
X141495217Y-81182093D01*
X141671994Y-81358870D01*
X140964887Y-82065977D01*
X140964887Y-82065977D01*
G37*
G36*
X140611334Y-81712424D02*
X140434557Y-81535647D01*
X141141664Y-80828540D01*
X141318441Y-81005317D01*
X140611334Y-81712424D01*
X140611334Y-81712424D01*
G37*
G36*
X140257781Y-81358870D02*
X140081004Y-81182093D01*
X140788111Y-80474986D01*
X140964888Y-80651763D01*
X140257781Y-81358870D01*
X140257781Y-81358870D01*
G37*
G36*
X139904227Y-81005317D02*
X139727450Y-80828540D01*
X140434557Y-80121433D01*
X140611334Y-80298210D01*
X139904227Y-81005317D01*
X139904227Y-81005317D01*
G37*
G36*
X139550674Y-80651763D02*
X139373897Y-80474986D01*
X140081004Y-79767879D01*
X140257781Y-79944656D01*
X139550674Y-80651763D01*
X139550674Y-80651763D01*
G37*
G36*
X139197120Y-80298210D02*
X139020343Y-80121433D01*
X139727450Y-79414326D01*
X139904227Y-79591103D01*
X139197120Y-80298210D01*
X139197120Y-80298210D01*
G37*
G36*
X138843567Y-79944657D02*
X138666790Y-79767880D01*
X139373897Y-79060773D01*
X139550674Y-79237550D01*
X138843567Y-79944657D01*
X138843567Y-79944657D01*
G37*
G36*
X138490014Y-79591103D02*
X138313237Y-79414326D01*
X139020344Y-78707219D01*
X139197121Y-78883996D01*
X138490014Y-79591103D01*
X138490014Y-79591103D01*
G37*
G36*
X138136460Y-79237550D02*
X137959683Y-79060773D01*
X138666790Y-78353666D01*
X138843567Y-78530443D01*
X138136460Y-79237550D01*
X138136460Y-79237550D01*
G37*
G36*
X137782907Y-78883996D02*
X137606130Y-78707219D01*
X138313237Y-78000112D01*
X138490014Y-78176889D01*
X137782907Y-78883996D01*
X137782907Y-78883996D01*
G37*
G36*
X137429353Y-78530443D02*
X137252576Y-78353666D01*
X137959683Y-77646559D01*
X138136460Y-77823336D01*
X137429353Y-78530443D01*
X137429353Y-78530443D01*
G37*
G36*
X137075800Y-78176890D02*
X136899023Y-78000113D01*
X137606130Y-77293006D01*
X137782907Y-77469783D01*
X137075800Y-78176890D01*
X137075800Y-78176890D01*
G37*
G36*
X136722247Y-77823336D02*
X136545470Y-77646559D01*
X137252577Y-76939452D01*
X137429354Y-77116229D01*
X136722247Y-77823336D01*
X136722247Y-77823336D01*
G37*
G36*
X136368693Y-77469783D02*
X136191916Y-77293006D01*
X136899023Y-76585899D01*
X137075800Y-76762676D01*
X136368693Y-77469783D01*
X136368693Y-77469783D01*
G37*
G36*
X134318084Y-77293006D02*
X134141307Y-77469783D01*
X133434200Y-76762676D01*
X133610977Y-76585899D01*
X134318084Y-77293006D01*
X134318084Y-77293006D01*
G37*
G36*
X133964530Y-77646559D02*
X133787753Y-77823336D01*
X133080646Y-77116229D01*
X133257423Y-76939452D01*
X133964530Y-77646559D01*
X133964530Y-77646559D01*
G37*
G36*
X133610977Y-78000113D02*
X133434200Y-78176890D01*
X132727093Y-77469783D01*
X132903870Y-77293006D01*
X133610977Y-78000113D01*
X133610977Y-78000113D01*
G37*
G36*
X133257424Y-78353666D02*
X133080647Y-78530443D01*
X132373540Y-77823336D01*
X132550317Y-77646559D01*
X133257424Y-78353666D01*
X133257424Y-78353666D01*
G37*
G36*
X132903870Y-78707219D02*
X132727093Y-78883996D01*
X132019986Y-78176889D01*
X132196763Y-78000112D01*
X132903870Y-78707219D01*
X132903870Y-78707219D01*
G37*
G36*
X132550317Y-79060773D02*
X132373540Y-79237550D01*
X131666433Y-78530443D01*
X131843210Y-78353666D01*
X132550317Y-79060773D01*
X132550317Y-79060773D01*
G37*
G36*
X132196763Y-79414326D02*
X132019986Y-79591103D01*
X131312879Y-78883996D01*
X131489656Y-78707219D01*
X132196763Y-79414326D01*
X132196763Y-79414326D01*
G37*
G36*
X131843210Y-79767880D02*
X131666433Y-79944657D01*
X130959326Y-79237550D01*
X131136103Y-79060773D01*
X131843210Y-79767880D01*
X131843210Y-79767880D01*
G37*
G36*
X131489657Y-80121433D02*
X131312880Y-80298210D01*
X130605773Y-79591103D01*
X130782550Y-79414326D01*
X131489657Y-80121433D01*
X131489657Y-80121433D01*
G37*
G36*
X131136103Y-80474986D02*
X130959326Y-80651763D01*
X130252219Y-79944656D01*
X130428996Y-79767879D01*
X131136103Y-80474986D01*
X131136103Y-80474986D01*
G37*
G36*
X130782550Y-80828540D02*
X130605773Y-81005317D01*
X129898666Y-80298210D01*
X130075443Y-80121433D01*
X130782550Y-80828540D01*
X130782550Y-80828540D01*
G37*
G36*
X130428996Y-81182093D02*
X130252219Y-81358870D01*
X129545112Y-80651763D01*
X129721889Y-80474986D01*
X130428996Y-81182093D01*
X130428996Y-81182093D01*
G37*
G36*
X130075443Y-81535647D02*
X129898666Y-81712424D01*
X129191559Y-81005317D01*
X129368336Y-80828540D01*
X130075443Y-81535647D01*
X130075443Y-81535647D01*
G37*
G36*
X129721890Y-81889200D02*
X129545113Y-82065977D01*
X128838006Y-81358870D01*
X129014783Y-81182093D01*
X129721890Y-81889200D01*
X129721890Y-81889200D01*
G37*
G36*
X129368336Y-82242753D02*
X129191559Y-82419530D01*
X128484452Y-81712423D01*
X128661229Y-81535646D01*
X129368336Y-82242753D01*
X129368336Y-82242753D01*
G37*
G36*
X129014783Y-82596307D02*
X128838006Y-82773084D01*
X128130899Y-82065977D01*
X128307676Y-81889200D01*
X129014783Y-82596307D01*
X129014783Y-82596307D01*
G37*
D30*
X155800000Y-63765000D03*
X155800000Y-64415000D03*
X155800000Y-65065000D03*
X155800000Y-65715000D03*
X155800000Y-66365000D03*
X155800000Y-67015000D03*
X155800000Y-67665000D03*
X155800000Y-68315000D03*
X161700000Y-68315000D03*
X161700000Y-67665000D03*
X161700000Y-67015000D03*
X161700000Y-66365000D03*
X161700000Y-65715000D03*
X161700000Y-65065000D03*
X161700000Y-64415000D03*
X161700000Y-63765000D03*
D31*
X98175000Y-97430000D03*
X97525000Y-97430000D03*
X96875000Y-97430000D03*
X96225000Y-97430000D03*
X95575000Y-97430000D03*
X94925000Y-97430000D03*
X94275000Y-97430000D03*
X93625000Y-97430000D03*
X92975000Y-97430000D03*
X92325000Y-97430000D03*
X92325000Y-103230000D03*
X92975000Y-103230000D03*
X93625000Y-103230000D03*
X94275000Y-103230000D03*
X94925000Y-103230000D03*
X95575000Y-103230000D03*
X96225000Y-103230000D03*
X96875000Y-103230000D03*
X97525000Y-103230000D03*
X98175000Y-103230000D03*
X141355000Y-107590000D03*
X140705000Y-107590000D03*
X140055000Y-107590000D03*
X139405000Y-107590000D03*
X138755000Y-107590000D03*
X138105000Y-107590000D03*
X137455000Y-107590000D03*
X136805000Y-107590000D03*
X136155000Y-107590000D03*
X135505000Y-107590000D03*
X135505000Y-113390000D03*
X136155000Y-113390000D03*
X136805000Y-113390000D03*
X137455000Y-113390000D03*
X138105000Y-113390000D03*
X138755000Y-113390000D03*
X139405000Y-113390000D03*
X140055000Y-113390000D03*
X140705000Y-113390000D03*
X141355000Y-113390000D03*
X122305000Y-97430000D03*
X121655000Y-97430000D03*
X121005000Y-97430000D03*
X120355000Y-97430000D03*
X119705000Y-97430000D03*
X119055000Y-97430000D03*
X118405000Y-97430000D03*
X117755000Y-97430000D03*
X117105000Y-97430000D03*
X116455000Y-97430000D03*
X116455000Y-103230000D03*
X117105000Y-103230000D03*
X117755000Y-103230000D03*
X118405000Y-103230000D03*
X119055000Y-103230000D03*
X119705000Y-103230000D03*
X120355000Y-103230000D03*
X121005000Y-103230000D03*
X121655000Y-103230000D03*
X122305000Y-103230000D03*
D32*
X148000000Y-96110000D03*
X147350000Y-96110000D03*
X146700000Y-96110000D03*
X146050000Y-96110000D03*
X145400000Y-96110000D03*
X144750000Y-96110000D03*
X144100000Y-96110000D03*
X144100000Y-102010000D03*
X144750000Y-102010000D03*
X145400000Y-102010000D03*
X146050000Y-102010000D03*
X146700000Y-102010000D03*
X147350000Y-102010000D03*
X148000000Y-102010000D03*
D31*
X110875000Y-97430000D03*
X110225000Y-97430000D03*
X109575000Y-97430000D03*
X108925000Y-97430000D03*
X108275000Y-97430000D03*
X107625000Y-97430000D03*
X106975000Y-97430000D03*
X106325000Y-97430000D03*
X105675000Y-97430000D03*
X105025000Y-97430000D03*
X105025000Y-103230000D03*
X105675000Y-103230000D03*
X106325000Y-103230000D03*
X106975000Y-103230000D03*
X107625000Y-103230000D03*
X108275000Y-103230000D03*
X108925000Y-103230000D03*
X109575000Y-103230000D03*
X110225000Y-103230000D03*
X110875000Y-103230000D03*
D33*
X160700000Y-82910000D03*
X160050000Y-82910000D03*
X159400000Y-82910000D03*
X158750000Y-82910000D03*
X158100000Y-82910000D03*
X157450000Y-82910000D03*
X156800000Y-82910000D03*
X156800000Y-89810000D03*
X157450000Y-89810000D03*
X158100000Y-89810000D03*
X158750000Y-89810000D03*
X159400000Y-89810000D03*
X160050000Y-89810000D03*
X160700000Y-89810000D03*
D31*
X168025000Y-98700000D03*
X167375000Y-98700000D03*
X166725000Y-98700000D03*
X166075000Y-98700000D03*
X165425000Y-98700000D03*
X164775000Y-98700000D03*
X164125000Y-98700000D03*
X163475000Y-98700000D03*
X162825000Y-98700000D03*
X162175000Y-98700000D03*
X162175000Y-104500000D03*
X162825000Y-104500000D03*
X163475000Y-104500000D03*
X164125000Y-104500000D03*
X164775000Y-104500000D03*
X165425000Y-104500000D03*
X166075000Y-104500000D03*
X166725000Y-104500000D03*
X167375000Y-104500000D03*
X168025000Y-104500000D03*
D34*
X196215000Y-59670000D03*
X196215000Y-72410000D03*
X197485000Y-59670000D03*
X197485000Y-72410000D03*
X198755000Y-59670000D03*
X198755000Y-72410000D03*
X200025000Y-59670000D03*
X200025000Y-72410000D03*
X201295000Y-59670000D03*
X201295000Y-72410000D03*
X202565000Y-59670000D03*
X202565000Y-72410000D03*
X203835000Y-59670000D03*
X203835000Y-72410000D03*
X205105000Y-59670000D03*
X205105000Y-72410000D03*
X206375000Y-59670000D03*
X206375000Y-72410000D03*
X207645000Y-59670000D03*
X207645000Y-72410000D03*
X208915000Y-59670000D03*
X208915000Y-72410000D03*
X210185000Y-59670000D03*
X210185000Y-72410000D03*
X211455000Y-59670000D03*
X211455000Y-72410000D03*
X212725000Y-59670000D03*
X212725000Y-72410000D03*
X213995000Y-59670000D03*
X213995000Y-72410000D03*
X215265000Y-59670000D03*
X215265000Y-72410000D03*
X196215000Y-81260000D03*
X196215000Y-94000000D03*
X197485000Y-81260000D03*
X197485000Y-94000000D03*
X198755000Y-81260000D03*
X198755000Y-94000000D03*
X200025000Y-81260000D03*
X200025000Y-94000000D03*
X201295000Y-81260000D03*
X201295000Y-94000000D03*
X202565000Y-81260000D03*
X202565000Y-94000000D03*
X203835000Y-81260000D03*
X203835000Y-94000000D03*
X205105000Y-81260000D03*
X205105000Y-94000000D03*
X206375000Y-81260000D03*
X206375000Y-94000000D03*
X207645000Y-81260000D03*
X207645000Y-94000000D03*
X208915000Y-81260000D03*
X208915000Y-94000000D03*
X210185000Y-81260000D03*
X210185000Y-94000000D03*
X211455000Y-81260000D03*
X211455000Y-94000000D03*
X212725000Y-81260000D03*
X212725000Y-94000000D03*
X213995000Y-81260000D03*
X213995000Y-94000000D03*
X215265000Y-81260000D03*
X215265000Y-94000000D03*
X169545000Y-59670000D03*
X169545000Y-72410000D03*
X170815000Y-59670000D03*
X170815000Y-72410000D03*
X172085000Y-59670000D03*
X172085000Y-72410000D03*
X173355000Y-59670000D03*
X173355000Y-72410000D03*
X174625000Y-59670000D03*
X174625000Y-72410000D03*
X175895000Y-59670000D03*
X175895000Y-72410000D03*
X177165000Y-59670000D03*
X177165000Y-72410000D03*
X178435000Y-59670000D03*
X178435000Y-72410000D03*
X179705000Y-59670000D03*
X179705000Y-72410000D03*
X180975000Y-59670000D03*
X180975000Y-72410000D03*
X182245000Y-59670000D03*
X182245000Y-72410000D03*
X183515000Y-59670000D03*
X183515000Y-72410000D03*
X184785000Y-59670000D03*
X184785000Y-72410000D03*
X186055000Y-59670000D03*
X186055000Y-72410000D03*
X187325000Y-59670000D03*
X187325000Y-72410000D03*
X188595000Y-59670000D03*
X188595000Y-72410000D03*
X169545000Y-81260000D03*
X169545000Y-94000000D03*
X170815000Y-81260000D03*
X170815000Y-94000000D03*
X172085000Y-81260000D03*
X172085000Y-94000000D03*
X173355000Y-81260000D03*
X173355000Y-94000000D03*
X174625000Y-81260000D03*
X174625000Y-94000000D03*
X175895000Y-81260000D03*
X175895000Y-94000000D03*
X177165000Y-81260000D03*
X177165000Y-94000000D03*
X178435000Y-81260000D03*
X178435000Y-94000000D03*
X179705000Y-81260000D03*
X179705000Y-94000000D03*
X180975000Y-81260000D03*
X180975000Y-94000000D03*
X182245000Y-81260000D03*
X182245000Y-94000000D03*
X183515000Y-81260000D03*
X183515000Y-94000000D03*
X184785000Y-81260000D03*
X184785000Y-94000000D03*
X186055000Y-81260000D03*
X186055000Y-94000000D03*
X187325000Y-81260000D03*
X187325000Y-94000000D03*
X188595000Y-81260000D03*
X188595000Y-94000000D03*
D35*
X120721120Y-81620360D03*
X120721120Y-86019640D03*
X123118880Y-86019640D03*
X123118880Y-81620360D03*
D36*
X201168000Y-106680000D03*
D37*
X207772000Y-106680000D03*
X207772000Y-104394000D03*
X207772000Y-108966000D03*
D17*
X195580000Y-104480360D03*
X195580000Y-108879640D03*
D22*
X143510000Y-62230000D03*
D23*
X146050000Y-62230000D03*
X148590000Y-62230000D03*
X151130000Y-62230000D03*
D15*
X149860000Y-110604300D03*
X149860000Y-115455700D03*
X152400000Y-110604300D03*
X152400000Y-115455700D03*
X154940000Y-110604300D03*
X154940000Y-115455700D03*
X157480000Y-110604300D03*
X157480000Y-115455700D03*
X160020000Y-110604300D03*
X160020000Y-115455700D03*
X162560000Y-110604300D03*
X162560000Y-115455700D03*
X165100000Y-110604300D03*
X165100000Y-115455700D03*
X167640000Y-110604300D03*
X167640000Y-115455700D03*
X170180000Y-110604300D03*
X170180000Y-115455700D03*
X172720000Y-110604300D03*
X172720000Y-115455700D03*
X175260000Y-110604300D03*
X175260000Y-115455700D03*
X177800000Y-110604300D03*
X177800000Y-115455700D03*
X180340000Y-110604300D03*
X180340000Y-115455700D03*
X182880000Y-110604300D03*
X182880000Y-115455700D03*
D16*
X185420000Y-110604300D03*
D15*
X185420000Y-115455700D03*
D38*
X91440000Y-81280000D03*
D39*
X146050000Y-71120000D03*
D40*
X148590000Y-71120000D03*
D12*
X125222000Y-135890000D03*
X122682000Y-135890000D03*
X120142000Y-135890000D03*
X117602000Y-135890000D03*
X115062000Y-135890000D03*
X112522000Y-135890000D03*
X109982000Y-135890000D03*
D28*
X173990000Y-99600000D03*
X173990000Y-103600000D03*
X180340000Y-103600000D03*
X180340000Y-99600000D03*
D27*
X95980000Y-90170000D03*
X91980000Y-90170000D03*
X104870000Y-90170000D03*
X100870000Y-90170000D03*
X108490000Y-92710000D03*
X112490000Y-92710000D03*
X93250000Y-107950000D03*
X97250000Y-107950000D03*
X98520000Y-113030000D03*
X94520000Y-113030000D03*
X127540000Y-104140000D03*
X131540000Y-104140000D03*
D28*
X165100000Y-90710000D03*
X165100000Y-94710000D03*
D27*
X162020000Y-76200000D03*
X158020000Y-76200000D03*
D28*
X152400000Y-80740000D03*
X152400000Y-76740000D03*
D41*
X121560000Y-70530000D03*
X121560000Y-69880000D03*
X121560000Y-69230000D03*
X121560000Y-68580000D03*
X121560000Y-67930000D03*
X121560000Y-67280000D03*
X121560000Y-66630000D03*
X114660000Y-66630000D03*
X114660000Y-67280000D03*
X114660000Y-67930000D03*
X114660000Y-68580000D03*
X114660000Y-69230000D03*
X114660000Y-69880000D03*
X114660000Y-70530000D03*
X155300000Y-53930000D03*
X155300000Y-54580000D03*
X155300000Y-55230000D03*
X155300000Y-55880000D03*
X155300000Y-56530000D03*
X155300000Y-57180000D03*
X155300000Y-57830000D03*
X162200000Y-57830000D03*
X162200000Y-57180000D03*
X162200000Y-56530000D03*
X162200000Y-55880000D03*
X162200000Y-55230000D03*
X162200000Y-54580000D03*
X162200000Y-53930000D03*
D42*
X126443500Y-106310400D03*
X141141300Y-112286800D03*
X101763100Y-102354700D03*
X105926300Y-104367600D03*
X149280200Y-121940000D03*
D43*
X140385800Y-75361800D03*
X141757400Y-74853800D03*
X148615400Y-68859400D03*
D42*
X114639000Y-103043300D03*
X181963000Y-112112300D03*
X181699600Y-108621800D03*
D43*
X196399200Y-74985500D03*
X194891800Y-80611500D03*
X195209400Y-59572400D03*
X135492000Y-104257600D03*
X136378200Y-96479800D03*
X102728700Y-96604700D03*
X104195900Y-96511100D03*
X135163100Y-91520700D03*
X188262000Y-99405300D03*
X184386900Y-103280400D03*
X136378300Y-88659900D03*
X138915100Y-82006700D03*
X147900200Y-103140800D03*
X145126700Y-106279600D03*
X106666900Y-81820000D03*
X170387200Y-108908400D03*
X177607200Y-118900700D03*
X149268600Y-120251000D03*
X142717900Y-114607400D03*
X166075000Y-103577700D03*
X176104300Y-114579500D03*
X168600800Y-118509600D03*
X166774000Y-103574300D03*
X168372300Y-105406100D03*
D42*
X187803000Y-111322300D03*
X130567600Y-62230000D03*
D43*
X93074900Y-104135500D03*
X179832000Y-132658800D03*
X177292000Y-132663300D03*
X174752000Y-132646200D03*
X172212000Y-132645800D03*
X169672000Y-132693800D03*
X139430500Y-116663500D03*
X125561900Y-104403000D03*
X167132000Y-132680700D03*
X138590900Y-109854300D03*
X150580700Y-114348200D03*
X164592000Y-132673700D03*
X163658300Y-110047400D03*
X162756500Y-109440900D03*
X161715800Y-107900700D03*
X154177300Y-107427300D03*
X154232700Y-104363700D03*
X132963100Y-106133900D03*
X130471900Y-91910200D03*
X127081600Y-91860000D03*
X123164500Y-95797400D03*
X125374200Y-98007100D03*
X117625500Y-98995500D03*
X106833800Y-100671100D03*
X109697800Y-100883200D03*
X162052000Y-132665600D03*
X164554500Y-103575000D03*
X159512000Y-132667300D03*
X160899000Y-106260000D03*
X156972000Y-132644500D03*
X147846800Y-116022000D03*
X124222300Y-101925100D03*
X154432000Y-132649300D03*
X154638500Y-118820100D03*
X123877700Y-114189100D03*
X120286400Y-104143400D03*
X151892000Y-132686800D03*
X146967900Y-114513900D03*
X142751600Y-110297600D03*
X140032900Y-110352500D03*
X113316000Y-101940500D03*
X149352000Y-132679000D03*
X116420800Y-102285200D03*
X94275000Y-104136400D03*
X101960500Y-107546800D03*
X117650600Y-106281000D03*
X121625800Y-132669300D03*
X110679400Y-118226900D03*
X95686600Y-104139600D03*
X120489300Y-132669700D03*
X119891700Y-112130500D03*
X117466900Y-132674100D03*
X118331500Y-104166700D03*
X114134600Y-132668200D03*
X114997600Y-104639200D03*
X115263700Y-104055300D03*
X111511700Y-132674100D03*
X128887700Y-92385400D03*
X130210400Y-90752600D03*
X131930400Y-77266700D03*
X130767100Y-90227200D03*
X130573800Y-98420000D03*
X94380500Y-96499300D03*
X120445000Y-71895900D03*
X129640400Y-71440300D03*
X133396200Y-59257400D03*
X150089800Y-59257400D03*
X144171300Y-80314900D03*
X119909800Y-65654400D03*
X136836200Y-78533300D03*
X134575100Y-77660400D03*
X119253000Y-60960000D03*
X158728400Y-98198300D03*
X168111800Y-84700000D03*
X174706100Y-60891100D03*
X200660000Y-58644700D03*
X148638000Y-95414600D03*
X138491800Y-101209500D03*
X160050000Y-81898300D03*
X160888500Y-54580000D03*
X116754500Y-94984200D03*
X117152800Y-69338200D03*
X131890500Y-69880000D03*
X132235600Y-86471700D03*
X97712500Y-72442600D03*
X97994600Y-53340000D03*
X209830700Y-77536600D03*
X210820000Y-93168200D03*
X181414400Y-95602700D03*
X176110700Y-101014100D03*
X171576100Y-101907000D03*
X155387600Y-103592500D03*
X129853300Y-102489100D03*
X129786500Y-88620000D03*
X189961000Y-77220300D03*
X192436200Y-91430500D03*
X139559500Y-106221700D03*
X132318300Y-87155800D03*
X159678600Y-98198300D03*
X159673500Y-99699300D03*
X141624400Y-104854000D03*
X180975000Y-73554300D03*
X180941700Y-92886400D03*
X207366100Y-74573100D03*
X207645000Y-92874300D03*
X134467800Y-106073000D03*
X131092400Y-88933200D03*
X180841800Y-89026300D03*
X205597500Y-90826800D03*
X168630800Y-91782600D03*
X162135900Y-95112300D03*
X139952900Y-97559000D03*
X138515500Y-104954300D03*
X180142700Y-71351300D03*
X180188400Y-92715200D03*
X209465400Y-93043400D03*
X206817400Y-73515000D03*
X204327000Y-69020000D03*
X134664300Y-107463600D03*
X130994000Y-89626800D03*
X179469800Y-86796000D03*
X162085300Y-88351100D03*
X160291200Y-99574000D03*
X148655100Y-101519200D03*
X102792300Y-98255300D03*
X129020100Y-80610400D03*
X125564200Y-81013600D03*
X107037000Y-93687600D03*
X96413900Y-96279600D03*
X128447700Y-92947400D03*
X137938900Y-92383100D03*
X139126400Y-84479700D03*
X105178100Y-93843300D03*
X126543500Y-94608600D03*
X140092600Y-94668300D03*
X141529800Y-83498100D03*
X178435000Y-92885900D03*
X205593500Y-73435300D03*
X205012500Y-92882200D03*
X138180900Y-105469000D03*
X138385100Y-87354200D03*
X178704800Y-88574200D03*
X205012500Y-88317900D03*
X140097600Y-92331400D03*
X175250500Y-75342500D03*
X176688800Y-71384700D03*
X177135400Y-92874400D03*
X203835000Y-73534800D03*
X204470000Y-94806500D03*
X177210400Y-89853500D03*
X203633400Y-90580000D03*
X168537300Y-92696300D03*
X167076600Y-93384400D03*
X146430500Y-93367200D03*
X142938800Y-87608000D03*
X137606200Y-88112700D03*
X137623700Y-105760900D03*
X211455000Y-73532100D03*
X212090000Y-92974700D03*
X211083700Y-70504800D03*
X167939900Y-97573600D03*
X155760700Y-90893600D03*
X147506700Y-90754000D03*
X143183200Y-86978900D03*
X186069500Y-73515000D03*
X186505300Y-92778200D03*
X212712500Y-92898000D03*
X212855000Y-73515000D03*
X184569500Y-67723600D03*
X168732000Y-65096200D03*
X161669400Y-78385900D03*
X154374300Y-80619500D03*
X149187900Y-98630400D03*
X138547400Y-98535100D03*
X139528100Y-86215300D03*
X186690000Y-71897300D03*
X190203200Y-93081000D03*
X213995000Y-92893800D03*
X213641000Y-73515000D03*
X169531100Y-99149000D03*
X156236700Y-91343900D03*
X148436200Y-91343100D03*
X143310200Y-85764800D03*
X174821400Y-58114300D03*
X167870700Y-65065000D03*
X204633100Y-83465600D03*
X203153400Y-68467500D03*
X175572900Y-73779200D03*
X175260000Y-93168200D03*
X202028600Y-92974700D03*
X202230300Y-73531800D03*
X137173400Y-106291400D03*
X139732200Y-81922300D03*
X173825200Y-90164500D03*
X163844800Y-89720900D03*
X159285600Y-97024300D03*
X148522700Y-99158500D03*
X200758600Y-92974700D03*
X200762600Y-73435300D03*
X194426100Y-90719500D03*
X174600400Y-95102000D03*
X172729400Y-74143400D03*
X141147900Y-79434900D03*
X136573000Y-106187500D03*
X177158200Y-62946800D03*
X176272000Y-82700700D03*
X173020400Y-58562900D03*
X168107900Y-61629400D03*
X120841800Y-93929800D03*
X122677400Y-75074700D03*
X136615600Y-74852200D03*
X147853100Y-64155500D03*
X176530000Y-81260000D03*
X177165000Y-60779300D03*
X176328100Y-58551900D03*
X168386900Y-61002900D03*
X139896900Y-65029200D03*
X134629200Y-73130100D03*
X122197000Y-73130100D03*
X119736000Y-95485600D03*
X105781700Y-93302300D03*
X125881800Y-93885500D03*
X135467400Y-94097400D03*
X142220700Y-81340500D03*
X107057600Y-92595400D03*
X114825000Y-90314600D03*
X139638200Y-93526600D03*
X140407400Y-82480900D03*
X110611000Y-92174800D03*
X116567800Y-74537100D03*
X135510500Y-74537100D03*
X138374700Y-77401300D03*
X118093100Y-93912400D03*
X125546400Y-80404000D03*
X129723900Y-77312000D03*
X132974000Y-79229100D03*
X173291300Y-80150300D03*
X173348800Y-61614400D03*
X199288800Y-60695300D03*
X199088700Y-82427400D03*
X137765500Y-82376700D03*
X146746500Y-94958600D03*
X167573700Y-83499600D03*
X158056800Y-94947100D03*
X114959500Y-95070900D03*
X126498400Y-78687900D03*
X210734500Y-80234700D03*
X208195000Y-60695300D03*
X180736000Y-60775000D03*
X181388700Y-82605700D03*
X145283800Y-100100600D03*
X151060700Y-91928500D03*
X157130900Y-91851500D03*
X167133200Y-82962200D03*
X177994000Y-82318600D03*
X178485000Y-61650200D03*
X176711900Y-69875600D03*
X167085600Y-69433100D03*
X157398800Y-90837100D03*
X150719600Y-90414300D03*
X143158200Y-97118900D03*
X140496500Y-97118900D03*
X138465900Y-99996500D03*
X175101800Y-71384700D03*
X173229300Y-92872600D03*
X200025000Y-73516900D03*
X199629900Y-92877100D03*
X173389200Y-87076700D03*
X163254500Y-87017600D03*
X161075900Y-87625800D03*
X151169900Y-89936300D03*
X138491800Y-103863000D03*
X129804300Y-103240500D03*
X119462700Y-98815900D03*
X215162600Y-60797700D03*
X214197000Y-79334100D03*
X192187300Y-78796300D03*
X189171000Y-60610300D03*
X180340000Y-94492400D03*
X171213100Y-95810400D03*
X169196800Y-100600900D03*
X134416000Y-79854500D03*
X145210100Y-69495500D03*
X178562700Y-78205600D03*
X186690000Y-59569900D03*
X187846600Y-80234700D03*
X187846600Y-65390000D03*
X164775000Y-99610600D03*
X190428400Y-85709500D03*
X171018200Y-84675100D03*
X170183800Y-80505100D03*
X149846800Y-86819700D03*
X136754500Y-82775700D03*
X187208400Y-78820000D03*
X186690000Y-60610300D03*
X186690000Y-65065000D03*
X189601900Y-87249200D03*
X163994300Y-99609700D03*
X168084800Y-89194100D03*
X163994300Y-96381300D03*
X132744000Y-97975700D03*
X131044300Y-83091400D03*
X210978800Y-82285300D03*
X211319100Y-60775700D03*
X191512800Y-57760600D03*
X211047800Y-78299400D03*
X182917400Y-82247900D03*
X181325900Y-92125000D03*
X178729900Y-95285100D03*
X176668200Y-98313500D03*
X170399500Y-98655200D03*
X160129100Y-97574000D03*
X151661600Y-97306900D03*
X131454200Y-80969800D03*
X183984500Y-80234700D03*
X184149900Y-59569900D03*
X196850000Y-59140300D03*
X210947300Y-61890400D03*
X211063000Y-83059900D03*
X162825000Y-99614800D03*
X177491000Y-86983000D03*
X167521400Y-87918200D03*
X181901800Y-79038700D03*
X144513800Y-79786400D03*
X134156700Y-83229700D03*
X197706500Y-75001400D03*
X195476800Y-90437000D03*
X173914200Y-94936900D03*
X172279100Y-73517900D03*
X143447700Y-90655500D03*
X145090400Y-92810800D03*
X171378500Y-79208600D03*
X171245500Y-63707200D03*
X197908400Y-80180000D03*
X194857100Y-60691700D03*
X169106400Y-73478700D03*
X170377300Y-92542400D03*
X198120000Y-94000000D03*
X197789200Y-73515000D03*
X169598800Y-85816800D03*
X198231800Y-85991400D03*
X150343300Y-72725400D03*
X145640800Y-85793400D03*
X195691500Y-73765500D03*
X195644900Y-92995500D03*
X169147600Y-92875600D03*
X168853200Y-72588600D03*
X193860400Y-86200900D03*
X168623100Y-85268900D03*
X145423800Y-85140700D03*
X151582300Y-72120700D03*
X172085000Y-82400400D03*
X172918900Y-62033700D03*
X201189700Y-79425700D03*
X198315700Y-61145600D03*
X171830700Y-71084500D03*
X154367400Y-63765000D03*
X154209500Y-70404600D03*
X147461400Y-67250000D03*
X139067900Y-77380100D03*
X156889500Y-86294300D03*
X155270900Y-94896100D03*
X184912000Y-132682500D03*
X182531600Y-125860000D03*
X132966600Y-118348600D03*
X108307500Y-102312700D03*
X182268900Y-123900000D03*
X150442600Y-123563500D03*
X114282700Y-101367900D03*
X151275100Y-109160000D03*
X130208500Y-101483900D03*
X147174800Y-104287200D03*
X125131300Y-132677000D03*
X159399900Y-83916600D03*
X158366500Y-66130900D03*
X179070000Y-81772600D03*
X179809500Y-60799800D03*
X179070000Y-62409900D03*
X202353000Y-62560800D03*
X202841800Y-79420300D03*
X177314500Y-86370000D03*
X168236900Y-86370000D03*
X159870600Y-95173500D03*
X177211800Y-99600000D03*
X169952500Y-69958500D03*
X152198500Y-67859100D03*
X143546500Y-78116000D03*
X135996600Y-73957100D03*
X116726700Y-71570100D03*
X98594300Y-90908000D03*
X113521700Y-69230000D03*
X107435800Y-88785200D03*
X113652800Y-69880000D03*
X110026000Y-92540000D03*
X158303500Y-88668700D03*
X159956100Y-52875300D03*
X107046700Y-55847300D03*
X95801500Y-107918800D03*
X105525400Y-112569900D03*
X107458600Y-100804100D03*
X117939900Y-99597100D03*
X148646800Y-108695600D03*
X150407500Y-105788500D03*
X154014200Y-88171300D03*
X154146900Y-88884700D03*
X150299800Y-106652500D03*
X143275000Y-102715600D03*
X139389200Y-81416100D03*
X154293700Y-54580000D03*
X145576400Y-94964400D03*
X153759200Y-56530000D03*
X144219800Y-100847100D03*
X159312300Y-57830000D03*
X155953400Y-69270000D03*
X153759200Y-69270000D03*
X146050000Y-100852600D03*
X154209500Y-57227600D03*
X154270300Y-97748000D03*
D44*
X213368200Y-104394000D02*
X213454600Y-104480400D01*
X207772000Y-104394000D02*
X213368200Y-104394000D01*
X214630000Y-104480400D02*
X213454600Y-104480400D01*
X121655000Y-103230000D02*
X121655000Y-104105300D01*
X215805400Y-110641100D02*
X215805400Y-104480400D01*
X213121200Y-113325300D02*
X215805400Y-110641100D01*
X214630000Y-104480400D02*
X215805400Y-104480400D01*
X213121200Y-114300000D02*
X213121200Y-113812600D01*
X213121200Y-113812600D02*
X213121200Y-113325300D01*
X167375000Y-104500000D02*
X167375000Y-103624700D01*
X121655000Y-104385600D02*
X121655000Y-104105300D01*
X97525000Y-103230000D02*
X97525000Y-102354700D01*
X97525000Y-102354700D02*
X101763100Y-102354700D01*
X109962700Y-104367600D02*
X105926300Y-104367600D01*
X110225000Y-104105300D02*
X109962700Y-104367600D01*
X110225000Y-104105300D02*
X110225000Y-103230000D01*
X191121500Y-109433700D02*
X179146300Y-109433700D01*
X192459700Y-110771900D02*
X191121500Y-109433700D01*
X210080500Y-110771900D02*
X192459700Y-110771900D01*
X213121200Y-113812600D02*
X210080500Y-110771900D01*
X168466200Y-103624700D02*
X167375000Y-103624700D01*
X174275200Y-109433700D02*
X168466200Y-103624700D01*
X179146300Y-109433700D02*
X174275200Y-109433700D01*
X175465900Y-121940000D02*
X149280200Y-121940000D01*
X181510300Y-115895600D02*
X175465900Y-121940000D01*
X181510300Y-114174000D02*
X181510300Y-115895600D01*
X179146300Y-111810000D02*
X181510300Y-114174000D01*
X179146300Y-109433700D02*
X179146300Y-111810000D01*
X123579800Y-106310400D02*
X121655000Y-104385600D01*
X126443500Y-106310400D02*
X123579800Y-106310400D01*
X120798300Y-105242300D02*
X121655000Y-104385600D01*
X111362000Y-105242300D02*
X120798300Y-105242300D01*
X110225000Y-104105300D02*
X111362000Y-105242300D01*
X140913400Y-112514700D02*
X141141300Y-112286800D01*
X140705000Y-112514700D02*
X140913400Y-112514700D01*
X140705000Y-113390000D02*
X140705000Y-112514700D01*
D45*
X148590000Y-71120000D02*
X146202400Y-73507600D01*
X140157200Y-72847200D02*
X138430000Y-71120000D01*
X140157200Y-75133200D02*
X140157200Y-72847200D01*
X140385800Y-75361800D02*
X140157200Y-75133200D01*
X143103600Y-73507600D02*
X141757400Y-74853800D01*
X146202400Y-73507600D02*
X143103600Y-73507600D01*
X155800000Y-68315000D02*
X152563400Y-68315000D01*
X152019000Y-68859400D02*
X148615400Y-68859400D01*
X152563400Y-68315000D02*
X152019000Y-68859400D01*
X133220000Y-86271100D02*
X134053000Y-87104500D01*
X133210000Y-86271100D02*
X133220000Y-86271100D01*
X141584000Y-85442400D02*
X141583600Y-85442400D01*
X134053000Y-87104500D02*
X138608000Y-82549900D01*
X138608000Y-82575400D02*
X138608000Y-82549900D01*
X138646000Y-82537300D02*
X138608000Y-82575400D01*
X138646000Y-82511900D02*
X138646000Y-82537300D01*
X138608000Y-82549900D02*
X138646000Y-82511900D01*
X138608000Y-82549900D02*
X138608000Y-82473800D01*
X141576000Y-85442400D02*
X138608000Y-82473800D01*
X141583600Y-85442400D02*
X141576000Y-85442400D01*
X133223000Y-88216900D02*
X132842500Y-88597400D01*
X133223000Y-86283800D02*
X133223000Y-88216900D01*
X133210000Y-86271100D02*
X133223000Y-86283800D01*
X132842500Y-88597400D02*
X132462000Y-88977900D01*
D46*
X132842400Y-88597400D02*
X132461900Y-88977900D01*
X132842500Y-88597400D02*
X132842400Y-88597400D01*
D47*
X214630000Y-108879600D02*
X213379600Y-108879600D01*
X188595000Y-94000000D02*
X188595000Y-95150300D01*
X205590100Y-100330000D02*
X204341000Y-100330000D01*
X188595000Y-72410000D02*
X188595000Y-73560300D01*
X192310000Y-76200000D02*
X192310000Y-74949700D01*
X215265000Y-94000000D02*
X215265000Y-95150300D01*
X212993500Y-97421800D02*
X215265000Y-95150300D01*
X204341000Y-97421800D02*
X212993500Y-97421800D01*
X204341000Y-97421800D02*
X204341000Y-100330000D01*
X215940300Y-92174400D02*
X215265000Y-92849700D01*
X215940300Y-74235600D02*
X215940300Y-92174400D01*
X215265000Y-73560300D02*
X215940300Y-74235600D01*
X215265000Y-72410000D02*
X215265000Y-73560300D01*
X215265000Y-94000000D02*
X215265000Y-92849700D01*
D48*
X155300000Y-57830400D02*
X155300000Y-57830000D01*
X121373100Y-66443100D02*
X121560000Y-66630000D01*
X156799600Y-82910000D02*
X156800000Y-82910000D01*
X162174500Y-104500000D02*
X162175000Y-104500000D01*
D47*
X156940000Y-101600000D02*
X156940000Y-102900300D01*
D48*
X105024600Y-103230000D02*
X105025000Y-103230000D01*
X135505000Y-113145100D02*
X135505000Y-113390000D01*
X135504600Y-113144700D02*
X135505000Y-113145100D01*
D47*
X93250000Y-107950000D02*
X93250000Y-106649700D01*
D48*
X92324600Y-103230000D02*
X92325000Y-103230000D01*
D46*
X129598500Y-82649700D02*
X128926400Y-81977600D01*
D47*
X132090900Y-85142100D02*
X132090900Y-85152000D01*
X129598500Y-82649700D02*
X132090900Y-85142100D01*
D45*
X132090900Y-85152000D02*
X133210000Y-86271100D01*
D46*
X137783500Y-76585300D02*
X136987400Y-77381400D01*
D47*
X138430000Y-71120000D02*
X138430000Y-72586300D01*
X137783500Y-76196700D02*
X137783500Y-73232800D01*
X137783500Y-73232800D02*
X138430000Y-72586300D01*
D46*
X137783500Y-76196700D02*
X137783500Y-76585300D01*
X137659500Y-90710700D02*
X136987400Y-90038600D01*
D45*
X136987000Y-90048200D02*
X138349400Y-91410600D01*
X136987000Y-90038600D02*
X136987000Y-90048200D01*
X134053000Y-87104500D02*
X136987000Y-90038600D01*
X136184500Y-78184100D02*
X136987000Y-77381400D01*
D47*
X136184700Y-78184100D02*
X136315300Y-78053500D01*
X136184500Y-78184100D02*
X136184700Y-78184100D01*
D46*
X136315300Y-78053500D02*
X136987400Y-77381400D01*
D47*
X88107600Y-76379700D02*
X91440000Y-79712100D01*
X88107600Y-73657700D02*
X88107600Y-76379700D01*
X91440000Y-81280000D02*
X91440000Y-79712100D01*
X152400000Y-76740000D02*
X151099700Y-76740000D01*
X149840300Y-85084100D02*
X149840300Y-85820000D01*
X152014400Y-82910000D02*
X149840300Y-85084100D01*
X151099700Y-81995300D02*
X152014400Y-82910000D01*
X151099700Y-76740000D02*
X151099700Y-81995300D01*
X152014400Y-82910000D02*
X156799600Y-82910000D01*
X165100000Y-94710000D02*
X163799700Y-94710000D01*
X127540000Y-104140000D02*
X127540000Y-105440300D01*
X93250000Y-110459700D02*
X93250000Y-107950000D01*
X94520000Y-111729700D02*
X93250000Y-110459700D01*
X94520000Y-113030000D02*
X94520000Y-112554900D01*
X94520000Y-112554900D02*
X94520000Y-111729700D01*
X97928800Y-115963700D02*
X109982000Y-115963700D01*
X94520000Y-112554900D02*
X97928800Y-115963700D01*
X109982000Y-115963700D02*
X110490000Y-115455700D01*
X123920000Y-91440000D02*
X123920000Y-92690300D01*
X100870000Y-88869700D02*
X91980000Y-88869700D01*
X91980000Y-90170000D02*
X91980000Y-88869700D01*
X100870000Y-90170000D02*
X100870000Y-89044800D01*
X100870000Y-89044800D02*
X100870000Y-88869700D01*
X158539700Y-104500000D02*
X156940000Y-102900300D01*
X162174500Y-104500000D02*
X158539700Y-104500000D01*
X96520000Y-66040000D02*
X97986300Y-66040000D01*
X98706700Y-66760400D02*
X97986300Y-66040000D01*
X108543500Y-66760400D02*
X98706700Y-66760400D01*
X109220000Y-66083900D02*
X108543500Y-66760400D01*
X109220000Y-64770000D02*
X109220000Y-66083900D01*
X162020000Y-76200000D02*
X165640000Y-76200000D01*
X162020000Y-76200000D02*
X162020000Y-77500300D01*
X155950400Y-58480400D02*
X155486900Y-58016900D01*
X163027100Y-58480400D02*
X155950400Y-58480400D01*
X165640000Y-55867500D02*
X163027100Y-58480400D01*
X165640000Y-54610000D02*
X165640000Y-55867500D01*
D48*
X155486900Y-58016900D02*
X155300000Y-57830000D01*
D47*
X215265000Y-72410000D02*
X215265000Y-71259700D01*
X195739500Y-71259700D02*
X215265000Y-71259700D01*
X192179800Y-74819400D02*
X195739500Y-71259700D01*
X190920600Y-73560300D02*
X192179800Y-74819400D01*
X188595000Y-73560300D02*
X190920600Y-73560300D01*
X192179800Y-74819400D02*
X192310000Y-74949700D01*
X192310000Y-53359700D02*
X165640000Y-53359700D01*
X192310000Y-54610000D02*
X192310000Y-53359700D01*
X165640000Y-54610000D02*
X165640000Y-53359700D01*
X91440000Y-81280000D02*
X93007900Y-81280000D01*
X100870000Y-88869700D02*
X100870000Y-85820000D01*
X97547900Y-85820000D02*
X93007900Y-81280000D01*
X100870000Y-85820000D02*
X97547900Y-85820000D01*
X148590000Y-85820000D02*
X149215200Y-85820000D01*
X149215200Y-85820000D02*
X149840300Y-85820000D01*
X143634600Y-91400600D02*
X138349400Y-91400600D01*
X149215200Y-85820000D02*
X143634600Y-91400600D01*
X137659500Y-90710700D02*
X138349400Y-91400600D01*
X138349400Y-91400600D02*
X138349400Y-91410600D01*
X123900300Y-92710000D02*
X123920000Y-92690300D01*
X112490000Y-92710000D02*
X123900300Y-92710000D01*
D45*
X138349400Y-91410600D02*
X142725400Y-95786400D01*
X143049000Y-96110000D02*
X144100000Y-96110000D01*
X142725400Y-95786400D02*
X143049000Y-96110000D01*
D47*
X133890000Y-96520000D02*
X133890000Y-95269700D01*
X207772000Y-108966000D02*
X206305700Y-108966000D01*
X196916800Y-108966000D02*
X196830400Y-108879600D01*
X206305700Y-108966000D02*
X196916800Y-108966000D01*
X195580000Y-108879600D02*
X194329600Y-108879600D01*
X190519600Y-105069600D02*
X194329600Y-108879600D01*
X187315200Y-105069600D02*
X190519600Y-105069600D01*
X187002600Y-105069600D02*
X187315200Y-105069600D01*
X188595000Y-95150300D02*
X188595000Y-97421800D01*
X186958800Y-97421800D02*
X188595000Y-97421800D01*
X185423800Y-98956800D02*
X186958800Y-97421800D01*
X185423800Y-103490800D02*
X185423800Y-98956800D01*
X187002600Y-105069600D02*
X185423800Y-103490800D01*
X148590000Y-62230000D02*
X146050000Y-62230000D01*
X119945200Y-64770000D02*
X109220000Y-64770000D01*
X121373100Y-66197900D02*
X119945200Y-64770000D01*
X121373100Y-66443100D02*
X121373100Y-66197900D01*
X112490000Y-92710000D02*
X112490000Y-91409700D01*
X109982000Y-115963700D02*
X109982000Y-135890000D01*
X182372000Y-135890000D02*
X182372000Y-132645700D01*
X195580000Y-108879600D02*
X196830400Y-108879600D01*
D45*
X128926000Y-81987200D02*
X132090900Y-85152000D01*
X128926000Y-81977600D02*
X128926000Y-81987200D01*
D47*
X112490000Y-92710000D02*
X112490000Y-94010300D01*
X192890100Y-114300000D02*
X191641000Y-114300000D01*
X213293200Y-108966000D02*
X213379600Y-108879600D01*
X207772000Y-108966000D02*
X213293200Y-108966000D01*
X186846300Y-105069600D02*
X187002600Y-105069600D01*
X186846300Y-105069600D02*
X186690000Y-105069600D01*
D48*
X162174600Y-104499600D02*
X162175000Y-104500000D01*
D47*
X188595000Y-97421800D02*
X204341000Y-97421800D01*
X107950000Y-85820000D02*
X100870000Y-85820000D01*
X107950000Y-85820000D02*
X107950000Y-87270300D01*
X112089400Y-91409700D02*
X112490000Y-91409700D01*
X107950000Y-87270300D02*
X112089400Y-91409700D01*
D45*
X135908500Y-78460200D02*
X136184500Y-78184100D01*
X135382000Y-78986800D02*
X135908500Y-78460200D01*
X135382000Y-79248000D02*
X135382000Y-78986800D01*
X138608000Y-82473800D02*
X135382000Y-79248000D01*
D47*
X123920000Y-76200000D02*
X125370300Y-76200000D01*
D48*
X116268100Y-103043100D02*
X116455000Y-103230000D01*
D47*
X182880000Y-115455700D02*
X184093200Y-114242500D01*
X191583500Y-114242500D02*
X184093200Y-114242500D01*
X191641000Y-114300000D02*
X191583500Y-114242500D01*
X186690000Y-105069600D02*
X185439600Y-105069600D01*
X162174600Y-103763200D02*
X162174600Y-104499600D01*
X163048900Y-102888900D02*
X162174600Y-103763200D01*
X170359000Y-102888900D02*
X163048900Y-102888900D01*
X172539700Y-105069600D02*
X170359000Y-102888900D01*
X185439600Y-105069600D02*
X172539700Y-105069600D01*
X184093200Y-114242500D02*
X181963000Y-112112300D01*
X133890000Y-96520000D02*
X132439700Y-96520000D01*
X125464500Y-76105800D02*
X125370300Y-76200000D01*
X133771900Y-76105800D02*
X125464500Y-76105800D01*
X134676200Y-77010100D02*
X133771900Y-76105800D01*
X134910900Y-77010100D02*
X134676200Y-77010100D01*
X135291700Y-77390900D02*
X134910900Y-77010100D01*
X135291700Y-77625600D02*
X135291700Y-77390900D01*
X135714100Y-78048000D02*
X135291700Y-77625600D01*
X135714100Y-78265900D02*
X135714100Y-78048000D01*
X135714200Y-78265900D02*
X135714100Y-78265900D01*
X135908500Y-78460200D02*
X135714200Y-78265900D01*
X142725300Y-95786500D02*
X142725400Y-95786400D01*
X142357900Y-95786500D02*
X142725300Y-95786500D01*
X142029800Y-95458400D02*
X142357900Y-95786500D01*
X139962900Y-95458400D02*
X142029800Y-95458400D01*
X139774200Y-95269700D02*
X139962900Y-95458400D01*
X133890000Y-95269700D02*
X139774200Y-95269700D01*
X181887400Y-108621800D02*
X181699600Y-108621800D01*
X185439600Y-105069600D02*
X181887400Y-108621800D01*
X138290500Y-64369500D02*
X137890000Y-64770000D01*
X143910500Y-64369500D02*
X138290500Y-64369500D01*
X146050000Y-62230000D02*
X143910500Y-64369500D01*
X92324600Y-105724300D02*
X92324600Y-103230000D01*
X93250000Y-106649700D02*
X92324600Y-105724300D01*
X93795600Y-101004000D02*
X103515500Y-101004000D01*
X92324600Y-102475000D02*
X93795600Y-101004000D01*
X92324600Y-103230000D02*
X92324600Y-102475000D01*
X103515500Y-101720900D02*
X103515500Y-101004000D01*
X105024600Y-103230000D02*
X103515500Y-101720900D01*
X135504600Y-113144700D02*
X127540000Y-113144700D01*
X112801000Y-113144700D02*
X110490000Y-115455700D01*
X127540000Y-113144700D02*
X112801000Y-113144700D01*
X116267900Y-103043300D02*
X116268100Y-103043100D01*
X114639000Y-103043300D02*
X116267900Y-103043300D01*
X127540000Y-113144700D02*
X127540000Y-105440300D01*
X112088400Y-94411900D02*
X112490000Y-94010300D01*
X106795900Y-94411900D02*
X112088400Y-94411900D01*
X105347000Y-95860800D02*
X106795900Y-94411900D01*
X103926500Y-95860800D02*
X105347000Y-95860800D01*
X103515500Y-96271800D02*
X103926500Y-95860800D01*
X103515500Y-101004000D02*
X103515500Y-96271800D01*
X127512200Y-96520000D02*
X132439700Y-96520000D01*
X123920000Y-92927800D02*
X127512200Y-96520000D01*
X123920000Y-92690300D02*
X123920000Y-92927800D01*
X152400000Y-76740000D02*
X153050200Y-76740000D01*
X153810500Y-77500300D02*
X153050200Y-76740000D01*
X162020000Y-77500300D02*
X153810500Y-77500300D01*
X152488600Y-60641800D02*
X155300000Y-57830400D01*
X150178200Y-60641800D02*
X152488600Y-60641800D01*
X148590000Y-62230000D02*
X150178200Y-60641800D01*
X183181900Y-115757600D02*
X182880000Y-115455700D01*
X183181900Y-131835800D02*
X183181900Y-115757600D01*
X182372000Y-132645700D02*
X183181900Y-131835800D01*
X143061800Y-95450000D02*
X142725400Y-95786400D01*
X143064200Y-95450000D02*
X143061800Y-95450000D01*
X144231900Y-94282300D02*
X143064200Y-95450000D01*
X146900400Y-94282300D02*
X144231900Y-94282300D01*
X147249700Y-93933000D02*
X146900400Y-94282300D01*
X147926100Y-93933000D02*
X147249700Y-93933000D01*
X148012600Y-93846500D02*
X147926100Y-93933000D01*
X150148300Y-93846500D02*
X148012600Y-93846500D01*
X150247400Y-93945600D02*
X150148300Y-93846500D01*
X152484800Y-93945600D02*
X150247400Y-93945600D01*
X152541600Y-93888800D02*
X152484800Y-93945600D01*
X152559000Y-93888800D02*
X152541600Y-93888800D01*
X152593000Y-93854800D02*
X152559000Y-93888800D01*
X154545800Y-93854800D02*
X152593000Y-93854800D01*
X154605100Y-93795500D02*
X154545800Y-93854800D01*
X155727000Y-93795500D02*
X154605100Y-93795500D01*
X156187700Y-94256200D02*
X155727000Y-93795500D01*
X157774700Y-94256200D02*
X156187700Y-94256200D01*
X157776100Y-94257600D02*
X157774700Y-94256200D01*
X157994800Y-94257600D02*
X157776100Y-94257600D01*
X158019500Y-94282300D02*
X157994800Y-94257600D01*
X160799200Y-94282300D02*
X158019500Y-94282300D01*
X160945900Y-94429000D02*
X160799200Y-94282300D01*
X162561400Y-94429000D02*
X160945900Y-94429000D01*
X162622900Y-94490500D02*
X162561400Y-94429000D01*
X163366400Y-94490500D02*
X162622900Y-94490500D01*
X163446500Y-94570600D02*
X163366400Y-94490500D01*
X163660300Y-94570600D02*
X163446500Y-94570600D01*
X163799700Y-94710000D02*
X163660300Y-94570600D01*
X156940000Y-102959900D02*
X156940000Y-102900300D01*
X155657100Y-104242800D02*
X156940000Y-102959900D01*
X155273300Y-104242800D02*
X155657100Y-104242800D01*
X155273300Y-104242900D02*
X155273300Y-104242800D01*
X154502200Y-105014000D02*
X155273300Y-104242900D01*
X154275600Y-105014000D02*
X154502200Y-105014000D01*
X149943700Y-109345900D02*
X154275600Y-105014000D01*
X144533000Y-109345900D02*
X149943700Y-109345900D01*
X144231700Y-109647200D02*
X144533000Y-109345900D01*
X139818300Y-109647200D02*
X144231700Y-109647200D01*
X139111000Y-110354500D02*
X139818300Y-109647200D01*
X137811400Y-110354500D02*
X139111000Y-110354500D01*
X135504600Y-112661300D02*
X137811400Y-110354500D01*
X135504600Y-113144700D02*
X135504600Y-112661300D01*
D45*
X129756900Y-87440300D02*
X130340600Y-86856600D01*
X120916100Y-87440300D02*
X129756900Y-87440300D01*
X120721100Y-87245300D02*
X120916100Y-87440300D01*
X120721100Y-86019600D02*
X120721100Y-87132700D01*
X120721100Y-87132700D02*
X120721100Y-87245300D01*
X114480600Y-91440000D02*
X119920000Y-91440000D01*
X113066000Y-90025400D02*
X114480600Y-91440000D01*
X113066000Y-88104500D02*
X113066000Y-90025400D01*
X113365600Y-87804900D02*
X113066000Y-88104500D01*
X120161500Y-87804900D02*
X113365600Y-87804900D01*
X120721100Y-87245300D02*
X120161500Y-87804900D01*
X169545000Y-81260000D02*
X169545000Y-82285300D01*
X169640000Y-54610000D02*
X169640000Y-55735300D01*
X196215000Y-81260000D02*
X196215000Y-82285300D01*
X196310000Y-54610000D02*
X196310000Y-55735300D01*
X102870000Y-69310000D02*
X104045300Y-69310000D01*
X160700000Y-89810000D02*
X160700000Y-88884700D01*
X110225000Y-97430000D02*
X110225000Y-98142700D01*
X110225000Y-98142700D02*
X110225000Y-98255300D01*
X110225000Y-98255300D02*
X116455000Y-98255300D01*
X105137600Y-98255300D02*
X110225000Y-98255300D01*
X105025000Y-98142700D02*
X105137600Y-98255300D01*
X180340000Y-103600000D02*
X179164700Y-103600000D01*
X173990000Y-99600000D02*
X175165300Y-99600000D01*
X102870000Y-56420000D02*
X101694700Y-56420000D01*
X99790000Y-54515300D02*
X101694700Y-56420000D01*
X95790000Y-54515300D02*
X99790000Y-54515300D01*
X95790000Y-53340000D02*
X95790000Y-54515300D01*
X175165300Y-100312700D02*
X175165300Y-99600000D01*
X133890000Y-64770000D02*
X133890000Y-65895300D01*
X169545000Y-55830300D02*
X169640000Y-55735300D01*
X169545000Y-59670000D02*
X169545000Y-55830300D01*
X169545000Y-59670000D02*
X169545000Y-60695300D01*
X196215000Y-81260000D02*
X196215000Y-80234700D01*
X195268600Y-80234700D02*
X196215000Y-80234700D01*
X194891800Y-80611500D02*
X195268600Y-80234700D01*
X196310000Y-76200000D02*
X196310000Y-75074700D01*
X196310000Y-75074700D02*
X196399200Y-74985500D01*
X169735000Y-55830300D02*
X169640000Y-55735300D01*
X196215000Y-55830300D02*
X169735000Y-55830300D01*
X196215000Y-55830300D02*
X196310000Y-55735300D01*
X114660000Y-70530000D02*
X113734700Y-70530000D01*
X105265300Y-70530000D02*
X104045300Y-69310000D01*
X113734700Y-70530000D02*
X105265300Y-70530000D01*
X114300000Y-78010000D02*
X113124700Y-78010000D01*
X114660000Y-70530000D02*
X115585300Y-70530000D01*
X99694700Y-58420000D02*
X96520000Y-58420000D01*
X101694700Y-56420000D02*
X99694700Y-58420000D01*
X96520000Y-58420000D02*
X96520000Y-59608900D01*
X96767200Y-69310000D02*
X102870000Y-69310000D01*
X94725600Y-67268400D02*
X96767200Y-69310000D01*
X94725600Y-60883200D02*
X94725600Y-67268400D01*
X95999900Y-59608900D02*
X94725600Y-60883200D01*
X96520000Y-59608900D02*
X95999900Y-59608900D01*
X113124700Y-71140000D02*
X113734700Y-70530000D01*
X113124700Y-78010000D02*
X113124700Y-71140000D01*
X169640000Y-76200000D02*
X169640000Y-76762600D01*
X169640000Y-76762600D02*
X169640000Y-77325300D01*
X196215000Y-59572400D02*
X195209400Y-59572400D01*
X196215000Y-59670000D02*
X196215000Y-59572400D01*
X196215000Y-59572400D02*
X196215000Y-55830300D01*
X195582400Y-52757100D02*
X196310000Y-53484700D01*
X164298200Y-52757100D02*
X195582400Y-52757100D01*
X163125300Y-53930000D02*
X164298200Y-52757100D01*
X162200000Y-53930000D02*
X163125300Y-53930000D01*
X196310000Y-54610000D02*
X196310000Y-53484700D01*
X148590000Y-81820000D02*
X147464700Y-81820000D01*
X162175000Y-98924400D02*
X162175000Y-99525300D01*
X116455000Y-97842600D02*
X116455000Y-98255300D01*
X135505000Y-107590000D02*
X135505000Y-106764700D01*
X137890000Y-96520000D02*
X136564700Y-96520000D01*
X105025000Y-97430000D02*
X105025000Y-97697700D01*
X105025000Y-97697700D02*
X105025000Y-98142700D01*
X136633900Y-77027800D02*
X137217400Y-76444300D01*
X133350000Y-71120000D02*
X134538900Y-71120000D01*
X148590000Y-77588600D02*
X148590000Y-81820000D01*
X152054500Y-74124100D02*
X148590000Y-77588600D01*
X167098000Y-74124100D02*
X152054500Y-74124100D01*
X169640000Y-76666100D02*
X167098000Y-74124100D01*
X169640000Y-76762600D02*
X169640000Y-76666100D01*
X132815500Y-89331500D02*
X133399200Y-88747800D01*
X181834900Y-103280400D02*
X181515300Y-103600000D01*
X184386900Y-103280400D02*
X181834900Y-103280400D01*
X180340000Y-103600000D02*
X181515300Y-103600000D01*
X197088800Y-100330000D02*
X197088800Y-99405300D01*
X197088800Y-99405300D02*
X188262000Y-99405300D01*
X161700000Y-63765000D02*
X162237700Y-63765000D01*
X162237700Y-63765000D02*
X162775300Y-63765000D01*
X142001400Y-85153100D02*
X142308600Y-85460300D01*
X142001400Y-85153100D02*
X141937200Y-85088900D01*
X138915100Y-82066800D02*
X138915100Y-82006700D01*
X141937200Y-85088900D02*
X138915100Y-82066800D01*
X140705000Y-107590000D02*
X140705000Y-106764700D01*
X148000000Y-101484800D02*
X148000000Y-100959700D01*
X148000000Y-101484800D02*
X148000000Y-102010000D01*
X141190100Y-106279600D02*
X140705000Y-106764700D01*
X145126700Y-106279600D02*
X141190100Y-106279600D01*
X147980700Y-103060300D02*
X147900200Y-103140800D01*
X148000000Y-103060300D02*
X147980700Y-103060300D01*
X148000000Y-102010000D02*
X148000000Y-103060300D01*
X162175000Y-98924400D02*
X162175000Y-98700000D01*
X162175000Y-97874700D02*
X167375000Y-97874700D01*
X167375000Y-98700000D02*
X167375000Y-97874700D01*
X118441700Y-75043600D02*
X115475300Y-78010000D01*
X121048600Y-75043600D02*
X118441700Y-75043600D01*
X121920000Y-75915000D02*
X121048600Y-75043600D01*
X121920000Y-78129700D02*
X121920000Y-75915000D01*
X125537900Y-81747600D02*
X121920000Y-78129700D01*
X127989300Y-81747600D02*
X125537900Y-81747600D01*
X128572800Y-82331100D02*
X127989300Y-81747600D01*
X162175000Y-98700000D02*
X162175000Y-97874700D01*
X145948900Y-81820000D02*
X142308600Y-85460300D01*
X147464700Y-81820000D02*
X145948900Y-81820000D01*
X176152300Y-100312700D02*
X175165300Y-100312700D01*
X179164700Y-103325100D02*
X176152300Y-100312700D01*
X179164700Y-103600000D02*
X179164700Y-103325100D01*
X109314700Y-81820000D02*
X107950000Y-81820000D01*
X113124700Y-78010000D02*
X109314700Y-81820000D01*
X107950000Y-81820000D02*
X106666900Y-81820000D01*
X97525000Y-97017300D02*
X97525000Y-96604700D01*
X114300000Y-78010000D02*
X115475300Y-78010000D01*
X116455000Y-97842600D02*
X116455000Y-97430000D01*
X116455000Y-97430000D02*
X116455000Y-96604700D01*
X121655000Y-97430000D02*
X121655000Y-96604700D01*
X116229200Y-96378900D02*
X116455000Y-96604700D01*
X116229200Y-94766600D02*
X116229200Y-96378900D01*
X116536900Y-94458900D02*
X116229200Y-94766600D01*
X119509200Y-94458900D02*
X116536900Y-94458900D01*
X121655000Y-96604700D02*
X119509200Y-94458900D01*
X171903800Y-79426300D02*
X171903800Y-79146600D01*
X171423600Y-79906500D02*
X171903800Y-79426300D01*
X171423600Y-82095100D02*
X171423600Y-79906500D01*
X171233400Y-82285300D02*
X171423600Y-82095100D01*
X169545000Y-82285300D02*
X171233400Y-82285300D01*
X170238200Y-77325300D02*
X169640000Y-77325300D01*
X171903800Y-78990900D02*
X170238200Y-77325300D01*
X171903800Y-79146600D02*
X171903800Y-78990900D01*
X171755000Y-100312700D02*
X175165300Y-100312700D01*
X170487400Y-101580300D02*
X171755000Y-100312700D01*
X163969700Y-101580300D02*
X170487400Y-101580300D01*
X162175000Y-99785600D02*
X163969700Y-101580300D01*
X162175000Y-99525300D02*
X162175000Y-99785600D01*
X169545000Y-60935300D02*
X169545000Y-60695300D01*
X166715300Y-63765000D02*
X169545000Y-60935300D01*
X162775300Y-63765000D02*
X166715300Y-63765000D01*
X134538900Y-71672100D02*
X134538900Y-71120000D01*
X137140900Y-74274100D02*
X134538900Y-71672100D01*
X137140900Y-76367800D02*
X137140900Y-74274100D01*
X137217400Y-76444300D02*
X137140900Y-76367800D01*
X161677300Y-63204600D02*
X162237700Y-63765000D01*
X154021500Y-63204600D02*
X161677300Y-63204600D01*
X152716800Y-64509300D02*
X154021500Y-63204600D01*
X148242300Y-64509300D02*
X152716800Y-64509300D01*
X146856300Y-65895300D02*
X148242300Y-64509300D01*
X133890000Y-65895300D02*
X146856300Y-65895300D01*
X195714400Y-82785900D02*
X196215000Y-82285300D01*
X182332000Y-82785900D02*
X195714400Y-82785900D01*
X181525400Y-81979300D02*
X182332000Y-82785900D01*
X181525400Y-80276500D02*
X181525400Y-81979300D01*
X180430100Y-79181200D02*
X181525400Y-80276500D01*
X178158500Y-79181200D02*
X180430100Y-79181200D01*
X178123900Y-79146600D02*
X178158500Y-79181200D01*
X171903800Y-79146600D02*
X178123900Y-79146600D01*
X136524500Y-96479800D02*
X136378200Y-96479800D01*
X136564700Y-96520000D02*
X136524500Y-96479800D01*
X136378300Y-88722400D02*
X136378300Y-88659900D01*
X137341000Y-89685100D02*
X136378300Y-88722400D01*
X104195900Y-96868600D02*
X104195900Y-96511100D01*
X105025000Y-97697700D02*
X104195900Y-96868600D01*
X135163100Y-89847100D02*
X135163100Y-91520700D01*
X134229100Y-88913100D02*
X135163100Y-89847100D01*
X133564400Y-88913100D02*
X134229100Y-88913100D01*
X133399200Y-88747800D02*
X133564400Y-88913100D01*
X161559900Y-99525300D02*
X162175000Y-99525300D01*
X160758300Y-98723700D02*
X161559900Y-99525300D01*
X152270700Y-98723700D02*
X160758300Y-98723700D01*
X152177400Y-98817000D02*
X152270700Y-98723700D01*
X151655000Y-98817000D02*
X152177400Y-98817000D01*
X149512300Y-100959700D02*
X151655000Y-98817000D01*
X148000000Y-100959700D02*
X149512300Y-100959700D01*
X97525000Y-96604700D02*
X102728700Y-96604700D01*
X134350000Y-106764700D02*
X135505000Y-106764700D01*
X133890600Y-106305300D02*
X134350000Y-106764700D01*
X133890600Y-105859000D02*
X133890600Y-106305300D01*
X135492000Y-104257600D02*
X133890600Y-105859000D01*
X135649600Y-104415200D02*
X135492000Y-104257600D01*
X138719400Y-104415200D02*
X135649600Y-104415200D01*
X140705000Y-106400800D02*
X138719400Y-104415200D01*
X140705000Y-106764700D02*
X140705000Y-106400800D01*
X97525000Y-97017300D02*
X97525000Y-97430000D01*
X97525000Y-98255300D02*
X92325000Y-98255300D01*
X97525000Y-97430000D02*
X97525000Y-98255300D01*
X92325000Y-97430000D02*
X92325000Y-98255300D01*
X167004900Y-82285300D02*
X169545000Y-82285300D01*
X165899700Y-83390500D02*
X167004900Y-82285300D01*
X165899700Y-83629300D02*
X165899700Y-83390500D01*
X160700000Y-88829000D02*
X165899700Y-83629300D01*
X160700000Y-88884700D02*
X160700000Y-88829000D01*
X116429600Y-70530000D02*
X115585300Y-70530000D01*
X116954900Y-71055300D02*
X116429600Y-70530000D01*
X129282500Y-71055300D02*
X116954900Y-71055300D01*
X129422800Y-70915000D02*
X129282500Y-71055300D01*
X133350000Y-70915000D02*
X129422800Y-70915000D01*
X133350000Y-71120000D02*
X133350000Y-70915000D01*
X133350000Y-66435300D02*
X133890000Y-65895300D01*
X133350000Y-70915000D02*
X133350000Y-66435300D01*
X138755000Y-113390000D02*
X138755000Y-112564700D01*
X171269900Y-109791100D02*
X170387200Y-108908400D01*
X171269900Y-111112700D02*
X171269900Y-109791100D01*
X170682400Y-111700200D02*
X171269900Y-111112700D01*
X143137600Y-111700200D02*
X170682400Y-111700200D01*
X142944700Y-111507300D02*
X143137600Y-111700200D01*
X139812400Y-111507300D02*
X142944700Y-111507300D01*
X138755000Y-112564700D02*
X139812400Y-111507300D01*
X142623500Y-114701800D02*
X142717900Y-114607400D01*
X139867300Y-114701800D02*
X142623500Y-114701800D01*
X139405000Y-114239500D02*
X139867300Y-114701800D01*
X139405000Y-113390000D02*
X139405000Y-114239500D01*
X176256900Y-120251000D02*
X177607200Y-118900700D01*
X149268600Y-120251000D02*
X176256900Y-120251000D01*
X140055000Y-113390000D02*
X140055000Y-114215300D01*
X141999700Y-114215300D02*
X140055000Y-114215300D01*
X143292800Y-112922200D02*
X141999700Y-114215300D01*
X175482100Y-112922200D02*
X143292800Y-112922200D01*
X177800000Y-110604300D02*
X175482100Y-112922200D01*
X142273100Y-112471900D02*
X141355000Y-113390000D01*
X173392400Y-112471900D02*
X142273100Y-112471900D01*
X175260000Y-110604300D02*
X173392400Y-112471900D01*
X164775000Y-104500000D02*
X164775000Y-105325300D01*
X167615600Y-108165900D02*
X164775000Y-105325300D01*
X170395000Y-108165900D02*
X167615600Y-108165900D01*
X172720000Y-110490900D02*
X170395000Y-108165900D01*
X172720000Y-110604300D02*
X172720000Y-110490900D01*
X164125000Y-105373200D02*
X164125000Y-104500000D01*
X169356100Y-110604300D02*
X164125000Y-105373200D01*
X170180000Y-110604300D02*
X169356100Y-110604300D01*
X166075000Y-104500000D02*
X166075000Y-103577700D01*
X173794600Y-118509600D02*
X168600800Y-118509600D01*
X176397000Y-115907200D02*
X173794600Y-118509600D01*
X176397000Y-114872200D02*
X176397000Y-115907200D01*
X176104300Y-114579500D02*
X176397000Y-114872200D01*
X166774000Y-103625700D02*
X166774000Y-103574300D01*
X166725000Y-103674700D02*
X166774000Y-103625700D01*
X166725000Y-104500000D02*
X166725000Y-103674700D01*
X168291500Y-105325300D02*
X168025000Y-105325300D01*
X168372300Y-105406100D02*
X168291500Y-105325300D01*
X168025000Y-104500000D02*
X168025000Y-105325300D01*
X163475000Y-107149300D02*
X163475000Y-104500000D01*
X160020000Y-110604300D02*
X163475000Y-107149300D01*
D44*
X208518800Y-114300000D02*
X203930000Y-114300000D01*
X203930000Y-114300000D02*
X203930000Y-113074700D01*
X202177600Y-111322300D02*
X203930000Y-113074700D01*
X187803000Y-111322300D02*
X202177600Y-111322300D01*
X130567600Y-62230000D02*
X143510000Y-62230000D01*
D45*
X92994700Y-104055300D02*
X93074900Y-104135500D01*
X92975000Y-104055300D02*
X92994700Y-104055300D01*
X92975000Y-103230000D02*
X92975000Y-104055300D01*
X179832000Y-132658800D02*
X179832000Y-135890000D01*
X138105000Y-113390000D02*
X138105000Y-114215300D01*
X178256800Y-113372500D02*
X180340000Y-115455700D01*
X144780100Y-113372500D02*
X178256800Y-113372500D01*
X143000500Y-115152100D02*
X144780100Y-113372500D01*
X139041800Y-115152100D02*
X143000500Y-115152100D01*
X138105000Y-114215300D02*
X139041800Y-115152100D01*
X177292000Y-132663300D02*
X177292000Y-135890000D01*
X137455000Y-113390000D02*
X137455000Y-114215300D01*
X176167100Y-113822800D02*
X177800000Y-115455700D01*
X145519200Y-113822800D02*
X176167100Y-113822800D01*
X143739600Y-115602400D02*
X145519200Y-113822800D01*
X138842100Y-115602400D02*
X143739600Y-115602400D01*
X137455000Y-114215300D02*
X138842100Y-115602400D01*
X174752000Y-132646200D02*
X174752000Y-135890000D01*
X136805000Y-113390000D02*
X136805000Y-114215300D01*
X138642500Y-116052800D02*
X136805000Y-114215300D01*
X144946500Y-116052800D02*
X138642500Y-116052800D01*
X145441100Y-116547400D02*
X144946500Y-116052800D01*
X148120800Y-116547400D02*
X145441100Y-116547400D01*
X149017400Y-117444000D02*
X148120800Y-116547400D01*
X151226900Y-117444000D02*
X149017400Y-117444000D01*
X151677200Y-116993700D02*
X151226900Y-117444000D01*
X167669900Y-116993700D02*
X151677200Y-116993700D01*
X168910000Y-115753600D02*
X167669900Y-116993700D01*
X168910000Y-115136400D02*
X168910000Y-115753600D01*
X169687800Y-114358600D02*
X168910000Y-115136400D01*
X174162900Y-114358600D02*
X169687800Y-114358600D01*
X175260000Y-115455700D02*
X174162900Y-114358600D01*
X136155000Y-113390000D02*
X136155000Y-114215300D01*
X172212000Y-135890000D02*
X172212000Y-132645800D01*
X139387700Y-117448000D02*
X136155000Y-114215300D01*
X147747600Y-117448000D02*
X139387700Y-117448000D01*
X148644200Y-118344600D02*
X147747600Y-117448000D01*
X151600100Y-118344600D02*
X148644200Y-118344600D01*
X152050400Y-117894300D02*
X151600100Y-118344600D01*
X170281400Y-117894300D02*
X152050400Y-117894300D01*
X172720000Y-115455700D02*
X170281400Y-117894300D01*
X169672000Y-132693800D02*
X169672000Y-135890000D01*
X122305000Y-103230000D02*
X122305000Y-104055300D01*
X122652700Y-104403000D02*
X125561900Y-104403000D01*
X122305000Y-104055300D02*
X122652700Y-104403000D01*
X139764700Y-116997700D02*
X139430500Y-116663500D01*
X147934200Y-116997700D02*
X139764700Y-116997700D01*
X148830800Y-117894300D02*
X147934200Y-116997700D01*
X151413500Y-117894300D02*
X148830800Y-117894300D01*
X151863800Y-117444000D02*
X151413500Y-117894300D01*
X168191700Y-117444000D02*
X151863800Y-117444000D01*
X170180000Y-115455700D02*
X168191700Y-117444000D01*
X167132000Y-132680700D02*
X167132000Y-135890000D01*
X121005000Y-103230000D02*
X121005000Y-102404700D01*
X166532500Y-114348200D02*
X150580700Y-114348200D01*
X167640000Y-115455700D02*
X166532500Y-114348200D01*
X138590900Y-109852300D02*
X138590900Y-109854300D01*
X138517800Y-109779200D02*
X138590900Y-109852300D01*
X134548700Y-109779200D02*
X138517800Y-109779200D01*
X128935700Y-104166200D02*
X134548700Y-109779200D01*
X128935700Y-103217100D02*
X128935700Y-104166200D01*
X128611400Y-102892800D02*
X128935700Y-103217100D01*
X123337400Y-102892800D02*
X128611400Y-102892800D01*
X122849300Y-102404700D02*
X123337400Y-102892800D01*
X121005000Y-102404700D02*
X122849300Y-102404700D01*
X164592000Y-135890000D02*
X164592000Y-132673700D01*
X163051800Y-109440900D02*
X162756500Y-109440900D01*
X163658300Y-110047400D02*
X163051800Y-109440900D01*
X132963100Y-106919800D02*
X132963100Y-106133900D01*
X134921900Y-108878600D02*
X132963100Y-106919800D01*
X139136300Y-108878600D02*
X134921900Y-108878600D01*
X139393300Y-108621600D02*
X139136300Y-108878600D01*
X143581700Y-108621600D02*
X139393300Y-108621600D01*
X144936500Y-107266800D02*
X143581700Y-108621600D01*
X148046600Y-107266800D02*
X144936500Y-107266800D01*
X150949700Y-104363700D02*
X148046600Y-107266800D01*
X154232700Y-104363700D02*
X150949700Y-104363700D01*
X119055000Y-103230000D02*
X119055000Y-102404700D01*
X123164500Y-95797400D02*
X125374200Y-98007100D01*
X154650700Y-107900700D02*
X154177300Y-107427300D01*
X161715800Y-107900700D02*
X154650700Y-107900700D01*
X108509400Y-98995500D02*
X106833800Y-100671100D01*
X117625500Y-98995500D02*
X108509400Y-98995500D01*
X130421700Y-91860000D02*
X127081600Y-91860000D01*
X130471900Y-91910200D02*
X130421700Y-91860000D01*
X118179400Y-101529100D02*
X119055000Y-102404700D01*
X115186900Y-101529100D02*
X118179400Y-101529100D01*
X114454500Y-100796700D02*
X115186900Y-101529100D01*
X109784300Y-100796700D02*
X114454500Y-100796700D01*
X109697800Y-100883200D02*
X109784300Y-100796700D01*
X165425000Y-104500000D02*
X165425000Y-103674700D01*
X165325300Y-103575000D02*
X164554500Y-103575000D01*
X165425000Y-103674700D02*
X165325300Y-103575000D01*
X162052000Y-132665600D02*
X162052000Y-135890000D01*
X159512000Y-132667300D02*
X159512000Y-135890000D01*
X161890300Y-106260000D02*
X162825000Y-105325300D01*
X160899000Y-106260000D02*
X161890300Y-106260000D01*
X162825000Y-104500000D02*
X162825000Y-105325300D01*
X156972000Y-132644500D02*
X156972000Y-135890000D01*
X119705000Y-103230000D02*
X119705000Y-102404700D01*
X148232300Y-116022000D02*
X147846800Y-116022000D01*
X149204000Y-116993700D02*
X148232300Y-116022000D01*
X150909300Y-116993700D02*
X149204000Y-116993700D01*
X151359600Y-116543400D02*
X150909300Y-116993700D01*
X156392300Y-116543400D02*
X151359600Y-116543400D01*
X157480000Y-115455700D02*
X156392300Y-116543400D01*
X120184600Y-101925100D02*
X124222300Y-101925100D01*
X119705000Y-102404700D02*
X120184600Y-101925100D01*
X154432000Y-132649300D02*
X154432000Y-135890000D01*
X120355000Y-104074800D02*
X120355000Y-103230000D01*
X120286400Y-104143400D02*
X120355000Y-104074800D01*
X131037200Y-114189100D02*
X123877700Y-114189100D01*
X134746400Y-117898300D02*
X131037200Y-114189100D01*
X147561000Y-117898300D02*
X134746400Y-117898300D01*
X148482800Y-118820100D02*
X147561000Y-117898300D01*
X154638500Y-118820100D02*
X148482800Y-118820100D01*
X151892000Y-132686800D02*
X151892000Y-135890000D01*
X147366600Y-114513900D02*
X146967900Y-114513900D01*
X149396100Y-116543400D02*
X147366600Y-114513900D01*
X150722700Y-116543400D02*
X149396100Y-116543400D01*
X151810400Y-115455700D02*
X150722700Y-116543400D01*
X152400000Y-115455700D02*
X151810400Y-115455700D01*
X109575000Y-103230000D02*
X109575000Y-102404700D01*
X110039200Y-101940500D02*
X113316000Y-101940500D01*
X109575000Y-102404700D02*
X110039200Y-101940500D01*
X140087800Y-110297600D02*
X142751600Y-110297600D01*
X140032900Y-110352500D02*
X140087800Y-110297600D01*
X149352000Y-132679000D02*
X149352000Y-135890000D01*
X110875000Y-103230000D02*
X110875000Y-102404700D01*
X113890300Y-102285200D02*
X116420800Y-102285200D01*
X113696300Y-102479200D02*
X113890300Y-102285200D01*
X113111800Y-102479200D02*
X113696300Y-102479200D01*
X113037300Y-102404700D02*
X113111800Y-102479200D01*
X110875000Y-102404700D02*
X113037300Y-102404700D01*
X199930000Y-114300000D02*
X195729900Y-114300000D01*
X212630000Y-100330000D02*
X208429900Y-100330000D01*
X114300000Y-82010000D02*
X114300000Y-86210100D01*
X133522600Y-90038600D02*
X134106200Y-89455000D01*
X134257300Y-89606200D02*
X134106200Y-89455000D01*
X134270000Y-89606200D02*
X134257300Y-89606200D01*
X134646300Y-89982500D02*
X134270000Y-89606200D01*
X134646300Y-90279900D02*
X134646300Y-89982500D01*
X133461400Y-91464800D02*
X134646300Y-90279900D01*
X131298500Y-91464800D02*
X133461400Y-91464800D01*
X131186600Y-91352900D02*
X131298500Y-91464800D01*
X129992800Y-91352900D02*
X131186600Y-91352900D01*
X128210300Y-89570400D02*
X129992800Y-91352900D01*
X128046000Y-89570400D02*
X128210300Y-89570400D01*
X127525500Y-89049900D02*
X128046000Y-89570400D01*
X114300000Y-89049900D02*
X127525500Y-89049900D01*
X98175000Y-103230000D02*
X98175000Y-104055300D01*
X125730000Y-110604300D02*
X124642700Y-110604300D01*
X124642700Y-110468300D02*
X124642700Y-110604300D01*
X121484100Y-107309700D02*
X124642700Y-110468300D01*
X117299500Y-107309700D02*
X121484100Y-107309700D01*
X116729800Y-106740000D02*
X117299500Y-107309700D01*
X100859700Y-106740000D02*
X116729800Y-106740000D01*
X98175000Y-104055300D02*
X100859700Y-106740000D01*
X94275000Y-104136400D02*
X94275000Y-103230000D01*
X120345700Y-107760000D02*
X123190000Y-110604300D01*
X117112900Y-107760000D02*
X120345700Y-107760000D01*
X116899700Y-107546800D02*
X117112900Y-107760000D01*
X101960500Y-107546800D02*
X116899700Y-107546800D01*
X96875000Y-103230000D02*
X96875000Y-104055300D01*
X118256000Y-108210300D02*
X120650000Y-110604300D01*
X116926300Y-108210300D02*
X118256000Y-108210300D01*
X116806900Y-108090900D02*
X116926300Y-108210300D01*
X100910600Y-108090900D02*
X116806900Y-108090900D01*
X96875000Y-104055300D02*
X100910600Y-108090900D01*
X95575000Y-103230000D02*
X95575000Y-102404700D01*
X106781400Y-106281000D02*
X117650600Y-106281000D01*
X102119200Y-101618800D02*
X106781400Y-106281000D01*
X96360900Y-101618800D02*
X102119200Y-101618800D01*
X95575000Y-102404700D02*
X96360900Y-101618800D01*
X111942700Y-111691600D02*
X113030000Y-110604300D01*
X98675000Y-111691600D02*
X111942700Y-111691600D01*
X95025700Y-108042300D02*
X98675000Y-111691600D01*
X95025700Y-105763000D02*
X95025700Y-108042300D01*
X93625000Y-104362300D02*
X95025700Y-105763000D01*
X93625000Y-103230000D02*
X93625000Y-104362300D01*
X122682000Y-135890000D02*
X122682000Y-132770700D01*
X121727200Y-132770700D02*
X121625800Y-132669300D01*
X122682000Y-132770700D02*
X121727200Y-132770700D01*
X94925000Y-103230000D02*
X94925000Y-104055300D01*
X95602300Y-104055300D02*
X95686600Y-104139600D01*
X94925000Y-104055300D02*
X95602300Y-104055300D01*
X120418800Y-118226900D02*
X110679400Y-118226900D01*
X123190000Y-115455700D02*
X120418800Y-118226900D01*
X120142000Y-135890000D02*
X120142000Y-132770700D01*
X120388300Y-132770700D02*
X120489300Y-132669700D01*
X120142000Y-132770700D02*
X120388300Y-132770700D01*
X115531900Y-112130500D02*
X119891700Y-112130500D01*
X114300000Y-110898600D02*
X115531900Y-112130500D01*
X114300000Y-110320400D02*
X114300000Y-110898600D01*
X112520800Y-108541200D02*
X114300000Y-110320400D01*
X100648100Y-108541200D02*
X112520800Y-108541200D01*
X96225000Y-104118100D02*
X100648100Y-108541200D01*
X96225000Y-103230000D02*
X96225000Y-104118100D01*
X117602000Y-135890000D02*
X117602000Y-132770700D01*
X117563500Y-132770700D02*
X117466900Y-132674100D01*
X117602000Y-132770700D02*
X117563500Y-132770700D01*
X118405000Y-103230000D02*
X118405000Y-104055300D01*
X118331500Y-104128800D02*
X118331500Y-104166700D01*
X118405000Y-104055300D02*
X118331500Y-104128800D01*
X115062000Y-135890000D02*
X115062000Y-132770700D01*
X114237100Y-132770700D02*
X114134600Y-132668200D01*
X115062000Y-132770700D02*
X114237100Y-132770700D01*
X117755000Y-103230000D02*
X117755000Y-104055300D01*
X117171100Y-104639200D02*
X114997600Y-104639200D01*
X117755000Y-104055300D02*
X117171100Y-104639200D01*
X117105000Y-103230000D02*
X117105000Y-104055300D01*
X112522000Y-135890000D02*
X112522000Y-132770700D01*
X111608300Y-132770700D02*
X111511700Y-132674100D01*
X112522000Y-132770700D02*
X111608300Y-132770700D01*
X117105000Y-104055300D02*
X115263700Y-104055300D01*
X105936400Y-63418900D02*
X109220000Y-63418900D01*
X104045300Y-65310000D02*
X105936400Y-63418900D01*
X109220000Y-62230000D02*
X109220000Y-63418900D01*
X102870000Y-65310000D02*
X104045300Y-65310000D01*
X136633900Y-90793300D02*
X136633900Y-90392200D01*
X134991700Y-92435500D02*
X136633900Y-90793300D01*
X128937800Y-92435500D02*
X134991700Y-92435500D01*
X128887700Y-92385400D02*
X128937800Y-92435500D01*
X107148700Y-60420000D02*
X107878700Y-59690000D01*
X102870000Y-60420000D02*
X107148700Y-60420000D01*
X109220000Y-59690000D02*
X107878700Y-59690000D01*
X133876100Y-90392200D02*
X133292600Y-90975700D01*
X131223200Y-90752600D02*
X130210400Y-90752600D01*
X131446300Y-90975700D02*
X131223200Y-90752600D01*
X133292600Y-90975700D02*
X131446300Y-90975700D01*
X129545400Y-79651700D02*
X131930400Y-77266700D01*
X129545400Y-80475200D02*
X129545400Y-79651700D01*
X129987100Y-80916900D02*
X129545400Y-80475200D01*
X130170000Y-98420000D02*
X129540000Y-97790000D01*
X130573800Y-98420000D02*
X130170000Y-98420000D01*
X133169000Y-89685100D02*
X132585500Y-90268600D01*
X132544100Y-90227200D02*
X130767100Y-90227200D01*
X132585500Y-90268600D02*
X132544100Y-90227200D01*
X133396200Y-59257400D02*
X150089800Y-59257400D01*
X129184800Y-71895900D02*
X120445000Y-71895900D01*
X129640400Y-71440300D02*
X129184800Y-71895900D01*
X94275100Y-96604700D02*
X94380500Y-96499300D01*
X94275000Y-96604700D02*
X94275100Y-96604700D01*
X94275000Y-97430000D02*
X94275000Y-96604700D01*
X141832100Y-80314900D02*
X144171300Y-80314900D01*
X140876500Y-81270500D02*
X141832100Y-80314900D01*
X110734000Y-65654400D02*
X119909800Y-65654400D01*
X109044700Y-67343700D02*
X110734000Y-65654400D01*
X95437800Y-67343700D02*
X109044700Y-67343700D01*
X95175900Y-67081800D02*
X95437800Y-67343700D01*
X95175900Y-64992700D02*
X95175900Y-67081800D01*
X95479700Y-64688900D02*
X95175900Y-64992700D01*
X96520000Y-64688900D02*
X95479700Y-64688900D01*
X96520000Y-63500000D02*
X96520000Y-64688900D01*
X136890700Y-78478800D02*
X136836200Y-78533300D01*
X136890700Y-78185200D02*
X136890700Y-78478800D01*
X137341000Y-77734900D02*
X136890700Y-78185200D01*
X96520000Y-60960000D02*
X97861300Y-60960000D01*
X98646600Y-61745300D02*
X97861300Y-60960000D01*
X106973100Y-61745300D02*
X98646600Y-61745300D01*
X107758400Y-60960000D02*
X106973100Y-61745300D01*
X119253000Y-60960000D02*
X107758400Y-60960000D01*
X134508700Y-77660400D02*
X134575100Y-77660400D01*
X133876100Y-77027800D02*
X134508700Y-77660400D01*
X201295000Y-81260000D02*
X201295000Y-82285300D01*
X174625000Y-81260000D02*
X174625000Y-80234700D01*
X174625000Y-81260000D02*
X174625000Y-82285300D01*
X201295000Y-59670000D02*
X201295000Y-58644700D01*
X201295000Y-58644700D02*
X200660000Y-58644700D01*
X147350000Y-101484800D02*
X147350000Y-100959700D01*
X147350000Y-101484800D02*
X147350000Y-102010000D01*
X147350000Y-102010000D02*
X147350000Y-103060300D01*
X118405000Y-97430000D02*
X118405000Y-98255300D01*
X174625000Y-60810000D02*
X174706100Y-60891100D01*
X174625000Y-59670000D02*
X174625000Y-60810000D01*
X180160100Y-80234700D02*
X174625000Y-80234700D01*
X180266400Y-80341000D02*
X180160100Y-80234700D01*
X180266400Y-82226300D02*
X180266400Y-80341000D01*
X181772800Y-83732700D02*
X180266400Y-82226300D01*
X199847600Y-83732700D02*
X181772800Y-83732700D01*
X201295000Y-82285300D02*
X199847600Y-83732700D01*
X168662100Y-84149700D02*
X168111800Y-84700000D01*
X172760600Y-84149700D02*
X168662100Y-84149700D01*
X174625000Y-82285300D02*
X172760600Y-84149700D01*
X158653300Y-98273400D02*
X158728400Y-98198300D01*
X152084100Y-98273400D02*
X158653300Y-98273400D01*
X151990800Y-98366700D02*
X152084100Y-98273400D01*
X151468400Y-98366700D02*
X151990800Y-98366700D01*
X149505500Y-100329600D02*
X151468400Y-98366700D01*
X147980100Y-100329600D02*
X149505500Y-100329600D01*
X147350000Y-100959700D02*
X147980100Y-100329600D01*
X118405000Y-98395100D02*
X118405000Y-98255300D01*
X118633100Y-98623200D02*
X118405000Y-98395100D01*
X118633100Y-98826100D02*
X118633100Y-98623200D01*
X119245100Y-99438100D02*
X118633100Y-98826100D01*
X124473300Y-99438100D02*
X119245100Y-99438100D01*
X125079600Y-100044400D02*
X124473300Y-99438100D01*
X135091800Y-100044400D02*
X125079600Y-100044400D01*
X135569200Y-100521800D02*
X135091800Y-100044400D01*
X138547100Y-100521800D02*
X135569200Y-100521800D01*
X141560700Y-103535400D02*
X138547100Y-100521800D01*
X146874900Y-103535400D02*
X141560700Y-103535400D01*
X147350000Y-103060300D02*
X146874900Y-103535400D01*
X148000000Y-96052600D02*
X148638000Y-95414600D01*
X148000000Y-96110000D02*
X148000000Y-96052600D01*
X117755000Y-98382000D02*
X117755000Y-97430000D01*
X118182800Y-98809800D02*
X117755000Y-98382000D01*
X118182800Y-99012700D02*
X118182800Y-98809800D01*
X119101800Y-99931700D02*
X118182800Y-99012700D01*
X124330000Y-99931700D02*
X119101800Y-99931700D01*
X124893000Y-100494700D02*
X124330000Y-99931700D01*
X134905200Y-100494700D02*
X124893000Y-100494700D01*
X135382600Y-100972100D02*
X134905200Y-100494700D01*
X138254400Y-100972100D02*
X135382600Y-100972100D01*
X138491800Y-101209500D02*
X138254400Y-100972100D01*
X113734700Y-67930000D02*
X113734700Y-67280000D01*
X114660000Y-67930000D02*
X113734700Y-67930000D01*
X114197400Y-67280000D02*
X113734700Y-67280000D01*
X114197400Y-67280000D02*
X114660000Y-67280000D01*
X121560000Y-70530000D02*
X120634700Y-70530000D01*
X120634700Y-69880000D02*
X121560000Y-69880000D01*
X120634700Y-69880000D02*
X120634700Y-70530000D01*
X160888500Y-54580000D02*
X162200000Y-54580000D01*
X160050000Y-82910000D02*
X160050000Y-81898300D01*
X120092900Y-69338200D02*
X117152800Y-69338200D01*
X120634700Y-69880000D02*
X120092900Y-69338200D01*
X115585300Y-67770700D02*
X117152800Y-69338200D01*
X115585300Y-67280000D02*
X115585300Y-67770700D01*
X114660000Y-67280000D02*
X115585300Y-67280000D01*
X131890500Y-69880000D02*
X121560000Y-69880000D01*
X117105000Y-95334700D02*
X116754500Y-94984200D01*
X117105000Y-97430000D02*
X117105000Y-95334700D01*
X99790000Y-53340000D02*
X97994600Y-53340000D01*
X97312400Y-73662300D02*
X97312400Y-72537000D01*
X131432700Y-86471700D02*
X132235600Y-86471700D01*
X130694200Y-87210200D02*
X131432700Y-86471700D01*
X97618100Y-72537000D02*
X97712500Y-72442600D01*
X97312400Y-72537000D02*
X97618100Y-72537000D01*
X183515000Y-72410000D02*
X183515000Y-73435300D01*
X210185000Y-72410000D02*
X210185000Y-73435300D01*
X210185000Y-94000000D02*
X210185000Y-92974700D01*
X210626500Y-92974700D02*
X210185000Y-92974700D01*
X210820000Y-93168200D02*
X210626500Y-92974700D01*
X210185000Y-94000000D02*
X210185000Y-95025300D01*
X183515000Y-93927600D02*
X183515000Y-92974700D01*
X209830700Y-73789600D02*
X210185000Y-73435300D01*
X209830700Y-77536600D02*
X209830700Y-73789600D01*
X184866000Y-91623700D02*
X183515000Y-92974700D01*
X191816700Y-91623700D02*
X184866000Y-91623700D01*
X195681200Y-95488200D02*
X191816700Y-91623700D01*
X209722100Y-95488200D02*
X195681200Y-95488200D01*
X210185000Y-95025300D02*
X209722100Y-95488200D01*
X187855400Y-77775700D02*
X183515000Y-73435300D01*
X200186100Y-77775700D02*
X187855400Y-77775700D01*
X200879200Y-77082600D02*
X200186100Y-77775700D01*
X209376700Y-77082600D02*
X200879200Y-77082600D01*
X209830700Y-77536600D02*
X209376700Y-77082600D01*
X183515000Y-93927600D02*
X183515000Y-94000000D01*
X175217800Y-101907000D02*
X171576100Y-101907000D01*
X176110700Y-101014100D02*
X175217800Y-101907000D01*
X141355000Y-107590000D02*
X141355000Y-106764700D01*
X183515000Y-94000000D02*
X183515000Y-95025300D01*
X145662400Y-106528000D02*
X145662400Y-105662600D01*
X145374000Y-106816400D02*
X145662400Y-106528000D01*
X141932000Y-106816400D02*
X145374000Y-106816400D01*
X141880300Y-106764700D02*
X141932000Y-106816400D01*
X141355000Y-106764700D02*
X141880300Y-106764700D01*
X129991400Y-88620000D02*
X131047700Y-87563700D01*
X129786500Y-88620000D02*
X129991400Y-88620000D01*
X181991800Y-95025300D02*
X183515000Y-95025300D01*
X181414400Y-95602700D02*
X181991800Y-95025300D01*
X148695700Y-105662600D02*
X145662400Y-105662600D01*
X150765800Y-103592500D02*
X148695700Y-105662600D01*
X155387600Y-103592500D02*
X150765800Y-103592500D01*
X137860900Y-102489100D02*
X129853300Y-102489100D01*
X141034400Y-105662600D02*
X137860900Y-102489100D01*
X145662400Y-105662600D02*
X141034400Y-105662600D01*
X182245000Y-72410000D02*
X182245000Y-71384700D01*
X208915000Y-72410000D02*
X208915000Y-73435300D01*
X208915000Y-94000000D02*
X208915000Y-92974700D01*
X192436200Y-91430500D02*
X192348300Y-91518400D01*
X188173200Y-77220300D02*
X189961000Y-77220300D01*
X184065400Y-73112500D02*
X188173200Y-77220300D01*
X184065400Y-71512200D02*
X184065400Y-73112500D01*
X183937900Y-71384700D02*
X184065400Y-71512200D01*
X182245000Y-71384700D02*
X183937900Y-71384700D01*
X182245000Y-93487300D02*
X182245000Y-92974700D01*
X208258000Y-92317700D02*
X208915000Y-92974700D01*
X204070300Y-92317700D02*
X208258000Y-92317700D01*
X203149900Y-93238100D02*
X204070300Y-92317700D01*
X203149900Y-94822900D02*
X203149900Y-93238100D01*
X202935000Y-95037800D02*
X203149900Y-94822900D01*
X195867700Y-95037800D02*
X202935000Y-95037800D01*
X192348300Y-91518400D02*
X195867700Y-95037800D01*
X190066000Y-77325300D02*
X189961000Y-77220300D01*
X199999600Y-77325300D02*
X190066000Y-77325300D01*
X200692600Y-76632300D02*
X199999600Y-77325300D01*
X206049900Y-76632300D02*
X200692600Y-76632300D01*
X208915000Y-73767200D02*
X206049900Y-76632300D01*
X208915000Y-73435300D02*
X208915000Y-73767200D01*
X132162800Y-87155800D02*
X131401300Y-87917300D01*
X132318300Y-87155800D02*
X132162800Y-87155800D01*
X140055000Y-106717200D02*
X139559500Y-106221700D01*
X140055000Y-107590000D02*
X140055000Y-106717200D01*
X184046400Y-91173300D02*
X182245000Y-92974700D01*
X192003200Y-91173300D02*
X184046400Y-91173300D01*
X192348300Y-91518400D02*
X192003200Y-91173300D01*
X182245000Y-93487300D02*
X182245000Y-94000000D01*
X160288600Y-98198300D02*
X159678600Y-98198300D01*
X161121200Y-97365700D02*
X160288600Y-98198300D01*
X166765800Y-97365700D02*
X161121200Y-97365700D01*
X167787000Y-96344500D02*
X166765800Y-97365700D01*
X179894500Y-96344500D02*
X167787000Y-96344500D01*
X181213600Y-95025400D02*
X179894500Y-96344500D01*
X181354800Y-95025400D02*
X181213600Y-95025400D01*
X182245000Y-94135200D02*
X181354800Y-95025400D01*
X182245000Y-94000000D02*
X182245000Y-94135200D01*
X159655200Y-99717600D02*
X159673500Y-99699300D01*
X152487600Y-99717600D02*
X159655200Y-99717600D01*
X147351200Y-104854000D02*
X152487600Y-99717600D01*
X141624400Y-104854000D02*
X147351200Y-104854000D01*
X207645000Y-94000000D02*
X207645000Y-92974700D01*
X207366100Y-73714200D02*
X207366100Y-74573100D01*
X207645000Y-73435300D02*
X207366100Y-73714200D01*
X207645000Y-92874300D02*
X207645000Y-92974700D01*
X207645000Y-72410000D02*
X207645000Y-73435300D01*
X139405000Y-107590000D02*
X139405000Y-106764700D01*
X131754800Y-88270800D02*
X131092400Y-88933200D01*
X180975000Y-72410000D02*
X180975000Y-73554300D01*
X180975000Y-92919700D02*
X180941700Y-92886400D01*
X180975000Y-94000000D02*
X180975000Y-92919700D01*
X181024900Y-88843200D02*
X180841800Y-89026300D01*
X203613900Y-88843200D02*
X181024900Y-88843200D01*
X205597500Y-90826800D02*
X203613900Y-88843200D01*
X169122800Y-91290600D02*
X168630800Y-91782600D01*
X174079200Y-91290600D02*
X169122800Y-91290600D01*
X176041700Y-89328100D02*
X174079200Y-91290600D01*
X180540000Y-89328100D02*
X176041700Y-89328100D01*
X180841800Y-89026300D02*
X180540000Y-89328100D01*
X138462400Y-105007400D02*
X138515500Y-104954300D01*
X138706300Y-105251300D02*
X138462400Y-105007400D01*
X138706300Y-106155300D02*
X138706300Y-105251300D01*
X139315700Y-106764700D02*
X138706300Y-106155300D01*
X139405000Y-106764700D02*
X139315700Y-106764700D01*
X135606400Y-104934400D02*
X134467800Y-106073000D01*
X138389400Y-104934400D02*
X135606400Y-104934400D01*
X138462400Y-105007400D02*
X138389400Y-104934400D01*
X140039300Y-97645400D02*
X139952900Y-97559000D01*
X148793100Y-97645400D02*
X140039300Y-97645400D01*
X150566700Y-95871800D02*
X148793100Y-97645400D01*
X155047800Y-95871800D02*
X150566700Y-95871800D01*
X155107000Y-95931000D02*
X155047800Y-95871800D01*
X161317200Y-95931000D02*
X155107000Y-95931000D01*
X162135900Y-95112300D02*
X161317200Y-95931000D01*
X206375000Y-94000000D02*
X206375000Y-95025300D01*
X179705000Y-72410000D02*
X179705000Y-71384700D01*
X180109300Y-71384700D02*
X180142700Y-71351300D01*
X179705000Y-71384700D02*
X180109300Y-71384700D01*
X206375000Y-72410000D02*
X206375000Y-73435300D01*
X209465400Y-94904500D02*
X209465400Y-93043400D01*
X209344600Y-95025300D02*
X209465400Y-94904500D01*
X206375000Y-95025300D02*
X209344600Y-95025300D01*
X206737700Y-73435300D02*
X206817400Y-73515000D01*
X206375000Y-73435300D02*
X206737700Y-73435300D01*
X138755000Y-107590000D02*
X138755000Y-108415300D01*
X179705000Y-93487300D02*
X179705000Y-92974700D01*
X179705000Y-93487300D02*
X179705000Y-94000000D01*
X131196500Y-89626800D02*
X130994000Y-89626800D01*
X131617700Y-89205600D02*
X131196500Y-89626800D01*
X131617700Y-89115100D02*
X131617700Y-89205600D01*
X132108400Y-88624400D02*
X131617700Y-89115100D01*
X162212100Y-88477900D02*
X162085300Y-88351100D01*
X173587600Y-88477900D02*
X162212100Y-88477900D01*
X174553400Y-87512100D02*
X173587600Y-88477900D01*
X177749900Y-87512100D02*
X174553400Y-87512100D01*
X178466000Y-86796000D02*
X177749900Y-87512100D01*
X179469800Y-86796000D02*
X178466000Y-86796000D01*
X179964500Y-92715200D02*
X180188400Y-92715200D01*
X179705000Y-92974700D02*
X179964500Y-92715200D01*
X182474000Y-69020000D02*
X204327000Y-69020000D01*
X180142700Y-71351300D02*
X182474000Y-69020000D01*
X149589700Y-101519200D02*
X148655100Y-101519200D01*
X151841600Y-99267300D02*
X149589700Y-101519200D01*
X152364000Y-99267300D02*
X151841600Y-99267300D01*
X152457300Y-99174000D02*
X152364000Y-99267300D01*
X159891200Y-99174000D02*
X152457300Y-99174000D01*
X160291200Y-99574000D02*
X159891200Y-99174000D01*
X134664300Y-107981300D02*
X134664300Y-107463600D01*
X135098300Y-108415300D02*
X134664300Y-107981300D01*
X138755000Y-108415300D02*
X135098300Y-108415300D01*
X129633500Y-81270500D02*
X129049800Y-80686800D01*
X98175000Y-97430000D02*
X98175000Y-98255300D01*
X129049800Y-80640100D02*
X129049800Y-80686800D01*
X129020100Y-80610400D02*
X129049800Y-80640100D01*
X98175000Y-98255300D02*
X102792300Y-98255300D01*
X96875000Y-97430000D02*
X96875000Y-96604700D01*
X128669500Y-81013600D02*
X129279900Y-81624000D01*
X125564200Y-81013600D02*
X128669500Y-81013600D01*
X106706400Y-93687600D02*
X107037000Y-93687600D01*
X105983400Y-94410600D02*
X106706400Y-93687600D01*
X99069100Y-94410600D02*
X105983400Y-94410600D01*
X96875000Y-96604700D02*
X99069100Y-94410600D01*
X139206700Y-84479700D02*
X140876500Y-86149500D01*
X139126400Y-84479700D02*
X139206700Y-84479700D01*
X96225000Y-97430000D02*
X96225000Y-96604700D01*
X96413900Y-96415800D02*
X96413900Y-96279600D01*
X96225000Y-96604700D02*
X96413900Y-96415800D01*
X137374600Y-92947400D02*
X128447700Y-92947400D01*
X137938900Y-92383100D02*
X137374600Y-92947400D01*
X141529800Y-83090900D02*
X141353600Y-82914700D01*
X141529800Y-83498100D02*
X141529800Y-83090900D01*
X95575000Y-97430000D02*
X95575000Y-96604700D01*
X95575000Y-96330800D02*
X95575000Y-96604700D01*
X98062500Y-93843300D02*
X95575000Y-96330800D01*
X105178100Y-93843300D02*
X98062500Y-93843300D01*
X141937200Y-82331100D02*
X141353600Y-82914700D01*
X126603200Y-94668300D02*
X126543500Y-94608600D01*
X140092600Y-94668300D02*
X126603200Y-94668300D01*
X178435000Y-92885900D02*
X178435000Y-94000000D01*
X205105000Y-94000000D02*
X205105000Y-92974700D01*
X205105000Y-72410000D02*
X205105000Y-73435300D01*
X205105000Y-92974700D02*
X205012500Y-92882200D01*
X138105000Y-107590000D02*
X138105000Y-106764700D01*
X138504700Y-87354200D02*
X138385100Y-87354200D01*
X138525200Y-87333700D02*
X138504700Y-87354200D01*
X139108700Y-87917300D02*
X138525200Y-87333700D01*
X205105000Y-73435300D02*
X205593500Y-73435300D01*
X176527800Y-75342500D02*
X178435000Y-73435300D01*
X175250500Y-75342500D02*
X176527800Y-75342500D01*
X178435000Y-72410000D02*
X178435000Y-73435300D01*
X178961100Y-88317900D02*
X205012500Y-88317900D01*
X178704800Y-88574200D02*
X178961100Y-88317900D01*
X138180900Y-106688800D02*
X138180900Y-105469000D01*
X138105000Y-106764700D02*
X138180900Y-106688800D01*
X140174000Y-92255000D02*
X140097600Y-92331400D01*
X150644300Y-92255000D02*
X140174000Y-92255000D01*
X150859000Y-92469700D02*
X150644300Y-92255000D01*
X151873200Y-92469700D02*
X150859000Y-92469700D01*
X152023300Y-92319600D02*
X151873200Y-92469700D01*
X156338600Y-92319600D02*
X152023300Y-92319600D01*
X156397800Y-92378800D02*
X156338600Y-92319600D01*
X167269800Y-92378800D02*
X156397800Y-92378800D01*
X168808300Y-90840300D02*
X167269800Y-92378800D01*
X173892600Y-90840300D02*
X168808300Y-90840300D01*
X176158700Y-88574200D02*
X173892600Y-90840300D01*
X178704800Y-88574200D02*
X176158700Y-88574200D01*
X177165000Y-92904000D02*
X177165000Y-94000000D01*
X177135400Y-92874400D02*
X177165000Y-92904000D01*
X177165000Y-72410000D02*
X177165000Y-71384700D01*
X177165000Y-71384700D02*
X176688800Y-71384700D01*
X203835000Y-94000000D02*
X203835000Y-95025300D01*
X204251200Y-95025300D02*
X203835000Y-95025300D01*
X204470000Y-94806500D02*
X204251200Y-95025300D01*
X203835000Y-72410000D02*
X203835000Y-73534800D01*
X202346900Y-89293500D02*
X203633400Y-90580000D01*
X182232600Y-89293500D02*
X202346900Y-89293500D01*
X181747700Y-89778400D02*
X182232600Y-89293500D01*
X177285500Y-89778400D02*
X181747700Y-89778400D01*
X177210400Y-89853500D02*
X177285500Y-89778400D01*
X176153200Y-89853500D02*
X177210400Y-89853500D01*
X174265800Y-91740900D02*
X176153200Y-89853500D01*
X170435900Y-91740900D02*
X174265800Y-91740900D01*
X169845500Y-92331300D02*
X170435900Y-91740900D01*
X169845500Y-92331400D02*
X169845500Y-92331300D01*
X168902200Y-92331400D02*
X169845500Y-92331400D01*
X168537300Y-92696300D02*
X168902200Y-92331400D01*
X140150100Y-88251500D02*
X139462300Y-87563700D01*
X142295300Y-88251500D02*
X140150100Y-88251500D01*
X142938800Y-87608000D02*
X142295300Y-88251500D01*
X137606200Y-87360100D02*
X137606200Y-88112700D01*
X138143500Y-86822800D02*
X137606200Y-87360100D01*
X138721400Y-86822800D02*
X138143500Y-86822800D01*
X139462300Y-87563700D02*
X138721400Y-86822800D01*
X137698700Y-105835900D02*
X137623700Y-105760900D01*
X137698700Y-106509100D02*
X137698700Y-105835900D01*
X137455000Y-106752800D02*
X137698700Y-106509100D01*
X137455000Y-107590000D02*
X137455000Y-106752800D01*
X146529600Y-93268100D02*
X146430500Y-93367200D01*
X150383600Y-93268100D02*
X146529600Y-93268100D01*
X150485800Y-93370300D02*
X150383600Y-93268100D01*
X152246400Y-93370300D02*
X150485800Y-93370300D01*
X152396500Y-93220200D02*
X152246400Y-93370300D01*
X155965400Y-93220200D02*
X152396500Y-93220200D01*
X156129600Y-93384400D02*
X155965400Y-93220200D01*
X167076600Y-93384400D02*
X156129600Y-93384400D01*
X211455000Y-94000000D02*
X211455000Y-95025300D01*
X211455000Y-72410000D02*
X211455000Y-72959400D01*
X211455000Y-94000000D02*
X211455000Y-92974700D01*
X211455000Y-92974700D02*
X212090000Y-92974700D01*
X211455000Y-72959400D02*
X211455000Y-73532100D01*
X185664900Y-70504800D02*
X184785000Y-71384700D01*
X211083700Y-70504800D02*
X185664900Y-70504800D01*
X184785000Y-72410000D02*
X184785000Y-71384700D01*
X185685600Y-92074100D02*
X184785000Y-92974700D01*
X191630200Y-92074100D02*
X185685600Y-92074100D01*
X195494600Y-95938500D02*
X191630200Y-92074100D01*
X210541800Y-95938500D02*
X195494600Y-95938500D01*
X211455000Y-95025300D02*
X210541800Y-95938500D01*
X184785000Y-93487300D02*
X184785000Y-92974700D01*
X184785000Y-93487300D02*
X184785000Y-94000000D01*
X184785000Y-94000000D02*
X184785000Y-95025300D01*
X168025000Y-98700000D02*
X168025000Y-97874700D01*
X139815800Y-87210200D02*
X140399400Y-87793700D01*
X168025000Y-97573600D02*
X167939900Y-97573600D01*
X168025000Y-97874700D02*
X168025000Y-97573600D01*
X182931500Y-96878800D02*
X184785000Y-95025300D01*
X168719800Y-96878800D02*
X182931500Y-96878800D01*
X168025000Y-97573600D02*
X168719800Y-96878800D01*
X140565200Y-87627900D02*
X140399400Y-87793700D01*
X142176000Y-87627900D02*
X140565200Y-87627900D01*
X142721200Y-87082700D02*
X142176000Y-87627900D01*
X143079400Y-87082700D02*
X142721200Y-87082700D01*
X143183200Y-86978900D02*
X143079400Y-87082700D01*
X155714600Y-90939700D02*
X155760700Y-90893600D01*
X150379800Y-90939700D02*
X155714600Y-90939700D01*
X150194100Y-90754000D02*
X150379800Y-90939700D01*
X147506700Y-90754000D02*
X150194100Y-90754000D01*
X186055000Y-72410000D02*
X186055000Y-73435300D01*
X186055000Y-94000000D02*
X186055000Y-92974700D01*
X186251500Y-92778200D02*
X186505300Y-92778200D01*
X186055000Y-92974700D02*
X186251500Y-92778200D01*
X186069500Y-73449800D02*
X186069500Y-73515000D01*
X186055000Y-73435300D02*
X186069500Y-73449800D01*
X166725000Y-98700000D02*
X166725000Y-99525300D01*
X186055000Y-94000000D02*
X186055000Y-95025300D01*
X212725000Y-94000000D02*
X212725000Y-94512600D01*
X212725000Y-94512600D02*
X212725000Y-95025300D01*
X212775300Y-73435300D02*
X212725000Y-73435300D01*
X212855000Y-73515000D02*
X212775300Y-73435300D01*
X212725000Y-72410000D02*
X212725000Y-73435300D01*
X212712500Y-94500100D02*
X212712500Y-92898000D01*
X212725000Y-94512600D02*
X212712500Y-94500100D01*
X186759100Y-92524400D02*
X186505300Y-92778200D01*
X191443600Y-92524400D02*
X186759100Y-92524400D01*
X195308000Y-96388800D02*
X191443600Y-92524400D01*
X211361500Y-96388800D02*
X195308000Y-96388800D01*
X212725000Y-95025300D02*
X211361500Y-96388800D01*
X183751200Y-97329100D02*
X186055000Y-95025300D01*
X170345800Y-97329100D02*
X183751200Y-97329100D01*
X169423900Y-98251000D02*
X170345800Y-97329100D01*
X169423900Y-98513300D02*
X169423900Y-98251000D01*
X168411900Y-99525300D02*
X169423900Y-98513300D01*
X166725000Y-99525300D02*
X168411900Y-99525300D01*
X159435800Y-80619500D02*
X154374300Y-80619500D01*
X161669400Y-78385900D02*
X159435800Y-80619500D01*
X139528100Y-86215300D02*
X140169400Y-86856600D01*
X181942100Y-65096200D02*
X168732000Y-65096200D01*
X184569500Y-67723600D02*
X181942100Y-65096200D01*
X138642700Y-98630400D02*
X138547400Y-98535100D01*
X149187900Y-98630400D02*
X138642700Y-98630400D01*
X187325000Y-94000000D02*
X187325000Y-92974700D01*
X187325000Y-72410000D02*
X187325000Y-71897300D01*
X187325000Y-71897300D02*
X186690000Y-71897300D01*
X187325000Y-94000000D02*
X187325000Y-95025300D01*
X213995000Y-94512600D02*
X213995000Y-95025300D01*
X213995000Y-94512600D02*
X213995000Y-94000000D01*
X213720700Y-73435300D02*
X213995000Y-73435300D01*
X213641000Y-73515000D02*
X213720700Y-73435300D01*
X213995000Y-72410000D02*
X213995000Y-73435300D01*
X213995000Y-94000000D02*
X213995000Y-92893800D01*
X212181200Y-96839100D02*
X213995000Y-95025300D01*
X193961300Y-96839100D02*
X212181200Y-96839100D01*
X190203200Y-93081000D02*
X193961300Y-96839100D01*
X166075000Y-99000000D02*
X166075000Y-99525300D01*
X166075000Y-99000000D02*
X166075000Y-98700000D01*
X190096900Y-92974700D02*
X187325000Y-92974700D01*
X190203200Y-93081000D02*
X190096900Y-92974700D01*
X140522900Y-86503100D02*
X141106500Y-87086600D01*
X166557600Y-100007900D02*
X166075000Y-99525300D01*
X168672200Y-100007900D02*
X166557600Y-100007900D01*
X169531100Y-99149000D02*
X168672200Y-100007900D01*
X184570900Y-97779400D02*
X187325000Y-95025300D01*
X170532400Y-97779400D02*
X184570900Y-97779400D01*
X169874200Y-98437600D02*
X170532400Y-97779400D01*
X169874200Y-98805900D02*
X169874200Y-98437600D01*
X169531100Y-99149000D02*
X169874200Y-98805900D01*
X143108100Y-85764800D02*
X143310200Y-85764800D01*
X141952600Y-86920300D02*
X143108100Y-85764800D01*
X141272800Y-86920300D02*
X141952600Y-86920300D01*
X141106500Y-87086600D02*
X141272800Y-86920300D01*
X148483100Y-91390000D02*
X148436200Y-91343100D01*
X151451900Y-91390000D02*
X148483100Y-91390000D01*
X151480900Y-91419000D02*
X151451900Y-91390000D01*
X156161600Y-91419000D02*
X151480900Y-91419000D01*
X156236700Y-91343900D02*
X156161600Y-91419000D01*
X162775900Y-64414400D02*
X162775300Y-64415000D01*
X205285800Y-64414400D02*
X162775900Y-64414400D01*
X208915000Y-60785200D02*
X205285800Y-64414400D01*
X208915000Y-59670000D02*
X208915000Y-60785200D01*
X161700000Y-64415000D02*
X162775300Y-64415000D01*
X167870700Y-65065000D02*
X161700000Y-65065000D01*
X174909100Y-58026600D02*
X174821400Y-58114300D01*
X181448600Y-58026600D02*
X174909100Y-58026600D01*
X182245000Y-58823000D02*
X181448600Y-58026600D01*
X182245000Y-59670000D02*
X182245000Y-58823000D01*
X207734700Y-83465600D02*
X204633100Y-83465600D01*
X208915000Y-82285300D02*
X207734700Y-83465600D01*
X208915000Y-81260000D02*
X208915000Y-82285300D01*
X184570500Y-68467500D02*
X203153400Y-68467500D01*
X181818000Y-65715000D02*
X184570500Y-68467500D01*
X161700000Y-65715000D02*
X181818000Y-65715000D01*
X173944300Y-66365000D02*
X161700000Y-66365000D01*
X179154600Y-71575300D02*
X173944300Y-66365000D01*
X179154600Y-75135200D02*
X179154600Y-71575300D01*
X182427100Y-78407700D02*
X179154600Y-75135200D01*
X182427100Y-80052600D02*
X182427100Y-78407700D01*
X182245000Y-80234700D02*
X182427100Y-80052600D01*
X182245000Y-81260000D02*
X182245000Y-80234700D01*
X175895000Y-94000000D02*
X175895000Y-92974700D01*
X175453500Y-92974700D02*
X175895000Y-92974700D01*
X175260000Y-93168200D02*
X175453500Y-92974700D01*
X175895000Y-72410000D02*
X175895000Y-73435300D01*
X202565000Y-72410000D02*
X202565000Y-73435300D01*
X202565000Y-94000000D02*
X202565000Y-92974700D01*
X202565000Y-92974700D02*
X202028600Y-92974700D01*
X202326800Y-73435300D02*
X202565000Y-73435300D01*
X202230300Y-73531800D02*
X202326800Y-73435300D01*
X175572900Y-73757400D02*
X175572900Y-73779200D01*
X175895000Y-73435300D02*
X175572900Y-73757400D01*
X139914500Y-81740000D02*
X139732200Y-81922300D01*
X139914500Y-81525300D02*
X139914500Y-81740000D01*
X140522900Y-80916900D02*
X139914500Y-81525300D01*
X163844800Y-89655100D02*
X163844800Y-89720900D01*
X164115200Y-89384700D02*
X163844800Y-89655100D01*
X166320500Y-89384700D02*
X164115200Y-89384700D01*
X167100300Y-90164500D02*
X166320500Y-89384700D01*
X173825200Y-90164500D02*
X167100300Y-90164500D01*
X136805000Y-107590000D02*
X136805000Y-106764700D01*
X137173400Y-106396300D02*
X137173400Y-106291400D01*
X136805000Y-106764700D02*
X137173400Y-106396300D01*
X149402800Y-99158500D02*
X148522700Y-99158500D01*
X150931900Y-97629400D02*
X149402800Y-99158500D01*
X150931900Y-97209300D02*
X150931900Y-97629400D01*
X151368800Y-96772400D02*
X150931900Y-97209300D01*
X154674600Y-96772400D02*
X151368800Y-96772400D01*
X154926500Y-97024300D02*
X154674600Y-96772400D01*
X159285600Y-97024300D02*
X154926500Y-97024300D01*
X201295000Y-72410000D02*
X201295000Y-73435300D01*
X201295000Y-73435300D02*
X200762600Y-73435300D01*
X201295000Y-94000000D02*
X201295000Y-92974700D01*
X201295000Y-92974700D02*
X200758600Y-92974700D01*
X174625000Y-94000000D02*
X174625000Y-95025300D01*
X174625000Y-72410000D02*
X174625000Y-73435300D01*
X174625000Y-95077400D02*
X174600400Y-95102000D01*
X174625000Y-95025300D02*
X174625000Y-95077400D01*
X173437500Y-73435300D02*
X172729400Y-74143400D01*
X174625000Y-73435300D02*
X173437500Y-73435300D01*
X136155000Y-107590000D02*
X136155000Y-106764700D01*
X141147900Y-79584900D02*
X141147900Y-79434900D01*
X140169400Y-80563400D02*
X141147900Y-79584900D01*
X169028000Y-74143400D02*
X172729400Y-74143400D01*
X168060300Y-73175700D02*
X169028000Y-74143400D01*
X151212700Y-73175700D02*
X168060300Y-73175700D01*
X145127300Y-79261100D02*
X151212700Y-73175700D01*
X141321700Y-79261100D02*
X145127300Y-79261100D01*
X141147900Y-79434900D02*
X141321700Y-79261100D01*
X182717300Y-90719500D02*
X194426100Y-90719500D01*
X182307500Y-91129300D02*
X182717300Y-90719500D01*
X178126800Y-91129300D02*
X182307500Y-91129300D01*
X176445400Y-92810700D02*
X178126800Y-91129300D01*
X176445400Y-94916000D02*
X176445400Y-92810700D01*
X176336100Y-95025300D02*
X176445400Y-94916000D01*
X174625000Y-95025300D02*
X176336100Y-95025300D01*
X136155000Y-106605500D02*
X136573000Y-106187500D01*
X136155000Y-106764700D02*
X136155000Y-106605500D01*
X202565000Y-59670000D02*
X202565000Y-58644700D01*
X177158200Y-61958500D02*
X177158200Y-62946800D01*
X175895000Y-60695300D02*
X177158200Y-61958500D01*
X175895000Y-82323700D02*
X176272000Y-82700700D01*
X175895000Y-81260000D02*
X175895000Y-82323700D01*
X202565000Y-81260000D02*
X202565000Y-80234700D01*
X206811300Y-58644700D02*
X202565000Y-58644700D01*
X206925400Y-58758800D02*
X206811300Y-58644700D01*
X206925400Y-60586000D02*
X206925400Y-58758800D01*
X204425300Y-63086100D02*
X206925400Y-60586000D01*
X177297500Y-63086100D02*
X204425300Y-63086100D01*
X177158200Y-62946800D02*
X177297500Y-63086100D01*
X178052500Y-84481200D02*
X176272000Y-82700700D01*
X179808700Y-84481200D02*
X178052500Y-84481200D01*
X180485200Y-85157700D02*
X179808700Y-84481200D01*
X202198100Y-85157700D02*
X180485200Y-85157700D01*
X204415500Y-82940300D02*
X202198100Y-85157700D01*
X204812100Y-82940300D02*
X204415500Y-82940300D01*
X205655400Y-82097000D02*
X204812100Y-82940300D01*
X205655400Y-80409000D02*
X205655400Y-82097000D01*
X205030800Y-79784400D02*
X205655400Y-80409000D01*
X203220800Y-79784400D02*
X205030800Y-79784400D01*
X202770500Y-80234700D02*
X203220800Y-79784400D01*
X202565000Y-80234700D02*
X202770500Y-80234700D01*
X175895000Y-60182600D02*
X175895000Y-60695300D01*
X175895000Y-60182600D02*
X175895000Y-59670000D01*
X173101900Y-58644400D02*
X173020400Y-58562900D01*
X175006200Y-58644400D02*
X173101900Y-58644400D01*
X175895000Y-59533200D02*
X175006200Y-58644400D01*
X175895000Y-59670000D02*
X175895000Y-59533200D01*
X122305000Y-95393000D02*
X120841800Y-93929800D01*
X122305000Y-97430000D02*
X122305000Y-95393000D01*
X154597600Y-61629400D02*
X168107900Y-61629400D01*
X152168100Y-64058900D02*
X154597600Y-61629400D01*
X147949700Y-64058900D02*
X152168100Y-64058900D01*
X147853100Y-64155500D02*
X147949700Y-64058900D01*
X136393100Y-75074700D02*
X136615600Y-74852200D01*
X122677400Y-75074700D02*
X136393100Y-75074700D01*
X203835000Y-59670000D02*
X203835000Y-60695300D01*
X177165000Y-59670000D02*
X177165000Y-58644700D01*
X177165000Y-81260000D02*
X176530000Y-81260000D01*
X203835000Y-81260000D02*
X203835000Y-82285300D01*
X177165000Y-59670000D02*
X177165000Y-60779300D01*
X177165000Y-81260000D02*
X177165000Y-82285300D01*
X181380300Y-58644700D02*
X177165000Y-58644700D01*
X181532600Y-58797000D02*
X181380300Y-58644700D01*
X181532600Y-60346000D02*
X181532600Y-58797000D01*
X182782500Y-61595900D02*
X181532600Y-60346000D01*
X194381500Y-61595900D02*
X182782500Y-61595900D01*
X194452900Y-61667300D02*
X194381500Y-61595900D01*
X198094500Y-61667300D02*
X194452900Y-61667300D01*
X198098100Y-61670900D02*
X198094500Y-61667300D01*
X198533400Y-61670900D02*
X198098100Y-61670900D01*
X198619100Y-61585200D02*
X198533400Y-61670900D01*
X202945100Y-61585200D02*
X198619100Y-61585200D01*
X203835000Y-60695300D02*
X202945100Y-61585200D01*
X121005000Y-97430000D02*
X121005000Y-96604700D01*
X176420800Y-58644600D02*
X176328100Y-58551900D01*
X177165000Y-58644600D02*
X176420800Y-58644600D01*
X177165000Y-58644700D02*
X177165000Y-58644600D01*
X119885900Y-95485600D02*
X119736000Y-95485600D01*
X121005000Y-96604700D02*
X119885900Y-95485600D01*
X178910600Y-84030900D02*
X177165000Y-82285300D01*
X179995300Y-84030900D02*
X178910600Y-84030900D01*
X180653500Y-84689100D02*
X179995300Y-84030900D01*
X201431200Y-84689100D02*
X180653500Y-84689100D01*
X203835000Y-82285300D02*
X201431200Y-84689100D01*
X144519700Y-65029200D02*
X139896900Y-65029200D01*
X145940300Y-63608600D02*
X144519700Y-65029200D01*
X151981500Y-63608600D02*
X145940300Y-63608600D01*
X154587200Y-61002900D02*
X151981500Y-63608600D01*
X168386900Y-61002900D02*
X154587200Y-61002900D01*
X134629200Y-73130100D02*
X122197000Y-73130100D01*
X142220700Y-81340500D02*
X141583600Y-81977600D01*
X127178200Y-93885500D02*
X125881800Y-93885500D01*
X127390100Y-94097400D02*
X127178200Y-93885500D01*
X135467400Y-94097400D02*
X127390100Y-94097400D01*
X97936400Y-93302300D02*
X105781700Y-93302300D01*
X94925000Y-96313700D02*
X97936400Y-93302300D01*
X94925000Y-97430000D02*
X94925000Y-96313700D01*
X140646500Y-82241800D02*
X140646500Y-82207600D01*
X140407400Y-82480900D02*
X140646500Y-82241800D01*
X141230100Y-81624000D02*
X140646500Y-82207600D01*
X93625000Y-97430000D02*
X93625000Y-96604700D01*
X93625000Y-96488000D02*
X93625000Y-96604700D01*
X97517600Y-92595400D02*
X93625000Y-96488000D01*
X107057600Y-92595400D02*
X97517600Y-92595400D01*
X128005300Y-93526600D02*
X139638200Y-93526600D01*
X125452400Y-90973700D02*
X128005300Y-93526600D01*
X125452400Y-90672000D02*
X125452400Y-90973700D01*
X125095000Y-90314600D02*
X125452400Y-90672000D01*
X114825000Y-90314600D02*
X125095000Y-90314600D01*
X137694500Y-78088500D02*
X138278200Y-77504800D01*
X138278200Y-77497800D02*
X138278200Y-77504800D01*
X138374700Y-77401300D02*
X138278200Y-77497800D01*
X92975000Y-97430000D02*
X92975000Y-96604700D01*
X116567800Y-74537100D02*
X135510500Y-74537100D01*
X92975000Y-96384400D02*
X92975000Y-96604700D01*
X97824800Y-91534600D02*
X92975000Y-96384400D01*
X109970800Y-91534600D02*
X97824800Y-91534600D01*
X110611000Y-92174800D02*
X109970800Y-91534600D01*
X132108400Y-78795600D02*
X132692100Y-79379200D01*
X132842200Y-79229100D02*
X132692100Y-79379200D01*
X132974000Y-79229100D02*
X132842200Y-79229100D01*
X110875000Y-97430000D02*
X110875000Y-96604700D01*
X116446500Y-93912400D02*
X118093100Y-93912400D01*
X115778900Y-94580000D02*
X116446500Y-93912400D01*
X115778900Y-94994700D02*
X115778900Y-94580000D01*
X114168900Y-96604700D02*
X115778900Y-94994700D01*
X110875000Y-96604700D02*
X114168900Y-96604700D01*
X126631900Y-80404000D02*
X129723900Y-77312000D01*
X125546400Y-80404000D02*
X126631900Y-80404000D01*
X173355000Y-59670000D02*
X173355000Y-60695300D01*
X200025000Y-59670000D02*
X200025000Y-60695300D01*
X200025000Y-60695300D02*
X199288800Y-60695300D01*
X200025000Y-81491100D02*
X199088700Y-82427400D01*
X200025000Y-81260000D02*
X200025000Y-81491100D01*
X173355000Y-81187600D02*
X173355000Y-80234700D01*
X146700000Y-95005100D02*
X146700000Y-96110000D01*
X146746500Y-94958600D02*
X146700000Y-95005100D01*
X173355000Y-81187600D02*
X173355000Y-81260000D01*
X173355000Y-81260000D02*
X173355000Y-82285300D01*
X133522600Y-77381400D02*
X132938900Y-76797700D01*
X109575000Y-97430000D02*
X109575000Y-96604700D01*
X173348800Y-60701500D02*
X173348800Y-61614400D01*
X173355000Y-60695300D02*
X173348800Y-60701500D01*
X128444900Y-76741400D02*
X126498400Y-78687900D01*
X132882600Y-76741400D02*
X128444900Y-76741400D01*
X132938900Y-76797700D02*
X132882600Y-76741400D01*
X111108800Y-95070900D02*
X109575000Y-96604700D01*
X114959500Y-95070900D02*
X111108800Y-95070900D01*
X173291300Y-80171000D02*
X173291300Y-80150300D01*
X173355000Y-80234700D02*
X173291300Y-80171000D01*
X173355000Y-82547300D02*
X173355000Y-82285300D01*
X172402700Y-83499600D02*
X173355000Y-82547300D01*
X167573700Y-83499600D02*
X172402700Y-83499600D01*
X134375600Y-78234400D02*
X133522600Y-77381400D01*
X134375600Y-78986800D02*
X134375600Y-78234400D01*
X137765500Y-82376700D02*
X134375600Y-78986800D01*
X147037800Y-94958600D02*
X146746500Y-94958600D01*
X147431800Y-94564600D02*
X147037800Y-94958600D01*
X148108200Y-94564600D02*
X147431800Y-94564600D01*
X148251000Y-94421800D02*
X148108200Y-94564600D01*
X149909900Y-94421800D02*
X148251000Y-94421800D01*
X150009000Y-94520900D02*
X149909900Y-94421800D01*
X154693400Y-94520900D02*
X150009000Y-94520900D01*
X154843500Y-94370800D02*
X154693400Y-94520900D01*
X155488600Y-94370800D02*
X154843500Y-94370800D01*
X156064900Y-94947100D02*
X155488600Y-94370800D01*
X158056800Y-94947100D02*
X156064900Y-94947100D01*
X207645000Y-59670000D02*
X207645000Y-60695300D01*
X208195000Y-60695300D02*
X207645000Y-60695300D01*
X120355000Y-97430000D02*
X120355000Y-98255300D01*
X207645000Y-81260000D02*
X207645000Y-80459900D01*
X207645000Y-80459900D02*
X207645000Y-80234700D01*
X180815700Y-60695300D02*
X180736000Y-60775000D01*
X180975000Y-60695300D02*
X180815700Y-60695300D01*
X180975000Y-59670000D02*
X180975000Y-60695300D01*
X180975000Y-81260000D02*
X180975000Y-82285300D01*
X181068300Y-82285300D02*
X181388700Y-82605700D01*
X180975000Y-82285300D02*
X181068300Y-82285300D01*
X207645000Y-80234700D02*
X210734500Y-80234700D01*
X207596900Y-80459900D02*
X207645000Y-80459900D01*
X206020800Y-78883800D02*
X207596900Y-80459900D01*
X202602200Y-78883800D02*
X206020800Y-78883800D01*
X201251300Y-80234700D02*
X202602200Y-78883800D01*
X200877000Y-80234700D02*
X201251300Y-80234700D01*
X200575400Y-80536300D02*
X200877000Y-80234700D01*
X200575400Y-82129500D02*
X200575400Y-80536300D01*
X199462100Y-83242800D02*
X200575400Y-82129500D01*
X182025800Y-83242800D02*
X199462100Y-83242800D01*
X181388700Y-82605700D02*
X182025800Y-83242800D01*
X144750000Y-102010000D02*
X144750000Y-100100600D01*
X144750000Y-100100600D02*
X145283800Y-100100600D01*
X143793200Y-99143800D02*
X144750000Y-100100600D01*
X125464500Y-99143800D02*
X143793200Y-99143800D01*
X124576000Y-98255300D02*
X125464500Y-99143800D01*
X120355000Y-98255300D02*
X124576000Y-98255300D01*
X180975000Y-80387500D02*
X180975000Y-81260000D01*
X180219000Y-79631500D02*
X180975000Y-80387500D01*
X177971900Y-79631500D02*
X180219000Y-79631500D01*
X177937300Y-79596900D02*
X177971900Y-79631500D01*
X173067700Y-79596900D02*
X177937300Y-79596900D01*
X172678000Y-79986600D02*
X173067700Y-79596900D01*
X172678000Y-82587400D02*
X172678000Y-79986600D01*
X172303200Y-82962200D02*
X172678000Y-82587400D01*
X167133200Y-82962200D02*
X172303200Y-82962200D01*
X151119900Y-91869300D02*
X151060700Y-91928500D01*
X157113100Y-91869300D02*
X151119900Y-91869300D01*
X157130900Y-91851500D02*
X157113100Y-91869300D01*
X205105000Y-59670000D02*
X205105000Y-60695300D01*
X178435000Y-59670000D02*
X178435000Y-60695300D01*
X178435000Y-60695300D02*
X178937500Y-61197700D01*
X178485000Y-61650200D02*
X178937500Y-61197700D01*
X178435000Y-81260000D02*
X178435000Y-82179000D01*
X178435000Y-82179000D02*
X178435000Y-82318600D01*
X178435000Y-82318600D02*
X177994000Y-82318600D01*
X179785900Y-62046200D02*
X178937500Y-61197700D01*
X194194900Y-62046200D02*
X179785900Y-62046200D01*
X194266300Y-62117600D02*
X194194900Y-62046200D01*
X197907900Y-62117600D02*
X194266300Y-62117600D01*
X197911500Y-62121200D02*
X197907900Y-62117600D01*
X198720000Y-62121200D02*
X197911500Y-62121200D01*
X198795000Y-62046200D02*
X198720000Y-62121200D01*
X202124700Y-62046200D02*
X198795000Y-62046200D01*
X202135400Y-62035500D02*
X202124700Y-62046200D01*
X203644500Y-62035500D02*
X202135400Y-62035500D01*
X203655100Y-62024900D02*
X203644500Y-62035500D01*
X203775400Y-62024900D02*
X203655100Y-62024900D01*
X205105000Y-60695300D02*
X203775400Y-62024900D01*
X145400000Y-96110000D02*
X145400000Y-97160300D01*
X119705000Y-97430000D02*
X119705000Y-98255300D01*
X143199600Y-97160300D02*
X143158200Y-97118900D01*
X145400000Y-97160300D02*
X143199600Y-97160300D01*
X143158200Y-97118900D02*
X140496500Y-97118900D01*
X176269400Y-69433100D02*
X167085600Y-69433100D01*
X176711900Y-69875600D02*
X176269400Y-69433100D01*
X178919900Y-82318600D02*
X178435000Y-82318600D01*
X180824400Y-84223100D02*
X178919900Y-82318600D01*
X201020800Y-84223100D02*
X180824400Y-84223100D01*
X203198000Y-82045900D02*
X201020800Y-84223100D01*
X203198000Y-80511900D02*
X203198000Y-82045900D01*
X203475200Y-80234700D02*
X203198000Y-80511900D01*
X204246000Y-80234700D02*
X203475200Y-80234700D01*
X205105000Y-81093700D02*
X204246000Y-80234700D01*
X205105000Y-81260000D02*
X205105000Y-81093700D01*
X138063500Y-99594100D02*
X138465900Y-99996500D01*
X125277800Y-99594100D02*
X138063500Y-99594100D01*
X124543800Y-98860100D02*
X125277800Y-99594100D01*
X120309800Y-98860100D02*
X124543800Y-98860100D01*
X119705000Y-98255300D02*
X120309800Y-98860100D01*
X150766900Y-90461600D02*
X150719600Y-90414300D01*
X152072800Y-90461600D02*
X150766900Y-90461600D01*
X152166100Y-90368300D02*
X152072800Y-90461600D01*
X155978400Y-90368300D02*
X152166100Y-90368300D01*
X156364100Y-90754000D02*
X155978400Y-90368300D01*
X157315700Y-90754000D02*
X156364100Y-90754000D01*
X157398800Y-90837100D02*
X157315700Y-90754000D01*
X173355000Y-94000000D02*
X173355000Y-92974700D01*
X173355000Y-72410000D02*
X173355000Y-71384700D01*
X200025000Y-94000000D02*
X200025000Y-92974700D01*
X199927400Y-92877100D02*
X200025000Y-92974700D01*
X199629900Y-92877100D02*
X199927400Y-92877100D01*
X200025000Y-72410000D02*
X200025000Y-73516900D01*
X173331400Y-92974700D02*
X173355000Y-92974700D01*
X173229300Y-92872600D02*
X173331400Y-92974700D01*
X173355000Y-71384700D02*
X175101800Y-71384700D01*
X173330100Y-87017600D02*
X173389200Y-87076700D01*
X163254500Y-87017600D02*
X173330100Y-87017600D01*
X196496600Y-89743800D02*
X199629900Y-92877100D01*
X182419200Y-89743800D02*
X196496600Y-89743800D01*
X181934300Y-90228700D02*
X182419200Y-89743800D01*
X177578200Y-90228700D02*
X181934300Y-90228700D01*
X177428100Y-90378800D02*
X177578200Y-90228700D01*
X176264800Y-90378800D02*
X177428100Y-90378800D01*
X174452400Y-92191200D02*
X176264800Y-90378800D01*
X173910700Y-92191200D02*
X174452400Y-92191200D01*
X173229300Y-92872600D02*
X173910700Y-92191200D01*
X130107000Y-103240500D02*
X129804300Y-103240500D01*
X130408100Y-102939400D02*
X130107000Y-103240500D01*
X137568200Y-102939400D02*
X130408100Y-102939400D01*
X138491800Y-103863000D02*
X137568200Y-102939400D01*
X153480400Y-87625800D02*
X161075900Y-87625800D01*
X151169900Y-89936300D02*
X153480400Y-87625800D01*
X119055000Y-98408200D02*
X119055000Y-97430000D01*
X119462700Y-98815900D02*
X119055000Y-98408200D01*
X215265000Y-81260000D02*
X215265000Y-80234700D01*
X214364400Y-79334100D02*
X214197000Y-79334100D01*
X215265000Y-80234700D02*
X214364400Y-79334100D01*
X215265000Y-60695300D02*
X215162600Y-60797700D01*
X215265000Y-60182600D02*
X215265000Y-60695300D01*
X215265000Y-60182600D02*
X215265000Y-59670000D01*
X188595000Y-80897400D02*
X188595000Y-80981300D01*
X188595000Y-81260000D02*
X188595000Y-80981300D01*
X188595000Y-80897400D02*
X188595000Y-80234700D01*
X189086000Y-60695300D02*
X188595000Y-60695300D01*
X189171000Y-60610300D02*
X189086000Y-60695300D01*
X188595000Y-59670000D02*
X188595000Y-60695300D01*
X190033400Y-78796300D02*
X192187300Y-78796300D01*
X188595000Y-80234700D02*
X190033400Y-78796300D01*
X200439300Y-78796300D02*
X192187300Y-78796300D01*
X201252400Y-77983200D02*
X200439300Y-78796300D01*
X206394000Y-77983200D02*
X201252400Y-77983200D01*
X207294600Y-78883800D02*
X206394000Y-77983200D01*
X213746700Y-78883800D02*
X207294600Y-78883800D01*
X214197000Y-79334100D02*
X213746700Y-78883800D01*
X165425000Y-98700000D02*
X165425000Y-99525300D01*
X166500600Y-100600900D02*
X169196800Y-100600900D01*
X165425000Y-99525300D02*
X166500600Y-100600900D01*
X179288500Y-95810400D02*
X171213100Y-95810400D01*
X180340000Y-94758900D02*
X179288500Y-95810400D01*
X180340000Y-94492400D02*
X180340000Y-94758900D01*
X151832000Y-69495500D02*
X145210100Y-69495500D01*
X152131900Y-69795400D02*
X151832000Y-69495500D01*
X160264400Y-69795400D02*
X152131900Y-69795400D01*
X160976800Y-70507800D02*
X160264400Y-69795400D01*
X176993200Y-70507800D02*
X160976800Y-70507800D01*
X177715400Y-71230000D02*
X176993200Y-70507800D01*
X177715400Y-73270200D02*
X177715400Y-71230000D01*
X176681000Y-74304600D02*
X177715400Y-73270200D01*
X175530100Y-74304600D02*
X176681000Y-74304600D01*
X174724600Y-75110100D02*
X175530100Y-74304600D01*
X174724600Y-75658900D02*
X174724600Y-75110100D01*
X177271300Y-78205600D02*
X174724600Y-75658900D01*
X178562700Y-78205600D02*
X177271300Y-78205600D01*
X132460100Y-79854500D02*
X134416000Y-79854500D01*
X131754800Y-79149200D02*
X132460100Y-79854500D01*
X187325000Y-59670000D02*
X187325000Y-59157300D01*
X187846600Y-80234700D02*
X187325000Y-80234700D01*
X187325000Y-81223200D02*
X187325000Y-80234700D01*
X187325000Y-81223200D02*
X187325000Y-81260000D01*
X213995000Y-81260000D02*
X213995000Y-80234700D01*
X187325000Y-81260000D02*
X187325000Y-82285300D01*
X187102600Y-59157300D02*
X186690000Y-59569900D01*
X187325000Y-59157300D02*
X187102600Y-59157300D01*
X213995000Y-59670000D02*
X213995000Y-60695300D01*
X209300300Y-65390000D02*
X187846600Y-65390000D01*
X213995000Y-60695300D02*
X209300300Y-65390000D01*
X189876500Y-82285300D02*
X187325000Y-82285300D01*
X192827700Y-79334100D02*
X189876500Y-82285300D01*
X200538400Y-79334100D02*
X192827700Y-79334100D01*
X201439000Y-78433500D02*
X200538400Y-79334100D01*
X206207400Y-78433500D02*
X201439000Y-78433500D01*
X207108000Y-79334100D02*
X206207400Y-78433500D01*
X213094400Y-79334100D02*
X207108000Y-79334100D01*
X213995000Y-80234700D02*
X213094400Y-79334100D01*
X164775000Y-98700000D02*
X164775000Y-99610600D01*
X135597100Y-81618300D02*
X136754500Y-82775700D01*
X133516900Y-81618300D02*
X135597100Y-81618300D01*
X131401300Y-79502700D02*
X133516900Y-81618300D01*
X176130700Y-84675100D02*
X171018200Y-84675100D01*
X176387100Y-84931500D02*
X176130700Y-84675100D01*
X179622100Y-84931500D02*
X176387100Y-84931500D01*
X180321500Y-85630900D02*
X179622100Y-84931500D01*
X190349800Y-85630900D02*
X180321500Y-85630900D01*
X190428400Y-85709500D02*
X190349800Y-85630900D01*
X158448800Y-86819700D02*
X149846800Y-86819700D01*
X165034000Y-80234500D02*
X158448800Y-86819700D01*
X169913200Y-80234500D02*
X165034000Y-80234500D01*
X170183800Y-80505100D02*
X169913200Y-80234500D01*
X186605000Y-60695300D02*
X186055000Y-60695300D01*
X186690000Y-60610300D02*
X186605000Y-60695300D01*
X186055000Y-59670000D02*
X186055000Y-60695300D01*
X212725000Y-59670000D02*
X212725000Y-60695300D01*
X212725000Y-81260000D02*
X212725000Y-82285300D01*
X186055000Y-79973400D02*
X187208400Y-78820000D01*
X186055000Y-81260000D02*
X186055000Y-79973400D01*
X212725000Y-60855700D02*
X212725000Y-60695300D01*
X208716000Y-64864700D02*
X212725000Y-60855700D01*
X186890300Y-64864700D02*
X208716000Y-64864700D01*
X186690000Y-65065000D02*
X186890300Y-64864700D01*
X164125000Y-98700000D02*
X164125000Y-99525300D01*
X164078700Y-99525300D02*
X163994300Y-99609700D01*
X164125000Y-99525300D02*
X164078700Y-99525300D01*
X207761100Y-87249200D02*
X189601900Y-87249200D01*
X212725000Y-82285300D02*
X207761100Y-87249200D01*
X131047700Y-79856300D02*
X131631300Y-80439800D01*
X131459500Y-83091400D02*
X131044300Y-83091400D01*
X132165000Y-83796900D02*
X131459500Y-83091400D01*
X134364500Y-83796900D02*
X132165000Y-83796900D01*
X134728600Y-83432800D02*
X134364500Y-83796900D01*
X134728600Y-82989200D02*
X134728600Y-83432800D01*
X134027400Y-82288000D02*
X134728600Y-82989200D01*
X133549500Y-82288000D02*
X134027400Y-82288000D01*
X131701300Y-80439800D02*
X133549500Y-82288000D01*
X131631300Y-80439800D02*
X131701300Y-80439800D01*
X189529800Y-87321300D02*
X189601900Y-87249200D01*
X178577600Y-87321300D02*
X189529800Y-87321300D01*
X177857600Y-88041300D02*
X178577600Y-87321300D01*
X174661100Y-88041300D02*
X177857600Y-88041300D01*
X173508300Y-89194100D02*
X174661100Y-88041300D01*
X168084800Y-89194100D02*
X173508300Y-89194100D01*
X138731000Y-97975700D02*
X132744000Y-97975700D01*
X138875200Y-98119900D02*
X138731000Y-97975700D01*
X148955500Y-98119900D02*
X138875200Y-98119900D01*
X150753300Y-96322100D02*
X148955500Y-98119900D01*
X154861200Y-96322100D02*
X150753300Y-96322100D01*
X154920400Y-96381300D02*
X154861200Y-96322100D01*
X163994300Y-96381300D02*
X154920400Y-96381300D01*
X211455000Y-81260000D02*
X211455000Y-82285300D01*
X211455000Y-82285300D02*
X210978800Y-82285300D01*
X184785000Y-59670000D02*
X184785000Y-58644700D01*
X211399500Y-60695300D02*
X211319100Y-60775700D01*
X211455000Y-60695300D02*
X211399500Y-60695300D01*
X211455000Y-59670000D02*
X211455000Y-60695300D01*
X186784200Y-78235500D02*
X184785000Y-80234700D01*
X200363200Y-78235500D02*
X186784200Y-78235500D01*
X201065800Y-77532900D02*
X200363200Y-78235500D01*
X206580600Y-77532900D02*
X201065800Y-77532900D01*
X207347100Y-78299400D02*
X206580600Y-77532900D01*
X211047800Y-78299400D02*
X207347100Y-78299400D01*
X184785000Y-80747300D02*
X184785000Y-80234700D01*
X184785000Y-80747300D02*
X184785000Y-81260000D01*
X184785000Y-81260000D02*
X184785000Y-82285300D01*
X182954800Y-82285300D02*
X182917400Y-82247900D01*
X184785000Y-82285300D02*
X182954800Y-82285300D01*
X185669100Y-57760600D02*
X184785000Y-58644700D01*
X191512800Y-57760600D02*
X185669100Y-57760600D01*
X163412700Y-98762300D02*
X163475000Y-98700000D01*
X163412700Y-99773000D02*
X163412700Y-98762300D01*
X164769700Y-101130000D02*
X163412700Y-99773000D01*
X169447400Y-101130000D02*
X164769700Y-101130000D01*
X170399500Y-100177900D02*
X169447400Y-101130000D01*
X170399500Y-98655200D02*
X170399500Y-100177900D01*
X130694200Y-80209800D02*
X131454200Y-80969800D01*
X176584400Y-98229700D02*
X176668200Y-98313500D01*
X170825000Y-98229700D02*
X176584400Y-98229700D01*
X170399500Y-98655200D02*
X170825000Y-98229700D01*
X178989600Y-95025400D02*
X178729900Y-95285100D01*
X178989600Y-92997600D02*
X178989600Y-95025400D01*
X179862200Y-92125000D02*
X178989600Y-92997600D01*
X181325900Y-92125000D02*
X179862200Y-92125000D01*
X151745800Y-97222700D02*
X151661600Y-97306900D01*
X154488000Y-97222700D02*
X151745800Y-97222700D01*
X154839300Y-97574000D02*
X154488000Y-97222700D01*
X160129100Y-97574000D02*
X154839300Y-97574000D01*
X183515000Y-81260000D02*
X183515000Y-80234700D01*
X183515000Y-80234700D02*
X183984500Y-80234700D01*
X183515000Y-59670000D02*
X183515000Y-58644700D01*
X184149900Y-58866800D02*
X184149900Y-59569900D01*
X183927800Y-58644700D02*
X184149900Y-58866800D01*
X183515000Y-58644700D02*
X183927800Y-58644700D01*
X209657800Y-58117500D02*
X210185000Y-58644700D01*
X197637200Y-58117500D02*
X209657800Y-58117500D01*
X196850000Y-58904700D02*
X197637200Y-58117500D01*
X196850000Y-59140300D02*
X196850000Y-58904700D01*
X210185000Y-59157300D02*
X210185000Y-58644700D01*
X210185000Y-59157300D02*
X210185000Y-59670000D01*
X210185000Y-61128100D02*
X210947300Y-61890400D01*
X210185000Y-59670000D02*
X210185000Y-61128100D01*
X210185000Y-82300000D02*
X210185000Y-81260000D01*
X210944900Y-83059900D02*
X210185000Y-82300000D01*
X211063000Y-83059900D02*
X210944900Y-83059900D01*
X162825000Y-99614800D02*
X162825000Y-98700000D01*
X130340600Y-80563400D02*
X130924300Y-81147000D01*
X132967800Y-83229700D02*
X134156700Y-83229700D01*
X130924200Y-81186100D02*
X132967800Y-83229700D01*
X130924200Y-81147100D02*
X130924200Y-81186100D01*
X130924300Y-81147000D02*
X130924200Y-81147100D01*
X174225900Y-86983000D02*
X177491000Y-86983000D01*
X173290700Y-87918200D02*
X174225900Y-86983000D01*
X167521400Y-87918200D02*
X173290700Y-87918200D01*
X181594000Y-78730900D02*
X181901800Y-79038700D01*
X178345100Y-78730900D02*
X181594000Y-78730900D01*
X178310500Y-78696300D02*
X178345100Y-78730900D01*
X176498000Y-78696300D02*
X178310500Y-78696300D01*
X172876300Y-75074600D02*
X176498000Y-78696300D01*
X169097300Y-75074600D02*
X172876300Y-75074600D01*
X167648700Y-73626000D02*
X169097300Y-75074600D01*
X151624600Y-73626000D02*
X167648700Y-73626000D01*
X145464200Y-79786400D02*
X151624600Y-73626000D01*
X144513800Y-79786400D02*
X145464200Y-79786400D01*
X207772000Y-106680000D02*
X206430700Y-106680000D01*
X216630000Y-100330000D02*
X216630000Y-101505300D01*
X203291600Y-101254700D02*
X204941900Y-102905000D01*
X201691200Y-101254700D02*
X203291600Y-101254700D01*
X215597900Y-102537400D02*
X216630000Y-101505300D01*
X205309500Y-102537400D02*
X215597900Y-102537400D01*
X204941900Y-102905000D02*
X205309500Y-102537400D01*
X201691200Y-100330000D02*
X201691200Y-101254700D01*
X204941900Y-102905000D02*
X204941900Y-104480400D01*
X204941900Y-105191200D02*
X206430700Y-106680000D01*
X204941900Y-104480400D02*
X204941900Y-105191200D01*
X204941900Y-104480400D02*
X195580000Y-104480400D01*
X190644600Y-100670400D02*
X194454600Y-104480400D01*
X186690000Y-100670400D02*
X190644600Y-100670400D01*
X195580000Y-104480400D02*
X194454600Y-104480400D01*
X120721100Y-78126400D02*
X119920000Y-77325300D01*
X120721100Y-81620400D02*
X120721100Y-78126400D01*
X119920000Y-76200000D02*
X119920000Y-77325300D01*
X121746200Y-82389200D02*
X121746200Y-81620400D01*
X126286000Y-86929000D02*
X121746200Y-82389200D01*
X129561200Y-86929000D02*
X126286000Y-86929000D01*
X129987100Y-86503100D02*
X129561200Y-86929000D01*
X120721100Y-81620400D02*
X121746200Y-81620400D01*
X172085000Y-94000000D02*
X172085000Y-95025300D01*
X198755000Y-73952900D02*
X197706500Y-75001400D01*
X198755000Y-72410000D02*
X198755000Y-73952900D01*
X198014500Y-92974700D02*
X195476800Y-90437000D01*
X198755000Y-92974700D02*
X198014500Y-92974700D01*
X198755000Y-94000000D02*
X198755000Y-92974700D01*
X173859100Y-94881800D02*
X173914200Y-94936900D01*
X173715600Y-95025300D02*
X173859100Y-94881800D01*
X172085000Y-95025300D02*
X173715600Y-95025300D01*
X172085000Y-72922600D02*
X172085000Y-73435300D01*
X172085000Y-72922600D02*
X172085000Y-72410000D01*
X172167600Y-73517900D02*
X172279100Y-73517900D01*
X172085000Y-73435300D02*
X172167600Y-73517900D01*
X139018500Y-90655500D02*
X143447700Y-90655500D01*
X137694500Y-89331500D02*
X139018500Y-90655500D01*
X195233900Y-90194100D02*
X195476800Y-90437000D01*
X182605800Y-90194100D02*
X195233900Y-90194100D01*
X182120900Y-90679000D02*
X182605800Y-90194100D01*
X177764800Y-90679000D02*
X182120900Y-90679000D01*
X176893400Y-91550400D02*
X177764800Y-90679000D01*
X175730100Y-91550400D02*
X176893400Y-91550400D01*
X174639000Y-92641500D02*
X175730100Y-91550400D01*
X174579800Y-92641500D02*
X174639000Y-92641500D01*
X174074600Y-93146700D02*
X174579800Y-92641500D01*
X174074600Y-94666300D02*
X174074600Y-93146700D01*
X173859100Y-94881800D02*
X174074600Y-94666300D01*
X150563200Y-92810800D02*
X145090400Y-92810800D01*
X150672400Y-92920000D02*
X150563200Y-92810800D01*
X152059800Y-92920000D02*
X150672400Y-92920000D01*
X152209900Y-92769900D02*
X152059800Y-92920000D01*
X156152000Y-92769900D02*
X152209900Y-92769900D01*
X156211200Y-92829100D02*
X156152000Y-92769900D01*
X167264300Y-92829100D02*
X156211200Y-92829100D01*
X167683600Y-93248400D02*
X167264300Y-92829100D01*
X167683600Y-93574900D02*
X167683600Y-93248400D01*
X169134000Y-95025300D02*
X167683600Y-93574900D01*
X172085000Y-95025300D02*
X169134000Y-95025300D01*
X170815000Y-59670000D02*
X170815000Y-58644700D01*
X197485000Y-59670000D02*
X197485000Y-60695300D01*
X197853700Y-80234700D02*
X197908400Y-80180000D01*
X197485000Y-80234700D02*
X197853700Y-80234700D01*
X194860700Y-60695300D02*
X197485000Y-60695300D01*
X194857100Y-60691700D02*
X194860700Y-60695300D01*
X197485000Y-81260000D02*
X197485000Y-80234700D01*
X138048100Y-88977900D02*
X138631700Y-89561400D01*
X170815000Y-63276700D02*
X171245500Y-63707200D01*
X170815000Y-59670000D02*
X170815000Y-63276700D01*
X170815000Y-81260000D02*
X170815000Y-79208600D01*
X170815000Y-79208600D02*
X171378500Y-79208600D01*
X172400500Y-57059200D02*
X170815000Y-58644700D01*
X191587100Y-57059200D02*
X172400500Y-57059200D01*
X194857100Y-60329200D02*
X191587100Y-57059200D01*
X194857100Y-60691700D02*
X194857100Y-60329200D01*
X170374000Y-79208600D02*
X170815000Y-79208600D01*
X167554500Y-76389100D02*
X170374000Y-79208600D01*
X167554500Y-75217500D02*
X167554500Y-76389100D01*
X166911400Y-74574400D02*
X167554500Y-75217500D01*
X160698600Y-74574400D02*
X166911400Y-74574400D01*
X160248400Y-75024600D02*
X160698600Y-74574400D01*
X151790900Y-75024600D02*
X160248400Y-75024600D01*
X149778000Y-77037500D02*
X151790900Y-75024600D01*
X149778000Y-82943800D02*
X149778000Y-77037500D01*
X148645400Y-84076400D02*
X149778000Y-82943800D01*
X148049200Y-84076400D02*
X148645400Y-84076400D01*
X146166100Y-85959500D02*
X148049200Y-84076400D01*
X146166100Y-86039300D02*
X146166100Y-85959500D01*
X144482100Y-87723300D02*
X146166100Y-86039300D01*
X144482100Y-88201000D02*
X144482100Y-87723300D01*
X142841800Y-89841300D02*
X144482100Y-88201000D01*
X138981600Y-89841300D02*
X142841800Y-89841300D01*
X138701700Y-89561400D02*
X138981600Y-89841300D01*
X138631700Y-89561400D02*
X138701700Y-89561400D01*
X170815000Y-72410000D02*
X170815000Y-73435300D01*
X197485000Y-94000000D02*
X198120000Y-94000000D01*
X197709500Y-73435300D02*
X197789200Y-73515000D01*
X197485000Y-73435300D02*
X197709500Y-73435300D01*
X197485000Y-72410000D02*
X197485000Y-73435300D01*
X169106400Y-73435300D02*
X169106400Y-73478700D01*
X170815000Y-73435300D02*
X169106400Y-73435300D01*
X168246900Y-72725400D02*
X150343300Y-72725400D01*
X168956800Y-73435300D02*
X168246900Y-72725400D01*
X169106400Y-73435300D02*
X168956800Y-73435300D01*
X170809600Y-92974700D02*
X170377300Y-92542400D01*
X170815000Y-92974700D02*
X170809600Y-92974700D01*
X170815000Y-94000000D02*
X170815000Y-92974700D01*
X145640800Y-85927700D02*
X145640800Y-85793400D01*
X144031800Y-87536700D02*
X145640800Y-85927700D01*
X144031800Y-88014400D02*
X144031800Y-87536700D01*
X142655200Y-89391000D02*
X144031800Y-88014400D01*
X139168200Y-89391000D02*
X142655200Y-89391000D01*
X138401600Y-88624400D02*
X139168200Y-89391000D01*
X169614100Y-85832100D02*
X169598800Y-85816800D01*
X179248900Y-85832100D02*
X169614100Y-85832100D01*
X179948300Y-86531500D02*
X179248900Y-85832100D01*
X189870600Y-86531500D02*
X179948300Y-86531500D01*
X190104800Y-86765700D02*
X189870600Y-86531500D01*
X197457500Y-86765700D02*
X190104800Y-86765700D01*
X198231800Y-85991400D02*
X197457500Y-86765700D01*
X196215000Y-94000000D02*
X196215000Y-92995500D01*
X196215000Y-92995500D02*
X195644900Y-92995500D01*
X196215000Y-72410000D02*
X196215000Y-73435300D01*
X169545000Y-94000000D02*
X169545000Y-92974700D01*
X196021700Y-73435300D02*
X195691500Y-73765500D01*
X196215000Y-73435300D02*
X196021700Y-73435300D01*
X138755200Y-88270800D02*
X139338800Y-88854300D01*
X169366400Y-72588600D02*
X168853200Y-72588600D01*
X169545000Y-72410000D02*
X169366400Y-72588600D01*
X168385300Y-72120700D02*
X168853200Y-72588600D01*
X151582300Y-72120700D02*
X168385300Y-72120700D01*
X145209400Y-85355100D02*
X145423800Y-85140700D01*
X145209400Y-85437100D02*
X145209400Y-85355100D01*
X145115500Y-85531000D02*
X145209400Y-85437100D01*
X145115500Y-85657100D02*
X145115500Y-85531000D01*
X144584000Y-86188600D02*
X145115500Y-85657100D01*
X144584000Y-86347600D02*
X144584000Y-86188600D01*
X143464100Y-87467500D02*
X144584000Y-86347600D01*
X143464100Y-87917800D02*
X143464100Y-87467500D01*
X142527600Y-88854300D02*
X143464100Y-87917800D01*
X139338800Y-88854300D02*
X142527600Y-88854300D01*
X175279100Y-85268900D02*
X168623100Y-85268900D01*
X175392000Y-85381800D02*
X175279100Y-85268900D01*
X179435500Y-85381800D02*
X175392000Y-85381800D01*
X180134900Y-86081200D02*
X179435500Y-85381800D01*
X190057200Y-86081200D02*
X180134900Y-86081200D01*
X190234100Y-86258100D02*
X190057200Y-86081200D01*
X193803200Y-86258100D02*
X190234100Y-86258100D01*
X193860400Y-86200900D02*
X193803200Y-86258100D01*
X169246700Y-92974700D02*
X169147600Y-92875600D01*
X169545000Y-92974700D02*
X169246700Y-92974700D01*
X172085000Y-81260000D02*
X172085000Y-82285300D01*
X172085000Y-59670000D02*
X172085000Y-58644700D01*
X198755000Y-59670000D02*
X198755000Y-60695300D01*
X198315700Y-61145600D02*
X198310200Y-61140100D01*
X198310200Y-61140100D02*
X198755000Y-60695300D01*
X198755000Y-81260000D02*
X198755000Y-80234700D01*
X199205300Y-79784400D02*
X198755000Y-80234700D01*
X200831000Y-79784400D02*
X199205300Y-79784400D01*
X201189700Y-79425700D02*
X200831000Y-79784400D01*
X172085000Y-61199800D02*
X172918900Y-62033700D01*
X172085000Y-59670000D02*
X172085000Y-61199800D01*
X173153400Y-57576300D02*
X172085000Y-58644700D01*
X181650800Y-57576300D02*
X173153400Y-57576300D01*
X182877400Y-58802900D02*
X181650800Y-57576300D01*
X182877400Y-60488700D02*
X182877400Y-58802900D01*
X183534300Y-61145600D02*
X182877400Y-60488700D01*
X194568100Y-61145600D02*
X183534300Y-61145600D01*
X194639500Y-61217000D02*
X194568100Y-61145600D01*
X198233300Y-61217000D02*
X194639500Y-61217000D01*
X198310200Y-61140100D02*
X198233300Y-61217000D01*
X172085000Y-82285300D02*
X172085000Y-82400400D01*
X151201800Y-71084500D02*
X171830700Y-71084500D01*
X146767600Y-75518700D02*
X151201800Y-71084500D01*
X143092700Y-75518700D02*
X146767600Y-75518700D01*
X139108700Y-79502700D02*
X143092700Y-75518700D01*
X155800000Y-63765000D02*
X154367400Y-63765000D01*
X151244800Y-70404600D02*
X154209500Y-70404600D01*
X147039400Y-74610000D02*
X151244800Y-70404600D01*
X143294400Y-74610000D02*
X147039400Y-74610000D01*
X138755200Y-79149200D02*
X143294400Y-74610000D01*
X155800000Y-64415000D02*
X154724700Y-64415000D01*
X141044900Y-76152300D02*
X138401600Y-78795600D01*
X141044900Y-72871900D02*
X141044900Y-76152300D01*
X148957200Y-64959600D02*
X141044900Y-72871900D01*
X152903500Y-64959600D02*
X148957200Y-64959600D01*
X153448100Y-64415000D02*
X152903500Y-64959600D01*
X154724700Y-64415000D02*
X153448100Y-64415000D01*
X139067800Y-77380100D02*
X139067900Y-77380100D01*
X139067800Y-77492500D02*
X139067800Y-77380100D01*
X138118200Y-78442100D02*
X139067800Y-77492500D01*
X138048100Y-78442100D02*
X138118200Y-78442100D01*
X151250000Y-67250000D02*
X147461400Y-67250000D01*
X153435000Y-65065000D02*
X151250000Y-67250000D01*
X155800000Y-65065000D02*
X153435000Y-65065000D01*
X160700000Y-82910000D02*
X160700000Y-83835300D01*
X155195800Y-94971200D02*
X155270900Y-94896100D01*
X149822400Y-94971200D02*
X155195800Y-94971200D01*
X149729700Y-94878500D02*
X149822400Y-94971200D01*
X148431200Y-94878500D02*
X149729700Y-94878500D01*
X148294800Y-95014900D02*
X148431200Y-94878500D01*
X147618400Y-95014900D02*
X148294800Y-95014900D01*
X147350000Y-95283300D02*
X147618400Y-95014900D01*
X147350000Y-96110000D02*
X147350000Y-95283300D01*
X158241000Y-86294300D02*
X156889500Y-86294300D01*
X160700000Y-83835300D02*
X158241000Y-86294300D01*
X184912000Y-132682500D02*
X184912000Y-135890000D01*
X108275000Y-102345200D02*
X108307500Y-102312700D01*
X108275000Y-103230000D02*
X108275000Y-102345200D01*
X147374400Y-118348600D02*
X132966600Y-118348600D01*
X147892200Y-118866400D02*
X147374400Y-118348600D01*
X147892200Y-121842100D02*
X147892200Y-118866400D01*
X151910100Y-125860000D02*
X147892200Y-121842100D01*
X182531600Y-125860000D02*
X151910100Y-125860000D01*
X150779100Y-123900000D02*
X150442600Y-123563500D01*
X182268900Y-123900000D02*
X150779100Y-123900000D01*
X109956100Y-101367900D02*
X114282700Y-101367900D01*
X108925000Y-102399000D02*
X109956100Y-101367900D01*
X108925000Y-103230000D02*
X108925000Y-102399000D01*
X156035700Y-109160000D02*
X151275100Y-109160000D01*
X157480000Y-110604300D02*
X156035700Y-109160000D01*
X107625000Y-103230000D02*
X107625000Y-102404700D01*
X107625000Y-102213000D02*
X107625000Y-102404700D01*
X109491600Y-100346400D02*
X107625000Y-102213000D01*
X114641100Y-100346400D02*
X109491600Y-100346400D01*
X115212200Y-100917500D02*
X114641100Y-100346400D01*
X124042000Y-100917500D02*
X115212200Y-100917500D01*
X124608400Y-101483900D02*
X124042000Y-100917500D01*
X130208500Y-101483900D02*
X124608400Y-101483900D01*
X106975000Y-103230000D02*
X106975000Y-102404700D01*
X106975000Y-102198000D02*
X106975000Y-102404700D01*
X109276900Y-99896100D02*
X106975000Y-102198000D01*
X114827700Y-99896100D02*
X109276900Y-99896100D01*
X115398800Y-100467200D02*
X114827700Y-99896100D01*
X124228600Y-100467200D02*
X115398800Y-100467200D01*
X124706400Y-100945000D02*
X124228600Y-100467200D01*
X134718600Y-100945000D02*
X124706400Y-100945000D01*
X135196000Y-101422400D02*
X134718600Y-100945000D01*
X137961600Y-101422400D02*
X135196000Y-101422400D01*
X140826400Y-104287200D02*
X137961600Y-101422400D01*
X147174800Y-104287200D02*
X140826400Y-104287200D01*
X125222000Y-132767700D02*
X125131300Y-132677000D01*
X125222000Y-135890000D02*
X125222000Y-132767700D01*
X155800000Y-66365000D02*
X156337700Y-66365000D01*
X155800000Y-65715000D02*
X156875300Y-65715000D01*
X156641200Y-66365000D02*
X156875300Y-66130900D01*
X156337700Y-66365000D02*
X156641200Y-66365000D01*
X156875300Y-66130900D02*
X156875300Y-65715000D01*
X158366500Y-66130900D02*
X156875300Y-66130900D01*
X159400000Y-83916600D02*
X159399900Y-83916600D01*
X159400000Y-82910000D02*
X159400000Y-83916600D01*
X179705000Y-81260000D02*
X179705000Y-81772600D01*
X179705000Y-59670000D02*
X179705000Y-60695300D01*
X179705000Y-60695300D02*
X179809500Y-60799800D01*
X179705000Y-81772600D02*
X179070000Y-81772600D01*
X206375000Y-81260000D02*
X206375000Y-80234700D01*
X202928000Y-79334100D02*
X202841800Y-79420300D01*
X205474400Y-79334100D02*
X202928000Y-79334100D01*
X206375000Y-80234700D02*
X205474400Y-79334100D01*
X202342300Y-62571500D02*
X202353000Y-62560800D01*
X179231600Y-62571500D02*
X202342300Y-62571500D01*
X179070000Y-62409900D02*
X179231600Y-62571500D01*
X206375000Y-60069200D02*
X206375000Y-59670000D01*
X203883400Y-62560800D02*
X206375000Y-60069200D01*
X202353000Y-62560800D02*
X203883400Y-62560800D01*
X146050000Y-96110000D02*
X146050000Y-97160300D01*
X177314500Y-86370000D02*
X168236900Y-86370000D01*
X148596700Y-97160300D02*
X146050000Y-97160300D01*
X150335500Y-95421500D02*
X148596700Y-97160300D01*
X155234400Y-95421500D02*
X150335500Y-95421500D01*
X155293600Y-95480700D02*
X155234400Y-95421500D01*
X159563400Y-95480700D02*
X155293600Y-95480700D01*
X159870600Y-95173500D02*
X159563400Y-95480700D01*
X173990000Y-103600000D02*
X172814700Y-103600000D01*
X152940000Y-101600000D02*
X152940000Y-100424700D01*
X172526200Y-103600000D02*
X172814700Y-103600000D01*
X170956800Y-102030600D02*
X172526200Y-103600000D01*
X161200300Y-102030600D02*
X170956800Y-102030600D01*
X159594400Y-100424700D02*
X161200300Y-102030600D01*
X152940000Y-100424700D02*
X159594400Y-100424700D01*
X95980000Y-90170000D02*
X97305300Y-90170000D01*
X119113700Y-73957100D02*
X135996600Y-73957100D01*
X116726700Y-71570100D02*
X119113700Y-73957100D01*
X140622600Y-79403000D02*
X139815800Y-80209800D01*
X140622600Y-79217300D02*
X140622600Y-79403000D01*
X141723900Y-78116000D02*
X140622600Y-79217300D01*
X143546500Y-78116000D02*
X141723900Y-78116000D01*
X180340000Y-99600000D02*
X177211800Y-99600000D01*
X158895800Y-67015000D02*
X155800000Y-67015000D01*
X161839300Y-69958500D02*
X158895800Y-67015000D01*
X169952500Y-69958500D02*
X161839300Y-69958500D01*
X153042600Y-67015000D02*
X152198500Y-67859100D01*
X155800000Y-67015000D02*
X153042600Y-67015000D01*
X98043300Y-90908000D02*
X98594300Y-90908000D01*
X97305300Y-90170000D02*
X98043300Y-90908000D01*
X105079500Y-88785200D02*
X104870000Y-88994700D01*
X107435800Y-88785200D02*
X105079500Y-88785200D01*
X104870000Y-90170000D02*
X104870000Y-88994700D01*
X114660000Y-69230000D02*
X113521700Y-69230000D01*
X109985300Y-92540000D02*
X109815300Y-92710000D01*
X110026000Y-92540000D02*
X109985300Y-92540000D01*
X108490000Y-92710000D02*
X109815300Y-92710000D01*
X114660000Y-69880000D02*
X113734700Y-69880000D01*
X113734700Y-69880000D02*
X113652800Y-69880000D01*
X158519500Y-88884700D02*
X158303500Y-88668700D01*
X159400000Y-88884700D02*
X158519500Y-88884700D01*
X95893500Y-107918800D02*
X95924700Y-107950000D01*
X95801500Y-107918800D02*
X95893500Y-107918800D01*
X97250000Y-107950000D02*
X95924700Y-107950000D01*
X110018700Y-52875300D02*
X159956100Y-52875300D01*
X107046700Y-55847300D02*
X110018700Y-52875300D01*
X159400000Y-89810000D02*
X159400000Y-88884700D01*
X105065300Y-113030000D02*
X105525400Y-112569900D01*
X98520000Y-113030000D02*
X105065300Y-113030000D01*
X150838900Y-106219900D02*
X150407500Y-105788500D01*
X150838900Y-106948700D02*
X150838900Y-106219900D01*
X149092000Y-108695600D02*
X150838900Y-106948700D01*
X148646800Y-108695600D02*
X149092000Y-108695600D01*
X154107900Y-88077600D02*
X154014200Y-88171300D01*
X159258300Y-88077600D02*
X154107900Y-88077600D01*
X160050000Y-88869300D02*
X159258300Y-88077600D01*
X160050000Y-89810000D02*
X160050000Y-88869300D01*
X108816900Y-99445800D02*
X107458600Y-100804100D01*
X115014300Y-99445800D02*
X108816900Y-99445800D01*
X115165600Y-99597100D02*
X115014300Y-99445800D01*
X117939900Y-99597100D02*
X115165600Y-99597100D01*
X157450000Y-89810000D02*
X157450000Y-88884700D01*
X157450000Y-88884700D02*
X154146900Y-88884700D01*
X149947000Y-106652500D02*
X150299800Y-106652500D01*
X147977900Y-108621600D02*
X149947000Y-106652500D01*
X144443500Y-108621600D02*
X147977900Y-108621600D01*
X143993200Y-109071900D02*
X144443500Y-108621600D01*
X139579900Y-109071900D02*
X143993200Y-109071900D01*
X139322900Y-109328900D02*
X139579900Y-109071900D01*
X134735300Y-109328900D02*
X139322900Y-109328900D01*
X131540000Y-106133600D02*
X134735300Y-109328900D01*
X131540000Y-104140000D02*
X131540000Y-106133600D01*
X158100000Y-89810000D02*
X158100000Y-90735300D01*
X165100000Y-90710000D02*
X163924700Y-90710000D01*
X163899400Y-90735300D02*
X163924700Y-90710000D01*
X158100000Y-90735300D02*
X163899400Y-90735300D01*
X158750000Y-82910000D02*
X158750000Y-81984700D01*
X159709900Y-76200000D02*
X158020000Y-76200000D01*
X160885200Y-75024700D02*
X159709900Y-76200000D01*
X166724800Y-75024700D02*
X160885200Y-75024700D01*
X166965300Y-75265200D02*
X166724800Y-75024700D01*
X166965300Y-77150200D02*
X166965300Y-75265200D01*
X166490400Y-77625100D02*
X166965300Y-77150200D01*
X163173200Y-77625100D02*
X166490400Y-77625100D01*
X158813600Y-81984700D02*
X163173200Y-77625100D01*
X158750000Y-81984700D02*
X158813600Y-81984700D01*
X154820000Y-81984700D02*
X153575300Y-80740000D01*
X158100000Y-81984700D02*
X154820000Y-81984700D01*
X158100000Y-82910000D02*
X158100000Y-81984700D01*
X152400000Y-80740000D02*
X153575300Y-80740000D01*
X145400000Y-102010000D02*
X145400000Y-103060300D01*
X139462300Y-79856300D02*
X138878800Y-80439800D01*
X139389200Y-81382100D02*
X139389200Y-81416100D01*
X139362800Y-81355700D02*
X139389200Y-81382100D01*
X139362800Y-81035400D02*
X139362800Y-81355700D01*
X139184500Y-80857100D02*
X139362800Y-81035400D01*
X139184500Y-80855900D02*
X139184500Y-80857100D01*
X138898600Y-80570000D02*
X139184500Y-80855900D01*
X138898600Y-80459700D02*
X138898600Y-80570000D01*
X138878800Y-80439800D02*
X138898600Y-80459700D01*
X143619700Y-103060300D02*
X143275000Y-102715600D01*
X145400000Y-103060300D02*
X143619700Y-103060300D01*
X155300000Y-54580000D02*
X154374700Y-54580000D01*
X154374700Y-54580000D02*
X154293700Y-54580000D01*
X144750000Y-96110000D02*
X144750000Y-95059700D01*
X145481100Y-95059700D02*
X145576400Y-94964400D01*
X144750000Y-95059700D02*
X145481100Y-95059700D01*
X144100000Y-102010000D02*
X144100000Y-100959700D01*
X144212600Y-100847100D02*
X144219800Y-100847100D01*
X144100000Y-100959700D02*
X144212600Y-100847100D01*
X155300000Y-56530000D02*
X153759200Y-56530000D01*
X162200000Y-57830000D02*
X159312300Y-57830000D01*
X146050000Y-102010000D02*
X146050000Y-100959700D01*
X146050000Y-100959700D02*
X146050000Y-100852600D01*
X155953400Y-69270000D02*
X153759200Y-69270000D01*
X146700000Y-102010000D02*
X146700000Y-100959700D01*
X153687200Y-57227600D02*
X154209500Y-57227600D01*
X153188500Y-56728900D02*
X153687200Y-57227600D01*
X153188500Y-54872600D02*
X153188500Y-56728900D01*
X154131100Y-53930000D02*
X153188500Y-54872600D01*
X155300000Y-53930000D02*
X154131100Y-53930000D01*
X151972600Y-97748000D02*
X154270300Y-97748000D01*
X151804200Y-97916400D02*
X151972600Y-97748000D01*
X151281800Y-97916400D02*
X151804200Y-97916400D01*
X149319000Y-99879200D02*
X151281800Y-97916400D01*
X147780400Y-99879200D02*
X149319000Y-99879200D01*
X147780400Y-99879300D02*
X147780400Y-99879200D01*
X146700000Y-100959700D02*
X147780400Y-99879300D01*
X120634700Y-68580000D02*
X120634700Y-69230000D01*
X121560000Y-68580000D02*
X120634700Y-68580000D01*
X121560000Y-69230000D02*
X120634700Y-69230000D01*
X119176900Y-67930000D02*
X121560000Y-67930000D01*
X117876900Y-66630000D02*
X119176900Y-67930000D01*
X114660000Y-66630000D02*
X117876900Y-66630000D01*
X159470400Y-55230000D02*
X162200000Y-55230000D01*
X157644200Y-53403800D02*
X159470400Y-55230000D01*
X138319800Y-53403800D02*
X157644200Y-53403800D01*
X124443600Y-67280000D02*
X138319800Y-53403800D01*
X121560000Y-67280000D02*
X124443600Y-67280000D01*
X156225300Y-55880000D02*
X156225300Y-55230000D01*
X155300000Y-55880000D02*
X156225300Y-55880000D01*
X155300000Y-55230000D02*
X156225300Y-55230000D01*
X156739800Y-57180000D02*
X155300000Y-57180000D01*
X157389800Y-56530000D02*
X156739800Y-57180000D01*
X162200000Y-56530000D02*
X157389800Y-56530000D01*
X163125300Y-57180000D02*
X163125300Y-55880000D01*
X162200000Y-57180000D02*
X163125300Y-57180000D01*
X162200000Y-55880000D02*
X163125300Y-55880000D01*
M02*
