M48
;DRILL file {KiCad 4.0.2+dfsg1-stable} date mar 15 gen 2019 12:05:08 CET
;FORMAT={-:-/ absolute / inch / decimal}
FMAT,2
INCH,TZ
T1C0.012
T2C0.016
T3C0.040
T4C0.120
%
G90
G05
M72
T1
X3.6644Y-4.0998
X3.7116Y-4.0999
X3.7158Y-3.7992
X3.7672Y-4.1
X3.7717Y-4.2488
X3.7958Y-3.7905
X3.8469Y-2.8521
X3.8581Y-2.1
X3.8817Y-3.5791
X4.0142Y-4.2341
X4.0444Y-3.8033
X4.0469Y-3.8683
X4.1022Y-3.7996
X4.1409Y-3.6946
X4.1545Y-4.4319
X4.1646Y-3.6733
X4.1995Y-3.2213
X4.2061Y-3.9634
X4.2141Y-3.6885
X4.2144Y-2.1987
X4.2149Y-3.6455
X4.2298Y-3.4955
X4.2307Y-3.9687
X4.2641Y-4.0281
X4.3188Y-3.9718
X4.3317Y-3.6433
X4.3548Y-3.6289
X4.3575Y-4.6546
X4.3902Y-5.2234
X4.4613Y-4.0134
X4.4694Y-2.7256
X4.4745Y-2.7512
X4.4935Y-5.2232
X4.4993Y-3.9909
X4.5207Y-3.5557
X4.526Y-3.7429
X4.5275Y-4.1197
X4.5379Y-4.0967
X4.5835Y-4.027
X4.5893Y-2.9345
X4.5955Y-2.8177
X4.5966Y-3.7395
X4.6123Y-2.7299
X4.6247Y-5.2234
X4.6309Y-3.8975
X4.6319Y-4.1843
X4.6433Y-3.9211
X4.6493Y-3.6973
X4.6587Y-4.1011
X4.695Y-2.4
X4.7033Y-3.8904
X4.714Y-3.7593
X4.7201Y-4.4146
X4.7209Y-2.5848
X4.7357Y-4.1001
X4.7419Y-2.8305
X4.7437Y-5.2232
X4.7576Y-3.698
X4.7884Y-5.2232
X4.8109Y-2.8791
X4.8298Y-2.9557
X4.849Y-3.7716
X4.8771Y-4.4956
X4.8906Y-4.0128
X4.9264Y-5.2235
X4.936Y-3.8585
X4.9428Y-3.1655
X4.9434Y-4.1104
X4.9435Y-3.1895
X4.956Y-3.6963
X4.9803Y-3.0979
X4.982Y-3.7247
X5.0032Y-3.6165
X5.057Y-3.6593
X5.0743Y-3.6372
X5.0795Y-3.1736
X5.104Y-2.8126
X5.1072Y-3.0438
X5.1097Y-3.489
X5.1104Y-4.0646
X5.1123Y-4.035
X5.1263Y-3.9954
X5.1264Y-3.5729
X5.1367Y-3.6185
X5.1407Y-3.8748
X5.1483Y-3.5523
X5.1572Y-3.5286
X5.1592Y-3.2713
X5.1611Y-3.5013
X5.1754Y-3.1878
X5.1925Y-2.7512
X5.1941Y-3.042
X5.2061Y-3.4044
X5.2094Y-3.4313
X5.2261Y-3.8573
X5.2348Y-4.1785
X5.2349Y-4.6594
X5.2352Y-3.1193
X5.2518Y-2.333
X5.2818Y-3.2768
X5.292Y-3.1439
X5.294Y-4.1761
X5.2982Y-3.0575
X5.3004Y-2.8791
X5.3017Y-4.2309
X5.3214Y-3.6032
X5.3334Y-3.7046
X5.3343Y-4.1046
X5.3351Y-2.9345
X5.3542Y-2.9117
X5.3692Y-3.7984
X5.3692Y-3.4905
X5.3769Y-4.1806
X5.3786Y-2.9469
X5.384Y-3.2589
X5.3873Y-3.0919
X5.4005Y-4.1847
X5.4176Y-3.469
X5.4183Y-4.1638
X5.4238Y-3.2432
X5.4307Y-3.6371
X5.4402Y-4.1523
X5.4478Y-3.0473
X5.4482Y-3.4391
X5.4514Y-3.9369
X5.4524Y-3.9846
X5.4524Y-4.0891
X5.4534Y-4.1321
X5.4546Y-3.8793
X5.4563Y-4.325
X5.4691Y-3.2286
X5.4751Y-3.0465
X5.4774Y-3.326
X5.4878Y-3.2054
X5.4894Y-4.5931
X5.4932Y-3.3943
X5.4945Y-4.182
X5.4976Y-3.6821
X5.5013Y-3.2253
X5.5078Y-2.5602
X5.51Y-3.8409
X5.5131Y-4.3446
X5.5155Y-3.7271
X5.5157Y-3.6351
X5.527Y-2.967
X5.5279Y-3.2473
X5.5314Y-3.8236
X5.557Y-3.1274
X5.572Y-3.2873
X5.5758Y-4.1281
X5.581Y-2.947
X5.5992Y-3.2024
X5.6188Y-4.5121
X5.6201Y-4.3424
X5.6275Y-3.4491
X5.6361Y-3.8236
X5.6371Y-3.4244
X5.6407Y-4.0439
X5.6421Y-3.3766
X5.6475Y-3.5691
X5.6514Y-3.0754
X5.676Y-3.162
X5.6779Y-3.9704
X5.6895Y-3.1412
X5.7122Y-3.654
X5.7136Y-4.1842
X5.7169Y-2.736
X5.7198Y-3.941
X5.7253Y-3.352
X5.7314Y-3.7388
X5.7339Y-3.3777
X5.75Y-3.9706
X5.765Y-3.6759
X5.7774Y-3.7385
X5.7861Y-4.5084
X5.7943Y-4.1058
X5.8056Y-2.6476
X5.8074Y-3.573
X5.8207Y-4.5678
X5.821Y-2.5258
X5.8228Y-4.0607
X5.8439Y-3.5962
X5.8474Y-3.9039
X5.851Y-2.711
X5.8519Y-3.7565
X5.8522Y-4.2794
X5.8526Y-3.9968
X5.8735Y-3.8831
X5.8767Y-4.7343
X5.88Y-5.2236
X5.8995Y-3.4181
X5.909Y-2.333
X5.9173Y-4.1989
X5.919Y-2.8632
X5.9216Y-4.1649
X5.9229Y-4.8647
X5.9284Y-4.5019
X5.9338Y-3.5596
X5.9473Y-3.6192
X5.9516Y-3.5408
X5.9557Y-4.2976
X5.9678Y-2.8394
X5.9709Y-3.831
X5.98Y-5.2239
X5.9921Y-2.6716
X6.0535Y-2.2256
X6.0535Y-2.7272
X6.0636Y-3.4713
X6.0688Y-3.4994
X6.07Y-4.2294
X6.0712Y-2.2531
X6.0712Y-2.7718
X6.0722Y-4.1088
X6.0736Y-3.8483
X6.0746Y-2.1488
X6.0775Y-2.5104
X6.0777Y-3.174
X6.08Y-5.2224
X6.0881Y-4.678
X6.113Y-3.7361
X6.1176Y-4.0784
X6.1323Y-3.5785
X6.1399Y-2.7272
X6.1511Y-3.5962
X6.1768Y-3.3974
X6.18Y-5.2222
X6.1863Y-3.6162
X6.1968Y-3.5763
X6.2227Y-3.7381
X6.2324Y-3.4909
X6.2349Y-2.6036
X6.2491Y-3.8661
X6.2711Y-3.8199
X6.2721Y-2.2768
X6.2756Y-3.3038
X6.28Y-5.2231
X6.2864Y-3.9252
X6.2866Y-3.8661
X6.2941Y-3.747
X6.2975Y-2.0817
X6.3012Y-3.2243
X6.3043Y-3.8415
X6.3107Y-3.9202
X6.3342Y-2.1488
X6.3346Y-4.1835
X6.3416Y-3.4498
X6.3649Y-3.0861
X6.3668Y-4.2481
X6.38Y-5.2231
X6.3813Y-3.4784
X6.3833Y-3.7446
X6.4077Y-4.3087
X6.4104Y-3.9218
X6.4273Y-3.4259
X6.4432Y-4.3326
X6.4506Y-3.5323
X6.4565Y-3.7945
X6.4565Y-3.9216
X6.4785Y-4.0778
X6.48Y-5.2234
X6.4872Y-3.9217
X6.5384Y-4.0779
X6.5659Y-4.0777
X6.5778Y-3.6766
X6.5782Y-2.7336
X6.58Y-5.2236
X6.58Y-3.2662
X6.5953Y-3.4613
X6.5974Y-3.2874
X6.6091Y-2.5616
X6.6118Y-3.8415
X6.6175Y-3.5116
X6.6184Y-2.4264
X6.6186Y-3.3346
X6.6235Y-3.4004
X6.6288Y-4.1498
X6.6294Y-2.4017
X6.6353Y-3.6495
X6.6378Y-4.6657
X6.6387Y-3.357
X6.639Y-3.6135
X6.643Y-2.5628
X6.6478Y-2.8578
X6.6577Y-2.8929
X6.6594Y-3.6565
X6.6613Y-3.9607
X6.6745Y-3.9035
X6.6771Y-3.3786
X6.68Y-5.2242
X6.691Y-2.7543
X6.7001Y-3.1695
X6.7078Y-3.6434
X6.7082Y-4.2877
X6.7086Y-3.8841
X6.733Y-3.3337
X6.7407Y-3.7721
X6.7419Y-2.5082
X6.7472Y-3.1184
X6.755Y-4.0121
X6.765Y-2.7986
X6.775Y-3.2441
X6.78Y-5.2223
X6.7826Y-2.8944
X6.8004Y-2.919
X6.8078Y-2.4423
X6.8118Y-2.3056
X6.8201Y-3.6564
X6.8225Y-3.1555
X6.8248Y-2.4258
X6.8263Y-3.4282
X6.8435Y-3.5498
X6.847Y-3.7377
X6.874Y-3.7442
X6.8782Y-2.3973
X6.88Y-5.2223
X6.8827Y-2.288
X6.8938Y-2.8104
X6.8996Y-2.9662
X6.9Y-3.668
X6.9123Y-2.9047
X6.9332Y-4.511
X6.9335Y-3.9769
X6.9398Y-3.2559
X6.9421Y-2.3052
X6.95Y-3.1992
X6.9554Y-3.8706
X6.9563Y-2.8104
X6.9572Y-2.751
X6.9738Y-3.6565
X6.9747Y-2.4782
X6.975Y-2.3929
X6.9768Y-3.5375
X6.9768Y-3.9213
X6.98Y-5.223
X6.9809Y-3.4004
X6.9878Y-3.4245
X6.9924Y-4.6811
X7.0076Y-3.2409
X7.025Y-3.6569
X7.027Y-2.4272
X7.03Y-3.079
X7.0356Y-3.4872
X7.0366Y-3.7514
X7.05Y-2.4571
X7.05Y-3.2194
X7.0657Y-3.4172
X7.0791Y-2.3937
X7.08Y-5.2228
X7.0922Y-2.8091
X7.094Y-3.6502
X7.1Y-3.7202
X7.1156Y-2.3927
X7.1198Y-3.505
X7.1237Y-3.6569
X7.125Y-2.8958
X7.1388Y-3.627
X7.1413Y-3.2522
X7.1423Y-3.7639
X7.1615Y-3.1118
X7.1759Y-4.878
X7.1863Y-4.9551
X7.2015Y-3.2381
X7.2435Y-3.1588
X7.25Y-2.3453
X7.2593Y-4.0662
X7.2665Y-2.6663
X7.28Y-5.2237
X7.3256Y-2.8943
X7.3427Y-3.6527
X7.35Y-2.3453
X7.35Y-2.3862
X7.35Y-2.5616
X7.35Y-2.8306
X7.3704Y-3.1031
X7.3955Y-2.5744
X7.3955Y-3.1588
X7.4119Y-3.9136
X7.4477Y-2.3862
X7.4646Y-3.435
X7.4788Y-3.0402
X7.4883Y-3.6646
X7.4972Y-3.3744
X7.5399Y-2.274
X7.5664Y-3.1022
X7.5762Y-3.5996
X7.6323Y-3.3937
X7.6546Y-3.5716
X7.6715Y-2.3894
X7.6729Y-3.1737
X7.6854Y-2.3454
X7.6959Y-3.5605
X7.7026Y-3.6612
X7.7044Y-2.9042
X7.7323Y-2.9522
X7.75Y-2.3284
X7.7837Y-2.9528
X7.787Y-2.8943
X7.7917Y-3.1567
X7.8Y-3.7008
X7.8044Y-3.3855
X7.8077Y-2.4073
X7.8381Y-3.2452
X7.846Y-2.3896
X7.8594Y-3.6566
X7.875Y-2.8944
X7.9Y-2.3088
X7.9039Y-3.6604
X7.904Y-2.8912
X7.9209Y-3.127
X7.9539Y-3.6604
X7.9618Y-2.895
X7.9667Y-2.463
X7.9859Y-3.1268
X7.9982Y-2.6956
X8.0171Y-3.5661
X8.025Y-2.8951
X8.0444Y-2.7173
X8.05Y-3.7325
X8.0564Y-3.286
X8.0714Y-3.4771
X8.0714Y-3.6568
X8.0942Y-2.8912
X8.0944Y-3.5759
X8.1424Y-2.8943
X8.164Y-2.9359
X8.175Y-3.6565
X8.1967Y-2.3896
X8.2467Y-3.6631
X8.2611Y-3.0526
X8.2966Y-3.1588
X8.3Y-3.668
X8.305Y-2.4366
X8.3063Y-3.2396
X8.309Y-3.0827
X8.3096Y-3.2701
X8.3104Y-2.7758
X8.3196Y-2.3927
X8.325Y-2.895
X8.35Y-3.6604
X8.3745Y-3.6574
X8.3801Y-2.8943
X8.4111Y-2.8943
X8.425Y-3.6572
X8.433Y-3.1234
X8.471Y-2.3936
T2
X4.0064Y-4.0297
X4.1703Y-4.109
X4.5133Y-4.0568
X4.9781Y-4.1854
X5.1405Y-2.45
X5.5567Y-4.4207
X5.8772Y-4.8008
X7.1535Y-4.2764
X7.1639Y-4.4139
X7.3938Y-4.3828
T3
X3.6Y-3.2
X3.8Y-2.3
X3.8Y-2.4
X3.8Y-2.5
X3.8Y-2.6
X4.3Y-2.35
X4.3Y-2.45
X4.3Y-2.55
X4.35Y-4.3545
X4.35Y-4.5455
X4.45Y-4.3545
X4.45Y-4.5455
X4.55Y-4.3545
X4.55Y-4.5455
X4.65Y-4.3545
X4.65Y-4.5455
X4.75Y-4.3545
X4.75Y-4.5455
X4.85Y-4.3545
X4.85Y-4.5455
X4.95Y-4.3545
X4.95Y-4.5455
X5.25Y-2.8
X5.35Y-2.8
X5.45Y-2.8
X5.65Y-2.45
X5.75Y-2.45
X5.75Y-2.8
X5.85Y-2.45
X5.85Y-2.8
X5.9Y-4.3545
X5.9Y-4.5455
X5.95Y-2.45
X6.Y-4.3545
X6.Y-4.5455
X6.1Y-4.3545
X6.1Y-4.5455
X6.2Y-4.3545
X6.2Y-4.5455
X6.3Y-4.3545
X6.3Y-4.5455
X6.4Y-4.3545
X6.4Y-4.5455
X6.5Y-4.3545
X6.5Y-4.5455
X6.6Y-4.3545
X6.6Y-4.5455
X6.7Y-4.3545
X6.7Y-4.5455
X6.8Y-4.3545
X6.8Y-4.5455
X6.9Y-4.3545
X6.9Y-4.5455
X7.Y-4.3545
X7.Y-4.5455
X7.1Y-4.3545
X7.1Y-4.5455
X7.2Y-4.3545
X7.2Y-4.5455
X7.3Y-4.3545
X7.3Y-4.5455
T4
X3.5Y-2.1
X3.5Y-4.55
X8.55Y-2.1
X8.55Y-4.55
T0
M30
