G04 #@! TF.FileFunction,Copper,L1,Top,Signal*
%FSLAX46Y46*%
G04 Gerber Fmt 4.6, Leading zero omitted, Abs format (unit mm)*
G04 Created by KiCad (PCBNEW 4.0.2+dfsg1-stable) date Thu 10 Jan 2019 07:37:44 CET*
%MOMM*%
G01*
G04 APERTURE LIST*
%ADD10C,0.100000*%
%ADD11C,0.381000*%
%ADD12R,1.930400X5.588000*%
%ADD13R,2.032000X1.727200*%
%ADD14O,2.032000X1.727200*%
%ADD15C,1.524000*%
%ADD16R,1.524000X1.524000*%
%ADD17R,1.600200X2.999740*%
%ADD18R,2.000000X1.600000*%
%ADD19R,1.600000X2.000000*%
%ADD20R,1.597660X1.800860*%
%ADD21R,1.800860X1.597660*%
%ADD22R,1.727200X2.032000*%
%ADD23O,1.727200X2.032000*%
%ADD24R,2.598420X1.198880*%
%ADD25R,2.600960X1.198880*%
%ADD26C,4.064000*%
%ADD27R,2.000000X1.700000*%
%ADD28R,1.700000X2.000000*%
%ADD29R,2.180000X1.600000*%
%ADD30R,1.500000X0.450000*%
%ADD31R,0.400000X1.000000*%
%ADD32R,0.450000X1.450000*%
%ADD33R,0.400000X1.200000*%
%ADD34R,0.450000X1.400000*%
%ADD35R,1.399540X1.800860*%
%ADD36R,2.032000X3.657600*%
%ADD37R,2.032000X1.016000*%
%ADD38R,2.235200X2.235200*%
%ADD39R,2.032000X2.032000*%
%ADD40O,2.032000X2.032000*%
%ADD41C,0.400000*%
%ADD42C,0.250000*%
G04 APERTURE END LIST*
D10*
D11*
X103700580Y-80309720D02*
X103700580Y-81909920D01*
X103700580Y-81909920D02*
X104899460Y-81909920D01*
X101201220Y-81909920D02*
X101201220Y-80408780D01*
X101201220Y-80408780D02*
X102100380Y-80408780D01*
X102100380Y-80408780D02*
X102301040Y-80408780D01*
X102301040Y-80408780D02*
X102499160Y-80510380D01*
X102499160Y-80510380D02*
X102600760Y-80711040D01*
X102600760Y-80711040D02*
X102600760Y-80909160D01*
X102600760Y-80909160D02*
X102400100Y-81109820D01*
X102400100Y-81109820D02*
X102100380Y-81208880D01*
X102100380Y-81208880D02*
X101201220Y-81208880D01*
X99999800Y-80510380D02*
X99799140Y-80408780D01*
X99799140Y-80408780D02*
X99298760Y-80408780D01*
X99298760Y-80408780D02*
X98999040Y-80510380D01*
X98999040Y-80510380D02*
X98800920Y-80609440D01*
X98800920Y-80609440D02*
X98600260Y-80909160D01*
X98600260Y-80909160D02*
X98600260Y-81208880D01*
X98600260Y-81208880D02*
X98699320Y-81610200D01*
X98699320Y-81610200D02*
X98999040Y-81810860D01*
X98999040Y-81810860D02*
X99298760Y-81909920D01*
X99298760Y-81909920D02*
X99601020Y-81909920D01*
X99601020Y-81909920D02*
X100098860Y-81810860D01*
X100098860Y-81810860D02*
X100098860Y-81310480D01*
X100098860Y-81310480D02*
X99601020Y-81310480D01*
X103400860Y-77810360D02*
X103400860Y-79110840D01*
X103400860Y-79110840D02*
X103700580Y-79308960D01*
X103700580Y-79308960D02*
X104000300Y-79308960D01*
X104000300Y-79308960D02*
X104399080Y-79308960D01*
X104399080Y-79308960D02*
X104698800Y-79209900D01*
X104698800Y-79209900D02*
X104899460Y-79110840D01*
X104899460Y-79110840D02*
X104899460Y-77810360D01*
X100799900Y-79308960D02*
X100799900Y-77810360D01*
X100799900Y-77810360D02*
X102301040Y-79308960D01*
X102301040Y-79308960D02*
X102301040Y-77810360D01*
X99601020Y-77909420D02*
X99298760Y-77810360D01*
X99298760Y-77810360D02*
X98800920Y-77909420D01*
X98800920Y-77909420D02*
X98399600Y-78110080D01*
X98399600Y-78110080D02*
X98198940Y-78508860D01*
X98198940Y-78508860D02*
X98300540Y-78910180D01*
X98300540Y-78910180D02*
X98600260Y-79209900D01*
X98600260Y-79209900D02*
X99100640Y-79410560D01*
X99100640Y-79410560D02*
X99799140Y-79209900D01*
X99799140Y-79209900D02*
X99799140Y-78709520D01*
X99799140Y-78709520D02*
X99298760Y-78709520D01*
X97536000Y-76962000D02*
X105664000Y-76962000D01*
X105664000Y-76962000D02*
X105664000Y-82550000D01*
X105664000Y-82550000D02*
X97536000Y-82550000D01*
X97536000Y-82550000D02*
X97536000Y-76962000D01*
D12*
X184912000Y-135890000D03*
X182372000Y-135890000D03*
X179832000Y-135890000D03*
X177292000Y-135890000D03*
X174752000Y-135890000D03*
X172212000Y-135890000D03*
X169672000Y-135890000D03*
X167132000Y-135890000D03*
X164592000Y-135890000D03*
X162052000Y-135890000D03*
X159512000Y-135890000D03*
X156972000Y-135890000D03*
X154432000Y-135890000D03*
X151892000Y-135890000D03*
X149352000Y-135890000D03*
D13*
X96520000Y-66040000D03*
D14*
X96520000Y-63500000D03*
X96520000Y-60960000D03*
X96520000Y-58420000D03*
D15*
X110490000Y-110604300D03*
X110490000Y-115455700D03*
X113030000Y-110604300D03*
X113030000Y-115455700D03*
X115570000Y-110604300D03*
X115570000Y-115455700D03*
X118110000Y-110604300D03*
X118110000Y-115455700D03*
X120650000Y-110604300D03*
X120650000Y-115455700D03*
X123190000Y-110604300D03*
X123190000Y-115455700D03*
D16*
X125730000Y-110604300D03*
D15*
X125730000Y-115455700D03*
D17*
X214630000Y-104480360D03*
X214630000Y-108879640D03*
X186690000Y-100670360D03*
X186690000Y-105069640D03*
D18*
X119920000Y-76200000D03*
X123920000Y-76200000D03*
X119920000Y-91440000D03*
X123920000Y-91440000D03*
X133890000Y-96520000D03*
X137890000Y-96520000D03*
D19*
X148590000Y-85820000D03*
X148590000Y-81820000D03*
D18*
X137890000Y-64770000D03*
X133890000Y-64770000D03*
D19*
X107950000Y-85820000D03*
X107950000Y-81820000D03*
D18*
X196310000Y-54610000D03*
X192310000Y-54610000D03*
X196310000Y-76200000D03*
X192310000Y-76200000D03*
X169640000Y-54610000D03*
X165640000Y-54610000D03*
X169640000Y-76200000D03*
X165640000Y-76200000D03*
D20*
X195729860Y-114300000D03*
X192890140Y-114300000D03*
X208429860Y-100330000D03*
X205590140Y-100330000D03*
D21*
X114300000Y-86210140D03*
X114300000Y-89049860D03*
D13*
X109220000Y-64770000D03*
D14*
X109220000Y-62230000D03*
X109220000Y-59690000D03*
D22*
X133350000Y-71120000D03*
D23*
X135890000Y-71120000D03*
X138430000Y-71120000D03*
D24*
X213121240Y-114300000D03*
D25*
X208518760Y-114300000D03*
D24*
X197088760Y-100330000D03*
D25*
X201691240Y-100330000D03*
D15*
X129540000Y-97790000D03*
D26*
X88900000Y-115570000D03*
X88900000Y-53340000D03*
X217170000Y-53340000D03*
X217170000Y-115570000D03*
D27*
X203930000Y-114300000D03*
X199930000Y-114300000D03*
X216630000Y-100330000D03*
X212630000Y-100330000D03*
X99790000Y-53340000D03*
X95790000Y-53340000D03*
X152940000Y-101600000D03*
X156940000Y-101600000D03*
D28*
X114300000Y-78010000D03*
X114300000Y-82010000D03*
X102870000Y-56420000D03*
X102870000Y-60420000D03*
X102870000Y-69310000D03*
X102870000Y-65310000D03*
D29*
X88107570Y-73657680D03*
X97312430Y-73662320D03*
D10*
G36*
X128307676Y-85530800D02*
X128130899Y-85354023D01*
X128838006Y-84646916D01*
X129014783Y-84823693D01*
X128307676Y-85530800D01*
X128307676Y-85530800D01*
G37*
G36*
X128661229Y-85884354D02*
X128484452Y-85707577D01*
X129191559Y-85000470D01*
X129368336Y-85177247D01*
X128661229Y-85884354D01*
X128661229Y-85884354D01*
G37*
G36*
X129014783Y-86237907D02*
X128838006Y-86061130D01*
X129545113Y-85354023D01*
X129721890Y-85530800D01*
X129014783Y-86237907D01*
X129014783Y-86237907D01*
G37*
G36*
X129368336Y-86591460D02*
X129191559Y-86414683D01*
X129898666Y-85707576D01*
X130075443Y-85884353D01*
X129368336Y-86591460D01*
X129368336Y-86591460D01*
G37*
G36*
X129721889Y-86945014D02*
X129545112Y-86768237D01*
X130252219Y-86061130D01*
X130428996Y-86237907D01*
X129721889Y-86945014D01*
X129721889Y-86945014D01*
G37*
G36*
X130075443Y-87298567D02*
X129898666Y-87121790D01*
X130605773Y-86414683D01*
X130782550Y-86591460D01*
X130075443Y-87298567D01*
X130075443Y-87298567D01*
G37*
G36*
X130428996Y-87652121D02*
X130252219Y-87475344D01*
X130959326Y-86768237D01*
X131136103Y-86945014D01*
X130428996Y-87652121D01*
X130428996Y-87652121D01*
G37*
G36*
X130782550Y-88005674D02*
X130605773Y-87828897D01*
X131312880Y-87121790D01*
X131489657Y-87298567D01*
X130782550Y-88005674D01*
X130782550Y-88005674D01*
G37*
G36*
X131136103Y-88359227D02*
X130959326Y-88182450D01*
X131666433Y-87475343D01*
X131843210Y-87652120D01*
X131136103Y-88359227D01*
X131136103Y-88359227D01*
G37*
G36*
X131489656Y-88712781D02*
X131312879Y-88536004D01*
X132019986Y-87828897D01*
X132196763Y-88005674D01*
X131489656Y-88712781D01*
X131489656Y-88712781D01*
G37*
G36*
X131843210Y-89066334D02*
X131666433Y-88889557D01*
X132373540Y-88182450D01*
X132550317Y-88359227D01*
X131843210Y-89066334D01*
X131843210Y-89066334D01*
G37*
G36*
X132196763Y-89419888D02*
X132019986Y-89243111D01*
X132727093Y-88536004D01*
X132903870Y-88712781D01*
X132196763Y-89419888D01*
X132196763Y-89419888D01*
G37*
G36*
X132550317Y-89773441D02*
X132373540Y-89596664D01*
X133080647Y-88889557D01*
X133257424Y-89066334D01*
X132550317Y-89773441D01*
X132550317Y-89773441D01*
G37*
G36*
X132903870Y-90126994D02*
X132727093Y-89950217D01*
X133434200Y-89243110D01*
X133610977Y-89419887D01*
X132903870Y-90126994D01*
X132903870Y-90126994D01*
G37*
G36*
X133257423Y-90480548D02*
X133080646Y-90303771D01*
X133787753Y-89596664D01*
X133964530Y-89773441D01*
X133257423Y-90480548D01*
X133257423Y-90480548D01*
G37*
G36*
X133610977Y-90834101D02*
X133434200Y-90657324D01*
X134141307Y-89950217D01*
X134318084Y-90126994D01*
X133610977Y-90834101D01*
X133610977Y-90834101D01*
G37*
G36*
X137075800Y-90657324D02*
X136899023Y-90834101D01*
X136191916Y-90126994D01*
X136368693Y-89950217D01*
X137075800Y-90657324D01*
X137075800Y-90657324D01*
G37*
G36*
X137429354Y-90303771D02*
X137252577Y-90480548D01*
X136545470Y-89773441D01*
X136722247Y-89596664D01*
X137429354Y-90303771D01*
X137429354Y-90303771D01*
G37*
G36*
X137782907Y-89950217D02*
X137606130Y-90126994D01*
X136899023Y-89419887D01*
X137075800Y-89243110D01*
X137782907Y-89950217D01*
X137782907Y-89950217D01*
G37*
G36*
X138136460Y-89596664D02*
X137959683Y-89773441D01*
X137252576Y-89066334D01*
X137429353Y-88889557D01*
X138136460Y-89596664D01*
X138136460Y-89596664D01*
G37*
G36*
X138490014Y-89243111D02*
X138313237Y-89419888D01*
X137606130Y-88712781D01*
X137782907Y-88536004D01*
X138490014Y-89243111D01*
X138490014Y-89243111D01*
G37*
G36*
X138843567Y-88889557D02*
X138666790Y-89066334D01*
X137959683Y-88359227D01*
X138136460Y-88182450D01*
X138843567Y-88889557D01*
X138843567Y-88889557D01*
G37*
G36*
X139197121Y-88536004D02*
X139020344Y-88712781D01*
X138313237Y-88005674D01*
X138490014Y-87828897D01*
X139197121Y-88536004D01*
X139197121Y-88536004D01*
G37*
G36*
X139550674Y-88182450D02*
X139373897Y-88359227D01*
X138666790Y-87652120D01*
X138843567Y-87475343D01*
X139550674Y-88182450D01*
X139550674Y-88182450D01*
G37*
G36*
X139904227Y-87828897D02*
X139727450Y-88005674D01*
X139020343Y-87298567D01*
X139197120Y-87121790D01*
X139904227Y-87828897D01*
X139904227Y-87828897D01*
G37*
G36*
X140257781Y-87475344D02*
X140081004Y-87652121D01*
X139373897Y-86945014D01*
X139550674Y-86768237D01*
X140257781Y-87475344D01*
X140257781Y-87475344D01*
G37*
G36*
X140611334Y-87121790D02*
X140434557Y-87298567D01*
X139727450Y-86591460D01*
X139904227Y-86414683D01*
X140611334Y-87121790D01*
X140611334Y-87121790D01*
G37*
G36*
X140964888Y-86768237D02*
X140788111Y-86945014D01*
X140081004Y-86237907D01*
X140257781Y-86061130D01*
X140964888Y-86768237D01*
X140964888Y-86768237D01*
G37*
G36*
X141318441Y-86414683D02*
X141141664Y-86591460D01*
X140434557Y-85884353D01*
X140611334Y-85707576D01*
X141318441Y-86414683D01*
X141318441Y-86414683D01*
G37*
G36*
X141671994Y-86061130D02*
X141495217Y-86237907D01*
X140788110Y-85530800D01*
X140964887Y-85354023D01*
X141671994Y-86061130D01*
X141671994Y-86061130D01*
G37*
G36*
X142025548Y-85707577D02*
X141848771Y-85884354D01*
X141141664Y-85177247D01*
X141318441Y-85000470D01*
X142025548Y-85707577D01*
X142025548Y-85707577D01*
G37*
G36*
X142379101Y-85354023D02*
X142202324Y-85530800D01*
X141495217Y-84823693D01*
X141671994Y-84646916D01*
X142379101Y-85354023D01*
X142379101Y-85354023D01*
G37*
G36*
X141671994Y-82773084D02*
X141495217Y-82596307D01*
X142202324Y-81889200D01*
X142379101Y-82065977D01*
X141671994Y-82773084D01*
X141671994Y-82773084D01*
G37*
G36*
X141318441Y-82419530D02*
X141141664Y-82242753D01*
X141848771Y-81535646D01*
X142025548Y-81712423D01*
X141318441Y-82419530D01*
X141318441Y-82419530D01*
G37*
G36*
X140964887Y-82065977D02*
X140788110Y-81889200D01*
X141495217Y-81182093D01*
X141671994Y-81358870D01*
X140964887Y-82065977D01*
X140964887Y-82065977D01*
G37*
G36*
X140611334Y-81712424D02*
X140434557Y-81535647D01*
X141141664Y-80828540D01*
X141318441Y-81005317D01*
X140611334Y-81712424D01*
X140611334Y-81712424D01*
G37*
G36*
X140257781Y-81358870D02*
X140081004Y-81182093D01*
X140788111Y-80474986D01*
X140964888Y-80651763D01*
X140257781Y-81358870D01*
X140257781Y-81358870D01*
G37*
G36*
X139904227Y-81005317D02*
X139727450Y-80828540D01*
X140434557Y-80121433D01*
X140611334Y-80298210D01*
X139904227Y-81005317D01*
X139904227Y-81005317D01*
G37*
G36*
X139550674Y-80651763D02*
X139373897Y-80474986D01*
X140081004Y-79767879D01*
X140257781Y-79944656D01*
X139550674Y-80651763D01*
X139550674Y-80651763D01*
G37*
G36*
X139197120Y-80298210D02*
X139020343Y-80121433D01*
X139727450Y-79414326D01*
X139904227Y-79591103D01*
X139197120Y-80298210D01*
X139197120Y-80298210D01*
G37*
G36*
X138843567Y-79944657D02*
X138666790Y-79767880D01*
X139373897Y-79060773D01*
X139550674Y-79237550D01*
X138843567Y-79944657D01*
X138843567Y-79944657D01*
G37*
G36*
X138490014Y-79591103D02*
X138313237Y-79414326D01*
X139020344Y-78707219D01*
X139197121Y-78883996D01*
X138490014Y-79591103D01*
X138490014Y-79591103D01*
G37*
G36*
X138136460Y-79237550D02*
X137959683Y-79060773D01*
X138666790Y-78353666D01*
X138843567Y-78530443D01*
X138136460Y-79237550D01*
X138136460Y-79237550D01*
G37*
G36*
X137782907Y-78883996D02*
X137606130Y-78707219D01*
X138313237Y-78000112D01*
X138490014Y-78176889D01*
X137782907Y-78883996D01*
X137782907Y-78883996D01*
G37*
G36*
X137429353Y-78530443D02*
X137252576Y-78353666D01*
X137959683Y-77646559D01*
X138136460Y-77823336D01*
X137429353Y-78530443D01*
X137429353Y-78530443D01*
G37*
G36*
X137075800Y-78176890D02*
X136899023Y-78000113D01*
X137606130Y-77293006D01*
X137782907Y-77469783D01*
X137075800Y-78176890D01*
X137075800Y-78176890D01*
G37*
G36*
X136722247Y-77823336D02*
X136545470Y-77646559D01*
X137252577Y-76939452D01*
X137429354Y-77116229D01*
X136722247Y-77823336D01*
X136722247Y-77823336D01*
G37*
G36*
X136368693Y-77469783D02*
X136191916Y-77293006D01*
X136899023Y-76585899D01*
X137075800Y-76762676D01*
X136368693Y-77469783D01*
X136368693Y-77469783D01*
G37*
G36*
X134318084Y-77293006D02*
X134141307Y-77469783D01*
X133434200Y-76762676D01*
X133610977Y-76585899D01*
X134318084Y-77293006D01*
X134318084Y-77293006D01*
G37*
G36*
X133964530Y-77646559D02*
X133787753Y-77823336D01*
X133080646Y-77116229D01*
X133257423Y-76939452D01*
X133964530Y-77646559D01*
X133964530Y-77646559D01*
G37*
G36*
X133610977Y-78000113D02*
X133434200Y-78176890D01*
X132727093Y-77469783D01*
X132903870Y-77293006D01*
X133610977Y-78000113D01*
X133610977Y-78000113D01*
G37*
G36*
X133257424Y-78353666D02*
X133080647Y-78530443D01*
X132373540Y-77823336D01*
X132550317Y-77646559D01*
X133257424Y-78353666D01*
X133257424Y-78353666D01*
G37*
G36*
X132903870Y-78707219D02*
X132727093Y-78883996D01*
X132019986Y-78176889D01*
X132196763Y-78000112D01*
X132903870Y-78707219D01*
X132903870Y-78707219D01*
G37*
G36*
X132550317Y-79060773D02*
X132373540Y-79237550D01*
X131666433Y-78530443D01*
X131843210Y-78353666D01*
X132550317Y-79060773D01*
X132550317Y-79060773D01*
G37*
G36*
X132196763Y-79414326D02*
X132019986Y-79591103D01*
X131312879Y-78883996D01*
X131489656Y-78707219D01*
X132196763Y-79414326D01*
X132196763Y-79414326D01*
G37*
G36*
X131843210Y-79767880D02*
X131666433Y-79944657D01*
X130959326Y-79237550D01*
X131136103Y-79060773D01*
X131843210Y-79767880D01*
X131843210Y-79767880D01*
G37*
G36*
X131489657Y-80121433D02*
X131312880Y-80298210D01*
X130605773Y-79591103D01*
X130782550Y-79414326D01*
X131489657Y-80121433D01*
X131489657Y-80121433D01*
G37*
G36*
X131136103Y-80474986D02*
X130959326Y-80651763D01*
X130252219Y-79944656D01*
X130428996Y-79767879D01*
X131136103Y-80474986D01*
X131136103Y-80474986D01*
G37*
G36*
X130782550Y-80828540D02*
X130605773Y-81005317D01*
X129898666Y-80298210D01*
X130075443Y-80121433D01*
X130782550Y-80828540D01*
X130782550Y-80828540D01*
G37*
G36*
X130428996Y-81182093D02*
X130252219Y-81358870D01*
X129545112Y-80651763D01*
X129721889Y-80474986D01*
X130428996Y-81182093D01*
X130428996Y-81182093D01*
G37*
G36*
X130075443Y-81535647D02*
X129898666Y-81712424D01*
X129191559Y-81005317D01*
X129368336Y-80828540D01*
X130075443Y-81535647D01*
X130075443Y-81535647D01*
G37*
G36*
X129721890Y-81889200D02*
X129545113Y-82065977D01*
X128838006Y-81358870D01*
X129014783Y-81182093D01*
X129721890Y-81889200D01*
X129721890Y-81889200D01*
G37*
G36*
X129368336Y-82242753D02*
X129191559Y-82419530D01*
X128484452Y-81712423D01*
X128661229Y-81535646D01*
X129368336Y-82242753D01*
X129368336Y-82242753D01*
G37*
G36*
X129014783Y-82596307D02*
X128838006Y-82773084D01*
X128130899Y-82065977D01*
X128307676Y-81889200D01*
X129014783Y-82596307D01*
X129014783Y-82596307D01*
G37*
D30*
X155800000Y-63765000D03*
X155800000Y-64415000D03*
X155800000Y-65065000D03*
X155800000Y-65715000D03*
X155800000Y-66365000D03*
X155800000Y-67015000D03*
X155800000Y-67665000D03*
X155800000Y-68315000D03*
X161700000Y-68315000D03*
X161700000Y-67665000D03*
X161700000Y-67015000D03*
X161700000Y-66365000D03*
X161700000Y-65715000D03*
X161700000Y-65065000D03*
X161700000Y-64415000D03*
X161700000Y-63765000D03*
D31*
X98175000Y-97430000D03*
X97525000Y-97430000D03*
X96875000Y-97430000D03*
X96225000Y-97430000D03*
X95575000Y-97430000D03*
X94925000Y-97430000D03*
X94275000Y-97430000D03*
X93625000Y-97430000D03*
X92975000Y-97430000D03*
X92325000Y-97430000D03*
X92325000Y-103230000D03*
X92975000Y-103230000D03*
X93625000Y-103230000D03*
X94275000Y-103230000D03*
X94925000Y-103230000D03*
X95575000Y-103230000D03*
X96225000Y-103230000D03*
X96875000Y-103230000D03*
X97525000Y-103230000D03*
X98175000Y-103230000D03*
X141355000Y-107590000D03*
X140705000Y-107590000D03*
X140055000Y-107590000D03*
X139405000Y-107590000D03*
X138755000Y-107590000D03*
X138105000Y-107590000D03*
X137455000Y-107590000D03*
X136805000Y-107590000D03*
X136155000Y-107590000D03*
X135505000Y-107590000D03*
X135505000Y-113390000D03*
X136155000Y-113390000D03*
X136805000Y-113390000D03*
X137455000Y-113390000D03*
X138105000Y-113390000D03*
X138755000Y-113390000D03*
X139405000Y-113390000D03*
X140055000Y-113390000D03*
X140705000Y-113390000D03*
X141355000Y-113390000D03*
X122305000Y-97430000D03*
X121655000Y-97430000D03*
X121005000Y-97430000D03*
X120355000Y-97430000D03*
X119705000Y-97430000D03*
X119055000Y-97430000D03*
X118405000Y-97430000D03*
X117755000Y-97430000D03*
X117105000Y-97430000D03*
X116455000Y-97430000D03*
X116455000Y-103230000D03*
X117105000Y-103230000D03*
X117755000Y-103230000D03*
X118405000Y-103230000D03*
X119055000Y-103230000D03*
X119705000Y-103230000D03*
X120355000Y-103230000D03*
X121005000Y-103230000D03*
X121655000Y-103230000D03*
X122305000Y-103230000D03*
D32*
X148000000Y-96110000D03*
X147350000Y-96110000D03*
X146700000Y-96110000D03*
X146050000Y-96110000D03*
X145400000Y-96110000D03*
X144750000Y-96110000D03*
X144100000Y-96110000D03*
X144100000Y-102010000D03*
X144750000Y-102010000D03*
X145400000Y-102010000D03*
X146050000Y-102010000D03*
X146700000Y-102010000D03*
X147350000Y-102010000D03*
X148000000Y-102010000D03*
D31*
X110875000Y-97430000D03*
X110225000Y-97430000D03*
X109575000Y-97430000D03*
X108925000Y-97430000D03*
X108275000Y-97430000D03*
X107625000Y-97430000D03*
X106975000Y-97430000D03*
X106325000Y-97430000D03*
X105675000Y-97430000D03*
X105025000Y-97430000D03*
X105025000Y-103230000D03*
X105675000Y-103230000D03*
X106325000Y-103230000D03*
X106975000Y-103230000D03*
X107625000Y-103230000D03*
X108275000Y-103230000D03*
X108925000Y-103230000D03*
X109575000Y-103230000D03*
X110225000Y-103230000D03*
X110875000Y-103230000D03*
D33*
X160700000Y-82910000D03*
X160050000Y-82910000D03*
X159400000Y-82910000D03*
X158750000Y-82910000D03*
X158100000Y-82910000D03*
X157450000Y-82910000D03*
X156800000Y-82910000D03*
X156800000Y-89810000D03*
X157450000Y-89810000D03*
X158100000Y-89810000D03*
X158750000Y-89810000D03*
X159400000Y-89810000D03*
X160050000Y-89810000D03*
X160700000Y-89810000D03*
D31*
X168025000Y-98700000D03*
X167375000Y-98700000D03*
X166725000Y-98700000D03*
X166075000Y-98700000D03*
X165425000Y-98700000D03*
X164775000Y-98700000D03*
X164125000Y-98700000D03*
X163475000Y-98700000D03*
X162825000Y-98700000D03*
X162175000Y-98700000D03*
X162175000Y-104500000D03*
X162825000Y-104500000D03*
X163475000Y-104500000D03*
X164125000Y-104500000D03*
X164775000Y-104500000D03*
X165425000Y-104500000D03*
X166075000Y-104500000D03*
X166725000Y-104500000D03*
X167375000Y-104500000D03*
X168025000Y-104500000D03*
D34*
X196215000Y-59670000D03*
X196215000Y-72410000D03*
X197485000Y-59670000D03*
X197485000Y-72410000D03*
X198755000Y-59670000D03*
X198755000Y-72410000D03*
X200025000Y-59670000D03*
X200025000Y-72410000D03*
X201295000Y-59670000D03*
X201295000Y-72410000D03*
X202565000Y-59670000D03*
X202565000Y-72410000D03*
X203835000Y-59670000D03*
X203835000Y-72410000D03*
X205105000Y-59670000D03*
X205105000Y-72410000D03*
X206375000Y-59670000D03*
X206375000Y-72410000D03*
X207645000Y-59670000D03*
X207645000Y-72410000D03*
X208915000Y-59670000D03*
X208915000Y-72410000D03*
X210185000Y-59670000D03*
X210185000Y-72410000D03*
X211455000Y-59670000D03*
X211455000Y-72410000D03*
X212725000Y-59670000D03*
X212725000Y-72410000D03*
X213995000Y-59670000D03*
X213995000Y-72410000D03*
X215265000Y-59670000D03*
X215265000Y-72410000D03*
X196215000Y-81260000D03*
X196215000Y-94000000D03*
X197485000Y-81260000D03*
X197485000Y-94000000D03*
X198755000Y-81260000D03*
X198755000Y-94000000D03*
X200025000Y-81260000D03*
X200025000Y-94000000D03*
X201295000Y-81260000D03*
X201295000Y-94000000D03*
X202565000Y-81260000D03*
X202565000Y-94000000D03*
X203835000Y-81260000D03*
X203835000Y-94000000D03*
X205105000Y-81260000D03*
X205105000Y-94000000D03*
X206375000Y-81260000D03*
X206375000Y-94000000D03*
X207645000Y-81260000D03*
X207645000Y-94000000D03*
X208915000Y-81260000D03*
X208915000Y-94000000D03*
X210185000Y-81260000D03*
X210185000Y-94000000D03*
X211455000Y-81260000D03*
X211455000Y-94000000D03*
X212725000Y-81260000D03*
X212725000Y-94000000D03*
X213995000Y-81260000D03*
X213995000Y-94000000D03*
X215265000Y-81260000D03*
X215265000Y-94000000D03*
X169545000Y-59670000D03*
X169545000Y-72410000D03*
X170815000Y-59670000D03*
X170815000Y-72410000D03*
X172085000Y-59670000D03*
X172085000Y-72410000D03*
X173355000Y-59670000D03*
X173355000Y-72410000D03*
X174625000Y-59670000D03*
X174625000Y-72410000D03*
X175895000Y-59670000D03*
X175895000Y-72410000D03*
X177165000Y-59670000D03*
X177165000Y-72410000D03*
X178435000Y-59670000D03*
X178435000Y-72410000D03*
X179705000Y-59670000D03*
X179705000Y-72410000D03*
X180975000Y-59670000D03*
X180975000Y-72410000D03*
X182245000Y-59670000D03*
X182245000Y-72410000D03*
X183515000Y-59670000D03*
X183515000Y-72410000D03*
X184785000Y-59670000D03*
X184785000Y-72410000D03*
X186055000Y-59670000D03*
X186055000Y-72410000D03*
X187325000Y-59670000D03*
X187325000Y-72410000D03*
X188595000Y-59670000D03*
X188595000Y-72410000D03*
X169545000Y-81260000D03*
X169545000Y-94000000D03*
X170815000Y-81260000D03*
X170815000Y-94000000D03*
X172085000Y-81260000D03*
X172085000Y-94000000D03*
X173355000Y-81260000D03*
X173355000Y-94000000D03*
X174625000Y-81260000D03*
X174625000Y-94000000D03*
X175895000Y-81260000D03*
X175895000Y-94000000D03*
X177165000Y-81260000D03*
X177165000Y-94000000D03*
X178435000Y-81260000D03*
X178435000Y-94000000D03*
X179705000Y-81260000D03*
X179705000Y-94000000D03*
X180975000Y-81260000D03*
X180975000Y-94000000D03*
X182245000Y-81260000D03*
X182245000Y-94000000D03*
X183515000Y-81260000D03*
X183515000Y-94000000D03*
X184785000Y-81260000D03*
X184785000Y-94000000D03*
X186055000Y-81260000D03*
X186055000Y-94000000D03*
X187325000Y-81260000D03*
X187325000Y-94000000D03*
X188595000Y-81260000D03*
X188595000Y-94000000D03*
D35*
X120721120Y-81620360D03*
X120721120Y-86019640D03*
X123118880Y-86019640D03*
X123118880Y-81620360D03*
D36*
X201168000Y-106680000D03*
D37*
X207772000Y-106680000D03*
X207772000Y-104394000D03*
X207772000Y-108966000D03*
D17*
X195580000Y-104480360D03*
X195580000Y-108879640D03*
D22*
X143510000Y-62230000D03*
D23*
X146050000Y-62230000D03*
X148590000Y-62230000D03*
X151130000Y-62230000D03*
D15*
X149860000Y-110604300D03*
X149860000Y-115455700D03*
X152400000Y-110604300D03*
X152400000Y-115455700D03*
X154940000Y-110604300D03*
X154940000Y-115455700D03*
X157480000Y-110604300D03*
X157480000Y-115455700D03*
X160020000Y-110604300D03*
X160020000Y-115455700D03*
X162560000Y-110604300D03*
X162560000Y-115455700D03*
X165100000Y-110604300D03*
X165100000Y-115455700D03*
X167640000Y-110604300D03*
X167640000Y-115455700D03*
X170180000Y-110604300D03*
X170180000Y-115455700D03*
X172720000Y-110604300D03*
X172720000Y-115455700D03*
X175260000Y-110604300D03*
X175260000Y-115455700D03*
X177800000Y-110604300D03*
X177800000Y-115455700D03*
X180340000Y-110604300D03*
X180340000Y-115455700D03*
X182880000Y-110604300D03*
X182880000Y-115455700D03*
D16*
X185420000Y-110604300D03*
D15*
X185420000Y-115455700D03*
D38*
X91440000Y-81280000D03*
D39*
X146050000Y-71120000D03*
D40*
X148590000Y-71120000D03*
D12*
X125222000Y-135890000D03*
X122682000Y-135890000D03*
X120142000Y-135890000D03*
X117602000Y-135890000D03*
X115062000Y-135890000D03*
X112522000Y-135890000D03*
X109982000Y-135890000D03*
D41*
X102415000Y-102576000D03*
X99489500Y-102494600D03*
X166040800Y-105763800D03*
X162721200Y-107829200D03*
X149315100Y-107829200D03*
X145297900Y-111846400D03*
X182756800Y-132385900D03*
X184587000Y-104300000D03*
X190504800Y-96464200D03*
X190504800Y-76628900D03*
X111623400Y-105651300D03*
X149239600Y-84270000D03*
X162266900Y-97776100D03*
X197862200Y-76200000D03*
X160899000Y-88706400D03*
X193830200Y-56903100D03*
X196320700Y-60789300D03*
X151539300Y-81088500D03*
X151539300Y-67305200D03*
X197862200Y-79426800D03*
X137992700Y-94500000D03*
X142550100Y-84900500D03*
X97637300Y-98350900D03*
X94342900Y-96503600D03*
X137887500Y-99672800D03*
X140145700Y-111893800D03*
X146267400Y-107370300D03*
X162005900Y-106757200D03*
X173876400Y-116598200D03*
X166392200Y-103596900D03*
X166625800Y-105424500D03*
X168112400Y-103587300D03*
X156659500Y-118298000D03*
X179832000Y-132658800D03*
X177292000Y-131943400D03*
X175115400Y-131527700D03*
X171574300Y-121940000D03*
X169312400Y-112273200D03*
X169672000Y-132686200D03*
X167060300Y-112327300D03*
X167132000Y-132666500D03*
X143311500Y-116934000D03*
X126605600Y-106988400D03*
X164592000Y-131943400D03*
X162052000Y-132019900D03*
X164443300Y-103545300D03*
X159512000Y-132667300D03*
X161602500Y-105611200D03*
X156611400Y-132346400D03*
X147495000Y-115597100D03*
X126405100Y-105404900D03*
X127233100Y-104656000D03*
X154432000Y-131943400D03*
X115149900Y-104533100D03*
X150932000Y-132673100D03*
X113432600Y-104003100D03*
X148675000Y-132673100D03*
X132647700Y-90767600D03*
X128303800Y-93108000D03*
X118900800Y-106627000D03*
X121318700Y-113646900D03*
X118332600Y-105622400D03*
X117705300Y-105622400D03*
X117105000Y-105622400D03*
X133238700Y-94201100D03*
X131262900Y-91868900D03*
X129424000Y-80201200D03*
X129540000Y-96600800D03*
X131877900Y-91343600D03*
X149164200Y-100954800D03*
X96108800Y-98809700D03*
X143210200Y-82367600D03*
X139787700Y-70452200D03*
X130431000Y-74187800D03*
X171405100Y-58561900D03*
X157974300Y-79754100D03*
X168029200Y-82285300D03*
X200660000Y-58890800D03*
X201164900Y-80147800D03*
X127684000Y-85916600D03*
X120055200Y-95121700D03*
X148082300Y-97242600D03*
X145858100Y-98607100D03*
X129147400Y-87257500D03*
X122419700Y-94092600D03*
X146328000Y-86816200D03*
X130672500Y-84413500D03*
X132750500Y-69020000D03*
X134139300Y-99135000D03*
X131006600Y-89749200D03*
X173460900Y-95529800D03*
X159301600Y-102335500D03*
X204327000Y-77185300D03*
X139875000Y-104773800D03*
X143888300Y-84388200D03*
X202774800Y-90021300D03*
X208221000Y-92974700D03*
X179176200Y-91436700D03*
X180759700Y-73511600D03*
X135249700Y-103177800D03*
X134034300Y-87944300D03*
X160522100Y-102865200D03*
X204612600Y-88973200D03*
X207736400Y-73515000D03*
X134977100Y-104773800D03*
X131417100Y-89279600D03*
X137868900Y-83366800D03*
X178631600Y-74695600D03*
X178640700Y-90875300D03*
X204697600Y-86829600D03*
X206719000Y-73515000D03*
X116724400Y-93660500D03*
X127991600Y-80218300D03*
X117096000Y-93116800D03*
X127934900Y-80922200D03*
X137627300Y-100413900D03*
X141659100Y-86883100D03*
X126882000Y-93567200D03*
X142616400Y-81711400D03*
X177378700Y-92146900D03*
X143576700Y-91895600D03*
X139132200Y-104773800D03*
X178169000Y-73515000D03*
X202983300Y-89402500D03*
X204772300Y-73516400D03*
X175041800Y-92331900D03*
X143031000Y-91074500D03*
X138428700Y-104773800D03*
X200193400Y-90470600D03*
X200579900Y-76466700D03*
X176833100Y-73767200D03*
X175512500Y-90929800D03*
X181200200Y-90174700D03*
X185225400Y-92931800D03*
X175077700Y-98276900D03*
X186458800Y-92601000D03*
X186516900Y-74854000D03*
X171283300Y-98907600D03*
X150050900Y-90466300D03*
X188487200Y-86686200D03*
X187966600Y-93056600D03*
X186693200Y-72635100D03*
X208309700Y-80323900D03*
X200896300Y-64713500D03*
X181735400Y-79677600D03*
X177373200Y-65238800D03*
X202588700Y-73515000D03*
X139971400Y-82821700D03*
X137001500Y-104773800D03*
X200935000Y-69479200D03*
X175824800Y-92298800D03*
X175195900Y-74174000D03*
X202030600Y-93042700D03*
X174456800Y-88456600D03*
X201603000Y-87478200D03*
X174464200Y-92875700D03*
X143438500Y-88688100D03*
X201715100Y-73489400D03*
X139446100Y-82316500D03*
X174290000Y-73515000D03*
X138338100Y-103198400D03*
X201218000Y-92889200D03*
X194457000Y-61846600D03*
X198462600Y-79477700D03*
X176020100Y-80155200D03*
X176077300Y-60778800D03*
X173240900Y-70324100D03*
X123946700Y-95207000D03*
X137468200Y-82311600D03*
X177418100Y-79469400D03*
X175124400Y-68911800D03*
X177165000Y-60798100D03*
X136249300Y-81688700D03*
X121458200Y-96414300D03*
X117612900Y-92045000D03*
X142123800Y-81206700D03*
X137182900Y-100948100D03*
X140573000Y-82836000D03*
X116242100Y-94146500D03*
X129660500Y-77845600D03*
X172985000Y-58099000D03*
X198884400Y-61227500D03*
X199963600Y-80154200D03*
X115654100Y-78820000D03*
X109575000Y-96511200D03*
X168364700Y-83102600D03*
X161237700Y-94900300D03*
X148876200Y-94518800D03*
X134596600Y-78455400D03*
X120677400Y-96452000D03*
X183513500Y-63844200D03*
X133712000Y-78571900D03*
X181210400Y-82459500D03*
X182792900Y-67577700D03*
X141972900Y-76397400D03*
X131410700Y-76683700D03*
X119843500Y-98348200D03*
X181408900Y-80201400D03*
X182267400Y-66493900D03*
X133959400Y-72834700D03*
X182806300Y-62790000D03*
X132758100Y-81485800D03*
X172911700Y-73518100D03*
X173173000Y-92877400D03*
X121226200Y-95084900D03*
X196886400Y-74911200D03*
X186910700Y-69417800D03*
X199323100Y-92974700D03*
X141058900Y-79794000D03*
X187961900Y-80747300D03*
X182899100Y-97051200D03*
X188398300Y-60791400D03*
X186161400Y-67032800D03*
X130888600Y-78444100D03*
X135210800Y-74121900D03*
X164775000Y-97746700D03*
X150504600Y-83460300D03*
X146651700Y-83460300D03*
X133249400Y-80175600D03*
X185764600Y-76810700D03*
X186690000Y-60385100D03*
X172076700Y-78672100D03*
X149421200Y-95899900D03*
X132649000Y-80285000D03*
X185761700Y-80138800D03*
X176631300Y-96580500D03*
X186076400Y-60867800D03*
X150263000Y-96642800D03*
X131301700Y-80876400D03*
X168342900Y-89336100D03*
X162734000Y-96750700D03*
X185267300Y-61118800D03*
X184562900Y-79132500D03*
X183923100Y-83594200D03*
X184973500Y-62298100D03*
X168655900Y-100641800D03*
X150203300Y-97432200D03*
X133175600Y-80792100D03*
X128617800Y-79664100D03*
X130040100Y-84666900D03*
X198313700Y-91351200D03*
X198762800Y-73534600D03*
X172321600Y-92868500D03*
X172720000Y-72635100D03*
X170815000Y-61096300D03*
X191931700Y-59480100D03*
X170887800Y-80145700D03*
X166504200Y-93809100D03*
X196773900Y-73386200D03*
X192438300Y-69104000D03*
X197387000Y-92891300D03*
X169687300Y-92025600D03*
X170186000Y-72676500D03*
X190878000Y-68545800D03*
X168547700Y-92527900D03*
X168912500Y-72676500D03*
X195930900Y-73540000D03*
X196109000Y-92868700D03*
X197737200Y-61320700D03*
X199363200Y-80180500D03*
X171463400Y-68582300D03*
X171583200Y-80234700D03*
X172580400Y-60695300D03*
X154585000Y-63765000D03*
X150516300Y-72798300D03*
X148663700Y-65868600D03*
X143644300Y-73216300D03*
X147506800Y-66265300D03*
X142805300Y-73413600D03*
X154245700Y-88404600D03*
X152022000Y-94978500D03*
X185268900Y-131345900D03*
X158284600Y-81881400D03*
X157314900Y-66419200D03*
X179538500Y-60777800D03*
X183985100Y-63343400D03*
X181101500Y-83109500D03*
X167002500Y-101167200D03*
D42*
X207772000Y-104394000D02*
X209113300Y-104394000D01*
X140705000Y-113390000D02*
X140705000Y-112564700D01*
X97525000Y-103230000D02*
X97525000Y-102404700D01*
X99399600Y-102404700D02*
X99489500Y-102494600D01*
X97525000Y-102404700D02*
X99399600Y-102404700D01*
X167375000Y-104500000D02*
X167375000Y-105325300D01*
X140725400Y-112544300D02*
X140705000Y-112564700D01*
X140725400Y-111846400D02*
X140725400Y-112544300D01*
X140725400Y-111846400D02*
X145297900Y-111846400D01*
X149315100Y-107829200D02*
X162721200Y-107829200D01*
X104466200Y-103879700D02*
X104466200Y-102576000D01*
X106763100Y-106176600D02*
X104466200Y-103879700D01*
X118521400Y-106176600D02*
X106763100Y-106176600D01*
X118648400Y-106049600D02*
X118521400Y-106176600D01*
X119066400Y-106049600D02*
X118648400Y-106049600D01*
X120544400Y-107527600D02*
X119066400Y-106049600D01*
X128794500Y-107527600D02*
X120544400Y-107527600D01*
X132635400Y-111368500D02*
X128794500Y-107527600D01*
X140363400Y-111368500D02*
X132635400Y-111368500D01*
X140725400Y-111730500D02*
X140363400Y-111368500D01*
X140725400Y-111846400D02*
X140725400Y-111730500D01*
X104466200Y-102576000D02*
X102415000Y-102576000D01*
X104637500Y-102404700D02*
X110225000Y-102404700D01*
X104466200Y-102576000D02*
X104637500Y-102404700D01*
X110225000Y-103230000D02*
X110225000Y-102517300D01*
X110225000Y-102517300D02*
X110225000Y-102404700D01*
X110225000Y-102404700D02*
X121655000Y-102404700D01*
X121655000Y-103230000D02*
X121655000Y-102404700D01*
X213121200Y-114300000D02*
X213121200Y-113375300D01*
X209199700Y-104480400D02*
X214630000Y-104480400D01*
X209113300Y-104394000D02*
X209199700Y-104480400D01*
X215755400Y-110741100D02*
X213121200Y-113375300D01*
X215755400Y-104480400D02*
X215755400Y-110741100D01*
X214630000Y-104480400D02*
X215755400Y-104480400D01*
X211333200Y-111587300D02*
X213121200Y-113375300D01*
X189376600Y-111587300D02*
X211333200Y-111587300D01*
X183739200Y-105949900D02*
X189376600Y-111587300D01*
X167375000Y-105949900D02*
X183739200Y-105949900D01*
X166226900Y-105949900D02*
X167375000Y-105949900D01*
X166040800Y-105763800D02*
X166226900Y-105949900D01*
X167375000Y-105949900D02*
X167375000Y-105325300D01*
X184035700Y-114300000D02*
X192890100Y-114300000D01*
X182880000Y-115455700D02*
X184035700Y-114300000D01*
X213418200Y-108966000D02*
X213504600Y-108879600D01*
X207772000Y-108966000D02*
X213418200Y-108966000D01*
X214630000Y-108879600D02*
X213504600Y-108879600D01*
X92325000Y-103230000D02*
X92325000Y-104055300D01*
X88107600Y-76504700D02*
X91440000Y-79837100D01*
X88107600Y-73657700D02*
X88107600Y-76504700D01*
X91440000Y-81280000D02*
X91440000Y-79837100D01*
X156800000Y-82910000D02*
X156800000Y-81984700D01*
X91440000Y-81280000D02*
X92882900Y-81280000D01*
X123920000Y-76200000D02*
X123920000Y-77325300D01*
X196791800Y-108966000D02*
X207772000Y-108966000D01*
X196705400Y-108879600D02*
X196791800Y-108966000D01*
X195580000Y-108879600D02*
X196705400Y-108879600D01*
X138430000Y-71120000D02*
X138430000Y-72461300D01*
X186690000Y-105069600D02*
X186690000Y-104772600D01*
X190347600Y-104772600D02*
X194454600Y-108879600D01*
X186690000Y-104772600D02*
X190347600Y-104772600D01*
X195580000Y-108879600D02*
X194454600Y-108879600D01*
X188595000Y-94000000D02*
X188595000Y-95025300D01*
X88686300Y-72532400D02*
X88107600Y-72532400D01*
X95178700Y-66040000D02*
X88686300Y-72532400D01*
X96520000Y-66040000D02*
X95178700Y-66040000D01*
X88107600Y-73657700D02*
X88107600Y-72532400D01*
X92325000Y-103230000D02*
X92325000Y-102404700D01*
X91314100Y-101393800D02*
X92325000Y-102404700D01*
X91314100Y-91928800D02*
X91314100Y-101393800D01*
X97422900Y-85820000D02*
X91314100Y-91928800D01*
X97422900Y-85820000D02*
X92882900Y-81280000D01*
X109982000Y-115455700D02*
X109982000Y-135890000D01*
X103725400Y-115455700D02*
X109982000Y-115455700D01*
X92325000Y-104055300D02*
X103725400Y-115455700D01*
X97422900Y-85820000D02*
X107950000Y-85820000D01*
X107950000Y-85820000D02*
X109075300Y-85820000D01*
X182372000Y-135890000D02*
X182372000Y-132770700D01*
X186690000Y-105069600D02*
X185564600Y-105069600D01*
X205590100Y-100330000D02*
X204466000Y-100330000D01*
X190033900Y-96464200D02*
X190504800Y-96464200D01*
X188595000Y-95025300D02*
X190033900Y-96464200D01*
X202508300Y-98372300D02*
X204466000Y-100330000D01*
X192412900Y-98372300D02*
X202508300Y-98372300D01*
X190504800Y-96464200D02*
X192412900Y-98372300D01*
X215265000Y-94000000D02*
X215265000Y-95025300D01*
X205590100Y-100330000D02*
X206714200Y-100330000D01*
X136987400Y-90038600D02*
X137571100Y-90622300D01*
X182756800Y-132385900D02*
X182372000Y-132770700D01*
X156940000Y-101600000D02*
X156940000Y-100424700D01*
X148503000Y-100424700D02*
X156940000Y-100424700D01*
X145238600Y-97160300D02*
X148503000Y-100424700D01*
X144100000Y-97160300D02*
X145238600Y-97160300D01*
X144100000Y-96110000D02*
X144100000Y-97160300D01*
X144100000Y-96110000D02*
X144100000Y-95059700D01*
X184795000Y-104300000D02*
X184587000Y-104300000D01*
X185564600Y-105069600D02*
X184795000Y-104300000D01*
X162175000Y-104500000D02*
X162175000Y-103674700D01*
X192310000Y-76200000D02*
X190984700Y-76200000D01*
X190984700Y-75825000D02*
X190984700Y-76200000D01*
X188595000Y-73435300D02*
X190984700Y-75825000D01*
X188595000Y-72410000D02*
X188595000Y-73435300D01*
X215265000Y-72410000D02*
X215265000Y-73435300D01*
X192310000Y-76200000D02*
X192310000Y-75074700D01*
X141583600Y-85442400D02*
X141000100Y-84858800D01*
X141583600Y-85442400D02*
X142167300Y-86026100D01*
X137571100Y-90622300D02*
X142043500Y-95094700D01*
X142078500Y-95059700D02*
X144100000Y-95059700D01*
X142043500Y-95094700D02*
X142078500Y-95059700D01*
X156940000Y-101600000D02*
X158265300Y-101600000D01*
X116455000Y-103230000D02*
X116455000Y-104055300D01*
X114859000Y-105651300D02*
X111623400Y-105651300D01*
X116455000Y-104055300D02*
X114859000Y-105651300D01*
X106874700Y-105651300D02*
X111623400Y-105651300D01*
X105025000Y-103801600D02*
X106874700Y-105651300D01*
X105025000Y-103230000D02*
X105025000Y-103801600D01*
X142043500Y-95343300D02*
X142043500Y-95094700D01*
X139270200Y-98116600D02*
X142043500Y-95343300D01*
X134361300Y-98116600D02*
X139270200Y-98116600D01*
X133890000Y-97645300D02*
X134361300Y-98116600D01*
X133890000Y-96520000D02*
X133890000Y-97645300D01*
X148590000Y-62230000D02*
X149778900Y-62230000D01*
X190555800Y-76628900D02*
X190504800Y-76628900D01*
X190984700Y-76200000D02*
X190555800Y-76628900D01*
X193254700Y-74130000D02*
X192310000Y-75074700D01*
X197174500Y-74130000D02*
X193254700Y-74130000D01*
X198129000Y-73175500D02*
X197174500Y-74130000D01*
X198129000Y-71650900D02*
X198129000Y-73175500D01*
X198395200Y-71384700D02*
X198129000Y-71650900D01*
X210561200Y-71384700D02*
X198395200Y-71384700D01*
X210820000Y-71643500D02*
X210561200Y-71384700D01*
X210820000Y-73455500D02*
X210820000Y-71643500D01*
X211291900Y-73927400D02*
X210820000Y-73455500D01*
X214772900Y-73927400D02*
X211291900Y-73927400D01*
X215265000Y-73435300D02*
X214772900Y-73927400D01*
X156800000Y-82910000D02*
X156800000Y-83835300D01*
X162842500Y-103007200D02*
X162175000Y-103674700D01*
X183294200Y-103007200D02*
X162842500Y-103007200D01*
X184587000Y-104300000D02*
X183294200Y-103007200D01*
X156365300Y-84270000D02*
X156800000Y-83835300D01*
X149239600Y-84270000D02*
X156365300Y-84270000D01*
X212515300Y-97775000D02*
X215265000Y-95025300D01*
X208707200Y-97775000D02*
X212515300Y-97775000D01*
X206714200Y-99768000D02*
X208707200Y-97775000D01*
X206714200Y-100330000D02*
X206714200Y-99768000D01*
X135505000Y-113390000D02*
X135505000Y-114215300D01*
X109982000Y-115455700D02*
X110490000Y-115455700D01*
X111730400Y-114215300D02*
X135505000Y-114215300D01*
X110490000Y-115455700D02*
X111730400Y-114215300D01*
X157738300Y-81046400D02*
X156800000Y-81984700D01*
X161918900Y-81046400D02*
X157738300Y-81046400D01*
X165640000Y-77325300D02*
X161918900Y-81046400D01*
X165640000Y-76200000D02*
X165640000Y-77325300D01*
X160100300Y-101600000D02*
X158265300Y-101600000D01*
X162175000Y-103674700D02*
X160100300Y-101600000D01*
X149014900Y-84494700D02*
X149239600Y-84270000D01*
X148590000Y-84494700D02*
X149014900Y-84494700D01*
X142373400Y-85820000D02*
X142167300Y-86026100D01*
X148590000Y-85820000D02*
X142373400Y-85820000D01*
X148590000Y-85820000D02*
X148590000Y-84494700D01*
X138430000Y-75938800D02*
X136987400Y-77381400D01*
X138430000Y-72461300D02*
X138430000Y-75938800D01*
X136987400Y-77381400D02*
X136403900Y-77964900D01*
X128926400Y-81977600D02*
X128342700Y-81393900D01*
X121920000Y-80734100D02*
X123942000Y-78712100D01*
X121920000Y-82481800D02*
X121920000Y-80734100D01*
X121555600Y-82846200D02*
X121920000Y-82481800D01*
X118289100Y-82846200D02*
X121555600Y-82846200D01*
X116127500Y-80684600D02*
X118289100Y-82846200D01*
X113226100Y-80684600D02*
X116127500Y-80684600D01*
X109075300Y-84835400D02*
X113226100Y-80684600D01*
X109075300Y-85820000D02*
X109075300Y-84835400D01*
X123942000Y-77347300D02*
X123920000Y-77325300D01*
X123942000Y-78712100D02*
X123942000Y-77347300D01*
X124569100Y-78712100D02*
X127796800Y-81939800D01*
X123942000Y-78712100D02*
X124569100Y-78712100D01*
X127796800Y-81939800D02*
X128342700Y-81393900D01*
X192310000Y-54610000D02*
X192310000Y-53484700D01*
X156878800Y-54610000D02*
X165640000Y-54610000D01*
X149778900Y-61709900D02*
X156878800Y-54610000D01*
X149778900Y-62230000D02*
X149778900Y-61709900D01*
X165640000Y-53484700D02*
X192310000Y-53484700D01*
X165640000Y-54610000D02*
X165640000Y-53484700D01*
X132461900Y-88977900D02*
X131878400Y-89561400D01*
X133890000Y-96520000D02*
X133890000Y-95394700D01*
X123920000Y-91440000D02*
X125245300Y-91440000D01*
X130699600Y-91440000D02*
X125245300Y-91440000D01*
X130699600Y-90901500D02*
X130699600Y-91440000D01*
X131878400Y-89722700D02*
X130699600Y-90901500D01*
X131878400Y-89561500D02*
X131878400Y-89722700D01*
X131878400Y-89561400D02*
X131878400Y-89561500D01*
X133608700Y-95394700D02*
X133890000Y-95394700D01*
X130699600Y-92485600D02*
X133608700Y-95394700D01*
X130699600Y-91440000D02*
X130699600Y-92485600D01*
X136403900Y-77965000D02*
X136403900Y-77964900D01*
X136403900Y-79210100D02*
X136403900Y-77965000D01*
X134900500Y-80713500D02*
X136403900Y-79210100D01*
X134900500Y-81068300D02*
X134900500Y-80713500D01*
X134601500Y-81367300D02*
X134900500Y-81068300D01*
X134601500Y-81383000D02*
X134601500Y-81367300D01*
X133766500Y-82218000D02*
X134601500Y-81383000D01*
X133750800Y-82218000D02*
X133766500Y-82218000D01*
X133505300Y-82463500D02*
X133750800Y-82218000D01*
X130258700Y-82463500D02*
X133505300Y-82463500D01*
X129521400Y-83200800D02*
X130258700Y-82463500D01*
X128733900Y-83200800D02*
X129521400Y-83200800D01*
X127796800Y-82263700D02*
X128733900Y-83200800D01*
X127796800Y-81939800D02*
X127796800Y-82263700D01*
X152736300Y-68315000D02*
X155800000Y-68315000D01*
X149931300Y-71120000D02*
X152736300Y-68315000D01*
X148590000Y-71120000D02*
X149931300Y-71120000D01*
X146050000Y-62230000D02*
X148590000Y-62230000D01*
X143361400Y-64770000D02*
X137890000Y-64770000D01*
X144861100Y-63270300D02*
X143361400Y-64770000D01*
X144861100Y-62230000D02*
X144861100Y-63270300D01*
X146050000Y-62230000D02*
X144861100Y-62230000D01*
X133162400Y-88277400D02*
X132461900Y-88977900D01*
X133624500Y-88277400D02*
X133162400Y-88277400D01*
X133816700Y-88469600D02*
X133624500Y-88277400D01*
X134252000Y-88469600D02*
X133816700Y-88469600D01*
X135881200Y-86840400D02*
X134252000Y-88469600D01*
X136115300Y-86840400D02*
X135881200Y-86840400D01*
X137971500Y-84984200D02*
X136115300Y-86840400D01*
X140874700Y-84984200D02*
X137971500Y-84984200D01*
X141000100Y-84858800D02*
X140874700Y-84984200D01*
X119920000Y-91440000D02*
X119920000Y-90314700D01*
X130340600Y-86856600D02*
X129756900Y-87440300D01*
X129707500Y-87440300D02*
X129756900Y-87440300D01*
X129707500Y-87440400D02*
X129707500Y-87440300D01*
X129365100Y-87782800D02*
X129707500Y-87440400D01*
X120721100Y-87782800D02*
X129365100Y-87782800D01*
X120721100Y-86019600D02*
X120721100Y-87782800D01*
X120721100Y-89513600D02*
X119920000Y-90314700D01*
X120721100Y-87782800D02*
X120721100Y-89513600D01*
X162175000Y-98700000D02*
X162175000Y-99112600D01*
X167375000Y-98700000D02*
X167375000Y-99525300D01*
X197088800Y-100330000D02*
X197088800Y-99405300D01*
X169640000Y-54610000D02*
X169640000Y-55172600D01*
X137890000Y-96520000D02*
X137890000Y-95394700D01*
X169545000Y-77420300D02*
X169545000Y-80234700D01*
X169640000Y-77325300D02*
X169545000Y-77420300D01*
X169640000Y-76200000D02*
X169640000Y-77325300D01*
X135505000Y-107590000D02*
X135505000Y-106764700D01*
X137341000Y-89685100D02*
X136757400Y-89101500D01*
X133890000Y-64770000D02*
X133890000Y-65895300D01*
X155800000Y-67015000D02*
X154724700Y-67015000D01*
X155800000Y-67015000D02*
X156875300Y-67015000D01*
X162175000Y-98700000D02*
X162175000Y-97874700D01*
X196310000Y-76200000D02*
X197635300Y-76200000D01*
X96520000Y-58420000D02*
X96520000Y-59608900D01*
X102870000Y-56420000D02*
X101694700Y-56420000D01*
X95790000Y-56501100D02*
X96520000Y-57231100D01*
X95790000Y-53340000D02*
X95790000Y-56501100D01*
X96520000Y-58420000D02*
X96520000Y-57231100D01*
X101694700Y-56420000D02*
X97773000Y-60341700D01*
X98740900Y-61309700D02*
X97773000Y-60341700D01*
X98740900Y-66356200D02*
X98740900Y-61309700D01*
X101694700Y-69310000D02*
X98740900Y-66356200D01*
X97040100Y-59608900D02*
X96520000Y-59608900D01*
X97773000Y-60341700D02*
X97040100Y-59608900D01*
X132815500Y-89331500D02*
X133399200Y-88747800D01*
X136757300Y-89101500D02*
X136757400Y-89101500D01*
X135824800Y-90034000D02*
X136757300Y-89101500D01*
X161162400Y-63765000D02*
X160624700Y-63765000D01*
X161162400Y-63765000D02*
X161700000Y-63765000D01*
X165845000Y-60695300D02*
X169545000Y-60695300D01*
X162775300Y-63765000D02*
X165845000Y-60695300D01*
X161700000Y-63765000D02*
X162775300Y-63765000D01*
X169545000Y-59670000D02*
X169545000Y-60695300D01*
X196310000Y-54610000D02*
X196310000Y-55735300D01*
X170202600Y-55735200D02*
X170202600Y-55735300D01*
X169640000Y-55172600D02*
X170202600Y-55735200D01*
X170202600Y-57987100D02*
X169545000Y-58644700D01*
X170202600Y-55735300D02*
X170202600Y-57987100D01*
X169545000Y-59670000D02*
X169545000Y-58644700D01*
X162175000Y-97868000D02*
X162266900Y-97776100D01*
X162175000Y-97874700D02*
X162175000Y-97868000D01*
X169545000Y-81260000D02*
X169545000Y-80526200D01*
X169545000Y-80526200D02*
X169545000Y-80234700D01*
X160720700Y-88884700D02*
X160899000Y-88706400D01*
X160700000Y-88884700D02*
X160720700Y-88884700D01*
X160700000Y-89810000D02*
X160700000Y-88884700D01*
X160899000Y-88635100D02*
X160899000Y-88706400D01*
X169007900Y-80526200D02*
X160899000Y-88635100D01*
X169545000Y-80526200D02*
X169007900Y-80526200D01*
X102282400Y-69310000D02*
X101694700Y-69310000D01*
X102282400Y-69310000D02*
X102870000Y-69310000D01*
X114300000Y-78010000D02*
X113712400Y-78010000D01*
X107950000Y-81820000D02*
X109075300Y-81820000D01*
X102870000Y-69310000D02*
X104045300Y-69310000D01*
X104045300Y-69310000D02*
X112815300Y-78080000D01*
X112885300Y-78010000D02*
X112815300Y-78080000D01*
X113712400Y-78010000D02*
X112885300Y-78010000D01*
X112815300Y-78080000D02*
X109075300Y-81820000D01*
X159077700Y-65312000D02*
X160624700Y-63765000D01*
X159077700Y-65400600D02*
X159077700Y-65312000D01*
X157463300Y-67015000D02*
X159077700Y-65400600D01*
X156875300Y-67015000D02*
X157463300Y-67015000D01*
X197635300Y-76200000D02*
X197862200Y-76200000D01*
X196215000Y-59670000D02*
X196215000Y-60695300D01*
X196226700Y-60695300D02*
X196215000Y-60695300D01*
X196320700Y-60789300D02*
X196226700Y-60695300D01*
X193830200Y-55735300D02*
X193830200Y-56903100D01*
X170202600Y-55735300D02*
X193830200Y-55735300D01*
X193830200Y-55735300D02*
X196310000Y-55735300D01*
X110225000Y-97430000D02*
X110225000Y-98255300D01*
X162175000Y-99244100D02*
X162175000Y-99112600D01*
X162456200Y-99525300D02*
X162175000Y-99244100D01*
X167375000Y-99525300D02*
X162456200Y-99525300D01*
X134710700Y-88919900D02*
X135824800Y-90034000D01*
X133630100Y-88919900D02*
X134710700Y-88919900D01*
X133624400Y-88914200D02*
X133630100Y-88919900D01*
X133565500Y-88914200D02*
X133624400Y-88914200D01*
X133399200Y-88747800D02*
X133565500Y-88914200D01*
X136633900Y-77027800D02*
X136050300Y-77611400D01*
X148590000Y-81820000D02*
X147464700Y-81820000D01*
X148590000Y-81820000D02*
X149715300Y-81820000D01*
X151539300Y-67184200D02*
X151539300Y-67305200D01*
X154555500Y-67184200D02*
X154724700Y-67015000D01*
X151539300Y-67184200D02*
X154555500Y-67184200D01*
X105025000Y-97430000D02*
X105025000Y-98142700D01*
X105025000Y-98142700D02*
X105025000Y-98255300D01*
X196528600Y-98845100D02*
X197088800Y-99405300D01*
X184656200Y-98845100D02*
X196528600Y-98845100D01*
X183589200Y-99912100D02*
X184656200Y-98845100D01*
X167761800Y-99912100D02*
X183589200Y-99912100D01*
X167375000Y-99525300D02*
X167761800Y-99912100D01*
X197054300Y-80234700D02*
X196215000Y-80234700D01*
X197862200Y-79426800D02*
X197054300Y-80234700D01*
X196215000Y-81260000D02*
X196215000Y-80234700D01*
X150446800Y-81088500D02*
X151539300Y-81088500D01*
X149715300Y-81820000D02*
X150446800Y-81088500D01*
X136633900Y-77027800D02*
X137217400Y-76444300D01*
X133350000Y-71120000D02*
X133350000Y-69778700D01*
X133350000Y-69013100D02*
X133350000Y-69778700D01*
X135178900Y-67184200D02*
X133350000Y-69013100D01*
X133890000Y-65895300D02*
X135178900Y-67184200D01*
X135178900Y-67184200D02*
X151539300Y-67184200D01*
X137890000Y-94602700D02*
X137992700Y-94500000D01*
X137890000Y-95394700D02*
X137890000Y-94602700D01*
X135824800Y-92332100D02*
X135824800Y-90034000D01*
X137992700Y-94500000D02*
X135824800Y-92332100D01*
X142361700Y-85088900D02*
X141937200Y-85088900D01*
X142550100Y-84900500D02*
X142361700Y-85088900D01*
X148000000Y-102010000D02*
X148000000Y-103060300D01*
X97525000Y-97430000D02*
X97525000Y-98142700D01*
X92325000Y-97430000D02*
X92325000Y-96604700D01*
X92426100Y-96503600D02*
X94342900Y-96503600D01*
X92325000Y-96604700D02*
X92426100Y-96503600D01*
X97637300Y-98255300D02*
X97637300Y-98350900D01*
X105025000Y-98255300D02*
X97637300Y-98255300D01*
X97525000Y-98143000D02*
X97525000Y-98142700D01*
X97637300Y-98255300D02*
X97525000Y-98143000D01*
X144296200Y-84988500D02*
X147464700Y-81820000D01*
X142638100Y-84988500D02*
X144296200Y-84988500D01*
X142550100Y-84900500D02*
X142638100Y-84988500D01*
X142467000Y-103060300D02*
X140705000Y-104822300D01*
X148000000Y-103060300D02*
X142467000Y-103060300D01*
X140705000Y-107590000D02*
X140705000Y-104822300D01*
X119306000Y-73004000D02*
X114300000Y-78010000D01*
X133350000Y-73004000D02*
X119306000Y-73004000D01*
X133350000Y-71120000D02*
X133350000Y-73004000D01*
X136790300Y-76444300D02*
X137217400Y-76444300D01*
X133350000Y-73004000D02*
X136790300Y-76444300D01*
X135187500Y-78474200D02*
X136050300Y-77611400D01*
X135187500Y-78826800D02*
X135187500Y-78474200D01*
X134225100Y-79789200D02*
X135187500Y-78826800D01*
X134225100Y-81090000D02*
X134225100Y-79789200D01*
X134151200Y-81163900D02*
X134225100Y-81090000D01*
X134151200Y-81196400D02*
X134151200Y-81163900D01*
X133579900Y-81767700D02*
X134151200Y-81196400D01*
X133547700Y-81767700D02*
X133579900Y-81767700D01*
X133302300Y-82013100D02*
X133547700Y-81767700D01*
X130058100Y-82013100D02*
X133302300Y-82013100D01*
X129320800Y-82750400D02*
X130058100Y-82013100D01*
X128992100Y-82750400D02*
X129320800Y-82750400D01*
X128572800Y-82331100D02*
X128992100Y-82750400D01*
X137722400Y-102673100D02*
X138152600Y-102673100D01*
X135505000Y-104890500D02*
X137722400Y-102673100D01*
X135505000Y-106764700D02*
X135505000Y-104890500D01*
X138555800Y-102673100D02*
X140705000Y-104822300D01*
X138152600Y-102673100D02*
X138555800Y-102673100D01*
X121655000Y-97430000D02*
X121655000Y-98255300D01*
X138152600Y-99937900D02*
X137887500Y-99672800D01*
X138152600Y-102673100D02*
X138152600Y-99937900D01*
X127327800Y-98255300D02*
X121655000Y-98255300D01*
X128745300Y-99672800D02*
X127327800Y-98255300D01*
X137887500Y-99672800D02*
X128745300Y-99672800D01*
X105025000Y-98255300D02*
X110225000Y-98255300D01*
X110225000Y-98255300D02*
X116455000Y-98255300D01*
X116455000Y-97430000D02*
X116455000Y-98142700D01*
X116455000Y-98142700D02*
X116455000Y-98255300D01*
X121022300Y-98888000D02*
X121655000Y-98255300D01*
X117087700Y-98888000D02*
X121022300Y-98888000D01*
X116455000Y-98255300D02*
X117087700Y-98888000D01*
X139238200Y-114698500D02*
X138755000Y-114215300D01*
X145431600Y-114698500D02*
X139238200Y-114698500D01*
X146365200Y-113764900D02*
X145431600Y-114698500D01*
X172736000Y-113764900D02*
X146365200Y-113764900D01*
X173186400Y-113314500D02*
X172736000Y-113764900D01*
X180169800Y-113314500D02*
X173186400Y-113314500D01*
X182880000Y-110604300D02*
X180169800Y-113314500D01*
X138755000Y-113390000D02*
X138755000Y-114215300D01*
X139405000Y-113390000D02*
X139405000Y-112564700D01*
X139474800Y-112564700D02*
X140145700Y-111893800D01*
X139405000Y-112564700D02*
X139474800Y-112564700D01*
X146880500Y-106757200D02*
X146267400Y-107370300D01*
X162005900Y-106757200D02*
X146880500Y-106757200D01*
X140055000Y-113390000D02*
X140055000Y-114215300D01*
X143650900Y-114215300D02*
X140055000Y-114215300D01*
X144551700Y-113314500D02*
X143650900Y-114215300D01*
X172231300Y-113314500D02*
X144551700Y-113314500D01*
X172681700Y-112864100D02*
X172231300Y-113314500D01*
X175540200Y-112864100D02*
X172681700Y-112864100D01*
X177800000Y-110604300D02*
X175540200Y-112864100D01*
X141730700Y-112564700D02*
X141355000Y-112564700D01*
X142030000Y-112864000D02*
X141730700Y-112564700D01*
X170199500Y-112864000D02*
X142030000Y-112864000D01*
X171371800Y-111691700D02*
X170199500Y-112864000D01*
X174172600Y-111691700D02*
X171371800Y-111691700D01*
X175260000Y-110604300D02*
X174172600Y-111691700D01*
X141355000Y-113390000D02*
X141355000Y-112564700D01*
X164775000Y-104500000D02*
X164775000Y-105325300D01*
X175655300Y-116598200D02*
X173876400Y-116598200D01*
X176347300Y-115906200D02*
X175655300Y-116598200D01*
X176347300Y-115365900D02*
X176347300Y-115906200D01*
X177385400Y-114327800D02*
X176347300Y-115365900D01*
X178241300Y-114327800D02*
X177385400Y-114327800D01*
X179070000Y-115156500D02*
X178241300Y-114327800D01*
X179070000Y-115732600D02*
X179070000Y-115156500D01*
X179880500Y-116543100D02*
X179070000Y-115732600D01*
X180847900Y-116543100D02*
X179880500Y-116543100D01*
X181610000Y-115781000D02*
X180847900Y-116543100D01*
X181610000Y-114510600D02*
X181610000Y-115781000D01*
X184006500Y-112114100D02*
X181610000Y-114510600D01*
X184006500Y-110189900D02*
X184006500Y-112114100D01*
X183307400Y-109490800D02*
X184006500Y-110189900D01*
X173833500Y-109490800D02*
X183307400Y-109490800D01*
X172720000Y-110604300D02*
X173833500Y-109490800D01*
X168816000Y-106700300D02*
X172720000Y-110604300D01*
X166150000Y-106700300D02*
X168816000Y-106700300D01*
X164775000Y-105325300D02*
X166150000Y-106700300D01*
X169404000Y-110604300D02*
X164125000Y-105325300D01*
X170180000Y-110604300D02*
X169404000Y-110604300D01*
X164125000Y-104500000D02*
X164125000Y-105325300D01*
X166075000Y-104500000D02*
X166075000Y-103674700D01*
X166152800Y-103596900D02*
X166392200Y-103596900D01*
X166075000Y-103674700D02*
X166152800Y-103596900D01*
X166725000Y-104500000D02*
X166725000Y-105325300D01*
X166625800Y-105424500D02*
X166725000Y-105325300D01*
X168025000Y-104500000D02*
X168025000Y-103674700D01*
X168025000Y-103674700D02*
X168112400Y-103587300D01*
X163475000Y-104500000D02*
X163475000Y-105325300D01*
X163475000Y-107818400D02*
X163475000Y-105325300D01*
X160689100Y-110604300D02*
X163475000Y-107818400D01*
X160020000Y-110604300D02*
X160689100Y-110604300D01*
X203930000Y-114300000D02*
X203930000Y-114887600D01*
X208518800Y-114300000D02*
X206893000Y-114300000D01*
X206305400Y-114887600D02*
X203930000Y-114887600D01*
X206893000Y-114300000D02*
X206305400Y-114887600D01*
X200519600Y-118298000D02*
X156659500Y-118298000D01*
X203930000Y-114887600D02*
X200519600Y-118298000D01*
X94337300Y-101042400D02*
X92975000Y-102404700D01*
X101878300Y-101042400D02*
X94337300Y-101042400D01*
X102454000Y-101618100D02*
X101878300Y-101042400D01*
X127006500Y-101618100D02*
X102454000Y-101618100D01*
X134849400Y-109461000D02*
X127006500Y-101618100D01*
X148716700Y-109461000D02*
X134849400Y-109461000D01*
X149860000Y-110604300D02*
X148716700Y-109461000D01*
X92975000Y-103230000D02*
X92975000Y-102404700D01*
X179832000Y-132658800D02*
X179832000Y-135890000D01*
X138105000Y-113390000D02*
X138105000Y-114215300D01*
X139071500Y-115181800D02*
X138105000Y-114215300D01*
X146813500Y-115181800D02*
X139071500Y-115181800D01*
X147667500Y-114327800D02*
X146813500Y-115181800D01*
X175212400Y-114327800D02*
X147667500Y-114327800D01*
X175662700Y-113877500D02*
X175212400Y-114327800D01*
X178761800Y-113877500D02*
X175662700Y-113877500D01*
X180340000Y-115455700D02*
X178761800Y-113877500D01*
X175784700Y-117471000D02*
X177800000Y-115455700D01*
X140700800Y-117471000D02*
X175784700Y-117471000D01*
X137455000Y-114225200D02*
X140700800Y-117471000D01*
X137455000Y-113390000D02*
X137455000Y-114225200D01*
X177292000Y-131943400D02*
X177292000Y-135890000D01*
X174752000Y-131891100D02*
X174752000Y-135890000D01*
X175115400Y-131527700D02*
X174752000Y-131891100D01*
X136805000Y-113390000D02*
X136805000Y-114215300D01*
X175115400Y-124736100D02*
X175115400Y-131527700D01*
X170722400Y-120343100D02*
X175115400Y-124736100D01*
X154929300Y-120343100D02*
X170722400Y-120343100D01*
X152507600Y-117921400D02*
X154929300Y-120343100D01*
X140511100Y-117921400D02*
X152507600Y-117921400D01*
X136805000Y-114215300D02*
X140511100Y-117921400D01*
X172212000Y-135890000D02*
X172212000Y-132770700D01*
X171574300Y-132133000D02*
X172212000Y-132770700D01*
X171574300Y-121940000D02*
X171574300Y-132133000D01*
X151612200Y-121940000D02*
X171574300Y-121940000D01*
X148276100Y-118603900D02*
X151612200Y-121940000D01*
X140513200Y-118603900D02*
X148276100Y-118603900D01*
X136155000Y-114245700D02*
X140513200Y-118603900D01*
X136155000Y-113390000D02*
X136155000Y-114245700D01*
X169672000Y-132686200D02*
X169672000Y-135890000D01*
X168829400Y-111790200D02*
X169312400Y-112273200D01*
X147515300Y-111790200D02*
X168829400Y-111790200D01*
X145636500Y-109911400D02*
X147515300Y-111790200D01*
X134662900Y-109911400D02*
X145636500Y-109911400D01*
X127981500Y-103230000D02*
X134662900Y-109911400D01*
X122305000Y-103230000D02*
X127981500Y-103230000D01*
X121005000Y-103230000D02*
X121005000Y-104055300D01*
X167132000Y-132666500D02*
X167132000Y-135890000D01*
X147321600Y-112327300D02*
X167060300Y-112327300D01*
X145806300Y-110812000D02*
X147321600Y-112327300D01*
X134290500Y-110812000D02*
X145806300Y-110812000D01*
X127533800Y-104055300D02*
X134290500Y-110812000D01*
X121005000Y-104055300D02*
X127533800Y-104055300D01*
X143371000Y-116993500D02*
X143311500Y-116934000D01*
X163562200Y-116993500D02*
X143371000Y-116993500D01*
X165100000Y-115455700D02*
X163562200Y-116993500D01*
X119055000Y-103230000D02*
X119055000Y-104055300D01*
X121856300Y-106988400D02*
X126605600Y-106988400D01*
X119055000Y-104187100D02*
X121856300Y-106988400D01*
X119055000Y-104055300D02*
X119055000Y-104187100D01*
X164592000Y-131943400D02*
X164592000Y-135890000D01*
X162052000Y-132019900D02*
X162052000Y-135890000D01*
X165425000Y-104500000D02*
X165425000Y-103674700D01*
X164572700Y-103674700D02*
X164443300Y-103545300D01*
X165425000Y-103674700D02*
X164572700Y-103674700D01*
X159512000Y-132667300D02*
X159512000Y-135890000D01*
X162539100Y-105611200D02*
X162825000Y-105325300D01*
X161602500Y-105611200D02*
X162539100Y-105611200D01*
X162825000Y-104500000D02*
X162825000Y-105325300D01*
X156972000Y-135890000D02*
X156972000Y-132770700D01*
X156611400Y-132410100D02*
X156611400Y-132346400D01*
X156972000Y-132770700D02*
X156611400Y-132410100D01*
X148441000Y-116543100D02*
X147495000Y-115597100D01*
X156392600Y-116543100D02*
X148441000Y-116543100D01*
X157480000Y-115455700D02*
X156392600Y-116543100D01*
X120951800Y-105404900D02*
X126405100Y-105404900D01*
X119705000Y-104158100D02*
X120951800Y-105404900D01*
X119705000Y-103230000D02*
X119705000Y-104158100D01*
X154432000Y-131943400D02*
X154432000Y-135890000D01*
X120881400Y-104656000D02*
X127233100Y-104656000D01*
X120355000Y-104129600D02*
X120881400Y-104656000D01*
X120355000Y-103230000D02*
X120355000Y-104129600D01*
X109575000Y-103230000D02*
X109575000Y-104055300D01*
X110052800Y-104533100D02*
X115149900Y-104533100D01*
X109575000Y-104055300D02*
X110052800Y-104533100D01*
X151029600Y-132770700D02*
X151892000Y-132770700D01*
X150932000Y-132673100D02*
X151029600Y-132770700D01*
X151892000Y-135890000D02*
X151892000Y-132770700D01*
X110875000Y-103230000D02*
X110875000Y-104055300D01*
X148772600Y-132770700D02*
X149352000Y-132770700D01*
X148675000Y-132673100D02*
X148772600Y-132770700D01*
X149352000Y-135890000D02*
X149352000Y-132770700D01*
X113380400Y-104055300D02*
X113432600Y-104003100D01*
X110875000Y-104055300D02*
X113380400Y-104055300D01*
X199930000Y-114300000D02*
X195729900Y-114300000D01*
X212630000Y-100330000D02*
X208429900Y-100330000D01*
X114300000Y-82010000D02*
X114300000Y-86210100D01*
X114300000Y-89049900D02*
X115525700Y-89049900D01*
X133522600Y-90038600D02*
X132938900Y-90622300D01*
X132793000Y-90622300D02*
X132647700Y-90767600D01*
X132938900Y-90622300D02*
X132793000Y-90622300D01*
X118138200Y-91662400D02*
X115525700Y-89049900D01*
X118138200Y-92656700D02*
X118138200Y-91662400D01*
X118497100Y-93015600D02*
X118138200Y-92656700D01*
X128211400Y-93015600D02*
X118497100Y-93015600D01*
X128303800Y-93108000D02*
X128211400Y-93015600D01*
X98175000Y-103230000D02*
X98175000Y-104055300D01*
X125730000Y-110604300D02*
X124642700Y-110604300D01*
X101689600Y-107569900D02*
X98175000Y-104055300D01*
X117933900Y-107569900D02*
X101689600Y-107569900D01*
X119132800Y-108768800D02*
X117933900Y-107569900D01*
X122943100Y-108768800D02*
X119132800Y-108768800D01*
X124642700Y-110468400D02*
X122943100Y-108768800D01*
X124642700Y-110604300D02*
X124642700Y-110468400D01*
X99275000Y-109055300D02*
X94275000Y-104055300D01*
X115584800Y-109055300D02*
X99275000Y-109055300D01*
X116840000Y-110310500D02*
X115584800Y-109055300D01*
X116840000Y-110880400D02*
X116840000Y-110310500D01*
X117657200Y-111697600D02*
X116840000Y-110880400D01*
X122096700Y-111697600D02*
X117657200Y-111697600D01*
X123190000Y-110604300D02*
X122096700Y-111697600D01*
X94275000Y-103230000D02*
X94275000Y-104055300D01*
X96875000Y-103230000D02*
X96875000Y-104055300D01*
X120013100Y-110604300D02*
X120650000Y-110604300D01*
X117429100Y-108020300D02*
X120013100Y-110604300D01*
X100840000Y-108020300D02*
X117429100Y-108020300D01*
X96875000Y-104055300D02*
X100840000Y-108020300D01*
X115976400Y-108470700D02*
X118110000Y-110604300D01*
X99990400Y-108470700D02*
X115976400Y-108470700D01*
X95575000Y-104055300D02*
X99990400Y-108470700D01*
X95575000Y-103230000D02*
X95575000Y-104055300D01*
X93625000Y-103230000D02*
X93625000Y-104055300D01*
X111931300Y-109505600D02*
X113030000Y-110604300D01*
X99075300Y-109505600D02*
X111931300Y-109505600D01*
X93625000Y-104055300D02*
X99075300Y-109505600D01*
X122682000Y-115963700D02*
X122682000Y-135890000D01*
X123190000Y-115455700D02*
X122682000Y-115963700D01*
X94925000Y-103230000D02*
X94925000Y-102404700D01*
X95825600Y-101504100D02*
X94925000Y-102404700D01*
X100515800Y-101504100D02*
X95825600Y-101504100D01*
X105638700Y-106627000D02*
X100515800Y-101504100D01*
X118900800Y-106627000D02*
X105638700Y-106627000D01*
X120142000Y-115963700D02*
X120142000Y-135890000D01*
X120650000Y-115455700D02*
X120142000Y-115963700D01*
X96225000Y-103230000D02*
X96225000Y-102404700D01*
X96675300Y-101954400D02*
X96225000Y-102404700D01*
X100329200Y-101954400D02*
X96675300Y-101954400D01*
X105452100Y-107077300D02*
X100329200Y-101954400D01*
X118608200Y-107077300D02*
X105452100Y-107077300D01*
X119508800Y-107977900D02*
X118608200Y-107077300D01*
X125130900Y-107977900D02*
X119508800Y-107977900D01*
X126825700Y-109672700D02*
X125130900Y-107977900D01*
X126825700Y-111496500D02*
X126825700Y-109672700D01*
X124675300Y-113646900D02*
X126825700Y-111496500D01*
X121318700Y-113646900D02*
X124675300Y-113646900D01*
X117602000Y-115963700D02*
X117602000Y-135890000D01*
X118110000Y-115455700D02*
X117602000Y-115963700D01*
X118405000Y-103230000D02*
X118405000Y-104055300D01*
X118332600Y-104127700D02*
X118332600Y-105622400D01*
X118405000Y-104055300D02*
X118332600Y-104127700D01*
X115062000Y-115963700D02*
X115062000Y-135890000D01*
X115570000Y-115455700D02*
X115062000Y-115963700D01*
X117755000Y-103230000D02*
X117755000Y-104055300D01*
X117705400Y-105622400D02*
X117705300Y-105622400D01*
X117705400Y-104104900D02*
X117705400Y-105622400D01*
X117755000Y-104055300D02*
X117705400Y-104104900D01*
X117105000Y-103230000D02*
X117105000Y-105622400D01*
X112522000Y-115963700D02*
X112522000Y-135890000D01*
X113030000Y-115455700D02*
X112522000Y-115963700D01*
X133848800Y-94201100D02*
X133238700Y-94201100D01*
X136564600Y-96916900D02*
X133848800Y-94201100D01*
X136564600Y-97518800D02*
X136564600Y-96916900D01*
X136691200Y-97645400D02*
X136564600Y-97518800D01*
X139092900Y-97645400D02*
X136691200Y-97645400D01*
X139280200Y-97458100D02*
X139092900Y-97645400D01*
X139280200Y-93038500D02*
X139280200Y-97458100D01*
X136633900Y-90392200D02*
X139280200Y-93038500D01*
X107125300Y-62230000D02*
X104045300Y-65310000D01*
X109220000Y-62230000D02*
X107125300Y-62230000D01*
X102870000Y-65310000D02*
X104045300Y-65310000D01*
X107148700Y-60420000D02*
X107878700Y-59690000D01*
X102870000Y-60420000D02*
X107148700Y-60420000D01*
X109220000Y-59690000D02*
X107878700Y-59690000D01*
X132399400Y-91868900D02*
X131262900Y-91868900D01*
X133876100Y-90392200D02*
X132399400Y-91868900D01*
X129424000Y-80312900D02*
X129424000Y-80201200D01*
X129403600Y-80333300D02*
X129424000Y-80312900D01*
X129987100Y-80916900D02*
X129403600Y-80333300D01*
X132682200Y-90171900D02*
X133169000Y-89685100D01*
X132452700Y-90171900D02*
X132682200Y-90171900D01*
X131877900Y-90746700D02*
X132452700Y-90171900D01*
X131877900Y-91343600D02*
X131877900Y-90746700D01*
X129540000Y-97790000D02*
X129540000Y-96600800D01*
X152940000Y-101600000D02*
X151614700Y-101600000D01*
X150969500Y-100954800D02*
X149164200Y-100954800D01*
X151614700Y-101600000D02*
X150969500Y-100954800D01*
X94275000Y-97430000D02*
X94275000Y-98255300D01*
X95554400Y-98255300D02*
X96108800Y-98809700D01*
X94275000Y-98255300D02*
X95554400Y-98255300D01*
X143210200Y-81476400D02*
X143210200Y-82367600D01*
X142411100Y-80677300D02*
X143210200Y-81476400D01*
X141581500Y-80677300D02*
X142411100Y-80677300D01*
X141489200Y-80769600D02*
X141581500Y-80677300D01*
X141377400Y-80769600D02*
X141489200Y-80769600D01*
X140876500Y-81270500D02*
X141377400Y-80769600D01*
X139787700Y-75288200D02*
X139787700Y-70452200D01*
X137341000Y-77734900D02*
X139787700Y-75288200D01*
X131036100Y-74187800D02*
X133876100Y-77027800D01*
X130431000Y-74187800D02*
X131036100Y-74187800D01*
X171405100Y-60704600D02*
X171405100Y-58561900D01*
X171965500Y-61265000D02*
X171405100Y-60704600D01*
X174055300Y-61265000D02*
X171965500Y-61265000D01*
X174625000Y-60695300D02*
X174055300Y-61265000D01*
X174625000Y-59670000D02*
X174625000Y-60695300D01*
X174625000Y-81260000D02*
X174625000Y-80234700D01*
X172490900Y-82285300D02*
X168029200Y-82285300D01*
X172718000Y-82058200D02*
X172490900Y-82285300D01*
X172718000Y-80467900D02*
X172718000Y-82058200D01*
X172951200Y-80234700D02*
X172718000Y-80467900D01*
X174625000Y-80234700D02*
X172951200Y-80234700D01*
X201295000Y-59670000D02*
X201295000Y-58644700D01*
X200906100Y-58644700D02*
X201295000Y-58644700D01*
X200660000Y-58890800D02*
X200906100Y-58644700D01*
X201295000Y-81260000D02*
X201295000Y-80234700D01*
X118405000Y-96588100D02*
X118405000Y-97430000D01*
X119871400Y-95121700D02*
X118405000Y-96588100D01*
X120055200Y-95121700D02*
X119871400Y-95121700D01*
X128926400Y-85442400D02*
X128342700Y-86026100D01*
X201251800Y-80234700D02*
X201164900Y-80147800D01*
X201295000Y-80234700D02*
X201251800Y-80234700D01*
X128926400Y-85442400D02*
X129510000Y-84858800D01*
X128233200Y-85916600D02*
X127684000Y-85916600D01*
X128342700Y-86026100D02*
X128233200Y-85916600D01*
X157886600Y-79841800D02*
X157974300Y-79754100D01*
X147658900Y-79841800D02*
X157886600Y-79841800D01*
X143740400Y-83760300D02*
X147658900Y-79841800D01*
X141234200Y-83760300D02*
X143740400Y-83760300D01*
X141064000Y-83930500D02*
X141234200Y-83760300D01*
X133834500Y-83930500D02*
X141064000Y-83930500D01*
X133749400Y-83845400D02*
X133834500Y-83930500D01*
X130417500Y-83845400D02*
X133749400Y-83845400D01*
X130141800Y-84121100D02*
X130417500Y-83845400D01*
X129802600Y-84121100D02*
X130141800Y-84121100D01*
X129509900Y-84413800D02*
X129802600Y-84121100D01*
X129509900Y-84858800D02*
X129509900Y-84413800D01*
X129510000Y-84858800D02*
X129509900Y-84858800D01*
X148000000Y-96110000D02*
X148000000Y-97160300D01*
X148000000Y-97160300D02*
X148082300Y-97242600D01*
X133445800Y-98607100D02*
X145858100Y-98607100D01*
X128887400Y-94048700D02*
X133445800Y-98607100D01*
X128887400Y-92896800D02*
X128887400Y-94048700D01*
X128555900Y-92565300D02*
X128887400Y-92896800D01*
X118724100Y-92565300D02*
X128555900Y-92565300D01*
X118588500Y-92429700D02*
X118724100Y-92565300D01*
X118588500Y-86042000D02*
X118588500Y-92429700D01*
X119836700Y-84793800D02*
X118588500Y-86042000D01*
X125818300Y-84793800D02*
X119836700Y-84793800D01*
X127519200Y-86494700D02*
X125818300Y-84793800D01*
X128581200Y-86494700D02*
X127519200Y-86494700D01*
X129279900Y-85796000D02*
X128581200Y-86494700D01*
X117755000Y-96571600D02*
X117755000Y-97430000D01*
X119767000Y-94559600D02*
X117755000Y-96571600D01*
X121443900Y-94559600D02*
X119767000Y-94559600D01*
X121511200Y-94626900D02*
X121443900Y-94559600D01*
X128309200Y-94626900D02*
X121511200Y-94626900D01*
X128887400Y-94048700D02*
X128309200Y-94626900D01*
X129633500Y-86149500D02*
X129049800Y-86733200D01*
X129147400Y-86830800D02*
X129147400Y-87257500D01*
X129049800Y-86733200D02*
X129147400Y-86830800D01*
X119565000Y-94092600D02*
X122419700Y-94092600D01*
X117105000Y-96552600D02*
X119565000Y-94092600D01*
X117105000Y-97430000D02*
X117105000Y-96552600D01*
X160050000Y-82910000D02*
X160050000Y-83835300D01*
X146657200Y-87145400D02*
X146328000Y-86816200D01*
X156739900Y-87145400D02*
X146657200Y-87145400D01*
X160050000Y-83835300D02*
X156739900Y-87145400D01*
X97312400Y-73662300D02*
X97312400Y-72537000D01*
X97916700Y-71932700D02*
X97312400Y-72537000D01*
X97916700Y-63025600D02*
X97916700Y-71932700D01*
X97121100Y-62230000D02*
X97916700Y-63025600D01*
X95887200Y-62230000D02*
X97121100Y-62230000D01*
X94445900Y-60788700D02*
X95887200Y-62230000D01*
X94445900Y-52316100D02*
X94445900Y-60788700D01*
X94597300Y-52164700D02*
X94445900Y-52316100D01*
X99790000Y-52164700D02*
X94597300Y-52164700D01*
X99790000Y-53340000D02*
X99790000Y-52164700D01*
X131126700Y-86475600D02*
X131277800Y-86626600D01*
X131126700Y-84867700D02*
X131126700Y-86475600D01*
X130672500Y-84413500D02*
X131126700Y-84867700D01*
X130694200Y-87210200D02*
X131277800Y-86626600D01*
X117070500Y-53340000D02*
X99790000Y-53340000D01*
X132750500Y-69020000D02*
X117070500Y-53340000D01*
X141355000Y-107590000D02*
X141355000Y-106764700D01*
X210185000Y-94000000D02*
X210185000Y-92974700D01*
X206867500Y-77818000D02*
X210185000Y-74500500D01*
X187897700Y-77818000D02*
X206867500Y-77818000D01*
X183515000Y-73435300D02*
X187897700Y-77818000D01*
X215834700Y-80150200D02*
X210185000Y-74500500D01*
X215834700Y-87325000D02*
X215834700Y-80150200D01*
X210185000Y-92974700D02*
X215834700Y-87325000D01*
X210185000Y-74500500D02*
X210185000Y-72410000D01*
X183515000Y-72410000D02*
X183515000Y-73435300D01*
X131047700Y-87563700D02*
X130464000Y-88147400D01*
X158861700Y-102775400D02*
X148955800Y-102775400D01*
X159301600Y-102335500D02*
X158861700Y-102775400D01*
X144966500Y-106764700D02*
X148955800Y-102775400D01*
X141355000Y-106764700D02*
X144966500Y-106764700D01*
X130464000Y-89206600D02*
X131006600Y-89749200D01*
X130464000Y-88147400D02*
X130464000Y-89206600D01*
X183515000Y-94759800D02*
X183515000Y-94000000D01*
X182495700Y-95779100D02*
X183515000Y-94759800D01*
X182260500Y-95779100D02*
X182495700Y-95779100D01*
X182085700Y-95953900D02*
X182260500Y-95779100D01*
X177534800Y-95953900D02*
X182085700Y-95953900D01*
X177110700Y-95529800D02*
X177534800Y-95953900D01*
X173460900Y-95529800D02*
X177110700Y-95529800D01*
X209734700Y-95475600D02*
X210185000Y-95025300D01*
X203922800Y-95475600D02*
X209734700Y-95475600D01*
X203115400Y-94668200D02*
X203922800Y-95475600D01*
X203115400Y-93130500D02*
X203115400Y-94668200D01*
X202338400Y-92353500D02*
X203115400Y-93130500D01*
X200196600Y-92353500D02*
X202338400Y-92353500D01*
X198659300Y-90816200D02*
X200196600Y-92353500D01*
X185884900Y-90816200D02*
X198659300Y-90816200D01*
X183515000Y-93186100D02*
X185884900Y-90816200D01*
X183515000Y-94000000D02*
X183515000Y-93186100D01*
X210185000Y-94000000D02*
X210185000Y-95025300D01*
X146576400Y-99135000D02*
X134139300Y-99135000D01*
X148955800Y-101514400D02*
X146576400Y-99135000D01*
X148955800Y-102775400D02*
X148955800Y-101514400D01*
X208915000Y-72410000D02*
X208915000Y-73435300D01*
X182245000Y-72410000D02*
X182245000Y-73435300D01*
X140055000Y-107590000D02*
X140055000Y-106764700D01*
X182245000Y-72410000D02*
X182245000Y-71384700D01*
X205165000Y-77185300D02*
X208915000Y-73435300D01*
X204327000Y-77185300D02*
X205165000Y-77185300D01*
X131401300Y-87917300D02*
X131984900Y-87333700D01*
X204186900Y-77325400D02*
X204327000Y-77185300D01*
X188192500Y-77325400D02*
X204186900Y-77325400D01*
X184234600Y-73367500D02*
X188192500Y-77325400D01*
X184234600Y-71670400D02*
X184234600Y-73367500D01*
X183948900Y-71384700D02*
X184234600Y-71670400D01*
X182245000Y-71384700D02*
X183948900Y-71384700D01*
X182245000Y-94000000D02*
X182245000Y-92974700D01*
X208915000Y-94000000D02*
X208915000Y-92974700D01*
X208915000Y-92974700D02*
X208221000Y-92974700D01*
X143805100Y-84305000D02*
X143888300Y-84388200D01*
X141326400Y-84305000D02*
X143805100Y-84305000D01*
X141250600Y-84380800D02*
X141326400Y-84305000D01*
X134937800Y-84380800D02*
X141250600Y-84380800D01*
X131984900Y-87333700D02*
X134937800Y-84380800D01*
X180439200Y-75241100D02*
X182245000Y-73435300D01*
X171782800Y-75241100D02*
X180439200Y-75241100D01*
X171616300Y-75074600D02*
X171782800Y-75241100D01*
X163433100Y-75074600D02*
X171616300Y-75074600D01*
X158215600Y-80292100D02*
X163433100Y-75074600D01*
X147845500Y-80292100D02*
X158215600Y-80292100D01*
X143888300Y-84249300D02*
X147845500Y-80292100D01*
X143888300Y-84388200D02*
X143888300Y-84249300D01*
X185304300Y-89915400D02*
X182245000Y-92974700D01*
X202668900Y-89915400D02*
X185304300Y-89915400D01*
X202774800Y-90021300D02*
X202668900Y-89915400D01*
X139875000Y-106584700D02*
X139875000Y-104773800D01*
X140055000Y-106764700D02*
X139875000Y-106584700D01*
X139405000Y-107590000D02*
X139405000Y-108415300D01*
X180975000Y-94000000D02*
X180975000Y-92974700D01*
X180975000Y-72410000D02*
X180975000Y-73435300D01*
X132429000Y-87777900D02*
X132338400Y-87687200D01*
X133867900Y-87777900D02*
X132429000Y-87777900D01*
X134034300Y-87944300D02*
X133867900Y-87777900D01*
X131754800Y-88270800D02*
X132338400Y-87687200D01*
X138954600Y-108865700D02*
X139405000Y-108415300D01*
X134891200Y-108865700D02*
X138954600Y-108865700D01*
X134394000Y-108368500D02*
X134891200Y-108865700D01*
X134394000Y-104033500D02*
X134394000Y-108368500D01*
X135249700Y-103177800D02*
X134394000Y-104033500D01*
X144395100Y-108415300D02*
X139405000Y-108415300D01*
X147185500Y-105624900D02*
X144395100Y-108415300D01*
X157762400Y-105624900D02*
X147185500Y-105624900D01*
X160522100Y-102865200D02*
X157762400Y-105624900D01*
X207645000Y-94000000D02*
X207645000Y-92974700D01*
X180656100Y-92597700D02*
X180935200Y-92876700D01*
X180337200Y-92597700D02*
X180656100Y-92597700D01*
X179176200Y-91436700D02*
X180337200Y-92597700D01*
X180975000Y-92916600D02*
X180975000Y-92974700D01*
X180935200Y-92876700D02*
X180975000Y-92916600D01*
X207656700Y-73435300D02*
X207645000Y-73435300D01*
X207736400Y-73515000D02*
X207656700Y-73435300D01*
X207645000Y-72410000D02*
X207645000Y-73435300D01*
X204612600Y-89942300D02*
X204612600Y-88973200D01*
X207645000Y-92974700D02*
X204612600Y-89942300D01*
X184964400Y-88847500D02*
X180935200Y-92876700D01*
X203517800Y-88847500D02*
X184964400Y-88847500D01*
X203643500Y-88973200D02*
X203517800Y-88847500D01*
X204612600Y-88973200D02*
X203643500Y-88973200D01*
X180836000Y-73435300D02*
X180759700Y-73511600D01*
X180975000Y-73435300D02*
X180836000Y-73435300D01*
X138755000Y-107590000D02*
X138755000Y-108415300D01*
X132108400Y-88624400D02*
X131524700Y-89208100D01*
X179705000Y-72410000D02*
X179705000Y-73435300D01*
X179705000Y-94000000D02*
X179705000Y-92974700D01*
X206375000Y-94000000D02*
X206375000Y-95025300D01*
X178640700Y-91910400D02*
X178640700Y-90875300D01*
X179705000Y-92974700D02*
X178640700Y-91910400D01*
X179705000Y-73622200D02*
X179705000Y-73435300D01*
X178631600Y-74695600D02*
X179705000Y-73622200D01*
X131453200Y-89279600D02*
X131417100Y-89279600D01*
X131524700Y-89208100D02*
X131453200Y-89279600D01*
X206639300Y-73435300D02*
X206375000Y-73435300D01*
X206719000Y-73515000D02*
X206639300Y-73435300D01*
X206375000Y-72410000D02*
X206375000Y-73435300D01*
X204686300Y-86840900D02*
X204697600Y-86829600D01*
X204686300Y-88051600D02*
X204686300Y-86840900D01*
X184143600Y-88051600D02*
X204686300Y-88051600D01*
X181319900Y-90875300D02*
X184143600Y-88051600D01*
X178640700Y-90875300D02*
X181319900Y-90875300D01*
X209331400Y-95025300D02*
X206375000Y-95025300D01*
X209465400Y-94891300D02*
X209331400Y-95025300D01*
X209465400Y-92830700D02*
X209465400Y-94891300D01*
X204686300Y-88051600D02*
X209465400Y-92830700D01*
X178551200Y-74776000D02*
X178631600Y-74695600D01*
X173782400Y-74776000D02*
X178551200Y-74776000D01*
X173630700Y-74624300D02*
X173782400Y-74776000D01*
X161924300Y-74624300D02*
X173630700Y-74624300D01*
X157157100Y-79391500D02*
X161924300Y-74624300D01*
X147414700Y-79391500D02*
X157157100Y-79391500D01*
X143529800Y-83276400D02*
X147414700Y-79391500D01*
X141081200Y-83276400D02*
X143529800Y-83276400D01*
X140990800Y-83366800D02*
X141081200Y-83276400D01*
X137868900Y-83366800D02*
X140990800Y-83366800D01*
X134977100Y-108246100D02*
X134977100Y-104773800D01*
X135146300Y-108415300D02*
X134977100Y-108246100D01*
X138755000Y-108415300D02*
X135146300Y-108415300D01*
X98175000Y-97430000D02*
X98175000Y-96604700D01*
X116685000Y-93621100D02*
X116724400Y-93660500D01*
X101158600Y-93621100D02*
X116685000Y-93621100D01*
X98175000Y-96604700D02*
X101158600Y-93621100D01*
X128581300Y-80218300D02*
X129633500Y-81270500D01*
X127991600Y-80218300D02*
X128581300Y-80218300D01*
X100362900Y-93116800D02*
X117096000Y-93116800D01*
X96875000Y-96604700D02*
X100362900Y-93116800D01*
X96875000Y-97430000D02*
X96875000Y-96604700D01*
X128578100Y-80922200D02*
X129279900Y-81624000D01*
X127934900Y-80922200D02*
X128578100Y-80922200D01*
X127076200Y-100413900D02*
X137627300Y-100413900D01*
X126492800Y-99830500D02*
X127076200Y-100413900D01*
X98092700Y-99830500D02*
X126492800Y-99830500D01*
X96517500Y-98255300D02*
X98092700Y-99830500D01*
X96225000Y-98255300D02*
X96517500Y-98255300D01*
X141610100Y-86883100D02*
X140876500Y-86149500D01*
X141659100Y-86883100D02*
X141610100Y-86883100D01*
X96225000Y-97430000D02*
X96225000Y-98255300D01*
X141937200Y-82331100D02*
X142520700Y-81747600D01*
X95575000Y-97430000D02*
X95575000Y-96604700D01*
X142580200Y-81747600D02*
X142616400Y-81711400D01*
X142520700Y-81747600D02*
X142580200Y-81747600D01*
X118295700Y-93567200D02*
X126882000Y-93567200D01*
X117304700Y-92576200D02*
X118295700Y-93567200D01*
X99603500Y-92576200D02*
X117304700Y-92576200D01*
X95575000Y-96604700D02*
X99603500Y-92576200D01*
X178435000Y-94000000D02*
X178435000Y-92974700D01*
X178435000Y-94000000D02*
X178435000Y-95025300D01*
X138105000Y-107590000D02*
X138105000Y-106764700D01*
X178206500Y-92974700D02*
X177378700Y-92146900D01*
X178435000Y-92974700D02*
X178206500Y-92974700D01*
X178248700Y-73435300D02*
X178435000Y-73435300D01*
X178169000Y-73515000D02*
X178248700Y-73435300D01*
X178435000Y-72410000D02*
X178435000Y-73435300D01*
X205105000Y-94000000D02*
X205105000Y-92974700D01*
X205105000Y-72410000D02*
X205105000Y-73435300D01*
X204853400Y-73435300D02*
X205105000Y-73435300D01*
X204772300Y-73516400D02*
X204853400Y-73435300D01*
X142791300Y-91599900D02*
X139108700Y-87917300D01*
X143281000Y-91599900D02*
X142791300Y-91599900D01*
X143576700Y-91895600D02*
X143281000Y-91599900D01*
X205105000Y-91524200D02*
X202983300Y-89402500D01*
X205105000Y-92974700D02*
X205105000Y-91524200D01*
X146243000Y-91895600D02*
X143576700Y-91895600D01*
X146446200Y-92098800D02*
X146243000Y-91895600D01*
X155281100Y-92098800D02*
X146446200Y-92098800D01*
X155718800Y-92536500D02*
X155281100Y-92098800D01*
X162304200Y-92536500D02*
X155718800Y-92536500D01*
X162838100Y-92002600D02*
X162304200Y-92536500D01*
X168967200Y-92002600D02*
X162838100Y-92002600D01*
X169469600Y-91500200D02*
X168967200Y-92002600D01*
X174210100Y-91500200D02*
X169469600Y-91500200D01*
X175041800Y-92331900D02*
X174210100Y-91500200D01*
X181338800Y-95025300D02*
X178435000Y-95025300D01*
X181610000Y-94754100D02*
X181338800Y-95025300D01*
X181610000Y-92868900D02*
X181610000Y-94754100D01*
X185076400Y-89402500D02*
X181610000Y-92868900D01*
X202983300Y-89402500D02*
X185076400Y-89402500D01*
X139132200Y-105737500D02*
X139132200Y-104773800D01*
X138105000Y-106764700D02*
X139132200Y-105737500D01*
X203835000Y-94000000D02*
X203835000Y-92974700D01*
X177165000Y-94512600D02*
X177165000Y-95025300D01*
X177165000Y-94512600D02*
X177165000Y-94000000D01*
X177165000Y-94000000D02*
X177165000Y-92974700D01*
X137455000Y-107590000D02*
X137455000Y-106764700D01*
X203835000Y-72410000D02*
X203835000Y-73435300D01*
X203611300Y-73435300D02*
X203835000Y-73435300D01*
X200579900Y-76466700D02*
X203611300Y-73435300D01*
X201330900Y-90470600D02*
X203835000Y-92974700D01*
X200193400Y-90470600D02*
X201330900Y-90470600D01*
X142973100Y-91074500D02*
X139462300Y-87563700D01*
X143031000Y-91074500D02*
X142973100Y-91074500D01*
X177165000Y-72410000D02*
X177165000Y-73435300D01*
X175512500Y-90929800D02*
X175355700Y-91086600D01*
X177165000Y-92896000D02*
X175355700Y-91086600D01*
X177165000Y-92974700D02*
X177165000Y-92896000D01*
X146058800Y-91074500D02*
X143031000Y-91074500D01*
X146632700Y-91648400D02*
X146058800Y-91074500D01*
X155467600Y-91648400D02*
X146632700Y-91648400D01*
X155905400Y-92086200D02*
X155467600Y-91648400D01*
X162117600Y-92086200D02*
X155905400Y-92086200D01*
X162651500Y-91552300D02*
X162117600Y-92086200D01*
X168780600Y-91552300D02*
X162651500Y-91552300D01*
X169283000Y-91049900D02*
X168780600Y-91552300D01*
X175318900Y-91049900D02*
X169283000Y-91049900D01*
X175355700Y-91086600D02*
X175318900Y-91049900D01*
X177243100Y-95025300D02*
X177165000Y-95025300D01*
X177693400Y-95475600D02*
X177243100Y-95025300D01*
X181927100Y-95475600D02*
X177693400Y-95475600D01*
X182073900Y-95328800D02*
X181927100Y-95475600D01*
X182309100Y-95328800D02*
X182073900Y-95328800D01*
X182837700Y-94800200D02*
X182309100Y-95328800D01*
X182837700Y-93226500D02*
X182837700Y-94800200D01*
X185698400Y-90365800D02*
X182837700Y-93226500D01*
X200088600Y-90365800D02*
X185698400Y-90365800D01*
X200193400Y-90470600D02*
X200088600Y-90365800D01*
X176833100Y-73767200D02*
X177165000Y-73435300D01*
X138428700Y-105791000D02*
X138428700Y-104773800D01*
X137455000Y-106764700D02*
X138428700Y-105791000D01*
X211455000Y-72410000D02*
X211455000Y-73435300D01*
X184785000Y-71897300D02*
X184785000Y-72410000D01*
X184785000Y-71897300D02*
X184785000Y-71641000D01*
X214545400Y-73301300D02*
X214545400Y-71380300D01*
X214411400Y-73435300D02*
X214545400Y-73301300D01*
X211455000Y-73435300D02*
X214411400Y-73435300D01*
X215647900Y-71380300D02*
X214545400Y-71380300D01*
X216297200Y-72029600D02*
X215647900Y-71380300D01*
X216297200Y-88132500D02*
X216297200Y-72029600D01*
X211455000Y-92974700D02*
X216297200Y-88132500D01*
X211455000Y-93927600D02*
X211455000Y-92974700D01*
X185225400Y-93559600D02*
X185225400Y-92931800D01*
X184785000Y-94000000D02*
X185225400Y-93559600D01*
X211455000Y-93927600D02*
X211455000Y-94000000D01*
X186092300Y-92064900D02*
X185225400Y-92931800D01*
X191438900Y-92064900D02*
X186092300Y-92064900D01*
X195304000Y-95930000D02*
X191438900Y-92064900D01*
X210550300Y-95930000D02*
X195304000Y-95930000D01*
X211455000Y-95025300D02*
X210550300Y-95930000D01*
X211455000Y-94000000D02*
X211455000Y-95025300D01*
X185980400Y-70445600D02*
X184785000Y-71641000D01*
X196278800Y-70445600D02*
X185980400Y-70445600D01*
X196705200Y-70019200D02*
X196278800Y-70445600D01*
X213184300Y-70019200D02*
X196705200Y-70019200D01*
X214545400Y-71380300D02*
X213184300Y-70019200D01*
X142784100Y-90178500D02*
X139815800Y-87210200D01*
X149020300Y-90178500D02*
X142784100Y-90178500D01*
X149020300Y-90178600D02*
X149020300Y-90178500D01*
X150039700Y-91198000D02*
X149020300Y-90178600D01*
X155654100Y-91198000D02*
X150039700Y-91198000D01*
X156092000Y-91635900D02*
X155654100Y-91198000D01*
X161931000Y-91635900D02*
X156092000Y-91635900D01*
X162464900Y-91102000D02*
X161931000Y-91635900D01*
X168594000Y-91102000D02*
X162464900Y-91102000D01*
X169521300Y-90174700D02*
X168594000Y-91102000D01*
X181200200Y-90174700D02*
X169521300Y-90174700D01*
X168786700Y-99461700D02*
X168025000Y-98700000D01*
X173892900Y-99461700D02*
X168786700Y-99461700D01*
X175077700Y-98276900D02*
X173892900Y-99461700D01*
X186055000Y-94000000D02*
X186055000Y-92974700D01*
X212725000Y-94000000D02*
X212725000Y-95025300D01*
X186428700Y-92601000D02*
X186458800Y-92601000D01*
X186055000Y-92974700D02*
X186428700Y-92601000D01*
X211309700Y-96440600D02*
X212725000Y-95025300D01*
X193970700Y-96440600D02*
X211309700Y-96440600D01*
X190052900Y-92522800D02*
X193970700Y-96440600D01*
X186537000Y-92522800D02*
X190052900Y-92522800D01*
X186458800Y-92601000D02*
X186537000Y-92522800D01*
X186055000Y-72410000D02*
X186055000Y-73435300D01*
X169482600Y-97874700D02*
X166725000Y-97874700D01*
X170515500Y-98907600D02*
X169482600Y-97874700D01*
X171283300Y-98907600D02*
X170515500Y-98907600D01*
X166725000Y-98700000D02*
X166725000Y-97874700D01*
X186516900Y-73435300D02*
X186516900Y-74854000D01*
X186055000Y-73435300D02*
X186516900Y-73435300D01*
X212725000Y-72249900D02*
X212725000Y-72410000D01*
X211394900Y-70919800D02*
X212725000Y-72249900D01*
X197303400Y-70919800D02*
X211394900Y-70919800D01*
X196838500Y-71384700D02*
X197303400Y-70919800D01*
X188235200Y-71384700D02*
X196838500Y-71384700D01*
X187875400Y-71744500D02*
X188235200Y-71384700D01*
X187875400Y-73260600D02*
X187875400Y-71744500D01*
X187700700Y-73435300D02*
X187875400Y-73260600D01*
X186516900Y-73435300D02*
X187700700Y-73435300D01*
X142881300Y-89568500D02*
X140169400Y-86856600D01*
X149153100Y-89568500D02*
X142881300Y-89568500D01*
X150050900Y-90466300D02*
X149153100Y-89568500D01*
X213995000Y-94000000D02*
X213995000Y-95025300D01*
X187325000Y-72410000D02*
X187325000Y-71384700D01*
X187325000Y-93487300D02*
X187325000Y-92974700D01*
X187325000Y-93487300D02*
X187325000Y-94000000D01*
X187325000Y-94000000D02*
X187325000Y-95025300D01*
X166075000Y-98700000D02*
X166075000Y-97874700D01*
X187789900Y-70919800D02*
X187325000Y-71384700D01*
X196441600Y-70919800D02*
X187789900Y-70919800D01*
X196891900Y-70469500D02*
X196441600Y-70919800D01*
X212250700Y-70469500D02*
X196891900Y-70469500D01*
X213995000Y-72213800D02*
X212250700Y-70469500D01*
X213995000Y-72410000D02*
X213995000Y-72213800D01*
X166530600Y-97419100D02*
X166075000Y-97874700D01*
X169888900Y-97419100D02*
X166530600Y-97419100D01*
X170063100Y-97593300D02*
X169888900Y-97419100D01*
X184757000Y-97593300D02*
X170063100Y-97593300D01*
X187325000Y-95025300D02*
X184757000Y-97593300D01*
X187966600Y-92974700D02*
X187966600Y-93056600D01*
X187325000Y-92974700D02*
X187966600Y-92974700D01*
X212129400Y-96890900D02*
X213995000Y-95025300D01*
X193331000Y-96890900D02*
X212129400Y-96890900D01*
X189414800Y-92974700D02*
X193331000Y-96890900D01*
X187966600Y-92974700D02*
X189414800Y-92974700D01*
X141889800Y-87870000D02*
X140522900Y-86503100D01*
X150261000Y-87870000D02*
X141889800Y-87870000D01*
X151883800Y-89492800D02*
X150261000Y-87870000D01*
X155222700Y-89492800D02*
X151883800Y-89492800D01*
X156465200Y-90735300D02*
X155222700Y-89492800D01*
X161445300Y-90735300D02*
X156465200Y-90735300D01*
X162124800Y-90055800D02*
X161445300Y-90735300D01*
X168366400Y-90055800D02*
X162124800Y-90055800D01*
X171736000Y-86686200D02*
X168366400Y-90055800D01*
X188487200Y-86686200D02*
X171736000Y-86686200D01*
X187099900Y-72635100D02*
X187325000Y-72410000D01*
X186693200Y-72635100D02*
X187099900Y-72635100D01*
X208915000Y-59670000D02*
X208915000Y-60695300D01*
X161700000Y-64415000D02*
X160624700Y-64415000D01*
X160624700Y-68736600D02*
X160624700Y-64415000D01*
X160753500Y-68865400D02*
X160624700Y-68736600D01*
X167193100Y-68865400D02*
X160753500Y-68865400D01*
X170258500Y-65800000D02*
X167193100Y-68865400D01*
X203810300Y-65800000D02*
X170258500Y-65800000D01*
X208915000Y-60695300D02*
X203810300Y-65800000D01*
X161700000Y-65065000D02*
X162775300Y-65065000D01*
X182245000Y-59519800D02*
X182245000Y-59670000D01*
X181369900Y-58644700D02*
X182245000Y-59519800D01*
X180597500Y-58644700D02*
X181369900Y-58644700D01*
X180340000Y-58902200D02*
X180597500Y-58644700D01*
X180340000Y-60719300D02*
X180340000Y-58902200D01*
X177588500Y-63470800D02*
X180340000Y-60719300D01*
X164369500Y-63470800D02*
X177588500Y-63470800D01*
X162775300Y-65065000D02*
X164369500Y-63470800D01*
X164807400Y-64713500D02*
X200896300Y-64713500D01*
X163805900Y-65715000D02*
X164807400Y-64713500D01*
X161700000Y-65715000D02*
X163805900Y-65715000D01*
X208915000Y-81260000D02*
X208915000Y-80234700D01*
X208398900Y-80234700D02*
X208309700Y-80323900D01*
X208915000Y-80234700D02*
X208398900Y-80234700D01*
X182245000Y-81260000D02*
X182245000Y-80234700D01*
X169056400Y-66365000D02*
X161700000Y-66365000D01*
X170182600Y-65238800D02*
X169056400Y-66365000D01*
X177373200Y-65238800D02*
X170182600Y-65238800D01*
X182245000Y-80187200D02*
X182245000Y-80234700D01*
X181735400Y-79677600D02*
X182245000Y-80187200D01*
X202565000Y-72410000D02*
X202565000Y-73435300D01*
X140522900Y-80916900D02*
X139939400Y-81500400D01*
X136805000Y-107590000D02*
X136805000Y-106764700D01*
X175895000Y-72410000D02*
X175895000Y-71384700D01*
X202565000Y-73491300D02*
X202588700Y-73515000D01*
X202565000Y-73435300D02*
X202565000Y-73491300D01*
X140522900Y-80916900D02*
X141106500Y-80333300D01*
X175895000Y-72410000D02*
X175895000Y-73435300D01*
X175195900Y-74134400D02*
X175895000Y-73435300D01*
X175195900Y-74174000D02*
X175195900Y-74134400D01*
X175895000Y-94000000D02*
X175895000Y-92974700D01*
X175824800Y-92904500D02*
X175824800Y-92298800D01*
X175895000Y-92974700D02*
X175824800Y-92904500D01*
X202565000Y-93577100D02*
X202030600Y-93042700D01*
X202565000Y-94000000D02*
X202565000Y-93577100D01*
X139951000Y-81512100D02*
X139939400Y-81500400D01*
X139951000Y-82078400D02*
X139951000Y-81512100D01*
X139971400Y-82098800D02*
X139951000Y-82078400D01*
X139971400Y-82821700D02*
X139971400Y-82098800D01*
X161737700Y-74174000D02*
X175195900Y-74174000D01*
X161490300Y-74421400D02*
X161737700Y-74174000D01*
X161435900Y-74421400D02*
X161490300Y-74421400D01*
X157110100Y-78747200D02*
X161435900Y-74421400D01*
X147189000Y-78747200D02*
X157110100Y-78747200D01*
X146629300Y-79306900D02*
X147189000Y-78747200D01*
X144562100Y-79306900D02*
X146629300Y-79306900D01*
X144384000Y-79485000D02*
X144562100Y-79306900D01*
X143018100Y-79485000D02*
X144384000Y-79485000D01*
X142643900Y-79859200D02*
X143018100Y-79485000D01*
X141981600Y-79859200D02*
X142643900Y-79859200D01*
X141948800Y-79892000D02*
X141981600Y-79859200D01*
X141729900Y-79892000D02*
X141948800Y-79892000D01*
X141302600Y-80319300D02*
X141729900Y-79892000D01*
X141190700Y-80319300D02*
X141302600Y-80319300D01*
X141176600Y-80333400D02*
X141190700Y-80319300D01*
X141106500Y-80333400D02*
X141176600Y-80333400D01*
X141106500Y-80333300D02*
X141106500Y-80333400D01*
X137001500Y-106568200D02*
X137001500Y-104773800D01*
X136805000Y-106764700D02*
X137001500Y-106568200D01*
X196608300Y-69479200D02*
X200935000Y-69479200D01*
X196144400Y-69943100D02*
X196608300Y-69479200D01*
X177336600Y-69943100D02*
X196144400Y-69943100D01*
X175895000Y-71384700D02*
X177336600Y-69943100D01*
X174563200Y-92974700D02*
X174464200Y-92875700D01*
X174625000Y-92974700D02*
X174563200Y-92974700D01*
X174625000Y-94000000D02*
X174625000Y-92974700D01*
X201295000Y-72410000D02*
X201295000Y-73435300D01*
X201661000Y-73435300D02*
X201295000Y-73435300D01*
X201715100Y-73489400D02*
X201661000Y-73435300D01*
X174369700Y-73435300D02*
X174625000Y-73435300D01*
X174290000Y-73515000D02*
X174369700Y-73435300D01*
X174625000Y-72410000D02*
X174625000Y-73435300D01*
X175435200Y-87478200D02*
X201603000Y-87478200D01*
X174456800Y-88456600D02*
X175435200Y-87478200D01*
X150123900Y-88688100D02*
X143438500Y-88688100D01*
X151537900Y-90102100D02*
X150123900Y-88688100D01*
X155195100Y-90102100D02*
X151537900Y-90102100D01*
X156278600Y-91185600D02*
X155195100Y-90102100D01*
X161744300Y-91185600D02*
X156278600Y-91185600D01*
X162278300Y-90651600D02*
X161744300Y-91185600D01*
X168407500Y-90651600D02*
X162278300Y-90651600D01*
X170602500Y-88456600D02*
X168407500Y-90651600D01*
X174456800Y-88456600D02*
X170602500Y-88456600D01*
X201218000Y-92897700D02*
X201295000Y-92974700D01*
X201218000Y-92889200D02*
X201218000Y-92897700D01*
X201295000Y-94000000D02*
X201295000Y-92974700D01*
X139446100Y-81286700D02*
X139446100Y-82316500D01*
X140169400Y-80563400D02*
X139446100Y-81286700D01*
X136155000Y-104877400D02*
X136155000Y-107590000D01*
X137834000Y-103198400D02*
X136155000Y-104877400D01*
X138338100Y-103198400D02*
X137834000Y-103198400D01*
X200661900Y-60695300D02*
X202565000Y-60695300D01*
X199510600Y-61846600D02*
X200661900Y-60695300D01*
X194457000Y-61846600D02*
X199510600Y-61846600D01*
X202565000Y-59670000D02*
X202565000Y-60695300D01*
X202565000Y-81260000D02*
X202565000Y-80234700D01*
X201808000Y-79477700D02*
X198462600Y-79477700D01*
X202565000Y-80234700D02*
X201808000Y-79477700D01*
X175895000Y-81260000D02*
X175895000Y-80234700D01*
X175940600Y-80234700D02*
X176020100Y-80155200D01*
X175895000Y-80234700D02*
X175940600Y-80234700D01*
X175895000Y-59670000D02*
X175895000Y-60695300D01*
X175993800Y-60695300D02*
X175895000Y-60695300D01*
X176077300Y-60778800D02*
X175993800Y-60695300D01*
X169556000Y-70324100D02*
X173240900Y-70324100D01*
X167339100Y-72541000D02*
X169556000Y-70324100D01*
X159693600Y-72541000D02*
X167339100Y-72541000D01*
X156343100Y-75891500D02*
X159693600Y-72541000D01*
X155706300Y-75891500D02*
X156343100Y-75891500D01*
X153970700Y-77627100D02*
X155706300Y-75891500D01*
X146851600Y-77627100D02*
X153970700Y-77627100D01*
X146735000Y-77743700D02*
X146851600Y-77627100D01*
X143371500Y-77743700D02*
X146735000Y-77743700D01*
X143351500Y-77763700D02*
X143371500Y-77743700D01*
X142623400Y-77763700D02*
X143351500Y-77763700D01*
X142484700Y-77902400D02*
X142623400Y-77763700D01*
X142123200Y-77902400D02*
X142484700Y-77902400D01*
X140399400Y-79626200D02*
X142123200Y-77902400D01*
X140107600Y-79918000D02*
X140399400Y-79626200D01*
X140107600Y-79918000D02*
X139815800Y-80209800D01*
X122549000Y-96604700D02*
X123946700Y-95207000D01*
X122305000Y-96604700D02*
X122549000Y-96604700D01*
X137714000Y-82311600D02*
X139815800Y-80209800D01*
X137468200Y-82311600D02*
X137714000Y-82311600D01*
X122305000Y-97430000D02*
X122305000Y-96604700D01*
X177165000Y-81260000D02*
X177165000Y-80234700D01*
X203835000Y-81260000D02*
X203835000Y-82285300D01*
X203835000Y-59670000D02*
X203835000Y-58644700D01*
X177418100Y-79981600D02*
X177165000Y-80234700D01*
X177418100Y-79469400D02*
X177418100Y-79981600D01*
X177165000Y-60798100D02*
X177165000Y-59670000D01*
X202484100Y-83636200D02*
X203835000Y-82285300D01*
X185751900Y-83636200D02*
X202484100Y-83636200D01*
X184065400Y-81949700D02*
X185751900Y-83636200D01*
X184065400Y-80370000D02*
X184065400Y-81949700D01*
X183297900Y-79602500D02*
X184065400Y-80370000D01*
X182411200Y-79602500D02*
X183297900Y-79602500D01*
X181960900Y-79152200D02*
X182411200Y-79602500D01*
X177735300Y-79152200D02*
X181960900Y-79152200D01*
X177418100Y-79469400D02*
X177735300Y-79152200D01*
X121005000Y-96867500D02*
X121005000Y-97430000D01*
X121458200Y-96414300D02*
X121005000Y-96867500D01*
X204287900Y-58191800D02*
X203835000Y-58644700D01*
X210489500Y-58191800D02*
X204287900Y-58191800D01*
X210735400Y-58437700D02*
X210489500Y-58191800D01*
X210735400Y-60565500D02*
X210735400Y-58437700D01*
X203309000Y-67991900D02*
X210735400Y-60565500D01*
X186319900Y-67991900D02*
X203309000Y-67991900D01*
X186189200Y-68122600D02*
X186319900Y-67991900D01*
X175913600Y-68122600D02*
X186189200Y-68122600D01*
X175124400Y-68911800D02*
X175913600Y-68122600D01*
X174599900Y-69436300D02*
X175124400Y-68911800D01*
X169806900Y-69436300D02*
X174599900Y-69436300D01*
X167360600Y-71882600D02*
X169806900Y-69436300D01*
X159078200Y-71882600D02*
X167360600Y-71882600D01*
X153784000Y-77176800D02*
X159078200Y-71882600D01*
X146665000Y-77176800D02*
X153784000Y-77176800D01*
X146548400Y-77293400D02*
X146665000Y-77176800D01*
X142456800Y-77293400D02*
X146548400Y-77293400D01*
X142298100Y-77452100D02*
X142456800Y-77293400D01*
X141866500Y-77452100D02*
X142298100Y-77452100D01*
X139462300Y-79856300D02*
X141866500Y-77452100D01*
X137629900Y-81688700D02*
X136249300Y-81688700D01*
X139462300Y-79856300D02*
X137629900Y-81688700D01*
X94925000Y-97430000D02*
X94925000Y-96604700D01*
X141583600Y-81977600D02*
X142167300Y-81393900D01*
X99484700Y-92045000D02*
X117612900Y-92045000D01*
X94925000Y-96604700D02*
X99484700Y-92045000D01*
X142167300Y-81250200D02*
X142123800Y-81206700D01*
X142167300Y-81393900D02*
X142167300Y-81250200D01*
X140573000Y-82281100D02*
X141230100Y-81624000D01*
X140573000Y-82836000D02*
X140573000Y-82281100D01*
X126896500Y-100948100D02*
X137182900Y-100948100D01*
X126364000Y-100415600D02*
X126896500Y-100948100D01*
X95726500Y-100415600D02*
X126364000Y-100415600D01*
X93625000Y-98314100D02*
X95726500Y-100415600D01*
X93625000Y-97430000D02*
X93625000Y-98314100D01*
X92975000Y-97430000D02*
X92975000Y-98255300D01*
X137694500Y-78088500D02*
X137110900Y-78672100D01*
X91907800Y-98255300D02*
X92975000Y-98255300D01*
X91784100Y-98131600D02*
X91907800Y-98255300D01*
X91784100Y-96430100D02*
X91784100Y-98131600D01*
X100288500Y-87925700D02*
X91784100Y-96430100D01*
X114915500Y-87925700D02*
X100288500Y-87925700D01*
X118789800Y-84051400D02*
X114915500Y-87925700D01*
X122625900Y-84051400D02*
X118789800Y-84051400D01*
X122672700Y-84004600D02*
X122625900Y-84051400D01*
X129153200Y-84004600D02*
X122672700Y-84004600D01*
X129487000Y-83670800D02*
X129153200Y-84004600D01*
X129688300Y-83670800D02*
X129487000Y-83670800D01*
X129894500Y-83464600D02*
X129688300Y-83670800D01*
X129931900Y-83464600D02*
X129894500Y-83464600D01*
X130023700Y-83372800D02*
X129931900Y-83464600D01*
X130253200Y-83372800D02*
X130023700Y-83372800D01*
X130417200Y-83208800D02*
X130253200Y-83372800D01*
X133396900Y-83208800D02*
X130417200Y-83208800D01*
X133937400Y-82668300D02*
X133396900Y-83208800D01*
X133953100Y-82668300D02*
X133937400Y-82668300D01*
X135051800Y-81569600D02*
X133953100Y-82668300D01*
X135051800Y-81553900D02*
X135051800Y-81569600D01*
X136900600Y-79705100D02*
X135051800Y-81553900D01*
X136900600Y-79439400D02*
X136900600Y-79705100D01*
X136985400Y-79354600D02*
X136900600Y-79439400D01*
X136985400Y-78797600D02*
X136985400Y-79354600D01*
X137110900Y-78672100D02*
X136985400Y-78797600D01*
X110875000Y-97430000D02*
X110875000Y-96604700D01*
X113783900Y-96604700D02*
X116242100Y-94146500D01*
X110875000Y-96604700D02*
X113783900Y-96604700D01*
X131158400Y-77845600D02*
X129660500Y-77845600D01*
X132108400Y-78795600D02*
X131158400Y-77845600D01*
X173355000Y-58469000D02*
X173355000Y-59670000D01*
X172985000Y-58099000D02*
X173355000Y-58469000D01*
X199416600Y-60695300D02*
X198884400Y-61227500D01*
X200025000Y-60695300D02*
X199416600Y-60695300D01*
X200025000Y-81260000D02*
X200025000Y-80234700D01*
X200025000Y-59670000D02*
X200025000Y-60695300D01*
X200025000Y-80215600D02*
X199963600Y-80154200D01*
X200025000Y-80234700D02*
X200025000Y-80215600D01*
X115654100Y-78157300D02*
X115654100Y-78820000D01*
X119207200Y-74604200D02*
X115654100Y-78157300D01*
X129885500Y-74604200D02*
X119207200Y-74604200D01*
X131439600Y-76158300D02*
X129885500Y-74604200D01*
X132299500Y-76158300D02*
X131439600Y-76158300D01*
X133522600Y-77381400D02*
X132299500Y-76158300D01*
X109575000Y-96511200D02*
X109575000Y-97430000D01*
X172537700Y-83102600D02*
X168364700Y-83102600D01*
X173355000Y-82285300D02*
X172537700Y-83102600D01*
X173355000Y-81260000D02*
X173355000Y-82285300D01*
X147224100Y-94518800D02*
X148876200Y-94518800D01*
X146700000Y-95042900D02*
X147224100Y-94518800D01*
X146700000Y-96110000D02*
X146700000Y-95042900D01*
X154898100Y-94900300D02*
X161237700Y-94900300D01*
X154445300Y-94447500D02*
X154898100Y-94900300D01*
X148947500Y-94447500D02*
X154445300Y-94447500D01*
X148876200Y-94518800D02*
X148947500Y-94447500D01*
X134596600Y-78455400D02*
X133522600Y-77381400D01*
X120355000Y-97430000D02*
X120355000Y-96604700D01*
X207645000Y-59670000D02*
X207645000Y-60695300D01*
X204412100Y-63928200D02*
X207645000Y-60695300D01*
X183597500Y-63928200D02*
X204412100Y-63928200D01*
X183513500Y-63844200D02*
X183597500Y-63928200D01*
X133169000Y-77734900D02*
X133752600Y-78318500D01*
X207645000Y-81260000D02*
X207645000Y-80234700D01*
X133712000Y-78359100D02*
X133712000Y-78571900D01*
X133752600Y-78318500D02*
X133712000Y-78359100D01*
X181036200Y-82285300D02*
X181210400Y-82459500D01*
X180975000Y-82285300D02*
X181036200Y-82285300D01*
X180975000Y-81260000D02*
X180975000Y-82285300D01*
X206014700Y-80234700D02*
X207645000Y-80234700D01*
X205740000Y-80509400D02*
X206014700Y-80234700D01*
X205740000Y-82432800D02*
X205740000Y-80509400D01*
X203185700Y-84987100D02*
X205740000Y-82432800D01*
X183738000Y-84987100D02*
X203185700Y-84987100D01*
X181210400Y-82459500D02*
X183738000Y-84987100D01*
X120507700Y-96452000D02*
X120677400Y-96452000D01*
X120355000Y-96604700D02*
X120507700Y-96452000D01*
X183295800Y-63844200D02*
X183513500Y-63844200D01*
X182766900Y-63315300D02*
X183295800Y-63844200D01*
X182588700Y-63315300D02*
X182766900Y-63315300D01*
X182281000Y-63007600D02*
X182588700Y-63315300D01*
X182281000Y-62829400D02*
X182281000Y-63007600D01*
X180975000Y-61523400D02*
X182281000Y-62829400D01*
X180975000Y-59670000D02*
X180975000Y-61523400D01*
X142052400Y-76317900D02*
X141972900Y-76397400D01*
X142322200Y-76317900D02*
X142052400Y-76317900D01*
X143459300Y-75180800D02*
X142322200Y-76317900D01*
X150350300Y-75180800D02*
X143459300Y-75180800D01*
X155260200Y-70270900D02*
X150350300Y-75180800D01*
X167698500Y-70270900D02*
X155260200Y-70270900D01*
X170391700Y-67577700D02*
X167698500Y-70270900D01*
X182792900Y-67577700D02*
X170391700Y-67577700D01*
X205105000Y-81260000D02*
X205105000Y-82285300D01*
X178435000Y-81260000D02*
X178435000Y-80234700D01*
X205105000Y-59670000D02*
X205105000Y-60695300D01*
X178435000Y-59670000D02*
X178435000Y-58644700D01*
X131410700Y-76683700D02*
X132815500Y-78088500D01*
X119750600Y-98255300D02*
X119705000Y-98255300D01*
X119843500Y-98348200D02*
X119750600Y-98255300D01*
X119705000Y-97430000D02*
X119705000Y-98255300D01*
X181525400Y-80317900D02*
X181408900Y-80201400D01*
X181525400Y-82026600D02*
X181525400Y-80317900D01*
X184035600Y-84536800D02*
X181525400Y-82026600D01*
X202933100Y-84536800D02*
X184035600Y-84536800D01*
X205105000Y-82364900D02*
X202933100Y-84536800D01*
X205105000Y-82285300D02*
X205105000Y-82364900D01*
X178468300Y-80201400D02*
X178435000Y-80234700D01*
X181408900Y-80201400D02*
X178468300Y-80201400D01*
X178913500Y-58166200D02*
X178435000Y-58644700D01*
X182130600Y-58166200D02*
X178913500Y-58166200D01*
X182795400Y-58831000D02*
X182130600Y-58166200D01*
X182795400Y-62056900D02*
X182795400Y-58831000D01*
X183167400Y-62428900D02*
X182795400Y-62056900D01*
X182806300Y-62790000D02*
X183167400Y-62428900D01*
X202882900Y-62917400D02*
X205105000Y-60695300D01*
X184388700Y-62917400D02*
X202882900Y-62917400D01*
X183900200Y-62428900D02*
X184388700Y-62917400D01*
X183167400Y-62428900D02*
X183900200Y-62428900D01*
X170201700Y-66493900D02*
X182267400Y-66493900D01*
X167379800Y-69315800D02*
X170201700Y-66493900D01*
X152613300Y-69315800D02*
X167379800Y-69315800D01*
X149467800Y-72461300D02*
X152613300Y-69315800D01*
X144899200Y-72461300D02*
X149467800Y-72461300D01*
X141748800Y-69310900D02*
X144899200Y-72461300D01*
X135861800Y-69310900D02*
X141748800Y-69310900D01*
X134539000Y-70633700D02*
X135861800Y-69310900D01*
X134539000Y-72358300D02*
X134539000Y-70633700D01*
X134062600Y-72834700D02*
X134539000Y-72358300D01*
X133959400Y-72834700D02*
X134062600Y-72834700D01*
X173270300Y-92974700D02*
X173173000Y-92877400D01*
X173355000Y-92974700D02*
X173270300Y-92974700D01*
X173355000Y-94000000D02*
X173355000Y-92974700D01*
X119706400Y-96604700D02*
X119055000Y-96604700D01*
X121226200Y-95084900D02*
X119706400Y-96604700D01*
X119055000Y-97430000D02*
X119055000Y-96604700D01*
X200025000Y-72410000D02*
X200025000Y-73435300D01*
X200025000Y-94000000D02*
X200025000Y-92974700D01*
X198549100Y-74911200D02*
X200025000Y-73435300D01*
X196886400Y-74911200D02*
X198549100Y-74911200D01*
X173355000Y-72410000D02*
X173355000Y-73435300D01*
X133774800Y-79755000D02*
X132461900Y-78442100D01*
X133774800Y-80903400D02*
X133774800Y-79755000D01*
X133700900Y-80977300D02*
X133774800Y-80903400D01*
X133700900Y-81009800D02*
X133700900Y-80977300D01*
X133393300Y-81317400D02*
X133700900Y-81009800D01*
X133361100Y-81317400D02*
X133393300Y-81317400D01*
X133192700Y-81485800D02*
X133361100Y-81317400D01*
X132758100Y-81485800D02*
X133192700Y-81485800D01*
X200025000Y-92974700D02*
X199323100Y-92974700D01*
X172994500Y-73435300D02*
X172911700Y-73518100D01*
X173355000Y-73435300D02*
X172994500Y-73435300D01*
X186855000Y-69473500D02*
X186910700Y-69417800D01*
X177169300Y-69473500D02*
X186855000Y-69473500D01*
X175258100Y-71384700D02*
X177169300Y-69473500D01*
X174265200Y-71384700D02*
X175258100Y-71384700D01*
X173355000Y-72294900D02*
X174265200Y-71384700D01*
X173355000Y-72410000D02*
X173355000Y-72294900D01*
X161702300Y-73518100D02*
X172911700Y-73518100D01*
X156951400Y-78269000D02*
X161702300Y-73518100D01*
X142755000Y-78269000D02*
X156951400Y-78269000D01*
X142671300Y-78352700D02*
X142755000Y-78269000D01*
X142500200Y-78352700D02*
X142671300Y-78352700D01*
X141058900Y-79794000D02*
X142500200Y-78352700D01*
X188595000Y-59670000D02*
X188595000Y-60182600D01*
X215265000Y-59670000D02*
X215265000Y-60695300D01*
X190389900Y-58387700D02*
X188595000Y-60182600D01*
X194362400Y-58387700D02*
X190389900Y-58387700D01*
X195458900Y-57291200D02*
X194362400Y-58387700D01*
X210862700Y-57291200D02*
X195458900Y-57291200D01*
X212005400Y-58433900D02*
X210862700Y-57291200D01*
X212005400Y-60340400D02*
X212005400Y-58433900D01*
X212360300Y-60695300D02*
X212005400Y-60340400D01*
X215265000Y-60695300D02*
X212360300Y-60695300D01*
X188595000Y-81260000D02*
X188595000Y-80747300D01*
X215265000Y-81260000D02*
X215265000Y-80234700D01*
X188595000Y-80747300D02*
X187961900Y-80747300D01*
X213463700Y-78433400D02*
X215265000Y-80234700D01*
X190908900Y-78433400D02*
X213463700Y-78433400D01*
X188595000Y-80747300D02*
X190908900Y-78433400D01*
X165425000Y-98700000D02*
X165425000Y-97874700D01*
X166331000Y-96968700D02*
X165425000Y-97874700D01*
X170075400Y-96968700D02*
X166331000Y-96968700D01*
X170249600Y-97142900D02*
X170075400Y-96968700D01*
X182807400Y-97142900D02*
X170249600Y-97142900D01*
X182899100Y-97051200D02*
X182807400Y-97142900D01*
X188595000Y-60594700D02*
X188595000Y-60182600D01*
X188398300Y-60791400D02*
X188595000Y-60594700D01*
X131754800Y-79149200D02*
X131171300Y-78565600D01*
X131010200Y-78565700D02*
X130888600Y-78444100D01*
X131171200Y-78565700D02*
X131010200Y-78565700D01*
X131171300Y-78565600D02*
X131171200Y-78565700D01*
X137160000Y-72172700D02*
X135210800Y-74121900D01*
X137160000Y-70491800D02*
X137160000Y-72172700D01*
X137890500Y-69761300D02*
X137160000Y-70491800D01*
X141019200Y-69761300D02*
X137890500Y-69761300D01*
X144181300Y-72923400D02*
X141019200Y-69761300D01*
X149642600Y-72923400D02*
X144181300Y-72923400D01*
X152799800Y-69766200D02*
X149642600Y-72923400D01*
X167566300Y-69766200D02*
X152799800Y-69766200D01*
X170299600Y-67032900D02*
X167566300Y-69766200D01*
X186161400Y-67032900D02*
X170299600Y-67032900D01*
X186161400Y-67032800D02*
X186161400Y-67032900D01*
X164775000Y-97746700D02*
X164775000Y-98700000D01*
X213995000Y-59670000D02*
X213995000Y-59157300D01*
X187325000Y-59670000D02*
X187325000Y-58644700D01*
X188541300Y-57428400D02*
X187325000Y-58644700D01*
X194047900Y-57428400D02*
X188541300Y-57428400D01*
X195085700Y-56390600D02*
X194047900Y-57428400D01*
X211342100Y-56390600D02*
X195085700Y-56390600D01*
X213995000Y-59043500D02*
X211342100Y-56390600D01*
X213995000Y-59157300D02*
X213995000Y-59043500D01*
X186690000Y-60305000D02*
X187325000Y-59670000D01*
X186690000Y-60385100D02*
X186690000Y-60305000D01*
X213995000Y-81260000D02*
X213995000Y-80234700D01*
X133249400Y-80072600D02*
X133249400Y-80175600D01*
X132936500Y-79759700D02*
X133249400Y-80072600D01*
X132431400Y-79759700D02*
X132936500Y-79759700D01*
X132254900Y-79936200D02*
X132431400Y-79759700D01*
X131834800Y-79936200D02*
X132254900Y-79936200D01*
X131401300Y-79502700D02*
X131834800Y-79936200D01*
X212644100Y-78883800D02*
X213995000Y-80234700D01*
X193773600Y-78883800D02*
X212644100Y-78883800D01*
X190372100Y-82285300D02*
X193773600Y-78883800D01*
X188235200Y-82285300D02*
X190372100Y-82285300D01*
X187325000Y-81375100D02*
X188235200Y-82285300D01*
X187325000Y-81260000D02*
X187325000Y-81375100D01*
X185352100Y-77223200D02*
X185764600Y-76810700D01*
X185352100Y-77769800D02*
X185352100Y-77223200D01*
X172979000Y-77769800D02*
X172076700Y-78672100D01*
X185352100Y-77769800D02*
X172979000Y-77769800D01*
X187325000Y-79742700D02*
X185352100Y-77769800D01*
X187325000Y-81260000D02*
X187325000Y-79742700D01*
X150504600Y-83460300D02*
X146651700Y-83460300D01*
X186055000Y-59670000D02*
X186055000Y-60695300D01*
X212725000Y-59670000D02*
X212725000Y-58644700D01*
X164125000Y-98700000D02*
X164125000Y-97874700D01*
X212725000Y-81260000D02*
X212725000Y-80234700D01*
X186055000Y-81772600D02*
X186055000Y-82285300D01*
X186055000Y-81260000D02*
X186055000Y-81772600D01*
X186055000Y-81260000D02*
X186055000Y-80234700D01*
X185857600Y-80234700D02*
X185761700Y-80138800D01*
X186055000Y-80234700D02*
X185857600Y-80234700D01*
X164125000Y-97874700D02*
X164125000Y-96929700D01*
X163095200Y-95899900D02*
X149421200Y-95899900D01*
X164125000Y-96929700D02*
X163095200Y-95899900D01*
X186076400Y-60716700D02*
X186055000Y-60695300D01*
X186076400Y-60867800D02*
X186076400Y-60716700D01*
X212725000Y-58516600D02*
X212725000Y-58644700D01*
X211049300Y-56840900D02*
X212725000Y-58516600D01*
X195272300Y-56840900D02*
X211049300Y-56840900D01*
X194234500Y-57878700D02*
X195272300Y-56840900D01*
X188959000Y-57878700D02*
X194234500Y-57878700D01*
X187960000Y-58877700D02*
X188959000Y-57878700D01*
X187960000Y-60435900D02*
X187960000Y-58877700D01*
X187485500Y-60910400D02*
X187960000Y-60435900D01*
X186119000Y-60910400D02*
X187485500Y-60910400D01*
X186076400Y-60867800D02*
X186119000Y-60910400D01*
X131638000Y-80446600D02*
X131047700Y-79856300D01*
X132487400Y-80446600D02*
X131638000Y-80446600D01*
X132649000Y-80285000D02*
X132487400Y-80446600D01*
X211824400Y-79334100D02*
X212725000Y-80234700D01*
X204328200Y-79334100D02*
X211824400Y-79334100D01*
X203200000Y-80462300D02*
X204328200Y-79334100D01*
X203200000Y-82055500D02*
X203200000Y-80462300D01*
X202069600Y-83185900D02*
X203200000Y-82055500D01*
X186955600Y-83185900D02*
X202069600Y-83185900D01*
X186055000Y-82285300D02*
X186955600Y-83185900D01*
X164537600Y-96517100D02*
X164125000Y-96929700D01*
X176567900Y-96517100D02*
X164537600Y-96517100D01*
X176631300Y-96580500D02*
X176567900Y-96517100D01*
X211455000Y-59670000D02*
X211455000Y-59157300D01*
X184785000Y-59670000D02*
X184785000Y-60695300D01*
X211455000Y-81260000D02*
X211455000Y-82285300D01*
X131277700Y-80793400D02*
X131277800Y-80793300D01*
X131277700Y-80852400D02*
X131277700Y-80793400D01*
X131301700Y-80876400D02*
X131277700Y-80852400D01*
X130694200Y-80209800D02*
X131277800Y-80793300D01*
X185208500Y-61118800D02*
X184785000Y-60695300D01*
X185267300Y-61118800D02*
X185208500Y-61118800D01*
X184785000Y-81260000D02*
X184785000Y-80234700D01*
X184785000Y-80234700D02*
X184122900Y-79572500D01*
X184562900Y-79132500D02*
X184122900Y-79572500D01*
X207846100Y-85894200D02*
X211455000Y-82285300D01*
X179984700Y-85894200D02*
X207846100Y-85894200D01*
X176587800Y-82497300D02*
X179984700Y-85894200D01*
X184122800Y-79572600D02*
X184122900Y-79572500D01*
X183925700Y-79572600D02*
X184122800Y-79572600D01*
X183505300Y-79152200D02*
X183925700Y-79572600D01*
X182597800Y-79152200D02*
X183505300Y-79152200D01*
X182121500Y-78675900D02*
X182597800Y-79152200D01*
X177376200Y-78675900D02*
X182121500Y-78675900D01*
X176587800Y-79464300D02*
X177376200Y-78675900D01*
X176587800Y-82497300D02*
X176587800Y-79464300D01*
X162715500Y-96769200D02*
X162734000Y-96750700D01*
X163475000Y-97528800D02*
X162715500Y-96769200D01*
X163475000Y-98700000D02*
X163475000Y-97528800D01*
X162589000Y-96642800D02*
X150263000Y-96642800D01*
X162715500Y-96769200D02*
X162589000Y-96642800D01*
X175181700Y-82497300D02*
X168342900Y-89336100D01*
X176587800Y-82497300D02*
X175181700Y-82497300D01*
X211455000Y-58520400D02*
X211455000Y-59157300D01*
X210676100Y-57741500D02*
X211455000Y-58520400D01*
X195709700Y-57741500D02*
X210676100Y-57741500D01*
X194496400Y-58954800D02*
X195709700Y-57741500D01*
X190977900Y-58954800D02*
X194496400Y-58954800D01*
X188486400Y-61446300D02*
X190977900Y-58954800D01*
X185912000Y-61446300D02*
X188486400Y-61446300D01*
X185584500Y-61118800D02*
X185912000Y-61446300D01*
X185267300Y-61118800D02*
X185584500Y-61118800D01*
X210185000Y-81260000D02*
X210185000Y-80234700D01*
X183515000Y-81260000D02*
X183515000Y-82285300D01*
X210185000Y-59670000D02*
X210185000Y-58644700D01*
X183923100Y-82693400D02*
X183515000Y-82285300D01*
X183923100Y-83594200D02*
X183923100Y-82693400D01*
X204668600Y-58644700D02*
X210185000Y-58644700D01*
X204468000Y-58845300D02*
X204668600Y-58644700D01*
X204468000Y-60476800D02*
X204468000Y-58845300D01*
X202855600Y-62089200D02*
X204468000Y-60476800D01*
X200761000Y-62089200D02*
X202855600Y-62089200D01*
X200421100Y-62429100D02*
X200761000Y-62089200D01*
X192385900Y-62429100D02*
X200421100Y-62429100D01*
X192303700Y-62346900D02*
X192385900Y-62429100D01*
X185022300Y-62346900D02*
X192303700Y-62346900D01*
X184973500Y-62298100D02*
X185022300Y-62346900D01*
X209734700Y-79784400D02*
X210185000Y-80234700D01*
X205185700Y-79784400D02*
X209734700Y-79784400D01*
X204470000Y-80500100D02*
X205185700Y-79784400D01*
X204470000Y-82358100D02*
X204470000Y-80500100D01*
X202741600Y-84086500D02*
X204470000Y-82358100D01*
X184415400Y-84086500D02*
X202741600Y-84086500D01*
X183923100Y-83594200D02*
X184415400Y-84086500D01*
X183515000Y-60839600D02*
X184973500Y-62298100D01*
X183515000Y-59670000D02*
X183515000Y-60839600D01*
X130776300Y-80999100D02*
X130340600Y-80563400D01*
X130776300Y-81099500D02*
X130776300Y-80999100D01*
X131090800Y-81414000D02*
X130776300Y-81099500D01*
X131551400Y-81414000D02*
X131090800Y-81414000D01*
X132068400Y-80897000D02*
X131551400Y-81414000D01*
X133070700Y-80897000D02*
X132068400Y-80897000D01*
X133175600Y-80792100D02*
X133070700Y-80897000D01*
X150414800Y-97643700D02*
X150203300Y-97432200D01*
X161620500Y-97643700D02*
X150414800Y-97643700D01*
X162014600Y-97249600D02*
X161620500Y-97643700D01*
X162486500Y-97249600D02*
X162014600Y-97249600D01*
X162825000Y-97588100D02*
X162486500Y-97249600D01*
X162825000Y-98700000D02*
X162825000Y-97588100D01*
X162916600Y-100641800D02*
X168655900Y-100641800D01*
X161620500Y-99345700D02*
X162916600Y-100641800D01*
X161620500Y-97643700D02*
X161620500Y-99345700D01*
X216630000Y-100330000D02*
X216630000Y-101505300D01*
X186690000Y-100670400D02*
X187815400Y-100670400D01*
X190644600Y-100670400D02*
X187815400Y-100670400D01*
X194454600Y-104480400D02*
X190644600Y-100670400D01*
X195580000Y-104480400D02*
X194454600Y-104480400D01*
X207772000Y-106680000D02*
X206430700Y-106680000D01*
X201691200Y-100330000D02*
X201691200Y-101254700D01*
X206430700Y-106680000D02*
X206430700Y-103717500D01*
X216579500Y-101555800D02*
X216630000Y-101505300D01*
X208592400Y-101555800D02*
X216579500Y-101555800D01*
X206430700Y-103717500D02*
X208592400Y-101555800D01*
X195580000Y-104480400D02*
X196705400Y-104480400D01*
X201691200Y-102486100D02*
X201691200Y-101254700D01*
X202922600Y-103717500D02*
X201691200Y-102486100D01*
X206430700Y-103717500D02*
X202922600Y-103717500D01*
X198699700Y-102486100D02*
X196705400Y-104480400D01*
X201691200Y-102486100D02*
X198699700Y-102486100D01*
X119920000Y-79593600D02*
X119920000Y-76650000D01*
X120721100Y-80394700D02*
X119920000Y-79593600D01*
X120721100Y-81620400D02*
X120721100Y-80394700D01*
X119920000Y-76232600D02*
X119920000Y-76650000D01*
X129987100Y-86503100D02*
X130570700Y-85919500D01*
X119920000Y-76232600D02*
X119920000Y-76200000D01*
X128617800Y-78621000D02*
X128617800Y-79664100D01*
X125071500Y-75074700D02*
X128617800Y-78621000D01*
X119920000Y-75074700D02*
X125071500Y-75074700D01*
X119920000Y-76200000D02*
X119920000Y-75074700D01*
X130040100Y-84904600D02*
X130040100Y-84666900D01*
X130345500Y-85210000D02*
X130040100Y-84904600D01*
X130345500Y-85398800D02*
X130345500Y-85210000D01*
X130414300Y-85467600D02*
X130345500Y-85398800D01*
X130414300Y-85763200D02*
X130414300Y-85467600D01*
X130570700Y-85919500D02*
X130414300Y-85763200D01*
X198755000Y-94000000D02*
X198755000Y-92974700D01*
X172085000Y-94512600D02*
X172085000Y-95025300D01*
X198313700Y-91351200D02*
X197948200Y-91716700D01*
X198755000Y-72410000D02*
X198755000Y-73435300D01*
X172880100Y-95820400D02*
X172085000Y-95025300D01*
X172924200Y-95820400D02*
X172880100Y-95820400D01*
X173158900Y-96055100D02*
X172924200Y-95820400D01*
X176999100Y-96055100D02*
X173158900Y-96055100D01*
X177348300Y-96404300D02*
X176999100Y-96055100D01*
X182272200Y-96404300D02*
X177348300Y-96404300D01*
X182447100Y-96229400D02*
X182272200Y-96404300D01*
X182684500Y-96229400D02*
X182447100Y-96229400D01*
X184150000Y-94763900D02*
X182684500Y-96229400D01*
X184150000Y-93244100D02*
X184150000Y-94763900D01*
X185832600Y-91561500D02*
X184150000Y-93244100D01*
X191684900Y-91561500D02*
X185832600Y-91561500D01*
X191754800Y-91631400D02*
X191684900Y-91561500D01*
X191893100Y-91631400D02*
X191754800Y-91631400D01*
X191978400Y-91716700D02*
X191893100Y-91631400D01*
X197948100Y-91716700D02*
X191978400Y-91716700D01*
X197948200Y-91716700D02*
X197948100Y-91716700D01*
X198533200Y-92301800D02*
X197948200Y-91716700D01*
X198533200Y-92594500D02*
X198533200Y-92301800D01*
X198584400Y-92645700D02*
X198533200Y-92594500D01*
X198584400Y-92778100D02*
X198584400Y-92645700D01*
X198755000Y-92948700D02*
X198584400Y-92778100D01*
X198755000Y-92974700D02*
X198755000Y-92948700D01*
X198755000Y-73526800D02*
X198762800Y-73534600D01*
X198755000Y-73435300D02*
X198755000Y-73526800D01*
X172310100Y-72635100D02*
X172085000Y-72410000D01*
X172720000Y-72635100D02*
X172310100Y-72635100D01*
X172085000Y-94512600D02*
X172085000Y-94000000D01*
X172085000Y-94000000D02*
X172085000Y-92974700D01*
X172215400Y-92974700D02*
X172321600Y-92868500D01*
X172085000Y-92974700D02*
X172215400Y-92974700D01*
X171634700Y-95475600D02*
X172085000Y-95025300D01*
X168135800Y-95475600D02*
X171634700Y-95475600D01*
X167010200Y-94350000D02*
X168135800Y-95475600D01*
X154984700Y-94350000D02*
X167010200Y-94350000D01*
X154622900Y-93988200D02*
X154984700Y-94350000D01*
X142351200Y-93988200D02*
X154622900Y-93988200D01*
X137694500Y-89331500D02*
X142351200Y-93988200D01*
X170815000Y-61096300D02*
X170815000Y-59670000D01*
X197485000Y-59670000D02*
X197485000Y-58644700D01*
X194608000Y-59480100D02*
X191931700Y-59480100D01*
X195443400Y-58644700D02*
X194608000Y-59480100D01*
X197485000Y-58644700D02*
X195443400Y-58644700D01*
X170815000Y-81260000D02*
X170815000Y-80234700D01*
X197485000Y-81260000D02*
X197485000Y-82285300D01*
X166413600Y-93899700D02*
X166504200Y-93809100D01*
X155171300Y-93899700D02*
X166413600Y-93899700D01*
X154808900Y-93537300D02*
X155171300Y-93899700D01*
X142607500Y-93537300D02*
X154808900Y-93537300D01*
X138048100Y-88977900D02*
X142607500Y-93537300D01*
X170887800Y-80161900D02*
X170887800Y-80145700D01*
X170815000Y-80234700D02*
X170887800Y-80161900D01*
X171596500Y-79437000D02*
X170887800Y-80145700D01*
X175513100Y-79437000D02*
X171596500Y-79437000D01*
X176729900Y-78220200D02*
X175513100Y-79437000D01*
X184696700Y-78220200D02*
X176729900Y-78220200D01*
X186674000Y-80197500D02*
X184696700Y-78220200D01*
X186674000Y-82060100D02*
X186674000Y-80197500D01*
X187349500Y-82735600D02*
X186674000Y-82060100D01*
X197034700Y-82735600D02*
X187349500Y-82735600D01*
X197485000Y-82285300D02*
X197034700Y-82735600D01*
X196773900Y-73121100D02*
X197485000Y-72410000D01*
X196773900Y-73386200D02*
X196773900Y-73121100D01*
X170815000Y-72410000D02*
X170815000Y-71384700D01*
X197485000Y-94000000D02*
X197485000Y-92974700D01*
X170815000Y-94512600D02*
X170815000Y-95025300D01*
X170815000Y-94512600D02*
X170815000Y-94000000D01*
X170548500Y-72676500D02*
X170815000Y-72410000D01*
X170186000Y-72676500D02*
X170548500Y-72676500D01*
X170815000Y-94000000D02*
X170815000Y-92974700D01*
X168547700Y-95025300D02*
X170815000Y-95025300D01*
X166803800Y-93281400D02*
X168547700Y-95025300D01*
X166244200Y-93281400D02*
X166803800Y-93281400D01*
X166076200Y-93449400D02*
X166244200Y-93281400D01*
X155357900Y-93449400D02*
X166076200Y-93449400D01*
X154910100Y-93001600D02*
X155357900Y-93449400D01*
X142778800Y-93001600D02*
X154910100Y-93001600D01*
X138401600Y-88624400D02*
X142778800Y-93001600D01*
X197470400Y-92974700D02*
X197485000Y-92974700D01*
X197387000Y-92891300D02*
X197470400Y-92974700D01*
X170636400Y-92974700D02*
X169687300Y-92025600D01*
X170815000Y-92974700D02*
X170636400Y-92974700D01*
X187339900Y-69104000D02*
X192438300Y-69104000D01*
X187128400Y-68892500D02*
X187339900Y-69104000D01*
X186693100Y-68892500D02*
X187128400Y-68892500D01*
X186562400Y-69023200D02*
X186693100Y-68892500D01*
X176953200Y-69023200D02*
X186562400Y-69023200D01*
X175042000Y-70934400D02*
X176953200Y-69023200D01*
X174078600Y-70934400D02*
X175042000Y-70934400D01*
X173628300Y-71384700D02*
X174078600Y-70934400D01*
X170815000Y-71384700D02*
X173628300Y-71384700D01*
X169545000Y-94000000D02*
X169545000Y-92974700D01*
X169545000Y-72410000D02*
X169545000Y-71384700D01*
X169278500Y-72676500D02*
X169545000Y-72410000D01*
X168912500Y-72676500D02*
X169278500Y-72676500D01*
X196035600Y-73435300D02*
X196215000Y-73435300D01*
X195930900Y-73540000D02*
X196035600Y-73435300D01*
X196215000Y-72410000D02*
X196215000Y-73435300D01*
X196215000Y-94000000D02*
X196215000Y-92974700D01*
X138755200Y-88270800D02*
X139338800Y-88854300D01*
X168994500Y-92974700D02*
X168547700Y-92527900D01*
X169545000Y-92974700D02*
X168994500Y-92974700D01*
X164874900Y-92527900D02*
X168547700Y-92527900D01*
X164851700Y-92551100D02*
X164874900Y-92527900D01*
X162926500Y-92551100D02*
X164851700Y-92551100D01*
X162490800Y-92986800D02*
X162926500Y-92551100D01*
X155532200Y-92986800D02*
X162490800Y-92986800D01*
X155096500Y-92551100D02*
X155532200Y-92986800D01*
X146261600Y-92551100D02*
X155096500Y-92551100D01*
X146131500Y-92421000D02*
X146261600Y-92551100D01*
X143239300Y-92421000D02*
X146131500Y-92421000D01*
X142868500Y-92050200D02*
X143239300Y-92421000D01*
X142549800Y-92050200D02*
X142868500Y-92050200D01*
X139353900Y-88854300D02*
X142549800Y-92050200D01*
X139338800Y-88854300D02*
X139353900Y-88854300D01*
X196109000Y-92868700D02*
X196215000Y-92974700D01*
X190774400Y-68442200D02*
X190878000Y-68545800D01*
X186506500Y-68442200D02*
X190774400Y-68442200D01*
X186375800Y-68572900D02*
X186506500Y-68442200D01*
X176766600Y-68572900D02*
X186375800Y-68572900D01*
X174855400Y-70484100D02*
X176766600Y-68572900D01*
X173892000Y-70484100D02*
X174855400Y-70484100D01*
X173526700Y-70849400D02*
X173892000Y-70484100D01*
X170080300Y-70849400D02*
X173526700Y-70849400D01*
X169545000Y-71384700D02*
X170080300Y-70849400D01*
X198755000Y-59670000D02*
X198755000Y-60695300D01*
X172085000Y-59670000D02*
X172085000Y-58644700D01*
X198755000Y-81260000D02*
X198755000Y-80234700D01*
X198362600Y-60695300D02*
X197737200Y-61320700D01*
X198755000Y-60695300D02*
X198362600Y-60695300D01*
X198809200Y-80180500D02*
X199363200Y-80180500D01*
X198755000Y-80234700D02*
X198809200Y-80180500D01*
X189900700Y-61320700D02*
X197737200Y-61320700D01*
X189324800Y-61896600D02*
X189900700Y-61320700D01*
X185725400Y-61896600D02*
X189324800Y-61896600D01*
X185596900Y-61768100D02*
X185725400Y-61896600D01*
X185141400Y-61768100D02*
X185596900Y-61768100D01*
X184154000Y-60780700D02*
X185141400Y-61768100D01*
X184154000Y-58914500D02*
X184154000Y-60780700D01*
X182813200Y-57573700D02*
X184154000Y-58914500D01*
X172767400Y-57573700D02*
X182813200Y-57573700D01*
X172085000Y-58256100D02*
X172767400Y-57573700D01*
X172085000Y-58644700D02*
X172085000Y-58256100D01*
X172085000Y-81260000D02*
X172085000Y-80234700D01*
X172085000Y-80234700D02*
X171583200Y-80234700D01*
X170024000Y-68582300D02*
X171463400Y-68582300D01*
X167885000Y-70721300D02*
X170024000Y-68582300D01*
X158265000Y-70721300D02*
X167885000Y-70721300D01*
X152259800Y-76726500D02*
X158265000Y-70721300D01*
X146478400Y-76726500D02*
X152259800Y-76726500D01*
X146361800Y-76843100D02*
X146478400Y-76726500D01*
X142270200Y-76843100D02*
X146361800Y-76843100D01*
X142111500Y-77001800D02*
X142270200Y-76843100D01*
X141609600Y-77001800D02*
X142111500Y-77001800D01*
X139108700Y-79502700D02*
X141609600Y-77001800D01*
X172085000Y-59670000D02*
X172085000Y-60695300D01*
X172580400Y-60695300D02*
X172085000Y-60695300D01*
X138755200Y-79149200D02*
X139338800Y-78565600D01*
X155800000Y-63765000D02*
X154585000Y-63765000D01*
X141368500Y-76535900D02*
X139338800Y-78565600D01*
X141368500Y-76258900D02*
X141368500Y-76535900D01*
X141759900Y-75867500D02*
X141368500Y-76258900D01*
X142036900Y-75867500D02*
X141759900Y-75867500D01*
X143174000Y-74730400D02*
X142036900Y-75867500D01*
X143244100Y-74730400D02*
X143174000Y-74730400D01*
X144574200Y-73400300D02*
X143244100Y-74730400D01*
X149831800Y-73400300D02*
X144574200Y-73400300D01*
X150433800Y-72798300D02*
X149831800Y-73400300D01*
X150516300Y-72798300D02*
X150433800Y-72798300D01*
X150117300Y-64415000D02*
X148663700Y-65868600D01*
X155800000Y-64415000D02*
X150117300Y-64415000D01*
X138401600Y-78795600D02*
X138985300Y-78211900D01*
X140918200Y-76279000D02*
X138985300Y-78211900D01*
X140918200Y-76072200D02*
X140918200Y-76279000D01*
X143644200Y-73346200D02*
X140918200Y-76072200D01*
X143644200Y-73216300D02*
X143644200Y-73346200D01*
X143644300Y-73216300D02*
X143644200Y-73216300D01*
X147638000Y-66396500D02*
X147506800Y-66265300D01*
X150762600Y-66396500D02*
X147638000Y-66396500D01*
X152094100Y-65065000D02*
X150762600Y-66396500D01*
X155800000Y-65065000D02*
X152094100Y-65065000D01*
X140467900Y-76022300D02*
X138048100Y-78442100D01*
X140467900Y-75751000D02*
X140467900Y-76022300D01*
X142805300Y-73413600D02*
X140467900Y-75751000D01*
X156130700Y-88404600D02*
X154245700Y-88404600D01*
X160700000Y-83835300D02*
X156130700Y-88404600D01*
X147350000Y-96110000D02*
X147350000Y-95059700D01*
X160700000Y-82910000D02*
X160700000Y-83835300D01*
X151940800Y-95059700D02*
X152022000Y-94978500D01*
X147350000Y-95059700D02*
X151940800Y-95059700D01*
X184912000Y-131702800D02*
X184912000Y-135890000D01*
X185268900Y-131345900D02*
X184912000Y-131702800D01*
X125730000Y-132262700D02*
X125730000Y-115455700D01*
X125222000Y-132770700D02*
X125730000Y-132262700D01*
X125222000Y-135890000D02*
X125222000Y-132770700D01*
X155800000Y-65715000D02*
X156875300Y-65715000D01*
X156929500Y-66419200D02*
X156875300Y-66365000D01*
X157314900Y-66419200D02*
X156929500Y-66419200D01*
X155800000Y-66365000D02*
X156875300Y-66365000D01*
X156875300Y-65715000D02*
X156875300Y-66365000D01*
X159400000Y-82910000D02*
X159400000Y-81984700D01*
X158387900Y-81984700D02*
X158284600Y-81881400D01*
X159400000Y-81984700D02*
X158387900Y-81984700D01*
X206375000Y-59670000D02*
X206375000Y-60695300D01*
X179705000Y-59670000D02*
X179705000Y-60695300D01*
X179621000Y-60695300D02*
X179538500Y-60777800D01*
X179705000Y-60695300D02*
X179621000Y-60695300D01*
X179705000Y-81260000D02*
X179705000Y-82285300D01*
X206375000Y-81260000D02*
X206375000Y-82285300D01*
X180529200Y-83109500D02*
X179705000Y-82285300D01*
X181101500Y-83109500D02*
X180529200Y-83109500D01*
X146050000Y-96110000D02*
X146050000Y-97160300D01*
X203632100Y-63438200D02*
X206375000Y-60695300D01*
X184079900Y-63438200D02*
X203632100Y-63438200D01*
X183985100Y-63343400D02*
X184079900Y-63438200D01*
X162190700Y-101167200D02*
X167002500Y-101167200D01*
X159567300Y-98543800D02*
X162190700Y-101167200D01*
X147433500Y-98543800D02*
X159567300Y-98543800D01*
X146050000Y-97160300D02*
X147433500Y-98543800D01*
X206375000Y-82444500D02*
X206375000Y-82285300D01*
X203382100Y-85437400D02*
X206375000Y-82444500D01*
X183429400Y-85437400D02*
X203382100Y-85437400D01*
X181101500Y-83109500D02*
X183429400Y-85437400D01*
M02*
