G04 #@! TF.FileFunction,Copper,L2,Bot,Signal*
%FSLAX46Y46*%
G04 Gerber Fmt 4.6, Leading zero omitted, Abs format (unit mm)*
G04 Created by KiCad (PCBNEW 4.0.2+dfsg1-stable) date Thu 10 Jan 2019 07:06:35 CET*
%MOMM*%
G01*
G04 APERTURE LIST*
%ADD10C,0.100000*%
%ADD11R,1.930400X5.588000*%
%ADD12R,2.032000X1.727200*%
%ADD13O,2.032000X1.727200*%
%ADD14C,1.524000*%
%ADD15R,1.524000X1.524000*%
%ADD16R,1.727200X2.032000*%
%ADD17O,1.727200X2.032000*%
%ADD18C,4.064000*%
%ADD19R,2.235200X2.235200*%
%ADD20R,2.032000X2.032000*%
%ADD21O,2.032000X2.032000*%
%ADD22C,0.400000*%
%ADD23C,0.250000*%
%ADD24C,0.254000*%
G04 APERTURE END LIST*
D10*
D11*
X184912000Y-135890000D03*
X182372000Y-135890000D03*
X179832000Y-135890000D03*
X177292000Y-135890000D03*
X174752000Y-135890000D03*
X172212000Y-135890000D03*
X169672000Y-135890000D03*
X167132000Y-135890000D03*
X164592000Y-135890000D03*
X162052000Y-135890000D03*
X159512000Y-135890000D03*
X156972000Y-135890000D03*
X154432000Y-135890000D03*
X151892000Y-135890000D03*
X149352000Y-135890000D03*
D12*
X96520000Y-66040000D03*
D13*
X96520000Y-63500000D03*
X96520000Y-60960000D03*
X96520000Y-58420000D03*
D14*
X110490000Y-110604300D03*
X110490000Y-115455700D03*
X113030000Y-110604300D03*
X113030000Y-115455700D03*
X115570000Y-110604300D03*
X115570000Y-115455700D03*
X118110000Y-110604300D03*
X118110000Y-115455700D03*
X120650000Y-110604300D03*
X120650000Y-115455700D03*
X123190000Y-110604300D03*
X123190000Y-115455700D03*
D15*
X125730000Y-110604300D03*
D14*
X125730000Y-115455700D03*
D11*
X125222000Y-135890000D03*
X122682000Y-135890000D03*
X120142000Y-135890000D03*
X117602000Y-135890000D03*
X115062000Y-135890000D03*
X112522000Y-135890000D03*
X109982000Y-135890000D03*
D12*
X109220000Y-64770000D03*
D13*
X109220000Y-62230000D03*
X109220000Y-59690000D03*
D16*
X133350000Y-71120000D03*
D17*
X135890000Y-71120000D03*
X138430000Y-71120000D03*
D18*
X88900000Y-115570000D03*
X88900000Y-53340000D03*
X217170000Y-53340000D03*
X217170000Y-115570000D03*
D16*
X143510000Y-62230000D03*
D17*
X146050000Y-62230000D03*
X148590000Y-62230000D03*
X151130000Y-62230000D03*
D14*
X149860000Y-110604300D03*
X149860000Y-115455700D03*
X152400000Y-110604300D03*
X152400000Y-115455700D03*
X154940000Y-110604300D03*
X154940000Y-115455700D03*
X157480000Y-110604300D03*
X157480000Y-115455700D03*
X160020000Y-110604300D03*
X160020000Y-115455700D03*
X162560000Y-110604300D03*
X162560000Y-115455700D03*
X165100000Y-110604300D03*
X165100000Y-115455700D03*
X167640000Y-110604300D03*
X167640000Y-115455700D03*
X170180000Y-110604300D03*
X170180000Y-115455700D03*
X172720000Y-110604300D03*
X172720000Y-115455700D03*
X175260000Y-110604300D03*
X175260000Y-115455700D03*
X177800000Y-110604300D03*
X177800000Y-115455700D03*
X180340000Y-110604300D03*
X180340000Y-115455700D03*
X182880000Y-110604300D03*
X182880000Y-115455700D03*
D15*
X185420000Y-110604300D03*
D14*
X185420000Y-115455700D03*
D19*
X91440000Y-81280000D03*
D20*
X146050000Y-71120000D03*
D21*
X148590000Y-71120000D03*
D22*
X102415000Y-102576000D03*
X99489500Y-102494600D03*
X166040800Y-105763800D03*
X162721200Y-107829200D03*
X149315100Y-107829200D03*
X145297900Y-111846400D03*
X182756800Y-132385900D03*
X184587000Y-104300000D03*
X190504800Y-96464200D03*
X190504800Y-76628900D03*
X111623400Y-105651300D03*
X149239600Y-84270000D03*
X162266900Y-97776100D03*
X197862200Y-76200000D03*
X160899000Y-88706400D03*
X193830200Y-56903100D03*
X196320700Y-60789300D03*
X151539300Y-81088500D03*
X151539300Y-67305200D03*
X197862200Y-79426800D03*
X137992700Y-94500000D03*
X142550100Y-84900500D03*
X97637300Y-98350900D03*
X94342900Y-96503600D03*
X137887500Y-99672800D03*
X140145700Y-111893800D03*
X146267400Y-107370300D03*
X162005900Y-106757200D03*
X173876400Y-116598200D03*
X166392200Y-103596900D03*
X166625800Y-105424500D03*
X168112400Y-103587300D03*
X156659500Y-118298000D03*
X179832000Y-132658800D03*
X177292000Y-131943400D03*
X175115400Y-131527700D03*
X171574300Y-121940000D03*
X169312400Y-112273200D03*
X169672000Y-132686200D03*
X167060300Y-112327300D03*
X167132000Y-132666500D03*
X143311500Y-116934000D03*
X126605600Y-106988400D03*
X164592000Y-131943400D03*
X162052000Y-132019900D03*
X164443300Y-103545300D03*
X159512000Y-132667300D03*
X161602500Y-105611200D03*
X156611400Y-132346400D03*
X147495000Y-115597100D03*
X126405100Y-105404900D03*
X127233100Y-104656000D03*
X154432000Y-131943400D03*
X115149900Y-104533100D03*
X150932000Y-132673100D03*
X113432600Y-104003100D03*
X148675000Y-132673100D03*
X132647700Y-90767600D03*
X128303800Y-93108000D03*
X118900800Y-106627000D03*
X121318700Y-113646900D03*
X118332600Y-105622400D03*
X117705300Y-105622400D03*
X117105000Y-105622400D03*
X133238700Y-94201100D03*
X131262900Y-91868900D03*
X129424000Y-80201200D03*
X129540000Y-96600800D03*
X131877900Y-91343600D03*
X149164200Y-100954800D03*
X96108800Y-98809700D03*
X143210200Y-82367600D03*
X139787700Y-70452200D03*
X130431000Y-74187800D03*
X171405100Y-58561900D03*
X157974300Y-79754100D03*
X168029200Y-82285300D03*
X200660000Y-58890800D03*
X201164900Y-80147800D03*
X127684000Y-85916600D03*
X120055200Y-95121700D03*
X148082300Y-97242600D03*
X145858100Y-98607100D03*
X129147400Y-87257500D03*
X122419700Y-94092600D03*
X146328000Y-86816200D03*
X130672500Y-84413500D03*
X132750500Y-69020000D03*
X134139300Y-99135000D03*
X131006600Y-89749200D03*
X173460900Y-95529800D03*
X159301600Y-102335500D03*
X204327000Y-77185300D03*
X139875000Y-104773800D03*
X143888300Y-84388200D03*
X202774800Y-90021300D03*
X208221000Y-92974700D03*
X179176200Y-91436700D03*
X180759700Y-73511600D03*
X135249700Y-103177800D03*
X134034300Y-87944300D03*
X160522100Y-102865200D03*
X204612600Y-88973200D03*
X207736400Y-73515000D03*
X134977100Y-104773800D03*
X131417100Y-89279600D03*
X137868900Y-83366800D03*
X178631600Y-74695600D03*
X178640700Y-90875300D03*
X204697600Y-86829600D03*
X206719000Y-73515000D03*
X116724400Y-93660500D03*
X127991600Y-80218300D03*
X117096000Y-93116800D03*
X127934900Y-80922200D03*
X137627300Y-100413900D03*
X141659100Y-86883100D03*
X126882000Y-93567200D03*
X142616400Y-81711400D03*
X177378700Y-92146900D03*
X143576700Y-91895600D03*
X139132200Y-104773800D03*
X178169000Y-73515000D03*
X202983300Y-89402500D03*
X204772300Y-73516400D03*
X175041800Y-92331900D03*
X143031000Y-91074500D03*
X138428700Y-104773800D03*
X200193400Y-90470600D03*
X200579900Y-76466700D03*
X176833100Y-73767200D03*
X175512500Y-90929800D03*
X181200200Y-90174700D03*
X185225400Y-92931800D03*
X175077700Y-98276900D03*
X186458800Y-92601000D03*
X186516900Y-74854000D03*
X171283300Y-98907600D03*
X150050900Y-90466300D03*
X188487200Y-86686200D03*
X187966600Y-93056600D03*
X186693200Y-72635100D03*
X208309700Y-80323900D03*
X200896300Y-64713500D03*
X181735400Y-79677600D03*
X177373200Y-65238800D03*
X202588700Y-73515000D03*
X139971400Y-82821700D03*
X137001500Y-104773800D03*
X200935000Y-69479200D03*
X175824800Y-92298800D03*
X175195900Y-74174000D03*
X202030600Y-93042700D03*
X174456800Y-88456600D03*
X201603000Y-87478200D03*
X174464200Y-92875700D03*
X143438500Y-88688100D03*
X201715100Y-73489400D03*
X139446100Y-82316500D03*
X174290000Y-73515000D03*
X138338100Y-103198400D03*
X201218000Y-92889200D03*
X194457000Y-61846600D03*
X198462600Y-79477700D03*
X176020100Y-80155200D03*
X176077300Y-60778800D03*
X173240900Y-70324100D03*
X123946700Y-95207000D03*
X137468200Y-82311600D03*
X177418100Y-79469400D03*
X175124400Y-68911800D03*
X177165000Y-60798100D03*
X136249300Y-81688700D03*
X121458200Y-96414300D03*
X117612900Y-92045000D03*
X142123800Y-81206700D03*
X137182900Y-100948100D03*
X140573000Y-82836000D03*
X116242100Y-94146500D03*
X129660500Y-77845600D03*
X172985000Y-58099000D03*
X198884400Y-61227500D03*
X199963600Y-80154200D03*
X115654100Y-78820000D03*
X109575000Y-96511200D03*
X168364700Y-83102600D03*
X161237700Y-94900300D03*
X148876200Y-94518800D03*
X134596600Y-78455400D03*
X120677400Y-96452000D03*
X183513500Y-63844200D03*
X133712000Y-78571900D03*
X181210400Y-82459500D03*
X182792900Y-67577700D03*
X141972900Y-76397400D03*
X131410700Y-76683700D03*
X119843500Y-98348200D03*
X181408900Y-80201400D03*
X182267400Y-66493900D03*
X133959400Y-72834700D03*
X182806300Y-62790000D03*
X132758100Y-81485800D03*
X172911700Y-73518100D03*
X173173000Y-92877400D03*
X121226200Y-95084900D03*
X196886400Y-74911200D03*
X186910700Y-69417800D03*
X199323100Y-92974700D03*
X141058900Y-79794000D03*
X187961900Y-80747300D03*
X182899100Y-97051200D03*
X188398300Y-60791400D03*
X186161400Y-67032800D03*
X130888600Y-78444100D03*
X135210800Y-74121900D03*
X164775000Y-97746700D03*
X150504600Y-83460300D03*
X146651700Y-83460300D03*
X133249400Y-80175600D03*
X185764600Y-76810700D03*
X186690000Y-60385100D03*
X172076700Y-78672100D03*
X149421200Y-95899900D03*
X132649000Y-80285000D03*
X185761700Y-80138800D03*
X176631300Y-96580500D03*
X186076400Y-60867800D03*
X150263000Y-96642800D03*
X131301700Y-80876400D03*
X168342900Y-89336100D03*
X162734000Y-96750700D03*
X185267300Y-61118800D03*
X184562900Y-79132500D03*
X183923100Y-83594200D03*
X184973500Y-62298100D03*
X168655900Y-100641800D03*
X150203300Y-97432200D03*
X133175600Y-80792100D03*
X128617800Y-79664100D03*
X130040100Y-84666900D03*
X198313700Y-91351200D03*
X198762800Y-73534600D03*
X172321600Y-92868500D03*
X172720000Y-72635100D03*
X170815000Y-61096300D03*
X191931700Y-59480100D03*
X170887800Y-80145700D03*
X166504200Y-93809100D03*
X196773900Y-73386200D03*
X192438300Y-69104000D03*
X197387000Y-92891300D03*
X169687300Y-92025600D03*
X170186000Y-72676500D03*
X190878000Y-68545800D03*
X168547700Y-92527900D03*
X168912500Y-72676500D03*
X195930900Y-73540000D03*
X196109000Y-92868700D03*
X197737200Y-61320700D03*
X199363200Y-80180500D03*
X171463400Y-68582300D03*
X171583200Y-80234700D03*
X172580400Y-60695300D03*
X154585000Y-63765000D03*
X150516300Y-72798300D03*
X148663700Y-65868600D03*
X143644300Y-73216300D03*
X147506800Y-66265300D03*
X142805300Y-73413600D03*
X154245700Y-88404600D03*
X152022000Y-94978500D03*
X185268900Y-131345900D03*
X158284600Y-81881400D03*
X157314900Y-66419200D03*
X179538500Y-60777800D03*
X183985100Y-63343400D03*
X181101500Y-83109500D03*
X167002500Y-101167200D03*
D23*
X164786600Y-105763800D02*
X166040800Y-105763800D01*
X162721200Y-107829200D02*
X164786600Y-105763800D01*
X145297900Y-111846400D02*
X149315100Y-107829200D01*
X99570900Y-102576000D02*
X99489500Y-102494600D01*
X102415000Y-102576000D02*
X99570900Y-102576000D01*
X138430000Y-71120000D02*
X139618900Y-71120000D01*
X146050000Y-62230000D02*
X144861100Y-62230000D01*
X109220000Y-64770000D02*
X109220000Y-65958900D01*
X96520000Y-66040000D02*
X97861300Y-66040000D01*
X109138900Y-66040000D02*
X109220000Y-65958900D01*
X97861300Y-66040000D02*
X109138900Y-66040000D01*
X144861100Y-66121800D02*
X144861100Y-62230000D01*
X139862900Y-71120000D02*
X144861100Y-66121800D01*
X139618900Y-71120000D02*
X139862900Y-71120000D01*
X184309300Y-104577700D02*
X184587000Y-104300000D01*
X184309300Y-114026400D02*
X184309300Y-104577700D01*
X182880000Y-115455700D02*
X184309300Y-114026400D01*
X190504800Y-98382200D02*
X190504800Y-96464200D01*
X184587000Y-104300000D02*
X190504800Y-98382200D01*
X182880000Y-132262700D02*
X182756800Y-132385900D01*
X182880000Y-115455700D02*
X182880000Y-132262700D01*
X190504800Y-96464200D02*
X190504800Y-76628900D01*
X149239600Y-73110900D02*
X149239600Y-84270000D01*
X148590000Y-72461300D02*
X149239600Y-73110900D01*
X148590000Y-71790600D02*
X148590000Y-72461300D01*
X148590000Y-71790600D02*
X148590000Y-71120000D01*
X149212200Y-64193500D02*
X148590000Y-63571300D01*
X149212200Y-69156500D02*
X149212200Y-64193500D01*
X148590000Y-69778700D02*
X149212200Y-69156500D01*
X148590000Y-71120000D02*
X148590000Y-69778700D01*
X148590000Y-62230000D02*
X148590000Y-63571300D01*
X110490000Y-113135300D02*
X110490000Y-115455700D01*
X111623400Y-112001900D02*
X110490000Y-113135300D01*
X111623400Y-105651300D02*
X111623400Y-112001900D01*
X196320700Y-59393600D02*
X196320700Y-60789300D01*
X193830200Y-56903100D02*
X196320700Y-59393600D01*
X160671900Y-96181100D02*
X160671900Y-88933500D01*
X162266900Y-97776100D02*
X160671900Y-96181100D01*
X160671900Y-88933500D02*
X160899000Y-88706400D01*
X151539300Y-67305200D02*
X151539300Y-81088500D01*
X152826900Y-81088500D02*
X151539300Y-81088500D01*
X160671900Y-88933500D02*
X152826900Y-81088500D01*
X198237400Y-75824800D02*
X197862200Y-76200000D01*
X198237400Y-62706000D02*
X198237400Y-75824800D01*
X196320700Y-60789300D02*
X198237400Y-62706000D01*
X197862200Y-76200000D02*
X197862200Y-79426800D01*
X95790000Y-96503600D02*
X97637300Y-98350900D01*
X94342900Y-96503600D02*
X95790000Y-96503600D01*
X137992700Y-89457900D02*
X137992700Y-94500000D01*
X142550100Y-84900500D02*
X137992700Y-89457900D01*
X137992700Y-99567600D02*
X137887500Y-99672800D01*
X137992700Y-94500000D02*
X137992700Y-99567600D01*
X181788500Y-132187200D02*
X182372000Y-132770700D01*
X181788500Y-111695800D02*
X181788500Y-132187200D01*
X182880000Y-110604300D02*
X181788500Y-111695800D01*
X182372000Y-135890000D02*
X182372000Y-132770700D01*
X179248500Y-135306500D02*
X179832000Y-135890000D01*
X179248500Y-110604300D02*
X179248500Y-135306500D01*
X179248500Y-110604300D02*
X180340000Y-110604300D01*
X179248400Y-110604300D02*
X179248500Y-110604300D01*
X179248400Y-110467900D02*
X179248400Y-110604300D01*
X171351000Y-102570500D02*
X179248400Y-110467900D01*
X165940900Y-102570500D02*
X171351000Y-102570500D01*
X165082400Y-103429000D02*
X165940900Y-102570500D01*
X165082400Y-103680700D02*
X165082400Y-103429000D01*
X162005900Y-106757200D02*
X165082400Y-103680700D01*
X144669200Y-107370300D02*
X146267400Y-107370300D01*
X140145700Y-111893800D02*
X144669200Y-107370300D01*
X176700600Y-132179300D02*
X177292000Y-132770700D01*
X176700600Y-111703700D02*
X176700600Y-132179300D01*
X177800000Y-110604300D02*
X176700600Y-111703700D01*
X177292000Y-135890000D02*
X177292000Y-132770700D01*
X174451200Y-132469900D02*
X174752000Y-132770700D01*
X174451200Y-116184700D02*
X174451200Y-132469900D01*
X174172600Y-115906100D02*
X174451200Y-116184700D01*
X174172600Y-111691700D02*
X174172600Y-115906100D01*
X175260000Y-110604300D02*
X174172600Y-111691700D01*
X174752000Y-135890000D02*
X174752000Y-132770700D01*
X172212000Y-135890000D02*
X172212000Y-132770700D01*
X173876400Y-131106300D02*
X172212000Y-132770700D01*
X173876400Y-116598200D02*
X173876400Y-131106300D01*
X169672000Y-134019000D02*
X169672000Y-135890000D01*
X171049000Y-132642000D02*
X169672000Y-134019000D01*
X171049000Y-121722400D02*
X171049000Y-132642000D01*
X171267500Y-121503900D02*
X171049000Y-121722400D01*
X171267500Y-111691800D02*
X171267500Y-121503900D01*
X170180000Y-110604300D02*
X171267500Y-111691800D01*
X167132000Y-134007600D02*
X167132000Y-135890000D01*
X168727400Y-132412200D02*
X167132000Y-134007600D01*
X168727400Y-111691700D02*
X168727400Y-132412200D01*
X167640000Y-110604300D02*
X168727400Y-111691700D01*
X167640000Y-104844700D02*
X166392200Y-103596900D01*
X167640000Y-110604300D02*
X167640000Y-104844700D01*
X166625800Y-109078500D02*
X166625800Y-105424500D01*
X165100000Y-110604300D02*
X166625800Y-109078500D01*
X164592000Y-135890000D02*
X164592000Y-132770700D01*
X166187700Y-131175000D02*
X164592000Y-132770700D01*
X166187700Y-111692000D02*
X166187700Y-131175000D01*
X165100000Y-110604300D02*
X166187700Y-111692000D01*
X163674400Y-131148300D02*
X162052000Y-132770700D01*
X163674400Y-111718700D02*
X163674400Y-131148300D01*
X162560000Y-110604300D02*
X163674400Y-111718700D01*
X162052000Y-135890000D02*
X162052000Y-132770700D01*
X167550400Y-103025300D02*
X168112400Y-103587300D01*
X166212500Y-103025300D02*
X167550400Y-103025300D01*
X165532700Y-103705100D02*
X166212500Y-103025300D01*
X165532700Y-103975600D02*
X165532700Y-103705100D01*
X162195900Y-107312400D02*
X165532700Y-103975600D01*
X162195900Y-110240200D02*
X162195900Y-107312400D01*
X162560000Y-110604300D02*
X162195900Y-110240200D01*
X159512000Y-133995900D02*
X159512000Y-135890000D01*
X161114900Y-132393000D02*
X159512000Y-133995900D01*
X161114900Y-111699200D02*
X161114900Y-132393000D01*
X160020000Y-110604300D02*
X161114900Y-111699200D01*
X156659500Y-130543200D02*
X154432000Y-132770700D01*
X156659500Y-118298000D02*
X156659500Y-130543200D01*
X154432000Y-135890000D02*
X154432000Y-132770700D01*
X109982000Y-135890000D02*
X109982000Y-132770700D01*
X156135500Y-111799800D02*
X154940000Y-110604300D01*
X156135500Y-117774000D02*
X156135500Y-111799800D01*
X156659500Y-118298000D02*
X156135500Y-117774000D01*
X109361600Y-111732700D02*
X110490000Y-110604300D01*
X109361600Y-132150300D02*
X109361600Y-111732700D01*
X109982000Y-132770700D02*
X109361600Y-132150300D01*
X150838300Y-105900600D02*
X150537300Y-106201600D01*
X150838300Y-93104600D02*
X150838300Y-105900600D01*
X149512000Y-91778300D02*
X150838300Y-93104600D01*
X149512000Y-89975600D02*
X149512000Y-91778300D01*
X149931400Y-89556200D02*
X149512000Y-89975600D01*
X149931400Y-61705900D02*
X149931400Y-89556200D01*
X149087400Y-60861900D02*
X149931400Y-61705900D01*
X144878100Y-60861900D02*
X149087400Y-60861900D01*
X143510000Y-62230000D02*
X144878100Y-60861900D01*
X131105100Y-106201600D02*
X150537300Y-106201600D01*
X128374400Y-103470900D02*
X131105100Y-106201600D01*
X113026200Y-103470900D02*
X128374400Y-103470900D01*
X110490000Y-106007100D02*
X113026200Y-103470900D01*
X110490000Y-110604300D02*
X110490000Y-106007100D01*
X150537300Y-106201600D02*
X154940000Y-110604300D01*
X150947500Y-131175200D02*
X149352000Y-132770700D01*
X150947500Y-113282500D02*
X150947500Y-131175200D01*
X149860000Y-112195000D02*
X150947500Y-113282500D01*
X149860000Y-110604300D02*
X149860000Y-112195000D01*
X149352000Y-135890000D02*
X149352000Y-132770700D01*
X180340000Y-132150800D02*
X179832000Y-132658800D01*
X180340000Y-115455700D02*
X180340000Y-132150800D01*
X177292000Y-115963700D02*
X177292000Y-131943400D01*
X177800000Y-115455700D02*
X177292000Y-115963700D01*
X175260000Y-131383100D02*
X175115400Y-131527700D01*
X175260000Y-115455700D02*
X175260000Y-131383100D01*
X172720000Y-120794300D02*
X171574300Y-121940000D01*
X172720000Y-115455700D02*
X172720000Y-120794300D01*
X169312400Y-114588100D02*
X169312400Y-112273200D01*
X170180000Y-115455700D02*
X169312400Y-114588100D01*
X169672000Y-115963700D02*
X169672000Y-132686200D01*
X170180000Y-115455700D02*
X169672000Y-115963700D01*
X167060300Y-114876000D02*
X167060300Y-112327300D01*
X167640000Y-115455700D02*
X167060300Y-114876000D01*
X167640000Y-132158500D02*
X167640000Y-115455700D01*
X167132000Y-132666500D02*
X167640000Y-132158500D01*
X136551200Y-116934000D02*
X143311500Y-116934000D01*
X126605600Y-106988400D02*
X136551200Y-116934000D01*
X164592000Y-115963700D02*
X164592000Y-131943400D01*
X165100000Y-115455700D02*
X164592000Y-115963700D01*
X162560000Y-131511900D02*
X162560000Y-115455700D01*
X162052000Y-132019900D02*
X162560000Y-131511900D01*
X161448300Y-106540300D02*
X164443300Y-103545300D01*
X161448300Y-111395700D02*
X161448300Y-106540300D01*
X162560000Y-112507400D02*
X161448300Y-111395700D01*
X162560000Y-115455700D02*
X162560000Y-112507400D01*
X160020000Y-132159300D02*
X160020000Y-115455700D01*
X159512000Y-132667300D02*
X160020000Y-132159300D01*
X158908700Y-108305000D02*
X161602500Y-105611200D01*
X158908700Y-114344400D02*
X158908700Y-108305000D01*
X160020000Y-115455700D02*
X158908700Y-114344400D01*
X157480000Y-131477800D02*
X156611400Y-132346400D01*
X157480000Y-115455700D02*
X157480000Y-131477800D01*
X136597300Y-115597100D02*
X126405100Y-105404900D01*
X147495000Y-115597100D02*
X136597300Y-115597100D01*
X154940000Y-131435400D02*
X154432000Y-131943400D01*
X154940000Y-115455700D02*
X154940000Y-131435400D01*
X129362400Y-106785300D02*
X127233100Y-104656000D01*
X150132400Y-106785300D02*
X129362400Y-106785300D01*
X153670000Y-110322900D02*
X150132400Y-106785300D01*
X153670000Y-111237400D02*
X153670000Y-110322900D01*
X154940000Y-112507400D02*
X153670000Y-111237400D01*
X154940000Y-115455700D02*
X154940000Y-112507400D01*
X152400000Y-131205100D02*
X150932000Y-132673100D01*
X152400000Y-115455700D02*
X152400000Y-131205100D01*
X126320500Y-104533100D02*
X115149900Y-104533100D01*
X134206700Y-112419300D02*
X126320500Y-104533100D01*
X145875400Y-112419300D02*
X134206700Y-112419300D01*
X148807600Y-109487100D02*
X145875400Y-112419300D01*
X150318100Y-109487100D02*
X148807600Y-109487100D01*
X151177900Y-110346900D02*
X150318100Y-109487100D01*
X151177900Y-111603900D02*
X151177900Y-110346900D01*
X152400000Y-112826000D02*
X151177900Y-111603900D01*
X152400000Y-115455700D02*
X152400000Y-112826000D01*
X149401800Y-115455700D02*
X148675000Y-116182500D01*
X149860000Y-115455700D02*
X149401800Y-115455700D01*
X148675000Y-116182500D02*
X148675000Y-132673100D01*
X114526500Y-105097000D02*
X113432600Y-104003100D01*
X125133800Y-105097000D02*
X114526500Y-105097000D01*
X125967000Y-105930200D02*
X125133800Y-105097000D01*
X126290400Y-105930200D02*
X125967000Y-105930200D01*
X136542700Y-116182500D02*
X126290400Y-105930200D01*
X148675000Y-116182500D02*
X136542700Y-116182500D01*
X130644200Y-90767600D02*
X128303800Y-93108000D01*
X132647700Y-90767600D02*
X130644200Y-90767600D01*
X125222000Y-117985700D02*
X125222000Y-135890000D01*
X126817400Y-116390300D02*
X125222000Y-117985700D01*
X126817400Y-112779000D02*
X126817400Y-116390300D01*
X125730000Y-111691600D02*
X126817400Y-112779000D01*
X125730000Y-110604300D02*
X125730000Y-111691600D01*
X124280000Y-131172700D02*
X122682000Y-132770700D01*
X124280000Y-111694300D02*
X124280000Y-131172700D01*
X123190000Y-110604300D02*
X124280000Y-111694300D01*
X122682000Y-135890000D02*
X122682000Y-132770700D01*
X119558500Y-132187200D02*
X120142000Y-132770700D01*
X119558500Y-114644100D02*
X119558500Y-132187200D01*
X120650000Y-113552600D02*
X119558500Y-114644100D01*
X120650000Y-110604300D02*
X120650000Y-113552600D01*
X120142000Y-135890000D02*
X120142000Y-132770700D01*
X118110000Y-113627900D02*
X118110000Y-110604300D01*
X117021900Y-114716000D02*
X118110000Y-113627900D01*
X117021900Y-132190600D02*
X117021900Y-114716000D01*
X117602000Y-132770700D02*
X117021900Y-132190600D01*
X117602000Y-135890000D02*
X117602000Y-132770700D01*
X111938500Y-132187200D02*
X112522000Y-132770700D01*
X111938500Y-112323700D02*
X111938500Y-132187200D01*
X113030000Y-111232200D02*
X111938500Y-112323700D01*
X113030000Y-110604300D02*
X113030000Y-111232200D01*
X112522000Y-135890000D02*
X112522000Y-132770700D01*
X121844100Y-114109800D02*
X123190000Y-115455700D01*
X121844100Y-109570300D02*
X121844100Y-114109800D01*
X118900800Y-106627000D02*
X121844100Y-109570300D01*
X121318700Y-114787000D02*
X121318700Y-113646900D01*
X120650000Y-115455700D02*
X121318700Y-114787000D01*
X119219000Y-114346700D02*
X118110000Y-115455700D01*
X119219000Y-108157200D02*
X119219000Y-114346700D01*
X118332600Y-107270800D02*
X119219000Y-108157200D01*
X118332600Y-105622400D02*
X118332600Y-107270800D01*
X117705200Y-105622400D02*
X117705300Y-105622400D01*
X117705200Y-105794200D02*
X117705200Y-105622400D01*
X116887300Y-106612100D02*
X117705200Y-105794200D01*
X116887300Y-114138400D02*
X116887300Y-106612100D01*
X115570000Y-115455700D02*
X116887300Y-114138400D01*
X114300000Y-108427400D02*
X117105000Y-105622400D01*
X114300000Y-114185700D02*
X114300000Y-108427400D01*
X113030000Y-115455700D02*
X114300000Y-114185700D01*
X109220000Y-62230000D02*
X109220000Y-63418900D01*
X110260300Y-63418900D02*
X109220000Y-63418900D01*
X116188600Y-69347200D02*
X110260300Y-63418900D01*
X116188600Y-88116300D02*
X116188600Y-69347200D01*
X114769500Y-89535400D02*
X116188600Y-88116300D01*
X114769500Y-94690600D02*
X114769500Y-89535400D01*
X119449000Y-99370100D02*
X114769500Y-94690600D01*
X128069700Y-99370100D02*
X119449000Y-99370100D01*
X133238700Y-94201100D02*
X128069700Y-99370100D01*
X109220000Y-59690000D02*
X109220000Y-60878900D01*
X124240400Y-98891400D02*
X131262900Y-91868900D01*
X119607200Y-98891400D02*
X124240400Y-98891400D01*
X115219800Y-94504000D02*
X119607200Y-98891400D01*
X115219800Y-89722000D02*
X115219800Y-94504000D01*
X116639000Y-88302800D02*
X115219800Y-89722000D01*
X116639000Y-67777800D02*
X116639000Y-88302800D01*
X109740100Y-60878900D02*
X116639000Y-67777800D01*
X109220000Y-60878900D02*
X109740100Y-60878900D01*
X129885900Y-80201200D02*
X129424000Y-80201200D01*
X135890000Y-74197100D02*
X129885900Y-80201200D01*
X135890000Y-71120000D02*
X135890000Y-74197100D01*
X131877900Y-94262900D02*
X129540000Y-96600800D01*
X131877900Y-91343600D02*
X131877900Y-94262900D01*
X149164200Y-100954800D02*
X144826200Y-100954800D01*
X144826200Y-83983600D02*
X143210200Y-82367600D01*
X144826200Y-100954800D02*
X144826200Y-83983600D01*
X97167200Y-99868100D02*
X96108800Y-98809700D01*
X128954900Y-99868100D02*
X97167200Y-99868100D01*
X134386100Y-105299300D02*
X128954900Y-99868100D01*
X140481700Y-105299300D02*
X134386100Y-105299300D01*
X144826200Y-100954800D02*
X140481700Y-105299300D01*
X95999900Y-62311100D02*
X96520000Y-62311100D01*
X95169000Y-61480200D02*
X95999900Y-62311100D01*
X95169000Y-57934700D02*
X95169000Y-61480200D01*
X95890700Y-57213000D02*
X95169000Y-57934700D01*
X126548500Y-57213000D02*
X95890700Y-57213000D01*
X139787700Y-70452200D02*
X126548500Y-57213000D01*
X96520000Y-63500000D02*
X96520000Y-62311100D01*
X97708900Y-59771100D02*
X96520000Y-59771100D01*
X99009300Y-58470700D02*
X97708900Y-59771100D01*
X111931600Y-58470700D02*
X99009300Y-58470700D01*
X127648700Y-74187800D02*
X111931600Y-58470700D01*
X130431000Y-74187800D02*
X127648700Y-74187800D01*
X96520000Y-60960000D02*
X96520000Y-59771100D01*
X164733400Y-78989500D02*
X168029200Y-82285300D01*
X164733400Y-65233600D02*
X171405100Y-58561900D01*
X164733400Y-78989500D02*
X164733400Y-65233600D01*
X174039500Y-55927500D02*
X171405100Y-58561900D01*
X197696700Y-55927500D02*
X174039500Y-55927500D01*
X200660000Y-58890800D02*
X197696700Y-55927500D01*
X201164900Y-72699200D02*
X201164900Y-80147800D01*
X200357600Y-71891900D02*
X201164900Y-72699200D01*
X200357600Y-59193200D02*
X200357600Y-71891900D01*
X200660000Y-58890800D02*
X200357600Y-59193200D01*
X120055200Y-93545400D02*
X127684000Y-85916600D01*
X120055200Y-95121700D02*
X120055200Y-93545400D01*
X158738900Y-78989500D02*
X157974300Y-79754100D01*
X164733400Y-78989500D02*
X158738900Y-78989500D01*
X146717800Y-98607100D02*
X148082300Y-97242600D01*
X145858100Y-98607100D02*
X146717800Y-98607100D01*
X129147400Y-87364900D02*
X122419700Y-94092600D01*
X129147400Y-87257500D02*
X129147400Y-87364900D01*
X129466400Y-87257500D02*
X129147400Y-87257500D01*
X130808000Y-85915900D02*
X129466400Y-87257500D01*
X131216400Y-85915900D02*
X130808000Y-85915900D01*
X136452000Y-80680300D02*
X131216400Y-85915900D01*
X142350200Y-80680300D02*
X136452000Y-80680300D01*
X146328000Y-84658100D02*
X142350200Y-80680300D01*
X146328000Y-86816200D02*
X146328000Y-84658100D01*
X146050000Y-71120000D02*
X146050000Y-72461300D01*
X137139700Y-73939000D02*
X137134000Y-73933300D01*
X144572300Y-73939000D02*
X137139700Y-73939000D01*
X146050000Y-72461300D02*
X144572300Y-73939000D01*
X130672500Y-80075200D02*
X130672500Y-84413500D01*
X136814400Y-73933300D02*
X130672500Y-80075200D01*
X137134000Y-73933300D02*
X136814400Y-73933300D01*
X135624200Y-69020000D02*
X132750500Y-69020000D01*
X137134000Y-70529800D02*
X135624200Y-69020000D01*
X137134000Y-73933300D02*
X137134000Y-70529800D01*
X170212900Y-95529800D02*
X173460900Y-95529800D01*
X165585600Y-100157100D02*
X170212900Y-95529800D01*
X161480000Y-100157100D02*
X165585600Y-100157100D01*
X159301600Y-102335500D02*
X161480000Y-100157100D01*
X134139300Y-91466800D02*
X134139300Y-99135000D01*
X132899400Y-90226900D02*
X134139300Y-91466800D01*
X131484300Y-90226900D02*
X132899400Y-90226900D01*
X131006600Y-89749200D02*
X131484300Y-90226900D01*
X203956100Y-77556200D02*
X203956100Y-89927700D01*
X204327000Y-77185300D02*
X203956100Y-77556200D01*
X203862500Y-90021300D02*
X202774800Y-90021300D01*
X203956100Y-89927700D02*
X203862500Y-90021300D01*
X207003100Y-92974700D02*
X208221000Y-92974700D01*
X203956100Y-89927700D02*
X207003100Y-92974700D01*
X144152900Y-100495900D02*
X139875000Y-104773800D01*
X144152900Y-84652800D02*
X144152900Y-100495900D01*
X143888300Y-84388200D02*
X144152900Y-84652800D01*
X135127900Y-103056000D02*
X135249700Y-103177800D01*
X135127900Y-89037900D02*
X135127900Y-103056000D01*
X134034300Y-87944300D02*
X135127900Y-89037900D01*
X162571300Y-100816000D02*
X160522100Y-102865200D01*
X166610700Y-100816000D02*
X162571300Y-100816000D01*
X170373400Y-97053300D02*
X166610700Y-100816000D01*
X173559600Y-97053300D02*
X170373400Y-97053300D01*
X179176200Y-91436700D02*
X173559600Y-97053300D01*
X207736400Y-85849400D02*
X207736400Y-73515000D01*
X204612600Y-88973200D02*
X207736400Y-85849400D01*
X179176200Y-75095100D02*
X179176200Y-91436700D01*
X180759700Y-73511600D02*
X179176200Y-75095100D01*
X178631600Y-90866200D02*
X178631600Y-74695600D01*
X178640700Y-90875300D02*
X178631600Y-90866200D01*
X132897700Y-89279600D02*
X131417100Y-89279600D01*
X132897700Y-88338000D02*
X137868900Y-83366800D01*
X132897700Y-89279600D02*
X132897700Y-88338000D01*
X206719000Y-84808200D02*
X204697600Y-86829600D01*
X206719000Y-73515000D02*
X206719000Y-84808200D01*
X134664700Y-91046600D02*
X132897700Y-89279600D01*
X134664700Y-104461400D02*
X134664700Y-91046600D01*
X134977100Y-104773800D02*
X134664700Y-104461400D01*
X116570700Y-93506800D02*
X116724400Y-93660500D01*
X116570700Y-91533000D02*
X116570700Y-93506800D01*
X127885400Y-80218300D02*
X116570700Y-91533000D01*
X127991600Y-80218300D02*
X127885400Y-80218300D01*
X117077600Y-91779500D02*
X127934900Y-80922200D01*
X117077600Y-93098400D02*
X117077600Y-91779500D01*
X117096000Y-93116800D02*
X117077600Y-93098400D01*
X138846000Y-89696200D02*
X141659100Y-86883100D01*
X138846000Y-99533100D02*
X138846000Y-89696200D01*
X137965200Y-100413900D02*
X138846000Y-99533100D01*
X137627300Y-100413900D02*
X137965200Y-100413900D01*
X142595800Y-81732000D02*
X142616400Y-81711400D01*
X138790800Y-81732000D02*
X142595800Y-81732000D01*
X137685900Y-82836900D02*
X138790800Y-81732000D01*
X137619100Y-82836900D02*
X137685900Y-82836900D01*
X131734000Y-88722000D02*
X137619100Y-82836900D01*
X131222900Y-88722000D02*
X131734000Y-88722000D01*
X126882000Y-93062900D02*
X131222900Y-88722000D01*
X126882000Y-93567200D02*
X126882000Y-93062900D01*
X177991700Y-91533900D02*
X177378700Y-92146900D01*
X177991700Y-73692300D02*
X177991700Y-91533900D01*
X178169000Y-73515000D02*
X177991700Y-73692300D01*
X175534100Y-92824200D02*
X175041800Y-92331900D01*
X176701400Y-92824200D02*
X175534100Y-92824200D01*
X177378700Y-92146900D02*
X176701400Y-92824200D01*
X202983300Y-75305400D02*
X204772300Y-73516400D01*
X202983300Y-89402500D02*
X202983300Y-75305400D01*
X139132200Y-104773700D02*
X139132200Y-104773800D01*
X143576700Y-100329200D02*
X139132200Y-104773700D01*
X143576700Y-91895600D02*
X143576700Y-100329200D01*
X200579900Y-90084100D02*
X200579900Y-76466700D01*
X200193400Y-90470600D02*
X200579900Y-90084100D01*
X176833100Y-89609200D02*
X176833100Y-73767200D01*
X175512500Y-90929800D02*
X176833100Y-89609200D01*
X138428700Y-104683400D02*
X138428700Y-104773800D01*
X143031000Y-100081100D02*
X138428700Y-104683400D01*
X143031000Y-91074500D02*
X143031000Y-100081100D01*
X175679300Y-98276900D02*
X175077700Y-98276900D01*
X181735900Y-92220300D02*
X175679300Y-98276900D01*
X181200200Y-91684700D02*
X181735900Y-92220300D01*
X181200200Y-90174700D02*
X181200200Y-91684700D01*
X182447300Y-92931800D02*
X185225400Y-92931800D01*
X181735900Y-92220300D02*
X182447300Y-92931800D01*
X186458800Y-74912100D02*
X186516900Y-74854000D01*
X186458800Y-92601000D02*
X186458800Y-74912100D01*
X180152200Y-98907600D02*
X171283300Y-98907600D01*
X186458800Y-92601000D02*
X180152200Y-98907600D01*
X151484900Y-91900300D02*
X150050900Y-90466300D01*
X151484900Y-95265000D02*
X151484900Y-91900300D01*
X159656800Y-103436900D02*
X151484900Y-95265000D01*
X160723000Y-103436900D02*
X159656800Y-103436900D01*
X162407700Y-101752200D02*
X160723000Y-103436900D01*
X168438700Y-101752200D02*
X162407700Y-101752200D01*
X171283300Y-98907600D02*
X168438700Y-101752200D01*
X187966600Y-87206800D02*
X188487200Y-86686200D01*
X187966600Y-93056600D02*
X187966600Y-87206800D01*
X188487200Y-74429100D02*
X186693200Y-72635100D01*
X188487200Y-86686200D02*
X188487200Y-74429100D01*
X208309700Y-72126900D02*
X208309700Y-80323900D01*
X200896300Y-64713500D02*
X208309700Y-72126900D01*
X181735400Y-69601000D02*
X181735400Y-79677600D01*
X177373200Y-65238800D02*
X181735400Y-69601000D01*
X174987200Y-91461200D02*
X175824800Y-92298800D01*
X174987200Y-74382700D02*
X174987200Y-91461200D01*
X175195900Y-74174000D02*
X174987200Y-74382700D01*
X202588700Y-71132900D02*
X202588700Y-73515000D01*
X200935000Y-69479200D02*
X202588700Y-71132900D01*
X202211700Y-92861600D02*
X202030600Y-93042700D01*
X202211700Y-73892000D02*
X202211700Y-92861600D01*
X202588700Y-73515000D02*
X202211700Y-73892000D01*
X136651700Y-104424000D02*
X137001500Y-104773800D01*
X136651700Y-86141400D02*
X136651700Y-104424000D01*
X139971400Y-82821700D02*
X136651700Y-86141400D01*
X174456800Y-92868300D02*
X174456800Y-88456600D01*
X174464200Y-92875700D02*
X174456800Y-92868300D01*
X174456800Y-73681800D02*
X174290000Y-73515000D01*
X174456800Y-88456600D02*
X174456800Y-73681800D01*
X141486400Y-100050100D02*
X138338100Y-103198400D01*
X141486400Y-90640200D02*
X141486400Y-100050100D01*
X143438500Y-88688100D02*
X141486400Y-90640200D01*
X201715100Y-87366100D02*
X201603000Y-87478200D01*
X201715100Y-73489400D02*
X201715100Y-87366100D01*
X201603000Y-92504200D02*
X201218000Y-92889200D01*
X201603000Y-87478200D02*
X201603000Y-92504200D01*
X139467600Y-82295000D02*
X139446100Y-82316500D01*
X140857000Y-82295000D02*
X139467600Y-82295000D01*
X143438500Y-84876500D02*
X140857000Y-82295000D01*
X143438500Y-88688100D02*
X143438500Y-84876500D01*
X191858900Y-61846600D02*
X194457000Y-61846600D01*
X189871300Y-59859000D02*
X191858900Y-61846600D01*
X176997100Y-59859000D02*
X189871300Y-59859000D01*
X176077300Y-60778800D02*
X176997100Y-59859000D01*
X197787100Y-65176700D02*
X194457000Y-61846600D01*
X197787100Y-75332200D02*
X197787100Y-65176700D01*
X197336800Y-75782500D02*
X197787100Y-75332200D01*
X197336800Y-79690800D02*
X197336800Y-75782500D01*
X197657700Y-80011700D02*
X197336800Y-79690800D01*
X198095200Y-80011700D02*
X197657700Y-80011700D01*
X198387500Y-79719400D02*
X198095200Y-80011700D01*
X198387500Y-79552800D02*
X198387500Y-79719400D01*
X198462600Y-79477700D02*
X198387500Y-79552800D01*
X173247500Y-70317500D02*
X173240900Y-70324100D01*
X173715500Y-70317500D02*
X173247500Y-70317500D01*
X173715500Y-63140600D02*
X173715500Y-70317500D01*
X176077300Y-60778800D02*
X173715500Y-63140600D01*
X176020100Y-72622100D02*
X176020100Y-80155200D01*
X173715500Y-70317500D02*
X176020100Y-72622100D01*
X132100900Y-87678900D02*
X137468200Y-82311600D01*
X131474800Y-87678900D02*
X132100900Y-87678900D01*
X123946700Y-95207000D02*
X131474800Y-87678900D01*
X176220400Y-68911800D02*
X175124400Y-68911800D01*
X176220400Y-61742700D02*
X176220400Y-68911800D01*
X177165000Y-60798100D02*
X176220400Y-61742700D01*
X177418100Y-70109500D02*
X177418100Y-79469400D01*
X176220400Y-68911800D02*
X177418100Y-70109500D01*
X121458200Y-96286400D02*
X121458200Y-96414300D01*
X131378400Y-86366200D02*
X121458200Y-96286400D01*
X131571800Y-86366200D02*
X131378400Y-86366200D01*
X136249300Y-81688700D02*
X131571800Y-86366200D01*
X117668000Y-92100100D02*
X117612900Y-92045000D01*
X117668000Y-94190500D02*
X117668000Y-92100100D01*
X120476800Y-96999300D02*
X117668000Y-94190500D01*
X121635300Y-96999300D02*
X120476800Y-96999300D01*
X123237000Y-95397600D02*
X121635300Y-96999300D01*
X123237000Y-95158800D02*
X123237000Y-95397600D01*
X131579300Y-86816500D02*
X123237000Y-95158800D01*
X132220400Y-86816500D02*
X131579300Y-86816500D01*
X137830200Y-81206700D02*
X132220400Y-86816500D01*
X142123800Y-81206700D02*
X137830200Y-81206700D01*
X137102000Y-100867200D02*
X137182900Y-100948100D01*
X137102000Y-89711700D02*
X137102000Y-100867200D01*
X140573000Y-86240700D02*
X137102000Y-89711700D01*
X140573000Y-82836000D02*
X140573000Y-86240700D01*
X129609000Y-77845600D02*
X129660500Y-77845600D01*
X116120400Y-91334200D02*
X129609000Y-77845600D01*
X116120400Y-94024800D02*
X116120400Y-91334200D01*
X116242100Y-94146500D02*
X116120400Y-94024800D01*
X199907200Y-80097800D02*
X199963600Y-80154200D01*
X199907200Y-62250300D02*
X199907200Y-80097800D01*
X198884400Y-61227500D02*
X199907200Y-62250300D01*
X109575000Y-84899100D02*
X109575000Y-96511200D01*
X115654100Y-78820000D02*
X109575000Y-84899100D01*
X168364700Y-87773300D02*
X161237700Y-94900300D01*
X168364700Y-83102600D02*
X168364700Y-87773300D01*
X174706200Y-56377800D02*
X172985000Y-58099000D01*
X194047900Y-56377800D02*
X174706200Y-56377800D01*
X198884400Y-61214300D02*
X194047900Y-56377800D01*
X198884400Y-61227500D02*
X198884400Y-61214300D01*
X168575300Y-82892000D02*
X168364700Y-83102600D01*
X168575300Y-73222600D02*
X168575300Y-82892000D01*
X168383000Y-73030300D02*
X168575300Y-73222600D01*
X168383000Y-62701000D02*
X168383000Y-73030300D01*
X172985000Y-58099000D02*
X168383000Y-62701000D01*
X148263800Y-93906400D02*
X148876200Y-94518800D01*
X148263800Y-83682100D02*
X148263800Y-93906400D01*
X142472000Y-77890300D02*
X148263800Y-83682100D01*
X135161700Y-77890300D02*
X142472000Y-77890300D01*
X134596600Y-78455400D02*
X135161700Y-77890300D01*
X135886500Y-76397400D02*
X141972900Y-76397400D01*
X133712000Y-78571900D02*
X135886500Y-76397400D01*
X182792900Y-80877000D02*
X182792900Y-67577700D01*
X181210400Y-82459500D02*
X182792900Y-80877000D01*
X182792900Y-64564800D02*
X183513500Y-63844200D01*
X182792900Y-67577700D02*
X182792900Y-64564800D01*
X120677400Y-94276200D02*
X120677400Y-96452000D01*
X129672900Y-85280700D02*
X120677400Y-94276200D01*
X130169400Y-85280700D02*
X129672900Y-85280700D01*
X130434800Y-85015300D02*
X130169400Y-85280700D01*
X130813700Y-85015300D02*
X130434800Y-85015300D01*
X132123700Y-83705300D02*
X130813700Y-85015300D01*
X132123700Y-79921500D02*
X132123700Y-83705300D01*
X133473300Y-78571900D02*
X132123700Y-79921500D01*
X133712000Y-78571900D02*
X133473300Y-78571900D01*
X130068900Y-76683700D02*
X131410700Y-76683700D01*
X115670100Y-91082500D02*
X130068900Y-76683700D01*
X115670100Y-94317400D02*
X115670100Y-91082500D01*
X119700900Y-98348200D02*
X115670100Y-94317400D01*
X119843500Y-98348200D02*
X119700900Y-98348200D01*
X131410700Y-75383400D02*
X131410700Y-76683700D01*
X133959400Y-72834700D02*
X131410700Y-75383400D01*
X182267400Y-79986800D02*
X182267400Y-66493900D01*
X181999400Y-80254800D02*
X182267400Y-79986800D01*
X181462300Y-80254800D02*
X181999400Y-80254800D01*
X181408900Y-80201400D02*
X181462300Y-80254800D01*
X182267400Y-63328900D02*
X182806300Y-62790000D01*
X182267400Y-66493900D02*
X182267400Y-63328900D01*
X197336800Y-74460800D02*
X196886400Y-74911200D01*
X197336800Y-73198700D02*
X197336800Y-74460800D01*
X192104300Y-67966200D02*
X197336800Y-73198700D01*
X188362300Y-67966200D02*
X192104300Y-67966200D01*
X186910700Y-69417800D02*
X188362300Y-67966200D01*
X199182500Y-92974700D02*
X199323100Y-92974700D01*
X196886400Y-90678600D02*
X199182500Y-92974700D01*
X196886400Y-74911200D02*
X196886400Y-90678600D01*
X173173000Y-73779400D02*
X172911700Y-73518100D01*
X173173000Y-92877400D02*
X173173000Y-73779400D01*
X136637600Y-79794000D02*
X141058900Y-79794000D01*
X134945800Y-81485800D02*
X136637600Y-79794000D01*
X132758100Y-81485800D02*
X134945800Y-81485800D01*
X121226200Y-94374700D02*
X121226200Y-95084900D01*
X129856200Y-85744700D02*
X121226200Y-94374700D01*
X130342300Y-85744700D02*
X129856200Y-85744700D01*
X130621400Y-85465600D02*
X130342300Y-85744700D01*
X131000300Y-85465600D02*
X130621400Y-85465600D01*
X132758100Y-83707800D02*
X131000300Y-85465600D01*
X132758100Y-81485800D02*
X132758100Y-83707800D01*
X187961900Y-80747300D02*
X187492600Y-80747300D01*
X187492600Y-92457700D02*
X182899100Y-97051200D01*
X187492600Y-80747300D02*
X187492600Y-92457700D01*
X135210800Y-74121900D02*
X130888600Y-78444100D01*
X188398300Y-64795900D02*
X188398300Y-60791400D01*
X186161400Y-67032800D02*
X188398300Y-64795900D01*
X187492600Y-75026400D02*
X187492600Y-80747300D01*
X186161400Y-73695200D02*
X187492600Y-75026400D01*
X186161400Y-67032800D02*
X186161400Y-73695200D01*
X155354200Y-88309900D02*
X150504600Y-83460300D01*
X155354200Y-91664400D02*
X155354200Y-88309900D01*
X161991200Y-98301400D02*
X155354200Y-91664400D01*
X164220300Y-98301400D02*
X161991200Y-98301400D01*
X164775000Y-97746700D02*
X164220300Y-98301400D01*
X172108500Y-78703900D02*
X172076700Y-78672100D01*
X172108500Y-91046000D02*
X172108500Y-78703900D01*
X165407800Y-97746700D02*
X172108500Y-91046000D01*
X164775000Y-97746700D02*
X165407800Y-97746700D01*
X185594900Y-76641000D02*
X185764600Y-76810700D01*
X185594900Y-66569100D02*
X185594900Y-76641000D01*
X186690000Y-65474000D02*
X185594900Y-66569100D01*
X186690000Y-60385100D02*
X186690000Y-65474000D01*
X141991800Y-78800400D02*
X146651700Y-83460300D01*
X136357400Y-78800400D02*
X141991800Y-78800400D01*
X134982200Y-80175600D02*
X136357400Y-78800400D01*
X133249400Y-80175600D02*
X134982200Y-80175600D01*
X180650200Y-92561600D02*
X176631300Y-96580500D01*
X180650200Y-89902600D02*
X180650200Y-92561600D01*
X185761700Y-84791100D02*
X180650200Y-89902600D01*
X185761700Y-80138800D02*
X185761700Y-84791100D01*
X185144600Y-79521700D02*
X185761700Y-80138800D01*
X185144600Y-66382500D02*
X185144600Y-79521700D01*
X186076400Y-65450700D02*
X185144600Y-66382500D01*
X186076400Y-60867800D02*
X186076400Y-65450700D01*
X147730300Y-94209000D02*
X149421200Y-95899900D01*
X147730300Y-83785500D02*
X147730300Y-94209000D01*
X142285500Y-78340700D02*
X147730300Y-83785500D01*
X136180200Y-78340700D02*
X142285500Y-78340700D01*
X134870600Y-79650300D02*
X136180200Y-78340700D01*
X133031800Y-79650300D02*
X134870600Y-79650300D01*
X132649000Y-80033100D02*
X133031800Y-79650300D01*
X132649000Y-80285000D02*
X132649000Y-80033100D01*
X162734000Y-94945000D02*
X168342900Y-89336100D01*
X162734000Y-96750700D02*
X162734000Y-94945000D01*
X150263000Y-94830900D02*
X150263000Y-96642800D01*
X148714200Y-93282100D02*
X150263000Y-94830900D01*
X148714200Y-82343700D02*
X148714200Y-93282100D01*
X142195500Y-75825000D02*
X148714200Y-82343700D01*
X135583300Y-75825000D02*
X142195500Y-75825000D01*
X131301700Y-80106600D02*
X135583300Y-75825000D01*
X131301700Y-80876400D02*
X131301700Y-80106600D01*
X185514400Y-61365900D02*
X185267300Y-61118800D01*
X185514400Y-65375800D02*
X185514400Y-61365900D01*
X184562900Y-66327300D02*
X185514400Y-65375800D01*
X184562900Y-79132500D02*
X184562900Y-66327300D01*
X170944200Y-98353500D02*
X168655900Y-100641800D01*
X173639300Y-98353500D02*
X170944200Y-98353500D01*
X180199900Y-91792900D02*
X173639300Y-98353500D01*
X180199900Y-87317400D02*
X180199900Y-91792900D01*
X183923100Y-83594200D02*
X180199900Y-87317400D01*
X184973500Y-64642900D02*
X184973500Y-62298100D01*
X184037600Y-65578800D02*
X184973500Y-64642900D01*
X184037600Y-83479700D02*
X184037600Y-65578800D01*
X183923100Y-83594200D02*
X184037600Y-83479700D01*
X146913000Y-94141900D02*
X150203300Y-97432200D01*
X146913000Y-84604500D02*
X146913000Y-94141900D01*
X141574800Y-79266300D02*
X146913000Y-84604500D01*
X136528400Y-79266300D02*
X141574800Y-79266300D01*
X135002600Y-80792100D02*
X136528400Y-79266300D01*
X133175600Y-80792100D02*
X135002600Y-80792100D01*
X128617800Y-83244600D02*
X130040100Y-84666900D01*
X128617800Y-79664100D02*
X128617800Y-83244600D01*
X198987900Y-73759700D02*
X198762800Y-73534600D01*
X198987900Y-79734300D02*
X198987900Y-73759700D01*
X198837800Y-79884400D02*
X198987900Y-79734300D01*
X198837800Y-90827100D02*
X198837800Y-79884400D01*
X198313700Y-91351200D02*
X198837800Y-90827100D01*
X172371800Y-72983300D02*
X172720000Y-72635100D01*
X172371800Y-77910600D02*
X172371800Y-72983300D01*
X172604000Y-78142800D02*
X172371800Y-77910600D01*
X172604000Y-92586100D02*
X172604000Y-78142800D01*
X172321600Y-92868500D02*
X172604000Y-92586100D01*
X172514500Y-59396800D02*
X170815000Y-61096300D01*
X191848400Y-59396800D02*
X172514500Y-59396800D01*
X191931700Y-59480100D02*
X191848400Y-59396800D01*
X170887800Y-91622500D02*
X170887800Y-80145700D01*
X168701200Y-93809100D02*
X170887800Y-91622500D01*
X166504200Y-93809100D02*
X168701200Y-93809100D01*
X170815000Y-80072900D02*
X170887800Y-80145700D01*
X170815000Y-61096300D02*
X170815000Y-80072900D01*
X196720500Y-73386200D02*
X196773900Y-73386200D01*
X196720500Y-73386200D02*
X192438300Y-69104000D01*
X196323900Y-91828200D02*
X197387000Y-92891300D01*
X196323900Y-74240700D02*
X196323900Y-91828200D01*
X196720500Y-73844100D02*
X196323900Y-74240700D01*
X196720500Y-73386200D02*
X196720500Y-73844100D01*
X169687300Y-73175200D02*
X169687300Y-92025600D01*
X170186000Y-72676500D02*
X169687300Y-73175200D01*
X195872200Y-73540000D02*
X195930900Y-73540000D01*
X190878000Y-68545800D02*
X195872200Y-73540000D01*
X169029600Y-92046000D02*
X168547700Y-92527900D01*
X169029600Y-72793600D02*
X169029600Y-92046000D01*
X168912500Y-72676500D02*
X169029600Y-72793600D01*
X195872200Y-92631900D02*
X196109000Y-92868700D01*
X195872200Y-73540000D02*
X195872200Y-92631900D01*
X199438200Y-80105500D02*
X199363200Y-80180500D01*
X199438200Y-63021700D02*
X199438200Y-80105500D01*
X197737200Y-61320700D02*
X199438200Y-63021700D01*
X171463400Y-80114900D02*
X171463400Y-68582300D01*
X171583200Y-80234700D02*
X171463400Y-80114900D01*
X171463400Y-61812300D02*
X172580400Y-60695300D01*
X171463400Y-68582300D02*
X171463400Y-61812300D01*
X154336600Y-63765000D02*
X154585000Y-63765000D01*
X150516300Y-67585300D02*
X154336600Y-63765000D01*
X150516300Y-72798300D02*
X150516300Y-67585300D01*
X143644300Y-70888000D02*
X143644300Y-73216300D01*
X148663700Y-65868600D02*
X143644300Y-70888000D01*
X142805300Y-70966800D02*
X147506800Y-66265300D01*
X142805300Y-73413600D02*
X142805300Y-70966800D01*
X152022000Y-90628300D02*
X154245700Y-88404600D01*
X152022000Y-94978500D02*
X152022000Y-90628300D01*
X185268900Y-115606800D02*
X185268900Y-131345900D01*
X185420000Y-115455700D02*
X185268900Y-115606800D01*
X186138800Y-131543900D02*
X184912000Y-132770700D01*
X186138800Y-116568900D02*
X186138800Y-131543900D01*
X186523900Y-116183800D02*
X186138800Y-116568900D01*
X186523900Y-112795500D02*
X186523900Y-116183800D01*
X185420000Y-111691600D02*
X186523900Y-112795500D01*
X185420000Y-110604300D02*
X185420000Y-111691600D01*
X184912000Y-135890000D02*
X184912000Y-132770700D01*
X158567500Y-131175200D02*
X156972000Y-132770700D01*
X158567500Y-114640100D02*
X158567500Y-131175200D01*
X157480000Y-113552600D02*
X158567500Y-114640100D01*
X157480000Y-110604300D02*
X157480000Y-113552600D01*
X156972000Y-135890000D02*
X156972000Y-132770700D01*
X153487500Y-131175200D02*
X151892000Y-132770700D01*
X153487500Y-111691800D02*
X153487500Y-131175200D01*
X152400000Y-110604300D02*
X153487500Y-111691800D01*
X151892000Y-135890000D02*
X151892000Y-132770700D01*
X115570000Y-113627900D02*
X115570000Y-110604300D01*
X114452800Y-114745100D02*
X115570000Y-113627900D01*
X114452800Y-132161500D02*
X114452800Y-114745100D01*
X115062000Y-132770700D02*
X114452800Y-132161500D01*
X115062000Y-135890000D02*
X115062000Y-132770700D01*
X157314900Y-80911700D02*
X158284600Y-81881400D01*
X157314900Y-66419200D02*
X157314900Y-80911700D01*
X183985100Y-63149700D02*
X183985100Y-63343400D01*
X181613300Y-60777900D02*
X183985100Y-63149700D01*
X179538500Y-60777900D02*
X181613300Y-60777900D01*
X179538500Y-60777800D02*
X179538500Y-60777900D01*
X179749600Y-84461400D02*
X181101500Y-83109500D01*
X179749600Y-91606300D02*
X179749600Y-84461400D01*
X173452700Y-97903200D02*
X179749600Y-91606300D01*
X170266500Y-97903200D02*
X173452700Y-97903200D01*
X167002500Y-101167200D02*
X170266500Y-97903200D01*
X184074700Y-63433000D02*
X183985100Y-63343400D01*
X184074700Y-64026200D02*
X184074700Y-63433000D01*
X183587300Y-64513600D02*
X184074700Y-64026200D01*
X183587300Y-80825600D02*
X183587300Y-64513600D01*
X181303400Y-83109500D02*
X183587300Y-80825600D01*
X181101500Y-83109500D02*
X181303400Y-83109500D01*
D24*
G36*
X184054838Y-111601617D02*
X184193910Y-111817741D01*
X184406110Y-111962731D01*
X184658000Y-112013740D01*
X184738767Y-112013740D01*
X184882599Y-112229001D01*
X185763900Y-113110302D01*
X185763900Y-114085850D01*
X185699100Y-114058943D01*
X185143339Y-114058458D01*
X184629697Y-114270690D01*
X184236371Y-114663330D01*
X184156605Y-114855427D01*
X184102397Y-114724557D01*
X183860213Y-114655092D01*
X183059605Y-115455700D01*
X183860213Y-116256308D01*
X184102397Y-116186843D01*
X184152509Y-116046382D01*
X184234990Y-116246003D01*
X184508900Y-116520392D01*
X184508900Y-130998809D01*
X184434045Y-131179079D01*
X184433755Y-131511263D01*
X184560608Y-131818272D01*
X184675017Y-131932881D01*
X184374599Y-132233299D01*
X184230767Y-132448560D01*
X183946800Y-132448560D01*
X183711483Y-132492838D01*
X183643378Y-132536662D01*
X183589090Y-132499569D01*
X183337200Y-132448560D01*
X183053233Y-132448560D01*
X182909401Y-132233299D01*
X182548500Y-131872398D01*
X182548500Y-116820676D01*
X182672302Y-116864844D01*
X183227368Y-116837062D01*
X183611143Y-116678097D01*
X183680608Y-116435913D01*
X182880000Y-115635305D01*
X182865858Y-115649448D01*
X182686253Y-115469843D01*
X182700395Y-115455700D01*
X182686253Y-115441558D01*
X182865858Y-115261953D01*
X182880000Y-115276095D01*
X183680608Y-114475487D01*
X183611143Y-114233303D01*
X183087698Y-114046556D01*
X182548500Y-114073544D01*
X182548500Y-112010602D01*
X182570619Y-111988483D01*
X182600900Y-112001057D01*
X183156661Y-112001542D01*
X183670303Y-111789310D01*
X184023763Y-111436467D01*
X184054838Y-111601617D01*
X184054838Y-111601617D01*
G37*
X184054838Y-111601617D02*
X184193910Y-111817741D01*
X184406110Y-111962731D01*
X184658000Y-112013740D01*
X184738767Y-112013740D01*
X184882599Y-112229001D01*
X185763900Y-113110302D01*
X185763900Y-114085850D01*
X185699100Y-114058943D01*
X185143339Y-114058458D01*
X184629697Y-114270690D01*
X184236371Y-114663330D01*
X184156605Y-114855427D01*
X184102397Y-114724557D01*
X183860213Y-114655092D01*
X183059605Y-115455700D01*
X183860213Y-116256308D01*
X184102397Y-116186843D01*
X184152509Y-116046382D01*
X184234990Y-116246003D01*
X184508900Y-116520392D01*
X184508900Y-130998809D01*
X184434045Y-131179079D01*
X184433755Y-131511263D01*
X184560608Y-131818272D01*
X184675017Y-131932881D01*
X184374599Y-132233299D01*
X184230767Y-132448560D01*
X183946800Y-132448560D01*
X183711483Y-132492838D01*
X183643378Y-132536662D01*
X183589090Y-132499569D01*
X183337200Y-132448560D01*
X183053233Y-132448560D01*
X182909401Y-132233299D01*
X182548500Y-131872398D01*
X182548500Y-116820676D01*
X182672302Y-116864844D01*
X183227368Y-116837062D01*
X183611143Y-116678097D01*
X183680608Y-116435913D01*
X182880000Y-115635305D01*
X182865858Y-115649448D01*
X182686253Y-115469843D01*
X182700395Y-115455700D01*
X182686253Y-115441558D01*
X182865858Y-115261953D01*
X182880000Y-115276095D01*
X183680608Y-114475487D01*
X183611143Y-114233303D01*
X183087698Y-114046556D01*
X182548500Y-114073544D01*
X182548500Y-112010602D01*
X182570619Y-111988483D01*
X182600900Y-112001057D01*
X183156661Y-112001542D01*
X183670303Y-111789310D01*
X184023763Y-111436467D01*
X184054838Y-111601617D01*
G36*
X86640345Y-51827293D02*
X86233464Y-52807173D01*
X86232538Y-53868172D01*
X86637709Y-54848761D01*
X87387293Y-55599655D01*
X88367173Y-56006536D01*
X89428172Y-56007462D01*
X90408761Y-55602291D01*
X91159655Y-54852707D01*
X91566536Y-53872827D01*
X91567462Y-52811828D01*
X91162291Y-51831239D01*
X90517179Y-51185000D01*
X215553760Y-51185000D01*
X214910345Y-51827293D01*
X214503464Y-52807173D01*
X214502538Y-53868172D01*
X214907709Y-54848761D01*
X215657293Y-55599655D01*
X216637173Y-56006536D01*
X217698172Y-56007462D01*
X218678761Y-55602291D01*
X219429655Y-54852707D01*
X219836536Y-53872827D01*
X219837462Y-52811828D01*
X219432291Y-51831239D01*
X218787179Y-51185000D01*
X220315000Y-51185000D01*
X220315000Y-118237000D01*
X217699290Y-118237000D01*
X218678761Y-117832291D01*
X219429655Y-117082707D01*
X219836536Y-116102827D01*
X219837462Y-115041828D01*
X219432291Y-114061239D01*
X218682707Y-113310345D01*
X217702827Y-112903464D01*
X216641828Y-112902538D01*
X215661239Y-113307709D01*
X214910345Y-114057293D01*
X214503464Y-115037173D01*
X214502538Y-116098172D01*
X214907709Y-117078761D01*
X215657293Y-117829655D01*
X216637173Y-118236536D01*
X217168818Y-118237000D01*
X186898800Y-118237000D01*
X186898800Y-116883702D01*
X187061301Y-116721201D01*
X187226048Y-116474639D01*
X187283900Y-116183800D01*
X187283900Y-112795500D01*
X187270604Y-112728655D01*
X187226048Y-112504660D01*
X187061301Y-112258099D01*
X186633502Y-111830300D01*
X186778431Y-111618190D01*
X186829440Y-111366300D01*
X186829440Y-109842300D01*
X186785162Y-109606983D01*
X186646090Y-109390859D01*
X186433890Y-109245869D01*
X186182000Y-109194860D01*
X184658000Y-109194860D01*
X184422683Y-109239138D01*
X184206559Y-109378210D01*
X184061569Y-109590410D01*
X184024508Y-109773424D01*
X183672370Y-109420671D01*
X183159100Y-109207543D01*
X182603339Y-109207058D01*
X182089697Y-109419290D01*
X181696371Y-109811930D01*
X181610051Y-110019812D01*
X181525010Y-109813997D01*
X181132370Y-109420671D01*
X180619100Y-109207543D01*
X180063339Y-109207058D01*
X179549697Y-109419290D01*
X179412024Y-109556722D01*
X171888401Y-102033099D01*
X171641839Y-101868352D01*
X171351000Y-101810500D01*
X169455202Y-101810500D01*
X171575270Y-99690432D01*
X171630529Y-99667600D01*
X180152200Y-99667600D01*
X180443039Y-99609748D01*
X180689601Y-99445001D01*
X182400736Y-97733866D01*
X182425493Y-97758666D01*
X182732279Y-97886055D01*
X183064463Y-97886345D01*
X183371472Y-97759492D01*
X183606566Y-97524807D01*
X183682029Y-97343073D01*
X187377115Y-93647987D01*
X187492993Y-93764066D01*
X187799779Y-93891455D01*
X188131963Y-93891745D01*
X188438972Y-93764892D01*
X188674066Y-93530207D01*
X188801455Y-93223421D01*
X188801745Y-92891237D01*
X188726600Y-92709371D01*
X188726600Y-87521602D01*
X188779170Y-87469032D01*
X188959572Y-87394492D01*
X189194666Y-87159807D01*
X189322055Y-86853021D01*
X189322345Y-86520837D01*
X189247200Y-86338971D01*
X189247200Y-74429100D01*
X189189348Y-74138261D01*
X189024601Y-73891699D01*
X187476032Y-72343130D01*
X187401492Y-72162728D01*
X187166807Y-71927634D01*
X186921400Y-71825732D01*
X186921400Y-70252810D01*
X187076063Y-70252945D01*
X187383072Y-70126092D01*
X187618166Y-69891407D01*
X187693629Y-69709673D01*
X188677102Y-68726200D01*
X190049068Y-68726200D01*
X190169708Y-69018172D01*
X190404393Y-69253266D01*
X190586127Y-69328729D01*
X195112200Y-73854802D01*
X195112200Y-92631900D01*
X195170052Y-92922739D01*
X195321526Y-93149437D01*
X195400708Y-93341072D01*
X195635393Y-93576166D01*
X195942179Y-93703555D01*
X196274363Y-93703845D01*
X196581372Y-93576992D01*
X196736785Y-93421850D01*
X196913393Y-93598766D01*
X197220179Y-93726155D01*
X197552363Y-93726445D01*
X197859372Y-93599592D01*
X198094466Y-93364907D01*
X198212837Y-93079839D01*
X198645099Y-93512101D01*
X198749082Y-93581580D01*
X198849493Y-93682166D01*
X199156279Y-93809555D01*
X199488463Y-93809845D01*
X199795472Y-93682992D01*
X200030566Y-93448307D01*
X200157955Y-93141521D01*
X200158245Y-92809337D01*
X200031392Y-92502328D01*
X199796707Y-92267234D01*
X199489921Y-92139845D01*
X199422388Y-92139786D01*
X199046470Y-91763868D01*
X199096629Y-91643073D01*
X199375201Y-91364501D01*
X199539948Y-91117940D01*
X199559857Y-91017851D01*
X199719793Y-91178066D01*
X200026579Y-91305455D01*
X200358763Y-91305745D01*
X200665772Y-91178892D01*
X200843000Y-91001972D01*
X200843000Y-92140675D01*
X200745628Y-92180908D01*
X200510534Y-92415593D01*
X200383145Y-92722379D01*
X200382855Y-93054563D01*
X200509708Y-93361572D01*
X200744393Y-93596666D01*
X201051179Y-93724055D01*
X201383363Y-93724345D01*
X201488040Y-93681093D01*
X201556993Y-93750166D01*
X201863779Y-93877555D01*
X202195963Y-93877845D01*
X202502972Y-93750992D01*
X202738066Y-93516307D01*
X202848625Y-93250053D01*
X202913848Y-93152439D01*
X202971700Y-92861600D01*
X202971700Y-90843414D01*
X203122029Y-90781300D01*
X203734898Y-90781300D01*
X206465699Y-93512101D01*
X206712261Y-93676848D01*
X207003100Y-93734700D01*
X207873909Y-93734700D01*
X208054179Y-93809555D01*
X208386363Y-93809845D01*
X208693372Y-93682992D01*
X208928466Y-93448307D01*
X209055855Y-93141521D01*
X209056145Y-92809337D01*
X208929292Y-92502328D01*
X208694607Y-92267234D01*
X208387821Y-92139845D01*
X208055637Y-92139555D01*
X207873771Y-92214700D01*
X207317902Y-92214700D01*
X204872490Y-89769288D01*
X205084972Y-89681492D01*
X205320066Y-89446807D01*
X205395529Y-89265073D01*
X208273801Y-86386801D01*
X208438548Y-86140240D01*
X208496400Y-85849400D01*
X208496400Y-81150229D01*
X208782072Y-81032192D01*
X209017166Y-80797507D01*
X209144555Y-80490721D01*
X209144845Y-80158537D01*
X209069700Y-79976671D01*
X209069700Y-72126900D01*
X209011848Y-71836061D01*
X208847101Y-71589499D01*
X201679132Y-64421530D01*
X201604592Y-64241128D01*
X201369907Y-64006034D01*
X201117600Y-63901267D01*
X201117600Y-59605196D01*
X201132372Y-59599092D01*
X201367466Y-59364407D01*
X201494855Y-59057621D01*
X201495145Y-58725437D01*
X201368292Y-58418428D01*
X201133607Y-58183334D01*
X200951873Y-58107871D01*
X198234101Y-55390099D01*
X197987539Y-55225352D01*
X197696700Y-55167500D01*
X174039500Y-55167500D01*
X173748660Y-55225352D01*
X173502099Y-55390099D01*
X171113130Y-57779068D01*
X170932728Y-57853608D01*
X170697634Y-58088293D01*
X170622171Y-58270027D01*
X164195999Y-64696199D01*
X164031252Y-64942761D01*
X163973400Y-65233600D01*
X163973400Y-78229500D01*
X158738900Y-78229500D01*
X158448061Y-78287352D01*
X158201499Y-78452099D01*
X158074900Y-78578698D01*
X158074900Y-66766291D01*
X158149755Y-66586021D01*
X158150045Y-66253837D01*
X158023192Y-65946828D01*
X157788507Y-65711734D01*
X157481721Y-65584345D01*
X157149537Y-65584055D01*
X156842528Y-65710908D01*
X156607434Y-65945593D01*
X156480045Y-66252379D01*
X156479755Y-66584563D01*
X156554900Y-66766429D01*
X156554900Y-80911700D01*
X156612752Y-81202539D01*
X156777499Y-81449101D01*
X157501768Y-82173370D01*
X157576308Y-82353772D01*
X157810993Y-82588866D01*
X158117779Y-82716255D01*
X158449963Y-82716545D01*
X158756972Y-82589692D01*
X158992066Y-82355007D01*
X159119455Y-82048221D01*
X159119745Y-81716037D01*
X158992892Y-81409028D01*
X158758207Y-81173934D01*
X158576473Y-81098471D01*
X158074900Y-80596898D01*
X158074900Y-80589188D01*
X158139663Y-80589245D01*
X158446672Y-80462392D01*
X158681766Y-80227707D01*
X158757229Y-80045973D01*
X159053702Y-79749500D01*
X164418598Y-79749500D01*
X167246368Y-82577270D01*
X167320908Y-82757672D01*
X167529818Y-82966946D01*
X167529555Y-83267963D01*
X167604700Y-83449829D01*
X167604700Y-87458498D01*
X161431900Y-93631298D01*
X161431900Y-89354269D01*
X161606466Y-89180007D01*
X161733855Y-88873221D01*
X161734145Y-88541037D01*
X161607292Y-88234028D01*
X161372607Y-87998934D01*
X161065821Y-87871545D01*
X160733637Y-87871255D01*
X160698836Y-87885634D01*
X153364301Y-80551099D01*
X153117739Y-80386352D01*
X152826900Y-80328500D01*
X152299300Y-80328500D01*
X152299300Y-67652291D01*
X152374155Y-67472021D01*
X152374445Y-67139837D01*
X152275655Y-66900747D01*
X154576409Y-64599993D01*
X154750363Y-64600145D01*
X155057372Y-64473292D01*
X155292466Y-64238607D01*
X155419855Y-63931821D01*
X155420145Y-63599637D01*
X155293292Y-63292628D01*
X155058607Y-63057534D01*
X154751821Y-62930145D01*
X154419637Y-62929855D01*
X154146028Y-63042907D01*
X154045761Y-63062852D01*
X153799199Y-63227599D01*
X150691400Y-66335398D01*
X150691400Y-63826102D01*
X151130000Y-63913345D01*
X151703489Y-63799271D01*
X152189670Y-63474415D01*
X152514526Y-62988234D01*
X152628600Y-62414745D01*
X152628600Y-62045255D01*
X152514526Y-61471766D01*
X152189670Y-60985585D01*
X151703489Y-60660729D01*
X151130000Y-60546655D01*
X150556511Y-60660729D01*
X150199547Y-60899245D01*
X149624801Y-60324499D01*
X149378239Y-60159752D01*
X149087400Y-60101900D01*
X144878100Y-60101900D01*
X144587261Y-60159752D01*
X144340699Y-60324499D01*
X144098638Y-60566560D01*
X142646400Y-60566560D01*
X142411083Y-60610838D01*
X142194959Y-60749910D01*
X142049969Y-60962110D01*
X141998960Y-61214000D01*
X141998960Y-63246000D01*
X142043238Y-63481317D01*
X142182310Y-63697441D01*
X142394510Y-63842431D01*
X142646400Y-63893440D01*
X144373600Y-63893440D01*
X144608917Y-63849162D01*
X144825041Y-63710090D01*
X144970031Y-63497890D01*
X144989232Y-63403073D01*
X145147964Y-63580732D01*
X145675209Y-63834709D01*
X145690974Y-63837358D01*
X145923000Y-63716217D01*
X145923000Y-62357000D01*
X146177000Y-62357000D01*
X146177000Y-63716217D01*
X146409026Y-63837358D01*
X146424791Y-63834709D01*
X146952036Y-63580732D01*
X147320000Y-63168892D01*
X147687964Y-63580732D01*
X148215209Y-63834709D01*
X148230974Y-63837358D01*
X148463000Y-63716217D01*
X148463000Y-62357000D01*
X146177000Y-62357000D01*
X145923000Y-62357000D01*
X145903000Y-62357000D01*
X145903000Y-62103000D01*
X145923000Y-62103000D01*
X145923000Y-62083000D01*
X146177000Y-62083000D01*
X146177000Y-62103000D01*
X148463000Y-62103000D01*
X148463000Y-62083000D01*
X148717000Y-62083000D01*
X148717000Y-62103000D01*
X148737000Y-62103000D01*
X148737000Y-62357000D01*
X148717000Y-62357000D01*
X148717000Y-63716217D01*
X148949026Y-63837358D01*
X148964791Y-63834709D01*
X149171400Y-63735184D01*
X149171400Y-65195286D01*
X149137307Y-65161134D01*
X148830521Y-65033745D01*
X148498337Y-65033455D01*
X148191328Y-65160308D01*
X147956234Y-65394993D01*
X147902116Y-65525324D01*
X147673621Y-65430445D01*
X147341437Y-65430155D01*
X147034428Y-65557008D01*
X146799334Y-65791693D01*
X146723871Y-65973427D01*
X142267899Y-70429399D01*
X142103152Y-70675961D01*
X142045300Y-70966800D01*
X142045300Y-73066509D01*
X141998589Y-73179000D01*
X137894000Y-73179000D01*
X137894000Y-72647054D01*
X138055209Y-72724709D01*
X138070974Y-72727358D01*
X138303000Y-72606217D01*
X138303000Y-71247000D01*
X138283000Y-71247000D01*
X138283000Y-70993000D01*
X138303000Y-70993000D01*
X138303000Y-70973000D01*
X138557000Y-70973000D01*
X138557000Y-70993000D01*
X138577000Y-70993000D01*
X138577000Y-71247000D01*
X138557000Y-71247000D01*
X138557000Y-72606217D01*
X138789026Y-72727358D01*
X138804791Y-72724709D01*
X139332036Y-72470732D01*
X139721954Y-72034320D01*
X139915184Y-71481913D01*
X139795615Y-71287208D01*
X139953063Y-71287345D01*
X140260072Y-71160492D01*
X140495166Y-70925807D01*
X140622555Y-70619021D01*
X140622845Y-70286837D01*
X140495992Y-69979828D01*
X140261307Y-69744734D01*
X140079573Y-69669271D01*
X127085901Y-56675599D01*
X126839339Y-56510852D01*
X126548500Y-56453000D01*
X95890700Y-56453000D01*
X95599861Y-56510852D01*
X95353299Y-56675599D01*
X94631599Y-57397299D01*
X94466852Y-57643861D01*
X94409000Y-57934700D01*
X94409000Y-61480200D01*
X94466852Y-61771039D01*
X94631599Y-62017601D01*
X95186962Y-62572964D01*
X94950729Y-62926511D01*
X94836655Y-63500000D01*
X94950729Y-64073489D01*
X95275585Y-64559670D01*
X95297780Y-64574500D01*
X95144302Y-64638073D01*
X94965673Y-64816701D01*
X94869000Y-65050090D01*
X94869000Y-65754250D01*
X95027750Y-65913000D01*
X96393000Y-65913000D01*
X96393000Y-65893000D01*
X96647000Y-65893000D01*
X96647000Y-65913000D01*
X98012250Y-65913000D01*
X98171000Y-65754250D01*
X98171000Y-65055750D01*
X107569000Y-65055750D01*
X107569000Y-65759910D01*
X107665673Y-65993299D01*
X107844302Y-66171927D01*
X108077691Y-66268600D01*
X108934250Y-66268600D01*
X109093000Y-66109850D01*
X109093000Y-64897000D01*
X107727750Y-64897000D01*
X107569000Y-65055750D01*
X98171000Y-65055750D01*
X98171000Y-65050090D01*
X98074327Y-64816701D01*
X97895698Y-64638073D01*
X97742220Y-64574500D01*
X97764415Y-64559670D01*
X98089271Y-64073489D01*
X98203345Y-63500000D01*
X98089271Y-62926511D01*
X97764415Y-62440330D01*
X97449634Y-62230000D01*
X97764415Y-62019670D01*
X98089271Y-61533489D01*
X98203345Y-60960000D01*
X98093996Y-60410267D01*
X98246301Y-60308501D01*
X99324102Y-59230700D01*
X107628015Y-59230700D01*
X107536655Y-59690000D01*
X107650729Y-60263489D01*
X107975585Y-60749670D01*
X108290366Y-60960000D01*
X107975585Y-61170330D01*
X107650729Y-61656511D01*
X107536655Y-62230000D01*
X107650729Y-62803489D01*
X107975585Y-63289670D01*
X107997780Y-63304500D01*
X107844302Y-63368073D01*
X107665673Y-63546701D01*
X107569000Y-63780090D01*
X107569000Y-64484250D01*
X107727750Y-64643000D01*
X109093000Y-64643000D01*
X109093000Y-64623000D01*
X109347000Y-64623000D01*
X109347000Y-64643000D01*
X109367000Y-64643000D01*
X109367000Y-64897000D01*
X109347000Y-64897000D01*
X109347000Y-66109850D01*
X109505750Y-66268600D01*
X110362309Y-66268600D01*
X110595698Y-66171927D01*
X110774327Y-65993299D01*
X110871000Y-65759910D01*
X110871000Y-65104402D01*
X115428600Y-69662002D01*
X115428600Y-78009703D01*
X115181728Y-78111708D01*
X114946634Y-78346393D01*
X114871171Y-78528127D01*
X109037599Y-84361699D01*
X108872852Y-84608261D01*
X108815000Y-84899100D01*
X108815000Y-96164109D01*
X108740145Y-96344379D01*
X108739855Y-96676563D01*
X108866708Y-96983572D01*
X109101393Y-97218666D01*
X109408179Y-97346055D01*
X109740363Y-97346345D01*
X110047372Y-97219492D01*
X110282466Y-96984807D01*
X110409855Y-96678021D01*
X110410145Y-96345837D01*
X110335000Y-96163971D01*
X110335000Y-85213902D01*
X115428600Y-80120302D01*
X115428600Y-87801498D01*
X114232099Y-88997999D01*
X114067352Y-89244561D01*
X114009500Y-89535400D01*
X114009500Y-94690600D01*
X114067352Y-94981439D01*
X114232099Y-95228001D01*
X118112198Y-99108100D01*
X97991305Y-99108100D01*
X98109672Y-99059192D01*
X98344766Y-98824507D01*
X98472155Y-98517721D01*
X98472445Y-98185537D01*
X98345592Y-97878528D01*
X98110907Y-97643434D01*
X97929173Y-97567971D01*
X96327401Y-95966199D01*
X96080839Y-95801452D01*
X95790000Y-95743600D01*
X94689991Y-95743600D01*
X94509721Y-95668745D01*
X94177537Y-95668455D01*
X93870528Y-95795308D01*
X93635434Y-96029993D01*
X93508045Y-96336779D01*
X93507755Y-96668963D01*
X93634608Y-96975972D01*
X93869293Y-97211066D01*
X94176079Y-97338455D01*
X94508263Y-97338745D01*
X94690129Y-97263600D01*
X95475198Y-97263600D01*
X96186365Y-97974767D01*
X95943437Y-97974555D01*
X95636428Y-98101408D01*
X95401334Y-98336093D01*
X95273945Y-98642879D01*
X95273655Y-98975063D01*
X95400508Y-99282072D01*
X95635193Y-99517166D01*
X95816927Y-99592629D01*
X96629799Y-100405501D01*
X96876361Y-100570248D01*
X97167200Y-100628100D01*
X128640098Y-100628100D01*
X133453598Y-105441600D01*
X131419902Y-105441600D01*
X128911801Y-102933499D01*
X128665239Y-102768752D01*
X128374400Y-102710900D01*
X113026200Y-102710900D01*
X112783614Y-102759154D01*
X112735360Y-102768752D01*
X112488799Y-102933499D01*
X109952599Y-105469699D01*
X109787852Y-105716261D01*
X109730000Y-106007100D01*
X109730000Y-109406769D01*
X109699697Y-109419290D01*
X109306371Y-109811930D01*
X109093243Y-110325200D01*
X109092758Y-110880961D01*
X109106143Y-110913355D01*
X108824199Y-111195299D01*
X108659452Y-111441861D01*
X108601600Y-111732700D01*
X108601600Y-118237000D01*
X89429290Y-118237000D01*
X90408761Y-117832291D01*
X91159655Y-117082707D01*
X91566536Y-116102827D01*
X91567462Y-115041828D01*
X91162291Y-114061239D01*
X90412707Y-113310345D01*
X89432827Y-112903464D01*
X88371828Y-112902538D01*
X87391239Y-113307709D01*
X86640345Y-114057293D01*
X86233464Y-115037173D01*
X86232538Y-116098172D01*
X86637709Y-117078761D01*
X87387293Y-117829655D01*
X88367173Y-118236536D01*
X88898818Y-118237000D01*
X85685000Y-118237000D01*
X85685000Y-102659963D01*
X98654355Y-102659963D01*
X98781208Y-102966972D01*
X99015893Y-103202066D01*
X99322679Y-103329455D01*
X99538946Y-103329644D01*
X99570900Y-103336000D01*
X102067909Y-103336000D01*
X102248179Y-103410855D01*
X102580363Y-103411145D01*
X102887372Y-103284292D01*
X103122466Y-103049607D01*
X103249855Y-102742821D01*
X103250145Y-102410637D01*
X103123292Y-102103628D01*
X102888607Y-101868534D01*
X102581821Y-101741145D01*
X102249637Y-101740855D01*
X102067771Y-101816000D01*
X99991923Y-101816000D01*
X99963107Y-101787134D01*
X99656321Y-101659745D01*
X99324137Y-101659455D01*
X99017128Y-101786308D01*
X98782034Y-102020993D01*
X98654645Y-102327779D01*
X98654355Y-102659963D01*
X85685000Y-102659963D01*
X85685000Y-81565750D01*
X89687400Y-81565750D01*
X89687400Y-82523910D01*
X89784073Y-82757299D01*
X89962702Y-82935927D01*
X90196091Y-83032600D01*
X91154250Y-83032600D01*
X91313000Y-82873850D01*
X91313000Y-81407000D01*
X91567000Y-81407000D01*
X91567000Y-82873850D01*
X91725750Y-83032600D01*
X92683909Y-83032600D01*
X92917298Y-82935927D01*
X93095927Y-82757299D01*
X93192600Y-82523910D01*
X93192600Y-81565750D01*
X93033850Y-81407000D01*
X91567000Y-81407000D01*
X91313000Y-81407000D01*
X89846150Y-81407000D01*
X89687400Y-81565750D01*
X85685000Y-81565750D01*
X85685000Y-80036090D01*
X89687400Y-80036090D01*
X89687400Y-80994250D01*
X89846150Y-81153000D01*
X91313000Y-81153000D01*
X91313000Y-79686150D01*
X91567000Y-79686150D01*
X91567000Y-81153000D01*
X93033850Y-81153000D01*
X93192600Y-80994250D01*
X93192600Y-80036090D01*
X93095927Y-79802701D01*
X92917298Y-79624073D01*
X92683909Y-79527400D01*
X91725750Y-79527400D01*
X91567000Y-79686150D01*
X91313000Y-79686150D01*
X91154250Y-79527400D01*
X90196091Y-79527400D01*
X89962702Y-79624073D01*
X89784073Y-79802701D01*
X89687400Y-80036090D01*
X85685000Y-80036090D01*
X85685000Y-66325750D01*
X94869000Y-66325750D01*
X94869000Y-67029910D01*
X94965673Y-67263299D01*
X95144302Y-67441927D01*
X95377691Y-67538600D01*
X96234250Y-67538600D01*
X96393000Y-67379850D01*
X96393000Y-66167000D01*
X96647000Y-66167000D01*
X96647000Y-67379850D01*
X96805750Y-67538600D01*
X97662309Y-67538600D01*
X97895698Y-67441927D01*
X98074327Y-67263299D01*
X98171000Y-67029910D01*
X98171000Y-66325750D01*
X98012250Y-66167000D01*
X96647000Y-66167000D01*
X96393000Y-66167000D01*
X95027750Y-66167000D01*
X94869000Y-66325750D01*
X85685000Y-66325750D01*
X85685000Y-51185000D01*
X87283760Y-51185000D01*
X86640345Y-51827293D01*
X86640345Y-51827293D01*
G37*
X86640345Y-51827293D02*
X86233464Y-52807173D01*
X86232538Y-53868172D01*
X86637709Y-54848761D01*
X87387293Y-55599655D01*
X88367173Y-56006536D01*
X89428172Y-56007462D01*
X90408761Y-55602291D01*
X91159655Y-54852707D01*
X91566536Y-53872827D01*
X91567462Y-52811828D01*
X91162291Y-51831239D01*
X90517179Y-51185000D01*
X215553760Y-51185000D01*
X214910345Y-51827293D01*
X214503464Y-52807173D01*
X214502538Y-53868172D01*
X214907709Y-54848761D01*
X215657293Y-55599655D01*
X216637173Y-56006536D01*
X217698172Y-56007462D01*
X218678761Y-55602291D01*
X219429655Y-54852707D01*
X219836536Y-53872827D01*
X219837462Y-52811828D01*
X219432291Y-51831239D01*
X218787179Y-51185000D01*
X220315000Y-51185000D01*
X220315000Y-118237000D01*
X217699290Y-118237000D01*
X218678761Y-117832291D01*
X219429655Y-117082707D01*
X219836536Y-116102827D01*
X219837462Y-115041828D01*
X219432291Y-114061239D01*
X218682707Y-113310345D01*
X217702827Y-112903464D01*
X216641828Y-112902538D01*
X215661239Y-113307709D01*
X214910345Y-114057293D01*
X214503464Y-115037173D01*
X214502538Y-116098172D01*
X214907709Y-117078761D01*
X215657293Y-117829655D01*
X216637173Y-118236536D01*
X217168818Y-118237000D01*
X186898800Y-118237000D01*
X186898800Y-116883702D01*
X187061301Y-116721201D01*
X187226048Y-116474639D01*
X187283900Y-116183800D01*
X187283900Y-112795500D01*
X187270604Y-112728655D01*
X187226048Y-112504660D01*
X187061301Y-112258099D01*
X186633502Y-111830300D01*
X186778431Y-111618190D01*
X186829440Y-111366300D01*
X186829440Y-109842300D01*
X186785162Y-109606983D01*
X186646090Y-109390859D01*
X186433890Y-109245869D01*
X186182000Y-109194860D01*
X184658000Y-109194860D01*
X184422683Y-109239138D01*
X184206559Y-109378210D01*
X184061569Y-109590410D01*
X184024508Y-109773424D01*
X183672370Y-109420671D01*
X183159100Y-109207543D01*
X182603339Y-109207058D01*
X182089697Y-109419290D01*
X181696371Y-109811930D01*
X181610051Y-110019812D01*
X181525010Y-109813997D01*
X181132370Y-109420671D01*
X180619100Y-109207543D01*
X180063339Y-109207058D01*
X179549697Y-109419290D01*
X179412024Y-109556722D01*
X171888401Y-102033099D01*
X171641839Y-101868352D01*
X171351000Y-101810500D01*
X169455202Y-101810500D01*
X171575270Y-99690432D01*
X171630529Y-99667600D01*
X180152200Y-99667600D01*
X180443039Y-99609748D01*
X180689601Y-99445001D01*
X182400736Y-97733866D01*
X182425493Y-97758666D01*
X182732279Y-97886055D01*
X183064463Y-97886345D01*
X183371472Y-97759492D01*
X183606566Y-97524807D01*
X183682029Y-97343073D01*
X187377115Y-93647987D01*
X187492993Y-93764066D01*
X187799779Y-93891455D01*
X188131963Y-93891745D01*
X188438972Y-93764892D01*
X188674066Y-93530207D01*
X188801455Y-93223421D01*
X188801745Y-92891237D01*
X188726600Y-92709371D01*
X188726600Y-87521602D01*
X188779170Y-87469032D01*
X188959572Y-87394492D01*
X189194666Y-87159807D01*
X189322055Y-86853021D01*
X189322345Y-86520837D01*
X189247200Y-86338971D01*
X189247200Y-74429100D01*
X189189348Y-74138261D01*
X189024601Y-73891699D01*
X187476032Y-72343130D01*
X187401492Y-72162728D01*
X187166807Y-71927634D01*
X186921400Y-71825732D01*
X186921400Y-70252810D01*
X187076063Y-70252945D01*
X187383072Y-70126092D01*
X187618166Y-69891407D01*
X187693629Y-69709673D01*
X188677102Y-68726200D01*
X190049068Y-68726200D01*
X190169708Y-69018172D01*
X190404393Y-69253266D01*
X190586127Y-69328729D01*
X195112200Y-73854802D01*
X195112200Y-92631900D01*
X195170052Y-92922739D01*
X195321526Y-93149437D01*
X195400708Y-93341072D01*
X195635393Y-93576166D01*
X195942179Y-93703555D01*
X196274363Y-93703845D01*
X196581372Y-93576992D01*
X196736785Y-93421850D01*
X196913393Y-93598766D01*
X197220179Y-93726155D01*
X197552363Y-93726445D01*
X197859372Y-93599592D01*
X198094466Y-93364907D01*
X198212837Y-93079839D01*
X198645099Y-93512101D01*
X198749082Y-93581580D01*
X198849493Y-93682166D01*
X199156279Y-93809555D01*
X199488463Y-93809845D01*
X199795472Y-93682992D01*
X200030566Y-93448307D01*
X200157955Y-93141521D01*
X200158245Y-92809337D01*
X200031392Y-92502328D01*
X199796707Y-92267234D01*
X199489921Y-92139845D01*
X199422388Y-92139786D01*
X199046470Y-91763868D01*
X199096629Y-91643073D01*
X199375201Y-91364501D01*
X199539948Y-91117940D01*
X199559857Y-91017851D01*
X199719793Y-91178066D01*
X200026579Y-91305455D01*
X200358763Y-91305745D01*
X200665772Y-91178892D01*
X200843000Y-91001972D01*
X200843000Y-92140675D01*
X200745628Y-92180908D01*
X200510534Y-92415593D01*
X200383145Y-92722379D01*
X200382855Y-93054563D01*
X200509708Y-93361572D01*
X200744393Y-93596666D01*
X201051179Y-93724055D01*
X201383363Y-93724345D01*
X201488040Y-93681093D01*
X201556993Y-93750166D01*
X201863779Y-93877555D01*
X202195963Y-93877845D01*
X202502972Y-93750992D01*
X202738066Y-93516307D01*
X202848625Y-93250053D01*
X202913848Y-93152439D01*
X202971700Y-92861600D01*
X202971700Y-90843414D01*
X203122029Y-90781300D01*
X203734898Y-90781300D01*
X206465699Y-93512101D01*
X206712261Y-93676848D01*
X207003100Y-93734700D01*
X207873909Y-93734700D01*
X208054179Y-93809555D01*
X208386363Y-93809845D01*
X208693372Y-93682992D01*
X208928466Y-93448307D01*
X209055855Y-93141521D01*
X209056145Y-92809337D01*
X208929292Y-92502328D01*
X208694607Y-92267234D01*
X208387821Y-92139845D01*
X208055637Y-92139555D01*
X207873771Y-92214700D01*
X207317902Y-92214700D01*
X204872490Y-89769288D01*
X205084972Y-89681492D01*
X205320066Y-89446807D01*
X205395529Y-89265073D01*
X208273801Y-86386801D01*
X208438548Y-86140240D01*
X208496400Y-85849400D01*
X208496400Y-81150229D01*
X208782072Y-81032192D01*
X209017166Y-80797507D01*
X209144555Y-80490721D01*
X209144845Y-80158537D01*
X209069700Y-79976671D01*
X209069700Y-72126900D01*
X209011848Y-71836061D01*
X208847101Y-71589499D01*
X201679132Y-64421530D01*
X201604592Y-64241128D01*
X201369907Y-64006034D01*
X201117600Y-63901267D01*
X201117600Y-59605196D01*
X201132372Y-59599092D01*
X201367466Y-59364407D01*
X201494855Y-59057621D01*
X201495145Y-58725437D01*
X201368292Y-58418428D01*
X201133607Y-58183334D01*
X200951873Y-58107871D01*
X198234101Y-55390099D01*
X197987539Y-55225352D01*
X197696700Y-55167500D01*
X174039500Y-55167500D01*
X173748660Y-55225352D01*
X173502099Y-55390099D01*
X171113130Y-57779068D01*
X170932728Y-57853608D01*
X170697634Y-58088293D01*
X170622171Y-58270027D01*
X164195999Y-64696199D01*
X164031252Y-64942761D01*
X163973400Y-65233600D01*
X163973400Y-78229500D01*
X158738900Y-78229500D01*
X158448061Y-78287352D01*
X158201499Y-78452099D01*
X158074900Y-78578698D01*
X158074900Y-66766291D01*
X158149755Y-66586021D01*
X158150045Y-66253837D01*
X158023192Y-65946828D01*
X157788507Y-65711734D01*
X157481721Y-65584345D01*
X157149537Y-65584055D01*
X156842528Y-65710908D01*
X156607434Y-65945593D01*
X156480045Y-66252379D01*
X156479755Y-66584563D01*
X156554900Y-66766429D01*
X156554900Y-80911700D01*
X156612752Y-81202539D01*
X156777499Y-81449101D01*
X157501768Y-82173370D01*
X157576308Y-82353772D01*
X157810993Y-82588866D01*
X158117779Y-82716255D01*
X158449963Y-82716545D01*
X158756972Y-82589692D01*
X158992066Y-82355007D01*
X159119455Y-82048221D01*
X159119745Y-81716037D01*
X158992892Y-81409028D01*
X158758207Y-81173934D01*
X158576473Y-81098471D01*
X158074900Y-80596898D01*
X158074900Y-80589188D01*
X158139663Y-80589245D01*
X158446672Y-80462392D01*
X158681766Y-80227707D01*
X158757229Y-80045973D01*
X159053702Y-79749500D01*
X164418598Y-79749500D01*
X167246368Y-82577270D01*
X167320908Y-82757672D01*
X167529818Y-82966946D01*
X167529555Y-83267963D01*
X167604700Y-83449829D01*
X167604700Y-87458498D01*
X161431900Y-93631298D01*
X161431900Y-89354269D01*
X161606466Y-89180007D01*
X161733855Y-88873221D01*
X161734145Y-88541037D01*
X161607292Y-88234028D01*
X161372607Y-87998934D01*
X161065821Y-87871545D01*
X160733637Y-87871255D01*
X160698836Y-87885634D01*
X153364301Y-80551099D01*
X153117739Y-80386352D01*
X152826900Y-80328500D01*
X152299300Y-80328500D01*
X152299300Y-67652291D01*
X152374155Y-67472021D01*
X152374445Y-67139837D01*
X152275655Y-66900747D01*
X154576409Y-64599993D01*
X154750363Y-64600145D01*
X155057372Y-64473292D01*
X155292466Y-64238607D01*
X155419855Y-63931821D01*
X155420145Y-63599637D01*
X155293292Y-63292628D01*
X155058607Y-63057534D01*
X154751821Y-62930145D01*
X154419637Y-62929855D01*
X154146028Y-63042907D01*
X154045761Y-63062852D01*
X153799199Y-63227599D01*
X150691400Y-66335398D01*
X150691400Y-63826102D01*
X151130000Y-63913345D01*
X151703489Y-63799271D01*
X152189670Y-63474415D01*
X152514526Y-62988234D01*
X152628600Y-62414745D01*
X152628600Y-62045255D01*
X152514526Y-61471766D01*
X152189670Y-60985585D01*
X151703489Y-60660729D01*
X151130000Y-60546655D01*
X150556511Y-60660729D01*
X150199547Y-60899245D01*
X149624801Y-60324499D01*
X149378239Y-60159752D01*
X149087400Y-60101900D01*
X144878100Y-60101900D01*
X144587261Y-60159752D01*
X144340699Y-60324499D01*
X144098638Y-60566560D01*
X142646400Y-60566560D01*
X142411083Y-60610838D01*
X142194959Y-60749910D01*
X142049969Y-60962110D01*
X141998960Y-61214000D01*
X141998960Y-63246000D01*
X142043238Y-63481317D01*
X142182310Y-63697441D01*
X142394510Y-63842431D01*
X142646400Y-63893440D01*
X144373600Y-63893440D01*
X144608917Y-63849162D01*
X144825041Y-63710090D01*
X144970031Y-63497890D01*
X144989232Y-63403073D01*
X145147964Y-63580732D01*
X145675209Y-63834709D01*
X145690974Y-63837358D01*
X145923000Y-63716217D01*
X145923000Y-62357000D01*
X146177000Y-62357000D01*
X146177000Y-63716217D01*
X146409026Y-63837358D01*
X146424791Y-63834709D01*
X146952036Y-63580732D01*
X147320000Y-63168892D01*
X147687964Y-63580732D01*
X148215209Y-63834709D01*
X148230974Y-63837358D01*
X148463000Y-63716217D01*
X148463000Y-62357000D01*
X146177000Y-62357000D01*
X145923000Y-62357000D01*
X145903000Y-62357000D01*
X145903000Y-62103000D01*
X145923000Y-62103000D01*
X145923000Y-62083000D01*
X146177000Y-62083000D01*
X146177000Y-62103000D01*
X148463000Y-62103000D01*
X148463000Y-62083000D01*
X148717000Y-62083000D01*
X148717000Y-62103000D01*
X148737000Y-62103000D01*
X148737000Y-62357000D01*
X148717000Y-62357000D01*
X148717000Y-63716217D01*
X148949026Y-63837358D01*
X148964791Y-63834709D01*
X149171400Y-63735184D01*
X149171400Y-65195286D01*
X149137307Y-65161134D01*
X148830521Y-65033745D01*
X148498337Y-65033455D01*
X148191328Y-65160308D01*
X147956234Y-65394993D01*
X147902116Y-65525324D01*
X147673621Y-65430445D01*
X147341437Y-65430155D01*
X147034428Y-65557008D01*
X146799334Y-65791693D01*
X146723871Y-65973427D01*
X142267899Y-70429399D01*
X142103152Y-70675961D01*
X142045300Y-70966800D01*
X142045300Y-73066509D01*
X141998589Y-73179000D01*
X137894000Y-73179000D01*
X137894000Y-72647054D01*
X138055209Y-72724709D01*
X138070974Y-72727358D01*
X138303000Y-72606217D01*
X138303000Y-71247000D01*
X138283000Y-71247000D01*
X138283000Y-70993000D01*
X138303000Y-70993000D01*
X138303000Y-70973000D01*
X138557000Y-70973000D01*
X138557000Y-70993000D01*
X138577000Y-70993000D01*
X138577000Y-71247000D01*
X138557000Y-71247000D01*
X138557000Y-72606217D01*
X138789026Y-72727358D01*
X138804791Y-72724709D01*
X139332036Y-72470732D01*
X139721954Y-72034320D01*
X139915184Y-71481913D01*
X139795615Y-71287208D01*
X139953063Y-71287345D01*
X140260072Y-71160492D01*
X140495166Y-70925807D01*
X140622555Y-70619021D01*
X140622845Y-70286837D01*
X140495992Y-69979828D01*
X140261307Y-69744734D01*
X140079573Y-69669271D01*
X127085901Y-56675599D01*
X126839339Y-56510852D01*
X126548500Y-56453000D01*
X95890700Y-56453000D01*
X95599861Y-56510852D01*
X95353299Y-56675599D01*
X94631599Y-57397299D01*
X94466852Y-57643861D01*
X94409000Y-57934700D01*
X94409000Y-61480200D01*
X94466852Y-61771039D01*
X94631599Y-62017601D01*
X95186962Y-62572964D01*
X94950729Y-62926511D01*
X94836655Y-63500000D01*
X94950729Y-64073489D01*
X95275585Y-64559670D01*
X95297780Y-64574500D01*
X95144302Y-64638073D01*
X94965673Y-64816701D01*
X94869000Y-65050090D01*
X94869000Y-65754250D01*
X95027750Y-65913000D01*
X96393000Y-65913000D01*
X96393000Y-65893000D01*
X96647000Y-65893000D01*
X96647000Y-65913000D01*
X98012250Y-65913000D01*
X98171000Y-65754250D01*
X98171000Y-65055750D01*
X107569000Y-65055750D01*
X107569000Y-65759910D01*
X107665673Y-65993299D01*
X107844302Y-66171927D01*
X108077691Y-66268600D01*
X108934250Y-66268600D01*
X109093000Y-66109850D01*
X109093000Y-64897000D01*
X107727750Y-64897000D01*
X107569000Y-65055750D01*
X98171000Y-65055750D01*
X98171000Y-65050090D01*
X98074327Y-64816701D01*
X97895698Y-64638073D01*
X97742220Y-64574500D01*
X97764415Y-64559670D01*
X98089271Y-64073489D01*
X98203345Y-63500000D01*
X98089271Y-62926511D01*
X97764415Y-62440330D01*
X97449634Y-62230000D01*
X97764415Y-62019670D01*
X98089271Y-61533489D01*
X98203345Y-60960000D01*
X98093996Y-60410267D01*
X98246301Y-60308501D01*
X99324102Y-59230700D01*
X107628015Y-59230700D01*
X107536655Y-59690000D01*
X107650729Y-60263489D01*
X107975585Y-60749670D01*
X108290366Y-60960000D01*
X107975585Y-61170330D01*
X107650729Y-61656511D01*
X107536655Y-62230000D01*
X107650729Y-62803489D01*
X107975585Y-63289670D01*
X107997780Y-63304500D01*
X107844302Y-63368073D01*
X107665673Y-63546701D01*
X107569000Y-63780090D01*
X107569000Y-64484250D01*
X107727750Y-64643000D01*
X109093000Y-64643000D01*
X109093000Y-64623000D01*
X109347000Y-64623000D01*
X109347000Y-64643000D01*
X109367000Y-64643000D01*
X109367000Y-64897000D01*
X109347000Y-64897000D01*
X109347000Y-66109850D01*
X109505750Y-66268600D01*
X110362309Y-66268600D01*
X110595698Y-66171927D01*
X110774327Y-65993299D01*
X110871000Y-65759910D01*
X110871000Y-65104402D01*
X115428600Y-69662002D01*
X115428600Y-78009703D01*
X115181728Y-78111708D01*
X114946634Y-78346393D01*
X114871171Y-78528127D01*
X109037599Y-84361699D01*
X108872852Y-84608261D01*
X108815000Y-84899100D01*
X108815000Y-96164109D01*
X108740145Y-96344379D01*
X108739855Y-96676563D01*
X108866708Y-96983572D01*
X109101393Y-97218666D01*
X109408179Y-97346055D01*
X109740363Y-97346345D01*
X110047372Y-97219492D01*
X110282466Y-96984807D01*
X110409855Y-96678021D01*
X110410145Y-96345837D01*
X110335000Y-96163971D01*
X110335000Y-85213902D01*
X115428600Y-80120302D01*
X115428600Y-87801498D01*
X114232099Y-88997999D01*
X114067352Y-89244561D01*
X114009500Y-89535400D01*
X114009500Y-94690600D01*
X114067352Y-94981439D01*
X114232099Y-95228001D01*
X118112198Y-99108100D01*
X97991305Y-99108100D01*
X98109672Y-99059192D01*
X98344766Y-98824507D01*
X98472155Y-98517721D01*
X98472445Y-98185537D01*
X98345592Y-97878528D01*
X98110907Y-97643434D01*
X97929173Y-97567971D01*
X96327401Y-95966199D01*
X96080839Y-95801452D01*
X95790000Y-95743600D01*
X94689991Y-95743600D01*
X94509721Y-95668745D01*
X94177537Y-95668455D01*
X93870528Y-95795308D01*
X93635434Y-96029993D01*
X93508045Y-96336779D01*
X93507755Y-96668963D01*
X93634608Y-96975972D01*
X93869293Y-97211066D01*
X94176079Y-97338455D01*
X94508263Y-97338745D01*
X94690129Y-97263600D01*
X95475198Y-97263600D01*
X96186365Y-97974767D01*
X95943437Y-97974555D01*
X95636428Y-98101408D01*
X95401334Y-98336093D01*
X95273945Y-98642879D01*
X95273655Y-98975063D01*
X95400508Y-99282072D01*
X95635193Y-99517166D01*
X95816927Y-99592629D01*
X96629799Y-100405501D01*
X96876361Y-100570248D01*
X97167200Y-100628100D01*
X128640098Y-100628100D01*
X133453598Y-105441600D01*
X131419902Y-105441600D01*
X128911801Y-102933499D01*
X128665239Y-102768752D01*
X128374400Y-102710900D01*
X113026200Y-102710900D01*
X112783614Y-102759154D01*
X112735360Y-102768752D01*
X112488799Y-102933499D01*
X109952599Y-105469699D01*
X109787852Y-105716261D01*
X109730000Y-106007100D01*
X109730000Y-109406769D01*
X109699697Y-109419290D01*
X109306371Y-109811930D01*
X109093243Y-110325200D01*
X109092758Y-110880961D01*
X109106143Y-110913355D01*
X108824199Y-111195299D01*
X108659452Y-111441861D01*
X108601600Y-111732700D01*
X108601600Y-118237000D01*
X89429290Y-118237000D01*
X90408761Y-117832291D01*
X91159655Y-117082707D01*
X91566536Y-116102827D01*
X91567462Y-115041828D01*
X91162291Y-114061239D01*
X90412707Y-113310345D01*
X89432827Y-112903464D01*
X88371828Y-112902538D01*
X87391239Y-113307709D01*
X86640345Y-114057293D01*
X86233464Y-115037173D01*
X86232538Y-116098172D01*
X86637709Y-117078761D01*
X87387293Y-117829655D01*
X88367173Y-118236536D01*
X88898818Y-118237000D01*
X85685000Y-118237000D01*
X85685000Y-102659963D01*
X98654355Y-102659963D01*
X98781208Y-102966972D01*
X99015893Y-103202066D01*
X99322679Y-103329455D01*
X99538946Y-103329644D01*
X99570900Y-103336000D01*
X102067909Y-103336000D01*
X102248179Y-103410855D01*
X102580363Y-103411145D01*
X102887372Y-103284292D01*
X103122466Y-103049607D01*
X103249855Y-102742821D01*
X103250145Y-102410637D01*
X103123292Y-102103628D01*
X102888607Y-101868534D01*
X102581821Y-101741145D01*
X102249637Y-101740855D01*
X102067771Y-101816000D01*
X99991923Y-101816000D01*
X99963107Y-101787134D01*
X99656321Y-101659745D01*
X99324137Y-101659455D01*
X99017128Y-101786308D01*
X98782034Y-102020993D01*
X98654645Y-102327779D01*
X98654355Y-102659963D01*
X85685000Y-102659963D01*
X85685000Y-81565750D01*
X89687400Y-81565750D01*
X89687400Y-82523910D01*
X89784073Y-82757299D01*
X89962702Y-82935927D01*
X90196091Y-83032600D01*
X91154250Y-83032600D01*
X91313000Y-82873850D01*
X91313000Y-81407000D01*
X91567000Y-81407000D01*
X91567000Y-82873850D01*
X91725750Y-83032600D01*
X92683909Y-83032600D01*
X92917298Y-82935927D01*
X93095927Y-82757299D01*
X93192600Y-82523910D01*
X93192600Y-81565750D01*
X93033850Y-81407000D01*
X91567000Y-81407000D01*
X91313000Y-81407000D01*
X89846150Y-81407000D01*
X89687400Y-81565750D01*
X85685000Y-81565750D01*
X85685000Y-80036090D01*
X89687400Y-80036090D01*
X89687400Y-80994250D01*
X89846150Y-81153000D01*
X91313000Y-81153000D01*
X91313000Y-79686150D01*
X91567000Y-79686150D01*
X91567000Y-81153000D01*
X93033850Y-81153000D01*
X93192600Y-80994250D01*
X93192600Y-80036090D01*
X93095927Y-79802701D01*
X92917298Y-79624073D01*
X92683909Y-79527400D01*
X91725750Y-79527400D01*
X91567000Y-79686150D01*
X91313000Y-79686150D01*
X91154250Y-79527400D01*
X90196091Y-79527400D01*
X89962702Y-79624073D01*
X89784073Y-79802701D01*
X89687400Y-80036090D01*
X85685000Y-80036090D01*
X85685000Y-66325750D01*
X94869000Y-66325750D01*
X94869000Y-67029910D01*
X94965673Y-67263299D01*
X95144302Y-67441927D01*
X95377691Y-67538600D01*
X96234250Y-67538600D01*
X96393000Y-67379850D01*
X96393000Y-66167000D01*
X96647000Y-66167000D01*
X96647000Y-67379850D01*
X96805750Y-67538600D01*
X97662309Y-67538600D01*
X97895698Y-67441927D01*
X98074327Y-67263299D01*
X98171000Y-67029910D01*
X98171000Y-66325750D01*
X98012250Y-66167000D01*
X96647000Y-66167000D01*
X96393000Y-66167000D01*
X95027750Y-66167000D01*
X94869000Y-66325750D01*
X85685000Y-66325750D01*
X85685000Y-51185000D01*
X87283760Y-51185000D01*
X86640345Y-51827293D01*
G36*
X110683748Y-115441558D02*
X110669605Y-115455700D01*
X110683748Y-115469843D01*
X110504143Y-115649448D01*
X110490000Y-115635305D01*
X110475858Y-115649448D01*
X110296253Y-115469843D01*
X110310395Y-115455700D01*
X110296253Y-115441558D01*
X110475858Y-115261953D01*
X110490000Y-115276095D01*
X110504143Y-115261953D01*
X110683748Y-115441558D01*
X110683748Y-115441558D01*
G37*
X110683748Y-115441558D02*
X110669605Y-115455700D01*
X110683748Y-115469843D01*
X110504143Y-115649448D01*
X110490000Y-115635305D01*
X110475858Y-115649448D01*
X110296253Y-115469843D01*
X110310395Y-115455700D01*
X110296253Y-115441558D01*
X110475858Y-115261953D01*
X110490000Y-115276095D01*
X110504143Y-115261953D01*
X110683748Y-115441558D01*
G36*
X111829729Y-111357669D02*
X111401099Y-111786299D01*
X111236352Y-112032861D01*
X111178500Y-112323700D01*
X111178500Y-114218089D01*
X110697698Y-114046556D01*
X110142632Y-114074338D01*
X110121600Y-114083050D01*
X110121600Y-112047502D01*
X110180619Y-111988483D01*
X110210900Y-112001057D01*
X110766661Y-112001542D01*
X111280303Y-111789310D01*
X111673629Y-111396670D01*
X111759949Y-111188788D01*
X111829729Y-111357669D01*
X111829729Y-111357669D01*
G37*
X111829729Y-111357669D02*
X111401099Y-111786299D01*
X111236352Y-112032861D01*
X111178500Y-112323700D01*
X111178500Y-114218089D01*
X110697698Y-114046556D01*
X110142632Y-114074338D01*
X110121600Y-114083050D01*
X110121600Y-112047502D01*
X110180619Y-111988483D01*
X110210900Y-112001057D01*
X110766661Y-112001542D01*
X111280303Y-111789310D01*
X111673629Y-111396670D01*
X111759949Y-111188788D01*
X111829729Y-111357669D01*
G36*
X149171400Y-69596225D02*
X148972944Y-69514025D01*
X148717000Y-69633164D01*
X148717000Y-70993000D01*
X148737000Y-70993000D01*
X148737000Y-71247000D01*
X148717000Y-71247000D01*
X148717000Y-72606836D01*
X148972944Y-72725975D01*
X149171400Y-72643775D01*
X149171400Y-81726098D01*
X142732901Y-75287599D01*
X142486339Y-75122852D01*
X142195500Y-75065000D01*
X136757502Y-75065000D01*
X137126189Y-74696313D01*
X137139700Y-74699000D01*
X144572300Y-74699000D01*
X144863139Y-74641148D01*
X145109701Y-74476401D01*
X146587401Y-72998701D01*
X146731234Y-72783440D01*
X147066000Y-72783440D01*
X147301317Y-72739162D01*
X147517441Y-72600090D01*
X147628840Y-72437052D01*
X147725182Y-72526385D01*
X148207056Y-72725975D01*
X148463000Y-72606836D01*
X148463000Y-71247000D01*
X148443000Y-71247000D01*
X148443000Y-70993000D01*
X148463000Y-70993000D01*
X148463000Y-69633164D01*
X148207056Y-69514025D01*
X147725182Y-69713615D01*
X147627602Y-69804097D01*
X147530090Y-69652559D01*
X147317890Y-69507569D01*
X147066000Y-69456560D01*
X146150542Y-69456560D01*
X148955670Y-66651432D01*
X149136072Y-66576892D01*
X149171400Y-66541625D01*
X149171400Y-69596225D01*
X149171400Y-69596225D01*
G37*
X149171400Y-69596225D02*
X148972944Y-69514025D01*
X148717000Y-69633164D01*
X148717000Y-70993000D01*
X148737000Y-70993000D01*
X148737000Y-71247000D01*
X148717000Y-71247000D01*
X148717000Y-72606836D01*
X148972944Y-72725975D01*
X149171400Y-72643775D01*
X149171400Y-81726098D01*
X142732901Y-75287599D01*
X142486339Y-75122852D01*
X142195500Y-75065000D01*
X136757502Y-75065000D01*
X137126189Y-74696313D01*
X137139700Y-74699000D01*
X144572300Y-74699000D01*
X144863139Y-74641148D01*
X145109701Y-74476401D01*
X146587401Y-72998701D01*
X146731234Y-72783440D01*
X147066000Y-72783440D01*
X147301317Y-72739162D01*
X147517441Y-72600090D01*
X147628840Y-72437052D01*
X147725182Y-72526385D01*
X148207056Y-72725975D01*
X148463000Y-72606836D01*
X148463000Y-71247000D01*
X148443000Y-71247000D01*
X148443000Y-70993000D01*
X148463000Y-70993000D01*
X148463000Y-69633164D01*
X148207056Y-69514025D01*
X147725182Y-69713615D01*
X147627602Y-69804097D01*
X147530090Y-69652559D01*
X147317890Y-69507569D01*
X147066000Y-69456560D01*
X146150542Y-69456560D01*
X148955670Y-66651432D01*
X149136072Y-66576892D01*
X149171400Y-66541625D01*
X149171400Y-69596225D01*
M02*
