G04 #@! TF.FileFunction,Copper,L1,Top,Signal*
%FSLAX46Y46*%
G04 Gerber Fmt 4.6, Leading zero omitted, Abs format (unit mm)*
G04 Created by KiCad (PCBNEW 4.0.2+dfsg1-stable) date Sun 20 Jan 2019 20:02:35 CET*
%MOMM*%
G01*
G04 APERTURE LIST*
%ADD10C,0.100000*%
%ADD11C,0.381000*%
%ADD12R,2.032000X1.727200*%
%ADD13O,2.032000X1.727200*%
%ADD14R,2.032000X2.032000*%
%ADD15O,2.032000X2.032000*%
%ADD16R,1.930400X5.588000*%
%ADD17R,1.600200X2.999740*%
%ADD18R,2.000000X1.600000*%
%ADD19R,1.600000X2.000000*%
%ADD20C,1.524000*%
%ADD21R,1.524000X1.524000*%
%ADD22R,1.597660X1.800860*%
%ADD23R,1.800860X1.597660*%
%ADD24R,2.598420X1.198880*%
%ADD25R,2.600960X1.198880*%
%ADD26C,4.000000*%
%ADD27R,2.000000X1.700000*%
%ADD28R,1.700000X2.000000*%
%ADD29R,2.180000X1.600000*%
%ADD30R,0.400000X1.000000*%
%ADD31R,1.450000X0.450000*%
%ADD32R,0.450000X1.400000*%
%ADD33R,1.200000X0.400000*%
%ADD34R,2.032000X3.657600*%
%ADD35R,2.032000X1.016000*%
%ADD36R,0.700000X1.750000*%
%ADD37R,1.300000X1.500000*%
%ADD38R,0.800000X1.500000*%
%ADD39R,1.450000X1.000000*%
%ADD40R,0.800000X1.400000*%
%ADD41R,1.500000X1.500000*%
%ADD42R,1.000000X1.550000*%
%ADD43R,2.235200X2.235200*%
%ADD44R,1.500000X0.450000*%
%ADD45C,0.400000*%
%ADD46C,0.250000*%
%ADD47C,0.279800*%
%ADD48C,0.500000*%
%ADD49C,0.399800*%
%ADD50C,0.350000*%
G04 APERTURE END LIST*
D10*
D11*
X168100580Y-122299720D02*
X168100580Y-123899920D01*
X168100580Y-123899920D02*
X169299460Y-123899920D01*
X165601220Y-123899920D02*
X165601220Y-122398780D01*
X165601220Y-122398780D02*
X166500380Y-122398780D01*
X166500380Y-122398780D02*
X166701040Y-122398780D01*
X166701040Y-122398780D02*
X166899160Y-122500380D01*
X166899160Y-122500380D02*
X167000760Y-122701040D01*
X167000760Y-122701040D02*
X167000760Y-122899160D01*
X167000760Y-122899160D02*
X166800100Y-123099820D01*
X166800100Y-123099820D02*
X166500380Y-123198880D01*
X166500380Y-123198880D02*
X165601220Y-123198880D01*
X164399800Y-122500380D02*
X164199140Y-122398780D01*
X164199140Y-122398780D02*
X163698760Y-122398780D01*
X163698760Y-122398780D02*
X163399040Y-122500380D01*
X163399040Y-122500380D02*
X163200920Y-122599440D01*
X163200920Y-122599440D02*
X163000260Y-122899160D01*
X163000260Y-122899160D02*
X163000260Y-123198880D01*
X163000260Y-123198880D02*
X163099320Y-123600200D01*
X163099320Y-123600200D02*
X163399040Y-123800860D01*
X163399040Y-123800860D02*
X163698760Y-123899920D01*
X163698760Y-123899920D02*
X164001020Y-123899920D01*
X164001020Y-123899920D02*
X164498860Y-123800860D01*
X164498860Y-123800860D02*
X164498860Y-123300480D01*
X164498860Y-123300480D02*
X164001020Y-123300480D01*
X167800860Y-119800360D02*
X167800860Y-121100840D01*
X167800860Y-121100840D02*
X168100580Y-121298960D01*
X168100580Y-121298960D02*
X168400300Y-121298960D01*
X168400300Y-121298960D02*
X168799080Y-121298960D01*
X168799080Y-121298960D02*
X169098800Y-121199900D01*
X169098800Y-121199900D02*
X169299460Y-121100840D01*
X169299460Y-121100840D02*
X169299460Y-119800360D01*
X165199900Y-121298960D02*
X165199900Y-119800360D01*
X165199900Y-119800360D02*
X166701040Y-121298960D01*
X166701040Y-121298960D02*
X166701040Y-119800360D01*
X164001020Y-119899420D02*
X163698760Y-119800360D01*
X163698760Y-119800360D02*
X163200920Y-119899420D01*
X163200920Y-119899420D02*
X162799600Y-120100080D01*
X162799600Y-120100080D02*
X162598940Y-120498860D01*
X162598940Y-120498860D02*
X162700540Y-120900180D01*
X162700540Y-120900180D02*
X163000260Y-121199900D01*
X163000260Y-121199900D02*
X163500640Y-121400560D01*
X163500640Y-121400560D02*
X164199140Y-121199900D01*
X164199140Y-121199900D02*
X164199140Y-120699520D01*
X164199140Y-120699520D02*
X163698760Y-120699520D01*
X161936000Y-118952000D02*
X170064000Y-118952000D01*
X170064000Y-118952000D02*
X170064000Y-124540000D01*
X170064000Y-124540000D02*
X161936000Y-124540000D01*
X161936000Y-124540000D02*
X161936000Y-118952000D01*
X118110000Y-122519440D02*
X117510560Y-124119640D01*
X118209060Y-122621040D02*
X118610380Y-124119640D01*
X117711220Y-122219720D02*
X118508780Y-122219720D01*
X118709440Y-121920000D02*
X117711220Y-121920000D01*
X117711220Y-121620280D02*
X118508780Y-121620280D01*
X114109500Y-124119640D02*
X116111020Y-124119640D01*
X115808760Y-123819920D02*
X114211100Y-123819920D01*
X114109500Y-123520200D02*
X115610640Y-123520200D01*
X115709700Y-123220480D02*
X114109500Y-123220480D01*
X114211100Y-122920760D02*
X115610640Y-122920760D01*
X115310920Y-122621040D02*
X114211100Y-122621040D01*
X114109500Y-122318780D02*
X115110260Y-122318780D01*
X115110260Y-122019060D02*
X114109500Y-122019060D01*
X114211100Y-121719340D02*
X115110260Y-121719340D01*
X115209320Y-121419620D02*
X114211100Y-121419620D01*
X114109500Y-121119900D02*
X115610640Y-121119900D01*
X115709700Y-120820180D02*
X114211100Y-120820180D01*
X114109500Y-120721120D02*
X115509040Y-120721120D01*
X115610640Y-120418860D02*
X114211100Y-120418860D01*
X114211100Y-120119140D02*
X115610640Y-120119140D01*
X116111020Y-119819420D02*
X114310160Y-119819420D01*
X114211100Y-119519700D02*
X117210840Y-119519700D01*
X117408960Y-119219980D02*
X114211100Y-119219980D01*
X118910100Y-119219980D02*
X122008900Y-119219980D01*
X122110500Y-119420640D02*
X119009160Y-119420640D01*
X120108980Y-119720360D02*
X122008900Y-119720360D01*
X122110500Y-119921020D02*
X120411240Y-119921020D01*
X120609360Y-120220740D02*
X122008900Y-120220740D01*
X122008900Y-120520460D02*
X120710960Y-120520460D01*
X120411240Y-120820180D02*
X122110500Y-120820180D01*
X122110500Y-121119900D02*
X120510300Y-121119900D01*
X121010680Y-121419620D02*
X122110500Y-121419620D01*
X122110500Y-121719340D02*
X121109740Y-121719340D01*
X121010680Y-122019060D02*
X122110500Y-122019060D01*
X122110500Y-122318780D02*
X121010680Y-122318780D01*
X120909080Y-122621040D02*
X122008900Y-122621040D01*
X122110500Y-122920760D02*
X120411240Y-122920760D01*
X120510300Y-123220480D02*
X122008900Y-123220480D01*
X120510300Y-123520200D02*
X121909840Y-123520200D01*
X122008900Y-123819920D02*
X120510300Y-123819920D01*
X120210580Y-124119640D02*
X121909840Y-124119640D01*
X118110000Y-123520200D02*
X118310660Y-124221240D01*
X118110000Y-123421140D02*
X117909340Y-124221240D01*
X121810780Y-124419360D02*
X121909840Y-126720600D01*
X114310160Y-124419360D02*
X114310160Y-126720600D01*
X114609880Y-124419360D02*
X114609880Y-126921260D01*
X121610120Y-124419360D02*
X121610120Y-126921260D01*
X114109500Y-124419360D02*
X122110500Y-124419360D01*
X118130320Y-122600720D02*
X118099840Y-122890280D01*
X118099840Y-122890280D02*
X118668800Y-124259340D01*
X118668800Y-124259340D02*
X119110760Y-124109480D01*
X119110760Y-124109480D02*
X119148860Y-124061220D01*
X119148860Y-124061220D02*
X119540020Y-124330460D01*
X119529860Y-124289820D02*
X119730520Y-124259340D01*
X119740680Y-124299980D02*
X120418860Y-123659900D01*
X120418860Y-123659900D02*
X120510300Y-123428760D01*
X120510300Y-123428760D02*
X120241060Y-122951240D01*
X120241060Y-122951240D02*
X120269000Y-122798840D01*
X120269000Y-122798840D02*
X120949720Y-122610880D01*
X120949720Y-122610880D02*
X121010680Y-121429780D01*
X121010680Y-121429780D02*
X120340120Y-121180860D01*
X120340120Y-121180860D02*
X120269000Y-120980200D01*
X120269000Y-120980200D02*
X120540780Y-120449340D01*
X120540780Y-120449340D02*
X120418860Y-120139460D01*
X120418860Y-120139460D02*
X119778780Y-119529860D01*
X119778780Y-119529860D02*
X119570500Y-119519700D01*
X119570500Y-119519700D02*
X119148860Y-119778780D01*
X119148860Y-119778780D02*
X118971060Y-119700040D01*
X118971060Y-119700040D02*
X118750080Y-119141240D01*
X118750080Y-119141240D02*
X118729760Y-119070120D01*
X118729760Y-119070120D02*
X117558820Y-119049800D01*
X117568980Y-119009160D02*
X117320060Y-119679720D01*
X117320060Y-119679720D02*
X117200680Y-119750840D01*
X117200680Y-119750840D02*
X116499640Y-119451120D01*
X116499640Y-119451120D02*
X115648740Y-120350280D01*
X115648740Y-120350280D02*
X115920520Y-120980200D01*
X115920520Y-120980200D02*
X115879880Y-121109740D01*
X115879880Y-121109740D02*
X115359180Y-121191020D01*
X115359180Y-121191020D02*
X115209320Y-121249440D01*
X115209320Y-121249440D02*
X115239800Y-122509280D01*
X115239800Y-122509280D02*
X115879880Y-122740420D01*
X115879880Y-122740420D02*
X115910360Y-122839480D01*
X115910360Y-122839480D02*
X115610640Y-123449080D01*
X115610640Y-123449080D02*
X116431060Y-124289820D01*
X116431060Y-124289820D02*
X116540280Y-124381260D01*
X116540280Y-124381260D02*
X117129560Y-124089160D01*
X117129560Y-124089160D02*
X117391180Y-124228860D01*
X117391180Y-124228860D02*
X117619780Y-124228860D01*
X117619780Y-124228860D02*
X118160800Y-122720100D01*
X118160800Y-122720100D02*
X117919500Y-122410220D01*
X117919500Y-122410220D02*
X117840760Y-122420380D01*
X117840760Y-122420380D02*
X117629940Y-122280680D01*
X117629940Y-122280680D02*
X117490240Y-122080020D01*
X117490240Y-122080020D02*
X117530880Y-121640600D01*
X117530880Y-121640600D02*
X117810280Y-121351040D01*
X117810280Y-121351040D02*
X118170960Y-121279920D01*
X118170960Y-121279920D02*
X118508780Y-121399300D01*
X118508780Y-121399300D02*
X118739920Y-121699020D01*
X118739920Y-121699020D02*
X118729760Y-122100340D01*
X118729760Y-122100340D02*
X118620540Y-122290840D01*
X118620540Y-122290840D02*
X118110000Y-122600720D01*
X114109500Y-118920260D02*
X122110500Y-118920260D01*
X122110500Y-118920260D02*
X122110500Y-126921260D01*
X122110500Y-126921260D02*
X114109500Y-126921260D01*
X114109500Y-126921260D02*
X114109500Y-118920260D01*
X119827040Y-125001020D02*
X120187720Y-126471680D01*
X120187720Y-126471680D02*
X120467120Y-125409960D01*
X120467120Y-125409960D02*
X120777000Y-126481840D01*
X120777000Y-126481840D02*
X121117360Y-125031500D01*
X118407180Y-125691900D02*
X119197120Y-125681740D01*
X119197120Y-125681740D02*
X119207280Y-125691900D01*
X119207280Y-125691900D02*
X119207280Y-125681740D01*
X119247920Y-124970540D02*
X119247920Y-126512320D01*
X118358920Y-124960380D02*
X118358920Y-126530100D01*
X118358920Y-126530100D02*
X118369080Y-126519940D01*
X117807740Y-125061980D02*
X117457220Y-124980700D01*
X117457220Y-124980700D02*
X117137180Y-124970540D01*
X117137180Y-124970540D02*
X116898420Y-125171200D01*
X116898420Y-125171200D02*
X116867940Y-125440440D01*
X116867940Y-125440440D02*
X117109240Y-125681740D01*
X117109240Y-125681740D02*
X117497860Y-125811280D01*
X117497860Y-125811280D02*
X117678200Y-125971300D01*
X117678200Y-125971300D02*
X117718840Y-126271020D01*
X117718840Y-126271020D02*
X117487700Y-126492000D01*
X117487700Y-126492000D02*
X117167660Y-126519940D01*
X117167660Y-126519940D02*
X116817140Y-126410720D01*
X115778280Y-124960380D02*
X115529360Y-124980700D01*
X115529360Y-124980700D02*
X115288060Y-125222000D01*
X115288060Y-125222000D02*
X115199160Y-125712220D01*
X115199160Y-125712220D02*
X115227100Y-126060200D01*
X115227100Y-126060200D02*
X115427760Y-126380240D01*
X115427760Y-126380240D02*
X115679220Y-126502160D01*
X115679220Y-126502160D02*
X115989100Y-126431040D01*
X115989100Y-126431040D02*
X116207540Y-126250700D01*
X116207540Y-126250700D02*
X116278660Y-125790960D01*
X116278660Y-125790960D02*
X116227860Y-125382020D01*
X116227860Y-125382020D02*
X116118640Y-125100080D01*
X116118640Y-125100080D02*
X115757960Y-124970540D01*
D10*
G36*
X116739881Y-81982828D02*
X116541891Y-81784838D01*
X117602551Y-80724178D01*
X117800541Y-80922168D01*
X116739881Y-81982828D01*
X116739881Y-81982828D01*
G37*
G36*
X117093434Y-82336381D02*
X116895444Y-82138391D01*
X117956104Y-81077731D01*
X118154094Y-81275721D01*
X117093434Y-82336381D01*
X117093434Y-82336381D01*
G37*
G36*
X117446988Y-82689935D02*
X117248998Y-82491945D01*
X118309658Y-81431285D01*
X118507648Y-81629275D01*
X117446988Y-82689935D01*
X117446988Y-82689935D01*
G37*
G36*
X117800541Y-83043488D02*
X117602551Y-82845498D01*
X118663211Y-81784838D01*
X118861201Y-81982828D01*
X117800541Y-83043488D01*
X117800541Y-83043488D01*
G37*
G36*
X118154094Y-83397041D02*
X117956104Y-83199051D01*
X119016764Y-82138391D01*
X119214754Y-82336381D01*
X118154094Y-83397041D01*
X118154094Y-83397041D01*
G37*
G36*
X118507648Y-83750595D02*
X118309658Y-83552605D01*
X119370318Y-82491945D01*
X119568308Y-82689935D01*
X118507648Y-83750595D01*
X118507648Y-83750595D01*
G37*
G36*
X118861201Y-84104148D02*
X118663211Y-83906158D01*
X119723871Y-82845498D01*
X119921861Y-83043488D01*
X118861201Y-84104148D01*
X118861201Y-84104148D01*
G37*
G36*
X119214754Y-84457702D02*
X119016764Y-84259712D01*
X120077424Y-83199052D01*
X120275414Y-83397042D01*
X119214754Y-84457702D01*
X119214754Y-84457702D01*
G37*
G36*
X119568308Y-84811255D02*
X119370318Y-84613265D01*
X120430978Y-83552605D01*
X120628968Y-83750595D01*
X119568308Y-84811255D01*
X119568308Y-84811255D01*
G37*
G36*
X119921861Y-85164808D02*
X119723871Y-84966818D01*
X120784531Y-83906158D01*
X120982521Y-84104148D01*
X119921861Y-85164808D01*
X119921861Y-85164808D01*
G37*
G36*
X120275415Y-85518362D02*
X120077425Y-85320372D01*
X121138085Y-84259712D01*
X121336075Y-84457702D01*
X120275415Y-85518362D01*
X120275415Y-85518362D01*
G37*
G36*
X120628968Y-85871915D02*
X120430978Y-85673925D01*
X121491638Y-84613265D01*
X121689628Y-84811255D01*
X120628968Y-85871915D01*
X120628968Y-85871915D01*
G37*
G36*
X120982521Y-86225469D02*
X120784531Y-86027479D01*
X121845191Y-84966819D01*
X122043181Y-85164809D01*
X120982521Y-86225469D01*
X120982521Y-86225469D01*
G37*
G36*
X121336075Y-86579022D02*
X121138085Y-86381032D01*
X122198745Y-85320372D01*
X122396735Y-85518362D01*
X121336075Y-86579022D01*
X121336075Y-86579022D01*
G37*
G36*
X121689628Y-86932575D02*
X121491638Y-86734585D01*
X122552298Y-85673925D01*
X122750288Y-85871915D01*
X121689628Y-86932575D01*
X121689628Y-86932575D01*
G37*
G36*
X122043182Y-87286129D02*
X121845192Y-87088139D01*
X122905852Y-86027479D01*
X123103842Y-86225469D01*
X122043182Y-87286129D01*
X122043182Y-87286129D01*
G37*
G36*
X122396735Y-87639682D02*
X122198745Y-87441692D01*
X123259405Y-86381032D01*
X123457395Y-86579022D01*
X122396735Y-87639682D01*
X122396735Y-87639682D01*
G37*
G36*
X122750288Y-87993236D02*
X122552298Y-87795246D01*
X123612958Y-86734586D01*
X123810948Y-86932576D01*
X122750288Y-87993236D01*
X122750288Y-87993236D01*
G37*
G36*
X123103842Y-88346789D02*
X122905852Y-88148799D01*
X123966512Y-87088139D01*
X124164502Y-87286129D01*
X123103842Y-88346789D01*
X123103842Y-88346789D01*
G37*
G36*
X123457395Y-88700342D02*
X123259405Y-88502352D01*
X124320065Y-87441692D01*
X124518055Y-87639682D01*
X123457395Y-88700342D01*
X123457395Y-88700342D01*
G37*
G36*
X123810949Y-89053896D02*
X123612959Y-88855906D01*
X124673619Y-87795246D01*
X124871609Y-87993236D01*
X123810949Y-89053896D01*
X123810949Y-89053896D01*
G37*
G36*
X124164502Y-89407449D02*
X123966512Y-89209459D01*
X125027172Y-88148799D01*
X125225162Y-88346789D01*
X124164502Y-89407449D01*
X124164502Y-89407449D01*
G37*
G36*
X124518055Y-89761002D02*
X124320065Y-89563012D01*
X125380725Y-88502352D01*
X125578715Y-88700342D01*
X124518055Y-89761002D01*
X124518055Y-89761002D01*
G37*
G36*
X124871609Y-90114556D02*
X124673619Y-89916566D01*
X125734279Y-88855906D01*
X125932269Y-89053896D01*
X124871609Y-90114556D01*
X124871609Y-90114556D01*
G37*
G36*
X125225162Y-90468109D02*
X125027172Y-90270119D01*
X126087832Y-89209459D01*
X126285822Y-89407449D01*
X125225162Y-90468109D01*
X125225162Y-90468109D01*
G37*
G36*
X128972828Y-90270119D02*
X128774838Y-90468109D01*
X127714178Y-89407449D01*
X127912168Y-89209459D01*
X128972828Y-90270119D01*
X128972828Y-90270119D01*
G37*
G36*
X129326381Y-89916566D02*
X129128391Y-90114556D01*
X128067731Y-89053896D01*
X128265721Y-88855906D01*
X129326381Y-89916566D01*
X129326381Y-89916566D01*
G37*
G36*
X129679935Y-89563012D02*
X129481945Y-89761002D01*
X128421285Y-88700342D01*
X128619275Y-88502352D01*
X129679935Y-89563012D01*
X129679935Y-89563012D01*
G37*
G36*
X130033488Y-89209459D02*
X129835498Y-89407449D01*
X128774838Y-88346789D01*
X128972828Y-88148799D01*
X130033488Y-89209459D01*
X130033488Y-89209459D01*
G37*
G36*
X130387041Y-88855906D02*
X130189051Y-89053896D01*
X129128391Y-87993236D01*
X129326381Y-87795246D01*
X130387041Y-88855906D01*
X130387041Y-88855906D01*
G37*
G36*
X130740595Y-88502352D02*
X130542605Y-88700342D01*
X129481945Y-87639682D01*
X129679935Y-87441692D01*
X130740595Y-88502352D01*
X130740595Y-88502352D01*
G37*
G36*
X131094148Y-88148799D02*
X130896158Y-88346789D01*
X129835498Y-87286129D01*
X130033488Y-87088139D01*
X131094148Y-88148799D01*
X131094148Y-88148799D01*
G37*
G36*
X131447702Y-87795246D02*
X131249712Y-87993236D01*
X130189052Y-86932576D01*
X130387042Y-86734586D01*
X131447702Y-87795246D01*
X131447702Y-87795246D01*
G37*
G36*
X131801255Y-87441692D02*
X131603265Y-87639682D01*
X130542605Y-86579022D01*
X130740595Y-86381032D01*
X131801255Y-87441692D01*
X131801255Y-87441692D01*
G37*
G36*
X132154808Y-87088139D02*
X131956818Y-87286129D01*
X130896158Y-86225469D01*
X131094148Y-86027479D01*
X132154808Y-87088139D01*
X132154808Y-87088139D01*
G37*
G36*
X132508362Y-86734585D02*
X132310372Y-86932575D01*
X131249712Y-85871915D01*
X131447702Y-85673925D01*
X132508362Y-86734585D01*
X132508362Y-86734585D01*
G37*
G36*
X132861915Y-86381032D02*
X132663925Y-86579022D01*
X131603265Y-85518362D01*
X131801255Y-85320372D01*
X132861915Y-86381032D01*
X132861915Y-86381032D01*
G37*
G36*
X133215469Y-86027479D02*
X133017479Y-86225469D01*
X131956819Y-85164809D01*
X132154809Y-84966819D01*
X133215469Y-86027479D01*
X133215469Y-86027479D01*
G37*
G36*
X133569022Y-85673925D02*
X133371032Y-85871915D01*
X132310372Y-84811255D01*
X132508362Y-84613265D01*
X133569022Y-85673925D01*
X133569022Y-85673925D01*
G37*
G36*
X133922575Y-85320372D02*
X133724585Y-85518362D01*
X132663925Y-84457702D01*
X132861915Y-84259712D01*
X133922575Y-85320372D01*
X133922575Y-85320372D01*
G37*
G36*
X134276129Y-84966818D02*
X134078139Y-85164808D01*
X133017479Y-84104148D01*
X133215469Y-83906158D01*
X134276129Y-84966818D01*
X134276129Y-84966818D01*
G37*
G36*
X134629682Y-84613265D02*
X134431692Y-84811255D01*
X133371032Y-83750595D01*
X133569022Y-83552605D01*
X134629682Y-84613265D01*
X134629682Y-84613265D01*
G37*
G36*
X134983236Y-84259712D02*
X134785246Y-84457702D01*
X133724586Y-83397042D01*
X133922576Y-83199052D01*
X134983236Y-84259712D01*
X134983236Y-84259712D01*
G37*
G36*
X135336789Y-83906158D02*
X135138799Y-84104148D01*
X134078139Y-83043488D01*
X134276129Y-82845498D01*
X135336789Y-83906158D01*
X135336789Y-83906158D01*
G37*
G36*
X135690342Y-83552605D02*
X135492352Y-83750595D01*
X134431692Y-82689935D01*
X134629682Y-82491945D01*
X135690342Y-83552605D01*
X135690342Y-83552605D01*
G37*
G36*
X136043896Y-83199051D02*
X135845906Y-83397041D01*
X134785246Y-82336381D01*
X134983236Y-82138391D01*
X136043896Y-83199051D01*
X136043896Y-83199051D01*
G37*
G36*
X136397449Y-82845498D02*
X136199459Y-83043488D01*
X135138799Y-81982828D01*
X135336789Y-81784838D01*
X136397449Y-82845498D01*
X136397449Y-82845498D01*
G37*
G36*
X136751002Y-82491945D02*
X136553012Y-82689935D01*
X135492352Y-81629275D01*
X135690342Y-81431285D01*
X136751002Y-82491945D01*
X136751002Y-82491945D01*
G37*
G36*
X137104556Y-82138391D02*
X136906566Y-82336381D01*
X135845906Y-81275721D01*
X136043896Y-81077731D01*
X137104556Y-82138391D01*
X137104556Y-82138391D01*
G37*
G36*
X137458109Y-81784838D02*
X137260119Y-81982828D01*
X136199459Y-80922168D01*
X136397449Y-80724178D01*
X137458109Y-81784838D01*
X137458109Y-81784838D01*
G37*
G36*
X136397449Y-79295822D02*
X136199459Y-79097832D01*
X137260119Y-78037172D01*
X137458109Y-78235162D01*
X136397449Y-79295822D01*
X136397449Y-79295822D01*
G37*
G36*
X136043896Y-78942269D02*
X135845906Y-78744279D01*
X136906566Y-77683619D01*
X137104556Y-77881609D01*
X136043896Y-78942269D01*
X136043896Y-78942269D01*
G37*
G36*
X135690342Y-78588715D02*
X135492352Y-78390725D01*
X136553012Y-77330065D01*
X136751002Y-77528055D01*
X135690342Y-78588715D01*
X135690342Y-78588715D01*
G37*
G36*
X135336789Y-78235162D02*
X135138799Y-78037172D01*
X136199459Y-76976512D01*
X136397449Y-77174502D01*
X135336789Y-78235162D01*
X135336789Y-78235162D01*
G37*
G36*
X134983236Y-77881609D02*
X134785246Y-77683619D01*
X135845906Y-76622959D01*
X136043896Y-76820949D01*
X134983236Y-77881609D01*
X134983236Y-77881609D01*
G37*
G36*
X134629682Y-77528055D02*
X134431692Y-77330065D01*
X135492352Y-76269405D01*
X135690342Y-76467395D01*
X134629682Y-77528055D01*
X134629682Y-77528055D01*
G37*
G36*
X134276129Y-77174502D02*
X134078139Y-76976512D01*
X135138799Y-75915852D01*
X135336789Y-76113842D01*
X134276129Y-77174502D01*
X134276129Y-77174502D01*
G37*
G36*
X133922576Y-76820948D02*
X133724586Y-76622958D01*
X134785246Y-75562298D01*
X134983236Y-75760288D01*
X133922576Y-76820948D01*
X133922576Y-76820948D01*
G37*
G36*
X133569022Y-76467395D02*
X133371032Y-76269405D01*
X134431692Y-75208745D01*
X134629682Y-75406735D01*
X133569022Y-76467395D01*
X133569022Y-76467395D01*
G37*
G36*
X133215469Y-76113842D02*
X133017479Y-75915852D01*
X134078139Y-74855192D01*
X134276129Y-75053182D01*
X133215469Y-76113842D01*
X133215469Y-76113842D01*
G37*
G36*
X132861915Y-75760288D02*
X132663925Y-75562298D01*
X133724585Y-74501638D01*
X133922575Y-74699628D01*
X132861915Y-75760288D01*
X132861915Y-75760288D01*
G37*
G36*
X132508362Y-75406735D02*
X132310372Y-75208745D01*
X133371032Y-74148085D01*
X133569022Y-74346075D01*
X132508362Y-75406735D01*
X132508362Y-75406735D01*
G37*
G36*
X132154809Y-75053181D02*
X131956819Y-74855191D01*
X133017479Y-73794531D01*
X133215469Y-73992521D01*
X132154809Y-75053181D01*
X132154809Y-75053181D01*
G37*
G36*
X131801255Y-74699628D02*
X131603265Y-74501638D01*
X132663925Y-73440978D01*
X132861915Y-73638968D01*
X131801255Y-74699628D01*
X131801255Y-74699628D01*
G37*
G36*
X131447702Y-74346075D02*
X131249712Y-74148085D01*
X132310372Y-73087425D01*
X132508362Y-73285415D01*
X131447702Y-74346075D01*
X131447702Y-74346075D01*
G37*
G36*
X131094148Y-73992521D02*
X130896158Y-73794531D01*
X131956818Y-72733871D01*
X132154808Y-72931861D01*
X131094148Y-73992521D01*
X131094148Y-73992521D01*
G37*
G36*
X130740595Y-73638968D02*
X130542605Y-73440978D01*
X131603265Y-72380318D01*
X131801255Y-72578308D01*
X130740595Y-73638968D01*
X130740595Y-73638968D01*
G37*
G36*
X130387042Y-73285414D02*
X130189052Y-73087424D01*
X131249712Y-72026764D01*
X131447702Y-72224754D01*
X130387042Y-73285414D01*
X130387042Y-73285414D01*
G37*
G36*
X130033488Y-72931861D02*
X129835498Y-72733871D01*
X130896158Y-71673211D01*
X131094148Y-71871201D01*
X130033488Y-72931861D01*
X130033488Y-72931861D01*
G37*
G36*
X129679935Y-72578308D02*
X129481945Y-72380318D01*
X130542605Y-71319658D01*
X130740595Y-71517648D01*
X129679935Y-72578308D01*
X129679935Y-72578308D01*
G37*
G36*
X129326381Y-72224754D02*
X129128391Y-72026764D01*
X130189051Y-70966104D01*
X130387041Y-71164094D01*
X129326381Y-72224754D01*
X129326381Y-72224754D01*
G37*
G36*
X128972828Y-71871201D02*
X128774838Y-71673211D01*
X129835498Y-70612551D01*
X130033488Y-70810541D01*
X128972828Y-71871201D01*
X128972828Y-71871201D01*
G37*
G36*
X128619275Y-71517648D02*
X128421285Y-71319658D01*
X129481945Y-70258998D01*
X129679935Y-70456988D01*
X128619275Y-71517648D01*
X128619275Y-71517648D01*
G37*
G36*
X128265721Y-71164094D02*
X128067731Y-70966104D01*
X129128391Y-69905444D01*
X129326381Y-70103434D01*
X128265721Y-71164094D01*
X128265721Y-71164094D01*
G37*
G36*
X127912168Y-70810541D02*
X127714178Y-70612551D01*
X128774838Y-69551891D01*
X128972828Y-69749881D01*
X127912168Y-70810541D01*
X127912168Y-70810541D01*
G37*
G36*
X126285822Y-70612551D02*
X126087832Y-70810541D01*
X125027172Y-69749881D01*
X125225162Y-69551891D01*
X126285822Y-70612551D01*
X126285822Y-70612551D01*
G37*
G36*
X125932269Y-70966104D02*
X125734279Y-71164094D01*
X124673619Y-70103434D01*
X124871609Y-69905444D01*
X125932269Y-70966104D01*
X125932269Y-70966104D01*
G37*
G36*
X125578715Y-71319658D02*
X125380725Y-71517648D01*
X124320065Y-70456988D01*
X124518055Y-70258998D01*
X125578715Y-71319658D01*
X125578715Y-71319658D01*
G37*
G36*
X125225162Y-71673211D02*
X125027172Y-71871201D01*
X123966512Y-70810541D01*
X124164502Y-70612551D01*
X125225162Y-71673211D01*
X125225162Y-71673211D01*
G37*
G36*
X124871609Y-72026764D02*
X124673619Y-72224754D01*
X123612959Y-71164094D01*
X123810949Y-70966104D01*
X124871609Y-72026764D01*
X124871609Y-72026764D01*
G37*
G36*
X124518055Y-72380318D02*
X124320065Y-72578308D01*
X123259405Y-71517648D01*
X123457395Y-71319658D01*
X124518055Y-72380318D01*
X124518055Y-72380318D01*
G37*
G36*
X124164502Y-72733871D02*
X123966512Y-72931861D01*
X122905852Y-71871201D01*
X123103842Y-71673211D01*
X124164502Y-72733871D01*
X124164502Y-72733871D01*
G37*
G36*
X123810948Y-73087424D02*
X123612958Y-73285414D01*
X122552298Y-72224754D01*
X122750288Y-72026764D01*
X123810948Y-73087424D01*
X123810948Y-73087424D01*
G37*
G36*
X123457395Y-73440978D02*
X123259405Y-73638968D01*
X122198745Y-72578308D01*
X122396735Y-72380318D01*
X123457395Y-73440978D01*
X123457395Y-73440978D01*
G37*
G36*
X123103842Y-73794531D02*
X122905852Y-73992521D01*
X121845192Y-72931861D01*
X122043182Y-72733871D01*
X123103842Y-73794531D01*
X123103842Y-73794531D01*
G37*
G36*
X122750288Y-74148085D02*
X122552298Y-74346075D01*
X121491638Y-73285415D01*
X121689628Y-73087425D01*
X122750288Y-74148085D01*
X122750288Y-74148085D01*
G37*
G36*
X122396735Y-74501638D02*
X122198745Y-74699628D01*
X121138085Y-73638968D01*
X121336075Y-73440978D01*
X122396735Y-74501638D01*
X122396735Y-74501638D01*
G37*
G36*
X122043181Y-74855191D02*
X121845191Y-75053181D01*
X120784531Y-73992521D01*
X120982521Y-73794531D01*
X122043181Y-74855191D01*
X122043181Y-74855191D01*
G37*
G36*
X121689628Y-75208745D02*
X121491638Y-75406735D01*
X120430978Y-74346075D01*
X120628968Y-74148085D01*
X121689628Y-75208745D01*
X121689628Y-75208745D01*
G37*
G36*
X121336075Y-75562298D02*
X121138085Y-75760288D01*
X120077425Y-74699628D01*
X120275415Y-74501638D01*
X121336075Y-75562298D01*
X121336075Y-75562298D01*
G37*
G36*
X120982521Y-75915852D02*
X120784531Y-76113842D01*
X119723871Y-75053182D01*
X119921861Y-74855192D01*
X120982521Y-75915852D01*
X120982521Y-75915852D01*
G37*
G36*
X120628968Y-76269405D02*
X120430978Y-76467395D01*
X119370318Y-75406735D01*
X119568308Y-75208745D01*
X120628968Y-76269405D01*
X120628968Y-76269405D01*
G37*
G36*
X120275414Y-76622958D02*
X120077424Y-76820948D01*
X119016764Y-75760288D01*
X119214754Y-75562298D01*
X120275414Y-76622958D01*
X120275414Y-76622958D01*
G37*
G36*
X119921861Y-76976512D02*
X119723871Y-77174502D01*
X118663211Y-76113842D01*
X118861201Y-75915852D01*
X119921861Y-76976512D01*
X119921861Y-76976512D01*
G37*
G36*
X119568308Y-77330065D02*
X119370318Y-77528055D01*
X118309658Y-76467395D01*
X118507648Y-76269405D01*
X119568308Y-77330065D01*
X119568308Y-77330065D01*
G37*
G36*
X119214754Y-77683619D02*
X119016764Y-77881609D01*
X117956104Y-76820949D01*
X118154094Y-76622959D01*
X119214754Y-77683619D01*
X119214754Y-77683619D01*
G37*
G36*
X118861201Y-78037172D02*
X118663211Y-78235162D01*
X117602551Y-77174502D01*
X117800541Y-76976512D01*
X118861201Y-78037172D01*
X118861201Y-78037172D01*
G37*
G36*
X118507648Y-78390725D02*
X118309658Y-78588715D01*
X117248998Y-77528055D01*
X117446988Y-77330065D01*
X118507648Y-78390725D01*
X118507648Y-78390725D01*
G37*
G36*
X118154094Y-78744279D02*
X117956104Y-78942269D01*
X116895444Y-77881609D01*
X117093434Y-77683619D01*
X118154094Y-78744279D01*
X118154094Y-78744279D01*
G37*
G36*
X117800541Y-79097832D02*
X117602551Y-79295822D01*
X116541891Y-78235162D01*
X116739881Y-78037172D01*
X117800541Y-79097832D01*
X117800541Y-79097832D01*
G37*
D12*
X84000000Y-61000000D03*
D13*
X84000000Y-58460000D03*
X84000000Y-55920000D03*
X84000000Y-53380000D03*
D12*
X76200000Y-66040000D03*
D13*
X76200000Y-68580000D03*
X76200000Y-71120000D03*
D12*
X91440000Y-54610000D03*
D13*
X91440000Y-57150000D03*
X91440000Y-59690000D03*
D12*
X83820000Y-109220000D03*
D13*
X83820000Y-106680000D03*
X83820000Y-104140000D03*
X83820000Y-101600000D03*
D14*
X112966000Y-49403000D03*
D15*
X115506000Y-49403000D03*
D16*
X125222000Y-135890000D03*
X122682000Y-135890000D03*
X120142000Y-135890000D03*
X117602000Y-135890000D03*
X115062000Y-135890000D03*
X112522000Y-135890000D03*
X109982000Y-135890000D03*
X184912000Y-135890000D03*
X182372000Y-135890000D03*
X179832000Y-135890000D03*
X177292000Y-135890000D03*
X174752000Y-135890000D03*
X172212000Y-135890000D03*
X169672000Y-135890000D03*
X167132000Y-135890000D03*
X164592000Y-135890000D03*
X162052000Y-135890000D03*
X159512000Y-135890000D03*
X156972000Y-135890000D03*
X154432000Y-135890000D03*
X151892000Y-135890000D03*
X149352000Y-135890000D03*
D17*
X213360000Y-110149640D03*
X213360000Y-105750360D03*
X213360000Y-93050360D03*
X213360000Y-97449640D03*
X219710000Y-99400360D03*
X219710000Y-103799640D03*
D18*
X170720000Y-71120000D03*
X174720000Y-71120000D03*
X205010000Y-48260000D03*
X209010000Y-48260000D03*
X169450000Y-48260000D03*
X173450000Y-48260000D03*
X205010000Y-71120000D03*
X209010000Y-71120000D03*
D10*
G36*
X111555635Y-84312994D02*
X112687006Y-85444365D01*
X111272793Y-86858578D01*
X110141422Y-85727207D01*
X111555635Y-84312994D01*
X111555635Y-84312994D01*
G37*
G36*
X108727207Y-87141422D02*
X109858578Y-88272793D01*
X108444365Y-89687006D01*
X107312994Y-88555635D01*
X108727207Y-87141422D01*
X108727207Y-87141422D01*
G37*
G36*
X121555635Y-94312994D02*
X122687006Y-95444365D01*
X121272793Y-96858578D01*
X120141422Y-95727207D01*
X121555635Y-94312994D01*
X121555635Y-94312994D01*
G37*
G36*
X118727207Y-97141422D02*
X119858578Y-98272793D01*
X118444365Y-99687006D01*
X117312994Y-98555635D01*
X118727207Y-97141422D01*
X118727207Y-97141422D01*
G37*
D18*
X141700000Y-63500000D03*
X137700000Y-63500000D03*
X135350000Y-67310000D03*
X131350000Y-67310000D03*
X140000000Y-72000000D03*
X136000000Y-72000000D03*
X141000000Y-77000000D03*
X145000000Y-77000000D03*
D19*
X137160000Y-93440000D03*
X137160000Y-89440000D03*
X132080000Y-97250000D03*
X132080000Y-93250000D03*
D18*
X114840000Y-69850000D03*
X118840000Y-69850000D03*
X109760000Y-74930000D03*
X113760000Y-74930000D03*
D20*
X149860000Y-108064300D03*
X149860000Y-112915700D03*
X152400000Y-108064300D03*
X152400000Y-112915700D03*
X154940000Y-108064300D03*
X154940000Y-112915700D03*
X157480000Y-108064300D03*
X157480000Y-112915700D03*
X160020000Y-108064300D03*
X160020000Y-112915700D03*
X162560000Y-108064300D03*
X162560000Y-112915700D03*
X165100000Y-108064300D03*
X165100000Y-112915700D03*
X167640000Y-108064300D03*
X167640000Y-112915700D03*
X170180000Y-108064300D03*
X170180000Y-112915700D03*
X172720000Y-108064300D03*
X172720000Y-112915700D03*
X175260000Y-108064300D03*
X175260000Y-112915700D03*
X177800000Y-108064300D03*
X177800000Y-112915700D03*
X180340000Y-108064300D03*
X180340000Y-112915700D03*
X182880000Y-108064300D03*
X182880000Y-112915700D03*
D21*
X185420000Y-108064300D03*
D20*
X185420000Y-112915700D03*
D22*
X199539860Y-113030000D03*
X196700140Y-113030000D03*
D23*
X226000000Y-103580140D03*
X226000000Y-106419860D03*
X123190000Y-50949860D03*
X123190000Y-48110140D03*
X128270000Y-50949860D03*
X128270000Y-48110140D03*
X133350000Y-50949860D03*
X133350000Y-48110140D03*
D20*
X110490000Y-108064300D03*
X110490000Y-112915700D03*
X113030000Y-108064300D03*
X113030000Y-112915700D03*
X115570000Y-108064300D03*
X115570000Y-112915700D03*
X118110000Y-108064300D03*
X118110000Y-112915700D03*
X120650000Y-108064300D03*
X120650000Y-112915700D03*
X123190000Y-108064300D03*
X123190000Y-112915700D03*
D21*
X125730000Y-108064300D03*
D20*
X125730000Y-112915700D03*
D24*
X202168760Y-107950000D03*
D25*
X206771240Y-107950000D03*
D24*
X202168760Y-95250000D03*
D25*
X206771240Y-95250000D03*
D26*
X76200000Y-48768000D03*
X231140000Y-48768000D03*
X231140000Y-114808000D03*
D27*
X206470000Y-113030000D03*
X202470000Y-113030000D03*
D28*
X226000000Y-96000000D03*
X226000000Y-100000000D03*
D27*
X103410000Y-48260000D03*
X107410000Y-48260000D03*
X99000000Y-100000000D03*
X95000000Y-100000000D03*
X99000000Y-96000000D03*
X95000000Y-96000000D03*
X99000000Y-92000000D03*
X95000000Y-92000000D03*
X99000000Y-88000000D03*
X95000000Y-88000000D03*
D10*
G36*
X109020280Y-81777638D02*
X110222362Y-82979720D01*
X108808148Y-84393934D01*
X107606066Y-83191852D01*
X109020280Y-81777638D01*
X109020280Y-81777638D01*
G37*
G36*
X106191852Y-84606066D02*
X107393934Y-85808148D01*
X105979720Y-87222362D01*
X104777638Y-86020280D01*
X106191852Y-84606066D01*
X106191852Y-84606066D01*
G37*
G36*
X124020280Y-96777638D02*
X125222362Y-97979720D01*
X123808148Y-99393934D01*
X122606066Y-98191852D01*
X124020280Y-96777638D01*
X124020280Y-96777638D01*
G37*
G36*
X121191852Y-99606066D02*
X122393934Y-100808148D01*
X120979720Y-102222362D01*
X119777638Y-101020280D01*
X121191852Y-99606066D01*
X121191852Y-99606066D01*
G37*
D27*
X147860000Y-63500000D03*
X151860000Y-63500000D03*
X102330000Y-57150000D03*
X98330000Y-57150000D03*
X102330000Y-59690000D03*
X98330000Y-59690000D03*
D28*
X142000000Y-88000000D03*
X142000000Y-84000000D03*
D27*
X88000000Y-69000000D03*
X84000000Y-69000000D03*
X88000000Y-74000000D03*
X84000000Y-74000000D03*
X93000000Y-69000000D03*
X97000000Y-69000000D03*
X93000000Y-74000000D03*
X97000000Y-74000000D03*
D28*
X123190000Y-53880000D03*
X123190000Y-57880000D03*
X128270000Y-53880000D03*
X128270000Y-57880000D03*
X133350000Y-53880000D03*
X133350000Y-57880000D03*
D29*
X89377570Y-48257680D03*
X98582430Y-48262320D03*
D30*
X155325000Y-96160000D03*
X154675000Y-96160000D03*
X154025000Y-96160000D03*
X153375000Y-96160000D03*
X152725000Y-96160000D03*
X152075000Y-96160000D03*
X151425000Y-96160000D03*
X150775000Y-96160000D03*
X150125000Y-96160000D03*
X149475000Y-96160000D03*
X149475000Y-101960000D03*
X150125000Y-101960000D03*
X150775000Y-101960000D03*
X151425000Y-101960000D03*
X152075000Y-101960000D03*
X152725000Y-101960000D03*
X153375000Y-101960000D03*
X154025000Y-101960000D03*
X154675000Y-101960000D03*
X155325000Y-101960000D03*
X101985000Y-106320000D03*
X101335000Y-106320000D03*
X100685000Y-106320000D03*
X100035000Y-106320000D03*
X99385000Y-106320000D03*
X98735000Y-106320000D03*
X98085000Y-106320000D03*
X97435000Y-106320000D03*
X96785000Y-106320000D03*
X96135000Y-106320000D03*
X96135000Y-112120000D03*
X96785000Y-112120000D03*
X97435000Y-112120000D03*
X98085000Y-112120000D03*
X98735000Y-112120000D03*
X99385000Y-112120000D03*
X100035000Y-112120000D03*
X100685000Y-112120000D03*
X101335000Y-112120000D03*
X101985000Y-112120000D03*
X170565000Y-96160000D03*
X169915000Y-96160000D03*
X169265000Y-96160000D03*
X168615000Y-96160000D03*
X167965000Y-96160000D03*
X167315000Y-96160000D03*
X166665000Y-96160000D03*
X166015000Y-96160000D03*
X165365000Y-96160000D03*
X164715000Y-96160000D03*
X164715000Y-101960000D03*
X165365000Y-101960000D03*
X166015000Y-101960000D03*
X166665000Y-101960000D03*
X167315000Y-101960000D03*
X167965000Y-101960000D03*
X168615000Y-101960000D03*
X169265000Y-101960000D03*
X169915000Y-101960000D03*
X170565000Y-101960000D03*
D31*
X157070000Y-60280000D03*
X157070000Y-60930000D03*
X157070000Y-61580000D03*
X157070000Y-62230000D03*
X157070000Y-62880000D03*
X157070000Y-63530000D03*
X157070000Y-64180000D03*
X162970000Y-64180000D03*
X162970000Y-63530000D03*
X162970000Y-62880000D03*
X162970000Y-62230000D03*
X162970000Y-61580000D03*
X162970000Y-60930000D03*
X162970000Y-60280000D03*
D30*
X140085000Y-106320000D03*
X139435000Y-106320000D03*
X138785000Y-106320000D03*
X138135000Y-106320000D03*
X137485000Y-106320000D03*
X136835000Y-106320000D03*
X136185000Y-106320000D03*
X135535000Y-106320000D03*
X134885000Y-106320000D03*
X134235000Y-106320000D03*
X134235000Y-112120000D03*
X134885000Y-112120000D03*
X135535000Y-112120000D03*
X136185000Y-112120000D03*
X136835000Y-112120000D03*
X137485000Y-112120000D03*
X138135000Y-112120000D03*
X138785000Y-112120000D03*
X139435000Y-112120000D03*
X140085000Y-112120000D03*
D32*
X206375000Y-52050000D03*
X206375000Y-64790000D03*
X207645000Y-52050000D03*
X207645000Y-64790000D03*
X208915000Y-52050000D03*
X208915000Y-64790000D03*
X210185000Y-52050000D03*
X210185000Y-64790000D03*
X211455000Y-52050000D03*
X211455000Y-64790000D03*
X212725000Y-52050000D03*
X212725000Y-64790000D03*
X213995000Y-52050000D03*
X213995000Y-64790000D03*
X215265000Y-52050000D03*
X215265000Y-64790000D03*
X216535000Y-52050000D03*
X216535000Y-64790000D03*
X217805000Y-52050000D03*
X217805000Y-64790000D03*
X219075000Y-52050000D03*
X219075000Y-64790000D03*
X220345000Y-52050000D03*
X220345000Y-64790000D03*
X221615000Y-52050000D03*
X221615000Y-64790000D03*
X222885000Y-52050000D03*
X222885000Y-64790000D03*
X224155000Y-52050000D03*
X224155000Y-64790000D03*
X225425000Y-52050000D03*
X225425000Y-64790000D03*
X170815000Y-52050000D03*
X170815000Y-64790000D03*
X172085000Y-52050000D03*
X172085000Y-64790000D03*
X173355000Y-52050000D03*
X173355000Y-64790000D03*
X174625000Y-52050000D03*
X174625000Y-64790000D03*
X175895000Y-52050000D03*
X175895000Y-64790000D03*
X177165000Y-52050000D03*
X177165000Y-64790000D03*
X178435000Y-52050000D03*
X178435000Y-64790000D03*
X179705000Y-52050000D03*
X179705000Y-64790000D03*
X180975000Y-52050000D03*
X180975000Y-64790000D03*
X182245000Y-52050000D03*
X182245000Y-64790000D03*
X183515000Y-52050000D03*
X183515000Y-64790000D03*
X184785000Y-52050000D03*
X184785000Y-64790000D03*
X186055000Y-52050000D03*
X186055000Y-64790000D03*
X187325000Y-52050000D03*
X187325000Y-64790000D03*
X188595000Y-52050000D03*
X188595000Y-64790000D03*
X189865000Y-52050000D03*
X189865000Y-64790000D03*
X206375000Y-74910000D03*
X206375000Y-87650000D03*
X207645000Y-74910000D03*
X207645000Y-87650000D03*
X208915000Y-74910000D03*
X208915000Y-87650000D03*
X210185000Y-74910000D03*
X210185000Y-87650000D03*
X211455000Y-74910000D03*
X211455000Y-87650000D03*
X212725000Y-74910000D03*
X212725000Y-87650000D03*
X213995000Y-74910000D03*
X213995000Y-87650000D03*
X215265000Y-74910000D03*
X215265000Y-87650000D03*
X216535000Y-74910000D03*
X216535000Y-87650000D03*
X217805000Y-74910000D03*
X217805000Y-87650000D03*
X219075000Y-74910000D03*
X219075000Y-87650000D03*
X220345000Y-74910000D03*
X220345000Y-87650000D03*
X221615000Y-74910000D03*
X221615000Y-87650000D03*
X222885000Y-74910000D03*
X222885000Y-87650000D03*
X224155000Y-74910000D03*
X224155000Y-87650000D03*
X225425000Y-74910000D03*
X225425000Y-87650000D03*
D33*
X82910000Y-81870000D03*
X82910000Y-82520000D03*
X82910000Y-83170000D03*
X82910000Y-83820000D03*
X82910000Y-84470000D03*
X82910000Y-85120000D03*
X82910000Y-85770000D03*
X89810000Y-85770000D03*
X89810000Y-85120000D03*
X89810000Y-84470000D03*
X89810000Y-83820000D03*
X89810000Y-83170000D03*
X89810000Y-82520000D03*
X89810000Y-81870000D03*
X82910000Y-92030000D03*
X82910000Y-92680000D03*
X82910000Y-93330000D03*
X82910000Y-93980000D03*
X82910000Y-94630000D03*
X82910000Y-95280000D03*
X82910000Y-95930000D03*
X89810000Y-95930000D03*
X89810000Y-95280000D03*
X89810000Y-94630000D03*
X89810000Y-93980000D03*
X89810000Y-93330000D03*
X89810000Y-92680000D03*
X89810000Y-92030000D03*
D34*
X201168000Y-101600000D03*
D35*
X207772000Y-101600000D03*
X207772000Y-99314000D03*
X207772000Y-103886000D03*
D36*
X140255000Y-57420000D03*
D37*
X139055000Y-57295000D03*
D38*
X138805000Y-49695000D03*
D39*
X139130000Y-48195000D03*
D40*
X150755000Y-49045000D03*
D36*
X141355000Y-57420000D03*
X142455000Y-57420000D03*
X143555000Y-57420000D03*
X144655000Y-57420000D03*
X145755000Y-57420000D03*
X146855000Y-57420000D03*
X147955000Y-57420000D03*
D41*
X150405000Y-57295000D03*
D42*
X150355000Y-46620000D03*
D43*
X76200000Y-78740000D03*
D20*
X111000000Y-99000000D03*
D26*
X76200000Y-114808000D03*
D44*
X157070000Y-77735000D03*
X157070000Y-78385000D03*
X157070000Y-79035000D03*
X157070000Y-79685000D03*
X157070000Y-80335000D03*
X157070000Y-80985000D03*
X157070000Y-81635000D03*
X157070000Y-82285000D03*
X162970000Y-82285000D03*
X162970000Y-81635000D03*
X162970000Y-80985000D03*
X162970000Y-80335000D03*
X162970000Y-79685000D03*
X162970000Y-79035000D03*
X162970000Y-78385000D03*
X162970000Y-77735000D03*
D31*
X157070000Y-69170000D03*
X157070000Y-69820000D03*
X157070000Y-70470000D03*
X157070000Y-71120000D03*
X157070000Y-71770000D03*
X157070000Y-72420000D03*
X157070000Y-73070000D03*
X162970000Y-73070000D03*
X162970000Y-72420000D03*
X162970000Y-71770000D03*
X162970000Y-71120000D03*
X162970000Y-70470000D03*
X162970000Y-69820000D03*
X162970000Y-69170000D03*
D30*
X185805000Y-96160000D03*
X185155000Y-96160000D03*
X184505000Y-96160000D03*
X183855000Y-96160000D03*
X183205000Y-96160000D03*
X182555000Y-96160000D03*
X181905000Y-96160000D03*
X181255000Y-96160000D03*
X180605000Y-96160000D03*
X179955000Y-96160000D03*
X179955000Y-101960000D03*
X180605000Y-101960000D03*
X181255000Y-101960000D03*
X181905000Y-101960000D03*
X182555000Y-101960000D03*
X183205000Y-101960000D03*
X183855000Y-101960000D03*
X184505000Y-101960000D03*
X185155000Y-101960000D03*
X185805000Y-101960000D03*
D32*
X170815000Y-74910000D03*
X170815000Y-87650000D03*
X172085000Y-74910000D03*
X172085000Y-87650000D03*
X173355000Y-74910000D03*
X173355000Y-87650000D03*
X174625000Y-74910000D03*
X174625000Y-87650000D03*
X175895000Y-74910000D03*
X175895000Y-87650000D03*
X177165000Y-74910000D03*
X177165000Y-87650000D03*
X178435000Y-74910000D03*
X178435000Y-87650000D03*
X179705000Y-74910000D03*
X179705000Y-87650000D03*
X180975000Y-74910000D03*
X180975000Y-87650000D03*
X182245000Y-74910000D03*
X182245000Y-87650000D03*
X183515000Y-74910000D03*
X183515000Y-87650000D03*
X184785000Y-74910000D03*
X184785000Y-87650000D03*
X186055000Y-74910000D03*
X186055000Y-87650000D03*
X187325000Y-74910000D03*
X187325000Y-87650000D03*
X188595000Y-74910000D03*
X188595000Y-87650000D03*
X189865000Y-74910000D03*
X189865000Y-87650000D03*
D33*
X156570000Y-50120000D03*
X156570000Y-50770000D03*
X156570000Y-51420000D03*
X156570000Y-52070000D03*
X156570000Y-52720000D03*
X156570000Y-53370000D03*
X156570000Y-54020000D03*
X163470000Y-54020000D03*
X163470000Y-53370000D03*
X163470000Y-52720000D03*
X163470000Y-52070000D03*
X163470000Y-51420000D03*
X163470000Y-50770000D03*
X163470000Y-50120000D03*
D10*
G36*
X110833096Y-91010051D02*
X112318020Y-89525127D01*
X114227208Y-91434315D01*
X112742284Y-92919239D01*
X110833096Y-91010051D01*
X110833096Y-91010051D01*
G37*
G36*
X114580761Y-94757716D02*
X116065685Y-93272792D01*
X117974873Y-95181980D01*
X116489949Y-96666904D01*
X114580761Y-94757716D01*
X114580761Y-94757716D01*
G37*
G36*
X116772792Y-92565685D02*
X118257716Y-91080761D01*
X120166904Y-92989949D01*
X118681980Y-94474873D01*
X116772792Y-92565685D01*
X116772792Y-92565685D01*
G37*
G36*
X113025127Y-88818020D02*
X114510051Y-87333096D01*
X116419239Y-89242284D01*
X114934315Y-90727208D01*
X113025127Y-88818020D01*
X113025127Y-88818020D01*
G37*
D45*
X151968200Y-72288400D03*
X153289000Y-71780400D03*
X153466800Y-70358000D03*
X152120600Y-70434200D03*
X150164800Y-72186800D03*
X144297400Y-72339200D03*
X143408400Y-70561200D03*
X154101800Y-82143600D03*
X152933400Y-80010000D03*
X151206200Y-79629000D03*
X151155400Y-73939400D03*
X130200400Y-69189600D03*
X129286000Y-68402200D03*
X132181600Y-62382400D03*
X134543800Y-62636400D03*
X179343400Y-101960000D03*
X110095800Y-132645700D03*
X110953600Y-97530100D03*
X173596600Y-101960000D03*
X164040700Y-102210100D03*
X157318000Y-103494700D03*
X139536400Y-77314100D03*
X141762200Y-71947500D03*
X152555000Y-54020400D03*
X151768200Y-65314900D03*
X165242600Y-98993100D03*
X153425000Y-101024200D03*
X173450900Y-99735700D03*
X172850500Y-99735700D03*
X151130000Y-108922200D03*
X155803000Y-111939000D03*
X148327000Y-117120800D03*
X148327000Y-119393900D03*
X179832000Y-132667100D03*
X174051200Y-99735700D03*
X177292000Y-132666000D03*
X151829300Y-102866900D03*
X163279900Y-105385100D03*
X175930600Y-103297600D03*
X174752000Y-132629600D03*
X150775000Y-102884900D03*
X159455800Y-111667300D03*
X172212000Y-132642800D03*
X150874800Y-101039300D03*
X143667500Y-115506000D03*
X171167200Y-102785300D03*
X169672000Y-132637300D03*
X169034300Y-101031300D03*
X167670400Y-132672300D03*
X164656000Y-132007400D03*
X166454300Y-103133100D03*
X162052000Y-132677000D03*
X171197800Y-100811300D03*
X159512000Y-132675300D03*
X173021200Y-102388700D03*
X172083500Y-105910400D03*
X161192400Y-109262700D03*
X156634300Y-131605700D03*
X158461500Y-106117900D03*
X154432000Y-132662700D03*
X152500300Y-132653600D03*
X145804800Y-112288400D03*
X147342200Y-114363300D03*
X145747200Y-111343700D03*
X152388700Y-131659500D03*
X122041200Y-115739200D03*
X122002200Y-116521900D03*
X122682000Y-132662800D03*
X118481600Y-116059300D03*
X120142000Y-131943400D03*
X117602000Y-132685700D03*
X115062000Y-132667400D03*
X112522000Y-132687000D03*
X163463100Y-103298100D03*
X156547900Y-104145000D03*
X118965600Y-103062000D03*
X184912000Y-132640000D03*
X141066900Y-113518200D03*
X142011900Y-116098400D03*
X181840300Y-116098400D03*
X183111000Y-114121400D03*
X138198700Y-113024200D03*
X145609500Y-109935000D03*
X125222000Y-132680100D03*
X158015500Y-102835300D03*
X166770000Y-100376400D03*
X143807400Y-110092400D03*
X213072800Y-95250000D03*
X217253400Y-99931500D03*
X127610000Y-85140800D03*
X126771000Y-85928200D03*
X125247000Y-85115400D03*
X123368000Y-82600800D03*
X118237000Y-79883000D03*
X120371000Y-79781400D03*
X206484800Y-76011200D03*
X206417400Y-71120000D03*
X206375000Y-53169000D03*
X203190200Y-48373500D03*
X116648800Y-76240700D03*
X132117100Y-105908100D03*
X131780200Y-94670700D03*
X138507700Y-77342800D03*
X138275300Y-72104500D03*
X138851300Y-65786000D03*
X144052500Y-97814000D03*
X139435000Y-105057900D03*
X125804600Y-69428700D03*
X120607400Y-70266400D03*
X150445100Y-63500000D03*
X139436300Y-76406800D03*
X141561800Y-59185900D03*
X137718700Y-77110800D03*
X143555000Y-58697800D03*
X142446600Y-75944100D03*
X145181600Y-59062600D03*
X112192700Y-99000000D03*
X122474500Y-88293600D03*
X99932600Y-49387600D03*
X101631700Y-49435300D03*
X125161200Y-60564500D03*
X122438200Y-84385400D03*
X130067500Y-85445400D03*
X120249000Y-66100000D03*
X128116500Y-60572500D03*
X127955400Y-66220500D03*
X122502600Y-66220500D03*
X122262300Y-67865700D03*
X129939800Y-56202700D03*
X105566100Y-88540600D03*
X115341900Y-93057900D03*
X128555100Y-86019900D03*
X100863000Y-46888400D03*
X101397000Y-47955200D03*
X95910400Y-56134000D03*
X95935800Y-57277000D03*
X119920800Y-71867900D03*
X130081200Y-83673800D03*
X117068700Y-71597400D03*
X123479200Y-81495100D03*
X116787400Y-70975300D03*
X124125400Y-78145700D03*
X111250400Y-72696900D03*
X133565800Y-73444200D03*
X138661300Y-82985000D03*
X125493300Y-73295900D03*
X139855900Y-82985000D03*
X125001400Y-72804000D03*
X112109100Y-80567800D03*
X143506100Y-77775700D03*
X158233500Y-79773300D03*
X158215300Y-60984000D03*
X147331100Y-76821500D03*
X124339900Y-69862000D03*
X171974700Y-57398800D03*
X164627800Y-79735000D03*
X185059800Y-79174900D03*
X188271000Y-50391200D03*
X102730400Y-107041400D03*
X119989500Y-77868300D03*
X100842900Y-105409100D03*
X114812900Y-72819700D03*
X111371400Y-104280400D03*
X118856700Y-75236000D03*
X99768500Y-104933700D03*
X108073500Y-74353600D03*
X98805200Y-104993300D03*
X114115600Y-83092200D03*
X111250400Y-80274300D03*
X134091100Y-70341100D03*
X116581500Y-74571800D03*
X103957800Y-104406800D03*
X125308400Y-80444400D03*
X109415000Y-104172000D03*
X133825300Y-104730400D03*
X133515100Y-89768700D03*
X219710000Y-87650000D03*
X220709700Y-65915400D03*
X181185500Y-90270200D03*
X184778100Y-63668000D03*
X123374600Y-70329300D03*
X154317900Y-94286600D03*
X219710000Y-86895800D03*
X218652600Y-65928600D03*
X179925200Y-90754400D03*
X182986600Y-63764700D03*
X122762300Y-71443700D03*
X153717500Y-94394000D03*
X217170000Y-87796100D03*
X217912800Y-63668000D03*
X212133000Y-91999500D03*
X151994500Y-97075700D03*
X124184200Y-73297900D03*
X216019600Y-86624700D03*
X216535000Y-65917300D03*
X179212900Y-86624700D03*
X181610000Y-63764700D03*
X122227000Y-71980500D03*
X152666800Y-94844300D03*
X179212900Y-80509200D03*
X156997100Y-85129100D03*
X214738900Y-86624700D03*
X215265000Y-65934500D03*
X179070000Y-87611400D03*
X180336200Y-64158800D03*
X177332400Y-81935200D03*
X121593800Y-72523600D03*
X152075000Y-95118400D03*
X213465900Y-86624700D03*
X213719900Y-65915700D03*
X148125400Y-96668600D03*
X124595200Y-74729400D03*
X177800000Y-87942500D03*
X178435000Y-65916800D03*
X212506500Y-88780300D03*
X213031200Y-63668000D03*
X150775000Y-95232200D03*
X151665900Y-93722300D03*
X122518800Y-74955100D03*
X193774000Y-62675800D03*
X195095900Y-89026500D03*
X146157500Y-94272300D03*
X140061800Y-87682100D03*
X135042200Y-88246800D03*
X120845700Y-73363700D03*
X163541200Y-55101700D03*
X164101900Y-72420000D03*
X171029800Y-96985300D03*
X162103700Y-50770000D03*
X136114800Y-75951200D03*
X169265000Y-95233300D03*
X159295700Y-69638100D03*
X158952100Y-73933700D03*
X83508400Y-91419000D03*
X99769900Y-93982500D03*
X114756900Y-93982500D03*
X126613400Y-82864000D03*
X163404700Y-93584100D03*
X154325900Y-72993200D03*
X161849500Y-94376800D03*
X158008700Y-52343200D03*
X164841100Y-94492000D03*
X164323300Y-86671400D03*
X140694500Y-89334700D03*
X130218900Y-79884100D03*
X161833500Y-69820000D03*
X166138600Y-97069300D03*
X162264000Y-67078700D03*
X158203900Y-50770000D03*
X166380200Y-95257400D03*
X145710400Y-52824800D03*
X134324400Y-74059500D03*
X162434500Y-95334700D03*
X157592700Y-50120000D03*
X157868900Y-96064600D03*
X126413000Y-81304100D03*
X158546500Y-69920600D03*
X159082400Y-53370000D03*
X209251000Y-76015100D03*
X209550000Y-53075300D03*
X130323900Y-86198400D03*
X138892200Y-105389500D03*
X161019400Y-68540200D03*
X159720700Y-70470000D03*
X173266500Y-53874000D03*
X172694400Y-68410900D03*
X216228500Y-76037900D03*
X217170000Y-52111600D03*
X211013200Y-55229800D03*
X180908500Y-73790000D03*
X181796000Y-54061400D03*
X179962400Y-60140000D03*
X160867200Y-51420000D03*
X155652900Y-72420000D03*
X87644400Y-84969900D03*
X100273100Y-72136900D03*
X119470500Y-72573100D03*
X146222200Y-75817800D03*
X156262800Y-74011000D03*
X152121700Y-82113200D03*
X137243500Y-82985000D03*
X127330400Y-74535800D03*
X85269500Y-83170000D03*
X138049900Y-53352100D03*
X159667400Y-58003200D03*
X159887600Y-69330200D03*
X163058100Y-74219500D03*
X153142300Y-52296500D03*
X141837500Y-52296500D03*
X88743600Y-84470000D03*
X134062200Y-108636100D03*
X121290800Y-87133400D03*
X137766500Y-107235200D03*
X121885300Y-87953200D03*
X126279000Y-105267900D03*
X120160300Y-93844900D03*
X112898500Y-89520000D03*
X116019300Y-72633100D03*
X124107100Y-86364200D03*
X136656900Y-105413800D03*
X136184900Y-107258600D03*
X134679400Y-90719800D03*
X88181800Y-95280000D03*
X141228100Y-53863600D03*
X146006500Y-54148000D03*
X150062500Y-60280000D03*
X220980000Y-87158000D03*
X221615000Y-65958200D03*
X211794000Y-92562400D03*
X130846800Y-84333400D03*
X158919200Y-93150400D03*
X177923200Y-94539300D03*
X186432600Y-95917100D03*
X223520000Y-86846900D03*
X222885000Y-65937500D03*
X187653600Y-89409000D03*
X188808800Y-63681200D03*
X187877400Y-80785400D03*
X158234800Y-85744400D03*
X134468200Y-86421600D03*
X188629200Y-89926200D03*
X183945100Y-95244600D03*
X224608300Y-86587200D03*
X222864800Y-67704000D03*
X192753700Y-66409800D03*
X189758500Y-90367800D03*
X135242900Y-86616500D03*
X139110200Y-90483800D03*
X174881200Y-89317400D03*
X223407600Y-54322500D03*
X222998300Y-72100100D03*
X183310100Y-95249000D03*
X189694400Y-73787900D03*
X182972300Y-93820400D03*
X157649800Y-93039600D03*
X143698900Y-86107600D03*
X222941600Y-72984100D03*
X223866900Y-53285700D03*
X189303400Y-75854000D03*
X185220400Y-93982500D03*
X189303400Y-80261500D03*
X223165600Y-73778600D03*
X223520000Y-52111600D03*
X187801300Y-51024700D03*
X187352100Y-76028400D03*
X182103500Y-94821500D03*
X172290300Y-84553000D03*
X143913800Y-89575400D03*
X139668900Y-84816200D03*
X219710000Y-73884700D03*
X220980000Y-53075300D03*
X185885800Y-76748100D03*
X181226900Y-94942100D03*
X181803400Y-80703000D03*
X156033100Y-84368500D03*
X152221700Y-90037200D03*
X144827000Y-91454200D03*
X136421400Y-84318700D03*
X185087300Y-73707300D03*
X219710000Y-75545000D03*
X219710000Y-53075300D03*
X185637000Y-53455200D03*
X183356800Y-72262300D03*
X180542300Y-95246500D03*
X180510200Y-83623000D03*
X146111300Y-87890600D03*
X140725300Y-84322300D03*
X171083500Y-86533200D03*
X171131600Y-66206900D03*
X203311400Y-84799100D03*
X205437100Y-65638100D03*
X173990000Y-74159900D03*
X171981900Y-53178400D03*
X207010000Y-74910000D03*
X207108600Y-53075300D03*
X168815100Y-84840400D03*
X207453800Y-86543500D03*
X208117000Y-65815300D03*
X171524400Y-67529000D03*
X171597900Y-88675300D03*
X171659100Y-83698100D03*
X139982600Y-88982800D03*
X128285300Y-78027300D03*
X175268100Y-75935300D03*
X173852500Y-53075300D03*
X182982600Y-53734500D03*
X208505200Y-54329700D03*
X207840600Y-76010800D03*
X126964300Y-70733300D03*
X148199500Y-83328000D03*
X174649600Y-80080900D03*
X207753800Y-85463500D03*
X175690900Y-86433700D03*
X176028400Y-63668000D03*
X201286300Y-84869900D03*
X205888500Y-66309400D03*
X116063800Y-83610400D03*
X149176400Y-67624100D03*
X167142900Y-67525200D03*
X172269800Y-63655000D03*
X210185000Y-86547700D03*
X209784500Y-65882300D03*
X173324200Y-66212200D03*
X174625000Y-86516900D03*
X172582900Y-89924400D03*
X140329300Y-93533900D03*
X139477200Y-101315900D03*
X107431200Y-100946300D03*
X119019400Y-81441500D03*
X176087400Y-73782100D03*
X175428600Y-53075300D03*
X209774800Y-54128300D03*
X210820000Y-74576800D03*
X109942000Y-78735400D03*
X176072100Y-50847600D03*
X177499700Y-73793600D03*
X177800000Y-52837200D03*
X212095300Y-52050000D03*
X212207600Y-76406800D03*
X170288400Y-56271500D03*
X113510100Y-76533300D03*
X181959200Y-73709000D03*
X183088100Y-55331500D03*
X182150000Y-58903400D03*
X152720400Y-65538400D03*
X122534900Y-76374600D03*
X179070000Y-75422600D03*
X179297800Y-53158800D03*
X114105000Y-79808200D03*
X169910600Y-55144300D03*
X179297800Y-55144300D03*
X217170000Y-74910000D03*
X217268600Y-53075300D03*
X184047100Y-53075300D03*
X182862400Y-76371800D03*
X176489000Y-48983500D03*
X108658500Y-78305400D03*
X88884700Y-86470900D03*
X87337300Y-82681400D03*
X138709200Y-54494600D03*
X88263700Y-82520000D03*
X84580800Y-93314500D03*
X89935000Y-86506000D03*
X134010000Y-59563000D03*
X135255000Y-60731400D03*
X135712000Y-46050200D03*
X132309000Y-61112400D03*
X135839000Y-61417200D03*
X137033000Y-46659800D03*
X88779900Y-85120000D03*
X140472400Y-52918500D03*
X138590300Y-53894200D03*
X84733900Y-84502000D03*
D46*
X143081150Y-67668550D02*
X143081150Y-70233950D01*
X152781000Y-72288400D02*
X151968200Y-72288400D01*
X153289000Y-71780400D02*
X152781000Y-72288400D01*
X152196800Y-70358000D02*
X153466800Y-70358000D01*
X152120600Y-70434200D02*
X152196800Y-70358000D01*
X144449800Y-72186800D02*
X150164800Y-72186800D01*
X144297400Y-72339200D02*
X144449800Y-72186800D01*
X143081150Y-70233950D02*
X143408400Y-70561200D01*
X157070000Y-82285000D02*
X154243200Y-82285000D01*
X154243200Y-82285000D02*
X154101800Y-82143600D01*
X152933400Y-80010000D02*
X152552400Y-79629000D01*
X152552400Y-79629000D02*
X151206200Y-79629000D01*
X156012600Y-73070000D02*
X157070000Y-73070000D01*
X151155400Y-73939400D02*
X151333200Y-73761600D01*
X151333200Y-73761600D02*
X155321000Y-73761600D01*
X155321000Y-73761600D02*
X156012600Y-73070000D01*
X157070000Y-64180000D02*
X154350000Y-64180000D01*
X152313100Y-64770000D02*
X151768200Y-65314900D01*
X153760000Y-64770000D02*
X152313100Y-64770000D01*
X154350000Y-64180000D02*
X153760000Y-64770000D01*
X128697056Y-70534769D02*
X128702831Y-70534769D01*
X128702831Y-70534769D02*
X130048000Y-69189600D01*
X130048000Y-69189600D02*
X130200400Y-69189600D01*
X137700000Y-63500000D02*
X135407400Y-63500000D01*
X130200400Y-69189600D02*
X130200400Y-69164200D01*
X129108200Y-68224400D02*
X129286000Y-68402200D01*
X129108200Y-65455800D02*
X129108200Y-68224400D01*
X132181600Y-62382400D02*
X129108200Y-65455800D01*
X135407400Y-63500000D02*
X134543800Y-62636400D01*
X128697056Y-89485231D02*
X128697056Y-89504856D01*
X128697056Y-89504856D02*
X130327400Y-91135200D01*
X130327400Y-91135200D02*
X130327400Y-96875600D01*
X130327400Y-96875600D02*
X130701800Y-97250000D01*
X130701800Y-97250000D02*
X132080000Y-97250000D01*
X120353000Y-84535500D02*
X120353200Y-84535500D01*
X123749000Y-82042000D02*
X122860000Y-82042000D01*
X126314000Y-84607400D02*
X123749000Y-82042000D01*
X126314000Y-84632800D02*
X126314000Y-84607400D01*
X120366000Y-84535500D02*
X122860000Y-82042000D01*
X120353200Y-84535500D02*
X120366000Y-84535500D01*
X121564000Y-79984600D02*
X120929000Y-79984600D01*
X122936000Y-81356200D02*
X121564000Y-79984600D01*
X122936000Y-81965800D02*
X122936000Y-81356200D01*
X122860000Y-82042000D02*
X122936000Y-81965800D01*
X128697000Y-70534800D02*
X128697000Y-70537600D01*
X127025000Y-73888600D02*
X120929000Y-79984600D01*
X127025000Y-72212200D02*
X127025000Y-73888600D01*
X128697000Y-70540500D02*
X127025000Y-72212200D01*
X128697000Y-70537600D02*
X128697000Y-70540500D01*
D47*
X128697100Y-70537500D02*
X128697100Y-70534800D01*
X128697000Y-70537600D02*
X128697100Y-70537500D01*
D48*
X213360000Y-105750400D02*
X212109600Y-105750400D01*
D49*
X82982300Y-96002300D02*
X82910000Y-95930000D01*
D48*
X82297500Y-102617500D02*
X83820000Y-104140000D01*
X82297500Y-96687100D02*
X82297500Y-102617500D01*
X82982300Y-96002300D02*
X82297500Y-96687100D01*
D49*
X82910000Y-85770400D02*
X82910000Y-85770000D01*
D48*
X81662500Y-85770400D02*
X76200000Y-80307900D01*
X82910000Y-85770400D02*
X81662500Y-85770400D01*
X76200000Y-78740000D02*
X76200000Y-80307900D01*
X189865000Y-87650000D02*
X189865000Y-88800300D01*
X225425000Y-87650000D02*
X225425000Y-88800300D01*
X189865000Y-64790000D02*
X189865000Y-65940300D01*
X174720000Y-71120000D02*
X174720000Y-69869700D01*
X225425000Y-64790000D02*
X225425000Y-65940300D01*
D49*
X179954600Y-101960000D02*
X179955000Y-101960000D01*
D48*
X111754100Y-111651600D02*
X110490000Y-112915700D01*
X133066800Y-111651600D02*
X111754100Y-111651600D01*
X134131500Y-112716300D02*
X133066800Y-111651600D01*
X134235000Y-112716300D02*
X134131500Y-112716300D01*
D49*
X134235000Y-112716300D02*
X134235000Y-112120000D01*
X96134500Y-112120000D02*
X96135000Y-112120000D01*
D48*
X89260000Y-112120000D02*
X83820000Y-106680000D01*
X96134500Y-112120000D02*
X89260000Y-112120000D01*
D49*
X149474500Y-101960000D02*
X149475000Y-101960000D01*
D48*
X137160000Y-93440000D02*
X138410300Y-93440000D01*
X91440000Y-51570400D02*
X91440000Y-54610000D01*
X89377600Y-49508000D02*
X91440000Y-51570400D01*
X89377600Y-48257700D02*
X89377600Y-49508000D01*
X93000000Y-69000000D02*
X90500000Y-69000000D01*
X90500000Y-69000000D02*
X88000000Y-69000000D01*
X76200000Y-71120000D02*
X77666300Y-71120000D01*
X90500000Y-71120000D02*
X77666300Y-71120000D01*
X90500000Y-71120000D02*
X90500000Y-69000000D01*
X99000000Y-88000000D02*
X100450300Y-88000000D01*
X108585800Y-88414200D02*
X107701700Y-87530100D01*
X99000000Y-92000000D02*
X99000000Y-88000000D01*
X99000000Y-96000000D02*
X99000000Y-92000000D01*
X133350000Y-48110100D02*
X128270000Y-48110100D01*
X128270000Y-48110100D02*
X123190000Y-48110100D01*
X118265200Y-48110100D02*
X116972300Y-49403000D01*
X123190000Y-48110100D02*
X118265200Y-48110100D01*
X115506000Y-49403000D02*
X116972300Y-49403000D01*
X196700100Y-113030000D02*
X195451000Y-113030000D01*
D47*
X116675900Y-77464000D02*
X117524800Y-78312900D01*
D48*
X93000000Y-69000000D02*
X93000000Y-67699700D01*
X137700000Y-63500000D02*
X137700000Y-62249700D01*
X142455000Y-57420000D02*
X142455000Y-58745300D01*
X118585800Y-98414200D02*
X117701700Y-97530100D01*
X99000000Y-96000000D02*
X99000000Y-97300300D01*
X99000000Y-97300300D02*
X99000000Y-100000000D01*
X86659700Y-101300300D02*
X83820000Y-104140000D01*
X99000000Y-101300300D02*
X86659700Y-101300300D01*
X99000000Y-100000000D02*
X99000000Y-101300300D01*
X209010000Y-71120000D02*
X209010000Y-69869700D01*
X173450000Y-48260000D02*
X173450000Y-47009700D01*
X209010000Y-47009700D02*
X173450000Y-47009700D01*
X209010000Y-48260000D02*
X209010000Y-47009700D01*
X220335200Y-103799600D02*
X220960400Y-103799600D01*
X220335200Y-103799600D02*
X219710000Y-103799600D01*
X216561200Y-103799600D02*
X214610400Y-105750400D01*
X219710000Y-103799600D02*
X216561200Y-103799600D01*
X213360000Y-105750400D02*
X214610400Y-105750400D01*
X212109600Y-102021600D02*
X210245200Y-103886000D01*
X212109600Y-97449600D02*
X212109600Y-102021600D01*
X207772000Y-103886000D02*
X210245200Y-103886000D01*
X210245200Y-103886000D02*
X212109600Y-105750400D01*
X212734800Y-97449600D02*
X212109600Y-97449600D01*
X212734800Y-97449600D02*
X213360000Y-97449600D01*
X213360000Y-97449600D02*
X214610400Y-97449600D01*
X109982000Y-132645700D02*
X110095800Y-132645700D01*
X109982000Y-135890000D02*
X109982000Y-132645700D01*
X117701700Y-97530100D02*
X110953600Y-97530100D01*
X109760000Y-74930000D02*
X109760000Y-76005200D01*
X109760000Y-76005200D02*
X109760000Y-76180300D01*
X76200000Y-78740000D02*
X77767900Y-78740000D01*
D46*
X127305000Y-85623400D02*
X126314000Y-84632800D01*
X127305000Y-88112600D02*
X127305000Y-85623400D01*
X128677000Y-89485200D02*
X127305000Y-88112600D01*
X128697000Y-89485200D02*
X128677000Y-89485200D01*
D47*
X128697000Y-89485200D02*
X128697100Y-89485200D01*
D48*
X114840000Y-69850000D02*
X114840000Y-68599700D01*
D46*
X119577000Y-80365600D02*
X118111300Y-78899400D01*
X120548000Y-80365600D02*
X119577000Y-80365600D01*
X120929000Y-79984600D02*
X120548000Y-80365600D01*
X126314000Y-85648800D02*
X126314000Y-84632800D01*
X123892000Y-88071000D02*
X126314000Y-85648800D01*
X123889000Y-88071000D02*
X123892000Y-88071000D01*
D47*
X123889000Y-88071000D02*
X123888700Y-88071000D01*
D46*
X118111300Y-78899400D02*
X117525000Y-78312900D01*
D47*
X117524800Y-78312900D02*
X118111300Y-78899400D01*
D48*
X135350000Y-67310000D02*
X135350000Y-66684800D01*
X135350000Y-66684800D02*
X135350000Y-66059700D01*
X140000000Y-72000000D02*
X140000000Y-70749700D01*
X196700100Y-113030000D02*
X197949200Y-113030000D01*
X197949200Y-113810700D02*
X197949200Y-113030000D01*
X198519300Y-114380800D02*
X197949200Y-113810700D01*
X212098800Y-114380800D02*
X198519300Y-114380800D01*
X221820200Y-104659400D02*
X212098800Y-114380800D01*
X223580700Y-106419900D02*
X221820200Y-104659400D01*
X226000000Y-106419900D02*
X223580700Y-106419900D01*
X221820200Y-104659400D02*
X220960400Y-103799600D01*
X142455000Y-59212500D02*
X142455000Y-58745300D01*
X139417800Y-62249700D02*
X142455000Y-59212500D01*
X137700000Y-62249700D02*
X139417800Y-62249700D01*
X191215900Y-90151200D02*
X214610400Y-90151200D01*
X189865000Y-88800300D02*
X191215900Y-90151200D01*
X214610400Y-97449600D02*
X214610400Y-90151200D01*
X215961300Y-88800300D02*
X225425000Y-88800300D01*
X214610400Y-90151200D02*
X215961300Y-88800300D01*
X225425000Y-87650000D02*
X225425000Y-86499700D01*
X225425000Y-66610800D02*
X225425000Y-65940300D01*
X222200500Y-69835300D02*
X225425000Y-66610800D01*
X220915800Y-71120000D02*
X222200500Y-69835300D01*
X209010000Y-71120000D02*
X220915800Y-71120000D01*
X226100300Y-85824400D02*
X225425000Y-86499700D01*
X226100300Y-73735100D02*
X226100300Y-85824400D01*
X222200500Y-69835300D02*
X226100300Y-73735100D01*
X193794400Y-69869700D02*
X209010000Y-69869700D01*
X189865000Y-65940300D02*
X193794400Y-69869700D01*
X179954600Y-101960000D02*
X179343400Y-101960000D01*
D49*
X164528100Y-102146900D02*
X164715000Y-101960000D01*
D48*
X179343400Y-101960000D02*
X173596600Y-101960000D01*
X194077800Y-111656800D02*
X195451000Y-113030000D01*
X184138900Y-111656800D02*
X194077800Y-111656800D01*
X182880000Y-112915700D02*
X184138900Y-111656800D01*
X164103900Y-102146900D02*
X164040700Y-102210100D01*
X164528100Y-102146900D02*
X164103900Y-102146900D01*
D49*
X149474600Y-101960400D02*
X149475000Y-101960000D01*
D48*
X137700000Y-63500000D02*
X137700000Y-64600200D01*
X136240500Y-66059700D02*
X135350000Y-66059700D01*
X137700000Y-64600200D02*
X136240500Y-66059700D01*
X142000000Y-88000000D02*
X140699700Y-88000000D01*
X90500000Y-71120000D02*
X90500000Y-74000000D01*
X93000000Y-74000000D02*
X90500000Y-74000000D01*
X90500000Y-74000000D02*
X88000000Y-74000000D01*
X152538100Y-103494700D02*
X157318000Y-103494700D01*
X152468400Y-103564400D02*
X152538100Y-103494700D01*
X150311100Y-103564400D02*
X152468400Y-103564400D01*
X149474600Y-102727900D02*
X150311100Y-103564400D01*
X149474600Y-101960400D02*
X149474600Y-102727900D01*
X141502800Y-71947500D02*
X141450300Y-72000000D01*
X141762200Y-71947500D02*
X141502800Y-71947500D01*
X140000000Y-72000000D02*
X141450300Y-72000000D01*
X140685900Y-77314100D02*
X139536400Y-77314100D01*
X141000000Y-77000000D02*
X140685900Y-77314100D01*
X92020700Y-78740000D02*
X77767900Y-78740000D01*
X94580400Y-76180300D02*
X92020700Y-78740000D01*
X109760000Y-76180300D02*
X94580400Y-76180300D01*
D49*
X156570000Y-54020400D02*
X156570000Y-54020000D01*
D48*
X157472400Y-54020400D02*
X156570000Y-54020400D01*
X158428900Y-53063900D02*
X157472400Y-54020400D01*
X158428900Y-52927100D02*
X158428900Y-53063900D01*
X164346300Y-47009700D02*
X158428900Y-52927100D01*
X173450000Y-47009700D02*
X164346300Y-47009700D01*
X156570000Y-54020400D02*
X152555000Y-54020400D01*
X182431300Y-113364400D02*
X182880000Y-112915700D01*
X182431300Y-115466700D02*
X182431300Y-113364400D01*
X182490600Y-115526000D02*
X182431300Y-115466700D01*
X182490600Y-132527100D02*
X182490600Y-115526000D01*
X182372000Y-132645700D02*
X182490600Y-132527100D01*
X182372000Y-135890000D02*
X182372000Y-132645700D01*
X139414900Y-70749700D02*
X140000000Y-70749700D01*
X135350000Y-66684800D02*
X139414900Y-70749700D01*
X185935600Y-69869700D02*
X189865000Y-65940300D01*
X174720000Y-69869700D02*
X185935600Y-69869700D01*
X110723800Y-97300300D02*
X99000000Y-97300300D01*
X110953600Y-97530100D02*
X110723800Y-97300300D01*
X146930300Y-101960000D02*
X149474500Y-101960000D01*
X138410300Y-93440000D02*
X146930300Y-101960000D01*
X110763400Y-77183700D02*
X109760000Y-76180300D01*
X113980300Y-77183700D02*
X110763400Y-77183700D01*
X114260600Y-77464000D02*
X113980300Y-77183700D01*
X116675900Y-77464000D02*
X114260600Y-77464000D01*
X113940000Y-67699700D02*
X114840000Y-68599700D01*
X93000000Y-67699700D02*
X113940000Y-67699700D01*
X100560000Y-87890300D02*
X100450300Y-88000000D01*
X107341500Y-87890300D02*
X100560000Y-87890300D01*
X107701700Y-87530100D02*
X107341500Y-87890300D01*
X138410300Y-89635400D02*
X138410300Y-93440000D01*
X139713200Y-88332500D02*
X138410300Y-89635400D01*
X140367200Y-88332500D02*
X139713200Y-88332500D01*
X140699700Y-88000000D02*
X140367200Y-88332500D01*
X149124700Y-65314900D02*
X151768200Y-65314900D01*
X148851000Y-65588600D02*
X149124700Y-65314900D01*
X148601500Y-65339100D02*
X148851000Y-65588600D01*
X148601500Y-65314900D02*
X148601500Y-65339100D01*
X145434800Y-65314900D02*
X148601500Y-65314900D01*
X140000000Y-70749700D02*
X143081150Y-67668550D01*
X143081150Y-67668550D02*
X145434800Y-65314900D01*
X134600300Y-97250000D02*
X132080000Y-97250000D01*
X138410300Y-93440000D02*
X134600300Y-97250000D01*
D46*
X155193800Y-98993100D02*
X165242600Y-98993100D01*
X154117200Y-100069700D02*
X155193800Y-98993100D01*
X153609300Y-100069700D02*
X154117200Y-100069700D01*
X152725000Y-100954000D02*
X153609300Y-100069700D01*
X152725000Y-101960000D02*
X152725000Y-100954000D01*
X153375000Y-101074200D02*
X153425000Y-101024200D01*
X153375000Y-101960000D02*
X153375000Y-101074200D01*
X154025000Y-101960000D02*
X154025000Y-101134700D01*
X173450900Y-99528000D02*
X173450900Y-99735700D01*
X173124700Y-99201800D02*
X173450900Y-99528000D01*
X165819400Y-99201800D02*
X173124700Y-99201800D01*
X165502800Y-99518400D02*
X165819400Y-99201800D01*
X155641300Y-99518400D02*
X165502800Y-99518400D01*
X154025000Y-101134700D02*
X155641300Y-99518400D01*
X155325000Y-101960000D02*
X155325000Y-101134700D01*
X172786900Y-99672100D02*
X172850500Y-99735700D01*
X165986000Y-99672100D02*
X172786900Y-99672100D01*
X165689400Y-99968700D02*
X165986000Y-99672100D01*
X156491000Y-99968700D02*
X165689400Y-99968700D01*
X155325000Y-101134700D02*
X156491000Y-99968700D01*
X182555000Y-101960000D02*
X182555000Y-102785300D01*
X176648100Y-104136200D02*
X172720000Y-108064300D01*
X181191000Y-104136200D02*
X176648100Y-104136200D01*
X182541800Y-102785400D02*
X181191000Y-104136200D01*
X182541800Y-102785300D02*
X182541800Y-102785400D01*
X182555000Y-102785300D02*
X182541800Y-102785300D01*
X181905000Y-101960000D02*
X181905000Y-102785300D01*
X170883800Y-108064300D02*
X170180000Y-108064300D01*
X175125200Y-103822900D02*
X170883800Y-108064300D01*
X176148300Y-103822900D02*
X175125200Y-103822900D01*
X176639800Y-103331400D02*
X176148300Y-103822900D01*
X181358900Y-103331400D02*
X176639800Y-103331400D01*
X181905000Y-102785300D02*
X181358900Y-103331400D01*
X183855000Y-101960000D02*
X183855000Y-102785300D01*
X168729700Y-109154000D02*
X167640000Y-108064300D01*
X173226700Y-109154000D02*
X168729700Y-109154000D01*
X173990000Y-108390700D02*
X173226700Y-109154000D01*
X173990000Y-107788300D02*
X173990000Y-108390700D01*
X177096000Y-104682300D02*
X173990000Y-107788300D01*
X181958000Y-104682300D02*
X177096000Y-104682300D01*
X183855000Y-102785300D02*
X181958000Y-104682300D01*
X166663300Y-109627600D02*
X165100000Y-108064300D01*
X175305700Y-109627600D02*
X166663300Y-109627600D01*
X176530000Y-108403300D02*
X175305700Y-109627600D01*
X176530000Y-107779200D02*
X176530000Y-108403300D01*
X177332300Y-106976900D02*
X176530000Y-107779200D01*
X180377800Y-106976900D02*
X177332300Y-106976900D01*
X184505000Y-102849700D02*
X180377800Y-106976900D01*
X184505000Y-101960000D02*
X184505000Y-102849700D01*
X164574900Y-110079200D02*
X162560000Y-108064300D01*
X182454900Y-110079200D02*
X164574900Y-110079200D01*
X184332600Y-108201500D02*
X182454900Y-110079200D01*
X184332600Y-106979600D02*
X184332600Y-108201500D01*
X185805000Y-105507200D02*
X184332600Y-106979600D01*
X185805000Y-101960000D02*
X185805000Y-105507200D01*
X181255000Y-101960000D02*
X181255000Y-102785300D01*
X160020000Y-107902100D02*
X160020000Y-108064300D01*
X163198100Y-104724000D02*
X160020000Y-107902100D01*
X172950300Y-104724000D02*
X163198100Y-104724000D01*
X174902000Y-102772300D02*
X172950300Y-104724000D01*
X176148300Y-102772300D02*
X174902000Y-102772300D01*
X176161300Y-102785300D02*
X176148300Y-102772300D01*
X181255000Y-102785300D02*
X176161300Y-102785300D01*
D50*
X206470000Y-113030000D02*
X206470000Y-111804700D01*
X206771200Y-111503500D02*
X206470000Y-111804700D01*
X206771200Y-107950000D02*
X206771200Y-111503500D01*
X111666100Y-106888200D02*
X110490000Y-108064300D01*
X130260100Y-106888200D02*
X111666100Y-106888200D01*
X132590100Y-109218200D02*
X130260100Y-106888200D01*
X150834000Y-109218200D02*
X132590100Y-109218200D01*
X151130000Y-108922200D02*
X150834000Y-109218200D01*
X205671200Y-111005900D02*
X206470000Y-111804700D01*
X156867100Y-111005900D02*
X205671200Y-111005900D01*
X155934000Y-111939000D02*
X156867100Y-111005900D01*
X155803000Y-111939000D02*
X155934000Y-111939000D01*
D46*
X96785000Y-112120000D02*
X96785000Y-112945300D01*
X147933000Y-117514800D02*
X148327000Y-117120800D01*
X101354500Y-117514800D02*
X147933000Y-117514800D01*
X96785000Y-112945300D02*
X101354500Y-117514800D01*
X148327000Y-117120800D02*
X148327000Y-119393900D01*
X179832000Y-132667100D02*
X179832000Y-135890000D01*
X174051200Y-99456700D02*
X174051200Y-99735700D01*
X173055400Y-98460900D02*
X174051200Y-99456700D01*
X155089000Y-98460900D02*
X173055400Y-98460900D01*
X153930500Y-99619400D02*
X155089000Y-98460900D01*
X153373300Y-99619400D02*
X153930500Y-99619400D01*
X152075000Y-100917700D02*
X153373300Y-99619400D01*
X152075000Y-101960000D02*
X152075000Y-100917700D01*
X177292000Y-132666000D02*
X177292000Y-135890000D01*
X175013600Y-103297600D02*
X175930600Y-103297600D01*
X172926100Y-105385100D02*
X175013600Y-103297600D01*
X163279900Y-105385100D02*
X172926100Y-105385100D01*
X151425000Y-101960000D02*
X151425000Y-102785300D01*
X151747700Y-102785300D02*
X151829300Y-102866900D01*
X151425000Y-102785300D02*
X151747700Y-102785300D01*
X174752000Y-132629600D02*
X174752000Y-135890000D01*
X174011600Y-111667300D02*
X175260000Y-112915700D01*
X159455800Y-111667300D02*
X174011600Y-111667300D01*
X150775000Y-101960000D02*
X150775000Y-102884900D01*
X172212000Y-132642800D02*
X172212000Y-135890000D01*
X150125000Y-101960000D02*
X150125000Y-101134700D01*
X150779400Y-101134700D02*
X150874800Y-101039300D01*
X150125000Y-101134700D02*
X150779400Y-101134700D01*
X170129700Y-115506000D02*
X172720000Y-112915700D01*
X143667500Y-115506000D02*
X170129700Y-115506000D01*
X169672000Y-132637300D02*
X169672000Y-135890000D01*
X170565000Y-101960000D02*
X170565000Y-102785300D01*
X170565000Y-102785300D02*
X171167200Y-102785300D01*
X169265000Y-101960000D02*
X169265000Y-101134700D01*
X169161600Y-101031300D02*
X169034300Y-101031300D01*
X169265000Y-101134700D02*
X169161600Y-101031300D01*
X167132000Y-135890000D02*
X167132000Y-132770700D01*
X167572000Y-132770700D02*
X167670400Y-132672300D01*
X167132000Y-132770700D02*
X167572000Y-132770700D01*
X164656000Y-132706700D02*
X164656000Y-132007400D01*
X164592000Y-132770700D02*
X164656000Y-132706700D01*
X164592000Y-135890000D02*
X164592000Y-132770700D01*
X166802100Y-102785300D02*
X167315000Y-102785300D01*
X166454300Y-103133100D02*
X166802100Y-102785300D01*
X167315000Y-101960000D02*
X167315000Y-102785300D01*
X162052000Y-132677000D02*
X162052000Y-135890000D01*
X183205000Y-101960000D02*
X183205000Y-101134700D01*
X182754700Y-100684400D02*
X183205000Y-101134700D01*
X174623900Y-100684400D02*
X182754700Y-100684400D01*
X174497000Y-100811300D02*
X174623900Y-100684400D01*
X171197800Y-100811300D02*
X174497000Y-100811300D01*
X159512000Y-135890000D02*
X159512000Y-132675300D01*
X180605000Y-101960000D02*
X180605000Y-101134700D01*
X174810500Y-101134700D02*
X180605000Y-101134700D01*
X174683600Y-101261600D02*
X174810500Y-101134700D01*
X173435300Y-101261600D02*
X174683600Y-101261600D01*
X173021200Y-101675700D02*
X173435300Y-101261600D01*
X173021200Y-102388700D02*
X173021200Y-101675700D01*
X163154300Y-105910400D02*
X172083500Y-105910400D01*
X161192400Y-107872300D02*
X163154300Y-105910400D01*
X161192400Y-109262700D02*
X161192400Y-107872300D01*
X156972000Y-135890000D02*
X156972000Y-132770700D01*
X156634300Y-132433000D02*
X156634300Y-131605700D01*
X156972000Y-132770700D02*
X156634300Y-132433000D01*
X167965000Y-102798400D02*
X167965000Y-101960000D01*
X166940000Y-103823400D02*
X167965000Y-102798400D01*
X160756000Y-103823400D02*
X166940000Y-103823400D01*
X158461500Y-106117900D02*
X160756000Y-103823400D01*
X154432000Y-132662700D02*
X154432000Y-135890000D01*
X168615000Y-101960000D02*
X168615000Y-102785300D01*
X167126600Y-104273700D02*
X168615000Y-102785300D01*
X162201500Y-104273700D02*
X167126600Y-104273700D01*
X158750000Y-107725200D02*
X162201500Y-104273700D01*
X158750000Y-108332200D02*
X158750000Y-107725200D01*
X155668500Y-111413700D02*
X158750000Y-108332200D01*
X155585400Y-111413700D02*
X155668500Y-111413700D01*
X154940000Y-112059100D02*
X155585400Y-111413700D01*
X154940000Y-112915700D02*
X154940000Y-112059100D01*
X152500300Y-135281700D02*
X152500300Y-132653600D01*
X151892000Y-135890000D02*
X152500300Y-135281700D01*
X150952400Y-114363300D02*
X152400000Y-112915700D01*
X147342200Y-114363300D02*
X150952400Y-114363300D01*
X138785000Y-112120000D02*
X138785000Y-112945300D01*
X145147900Y-112945300D02*
X138785000Y-112945300D01*
X145804800Y-112288400D02*
X145147900Y-112945300D01*
X140085000Y-112120000D02*
X140085000Y-111294700D01*
X145698200Y-111294700D02*
X140085000Y-111294700D01*
X145747200Y-111343700D02*
X145698200Y-111294700D01*
X149352000Y-135890000D02*
X149352000Y-132770700D01*
X151277500Y-132770700D02*
X149352000Y-132770700D01*
X152388700Y-131659500D02*
X151277500Y-132770700D01*
X101985000Y-112120000D02*
X101985000Y-111294700D01*
X125730000Y-108064300D02*
X124642700Y-108064300D01*
X124642700Y-108200300D02*
X124642700Y-108064300D01*
X122340500Y-110502500D02*
X124642700Y-108200300D01*
X102777200Y-110502500D02*
X122340500Y-110502500D01*
X101985000Y-111294700D02*
X102777200Y-110502500D01*
X122527600Y-116225600D02*
X122041200Y-115739200D01*
X122527600Y-116783000D02*
X122527600Y-116225600D01*
X122246100Y-117064500D02*
X122527600Y-116783000D01*
X102187500Y-117064500D02*
X122246100Y-117064500D01*
X98085000Y-112962000D02*
X102187500Y-117064500D01*
X98085000Y-112120000D02*
X98085000Y-112962000D01*
X100685000Y-112120000D02*
X100685000Y-111294700D01*
X118662100Y-110052200D02*
X120650000Y-108064300D01*
X101927500Y-110052200D02*
X118662100Y-110052200D01*
X100685000Y-111294700D02*
X101927500Y-110052200D01*
X99385000Y-112120000D02*
X99385000Y-111294700D01*
X116572400Y-109601900D02*
X118110000Y-108064300D01*
X101077800Y-109601900D02*
X116572400Y-109601900D01*
X99385000Y-111294700D02*
X101077800Y-109601900D01*
X99578100Y-109151600D02*
X97435000Y-111294700D01*
X111942700Y-109151600D02*
X99578100Y-109151600D01*
X113030000Y-108064300D02*
X111942700Y-109151600D01*
X97435000Y-112120000D02*
X97435000Y-111294700D01*
X98735000Y-112120000D02*
X98735000Y-112945300D01*
X122682000Y-132662800D02*
X122682000Y-135890000D01*
X121927900Y-116596200D02*
X122002200Y-116521900D01*
X102385900Y-116596200D02*
X121927900Y-116596200D01*
X98735000Y-112945300D02*
X102385900Y-116596200D01*
X100035000Y-112120000D02*
X100035000Y-112945300D01*
X103149000Y-116059300D02*
X118481600Y-116059300D01*
X100035000Y-112945300D02*
X103149000Y-116059300D01*
X120142000Y-131943400D02*
X120142000Y-135890000D01*
X166665000Y-101960000D02*
X166665000Y-101134700D01*
X117602000Y-132685700D02*
X117602000Y-135890000D01*
X166214700Y-100684400D02*
X166665000Y-101134700D01*
X160979800Y-100684400D02*
X166214700Y-100684400D01*
X157575300Y-104088900D02*
X160979800Y-100684400D01*
X157346900Y-104088900D02*
X157575300Y-104088900D01*
X157346900Y-104089000D02*
X157346900Y-104088900D01*
X153670000Y-107765900D02*
X157346900Y-104089000D01*
X153670000Y-108370200D02*
X153670000Y-107765900D01*
X151509400Y-110530800D02*
X153670000Y-108370200D01*
X149635700Y-110530800D02*
X151509400Y-110530800D01*
X145665700Y-114500800D02*
X149635700Y-110530800D01*
X142190600Y-114500800D02*
X145665700Y-114500800D01*
X141740400Y-114951000D02*
X142190600Y-114500800D01*
X136916900Y-114951000D02*
X141740400Y-114951000D01*
X136466600Y-114500700D02*
X136916900Y-114951000D01*
X119695000Y-114500700D02*
X136466600Y-114500700D01*
X118110000Y-112915700D02*
X119695000Y-114500700D01*
X166015000Y-101960000D02*
X166015000Y-101134700D01*
X115062000Y-132667400D02*
X115062000Y-135890000D01*
X162672300Y-101134700D02*
X166015000Y-101134700D01*
X156210000Y-107597000D02*
X162672300Y-101134700D01*
X156210000Y-108365600D02*
X156210000Y-107597000D01*
X153594400Y-110981200D02*
X156210000Y-108365600D01*
X149981300Y-110981200D02*
X153594400Y-110981200D01*
X146008900Y-114953600D02*
X149981300Y-110981200D01*
X142374700Y-114953600D02*
X146008900Y-114953600D01*
X141927000Y-115401300D02*
X142374700Y-114953600D01*
X136730300Y-115401300D02*
X141927000Y-115401300D01*
X136282500Y-114953500D02*
X136730300Y-115401300D01*
X117607800Y-114953500D02*
X136282500Y-114953500D01*
X115570000Y-112915700D02*
X117607800Y-114953500D01*
X112522000Y-132687000D02*
X112522000Y-135890000D01*
X164852200Y-103298100D02*
X163463100Y-103298100D01*
X165365000Y-102785300D02*
X164852200Y-103298100D01*
X165365000Y-101960000D02*
X165365000Y-102785300D01*
X146989900Y-103062000D02*
X118965600Y-103062000D01*
X148072900Y-104145000D02*
X146989900Y-103062000D01*
X156547900Y-104145000D02*
X148072900Y-104145000D01*
X184912000Y-132640000D02*
X184912000Y-135890000D01*
X184214300Y-114121400D02*
X183111000Y-114121400D01*
X185420000Y-112915700D02*
X184214300Y-114121400D01*
X140985000Y-113600100D02*
X141066900Y-113518200D01*
X137996900Y-113600100D02*
X140985000Y-113600100D01*
X137485000Y-113088200D02*
X137996900Y-113600100D01*
X137485000Y-112120000D02*
X137485000Y-113088200D01*
X142011900Y-116098400D02*
X181840300Y-116098400D01*
X138135000Y-112960500D02*
X138198700Y-113024200D01*
X138135000Y-112120000D02*
X138135000Y-112960500D01*
X146335000Y-110660500D02*
X145609500Y-109935000D01*
X146335000Y-112557700D02*
X146335000Y-110660500D01*
X145292600Y-113600100D02*
X146335000Y-112557700D01*
X141817400Y-113600100D02*
X145292600Y-113600100D01*
X141367100Y-114050400D02*
X141817400Y-113600100D01*
X137797200Y-114050400D02*
X141367100Y-114050400D01*
X136835000Y-113088200D02*
X137797200Y-114050400D01*
X136835000Y-112120000D02*
X136835000Y-113088200D01*
X136185000Y-112120000D02*
X136185000Y-112945300D01*
X152400000Y-108395200D02*
X152400000Y-108064300D01*
X150714700Y-110080500D02*
X152400000Y-108395200D01*
X149449100Y-110080500D02*
X150714700Y-110080500D01*
X145479200Y-114050400D02*
X149449100Y-110080500D01*
X142004100Y-114050400D02*
X145479200Y-114050400D01*
X141553800Y-114500700D02*
X142004100Y-114050400D01*
X137581200Y-114500700D02*
X141553800Y-114500700D01*
X136185000Y-113104500D02*
X137581200Y-114500700D01*
X136185000Y-112945300D02*
X136185000Y-113104500D01*
X125222000Y-132680100D02*
X125222000Y-135890000D01*
D50*
X207772000Y-99314000D02*
X206380700Y-99314000D01*
X185155000Y-101960000D02*
X185155000Y-101084700D01*
X139435000Y-112120000D02*
X139435000Y-111244700D01*
X154675000Y-101960000D02*
X154675000Y-102835300D01*
X169915000Y-101960000D02*
X169915000Y-101222300D01*
X101335000Y-112120000D02*
X101335000Y-112995300D01*
X202168800Y-107950000D02*
X202168800Y-107112900D01*
X213360000Y-110149600D02*
X212184600Y-110149600D01*
X202306500Y-106975200D02*
X206380700Y-106975200D01*
X202168800Y-107112900D02*
X202306500Y-106975200D01*
X209010200Y-106975200D02*
X212184600Y-110149600D01*
X206380700Y-106975200D02*
X209010200Y-106975200D01*
X206380700Y-106975200D02*
X206380700Y-99395800D01*
X206380700Y-99395800D02*
X206380700Y-99314000D01*
X185155000Y-100627500D02*
X185155000Y-101084700D01*
X186386700Y-99395800D02*
X206380700Y-99395800D01*
X185155000Y-100627500D02*
X186386700Y-99395800D01*
X169915000Y-101222300D02*
X169915000Y-100442200D01*
X158015500Y-102835300D02*
X154675000Y-102835300D01*
X169849200Y-100376400D02*
X166770000Y-100376400D01*
X169915000Y-100442200D02*
X169849200Y-100376400D01*
X140466400Y-110092400D02*
X139374600Y-111184200D01*
X143807400Y-110092400D02*
X140466400Y-110092400D01*
X139193200Y-111002900D02*
X139374600Y-111184200D01*
X110069300Y-111002900D02*
X139193200Y-111002900D01*
X108076900Y-112995300D02*
X110069300Y-111002900D01*
X101335000Y-112995300D02*
X108076900Y-112995300D01*
X139374600Y-111184200D02*
X139435000Y-111244700D01*
X184711600Y-100184100D02*
X185155000Y-100627500D01*
X174416600Y-100184100D02*
X184711600Y-100184100D01*
X174289700Y-100311000D02*
X174416600Y-100184100D01*
X172612200Y-100311000D02*
X174289700Y-100311000D01*
X172485300Y-100184100D02*
X172612200Y-100311000D01*
X170173100Y-100184100D02*
X172485300Y-100184100D01*
X169915000Y-100442200D02*
X170173100Y-100184100D01*
D46*
X219710000Y-99400400D02*
X220835400Y-99400400D01*
X209113300Y-98516800D02*
X209113300Y-101600000D01*
X206771200Y-96174700D02*
X209113300Y-98516800D01*
X206771200Y-95250000D02*
X206771200Y-96174700D01*
X207772000Y-101600000D02*
X209113300Y-101600000D01*
X224235800Y-96000000D02*
X220835400Y-99400400D01*
X226000000Y-96000000D02*
X224235800Y-96000000D01*
X213360000Y-93050400D02*
X212234600Y-93050400D01*
X218053500Y-99931500D02*
X218584600Y-99400400D01*
X217253400Y-99931500D02*
X218053500Y-99931500D01*
X219710000Y-99400400D02*
X218584600Y-99400400D01*
X212234600Y-93050400D02*
X212234600Y-95250000D01*
X206771200Y-95250000D02*
X212234600Y-95250000D01*
X212234600Y-95250000D02*
X213072800Y-95250000D01*
X127838000Y-85369400D02*
X127610000Y-85140800D01*
X127838000Y-87909400D02*
X127838000Y-85369400D01*
X129051000Y-89121800D02*
X127838000Y-87909400D01*
X129051000Y-89131700D02*
X129051000Y-89121800D01*
X125247000Y-85115400D02*
X125781000Y-85115400D01*
X126568000Y-71956500D02*
X128344000Y-70181200D01*
X126568000Y-73583800D02*
X126568000Y-71956500D01*
X120371000Y-79781400D02*
X126568000Y-73583800D01*
X125781000Y-84861400D02*
X125781000Y-85115400D01*
X123520000Y-82600800D02*
X125781000Y-84861400D01*
X123368000Y-82600800D02*
X123520000Y-82600800D01*
X117171000Y-78666500D02*
X117171200Y-78666500D01*
X118237000Y-79730600D02*
X118237000Y-79883000D01*
X117173000Y-78666500D02*
X118237000Y-79730600D01*
X117171200Y-78666500D02*
X117173000Y-78666500D01*
X124242000Y-88424600D02*
X124242300Y-88424600D01*
X136829000Y-81353500D02*
X136828800Y-81353500D01*
X124283700Y-86968900D02*
X123535000Y-87717500D01*
X123535200Y-87717400D02*
X123535200Y-87717500D01*
X124283700Y-86968900D02*
X123535200Y-87717400D01*
X125781000Y-85471800D02*
X124283700Y-86968900D01*
X125781000Y-85115400D02*
X125781000Y-85471800D01*
X169450000Y-48260000D02*
X169450000Y-49385300D01*
X89810000Y-81870000D02*
X90735300Y-81870000D01*
X206408900Y-75935300D02*
X206484800Y-76011200D01*
X206375000Y-75935300D02*
X206408900Y-75935300D01*
X205010000Y-71120000D02*
X206335300Y-71120000D01*
X206335300Y-71120000D02*
X206417400Y-71120000D01*
X206375000Y-74910000D02*
X206375000Y-75935300D01*
X168715400Y-50120000D02*
X168800200Y-50035200D01*
X163470000Y-50120000D02*
X168715400Y-50120000D01*
X168800200Y-50035100D02*
X169450000Y-49385300D01*
X168800200Y-50035200D02*
X168800200Y-50035100D01*
X170815000Y-52050000D02*
X170815000Y-51024700D01*
X206375000Y-52050000D02*
X206375000Y-53169000D01*
X162970000Y-60280000D02*
X164020300Y-60280000D01*
X170815000Y-52050000D02*
X170815000Y-53075300D01*
X179955000Y-95334700D02*
X169915000Y-95334700D01*
X201358200Y-96985300D02*
X202168800Y-96174700D01*
X185155000Y-96985300D02*
X201358200Y-96985300D01*
X185155000Y-96160000D02*
X185155000Y-96985300D01*
X202168800Y-95250000D02*
X202168800Y-96174700D01*
X139435000Y-106320000D02*
X139435000Y-107145300D01*
X164715000Y-96160000D02*
X164715000Y-96985300D01*
X154675000Y-96160000D02*
X154675000Y-96985300D01*
X169915000Y-95747300D02*
X169915000Y-95334700D01*
X169915000Y-95747300D02*
X169915000Y-96160000D01*
X169915000Y-96160000D02*
X169915000Y-96985300D01*
X101335000Y-106320000D02*
X101335000Y-107145300D01*
X96135000Y-106320000D02*
X96135000Y-107145300D01*
X179955000Y-95747300D02*
X179955000Y-95334700D01*
X179955000Y-95747300D02*
X179955000Y-96160000D01*
X179955000Y-96985300D02*
X185155000Y-96985300D01*
X179955000Y-96160000D02*
X179955000Y-96985300D01*
X107410000Y-50894700D02*
X107410000Y-48260000D01*
X102330000Y-55974700D02*
X107410000Y-50894700D01*
X102330000Y-57150000D02*
X102330000Y-55974700D01*
X102330000Y-59690000D02*
X102330000Y-57150000D01*
X102330000Y-59690000D02*
X102330000Y-60865300D01*
X118840000Y-69850000D02*
X118840000Y-68724700D01*
X76200000Y-66040000D02*
X77541300Y-66040000D01*
X132080000Y-93250000D02*
X132080000Y-91924700D01*
X131350000Y-67310000D02*
X130024700Y-67310000D01*
X162970000Y-60280000D02*
X161919700Y-60280000D01*
X144655000Y-57420000D02*
X144655000Y-59729600D01*
X144345100Y-59729600D02*
X144655000Y-59729600D01*
X141700000Y-62374700D02*
X144345100Y-59729600D01*
X161369300Y-59729600D02*
X161919700Y-60280000D01*
X144655000Y-59729600D02*
X161369300Y-59729600D01*
X205010000Y-48260000D02*
X203684700Y-48260000D01*
X203571200Y-48373500D02*
X203190200Y-48373500D01*
X203684700Y-48260000D02*
X203571200Y-48373500D01*
X169789700Y-51024700D02*
X168800200Y-50035200D01*
X170815000Y-51024700D02*
X169789700Y-51024700D01*
X168371000Y-69170000D02*
X162970000Y-69170000D01*
X170520500Y-71319500D02*
X168371000Y-69170000D01*
X170815000Y-71614000D02*
X170520500Y-71319500D01*
X170815000Y-74910000D02*
X170815000Y-71614000D01*
X170520500Y-71319500D02*
X170720000Y-71120000D01*
X128344000Y-70181200D02*
X128343500Y-70181200D01*
X131844000Y-91924700D02*
X129051000Y-89131700D01*
X132080000Y-91924700D02*
X131844000Y-91924700D01*
X129051000Y-89131700D02*
X129050600Y-89131700D01*
X124928600Y-87771000D02*
X124275000Y-88424600D01*
X125109500Y-87771000D02*
X124928600Y-87771000D01*
X125356200Y-88017700D02*
X125109500Y-87771000D01*
X124242300Y-88424600D02*
X124275000Y-88424600D01*
X124275000Y-88424600D02*
X126771000Y-85928200D01*
X124595800Y-88778100D02*
X125356200Y-88017700D01*
X123012000Y-82600800D02*
X123368000Y-82600800D01*
X120724000Y-84889000D02*
X123012000Y-82600800D01*
X120707000Y-84889000D02*
X120724000Y-84889000D01*
X120707000Y-84889000D02*
X120706700Y-84889000D01*
X113760000Y-74930000D02*
X115085300Y-74930000D01*
X170815000Y-74910000D02*
X170815000Y-75935300D01*
X141700000Y-63500000D02*
X147860000Y-63500000D01*
X136802000Y-81353500D02*
X135865000Y-80416400D01*
X136828800Y-81353500D02*
X136802000Y-81353500D01*
X132334000Y-80416400D02*
X127610000Y-85140800D01*
X135865000Y-80416400D02*
X132334000Y-80416400D01*
X145000000Y-77000000D02*
X143674700Y-77000000D01*
X163507700Y-77735000D02*
X164045300Y-77735000D01*
X163507700Y-77735000D02*
X162970000Y-77735000D01*
X162970000Y-77735000D02*
X161894700Y-77735000D01*
X169015300Y-77735000D02*
X170815000Y-75935300D01*
X164045300Y-77735000D02*
X169015300Y-77735000D01*
X149475000Y-96160000D02*
X149475000Y-96985300D01*
X134235000Y-106466500D02*
X134235000Y-107145300D01*
X134235000Y-106466500D02*
X134235000Y-106387800D01*
X134235000Y-106320000D02*
X134235000Y-106387800D01*
X132080000Y-93250000D02*
X132080000Y-94575300D01*
X131875600Y-94575300D02*
X132080000Y-94575300D01*
X131780200Y-94670700D02*
X131875600Y-94575300D01*
X132117100Y-106387800D02*
X132117100Y-105908100D01*
X134235000Y-106387800D02*
X132117100Y-106387800D01*
X137160000Y-89440000D02*
X136034700Y-89440000D01*
X164715000Y-96985300D02*
X154675000Y-96985300D01*
X165377700Y-97648000D02*
X164715000Y-96985300D01*
X169252300Y-97648000D02*
X165377700Y-97648000D01*
X169915000Y-96985300D02*
X169252300Y-97648000D01*
X89810000Y-92030000D02*
X90735300Y-92030000D01*
X137429800Y-72104500D02*
X137325300Y-72000000D01*
X138275300Y-72104500D02*
X137429800Y-72104500D01*
X136000000Y-72000000D02*
X137325300Y-72000000D01*
X141700000Y-63500000D02*
X141700000Y-62937300D01*
X141700000Y-62937300D02*
X141700000Y-62374700D01*
X141700000Y-62937300D02*
X138851300Y-65786000D01*
X107107700Y-106387800D02*
X132117100Y-106387800D01*
X105899900Y-107595600D02*
X107107700Y-106387800D01*
X101785300Y-107595600D02*
X105899900Y-107595600D01*
X101335000Y-107145300D02*
X101785300Y-107595600D01*
X136034700Y-90107500D02*
X136034700Y-89440000D01*
X134217500Y-91924700D02*
X136034700Y-90107500D01*
X132080000Y-91924700D02*
X134217500Y-91924700D01*
X91185600Y-82320300D02*
X90735300Y-81870000D01*
X91185600Y-91579700D02*
X91185600Y-82320300D01*
X90735300Y-92030000D02*
X91185600Y-91579700D01*
X164020300Y-59870000D02*
X164020300Y-60280000D01*
X170815000Y-53075300D02*
X164020300Y-59870000D01*
X138751500Y-107828800D02*
X139435000Y-107145300D01*
X134918500Y-107828800D02*
X138751500Y-107828800D01*
X134235000Y-107145300D02*
X134918500Y-107828800D01*
X96135000Y-107145300D02*
X101335000Y-107145300D01*
X147057100Y-76268200D02*
X146325300Y-77000000D01*
X160427900Y-76268200D02*
X147057100Y-76268200D01*
X161894700Y-77735000D02*
X160427900Y-76268200D01*
X145000000Y-77000000D02*
X146325300Y-77000000D01*
X118840000Y-69850000D02*
X120165300Y-69850000D01*
X138507700Y-78150500D02*
X138507700Y-77342800D01*
X142118700Y-78150500D02*
X138507700Y-78150500D01*
X143269200Y-77000000D02*
X142118700Y-78150500D01*
X143674700Y-77000000D02*
X143269200Y-77000000D01*
X138130900Y-78150500D02*
X135865000Y-80416400D01*
X138507700Y-78150500D02*
X138130900Y-78150500D01*
X102330000Y-60865300D02*
X102330000Y-64868800D01*
X78712500Y-64868800D02*
X77541300Y-66040000D01*
X102330000Y-64868800D02*
X78712500Y-64868800D01*
X130024700Y-68500500D02*
X130024700Y-67310000D01*
X128344000Y-70181200D02*
X130024700Y-68500500D01*
X120581700Y-70266400D02*
X120607400Y-70266400D01*
X120165300Y-69850000D02*
X120581700Y-70266400D01*
X139435000Y-105057900D02*
X139435000Y-106320000D01*
X116396000Y-76240700D02*
X116648800Y-76240700D01*
X115085300Y-74930000D02*
X116396000Y-76240700D01*
X127591500Y-69428700D02*
X125804600Y-69428700D01*
X128344000Y-70181200D02*
X127591500Y-69428700D01*
X114984100Y-64868800D02*
X102330000Y-64868800D01*
X118840000Y-68724700D02*
X114984100Y-64868800D01*
X173704900Y-51024700D02*
X170815000Y-51024700D01*
X176356100Y-48373500D02*
X173704900Y-51024700D01*
X203190200Y-48373500D02*
X176356100Y-48373500D01*
X94846300Y-77759000D02*
X90735300Y-81870000D01*
X113741900Y-77759000D02*
X94846300Y-77759000D01*
X114649400Y-78666500D02*
X113741900Y-77759000D01*
X117171000Y-78666500D02*
X114649400Y-78666500D01*
X148595400Y-97911200D02*
X147537700Y-96853400D01*
X153749100Y-97911200D02*
X148595400Y-97911200D01*
X154675000Y-96985300D02*
X153749100Y-97911200D01*
X147600100Y-96791000D02*
X147537700Y-96853400D01*
X147600100Y-96451000D02*
X147600100Y-96791000D01*
X147907800Y-96143300D02*
X147600100Y-96451000D01*
X148343100Y-96143300D02*
X147907800Y-96143300D01*
X148650700Y-96450900D02*
X148343100Y-96143300D01*
X148650700Y-96546500D02*
X148650700Y-96450900D01*
X149089500Y-96985300D02*
X148650700Y-96546500D01*
X149475000Y-96985300D02*
X149089500Y-96985300D01*
X146577100Y-97814000D02*
X144052500Y-97814000D01*
X147537700Y-96853400D02*
X146577100Y-97814000D01*
X202470000Y-113030000D02*
X199539900Y-113030000D01*
X226000000Y-100000000D02*
X226000000Y-103580100D01*
X123190000Y-53880000D02*
X123190000Y-50949900D01*
X128270000Y-53880000D02*
X128270000Y-50949900D01*
X133350000Y-53880000D02*
X133350000Y-50949900D01*
X150405000Y-57295000D02*
X149329700Y-57295000D01*
X139055000Y-57295000D02*
X139055000Y-56219700D01*
X150755000Y-49045000D02*
X150755000Y-50070300D01*
X138805000Y-49695000D02*
X138805000Y-50770300D01*
X148523200Y-56219700D02*
X139055000Y-56219700D01*
X149329700Y-57026200D02*
X148523200Y-56219700D01*
X149329700Y-57295000D02*
X149329700Y-57026200D01*
X150055000Y-50770300D02*
X138805000Y-50770300D01*
X150755000Y-50070300D02*
X150055000Y-50770300D01*
X138922300Y-56219700D02*
X139055000Y-56219700D01*
X137496000Y-54793400D02*
X138922300Y-56219700D01*
X137496000Y-52079300D02*
X137496000Y-54793400D01*
X138805000Y-50770300D02*
X137496000Y-52079300D01*
X151860000Y-63500000D02*
X150534700Y-63500000D01*
X150534700Y-63500000D02*
X150445100Y-63500000D01*
X141355000Y-58979100D02*
X141561800Y-59185900D01*
X141355000Y-57420000D02*
X141355000Y-58979100D01*
X137676000Y-76406800D02*
X139436300Y-76406800D01*
X136123400Y-77959400D02*
X137676000Y-76406800D01*
X136121700Y-77959400D02*
X136123400Y-77959400D01*
X143555000Y-58697800D02*
X143555000Y-57420000D01*
X137677300Y-77110800D02*
X137718700Y-77110800D01*
X136475200Y-78312900D02*
X137677300Y-77110800D01*
X145623900Y-58620300D02*
X145755000Y-58620300D01*
X145181600Y-59062600D02*
X145623900Y-58620300D01*
X145755000Y-57420000D02*
X145755000Y-58620300D01*
X142373000Y-75870500D02*
X142446600Y-75944100D01*
X137913600Y-75870500D02*
X142373000Y-75870500D01*
X137827600Y-75956500D02*
X137913600Y-75870500D01*
X137489400Y-75956500D02*
X137827600Y-75956500D01*
X136519100Y-76926800D02*
X137489400Y-75956500D01*
X136447100Y-76926800D02*
X136519100Y-76926800D01*
X135768100Y-77605800D02*
X136447100Y-76926800D01*
X123181600Y-87363900D02*
X122421300Y-88124200D01*
X122474500Y-88177500D02*
X122421300Y-88124200D01*
X122474500Y-88293600D02*
X122474500Y-88177500D01*
X111000000Y-99000000D02*
X112192700Y-99000000D01*
X98582400Y-48262300D02*
X98582400Y-49387600D01*
X98582400Y-49387600D02*
X99932600Y-49387600D01*
X103410000Y-49435300D02*
X101631700Y-49435300D01*
X103410000Y-48260000D02*
X103410000Y-48735000D01*
X103410000Y-48735000D02*
X103410000Y-49435300D01*
X109306300Y-47084600D02*
X111624700Y-49403000D01*
X105060400Y-47084600D02*
X109306300Y-47084600D01*
X103410000Y-48735000D02*
X105060400Y-47084600D01*
X112966000Y-49403000D02*
X112295400Y-49403000D01*
X112295400Y-49403000D02*
X111624700Y-49403000D01*
X121767400Y-85949700D02*
X122527700Y-85189400D01*
X122527700Y-84474900D02*
X122438200Y-84385400D01*
X122527700Y-85189400D02*
X122527700Y-84474900D01*
X125161200Y-57493800D02*
X125161200Y-60564500D01*
X122872800Y-55205400D02*
X125161200Y-57493800D01*
X118097800Y-55205400D02*
X122872800Y-55205400D01*
X112295400Y-49403000D02*
X118097800Y-55205400D01*
X130314100Y-85445400D02*
X130067500Y-85445400D01*
X131525500Y-86656800D02*
X130314100Y-85445400D01*
X123190000Y-57880000D02*
X122014700Y-57880000D01*
X120249000Y-59645700D02*
X122014700Y-57880000D01*
X120249000Y-66100000D02*
X120249000Y-59645700D01*
X121060300Y-74777400D02*
X120300000Y-74017100D01*
X127955400Y-66220500D02*
X122502600Y-66220500D01*
X133350000Y-57880000D02*
X132174700Y-57880000D01*
X120300000Y-72848300D02*
X120300000Y-74017100D01*
X122262300Y-70886000D02*
X120300000Y-72848300D01*
X122262300Y-67865700D02*
X122262300Y-70886000D01*
X129482200Y-60572500D02*
X128116500Y-60572500D01*
X132174700Y-57880000D02*
X129482200Y-60572500D01*
X94845300Y-93330000D02*
X95000000Y-93175300D01*
X89810000Y-93330000D02*
X94845300Y-93330000D01*
X95000000Y-92000000D02*
X95000000Y-93175300D01*
X94240000Y-89175300D02*
X95000000Y-89175300D01*
X90735300Y-92680000D02*
X94240000Y-89175300D01*
X89810000Y-92680000D02*
X90735300Y-92680000D01*
X95000000Y-88000000D02*
X95000000Y-89175300D01*
X129445300Y-56697200D02*
X129939800Y-56202700D01*
X129445300Y-57880000D02*
X129445300Y-56697200D01*
X130425500Y-84849800D02*
X131879000Y-86303300D01*
X129725200Y-84849800D02*
X130425500Y-84849800D01*
X128555100Y-86019900D02*
X129725200Y-84849800D01*
X128270000Y-57880000D02*
X129445300Y-57880000D01*
X115107100Y-93292700D02*
X115341900Y-93057900D01*
X110318200Y-93292700D02*
X115107100Y-93292700D01*
X105566100Y-88540600D02*
X110318200Y-93292700D01*
X97872800Y-56692800D02*
X98330000Y-57150000D01*
X94919800Y-56692800D02*
X97872800Y-56692800D01*
X94488000Y-57150000D02*
X91440000Y-57150000D01*
X94919800Y-56718200D02*
X94488000Y-57150000D01*
X94919800Y-56692800D02*
X94919800Y-56718200D01*
X94919800Y-56337200D02*
X94919800Y-56692800D01*
X96291400Y-54965600D02*
X94919800Y-56337200D01*
X96291400Y-54635400D02*
X96291400Y-54965600D01*
X100508000Y-50419000D02*
X96291400Y-54635400D01*
X100508000Y-48006000D02*
X100508000Y-50419000D01*
X101905000Y-46609000D02*
X100508000Y-48006000D01*
X134747000Y-46609000D02*
X101905000Y-46609000D01*
X135280000Y-47142400D02*
X134747000Y-46609000D01*
X135280000Y-59156600D02*
X135280000Y-47142400D01*
X133375000Y-61061600D02*
X135280000Y-59156600D01*
X133375000Y-69392800D02*
X133375000Y-61061600D01*
X130466000Y-72302500D02*
X133375000Y-69392800D01*
X130465000Y-72302500D02*
X130466000Y-72302500D01*
X130465000Y-72302500D02*
X130464800Y-72302500D01*
X91490800Y-59639200D02*
X91440000Y-59690000D01*
X95199200Y-59639200D02*
X91490800Y-59639200D01*
X95986600Y-58851800D02*
X95199200Y-59639200D01*
X96774000Y-55270400D02*
X95910400Y-56134000D01*
X96774000Y-54889400D02*
X96774000Y-55270400D01*
X101092000Y-50571400D02*
X96774000Y-54889400D01*
X101092000Y-48260000D02*
X101092000Y-50571400D01*
X101397000Y-47955200D02*
X101092000Y-48260000D01*
X95986600Y-57327800D02*
X95986600Y-58851800D01*
X95935800Y-57277000D02*
X95986600Y-57327800D01*
X96748600Y-59690000D02*
X98330000Y-59690000D01*
X95986600Y-58928000D02*
X96748600Y-59690000D01*
X95986600Y-58851800D02*
X95986600Y-58928000D01*
X130818000Y-72656100D02*
X130818400Y-72656100D01*
X101702000Y-46050200D02*
X100863000Y-46888400D01*
X134849000Y-46050200D02*
X101702000Y-46050200D01*
X135814000Y-47015400D02*
X134849000Y-46050200D01*
X135814000Y-59359800D02*
X135814000Y-47015400D01*
X133909000Y-61264800D02*
X135814000Y-59359800D01*
X133909000Y-69570600D02*
X133909000Y-61264800D01*
X130823000Y-72656100D02*
X133909000Y-69570600D01*
X130818400Y-72656100D02*
X130823000Y-72656100D01*
X136697000Y-83343100D02*
X135768100Y-82414200D01*
X136825700Y-83343100D02*
X136697000Y-83343100D01*
X137443200Y-83960600D02*
X136825700Y-83343100D01*
X139065600Y-83960600D02*
X137443200Y-83960600D01*
X139231900Y-83794300D02*
X139065600Y-83960600D01*
X141794300Y-83794300D02*
X139231900Y-83794300D01*
X142000000Y-84000000D02*
X141794300Y-83794300D01*
X136121700Y-82060600D02*
X135361300Y-81300100D01*
X84000000Y-69000000D02*
X84000000Y-67824700D01*
X130187500Y-83673800D02*
X130081200Y-83673800D01*
X130452800Y-83408500D02*
X130187500Y-83673800D01*
X130512200Y-83408500D02*
X130452800Y-83408500D01*
X130650700Y-83270000D02*
X130512200Y-83408500D01*
X130650800Y-83270000D02*
X130650700Y-83270000D01*
X132520700Y-81400100D02*
X130650800Y-83270000D01*
X134139000Y-81400100D02*
X132520700Y-81400100D01*
X134168100Y-81371000D02*
X134139000Y-81400100D01*
X135290400Y-81371000D02*
X134168100Y-81371000D01*
X135361300Y-81300100D02*
X135290400Y-81371000D01*
X84723400Y-67101300D02*
X84000000Y-67824700D01*
X114366600Y-67101300D02*
X84723400Y-67101300D01*
X117312700Y-70047400D02*
X114366600Y-67101300D01*
X117312700Y-70588700D02*
X117312700Y-70047400D01*
X118591900Y-71867900D02*
X117312700Y-70588700D01*
X119920800Y-71867900D02*
X118591900Y-71867900D01*
X84000000Y-74000000D02*
X84000000Y-75175300D01*
X135719200Y-79776100D02*
X136828800Y-78666500D01*
X132113500Y-79776100D02*
X135719200Y-79776100D01*
X128443100Y-83446500D02*
X132113500Y-79776100D01*
X125823300Y-83446500D02*
X128443100Y-83446500D01*
X123871900Y-81495100D02*
X125823300Y-83446500D01*
X123479200Y-81495100D02*
X123871900Y-81495100D01*
X94134800Y-75175300D02*
X84000000Y-75175300D01*
X95296900Y-74013200D02*
X94134800Y-75175300D01*
X95296900Y-73381400D02*
X95296900Y-74013200D01*
X97080900Y-71597400D02*
X95296900Y-73381400D01*
X117068700Y-71597400D02*
X97080900Y-71597400D01*
X132586100Y-74423900D02*
X131825800Y-75184200D01*
X97000000Y-69000000D02*
X97000000Y-70175300D01*
X97800000Y-70975300D02*
X116787400Y-70975300D01*
X97000000Y-70175300D02*
X97800000Y-70975300D01*
X131825800Y-75229800D02*
X131825800Y-75184200D01*
X128503000Y-78552600D02*
X131825800Y-75229800D01*
X128408500Y-78552600D02*
X128503000Y-78552600D01*
X125991400Y-80969700D02*
X128408500Y-78552600D01*
X125090800Y-80969700D02*
X125991400Y-80969700D01*
X124125500Y-80004400D02*
X125090800Y-80969700D01*
X124125500Y-78145700D02*
X124125500Y-80004400D01*
X124125400Y-78145700D02*
X124125500Y-78145700D01*
X111122600Y-72824700D02*
X111250400Y-72696900D01*
X97000000Y-72824700D02*
X111122600Y-72824700D01*
X133127100Y-73444200D02*
X132992900Y-73310000D01*
X133565800Y-73444200D02*
X133127100Y-73444200D01*
X132232600Y-74070300D02*
X132992900Y-73310000D01*
X97000000Y-74000000D02*
X97000000Y-72824700D01*
X124595800Y-71241900D02*
X125356200Y-72002200D01*
X138661300Y-82694300D02*
X138661300Y-82985000D01*
X139767700Y-81587900D02*
X138661300Y-82694300D01*
X147122700Y-81587900D02*
X139767700Y-81587900D01*
X150975600Y-77735000D02*
X147122700Y-81587900D01*
X157070000Y-77735000D02*
X150975600Y-77735000D01*
X125581900Y-73207300D02*
X125493300Y-73295900D01*
X125581900Y-72228000D02*
X125581900Y-73207300D01*
X125356200Y-72002200D02*
X125581900Y-72228000D01*
X157070000Y-78385000D02*
X155994700Y-78385000D01*
X124242300Y-71595400D02*
X125002700Y-72355700D01*
X140186000Y-82654900D02*
X139855900Y-82985000D01*
X152342400Y-82654900D02*
X140186000Y-82654900D01*
X155994700Y-79002600D02*
X152342400Y-82654900D01*
X155994700Y-78385000D02*
X155994700Y-79002600D01*
X125002600Y-72802800D02*
X125001400Y-72804000D01*
X125002600Y-72355800D02*
X125002600Y-72802800D01*
X125002700Y-72355700D02*
X125002600Y-72355800D01*
X157070000Y-79035000D02*
X158145300Y-79035000D01*
X158145300Y-77302700D02*
X158145300Y-79035000D01*
X158011400Y-77168800D02*
X158145300Y-77302700D01*
X150585100Y-77168800D02*
X158011400Y-77168800D01*
X149621100Y-78132800D02*
X150585100Y-77168800D01*
X143863200Y-78132800D02*
X149621100Y-78132800D01*
X143506100Y-77775700D02*
X143863200Y-78132800D01*
X119292500Y-83474800D02*
X118532100Y-84235200D01*
X112744000Y-81202700D02*
X112109100Y-80567800D01*
X112776600Y-81202700D02*
X112744000Y-81202700D01*
X114140800Y-82566900D02*
X112776600Y-81202700D01*
X114333300Y-82566900D02*
X114140800Y-82566900D01*
X114640900Y-82874500D02*
X114333300Y-82566900D01*
X114640900Y-82970800D02*
X114640900Y-82874500D01*
X115819000Y-84148900D02*
X114640900Y-82970800D01*
X116996600Y-84148900D02*
X115819000Y-84148900D01*
X116996700Y-84149000D02*
X116996600Y-84148900D01*
X118445800Y-84149000D02*
X116996700Y-84149000D01*
X118532100Y-84235200D02*
X118445800Y-84149000D01*
X157070000Y-80335000D02*
X158145300Y-80335000D01*
X157070000Y-79685000D02*
X158032700Y-79685000D01*
X157070000Y-60930000D02*
X158120300Y-60930000D01*
X158145300Y-80335000D02*
X158145300Y-79773300D01*
X158057000Y-79685000D02*
X158032700Y-79685000D01*
X158145300Y-79773300D02*
X158057000Y-79685000D01*
X158174300Y-60984000D02*
X158215300Y-60984000D01*
X158120300Y-60930000D02*
X158174300Y-60984000D01*
X158145300Y-79773300D02*
X158233500Y-79773300D01*
X125302900Y-70534800D02*
X124542600Y-69774400D01*
X124455000Y-69862000D02*
X124339900Y-69862000D01*
X124542600Y-69774400D02*
X124455000Y-69862000D01*
X147434100Y-76718500D02*
X147331100Y-76821500D01*
X158198000Y-76718500D02*
X147434100Y-76718500D01*
X158765500Y-77286000D02*
X158198000Y-76718500D01*
X158765500Y-80373800D02*
X158765500Y-77286000D01*
X158154300Y-80985000D02*
X158765500Y-80373800D01*
X157070000Y-80985000D02*
X158154300Y-80985000D01*
X219075000Y-74910000D02*
X219075000Y-75935300D01*
X171003200Y-80335000D02*
X162970000Y-80335000D01*
X171869100Y-79469100D02*
X171003200Y-80335000D01*
X176004500Y-79469100D02*
X171869100Y-79469100D01*
X176453800Y-79019800D02*
X176004500Y-79469100D01*
X180480700Y-79019800D02*
X176453800Y-79019800D01*
X180748400Y-79287500D02*
X180480700Y-79019800D01*
X182116900Y-79287500D02*
X180748400Y-79287500D01*
X182565600Y-79736200D02*
X182116900Y-79287500D01*
X215274100Y-79736200D02*
X182565600Y-79736200D01*
X219075000Y-75935300D02*
X215274100Y-79736200D01*
X162970000Y-79685000D02*
X164045300Y-79685000D01*
X219075000Y-52050000D02*
X219075000Y-53075300D01*
X164095300Y-79735000D02*
X164627800Y-79735000D01*
X164045300Y-79685000D02*
X164095300Y-79735000D01*
X214751500Y-57398800D02*
X171974700Y-57398800D01*
X219075000Y-53075300D02*
X214751500Y-57398800D01*
X184148500Y-50391200D02*
X183515000Y-51024700D01*
X188271000Y-50391200D02*
X184148500Y-50391200D01*
X183515000Y-52050000D02*
X183515000Y-51024700D01*
X162970000Y-79035000D02*
X164045300Y-79035000D01*
X164103000Y-78977300D02*
X164045300Y-79035000D01*
X174904000Y-78977300D02*
X164103000Y-78977300D01*
X175311800Y-78569500D02*
X174904000Y-78977300D01*
X180667300Y-78569500D02*
X175311800Y-78569500D01*
X180935000Y-78837200D02*
X180667300Y-78569500D01*
X182303500Y-78837200D02*
X180935000Y-78837200D01*
X182641200Y-79174900D02*
X182303500Y-78837200D01*
X185059800Y-79174900D02*
X182641200Y-79174900D01*
X183515000Y-74910000D02*
X183515000Y-73884700D01*
X173815800Y-78385000D02*
X162970000Y-78385000D01*
X176613700Y-75587100D02*
X173815800Y-78385000D01*
X176613700Y-73746800D02*
X176613700Y-75587100D01*
X177230300Y-73130200D02*
X176613700Y-73746800D01*
X182760500Y-73130200D02*
X177230300Y-73130200D01*
X183515000Y-73884700D02*
X182760500Y-73130200D01*
X101985000Y-106320000D02*
X101985000Y-107145300D01*
X119999600Y-75838100D02*
X120760000Y-76598400D01*
X102626500Y-107145300D02*
X102730400Y-107041400D01*
X101985000Y-107145300D02*
X102626500Y-107145300D01*
X120296400Y-77561400D02*
X119989500Y-77868300D01*
X120296400Y-77186500D02*
X120296400Y-77561400D01*
X120759900Y-76723000D02*
X120296400Y-77186500D01*
X120759900Y-76598500D02*
X120759900Y-76723000D01*
X120760000Y-76598400D02*
X120759900Y-76598500D01*
X100685000Y-106320000D02*
X100685000Y-105494700D01*
X115449800Y-72819700D02*
X114812900Y-72819700D01*
X116084700Y-73454600D02*
X115449800Y-72819700D01*
X118323300Y-73454600D02*
X116084700Y-73454600D01*
X120353200Y-75484500D02*
X118323300Y-73454600D01*
X100757300Y-105494700D02*
X100842900Y-105409100D01*
X100685000Y-105494700D02*
X100757300Y-105494700D01*
X118856700Y-75402200D02*
X119646100Y-76191600D01*
X118856700Y-75236000D02*
X118856700Y-75402200D01*
X110641400Y-105010400D02*
X111371400Y-104280400D01*
X103818500Y-105010400D02*
X110641400Y-105010400D01*
X103659300Y-104851200D02*
X103818500Y-105010400D01*
X100657900Y-104851200D02*
X103659300Y-104851200D01*
X100035000Y-105474100D02*
X100657900Y-104851200D01*
X100035000Y-106320000D02*
X100035000Y-105474100D01*
X99385000Y-105317200D02*
X99768500Y-104933700D01*
X99385000Y-106320000D02*
X99385000Y-105317200D01*
X116430200Y-75097100D02*
X118585400Y-77252300D01*
X116363900Y-75097100D02*
X116430200Y-75097100D01*
X115062200Y-73795400D02*
X116363900Y-75097100D01*
X108631700Y-73795400D02*
X115062200Y-73795400D01*
X108073500Y-74353600D02*
X108631700Y-73795400D01*
X111250400Y-80539400D02*
X111250400Y-80274300D01*
X113803200Y-83092200D02*
X111250400Y-80539400D01*
X114115600Y-83092200D02*
X113803200Y-83092200D01*
X133840400Y-70341100D02*
X131171900Y-73009600D01*
X134091100Y-70341100D02*
X133840400Y-70341100D01*
X98735000Y-106320000D02*
X98735000Y-105494700D01*
X98735000Y-105063500D02*
X98805200Y-104993300D01*
X98735000Y-105494700D02*
X98735000Y-105063500D01*
X118148000Y-76138300D02*
X116581500Y-74571800D01*
X118178500Y-76138300D02*
X118148000Y-76138300D01*
X118178600Y-76138200D02*
X118178500Y-76138300D01*
X118939000Y-76898700D02*
X118178600Y-76138200D01*
X98085000Y-104924300D02*
X98085000Y-106320000D01*
X98680800Y-104328500D02*
X98085000Y-104924300D01*
X103879500Y-104328500D02*
X98680800Y-104328500D01*
X103957800Y-104406800D02*
X103879500Y-104328500D01*
X97435000Y-106320000D02*
X97435000Y-105494700D01*
X97435000Y-104937400D02*
X97435000Y-105494700D01*
X98531700Y-103840700D02*
X97435000Y-104937400D01*
X104134700Y-103840700D02*
X98531700Y-103840700D01*
X104466000Y-104172000D02*
X104134700Y-103840700D01*
X109415000Y-104172000D02*
X104466000Y-104172000D01*
X125308400Y-79807500D02*
X125308400Y-80444400D01*
X128230100Y-76885800D02*
X125308400Y-79807500D01*
X128230100Y-73830200D02*
X128230100Y-76885800D01*
X130111300Y-71949000D02*
X128230100Y-73830200D01*
X133223200Y-89768700D02*
X130818400Y-87363900D01*
X133515100Y-89768700D02*
X133223200Y-89768700D01*
X96785000Y-106320000D02*
X96785000Y-105494700D01*
X96785000Y-104948900D02*
X96785000Y-105494700D01*
X98376900Y-103357000D02*
X96785000Y-104948900D01*
X104287900Y-103357000D02*
X98376900Y-103357000D01*
X104544800Y-103613900D02*
X104287900Y-103357000D01*
X132708800Y-103613900D02*
X104544800Y-103613900D01*
X133825300Y-104730400D02*
X132708800Y-103613900D01*
X155325000Y-96160000D02*
X155325000Y-95334700D01*
X220345000Y-64790000D02*
X220345000Y-65815300D01*
X220345000Y-87650000D02*
X219710000Y-87650000D01*
X184785000Y-87650000D02*
X184785000Y-88675300D01*
X220609600Y-65815300D02*
X220345000Y-65815300D01*
X220709700Y-65915400D02*
X220609600Y-65815300D01*
X184785000Y-64790000D02*
X184785000Y-64277300D01*
X184785000Y-64277300D02*
X184785000Y-63764700D01*
X184778100Y-64270400D02*
X184778100Y-63668000D01*
X184785000Y-64277300D02*
X184778100Y-64270400D01*
X217970500Y-68189800D02*
X220345000Y-65815300D01*
X195997300Y-68189800D02*
X217970500Y-68189800D01*
X190429600Y-62622100D02*
X195997300Y-68189800D01*
X185927600Y-62622100D02*
X190429600Y-62622100D01*
X184785000Y-63764700D02*
X185927600Y-62622100D01*
X183190100Y-90270200D02*
X181185500Y-90270200D01*
X184785000Y-88675300D02*
X183190100Y-90270200D01*
X123287700Y-70416200D02*
X123374600Y-70329300D01*
X123287700Y-71348000D02*
X123287700Y-70416200D01*
X123888700Y-71949000D02*
X123287700Y-71348000D01*
X154652800Y-94621500D02*
X154317900Y-94286600D01*
X155325000Y-94621500D02*
X154652800Y-94621500D01*
X157796400Y-92150100D02*
X155325000Y-94621500D01*
X167687800Y-92150100D02*
X157796400Y-92150100D01*
X168715400Y-93177700D02*
X167687800Y-92150100D01*
X178278000Y-93177700D02*
X168715400Y-93177700D01*
X181185500Y-90270200D02*
X178278000Y-93177700D01*
X155325000Y-94621500D02*
X155325000Y-95334700D01*
X183515000Y-87650000D02*
X183515000Y-88675300D01*
X154025000Y-96160000D02*
X154025000Y-95334700D01*
X219438900Y-86624700D02*
X219710000Y-86895800D01*
X219075000Y-86624700D02*
X219438900Y-86624700D01*
X219075000Y-64790000D02*
X219075000Y-65815300D01*
X219075000Y-87650000D02*
X219075000Y-86624700D01*
X218765900Y-65815300D02*
X218652600Y-65928600D01*
X219075000Y-65815300D02*
X218765900Y-65815300D01*
X183515000Y-64790000D02*
X183515000Y-63764700D01*
X123535200Y-72302500D02*
X122774800Y-71542000D01*
X182986600Y-63764700D02*
X183515000Y-63764700D01*
X216841700Y-67739500D02*
X218652600Y-65928600D01*
X196183900Y-67739500D02*
X216841700Y-67739500D01*
X190616200Y-62171800D02*
X196183900Y-67739500D01*
X185107900Y-62171800D02*
X190616200Y-62171800D01*
X183515000Y-63764700D02*
X185107900Y-62171800D01*
X180982800Y-89696800D02*
X179925200Y-90754400D01*
X182493500Y-89696800D02*
X180982800Y-89696800D01*
X183515000Y-88675300D02*
X182493500Y-89696800D01*
X122774800Y-71456200D02*
X122762300Y-71443700D01*
X122774800Y-71542000D02*
X122774800Y-71456200D01*
X153748700Y-94394000D02*
X153717500Y-94394000D01*
X153748700Y-94069000D02*
X153748700Y-94394000D01*
X156117900Y-91699800D02*
X153748700Y-94069000D01*
X167874400Y-91699800D02*
X156117900Y-91699800D01*
X168902000Y-92727400D02*
X167874400Y-91699800D01*
X177952200Y-92727400D02*
X168902000Y-92727400D01*
X179925200Y-90754400D02*
X177952200Y-92727400D01*
X154025000Y-94881700D02*
X154025000Y-95334700D01*
X153748700Y-94605400D02*
X154025000Y-94881700D01*
X153748700Y-94394000D02*
X153748700Y-94605400D01*
X217316100Y-87650000D02*
X217170000Y-87796100D01*
X217805000Y-87650000D02*
X217316100Y-87650000D01*
X217816100Y-63764700D02*
X217805000Y-63764700D01*
X217912800Y-63668000D02*
X217816100Y-63764700D01*
X217805000Y-64277300D02*
X217805000Y-63764700D01*
X217805000Y-64277300D02*
X217805000Y-64790000D01*
X217805000Y-64790000D02*
X217805000Y-65815300D01*
X216331100Y-67289200D02*
X217805000Y-65815300D01*
X196370500Y-67289200D02*
X216331100Y-67289200D01*
X190802800Y-61721500D02*
X196370500Y-67289200D01*
X184278500Y-61721500D02*
X190802800Y-61721500D01*
X182245000Y-63755000D02*
X184278500Y-61721500D01*
X182245000Y-64790000D02*
X182245000Y-63755000D01*
X124060700Y-73297900D02*
X123942100Y-73416500D01*
X124184200Y-73297900D02*
X124060700Y-73297900D01*
X123181600Y-72656100D02*
X123942100Y-73416500D01*
X182518300Y-86624700D02*
X182245000Y-86624700D01*
X182968600Y-86174400D02*
X182518300Y-86624700D01*
X188561400Y-86174400D02*
X182968600Y-86174400D01*
X189145400Y-86758400D02*
X188561400Y-86174400D01*
X189145400Y-88894400D02*
X189145400Y-86758400D01*
X192250500Y-91999500D02*
X189145400Y-88894400D01*
X212133000Y-91999500D02*
X192250500Y-91999500D01*
X182245000Y-87137300D02*
X182245000Y-86624700D01*
X182245000Y-87137300D02*
X182245000Y-87650000D01*
X153375000Y-96572600D02*
X153375000Y-96985300D01*
X153375000Y-96572600D02*
X153375000Y-96160000D01*
X182245000Y-87650000D02*
X182245000Y-88675300D01*
X152084900Y-96985300D02*
X151994500Y-97075700D01*
X153375000Y-96985300D02*
X152084900Y-96985300D01*
X153375000Y-95216400D02*
X153375000Y-96160000D01*
X153192200Y-95033600D02*
X153375000Y-95216400D01*
X153192200Y-93988600D02*
X153192200Y-95033600D01*
X155931300Y-91249500D02*
X153192200Y-93988600D01*
X168230000Y-91249500D02*
X155931300Y-91249500D01*
X169257600Y-92277100D02*
X168230000Y-91249500D01*
X177478100Y-92277100D02*
X169257600Y-92277100D01*
X181079900Y-88675300D02*
X177478100Y-92277100D01*
X182245000Y-88675300D02*
X181079900Y-88675300D01*
X216535000Y-87650000D02*
X216535000Y-86624700D01*
X216535000Y-65917300D02*
X216535000Y-64790000D01*
X180975000Y-87650000D02*
X180975000Y-86624700D01*
X180975000Y-64790000D02*
X180975000Y-63764700D01*
X216535000Y-86624700D02*
X216019600Y-86624700D01*
X122828100Y-73009600D02*
X122067800Y-72249200D01*
X180975000Y-63764700D02*
X181610000Y-63764700D01*
X215613400Y-66838900D02*
X216535000Y-65917300D01*
X196557100Y-66838900D02*
X215613400Y-66838900D01*
X190989400Y-61271200D02*
X196557100Y-66838900D01*
X184024100Y-61271200D02*
X190989400Y-61271200D01*
X181610000Y-63685300D02*
X184024100Y-61271200D01*
X181610000Y-63764700D02*
X181610000Y-63685300D01*
X180975000Y-86624700D02*
X179212900Y-86624700D01*
X122227000Y-72090000D02*
X122227000Y-71980500D01*
X122067800Y-72249200D02*
X122227000Y-72090000D01*
X177193500Y-80509200D02*
X179212900Y-80509200D01*
X175430600Y-82272100D02*
X177193500Y-80509200D01*
X171838700Y-82272100D02*
X175430600Y-82272100D01*
X171388400Y-82722400D02*
X171838700Y-82272100D01*
X166709200Y-82722400D02*
X171388400Y-82722400D01*
X164302500Y-85129100D02*
X166709200Y-82722400D01*
X156997100Y-85129100D02*
X164302500Y-85129100D01*
X152725000Y-94902500D02*
X152666800Y-94844300D01*
X152725000Y-96160000D02*
X152725000Y-94902500D01*
X215265000Y-87650000D02*
X215265000Y-86624700D01*
X215265000Y-64790000D02*
X215265000Y-65934500D01*
X215265000Y-86624700D02*
X214738900Y-86624700D01*
X179666400Y-87611400D02*
X179705000Y-87650000D01*
X179070000Y-87611400D02*
X179666400Y-87611400D01*
X179705000Y-87650000D02*
X179705000Y-88675300D01*
X152075000Y-95118400D02*
X152075000Y-96160000D01*
X121634900Y-72523600D02*
X121593800Y-72523600D01*
X122474500Y-73363200D02*
X121634900Y-72523600D01*
X210049400Y-81935200D02*
X177332400Y-81935200D01*
X214738900Y-86624700D02*
X210049400Y-81935200D01*
X179705000Y-64790000D02*
X180336200Y-64158800D01*
X152075100Y-95118400D02*
X152075000Y-95118400D01*
X152075100Y-94693100D02*
X152075100Y-95118400D01*
X152741900Y-94026300D02*
X152075100Y-94693100D01*
X152741900Y-93802000D02*
X152741900Y-94026300D01*
X155744700Y-90799200D02*
X152741900Y-93802000D01*
X168416600Y-90799200D02*
X155744700Y-90799200D01*
X169444200Y-91826800D02*
X168416600Y-90799200D01*
X176553500Y-91826800D02*
X169444200Y-91826800D01*
X179705000Y-88675300D02*
X176553500Y-91826800D01*
X213995000Y-64790000D02*
X213995000Y-65815300D01*
X213995000Y-87650000D02*
X213995000Y-86624700D01*
X213719900Y-65915700D02*
X213719900Y-65865500D01*
X213770100Y-65815300D02*
X213719900Y-65865500D01*
X213995000Y-65815300D02*
X213770100Y-65815300D01*
X213995000Y-86624700D02*
X213465900Y-86624700D01*
X211079200Y-65865500D02*
X213719900Y-65865500D01*
X210904600Y-65690900D02*
X211079200Y-65865500D01*
X210904600Y-64087500D02*
X210904600Y-65690900D01*
X210018200Y-63201100D02*
X210904600Y-64087500D01*
X193556200Y-63201100D02*
X210018200Y-63201100D01*
X191176000Y-60820900D02*
X193556200Y-63201100D01*
X182250200Y-60820900D02*
X191176000Y-60820900D01*
X178435000Y-64636100D02*
X182250200Y-60820900D01*
X178435000Y-64790000D02*
X178435000Y-64636100D01*
X178435000Y-87650000D02*
X178435000Y-87942500D01*
X178435000Y-87942500D02*
X178435000Y-88235000D01*
X178435000Y-65916800D02*
X178435000Y-64790000D01*
X178435000Y-87942500D02*
X177800000Y-87942500D01*
X151425000Y-96572600D02*
X151425000Y-96985300D01*
X151425000Y-96572600D02*
X151425000Y-96160000D01*
X123133700Y-74729400D02*
X124595200Y-74729400D01*
X122121000Y-73716700D02*
X123133700Y-74729400D01*
X151425000Y-94706300D02*
X151425000Y-96160000D01*
X152291600Y-93839700D02*
X151425000Y-94706300D01*
X152291600Y-93615400D02*
X152291600Y-93839700D01*
X155558100Y-90348900D02*
X152291600Y-93615400D01*
X168603200Y-90348900D02*
X155558100Y-90348900D01*
X169630800Y-91376500D02*
X168603200Y-90348900D01*
X175293500Y-91376500D02*
X169630800Y-91376500D01*
X178435000Y-88235000D02*
X175293500Y-91376500D01*
X148892400Y-97435600D02*
X148125400Y-96668600D01*
X150974700Y-97435600D02*
X148892400Y-97435600D01*
X151425000Y-96985300D02*
X150974700Y-97435600D01*
X212934500Y-63764700D02*
X212725000Y-63764700D01*
X213031200Y-63668000D02*
X212934500Y-63764700D01*
X212725000Y-64790000D02*
X212725000Y-63764700D01*
X212725000Y-87650000D02*
X212725000Y-88675300D01*
X177165000Y-64790000D02*
X177165000Y-63764700D01*
X212611500Y-88675300D02*
X212506500Y-88780300D01*
X212725000Y-88675300D02*
X212611500Y-88675300D01*
X208880600Y-59920300D02*
X212725000Y-63764700D01*
X181009400Y-59920300D02*
X208880600Y-59920300D01*
X177165000Y-63764700D02*
X181009400Y-59920300D01*
X177165000Y-87137300D02*
X177165000Y-86624700D01*
X177165000Y-87137300D02*
X177165000Y-87650000D01*
X177165000Y-87650000D02*
X177165000Y-88675300D01*
X150775000Y-96160000D02*
X150775000Y-95334700D01*
X211710900Y-89575900D02*
X212506500Y-88780300D01*
X194902400Y-89575900D02*
X211710900Y-89575900D01*
X191050600Y-85724100D02*
X194902400Y-89575900D01*
X182782000Y-85724100D02*
X191050600Y-85724100D01*
X182556600Y-85949500D02*
X182782000Y-85724100D01*
X177840200Y-85949500D02*
X182556600Y-85949500D01*
X177165000Y-86624700D02*
X177840200Y-85949500D01*
X122518800Y-74839500D02*
X122518800Y-74955100D01*
X122527700Y-74830600D02*
X122518800Y-74839500D01*
X121767400Y-74070300D02*
X122527700Y-74830600D01*
X151665900Y-93604200D02*
X151665900Y-93722300D01*
X155371500Y-89898600D02*
X151665900Y-93604200D01*
X168789800Y-89898600D02*
X155371500Y-89898600D01*
X169817400Y-90926200D02*
X168789800Y-89898600D01*
X174914100Y-90926200D02*
X169817400Y-90926200D01*
X177165000Y-88675300D02*
X174914100Y-90926200D01*
X150775000Y-95334700D02*
X150775000Y-95232200D01*
X175895000Y-64790000D02*
X175895000Y-65815300D01*
X211455000Y-64790000D02*
X211455000Y-63764700D01*
X211455000Y-87650000D02*
X211455000Y-88675300D01*
X210366100Y-62675800D02*
X193774000Y-62675800D01*
X211455000Y-63764700D02*
X210366100Y-62675800D01*
X211004700Y-89125600D02*
X211455000Y-88675300D01*
X195195000Y-89125600D02*
X211004700Y-89125600D01*
X195095900Y-89026500D02*
X195195000Y-89125600D01*
X191468800Y-60370600D02*
X193774000Y-62675800D01*
X181453500Y-60370600D02*
X191468800Y-60370600D01*
X177823800Y-64000300D02*
X181453500Y-60370600D01*
X177823800Y-65579400D02*
X177823800Y-64000300D01*
X177587900Y-65815300D02*
X177823800Y-65579400D01*
X175895000Y-65815300D02*
X177587900Y-65815300D01*
X175895000Y-87650000D02*
X175895000Y-88675300D01*
X150125000Y-96160000D02*
X150125000Y-95334700D01*
X191343200Y-85273800D02*
X195095900Y-89026500D01*
X182595400Y-85273800D02*
X191343200Y-85273800D01*
X182370000Y-85499200D02*
X182595400Y-85273800D01*
X177643900Y-85499200D02*
X182370000Y-85499200D01*
X175895000Y-87248100D02*
X177643900Y-85499200D01*
X175895000Y-87650000D02*
X175895000Y-87248100D01*
X120807100Y-73402300D02*
X120845700Y-73363700D01*
X120807100Y-73817100D02*
X120807100Y-73402300D01*
X121413900Y-74423900D02*
X120807100Y-73817100D01*
X150125000Y-95334700D02*
X150125000Y-94485600D01*
X149911700Y-94272300D02*
X146157500Y-94272300D01*
X150125000Y-94485600D02*
X149911700Y-94272300D01*
X155162300Y-89448300D02*
X150125000Y-94485600D01*
X168976400Y-89448300D02*
X155162300Y-89448300D01*
X170004000Y-90475900D02*
X168976400Y-89448300D01*
X174465700Y-90475900D02*
X170004000Y-90475900D01*
X175895000Y-89046600D02*
X174465700Y-90475900D01*
X175895000Y-88675300D02*
X175895000Y-89046600D01*
X135606900Y-87682100D02*
X140061800Y-87682100D01*
X135042200Y-88246800D02*
X135606900Y-87682100D01*
X162970000Y-72420000D02*
X164101900Y-72420000D01*
X163648400Y-55101700D02*
X163541200Y-55101700D01*
X164395300Y-54354800D02*
X163648400Y-55101700D01*
X164395300Y-52720000D02*
X164395300Y-54354800D01*
X163470000Y-52720000D02*
X164395300Y-52720000D01*
X170565000Y-96160000D02*
X170565000Y-96985300D01*
X135414600Y-77252300D02*
X136175100Y-76491800D01*
X170565000Y-96985300D02*
X171029800Y-96985300D01*
X161453500Y-72420000D02*
X162970000Y-72420000D01*
X160257700Y-73615800D02*
X161453500Y-72420000D01*
X160013000Y-73615800D02*
X160257700Y-73615800D01*
X159169800Y-74459000D02*
X160013000Y-73615800D01*
X159096000Y-74459000D02*
X159169800Y-74459000D01*
X158877900Y-74677100D02*
X159096000Y-74459000D01*
X156976900Y-74677100D02*
X158877900Y-74677100D01*
X156546900Y-75107100D02*
X156976900Y-74677100D01*
X149796900Y-75107100D02*
X156546900Y-75107100D01*
X149623200Y-75280800D02*
X149796900Y-75107100D01*
X142693800Y-75280800D02*
X149623200Y-75280800D01*
X142567100Y-75407500D02*
X142693800Y-75280800D01*
X142406600Y-75407500D02*
X142567100Y-75407500D01*
X142395400Y-75418700D02*
X142406600Y-75407500D01*
X137728500Y-75418700D02*
X142395400Y-75418700D01*
X137641000Y-75506200D02*
X137728500Y-75418700D01*
X137302800Y-75506200D02*
X137641000Y-75506200D01*
X136332500Y-76476500D02*
X137302800Y-75506200D01*
X136223200Y-76476500D02*
X136332500Y-76476500D01*
X136207800Y-76491900D02*
X136223200Y-76476500D01*
X136175100Y-76491900D02*
X136207800Y-76491900D01*
X136175100Y-76491800D02*
X136175100Y-76491900D01*
X135061000Y-76898700D02*
X135821500Y-76138200D01*
X163470000Y-50770000D02*
X162103700Y-50770000D01*
X169265000Y-96160000D02*
X169265000Y-95233300D01*
X136008500Y-75951200D02*
X136114800Y-75951200D01*
X135821500Y-76138200D02*
X136008500Y-75951200D01*
X134707500Y-76545200D02*
X135468000Y-75784700D01*
X82910000Y-92017400D02*
X83508400Y-91419000D01*
X82910000Y-92030000D02*
X82910000Y-92017400D01*
X99769900Y-93982500D02*
X114756900Y-93982500D01*
X158827600Y-69170000D02*
X159295700Y-69638100D01*
X157070000Y-69170000D02*
X158827600Y-69170000D01*
X128388700Y-82864000D02*
X134707500Y-76545200D01*
X126613400Y-82864000D02*
X128388700Y-82864000D01*
X158666100Y-73933700D02*
X158952100Y-73933700D01*
X158526300Y-74073500D02*
X158666100Y-73933700D01*
X157406800Y-74073500D02*
X158526300Y-74073500D01*
X157325300Y-74155000D02*
X157406800Y-74073500D01*
X156862000Y-74155000D02*
X157325300Y-74155000D01*
X156360200Y-74656800D02*
X156862000Y-74155000D01*
X148973500Y-74656800D02*
X156360200Y-74656800D01*
X148893600Y-74736700D02*
X148973500Y-74656800D01*
X142601000Y-74736700D02*
X148893600Y-74736700D01*
X142380500Y-74957200D02*
X142601000Y-74736700D01*
X142220000Y-74957200D02*
X142380500Y-74957200D01*
X142208800Y-74968400D02*
X142220000Y-74957200D01*
X137541900Y-74968400D02*
X142208800Y-74968400D01*
X137454400Y-75055900D02*
X137541900Y-74968400D01*
X136196800Y-75055900D02*
X137454400Y-75055900D01*
X135468000Y-75784700D02*
X136196800Y-75055900D01*
X163487800Y-93501000D02*
X163404700Y-93584100D01*
X166835000Y-93501000D02*
X163487800Y-93501000D01*
X168615000Y-95281000D02*
X166835000Y-93501000D01*
X168615000Y-96160000D02*
X168615000Y-95281000D01*
X134353900Y-76191600D02*
X135114200Y-75431300D01*
X167965000Y-95293200D02*
X167965000Y-96160000D01*
X166623100Y-93951300D02*
X167965000Y-95293200D01*
X164403500Y-93951300D02*
X166623100Y-93951300D01*
X163978000Y-94376800D02*
X164403500Y-93951300D01*
X161849500Y-94376800D02*
X163978000Y-94376800D01*
X143707600Y-72993200D02*
X154325900Y-72993200D01*
X142193900Y-74506900D02*
X143707600Y-72993200D01*
X136038600Y-74506900D02*
X142193900Y-74506900D01*
X135114200Y-75431300D02*
X136038600Y-74506900D01*
X155549100Y-71770000D02*
X157070000Y-71770000D01*
X154325900Y-72993200D02*
X155549100Y-71770000D01*
X167315000Y-96160000D02*
X167315000Y-95334700D01*
X157631900Y-52720000D02*
X158008700Y-52343200D01*
X156570000Y-52720000D02*
X157631900Y-52720000D01*
X130218900Y-79619600D02*
X130218900Y-79884100D01*
X134000400Y-75838100D02*
X130218900Y-79619600D01*
X166472300Y-94492000D02*
X164841100Y-94492000D01*
X167315000Y-95334700D02*
X166472300Y-94492000D01*
X143400300Y-89334700D02*
X140694500Y-89334700D01*
X145613400Y-87121600D02*
X143400300Y-89334700D01*
X152464900Y-87121600D02*
X145613400Y-87121600D01*
X152840000Y-86746500D02*
X152464900Y-87121600D01*
X164248200Y-86746500D02*
X152840000Y-86746500D01*
X164323300Y-86671400D02*
X164248200Y-86746500D01*
X166665000Y-96160000D02*
X166665000Y-96985300D01*
X166222600Y-96985300D02*
X166665000Y-96985300D01*
X166138600Y-97069300D02*
X166222600Y-96985300D01*
X162970000Y-69820000D02*
X161919700Y-69820000D01*
X161919700Y-69820000D02*
X161833500Y-69820000D01*
X148562000Y-67078700D02*
X162264000Y-67078700D01*
X141623600Y-74017100D02*
X148562000Y-67078700D01*
X135114200Y-74017100D02*
X141623600Y-74017100D01*
X133646800Y-75484500D02*
X135114200Y-74017100D01*
X166015000Y-96160000D02*
X166015000Y-95334700D01*
X166302900Y-95334700D02*
X166015000Y-95334700D01*
X166380200Y-95257400D02*
X166302900Y-95334700D01*
X158203900Y-50770000D02*
X156570000Y-50770000D01*
X134324400Y-74099900D02*
X133293300Y-75131000D01*
X134324400Y-74059500D02*
X134324400Y-74099900D01*
X156570000Y-50770000D02*
X155644700Y-50770000D01*
X153589900Y-52824800D02*
X145710400Y-52824800D01*
X155644700Y-50770000D02*
X153589900Y-52824800D01*
X157592700Y-50120000D02*
X156570000Y-50120000D01*
X165365000Y-96160000D02*
X165365000Y-95334700D01*
X126413000Y-81304100D02*
X132939700Y-74777400D01*
X162434500Y-95334700D02*
X165365000Y-95334700D01*
X161704600Y-96064600D02*
X157868900Y-96064600D01*
X162434500Y-95334700D02*
X161704600Y-96064600D01*
X157070000Y-69820000D02*
X158120300Y-69820000D01*
X163470000Y-53370000D02*
X159082400Y-53370000D01*
X158220900Y-69920600D02*
X158546500Y-69920600D01*
X158120300Y-69820000D02*
X158220900Y-69920600D01*
X210185000Y-52050000D02*
X210185000Y-53075300D01*
X210185000Y-53075300D02*
X209550000Y-53075300D01*
X210185000Y-74910000D02*
X210185000Y-75935300D01*
X138785000Y-106320000D02*
X138785000Y-105494700D01*
X131171900Y-87010400D02*
X130411600Y-86250000D01*
X174625000Y-74910000D02*
X174625000Y-73884700D01*
X209330800Y-75935300D02*
X209251000Y-76015100D01*
X210185000Y-75935300D02*
X209330800Y-75935300D01*
X175893400Y-72616300D02*
X174625000Y-73884700D01*
X182883500Y-72616300D02*
X175893400Y-72616300D01*
X184234600Y-73967400D02*
X182883500Y-72616300D01*
X184234600Y-75871300D02*
X184234600Y-73967400D01*
X185650600Y-77287300D02*
X184234600Y-75871300D01*
X207978800Y-77287300D02*
X185650600Y-77287300D01*
X209251000Y-76015100D02*
X207978800Y-77287300D01*
X172074900Y-71334600D02*
X172074900Y-69030400D01*
X174625000Y-73884700D02*
X172074900Y-71334600D01*
X172694400Y-68410900D02*
X172074900Y-69030400D01*
X157070000Y-70470000D02*
X159720700Y-70470000D01*
X174625000Y-52050000D02*
X174625000Y-53075300D01*
X130359900Y-86198400D02*
X130323900Y-86198400D01*
X130411600Y-86250000D02*
X130359900Y-86198400D01*
X173826300Y-53874000D02*
X173266500Y-53874000D01*
X174625000Y-53075300D02*
X173826300Y-53874000D01*
X171584700Y-68540200D02*
X161019400Y-68540200D01*
X172074900Y-69030400D02*
X171584700Y-68540200D01*
X138787000Y-105494700D02*
X138892200Y-105389500D01*
X138785000Y-105494700D02*
X138787000Y-105494700D01*
X216596600Y-52111600D02*
X216535000Y-52050000D01*
X217170000Y-52111600D02*
X216596600Y-52111600D01*
X216331100Y-75935300D02*
X216228500Y-76037900D01*
X216535000Y-75935300D02*
X216331100Y-75935300D01*
X216535000Y-74910000D02*
X216535000Y-75935300D01*
X180975000Y-53172100D02*
X181830200Y-54027200D01*
X180975000Y-52050000D02*
X180975000Y-53172100D01*
X181796000Y-54061400D02*
X181830200Y-54027200D01*
X180975000Y-74910000D02*
X180975000Y-73884700D01*
X210911500Y-55331500D02*
X211013200Y-55229800D01*
X185501300Y-55331500D02*
X210911500Y-55331500D01*
X185051000Y-54881200D02*
X185501300Y-55331500D01*
X183455900Y-54881200D02*
X185051000Y-54881200D01*
X183305800Y-54731100D02*
X183455900Y-54881200D01*
X182534000Y-54731100D02*
X183305800Y-54731100D01*
X181830200Y-54027200D02*
X182534000Y-54731100D01*
X180975000Y-73856500D02*
X180908500Y-73790000D01*
X180975000Y-73884700D02*
X180975000Y-73856500D01*
X157070000Y-71120000D02*
X156019700Y-71120000D01*
X175041900Y-60140000D02*
X179962400Y-60140000D01*
X171511100Y-63670800D02*
X175041900Y-60140000D01*
X171511100Y-65843400D02*
X171511100Y-63670800D01*
X171656900Y-65989200D02*
X171511100Y-65843400D01*
X171656900Y-66507100D02*
X171656900Y-65989200D01*
X170109700Y-68054300D02*
X171656900Y-66507100D01*
X161859800Y-68054300D02*
X170109700Y-68054300D01*
X161805900Y-68000400D02*
X161859800Y-68054300D01*
X156828100Y-68000400D02*
X161805900Y-68000400D01*
X156019700Y-68808800D02*
X156828100Y-68000400D01*
X156019700Y-71120000D02*
X156019700Y-68808800D01*
X155652900Y-72420000D02*
X157070000Y-72420000D01*
X163470000Y-51420000D02*
X160867200Y-51420000D01*
X87644400Y-88870900D02*
X87644400Y-84969900D01*
X83835300Y-92680000D02*
X87644400Y-88870900D01*
X162970000Y-73070000D02*
X161919700Y-73070000D01*
X159171900Y-75817800D02*
X146222200Y-75817800D01*
X161919700Y-73070000D02*
X159171900Y-75817800D01*
X82910000Y-92680000D02*
X83835300Y-92680000D01*
X100302200Y-72107800D02*
X100273100Y-72136900D01*
X116237000Y-72107800D02*
X100302200Y-72107800D01*
X116515800Y-72386600D02*
X116237000Y-72107800D01*
X119284000Y-72386600D02*
X116515800Y-72386600D01*
X119470500Y-72573100D02*
X119284000Y-72386600D01*
X162970000Y-71770000D02*
X161919700Y-71770000D01*
X156650600Y-73623200D02*
X156262800Y-74011000D01*
X158339700Y-73623200D02*
X156650600Y-73623200D01*
X160192900Y-71770000D02*
X158339700Y-73623200D01*
X161919700Y-71770000D02*
X160192900Y-71770000D01*
X127660700Y-74205500D02*
X127330400Y-74535800D01*
X127660700Y-73692400D02*
X127660700Y-74205500D01*
X129757700Y-71595400D02*
X127660700Y-73692400D01*
X137918500Y-82985000D02*
X137243500Y-82985000D01*
X137918500Y-82985100D02*
X137918500Y-82985000D01*
X138443700Y-83510300D02*
X137918500Y-82985100D01*
X138879000Y-83510300D02*
X138443700Y-83510300D01*
X139186600Y-83202700D02*
X138879000Y-83510300D01*
X139186600Y-82860900D02*
X139186600Y-83202700D01*
X139934300Y-82113200D02*
X139186600Y-82860900D01*
X152121700Y-82113200D02*
X139934300Y-82113200D01*
X161677400Y-71120000D02*
X162970000Y-71120000D01*
X159887600Y-69330200D02*
X161677400Y-71120000D01*
X82910000Y-83170000D02*
X85269500Y-83170000D01*
X138049900Y-54657200D02*
X138049900Y-53352100D01*
X139023400Y-55630700D02*
X138049900Y-54657200D01*
X148834200Y-55630700D02*
X139023400Y-55630700D01*
X149284600Y-56081100D02*
X148834200Y-55630700D01*
X157745300Y-56081100D02*
X149284600Y-56081100D01*
X159667400Y-58003200D02*
X157745300Y-56081100D01*
X163239400Y-74219500D02*
X163058100Y-74219500D01*
X164651800Y-72807100D02*
X163239400Y-74219500D01*
X164651800Y-71101500D02*
X164651800Y-72807100D01*
X164020300Y-70470000D02*
X164651800Y-71101500D01*
X89810000Y-84470000D02*
X88884700Y-84470000D01*
X162970000Y-70470000D02*
X164020300Y-70470000D01*
X88884700Y-84470000D02*
X88743600Y-84470000D01*
X141837500Y-52296500D02*
X153142300Y-52296500D01*
X140085000Y-106320000D02*
X140085000Y-107145300D01*
X138594200Y-108636100D02*
X140085000Y-107145300D01*
X134062200Y-108636100D02*
X138594200Y-108636100D01*
X121290900Y-87133400D02*
X121290800Y-87133400D01*
X122121000Y-86303300D02*
X121290900Y-87133400D01*
X121885300Y-87953200D02*
X122828100Y-87010400D01*
X137856400Y-107145300D02*
X137766500Y-107235200D01*
X138135000Y-107145300D02*
X137856400Y-107145300D01*
X138135000Y-106320000D02*
X138135000Y-107145300D01*
X134073200Y-105267900D02*
X126279000Y-105267900D01*
X134505700Y-104835400D02*
X134073200Y-105267900D01*
X136851900Y-104835400D02*
X134505700Y-104835400D01*
X137485000Y-105468500D02*
X136851900Y-104835400D01*
X137485000Y-106320000D02*
X137485000Y-105468500D01*
X116315500Y-72929300D02*
X116019300Y-72633100D01*
X118505000Y-72929300D02*
X116315500Y-72929300D01*
X120706700Y-75131000D02*
X118505000Y-72929300D01*
X118237400Y-94858900D02*
X112898500Y-89520000D01*
X118895600Y-94858900D02*
X118237400Y-94858900D01*
X119909600Y-93844900D02*
X118895600Y-94858900D01*
X120160300Y-93844900D02*
X119909600Y-93844900D01*
X136835000Y-106320000D02*
X136835000Y-105494700D01*
X136737800Y-105494700D02*
X136835000Y-105494700D01*
X136656900Y-105413800D02*
X136737800Y-105494700D01*
X122474500Y-86656800D02*
X123235000Y-85896300D01*
X123889600Y-86364200D02*
X124107100Y-86364200D01*
X123505200Y-85979800D02*
X123889600Y-86364200D01*
X123318400Y-85979800D02*
X123505200Y-85979800D01*
X123235000Y-85896300D02*
X123318400Y-85979800D01*
X136185000Y-107258600D02*
X136184900Y-107258600D01*
X136185000Y-106320000D02*
X136185000Y-107258600D01*
X132232600Y-85949700D02*
X132992900Y-86710000D01*
X134679400Y-88627000D02*
X134679400Y-90719800D01*
X132992900Y-86940500D02*
X134679400Y-88627000D01*
X132992900Y-86710000D02*
X132992900Y-86940500D01*
X157070000Y-60280000D02*
X150062500Y-60280000D01*
X82910000Y-95280000D02*
X88181800Y-95280000D01*
X141512500Y-54148000D02*
X141228100Y-53863600D01*
X146006500Y-54148000D02*
X141512500Y-54148000D01*
X221615000Y-87650000D02*
X221615000Y-86624700D01*
X220980000Y-86862800D02*
X220980000Y-87158000D01*
X221218100Y-86624700D02*
X220980000Y-86862800D01*
X221615000Y-86624700D02*
X221218100Y-86624700D01*
X188033900Y-93105800D02*
X188033900Y-92562400D01*
X185805000Y-95334700D02*
X188033900Y-93105800D01*
X188033900Y-92562400D02*
X211794000Y-92562400D01*
X221615000Y-64790000D02*
X221615000Y-65958200D01*
X218933100Y-68640100D02*
X221615000Y-65958200D01*
X195810700Y-68640100D02*
X218933100Y-68640100D01*
X190243000Y-63072400D02*
X195810700Y-68640100D01*
X186747300Y-63072400D02*
X190243000Y-63072400D01*
X186055000Y-63764700D02*
X186747300Y-63072400D01*
X186055000Y-87249900D02*
X186055000Y-86737300D01*
X186055000Y-87249900D02*
X186055000Y-87650000D01*
X188033900Y-89771700D02*
X188033900Y-92562400D01*
X188178900Y-89626700D02*
X188033900Y-89771700D01*
X188178900Y-89191300D02*
X188178900Y-89626700D01*
X187889000Y-88901400D02*
X188178900Y-89191300D01*
X187889000Y-86802400D02*
X187889000Y-88901400D01*
X187711300Y-86624700D02*
X187889000Y-86802400D01*
X186167600Y-86624700D02*
X187711300Y-86624700D01*
X186055000Y-86737300D02*
X186167600Y-86624700D01*
X186055000Y-64277300D02*
X186055000Y-63764700D01*
X186055000Y-64277300D02*
X186055000Y-64790000D01*
X132030500Y-84333400D02*
X130846800Y-84333400D01*
X132939700Y-85242600D02*
X132030500Y-84333400D01*
X185805000Y-96160000D02*
X185805000Y-95917100D01*
X185805000Y-95917100D02*
X185805000Y-95334700D01*
X186432600Y-95917100D02*
X185805000Y-95917100D01*
X159018900Y-93050700D02*
X158919200Y-93150400D01*
X167314600Y-93050700D02*
X159018900Y-93050700D01*
X168803200Y-94539300D02*
X167314600Y-93050700D01*
X177923200Y-94539300D02*
X168803200Y-94539300D01*
X222885000Y-87650000D02*
X222885000Y-86624700D01*
X223297800Y-86624700D02*
X223520000Y-86846900D01*
X222885000Y-86624700D02*
X223297800Y-86624700D01*
X184505000Y-96160000D02*
X184505000Y-95334700D01*
X187325000Y-87650000D02*
X187325000Y-88675300D01*
X187325000Y-64790000D02*
X187325000Y-63764700D01*
X187325000Y-89409000D02*
X187653600Y-89409000D01*
X187325000Y-92675500D02*
X187325000Y-89409000D01*
X184665800Y-95334700D02*
X187325000Y-92675500D01*
X184505000Y-95334700D02*
X184665800Y-95334700D01*
X187325000Y-89409000D02*
X187325000Y-88675300D01*
X222885000Y-64790000D02*
X222885000Y-65937500D01*
X188725300Y-63764700D02*
X187325000Y-63764700D01*
X188808800Y-63681200D02*
X188725300Y-63764700D01*
X217047100Y-80786800D02*
X222885000Y-86624700D01*
X187878800Y-80786800D02*
X217047100Y-80786800D01*
X187877400Y-80785400D02*
X187878800Y-80786800D01*
X158283400Y-85695800D02*
X158234800Y-85744400D01*
X164372700Y-85695800D02*
X158283400Y-85695800D01*
X166895800Y-83172700D02*
X164372700Y-85695800D01*
X171575100Y-83172700D02*
X166895800Y-83172700D01*
X172025400Y-82722400D02*
X171575100Y-83172700D01*
X175617200Y-82722400D02*
X172025400Y-82722400D01*
X176929800Y-81409800D02*
X175617200Y-82722400D01*
X187253000Y-81409800D02*
X176929800Y-81409800D01*
X187877400Y-80785400D02*
X187253000Y-81409800D01*
X134468200Y-86063900D02*
X134468200Y-86421600D01*
X133293300Y-84889000D02*
X134468200Y-86063900D01*
X183855000Y-96160000D02*
X183855000Y-95334700D01*
X183945100Y-95244600D02*
X183855000Y-95334700D01*
X188595000Y-87650000D02*
X188595000Y-88675300D01*
X224570800Y-86624700D02*
X224608300Y-86587200D01*
X224155000Y-86624700D02*
X224570800Y-86624700D01*
X224155000Y-87650000D02*
X224155000Y-86624700D01*
X224155000Y-66413800D02*
X224155000Y-64790000D01*
X222864800Y-67704000D02*
X224155000Y-66413800D01*
X190298300Y-63764700D02*
X192848600Y-66314900D01*
X189505200Y-63764700D02*
X190298300Y-63764700D01*
X188595000Y-64674900D02*
X189505200Y-63764700D01*
X188595000Y-64790000D02*
X188595000Y-64674900D01*
X189070800Y-90367800D02*
X188629200Y-89926200D01*
X189758500Y-90367800D02*
X189070800Y-90367800D01*
X188629200Y-88709500D02*
X188629200Y-89926200D01*
X188595000Y-88675300D02*
X188629200Y-88709500D01*
X192848600Y-66314900D02*
X192753700Y-66409800D01*
X221449700Y-69119100D02*
X222864800Y-67704000D01*
X195652800Y-69119100D02*
X221449700Y-69119100D01*
X192848600Y-66314900D02*
X195652800Y-69119100D01*
X135242900Y-86131600D02*
X135242900Y-86616500D01*
X133646800Y-84535500D02*
X135242900Y-86131600D01*
X139212400Y-90586000D02*
X139110200Y-90483800D01*
X150777700Y-90586000D02*
X139212400Y-90586000D01*
X152365700Y-88998000D02*
X150777700Y-90586000D01*
X153361200Y-88998000D02*
X152365700Y-88998000D01*
X153811500Y-88547700D02*
X153361200Y-88998000D01*
X169349600Y-88547700D02*
X153811500Y-88547700D01*
X170119300Y-89317400D02*
X169349600Y-88547700D01*
X174881200Y-89317400D02*
X170119300Y-89317400D01*
X225425000Y-74910000D02*
X225425000Y-73884700D01*
X189865000Y-52050000D02*
X189865000Y-51024700D01*
X225425000Y-51977600D02*
X225425000Y-51024700D01*
X225425000Y-51977600D02*
X225425000Y-52050000D01*
X225425000Y-52050000D02*
X225425000Y-53075300D01*
X224177800Y-54322500D02*
X223407600Y-54322500D01*
X225425000Y-53075300D02*
X224177800Y-54322500D01*
X223640400Y-72100100D02*
X225425000Y-73884700D01*
X222998300Y-72100100D02*
X223640400Y-72100100D01*
X191365100Y-72384600D02*
X189865000Y-73884700D01*
X211317700Y-72384600D02*
X191365100Y-72384600D01*
X211618800Y-72083500D02*
X211317700Y-72384600D01*
X222981700Y-72083500D02*
X211618800Y-72083500D01*
X222998300Y-72100100D02*
X222981700Y-72083500D01*
X189865000Y-74910000D02*
X189865000Y-73958500D01*
X189865000Y-73958500D02*
X189865000Y-73884700D01*
X189694400Y-73787900D02*
X189865000Y-73958500D01*
X183205000Y-96160000D02*
X183205000Y-95334700D01*
X183224400Y-95334700D02*
X183310100Y-95249000D01*
X183205000Y-95334700D02*
X183224400Y-95334700D01*
X191215900Y-49673800D02*
X189865000Y-51024700D01*
X212438500Y-49673800D02*
X191215900Y-49673800D01*
X212888800Y-49223500D02*
X212438500Y-49673800D01*
X223623800Y-49223500D02*
X212888800Y-49223500D01*
X225425000Y-51024700D02*
X223623800Y-49223500D01*
X134000400Y-84181900D02*
X134760800Y-84942200D01*
X134780800Y-84942200D02*
X134760800Y-84942200D01*
X135484400Y-85645800D02*
X134780800Y-84942200D01*
X135556900Y-85645800D02*
X135484400Y-85645800D01*
X136018700Y-86107600D02*
X135556900Y-85645800D01*
X143698900Y-86107600D02*
X136018700Y-86107600D01*
X158089000Y-92600400D02*
X157649800Y-93039600D01*
X167501200Y-92600400D02*
X158089000Y-92600400D01*
X168721200Y-93820400D02*
X167501200Y-92600400D01*
X182972300Y-93820400D02*
X168721200Y-93820400D01*
X188595000Y-74910000D02*
X188595000Y-75935300D01*
X224155000Y-74910000D02*
X224155000Y-73884700D01*
X224155000Y-52050000D02*
X224155000Y-53075300D01*
X223254400Y-72984100D02*
X224155000Y-73884700D01*
X222941600Y-72984100D02*
X223254400Y-72984100D01*
X188595000Y-52050000D02*
X188595000Y-53075300D01*
X224155000Y-52050000D02*
X224155000Y-51024700D01*
X224077300Y-53075300D02*
X223866900Y-53285700D01*
X224155000Y-53075300D02*
X224077300Y-53075300D01*
X182555000Y-95747300D02*
X182555000Y-95334700D01*
X182555000Y-95747300D02*
X182555000Y-96160000D01*
X202094100Y-53075300D02*
X188595000Y-53075300D01*
X205045300Y-50124100D02*
X202094100Y-53075300D01*
X212625100Y-50124100D02*
X205045300Y-50124100D01*
X213075400Y-49673800D02*
X212625100Y-50124100D01*
X222804100Y-49673800D02*
X213075400Y-49673800D01*
X224155000Y-51024700D02*
X222804100Y-49673800D01*
X189303400Y-75935300D02*
X189303400Y-75854000D01*
X202094100Y-75935300D02*
X189303400Y-75935300D01*
X205045300Y-72984100D02*
X202094100Y-75935300D01*
X211355100Y-72984100D02*
X205045300Y-72984100D01*
X211805400Y-72533800D02*
X211355100Y-72984100D01*
X222491300Y-72533800D02*
X211805400Y-72533800D01*
X222941600Y-72984100D02*
X222491300Y-72533800D01*
X189303400Y-75935300D02*
X188595000Y-75935300D01*
X182555000Y-95208200D02*
X182555000Y-95334700D01*
X183780700Y-93982500D02*
X182555000Y-95208200D01*
X185220400Y-93982500D02*
X183780700Y-93982500D01*
X134353900Y-83828400D02*
X135114200Y-84588700D01*
X135136700Y-84588700D02*
X135114200Y-84588700D01*
X135909400Y-85361400D02*
X135136700Y-84588700D01*
X153476800Y-85361400D02*
X135909400Y-85361400D01*
X155285100Y-83553100D02*
X153476800Y-85361400D01*
X163967800Y-83553100D02*
X155285100Y-83553100D01*
X166149400Y-81371500D02*
X163967800Y-83553100D01*
X171240500Y-81371500D02*
X166149400Y-81371500D01*
X171465700Y-81146300D02*
X171240500Y-81371500D01*
X174964200Y-81146300D02*
X171465700Y-81146300D01*
X176640400Y-79470100D02*
X174964200Y-81146300D01*
X180294100Y-79470100D02*
X176640400Y-79470100D01*
X180561800Y-79737800D02*
X180294100Y-79470100D01*
X181930300Y-79737800D02*
X180561800Y-79737800D01*
X182380600Y-80188100D02*
X181930300Y-79737800D01*
X189230000Y-80188100D02*
X182380600Y-80188100D01*
X189303400Y-80261500D02*
X189230000Y-80188100D01*
X222885000Y-74910000D02*
X222885000Y-74397300D01*
X222885000Y-74397300D02*
X222885000Y-73884700D01*
X223165600Y-74116700D02*
X223165600Y-73778600D01*
X222885000Y-74397300D02*
X223165600Y-74116700D01*
X222946600Y-52111600D02*
X222885000Y-52050000D01*
X223520000Y-52111600D02*
X222946600Y-52111600D01*
X187325000Y-74910000D02*
X187325000Y-75763400D01*
X187325000Y-52050000D02*
X187325000Y-51024700D01*
X187352100Y-75790500D02*
X187352100Y-76028400D01*
X187325000Y-75763400D02*
X187352100Y-75790500D01*
X187709400Y-76385700D02*
X187352100Y-76028400D01*
X202280700Y-76385700D02*
X187709400Y-76385700D01*
X205232000Y-73434400D02*
X202280700Y-76385700D01*
X211541700Y-73434400D02*
X205232000Y-73434400D01*
X211992000Y-72984100D02*
X211541700Y-73434400D01*
X221984400Y-72984100D02*
X211992000Y-72984100D01*
X222885000Y-73884700D02*
X221984400Y-72984100D01*
X187325000Y-51024700D02*
X187801300Y-51024700D01*
X181905000Y-95020000D02*
X182103500Y-94821500D01*
X181905000Y-96160000D02*
X181905000Y-95020000D01*
X139623900Y-84861200D02*
X139668900Y-84816200D01*
X136093900Y-84861200D02*
X139623900Y-84861200D01*
X134707500Y-83474800D02*
X136093900Y-84861200D01*
X150347200Y-89575400D02*
X143913800Y-89575400D01*
X151825200Y-88097400D02*
X150347200Y-89575400D01*
X152762900Y-88097400D02*
X151825200Y-88097400D01*
X153213200Y-87647100D02*
X152762900Y-88097400D01*
X169103800Y-87647100D02*
X153213200Y-87647100D01*
X172197900Y-84553000D02*
X169103800Y-87647100D01*
X172290300Y-84553000D02*
X172197900Y-84553000D01*
X186055000Y-74910000D02*
X186055000Y-75935300D01*
X221615000Y-74910000D02*
X221615000Y-73884700D01*
X221615000Y-52050000D02*
X221615000Y-53075300D01*
X221615000Y-53075300D02*
X220980000Y-53075300D01*
X219710000Y-73884700D02*
X221615000Y-73884700D01*
X186055000Y-52050000D02*
X186055000Y-53075300D01*
X221615000Y-52050000D02*
X221615000Y-51024700D01*
X186055000Y-76748100D02*
X185885800Y-76748100D01*
X186055000Y-75935300D02*
X186055000Y-76748100D01*
X186143000Y-76836100D02*
X186055000Y-76748100D01*
X202692100Y-76836100D02*
X186143000Y-76836100D01*
X205643500Y-73884700D02*
X202692100Y-76836100D01*
X211728300Y-73884700D02*
X205643500Y-73884700D01*
X212178600Y-73434400D02*
X211728300Y-73884700D01*
X219259700Y-73434400D02*
X212178600Y-73434400D01*
X219710000Y-73884700D02*
X219259700Y-73434400D01*
X186505400Y-53525700D02*
X186055000Y-53075300D01*
X202280700Y-53525700D02*
X186505400Y-53525700D01*
X205232000Y-50574400D02*
X202280700Y-53525700D01*
X212811700Y-50574400D02*
X205232000Y-50574400D01*
X213262000Y-50124100D02*
X212811700Y-50574400D01*
X220714400Y-50124100D02*
X213262000Y-50124100D01*
X221615000Y-51024700D02*
X220714400Y-50124100D01*
X136258400Y-84318700D02*
X135061000Y-83121300D01*
X136421400Y-84318700D02*
X136258400Y-84318700D01*
X180890100Y-80703000D02*
X181803400Y-80703000D01*
X180163800Y-79976700D02*
X180890100Y-80703000D01*
X176996000Y-79976700D02*
X180163800Y-79976700D01*
X175376100Y-81596600D02*
X176996000Y-79976700D01*
X171652400Y-81596600D02*
X175376100Y-81596600D01*
X171202000Y-82047000D02*
X171652400Y-81596600D01*
X166747600Y-82047000D02*
X171202000Y-82047000D01*
X164426100Y-84368500D02*
X166747600Y-82047000D01*
X156033100Y-84368500D02*
X164426100Y-84368500D01*
X181255000Y-94970200D02*
X181226900Y-94942100D01*
X181255000Y-96160000D02*
X181255000Y-94970200D01*
X150804700Y-91454200D02*
X152221700Y-90037200D01*
X144827000Y-91454200D02*
X150804700Y-91454200D01*
X184785000Y-52050000D02*
X184785000Y-53075300D01*
X184785000Y-74910000D02*
X184785000Y-73884700D01*
X220345000Y-52050000D02*
X220345000Y-53075300D01*
X220345000Y-53075300D02*
X219710000Y-53075300D01*
X219710100Y-75545000D02*
X219710000Y-75545000D01*
X219710100Y-75732000D02*
X219710100Y-75545000D01*
X219913400Y-75935300D02*
X219710100Y-75732000D01*
X220345000Y-75935300D02*
X219913400Y-75935300D01*
X220345000Y-74910000D02*
X220345000Y-75935300D01*
X220345000Y-52050000D02*
X220345000Y-51024700D01*
X186157900Y-53976100D02*
X185637000Y-53455200D01*
X202692100Y-53976100D02*
X186157900Y-53976100D01*
X205643500Y-51024700D02*
X202692100Y-53976100D01*
X212998300Y-51024700D02*
X205643500Y-51024700D01*
X213448600Y-50574400D02*
X212998300Y-51024700D01*
X219894700Y-50574400D02*
X213448600Y-50574400D01*
X220345000Y-51024700D02*
X219894700Y-50574400D01*
X185257100Y-53075300D02*
X185637000Y-53455200D01*
X184785000Y-53075300D02*
X185257100Y-53075300D01*
X184882100Y-73787600D02*
X183356800Y-72262300D01*
X184785000Y-73884700D02*
X184882100Y-73787600D01*
X184962400Y-73707300D02*
X185087300Y-73707300D01*
X184882100Y-73787600D02*
X184962400Y-73707300D01*
X180605000Y-95309200D02*
X180542300Y-95246500D01*
X180605000Y-96160000D02*
X180605000Y-95309200D01*
X136440300Y-83793400D02*
X135414600Y-82767700D01*
X136639100Y-83793400D02*
X136440300Y-83793400D01*
X137256600Y-84410900D02*
X136639100Y-83793400D01*
X139331200Y-84410900D02*
X137256600Y-84410900D01*
X139482800Y-84259300D02*
X139331200Y-84410900D01*
X140662300Y-84259300D02*
X139482800Y-84259300D01*
X140725300Y-84322300D02*
X140662300Y-84259300D01*
X146354900Y-87647000D02*
X146111300Y-87890600D01*
X152576400Y-87647000D02*
X146354900Y-87647000D01*
X153026600Y-87196800D02*
X152576400Y-87647000D01*
X168903400Y-87196800D02*
X153026600Y-87196800D01*
X172477200Y-83623000D02*
X168903400Y-87196800D01*
X180510200Y-83623000D02*
X172477200Y-83623000D01*
X170815000Y-87650000D02*
X170815000Y-86624700D01*
X170992000Y-86624700D02*
X171083500Y-86533200D01*
X170815000Y-86624700D02*
X170992000Y-86624700D01*
X206375000Y-87650000D02*
X206375000Y-86624700D01*
X204549400Y-84799100D02*
X206375000Y-86624700D01*
X203311400Y-84799100D02*
X204549400Y-84799100D01*
X206375000Y-64790000D02*
X206375000Y-65815300D01*
X206072800Y-65638100D02*
X205437100Y-65638100D01*
X206147800Y-65713100D02*
X206072800Y-65638100D01*
X206272800Y-65713100D02*
X206147800Y-65713100D01*
X206375000Y-65815300D02*
X206272800Y-65713100D01*
X202367900Y-83855600D02*
X203311400Y-84799100D01*
X182102900Y-83855600D02*
X202367900Y-83855600D01*
X181810200Y-84148300D02*
X182102900Y-83855600D01*
X173468400Y-84148300D02*
X181810200Y-84148300D01*
X171083500Y-86533200D02*
X173468400Y-84148300D01*
X170815000Y-64790000D02*
X170815000Y-65890300D01*
X170815000Y-65890300D02*
X171131600Y-66206900D01*
X132444600Y-72761600D02*
X132285900Y-72602800D01*
X134168400Y-72761600D02*
X132444600Y-72761600D01*
X134532200Y-73125400D02*
X134168400Y-72761600D01*
X141761200Y-73125400D02*
X134532200Y-73125400D01*
X148417300Y-66469300D02*
X141761200Y-73125400D01*
X170236000Y-66469300D02*
X148417300Y-66469300D01*
X170815000Y-65890300D02*
X170236000Y-66469300D01*
X131525500Y-73363200D02*
X132285900Y-72602800D01*
X172085000Y-52050000D02*
X172085000Y-53075300D01*
X172085000Y-74910000D02*
X172085000Y-73884700D01*
X173714800Y-73884700D02*
X173990000Y-74159900D01*
X172085000Y-73884700D02*
X173714800Y-73884700D01*
X207645000Y-52050000D02*
X207645000Y-53075300D01*
X207645000Y-53075300D02*
X207108600Y-53075300D01*
X207645000Y-74910000D02*
X207010000Y-74910000D01*
X172085000Y-53075300D02*
X171981900Y-53178400D01*
X132586100Y-85596100D02*
X133346500Y-86356500D01*
X134146100Y-87156100D02*
X133346500Y-86356500D01*
X135646300Y-87156100D02*
X134146100Y-87156100D01*
X136169500Y-86632900D02*
X135646300Y-87156100D01*
X152316700Y-86632900D02*
X136169500Y-86632900D01*
X152653400Y-86296200D02*
X152316700Y-86632900D01*
X161006300Y-86296200D02*
X152653400Y-86296200D01*
X161156400Y-86146100D02*
X161006300Y-86296200D01*
X167509400Y-86146100D02*
X161156400Y-86146100D01*
X168815100Y-84840400D02*
X167509400Y-86146100D01*
X172085000Y-87650000D02*
X172085000Y-88675300D01*
X207645000Y-87650000D02*
X207645000Y-87137300D01*
X207645000Y-64790000D02*
X207645000Y-65815300D01*
X207645000Y-65815300D02*
X208117000Y-65815300D01*
X207645000Y-86734700D02*
X207453800Y-86543500D01*
X207645000Y-87137300D02*
X207645000Y-86734700D01*
X172107200Y-64812200D02*
X172085000Y-64790000D01*
X172107200Y-66946200D02*
X172107200Y-64812200D01*
X171524400Y-67529000D02*
X172107200Y-66946200D01*
X203983400Y-83073100D02*
X207453800Y-86543500D01*
X175903400Y-83073100D02*
X203983400Y-83073100D01*
X175803800Y-83172700D02*
X175903400Y-83073100D01*
X172212000Y-83172700D02*
X175803800Y-83172700D01*
X171686600Y-83698100D02*
X172212000Y-83172700D01*
X171659100Y-83698100D02*
X171686600Y-83698100D01*
X172085000Y-88675300D02*
X171597900Y-88675300D01*
X129130800Y-76464900D02*
X131879000Y-73716700D01*
X129130800Y-77181800D02*
X129130800Y-76464900D01*
X128285300Y-78027300D02*
X129130800Y-77181800D01*
X139982600Y-89448300D02*
X139982600Y-88982800D01*
X140650400Y-90116100D02*
X139982600Y-89448300D01*
X150610700Y-90116100D02*
X140650400Y-90116100D01*
X152179100Y-88547700D02*
X150610700Y-90116100D01*
X152949700Y-88547700D02*
X152179100Y-88547700D01*
X153400000Y-88097400D02*
X152949700Y-88547700D01*
X169741300Y-88097400D02*
X153400000Y-88097400D01*
X170319200Y-88675300D02*
X169741300Y-88097400D01*
X171597900Y-88675300D02*
X170319200Y-88675300D01*
X173355000Y-52050000D02*
X173355000Y-53075300D01*
X173355000Y-74910000D02*
X173355000Y-75935300D01*
X208915000Y-52050000D02*
X208915000Y-53075300D01*
X173355000Y-75935300D02*
X175268100Y-75935300D01*
X208505200Y-53485100D02*
X208505200Y-54329700D01*
X208915000Y-53075300D02*
X208505200Y-53485100D01*
X208404100Y-54430800D02*
X208505200Y-54329700D01*
X185874400Y-54430800D02*
X208404100Y-54430800D01*
X185424200Y-53980600D02*
X185874400Y-54430800D01*
X183829100Y-53980600D02*
X185424200Y-53980600D01*
X183583000Y-53734500D02*
X183829100Y-53980600D01*
X182982600Y-53734500D02*
X183583000Y-53734500D01*
X173355000Y-53075300D02*
X173852500Y-53075300D01*
X207937900Y-76010800D02*
X207840600Y-76010800D01*
X208915000Y-75033700D02*
X207937900Y-76010800D01*
X208915000Y-74910000D02*
X208915000Y-75033700D01*
X124949400Y-70888300D02*
X125709900Y-71648700D01*
X126663000Y-70733300D02*
X126964300Y-70733300D01*
X125866500Y-71529800D02*
X126663000Y-70733300D01*
X125828800Y-71529800D02*
X125866500Y-71529800D01*
X125709900Y-71648700D02*
X125828800Y-71529800D01*
X171894200Y-80080900D02*
X174649600Y-80080900D01*
X171162700Y-80812400D02*
X171894200Y-80080900D01*
X166071500Y-80812400D02*
X171162700Y-80812400D01*
X163781100Y-83102800D02*
X166071500Y-80812400D01*
X155098500Y-83102800D02*
X163781100Y-83102800D01*
X154873300Y-83328000D02*
X155098500Y-83102800D01*
X148199500Y-83328000D02*
X154873300Y-83328000D01*
X208915000Y-87650000D02*
X208915000Y-86624700D01*
X173451700Y-63668000D02*
X173355000Y-63764700D01*
X176028400Y-63668000D02*
X173451700Y-63668000D01*
X173355000Y-87650000D02*
X173355000Y-88675300D01*
X208915000Y-86624700D02*
X207753800Y-85463500D01*
X208915000Y-64790000D02*
X208915000Y-65815300D01*
X205921900Y-66342800D02*
X205888500Y-66309400D01*
X208387500Y-66342800D02*
X205921900Y-66342800D01*
X208915000Y-65815300D02*
X208387500Y-66342800D01*
X173355000Y-64790000D02*
X173355000Y-63764700D01*
X175060100Y-88675300D02*
X173355000Y-88675300D01*
X175175400Y-88560000D02*
X175060100Y-88675300D01*
X175175400Y-86949200D02*
X175175400Y-88560000D01*
X175690900Y-86433700D02*
X175175400Y-86949200D01*
X201239900Y-84823500D02*
X201286300Y-84869900D01*
X182408800Y-84823500D02*
X201239900Y-84823500D01*
X182183400Y-85048900D02*
X182408800Y-84823500D01*
X177075700Y-85048900D02*
X182183400Y-85048900D01*
X175690900Y-86433700D02*
X177075700Y-85048900D01*
X173245300Y-63655000D02*
X173355000Y-63764700D01*
X172269800Y-63655000D02*
X173245300Y-63655000D01*
X116115200Y-83661800D02*
X116063800Y-83610400D01*
X117691300Y-83661800D02*
X116115200Y-83661800D01*
X118585400Y-82767700D02*
X117691300Y-83661800D01*
X149256800Y-67543700D02*
X149176400Y-67624100D01*
X161986100Y-67543700D02*
X149256800Y-67543700D01*
X162046400Y-67604000D02*
X161986100Y-67543700D01*
X167064100Y-67604000D02*
X162046400Y-67604000D01*
X167142900Y-67525200D02*
X167064100Y-67604000D01*
X210185000Y-64790000D02*
X210185000Y-65815300D01*
X209851500Y-65815300D02*
X210185000Y-65815300D01*
X209784500Y-65882300D02*
X209851500Y-65815300D01*
X174625000Y-64790000D02*
X174625000Y-65815300D01*
X210185000Y-87650000D02*
X210185000Y-86547700D01*
X174625000Y-87650000D02*
X174625000Y-86516900D01*
X173721100Y-65815300D02*
X174625000Y-65815300D01*
X173324200Y-66212200D02*
X173721100Y-65815300D01*
X210185000Y-87650000D02*
X210185000Y-88675300D01*
X205834700Y-88675300D02*
X210185000Y-88675300D01*
X201465300Y-84305900D02*
X205834700Y-88675300D01*
X182289500Y-84305900D02*
X201465300Y-84305900D01*
X181996800Y-84598600D02*
X182289500Y-84305900D01*
X176543300Y-84598600D02*
X181996800Y-84598600D01*
X174625000Y-86516900D02*
X176543300Y-84598600D01*
X117878300Y-82060600D02*
X118638800Y-81300100D01*
X118780100Y-81441500D02*
X118638800Y-81300100D01*
X119019400Y-81441500D02*
X118780100Y-81441500D01*
X117861900Y-100946300D02*
X107431200Y-100946300D01*
X119472700Y-102557100D02*
X117861900Y-100946300D01*
X138236000Y-102557100D02*
X119472700Y-102557100D01*
X139477200Y-101315900D02*
X138236000Y-102557100D01*
X170089400Y-89924400D02*
X172582900Y-89924400D01*
X169163000Y-88998000D02*
X170089400Y-89924400D01*
X154003900Y-88998000D02*
X169163000Y-88998000D01*
X149468000Y-93533900D02*
X154003900Y-88998000D01*
X140329300Y-93533900D02*
X149468000Y-93533900D01*
X175895000Y-74910000D02*
X175895000Y-73884700D01*
X175984800Y-73884700D02*
X176087400Y-73782100D01*
X175895000Y-73884700D02*
X175984800Y-73884700D01*
X175895000Y-52562600D02*
X175895000Y-53075300D01*
X175895000Y-52562600D02*
X175895000Y-52050000D01*
X175895000Y-52050000D02*
X175895000Y-51024700D01*
X211455000Y-52050000D02*
X211455000Y-53075300D01*
X211121800Y-74576800D02*
X211455000Y-74910000D01*
X210820000Y-74576800D02*
X211121800Y-74576800D01*
X210402000Y-54128300D02*
X209774800Y-54128300D01*
X211455000Y-53075300D02*
X210402000Y-54128300D01*
X175895000Y-51024700D02*
X176072100Y-50847600D01*
X118231900Y-82414200D02*
X117471500Y-83174600D01*
X175895000Y-53075300D02*
X175428600Y-53075300D01*
X117325200Y-83028400D02*
X117471500Y-83174600D01*
X117233300Y-83028400D02*
X117325200Y-83028400D01*
X117168600Y-82963700D02*
X117233300Y-83028400D01*
X116531700Y-82963700D02*
X117168600Y-82963700D01*
X116507300Y-82939300D02*
X116531700Y-82963700D01*
X116507000Y-82939300D02*
X116507300Y-82939300D01*
X116494000Y-82926300D02*
X116507000Y-82939300D01*
X116259200Y-82926300D02*
X116494000Y-82926300D01*
X112527500Y-79194600D02*
X116259200Y-82926300D01*
X112270400Y-79194600D02*
X112527500Y-79194600D01*
X111811200Y-78735400D02*
X112270400Y-79194600D01*
X109942000Y-78735400D02*
X111811200Y-78735400D01*
X209021900Y-54881200D02*
X209774800Y-54128300D01*
X185687900Y-54881200D02*
X209021900Y-54881200D01*
X185237600Y-54430900D02*
X185687900Y-54881200D01*
X183642500Y-54430900D02*
X185237600Y-54430900D01*
X183492400Y-54280800D02*
X183642500Y-54430900D01*
X182786000Y-54280800D02*
X183492400Y-54280800D01*
X181525400Y-53020200D02*
X182786000Y-54280800D01*
X181525400Y-51195000D02*
X181525400Y-53020200D01*
X180881900Y-50551500D02*
X181525400Y-51195000D01*
X176368200Y-50551500D02*
X180881900Y-50551500D01*
X176072100Y-50847600D02*
X176368200Y-50551500D01*
X177165000Y-52050000D02*
X177165000Y-53075300D01*
X177165000Y-74910000D02*
X177165000Y-73884700D01*
X177408600Y-73884700D02*
X177499700Y-73793600D01*
X177165000Y-73884700D02*
X177408600Y-73884700D01*
X212725000Y-74910000D02*
X212725000Y-75935300D01*
X212725000Y-52050000D02*
X212095300Y-52050000D01*
X212253500Y-76406800D02*
X212207600Y-76406800D01*
X212725000Y-75935300D02*
X212253500Y-76406800D01*
X177561900Y-53075300D02*
X177800000Y-52837200D01*
X177165000Y-53075300D02*
X177561900Y-53075300D01*
X178940000Y-56271500D02*
X170288400Y-56271500D01*
X180087200Y-55124300D02*
X178940000Y-56271500D01*
X180087200Y-55124300D02*
X177800000Y-52837200D01*
X180160900Y-55198100D02*
X180087200Y-55124300D01*
X180161000Y-55198100D02*
X180160900Y-55198100D01*
X181766300Y-56803400D02*
X180161000Y-55198100D01*
X212233000Y-56803400D02*
X181766300Y-56803400D01*
X215828800Y-53207600D02*
X212233000Y-56803400D01*
X215828800Y-51223100D02*
X215828800Y-53207600D01*
X215630400Y-51024700D02*
X215828800Y-51223100D01*
X213635200Y-51024700D02*
X215630400Y-51024700D01*
X212725000Y-51934900D02*
X213635200Y-51024700D01*
X212725000Y-52050000D02*
X212725000Y-51934900D01*
X114143600Y-76533300D02*
X113510100Y-76533300D01*
X114407500Y-76797200D02*
X114143600Y-76533300D01*
X117423300Y-76797200D02*
X114407500Y-76797200D01*
X118231900Y-77605800D02*
X117423300Y-76797200D01*
X213995000Y-74910000D02*
X213995000Y-75935300D01*
X213995000Y-52050000D02*
X213995000Y-53075300D01*
X178435000Y-52050000D02*
X178435000Y-51024700D01*
X178435000Y-74509900D02*
X178435000Y-73884700D01*
X180611700Y-75960300D02*
X181610000Y-75960300D01*
X180255400Y-75604000D02*
X180611700Y-75960300D01*
X180255400Y-74012200D02*
X180255400Y-75604000D01*
X180127900Y-73884700D02*
X180255400Y-74012200D01*
X178435000Y-73884700D02*
X180127900Y-73884700D01*
X211271200Y-55799100D02*
X213995000Y-53075300D01*
X183555700Y-55799100D02*
X211271200Y-55799100D01*
X183088100Y-55331500D02*
X183555700Y-55799100D01*
X181610000Y-74058200D02*
X181959200Y-73709000D01*
X181610000Y-75960300D02*
X181610000Y-74058200D01*
X211742400Y-78187900D02*
X213995000Y-75935300D01*
X183837600Y-78187900D02*
X211742400Y-78187900D01*
X181610000Y-75960300D02*
X183837600Y-78187900D01*
X178435000Y-74509900D02*
X178435000Y-74910000D01*
X182323100Y-55331500D02*
X183088100Y-55331500D01*
X180342000Y-53350400D02*
X182323100Y-55331500D01*
X180342000Y-51285400D02*
X180342000Y-53350400D01*
X180081300Y-51024700D02*
X180342000Y-51285400D01*
X178435000Y-51024700D02*
X180081300Y-51024700D01*
X117878300Y-77959400D02*
X118638800Y-78719800D01*
X120299600Y-78609900D02*
X122534900Y-76374600D01*
X118748700Y-78609900D02*
X120299600Y-78609900D01*
X118638800Y-78719800D02*
X118748700Y-78609900D01*
X174630100Y-58903400D02*
X182150000Y-58903400D01*
X167995100Y-65538400D02*
X174630100Y-58903400D01*
X152720400Y-65538400D02*
X167995100Y-65538400D01*
X215265000Y-74910000D02*
X215265000Y-75935300D01*
X179705000Y-74910000D02*
X179705000Y-75422600D01*
X179705000Y-75422600D02*
X179705000Y-75935300D01*
X179705000Y-52050000D02*
X179705000Y-53075300D01*
X215265000Y-52050000D02*
X215265000Y-53075300D01*
X179381300Y-53075300D02*
X179297800Y-53158800D01*
X179705000Y-53075300D02*
X179381300Y-53075300D01*
X212003800Y-56336500D02*
X215265000Y-53075300D01*
X182606300Y-56336500D02*
X212003800Y-56336500D01*
X179705000Y-53435200D02*
X182606300Y-56336500D01*
X179705000Y-53075300D02*
X179705000Y-53435200D01*
X117524800Y-81707100D02*
X116764500Y-82467400D01*
X114105100Y-79808200D02*
X114105000Y-79808200D01*
X114441800Y-80144900D02*
X114105100Y-79808200D01*
X114441900Y-80144900D02*
X114441800Y-80144900D01*
X116764500Y-82467400D02*
X114441900Y-80144900D01*
X179705000Y-75422600D02*
X179070000Y-75422600D01*
X182156600Y-78386900D02*
X179705000Y-75935300D01*
X182490100Y-78386900D02*
X182156600Y-78386900D01*
X182741400Y-78638200D02*
X182490100Y-78386900D01*
X212562100Y-78638200D02*
X182741400Y-78638200D01*
X215265000Y-75935300D02*
X212562100Y-78638200D01*
X179297800Y-55144300D02*
X169910600Y-55144300D01*
X217805000Y-52050000D02*
X217805000Y-53075300D01*
X217805000Y-53075300D02*
X217268600Y-53075300D01*
X217805000Y-74910000D02*
X217170000Y-74910000D01*
X182245000Y-74910000D02*
X182245000Y-75935300D01*
X182245000Y-53075300D02*
X184047100Y-53075300D01*
X182681400Y-76371800D02*
X182862400Y-76371800D01*
X182681400Y-76371700D02*
X182681400Y-76371800D01*
X182245000Y-75935300D02*
X182681400Y-76371700D01*
X217170000Y-74114800D02*
X217170000Y-74910000D01*
X216939900Y-73884700D02*
X217170000Y-74114800D01*
X212365200Y-73884700D02*
X216939900Y-73884700D01*
X212174600Y-74075300D02*
X212365200Y-73884700D01*
X212174600Y-75612500D02*
X212174600Y-74075300D01*
X210049500Y-77737600D02*
X212174600Y-75612500D01*
X184228200Y-77737600D02*
X210049500Y-77737600D01*
X182862400Y-76371800D02*
X184228200Y-77737600D01*
X182245000Y-52562600D02*
X182245000Y-53075300D01*
X182245000Y-52562600D02*
X182245000Y-52050000D01*
X180203800Y-48983500D02*
X176489000Y-48983500D01*
X182245000Y-51024700D02*
X180203800Y-48983500D01*
X116684700Y-81353500D02*
X117171200Y-81353500D01*
X113540500Y-78209300D02*
X116684700Y-81353500D01*
X108754600Y-78209300D02*
X113540500Y-78209300D01*
X108658500Y-78305400D02*
X108754600Y-78209300D01*
X182245000Y-52050000D02*
X182245000Y-51024700D01*
X89810000Y-85770000D02*
X88884700Y-85770000D01*
X83372700Y-94630000D02*
X83835300Y-94630000D01*
X83372700Y-94630000D02*
X82910000Y-94630000D01*
X88884700Y-86470900D02*
X88884700Y-85770000D01*
X88884700Y-89753600D02*
X88884700Y-86470900D01*
X84008300Y-94630000D02*
X88884700Y-89753600D01*
X83835300Y-94630000D02*
X84008300Y-94630000D01*
X87175900Y-82520000D02*
X87337300Y-82681400D01*
X82910000Y-82520000D02*
X87175900Y-82520000D01*
X88263700Y-82520000D02*
X89810000Y-82520000D01*
X86963700Y-83820000D02*
X88263700Y-82520000D01*
X82910000Y-83820000D02*
X86963700Y-83820000D01*
X139395000Y-55180400D02*
X138709200Y-54494600D01*
X149246100Y-55180400D02*
X139395000Y-55180400D01*
X149696400Y-55630700D02*
X149246100Y-55180400D01*
X163790800Y-55630700D02*
X149696400Y-55630700D01*
X164845600Y-54575900D02*
X163790800Y-55630700D01*
X164845600Y-52510800D02*
X164845600Y-54575900D01*
X164404800Y-52070000D02*
X164845600Y-52510800D01*
X163470000Y-52070000D02*
X164404800Y-52070000D01*
X81984700Y-81870000D02*
X81984700Y-85120000D01*
X82910000Y-81870000D02*
X81984700Y-81870000D01*
X82910000Y-85120000D02*
X81984700Y-85120000D01*
X90735300Y-86129900D02*
X90735300Y-83820000D01*
X90359200Y-86506000D02*
X90735300Y-86129900D01*
X89935000Y-86506000D02*
X90359200Y-86506000D01*
X89810000Y-83820000D02*
X90735300Y-83820000D01*
X84513800Y-93314500D02*
X84580800Y-93314500D01*
X83848300Y-93980000D02*
X84513800Y-93314500D01*
X82910000Y-93980000D02*
X83848300Y-93980000D01*
X136398000Y-46736000D02*
X135712000Y-46050200D01*
X136398000Y-59588400D02*
X136398000Y-46736000D01*
X135255000Y-60731400D02*
X136398000Y-59588400D01*
X129404000Y-71241900D02*
X129404200Y-71241900D01*
X132842000Y-60731400D02*
X134010000Y-59563000D01*
X132842000Y-68224400D02*
X132842000Y-60731400D01*
X132410000Y-68656200D02*
X132842000Y-68224400D01*
X132004000Y-68656200D02*
X132410000Y-68656200D01*
X129418000Y-71241900D02*
X132004000Y-68656200D01*
X129404200Y-71241900D02*
X129418000Y-71241900D01*
X137033000Y-60223400D02*
X137033000Y-46659800D01*
X135839000Y-61417200D02*
X137033000Y-60223400D01*
X123368000Y-61112400D02*
X132309000Y-61112400D01*
X121666000Y-62814200D02*
X123368000Y-61112400D01*
X121666000Y-66192400D02*
X121666000Y-62814200D01*
X125655000Y-70181200D02*
X121666000Y-66192400D01*
X125656000Y-70181200D02*
X125655000Y-70181200D01*
X125656000Y-70181200D02*
X125656500Y-70181200D01*
X76200000Y-68580000D02*
X76200000Y-69768900D01*
X75679900Y-69768900D02*
X76200000Y-69768900D01*
X74855700Y-70593100D02*
X75679900Y-69768900D01*
X74855700Y-71622500D02*
X74855700Y-70593100D01*
X78858800Y-75625600D02*
X74855700Y-71622500D01*
X94321400Y-75625600D02*
X78858800Y-75625600D01*
X94740700Y-75206300D02*
X94321400Y-75625600D01*
X106454100Y-75206300D02*
X94740700Y-75206300D01*
X108315300Y-73345100D02*
X106454100Y-75206300D01*
X115338300Y-73345100D02*
X108315300Y-73345100D01*
X115898300Y-73905100D02*
X115338300Y-73345100D01*
X116657800Y-73905100D02*
X115898300Y-73905100D01*
X118532100Y-75779400D02*
X116657800Y-73905100D01*
X118532100Y-75784700D02*
X118532100Y-75779400D01*
X119292500Y-76545200D02*
X118532100Y-75784700D01*
X112530000Y-91222200D02*
X112530000Y-91005000D01*
X112530200Y-91005200D02*
X112530200Y-91222200D01*
X112530000Y-91005000D02*
X112530200Y-91005200D01*
X106563000Y-86391100D02*
X106086000Y-85914200D01*
X106562700Y-86391100D02*
X106085800Y-85914200D01*
X106563000Y-86391100D02*
X106562700Y-86391100D01*
X111276000Y-85585800D02*
X111414200Y-85585800D01*
X111414000Y-85585800D02*
X111276000Y-85585800D01*
X112497000Y-86668200D02*
X111414000Y-85585800D01*
X112497000Y-87579200D02*
X112497000Y-86668200D01*
X111379000Y-88696800D02*
X112497000Y-87579200D01*
X111379000Y-89636600D02*
X111379000Y-88696800D01*
X112530000Y-90787800D02*
X111379000Y-89636600D01*
X112530000Y-91005000D02*
X112530000Y-90787800D01*
X107040000Y-86868000D02*
X106563000Y-86391100D01*
X107721000Y-86868000D02*
X107040000Y-86868000D01*
X109601000Y-84988400D02*
X107721000Y-86868000D01*
X110541000Y-84988400D02*
X109601000Y-84988400D01*
X111138000Y-85585800D02*
X110541000Y-84988400D01*
X111276000Y-85585800D02*
X111138000Y-85585800D01*
X116278000Y-94969800D02*
X116277800Y-94969800D01*
X120367000Y-94538800D02*
X120890500Y-95062300D01*
X119990000Y-94538800D02*
X120367000Y-94538800D01*
X118339000Y-96189800D02*
X119990000Y-94538800D01*
X117932000Y-96189800D02*
X118339000Y-96189800D01*
X116712000Y-94969800D02*
X117932000Y-96189800D01*
X116278000Y-94969800D02*
X116712000Y-94969800D01*
X120396000Y-100224000D02*
X121086000Y-100914000D01*
X120396000Y-99064400D02*
X120396000Y-100224000D01*
X121414000Y-98046200D02*
X120396000Y-99064400D01*
X121414000Y-95585800D02*
X121414000Y-98046200D01*
X120890500Y-95062300D02*
X121414000Y-95585800D01*
X120890700Y-95062300D02*
X121414200Y-95585800D01*
X120890500Y-95062300D02*
X120890700Y-95062300D01*
X121085800Y-100914200D02*
X121086000Y-100914000D01*
X94280000Y-98824700D02*
X95000000Y-98824700D01*
X90735300Y-95280000D02*
X94280000Y-98824700D01*
X89810000Y-95280000D02*
X90735300Y-95280000D01*
X95000000Y-100000000D02*
X95000000Y-98824700D01*
X94805300Y-94630000D02*
X95000000Y-94824700D01*
X89810000Y-94630000D02*
X94805300Y-94630000D01*
X95000000Y-96000000D02*
X95000000Y-94824700D01*
X108914000Y-83085800D02*
X108914200Y-83085800D01*
X117911000Y-88392000D02*
X119485500Y-86817300D01*
X116637000Y-88392000D02*
X117911000Y-88392000D01*
X110363000Y-82118200D02*
X116637000Y-88392000D01*
X110007000Y-82118200D02*
X110363000Y-82118200D01*
X109040000Y-83085800D02*
X110007000Y-82118200D01*
X108914200Y-83085800D02*
X109040000Y-83085800D01*
X119485500Y-86817300D02*
X121060000Y-85242600D01*
X119485600Y-86817300D02*
X121060300Y-85242600D01*
X119485500Y-86817300D02*
X119485600Y-86817300D01*
X123914200Y-98085800D02*
X123914000Y-98085800D01*
X118237000Y-88773000D02*
X121413900Y-85596100D01*
X118237000Y-90017600D02*
X118237000Y-88773000D01*
X124841000Y-96621600D02*
X118237000Y-90017600D01*
X124841000Y-96850200D02*
X124841000Y-96621600D01*
X123914000Y-97777000D02*
X124841000Y-96850200D01*
X123914000Y-98085800D02*
X123914000Y-97777000D01*
X121413900Y-85596100D02*
X121414000Y-85596100D01*
X157495300Y-52070000D02*
X157495300Y-51420000D01*
X156570000Y-52070000D02*
X157495300Y-52070000D01*
X156570000Y-51420000D02*
X157495300Y-51420000D01*
X89810000Y-85120000D02*
X88779900Y-85120000D01*
X141069200Y-52918500D02*
X140472400Y-52918500D01*
X141520700Y-53370000D02*
X141069200Y-52918500D01*
X156570000Y-53370000D02*
X141520700Y-53370000D01*
X82910000Y-84470000D02*
X83835300Y-84470000D01*
X163470000Y-54020000D02*
X162544700Y-54020000D01*
X83867300Y-84502000D02*
X84733900Y-84502000D01*
X83835300Y-84470000D02*
X83867300Y-84502000D01*
X138851800Y-53894200D02*
X138590300Y-53894200D01*
X139630900Y-54673300D02*
X138851800Y-53894200D01*
X161891400Y-54673300D02*
X139630900Y-54673300D01*
X162544700Y-54020000D02*
X161891400Y-54673300D01*
X89810000Y-83170000D02*
X88884700Y-83170000D01*
X82910000Y-93330000D02*
X83835300Y-93330000D01*
X88169700Y-83885000D02*
X88884700Y-83170000D01*
X88169700Y-88982500D02*
X88169700Y-83885000D01*
X83835300Y-93316900D02*
X88169700Y-88982500D01*
X83835300Y-93330000D02*
X83835300Y-93316900D01*
M02*
