G04 #@! TF.FileFunction,Soldermask,Top*
%FSLAX46Y46*%
G04 Gerber Fmt 4.6, Leading zero omitted, Abs format (unit mm)*
G04 Created by KiCad (PCBNEW 4.0.2+dfsg1-stable) date Mon 11 Feb 2019 22:19:24 CET*
%MOMM*%
G01*
G04 APERTURE LIST*
%ADD10C,0.100000*%
%ADD11C,1.524000*%
%ADD12R,1.524000X1.524000*%
%ADD13R,1.600200X2.999740*%
%ADD14R,2.999740X1.600200*%
%ADD15R,2.000000X1.600000*%
%ADD16R,1.600000X2.000000*%
%ADD17R,1.597660X1.800860*%
%ADD18R,2.032000X2.032000*%
%ADD19O,2.032000X2.032000*%
%ADD20R,2.032000X1.727200*%
%ADD21O,2.032000X1.727200*%
%ADD22R,1.727200X2.032000*%
%ADD23O,1.727200X2.032000*%
%ADD24R,2.598420X1.198880*%
%ADD25R,2.600960X1.198880*%
%ADD26R,2.000000X1.700000*%
%ADD27R,1.700000X2.000000*%
%ADD28R,2.032000X3.657600*%
%ADD29R,2.032000X1.016000*%
%ADD30R,0.400000X1.000000*%
%ADD31R,1.200000X0.400000*%
%ADD32R,1.100000X0.400000*%
%ADD33R,0.400000X1.100000*%
%ADD34R,0.450000X1.400000*%
%ADD35R,1.500000X1.500000*%
%ADD36C,4.000000*%
%ADD37R,0.700000X1.750000*%
%ADD38R,1.300000X1.500000*%
%ADD39R,0.800000X1.500000*%
%ADD40R,1.450000X1.000000*%
%ADD41R,0.800000X1.400000*%
%ADD42R,1.000000X1.550000*%
%ADD43R,2.180000X1.600000*%
%ADD44R,2.235200X2.235200*%
%ADD45R,1.930400X5.588000*%
%ADD46C,0.400000*%
G04 APERTURE END LIST*
D10*
G36*
X131979881Y-73092828D02*
X131781891Y-72894838D01*
X132842551Y-71834178D01*
X133040541Y-72032168D01*
X131979881Y-73092828D01*
X131979881Y-73092828D01*
G37*
G36*
X132333434Y-73446381D02*
X132135444Y-73248391D01*
X133196104Y-72187731D01*
X133394094Y-72385721D01*
X132333434Y-73446381D01*
X132333434Y-73446381D01*
G37*
G36*
X132686988Y-73799935D02*
X132488998Y-73601945D01*
X133549658Y-72541285D01*
X133747648Y-72739275D01*
X132686988Y-73799935D01*
X132686988Y-73799935D01*
G37*
G36*
X133040541Y-74153488D02*
X132842551Y-73955498D01*
X133903211Y-72894838D01*
X134101201Y-73092828D01*
X133040541Y-74153488D01*
X133040541Y-74153488D01*
G37*
G36*
X133394094Y-74507041D02*
X133196104Y-74309051D01*
X134256764Y-73248391D01*
X134454754Y-73446381D01*
X133394094Y-74507041D01*
X133394094Y-74507041D01*
G37*
G36*
X133747648Y-74860595D02*
X133549658Y-74662605D01*
X134610318Y-73601945D01*
X134808308Y-73799935D01*
X133747648Y-74860595D01*
X133747648Y-74860595D01*
G37*
G36*
X134101201Y-75214148D02*
X133903211Y-75016158D01*
X134963871Y-73955498D01*
X135161861Y-74153488D01*
X134101201Y-75214148D01*
X134101201Y-75214148D01*
G37*
G36*
X134454754Y-75567702D02*
X134256764Y-75369712D01*
X135317424Y-74309052D01*
X135515414Y-74507042D01*
X134454754Y-75567702D01*
X134454754Y-75567702D01*
G37*
G36*
X134808308Y-75921255D02*
X134610318Y-75723265D01*
X135670978Y-74662605D01*
X135868968Y-74860595D01*
X134808308Y-75921255D01*
X134808308Y-75921255D01*
G37*
G36*
X135161861Y-76274808D02*
X134963871Y-76076818D01*
X136024531Y-75016158D01*
X136222521Y-75214148D01*
X135161861Y-76274808D01*
X135161861Y-76274808D01*
G37*
G36*
X135515415Y-76628362D02*
X135317425Y-76430372D01*
X136378085Y-75369712D01*
X136576075Y-75567702D01*
X135515415Y-76628362D01*
X135515415Y-76628362D01*
G37*
G36*
X135868968Y-76981915D02*
X135670978Y-76783925D01*
X136731638Y-75723265D01*
X136929628Y-75921255D01*
X135868968Y-76981915D01*
X135868968Y-76981915D01*
G37*
G36*
X136222521Y-77335469D02*
X136024531Y-77137479D01*
X137085191Y-76076819D01*
X137283181Y-76274809D01*
X136222521Y-77335469D01*
X136222521Y-77335469D01*
G37*
G36*
X136576075Y-77689022D02*
X136378085Y-77491032D01*
X137438745Y-76430372D01*
X137636735Y-76628362D01*
X136576075Y-77689022D01*
X136576075Y-77689022D01*
G37*
G36*
X136929628Y-78042575D02*
X136731638Y-77844585D01*
X137792298Y-76783925D01*
X137990288Y-76981915D01*
X136929628Y-78042575D01*
X136929628Y-78042575D01*
G37*
G36*
X137283182Y-78396129D02*
X137085192Y-78198139D01*
X138145852Y-77137479D01*
X138343842Y-77335469D01*
X137283182Y-78396129D01*
X137283182Y-78396129D01*
G37*
G36*
X137636735Y-78749682D02*
X137438745Y-78551692D01*
X138499405Y-77491032D01*
X138697395Y-77689022D01*
X137636735Y-78749682D01*
X137636735Y-78749682D01*
G37*
G36*
X137990288Y-79103236D02*
X137792298Y-78905246D01*
X138852958Y-77844586D01*
X139050948Y-78042576D01*
X137990288Y-79103236D01*
X137990288Y-79103236D01*
G37*
G36*
X138343842Y-79456789D02*
X138145852Y-79258799D01*
X139206512Y-78198139D01*
X139404502Y-78396129D01*
X138343842Y-79456789D01*
X138343842Y-79456789D01*
G37*
G36*
X138697395Y-79810342D02*
X138499405Y-79612352D01*
X139560065Y-78551692D01*
X139758055Y-78749682D01*
X138697395Y-79810342D01*
X138697395Y-79810342D01*
G37*
G36*
X139050949Y-80163896D02*
X138852959Y-79965906D01*
X139913619Y-78905246D01*
X140111609Y-79103236D01*
X139050949Y-80163896D01*
X139050949Y-80163896D01*
G37*
G36*
X139404502Y-80517449D02*
X139206512Y-80319459D01*
X140267172Y-79258799D01*
X140465162Y-79456789D01*
X139404502Y-80517449D01*
X139404502Y-80517449D01*
G37*
G36*
X139758055Y-80871002D02*
X139560065Y-80673012D01*
X140620725Y-79612352D01*
X140818715Y-79810342D01*
X139758055Y-80871002D01*
X139758055Y-80871002D01*
G37*
G36*
X140111609Y-81224556D02*
X139913619Y-81026566D01*
X140974279Y-79965906D01*
X141172269Y-80163896D01*
X140111609Y-81224556D01*
X140111609Y-81224556D01*
G37*
G36*
X140465162Y-81578109D02*
X140267172Y-81380119D01*
X141327832Y-80319459D01*
X141525822Y-80517449D01*
X140465162Y-81578109D01*
X140465162Y-81578109D01*
G37*
G36*
X144212828Y-81380119D02*
X144014838Y-81578109D01*
X142954178Y-80517449D01*
X143152168Y-80319459D01*
X144212828Y-81380119D01*
X144212828Y-81380119D01*
G37*
G36*
X144566381Y-81026566D02*
X144368391Y-81224556D01*
X143307731Y-80163896D01*
X143505721Y-79965906D01*
X144566381Y-81026566D01*
X144566381Y-81026566D01*
G37*
G36*
X144919935Y-80673012D02*
X144721945Y-80871002D01*
X143661285Y-79810342D01*
X143859275Y-79612352D01*
X144919935Y-80673012D01*
X144919935Y-80673012D01*
G37*
G36*
X145273488Y-80319459D02*
X145075498Y-80517449D01*
X144014838Y-79456789D01*
X144212828Y-79258799D01*
X145273488Y-80319459D01*
X145273488Y-80319459D01*
G37*
G36*
X145627041Y-79965906D02*
X145429051Y-80163896D01*
X144368391Y-79103236D01*
X144566381Y-78905246D01*
X145627041Y-79965906D01*
X145627041Y-79965906D01*
G37*
G36*
X145980595Y-79612352D02*
X145782605Y-79810342D01*
X144721945Y-78749682D01*
X144919935Y-78551692D01*
X145980595Y-79612352D01*
X145980595Y-79612352D01*
G37*
G36*
X146334148Y-79258799D02*
X146136158Y-79456789D01*
X145075498Y-78396129D01*
X145273488Y-78198139D01*
X146334148Y-79258799D01*
X146334148Y-79258799D01*
G37*
G36*
X146687702Y-78905246D02*
X146489712Y-79103236D01*
X145429052Y-78042576D01*
X145627042Y-77844586D01*
X146687702Y-78905246D01*
X146687702Y-78905246D01*
G37*
G36*
X147041255Y-78551692D02*
X146843265Y-78749682D01*
X145782605Y-77689022D01*
X145980595Y-77491032D01*
X147041255Y-78551692D01*
X147041255Y-78551692D01*
G37*
G36*
X147394808Y-78198139D02*
X147196818Y-78396129D01*
X146136158Y-77335469D01*
X146334148Y-77137479D01*
X147394808Y-78198139D01*
X147394808Y-78198139D01*
G37*
G36*
X147748362Y-77844585D02*
X147550372Y-78042575D01*
X146489712Y-76981915D01*
X146687702Y-76783925D01*
X147748362Y-77844585D01*
X147748362Y-77844585D01*
G37*
G36*
X148101915Y-77491032D02*
X147903925Y-77689022D01*
X146843265Y-76628362D01*
X147041255Y-76430372D01*
X148101915Y-77491032D01*
X148101915Y-77491032D01*
G37*
G36*
X148455469Y-77137479D02*
X148257479Y-77335469D01*
X147196819Y-76274809D01*
X147394809Y-76076819D01*
X148455469Y-77137479D01*
X148455469Y-77137479D01*
G37*
G36*
X148809022Y-76783925D02*
X148611032Y-76981915D01*
X147550372Y-75921255D01*
X147748362Y-75723265D01*
X148809022Y-76783925D01*
X148809022Y-76783925D01*
G37*
G36*
X149162575Y-76430372D02*
X148964585Y-76628362D01*
X147903925Y-75567702D01*
X148101915Y-75369712D01*
X149162575Y-76430372D01*
X149162575Y-76430372D01*
G37*
G36*
X149516129Y-76076818D02*
X149318139Y-76274808D01*
X148257479Y-75214148D01*
X148455469Y-75016158D01*
X149516129Y-76076818D01*
X149516129Y-76076818D01*
G37*
G36*
X149869682Y-75723265D02*
X149671692Y-75921255D01*
X148611032Y-74860595D01*
X148809022Y-74662605D01*
X149869682Y-75723265D01*
X149869682Y-75723265D01*
G37*
G36*
X150223236Y-75369712D02*
X150025246Y-75567702D01*
X148964586Y-74507042D01*
X149162576Y-74309052D01*
X150223236Y-75369712D01*
X150223236Y-75369712D01*
G37*
G36*
X150576789Y-75016158D02*
X150378799Y-75214148D01*
X149318139Y-74153488D01*
X149516129Y-73955498D01*
X150576789Y-75016158D01*
X150576789Y-75016158D01*
G37*
G36*
X150930342Y-74662605D02*
X150732352Y-74860595D01*
X149671692Y-73799935D01*
X149869682Y-73601945D01*
X150930342Y-74662605D01*
X150930342Y-74662605D01*
G37*
G36*
X151283896Y-74309051D02*
X151085906Y-74507041D01*
X150025246Y-73446381D01*
X150223236Y-73248391D01*
X151283896Y-74309051D01*
X151283896Y-74309051D01*
G37*
G36*
X151637449Y-73955498D02*
X151439459Y-74153488D01*
X150378799Y-73092828D01*
X150576789Y-72894838D01*
X151637449Y-73955498D01*
X151637449Y-73955498D01*
G37*
G36*
X151991002Y-73601945D02*
X151793012Y-73799935D01*
X150732352Y-72739275D01*
X150930342Y-72541285D01*
X151991002Y-73601945D01*
X151991002Y-73601945D01*
G37*
G36*
X152344556Y-73248391D02*
X152146566Y-73446381D01*
X151085906Y-72385721D01*
X151283896Y-72187731D01*
X152344556Y-73248391D01*
X152344556Y-73248391D01*
G37*
G36*
X152698109Y-72894838D02*
X152500119Y-73092828D01*
X151439459Y-72032168D01*
X151637449Y-71834178D01*
X152698109Y-72894838D01*
X152698109Y-72894838D01*
G37*
G36*
X151637449Y-70405822D02*
X151439459Y-70207832D01*
X152500119Y-69147172D01*
X152698109Y-69345162D01*
X151637449Y-70405822D01*
X151637449Y-70405822D01*
G37*
G36*
X151283896Y-70052269D02*
X151085906Y-69854279D01*
X152146566Y-68793619D01*
X152344556Y-68991609D01*
X151283896Y-70052269D01*
X151283896Y-70052269D01*
G37*
G36*
X150930342Y-69698715D02*
X150732352Y-69500725D01*
X151793012Y-68440065D01*
X151991002Y-68638055D01*
X150930342Y-69698715D01*
X150930342Y-69698715D01*
G37*
G36*
X150576789Y-69345162D02*
X150378799Y-69147172D01*
X151439459Y-68086512D01*
X151637449Y-68284502D01*
X150576789Y-69345162D01*
X150576789Y-69345162D01*
G37*
G36*
X150223236Y-68991609D02*
X150025246Y-68793619D01*
X151085906Y-67732959D01*
X151283896Y-67930949D01*
X150223236Y-68991609D01*
X150223236Y-68991609D01*
G37*
G36*
X149869682Y-68638055D02*
X149671692Y-68440065D01*
X150732352Y-67379405D01*
X150930342Y-67577395D01*
X149869682Y-68638055D01*
X149869682Y-68638055D01*
G37*
G36*
X149516129Y-68284502D02*
X149318139Y-68086512D01*
X150378799Y-67025852D01*
X150576789Y-67223842D01*
X149516129Y-68284502D01*
X149516129Y-68284502D01*
G37*
G36*
X149162576Y-67930948D02*
X148964586Y-67732958D01*
X150025246Y-66672298D01*
X150223236Y-66870288D01*
X149162576Y-67930948D01*
X149162576Y-67930948D01*
G37*
G36*
X148809022Y-67577395D02*
X148611032Y-67379405D01*
X149671692Y-66318745D01*
X149869682Y-66516735D01*
X148809022Y-67577395D01*
X148809022Y-67577395D01*
G37*
G36*
X148455469Y-67223842D02*
X148257479Y-67025852D01*
X149318139Y-65965192D01*
X149516129Y-66163182D01*
X148455469Y-67223842D01*
X148455469Y-67223842D01*
G37*
G36*
X148101915Y-66870288D02*
X147903925Y-66672298D01*
X148964585Y-65611638D01*
X149162575Y-65809628D01*
X148101915Y-66870288D01*
X148101915Y-66870288D01*
G37*
G36*
X147748362Y-66516735D02*
X147550372Y-66318745D01*
X148611032Y-65258085D01*
X148809022Y-65456075D01*
X147748362Y-66516735D01*
X147748362Y-66516735D01*
G37*
G36*
X147394809Y-66163181D02*
X147196819Y-65965191D01*
X148257479Y-64904531D01*
X148455469Y-65102521D01*
X147394809Y-66163181D01*
X147394809Y-66163181D01*
G37*
G36*
X147041255Y-65809628D02*
X146843265Y-65611638D01*
X147903925Y-64550978D01*
X148101915Y-64748968D01*
X147041255Y-65809628D01*
X147041255Y-65809628D01*
G37*
G36*
X146687702Y-65456075D02*
X146489712Y-65258085D01*
X147550372Y-64197425D01*
X147748362Y-64395415D01*
X146687702Y-65456075D01*
X146687702Y-65456075D01*
G37*
G36*
X146334148Y-65102521D02*
X146136158Y-64904531D01*
X147196818Y-63843871D01*
X147394808Y-64041861D01*
X146334148Y-65102521D01*
X146334148Y-65102521D01*
G37*
G36*
X145980595Y-64748968D02*
X145782605Y-64550978D01*
X146843265Y-63490318D01*
X147041255Y-63688308D01*
X145980595Y-64748968D01*
X145980595Y-64748968D01*
G37*
G36*
X145627042Y-64395414D02*
X145429052Y-64197424D01*
X146489712Y-63136764D01*
X146687702Y-63334754D01*
X145627042Y-64395414D01*
X145627042Y-64395414D01*
G37*
G36*
X145273488Y-64041861D02*
X145075498Y-63843871D01*
X146136158Y-62783211D01*
X146334148Y-62981201D01*
X145273488Y-64041861D01*
X145273488Y-64041861D01*
G37*
G36*
X144919935Y-63688308D02*
X144721945Y-63490318D01*
X145782605Y-62429658D01*
X145980595Y-62627648D01*
X144919935Y-63688308D01*
X144919935Y-63688308D01*
G37*
G36*
X144566381Y-63334754D02*
X144368391Y-63136764D01*
X145429051Y-62076104D01*
X145627041Y-62274094D01*
X144566381Y-63334754D01*
X144566381Y-63334754D01*
G37*
G36*
X144212828Y-62981201D02*
X144014838Y-62783211D01*
X145075498Y-61722551D01*
X145273488Y-61920541D01*
X144212828Y-62981201D01*
X144212828Y-62981201D01*
G37*
G36*
X143859275Y-62627648D02*
X143661285Y-62429658D01*
X144721945Y-61368998D01*
X144919935Y-61566988D01*
X143859275Y-62627648D01*
X143859275Y-62627648D01*
G37*
G36*
X143505721Y-62274094D02*
X143307731Y-62076104D01*
X144368391Y-61015444D01*
X144566381Y-61213434D01*
X143505721Y-62274094D01*
X143505721Y-62274094D01*
G37*
G36*
X143152168Y-61920541D02*
X142954178Y-61722551D01*
X144014838Y-60661891D01*
X144212828Y-60859881D01*
X143152168Y-61920541D01*
X143152168Y-61920541D01*
G37*
G36*
X141525822Y-61722551D02*
X141327832Y-61920541D01*
X140267172Y-60859881D01*
X140465162Y-60661891D01*
X141525822Y-61722551D01*
X141525822Y-61722551D01*
G37*
G36*
X141172269Y-62076104D02*
X140974279Y-62274094D01*
X139913619Y-61213434D01*
X140111609Y-61015444D01*
X141172269Y-62076104D01*
X141172269Y-62076104D01*
G37*
G36*
X140818715Y-62429658D02*
X140620725Y-62627648D01*
X139560065Y-61566988D01*
X139758055Y-61368998D01*
X140818715Y-62429658D01*
X140818715Y-62429658D01*
G37*
G36*
X140465162Y-62783211D02*
X140267172Y-62981201D01*
X139206512Y-61920541D01*
X139404502Y-61722551D01*
X140465162Y-62783211D01*
X140465162Y-62783211D01*
G37*
G36*
X140111609Y-63136764D02*
X139913619Y-63334754D01*
X138852959Y-62274094D01*
X139050949Y-62076104D01*
X140111609Y-63136764D01*
X140111609Y-63136764D01*
G37*
G36*
X139758055Y-63490318D02*
X139560065Y-63688308D01*
X138499405Y-62627648D01*
X138697395Y-62429658D01*
X139758055Y-63490318D01*
X139758055Y-63490318D01*
G37*
G36*
X139404502Y-63843871D02*
X139206512Y-64041861D01*
X138145852Y-62981201D01*
X138343842Y-62783211D01*
X139404502Y-63843871D01*
X139404502Y-63843871D01*
G37*
G36*
X139050948Y-64197424D02*
X138852958Y-64395414D01*
X137792298Y-63334754D01*
X137990288Y-63136764D01*
X139050948Y-64197424D01*
X139050948Y-64197424D01*
G37*
G36*
X138697395Y-64550978D02*
X138499405Y-64748968D01*
X137438745Y-63688308D01*
X137636735Y-63490318D01*
X138697395Y-64550978D01*
X138697395Y-64550978D01*
G37*
G36*
X138343842Y-64904531D02*
X138145852Y-65102521D01*
X137085192Y-64041861D01*
X137283182Y-63843871D01*
X138343842Y-64904531D01*
X138343842Y-64904531D01*
G37*
G36*
X137990288Y-65258085D02*
X137792298Y-65456075D01*
X136731638Y-64395415D01*
X136929628Y-64197425D01*
X137990288Y-65258085D01*
X137990288Y-65258085D01*
G37*
G36*
X137636735Y-65611638D02*
X137438745Y-65809628D01*
X136378085Y-64748968D01*
X136576075Y-64550978D01*
X137636735Y-65611638D01*
X137636735Y-65611638D01*
G37*
G36*
X137283181Y-65965191D02*
X137085191Y-66163181D01*
X136024531Y-65102521D01*
X136222521Y-64904531D01*
X137283181Y-65965191D01*
X137283181Y-65965191D01*
G37*
G36*
X136929628Y-66318745D02*
X136731638Y-66516735D01*
X135670978Y-65456075D01*
X135868968Y-65258085D01*
X136929628Y-66318745D01*
X136929628Y-66318745D01*
G37*
G36*
X136576075Y-66672298D02*
X136378085Y-66870288D01*
X135317425Y-65809628D01*
X135515415Y-65611638D01*
X136576075Y-66672298D01*
X136576075Y-66672298D01*
G37*
G36*
X136222521Y-67025852D02*
X136024531Y-67223842D01*
X134963871Y-66163182D01*
X135161861Y-65965192D01*
X136222521Y-67025852D01*
X136222521Y-67025852D01*
G37*
G36*
X135868968Y-67379405D02*
X135670978Y-67577395D01*
X134610318Y-66516735D01*
X134808308Y-66318745D01*
X135868968Y-67379405D01*
X135868968Y-67379405D01*
G37*
G36*
X135515414Y-67732958D02*
X135317424Y-67930948D01*
X134256764Y-66870288D01*
X134454754Y-66672298D01*
X135515414Y-67732958D01*
X135515414Y-67732958D01*
G37*
G36*
X135161861Y-68086512D02*
X134963871Y-68284502D01*
X133903211Y-67223842D01*
X134101201Y-67025852D01*
X135161861Y-68086512D01*
X135161861Y-68086512D01*
G37*
G36*
X134808308Y-68440065D02*
X134610318Y-68638055D01*
X133549658Y-67577395D01*
X133747648Y-67379405D01*
X134808308Y-68440065D01*
X134808308Y-68440065D01*
G37*
G36*
X134454754Y-68793619D02*
X134256764Y-68991609D01*
X133196104Y-67930949D01*
X133394094Y-67732959D01*
X134454754Y-68793619D01*
X134454754Y-68793619D01*
G37*
G36*
X134101201Y-69147172D02*
X133903211Y-69345162D01*
X132842551Y-68284502D01*
X133040541Y-68086512D01*
X134101201Y-69147172D01*
X134101201Y-69147172D01*
G37*
G36*
X133747648Y-69500725D02*
X133549658Y-69698715D01*
X132488998Y-68638055D01*
X132686988Y-68440065D01*
X133747648Y-69500725D01*
X133747648Y-69500725D01*
G37*
G36*
X133394094Y-69854279D02*
X133196104Y-70052269D01*
X132135444Y-68991609D01*
X132333434Y-68793619D01*
X133394094Y-69854279D01*
X133394094Y-69854279D01*
G37*
G36*
X133040541Y-70207832D02*
X132842551Y-70405822D01*
X131781891Y-69345162D01*
X131979881Y-69147172D01*
X133040541Y-70207832D01*
X133040541Y-70207832D01*
G37*
D11*
X109220000Y-110604300D03*
X109220000Y-115455700D03*
X111760000Y-110604300D03*
X111760000Y-115455700D03*
X114300000Y-110604300D03*
X114300000Y-115455700D03*
X116840000Y-110604300D03*
X116840000Y-115455700D03*
X119380000Y-110604300D03*
X119380000Y-115455700D03*
X121920000Y-110604300D03*
X121920000Y-115455700D03*
D12*
X124460000Y-110604300D03*
D11*
X124460000Y-115455700D03*
D13*
X123190000Y-91780360D03*
X123190000Y-96179640D03*
D14*
X105831640Y-93980000D03*
X101432360Y-93980000D03*
X107101640Y-101346000D03*
X102702360Y-101346000D03*
D15*
X143986000Y-49022000D03*
X139986000Y-49022000D03*
X133636000Y-54610000D03*
X137636000Y-54610000D03*
D16*
X139700000Y-86900000D03*
X139700000Y-90900000D03*
D15*
X126460000Y-73660000D03*
X122460000Y-73660000D03*
X132366000Y-49022000D03*
X136366000Y-49022000D03*
X122460000Y-69850000D03*
X126460000Y-69850000D03*
D16*
X133858000Y-101314000D03*
X133858000Y-97314000D03*
D15*
X119158000Y-104394000D03*
X123158000Y-104394000D03*
X134080000Y-59690000D03*
X130080000Y-59690000D03*
D16*
X113030000Y-66770000D03*
X113030000Y-62770000D03*
X118110000Y-66770000D03*
X118110000Y-62770000D03*
X144272000Y-44672000D03*
X144272000Y-40672000D03*
D17*
X112118140Y-87884000D03*
X114957860Y-87884000D03*
X112118140Y-104394000D03*
X114957860Y-104394000D03*
X189379860Y-36830000D03*
X186540140Y-36830000D03*
X148739860Y-91440000D03*
X145900140Y-91440000D03*
X125879860Y-35560000D03*
X123040140Y-35560000D03*
D18*
X102870000Y-63500000D03*
D19*
X102870000Y-66040000D03*
D20*
X107950000Y-55880000D03*
D21*
X107950000Y-53340000D03*
X107950000Y-50800000D03*
X107950000Y-48260000D03*
D22*
X120650000Y-30480000D03*
D23*
X123190000Y-30480000D03*
X125730000Y-30480000D03*
D18*
X148590000Y-30480000D03*
D19*
X148590000Y-33020000D03*
D18*
X133350000Y-30480000D03*
D19*
X133350000Y-33020000D03*
D18*
X152400000Y-30480000D03*
D19*
X152400000Y-33020000D03*
D18*
X137160000Y-30480000D03*
D19*
X137160000Y-33020000D03*
D18*
X156210000Y-30480000D03*
D19*
X156210000Y-33020000D03*
D18*
X140970000Y-30480000D03*
D19*
X140970000Y-33020000D03*
D18*
X160020000Y-30480000D03*
D19*
X160020000Y-33020000D03*
D18*
X144780000Y-30480000D03*
D19*
X144780000Y-33020000D03*
D22*
X137160000Y-40640000D03*
D23*
X134620000Y-40640000D03*
X132080000Y-40640000D03*
D24*
X122951240Y-88138000D03*
D25*
X118348760Y-88138000D03*
D24*
X123967240Y-100330000D03*
D25*
X119364760Y-100330000D03*
D26*
X104172000Y-87884000D03*
X108172000Y-87884000D03*
X115030000Y-100330000D03*
X111030000Y-100330000D03*
X122460000Y-64770000D03*
X126460000Y-64770000D03*
X165640000Y-121920000D03*
X169640000Y-121920000D03*
X155480000Y-121920000D03*
X159480000Y-121920000D03*
D27*
X135890000Y-88170000D03*
X135890000Y-92170000D03*
D26*
X126460000Y-78740000D03*
X122460000Y-78740000D03*
D27*
X159766000Y-75152000D03*
X159766000Y-71152000D03*
D26*
X155416000Y-63754000D03*
X151416000Y-63754000D03*
X150908000Y-59436000D03*
X154908000Y-59436000D03*
D27*
X159766000Y-66770000D03*
X159766000Y-62770000D03*
D26*
X143034000Y-54864000D03*
X147034000Y-54864000D03*
X189960000Y-41910000D03*
X185960000Y-41910000D03*
X150590000Y-86360000D03*
X146590000Y-86360000D03*
X126460000Y-40640000D03*
X122460000Y-40640000D03*
D22*
X107950000Y-36830000D03*
D23*
X110490000Y-36830000D03*
X113030000Y-36830000D03*
X115570000Y-36830000D03*
D28*
X109728000Y-93980000D03*
D29*
X116332000Y-93980000D03*
X116332000Y-91694000D03*
X116332000Y-96266000D03*
D30*
X185805000Y-96160000D03*
X185155000Y-96160000D03*
X184505000Y-96160000D03*
X183855000Y-96160000D03*
X183205000Y-96160000D03*
X182555000Y-96160000D03*
X181905000Y-96160000D03*
X181255000Y-96160000D03*
X180605000Y-96160000D03*
X179955000Y-96160000D03*
X179955000Y-101960000D03*
X180605000Y-101960000D03*
X181255000Y-101960000D03*
X181905000Y-101960000D03*
X182555000Y-101960000D03*
X183205000Y-101960000D03*
X183855000Y-101960000D03*
X184505000Y-101960000D03*
X185155000Y-101960000D03*
X185805000Y-101960000D03*
X145165000Y-96160000D03*
X144515000Y-96160000D03*
X143865000Y-96160000D03*
X143215000Y-96160000D03*
X142565000Y-96160000D03*
X141915000Y-96160000D03*
X141265000Y-96160000D03*
X140615000Y-96160000D03*
X139965000Y-96160000D03*
X139315000Y-96160000D03*
X139315000Y-101960000D03*
X139965000Y-101960000D03*
X140615000Y-101960000D03*
X141265000Y-101960000D03*
X141915000Y-101960000D03*
X142565000Y-101960000D03*
X143215000Y-101960000D03*
X143865000Y-101960000D03*
X144515000Y-101960000D03*
X145165000Y-101960000D03*
X175645000Y-96160000D03*
X174995000Y-96160000D03*
X174345000Y-96160000D03*
X173695000Y-96160000D03*
X173045000Y-96160000D03*
X172395000Y-96160000D03*
X171745000Y-96160000D03*
X171095000Y-96160000D03*
X170445000Y-96160000D03*
X169795000Y-96160000D03*
X169795000Y-101960000D03*
X170445000Y-101960000D03*
X171095000Y-101960000D03*
X171745000Y-101960000D03*
X172395000Y-101960000D03*
X173045000Y-101960000D03*
X173695000Y-101960000D03*
X174345000Y-101960000D03*
X174995000Y-101960000D03*
X175645000Y-101960000D03*
X155325000Y-96160000D03*
X154675000Y-96160000D03*
X154025000Y-96160000D03*
X153375000Y-96160000D03*
X152725000Y-96160000D03*
X152075000Y-96160000D03*
X151425000Y-96160000D03*
X150775000Y-96160000D03*
X150125000Y-96160000D03*
X149475000Y-96160000D03*
X149475000Y-101960000D03*
X150125000Y-101960000D03*
X150775000Y-101960000D03*
X151425000Y-101960000D03*
X152075000Y-101960000D03*
X152725000Y-101960000D03*
X153375000Y-101960000D03*
X154025000Y-101960000D03*
X154675000Y-101960000D03*
X155325000Y-101960000D03*
X165485000Y-96160000D03*
X164835000Y-96160000D03*
X164185000Y-96160000D03*
X163535000Y-96160000D03*
X162885000Y-96160000D03*
X162235000Y-96160000D03*
X161585000Y-96160000D03*
X160935000Y-96160000D03*
X160285000Y-96160000D03*
X159635000Y-96160000D03*
X159635000Y-101960000D03*
X160285000Y-101960000D03*
X160935000Y-101960000D03*
X161585000Y-101960000D03*
X162235000Y-101960000D03*
X162885000Y-101960000D03*
X163535000Y-101960000D03*
X164185000Y-101960000D03*
X164835000Y-101960000D03*
X165485000Y-101960000D03*
D31*
X160930000Y-45130000D03*
X160930000Y-44480000D03*
X160930000Y-43830000D03*
X160930000Y-43180000D03*
X160930000Y-42530000D03*
X160930000Y-41880000D03*
X160930000Y-41230000D03*
X154030000Y-41230000D03*
X154030000Y-41880000D03*
X154030000Y-42530000D03*
X154030000Y-43180000D03*
X154030000Y-43830000D03*
X154030000Y-44480000D03*
X154030000Y-45130000D03*
D32*
X157090000Y-54315000D03*
X157090000Y-53665000D03*
X157090000Y-53015000D03*
X157090000Y-52365000D03*
X152790000Y-52365000D03*
X152790000Y-53015000D03*
X152790000Y-53665000D03*
X152790000Y-54315000D03*
D33*
X117815000Y-53730000D03*
X117165000Y-53730000D03*
X116515000Y-53730000D03*
X115865000Y-53730000D03*
X115865000Y-58030000D03*
X116515000Y-58030000D03*
X117165000Y-58030000D03*
X117815000Y-58030000D03*
X125435000Y-53730000D03*
X124785000Y-53730000D03*
X124135000Y-53730000D03*
X123485000Y-53730000D03*
X123485000Y-58030000D03*
X124135000Y-58030000D03*
X124785000Y-58030000D03*
X125435000Y-58030000D03*
D10*
G36*
X135476904Y-84809949D02*
X133991980Y-86294873D01*
X132082792Y-84385685D01*
X133567716Y-82900761D01*
X135476904Y-84809949D01*
X135476904Y-84809949D01*
G37*
G36*
X131729239Y-81062284D02*
X130244315Y-82547208D01*
X128335127Y-80638020D01*
X129820051Y-79153096D01*
X131729239Y-81062284D01*
X131729239Y-81062284D01*
G37*
G36*
X129537208Y-83254315D02*
X128052284Y-84739239D01*
X126143096Y-82830051D01*
X127628020Y-81345127D01*
X129537208Y-83254315D01*
X129537208Y-83254315D01*
G37*
G36*
X133284873Y-87001980D02*
X131799949Y-88486904D01*
X129890761Y-86577716D01*
X131375685Y-85092792D01*
X133284873Y-87001980D01*
X133284873Y-87001980D01*
G37*
D34*
X165735000Y-52050000D03*
X165735000Y-64790000D03*
X167005000Y-52050000D03*
X167005000Y-64790000D03*
X168275000Y-52050000D03*
X168275000Y-64790000D03*
X169545000Y-52050000D03*
X169545000Y-64790000D03*
X170815000Y-52050000D03*
X170815000Y-64790000D03*
X172085000Y-52050000D03*
X172085000Y-64790000D03*
X173355000Y-52050000D03*
X173355000Y-64790000D03*
X174625000Y-52050000D03*
X174625000Y-64790000D03*
X175895000Y-52050000D03*
X175895000Y-64790000D03*
X177165000Y-52050000D03*
X177165000Y-64790000D03*
X178435000Y-52050000D03*
X178435000Y-64790000D03*
X179705000Y-52050000D03*
X179705000Y-64790000D03*
X180975000Y-52050000D03*
X180975000Y-64790000D03*
X182245000Y-52050000D03*
X182245000Y-64790000D03*
X183515000Y-52050000D03*
X183515000Y-64790000D03*
X184785000Y-52050000D03*
X184785000Y-64790000D03*
X165735000Y-74910000D03*
X165735000Y-87650000D03*
X167005000Y-74910000D03*
X167005000Y-87650000D03*
X168275000Y-74910000D03*
X168275000Y-87650000D03*
X169545000Y-74910000D03*
X169545000Y-87650000D03*
X170815000Y-74910000D03*
X170815000Y-87650000D03*
X172085000Y-74910000D03*
X172085000Y-87650000D03*
X173355000Y-74910000D03*
X173355000Y-87650000D03*
X174625000Y-74910000D03*
X174625000Y-87650000D03*
X175895000Y-74910000D03*
X175895000Y-87650000D03*
X177165000Y-74910000D03*
X177165000Y-87650000D03*
X178435000Y-74910000D03*
X178435000Y-87650000D03*
X179705000Y-74910000D03*
X179705000Y-87650000D03*
X180975000Y-74910000D03*
X180975000Y-87650000D03*
X182245000Y-74910000D03*
X182245000Y-87650000D03*
X183515000Y-74910000D03*
X183515000Y-87650000D03*
X184785000Y-74910000D03*
X184785000Y-87650000D03*
D35*
X152400000Y-121920000D03*
X162560000Y-121920000D03*
D36*
X102870000Y-122428000D03*
X191770000Y-122428000D03*
X102870000Y-30988000D03*
D37*
X169465000Y-39640000D03*
D38*
X168265000Y-39515000D03*
D39*
X168015000Y-31915000D03*
D40*
X168340000Y-30415000D03*
D41*
X179965000Y-31265000D03*
D37*
X170565000Y-39640000D03*
X171665000Y-39640000D03*
X172765000Y-39640000D03*
X173865000Y-39640000D03*
X174965000Y-39640000D03*
X176065000Y-39640000D03*
X177165000Y-39640000D03*
D35*
X179615000Y-39515000D03*
D42*
X179565000Y-28840000D03*
D11*
X148590000Y-110604300D03*
X148590000Y-115455700D03*
X151130000Y-110604300D03*
X151130000Y-115455700D03*
X153670000Y-110604300D03*
X153670000Y-115455700D03*
X156210000Y-110604300D03*
X156210000Y-115455700D03*
X158750000Y-110604300D03*
X158750000Y-115455700D03*
X161290000Y-110604300D03*
X161290000Y-115455700D03*
X163830000Y-110604300D03*
X163830000Y-115455700D03*
X166370000Y-110604300D03*
X166370000Y-115455700D03*
X168910000Y-110604300D03*
X168910000Y-115455700D03*
X171450000Y-110604300D03*
X171450000Y-115455700D03*
X173990000Y-110604300D03*
X173990000Y-115455700D03*
X176530000Y-110604300D03*
X176530000Y-115455700D03*
X179070000Y-110604300D03*
X179070000Y-115455700D03*
X181610000Y-110604300D03*
X181610000Y-115455700D03*
D12*
X184150000Y-110604300D03*
D11*
X184150000Y-115455700D03*
D43*
X112250000Y-45720000D03*
X121430000Y-45720000D03*
D36*
X190500000Y-30988000D03*
D44*
X102362000Y-44196000D03*
D45*
X184912000Y-143510000D03*
X182372000Y-143510000D03*
X179832000Y-143510000D03*
X177292000Y-143510000D03*
X174752000Y-143510000D03*
X172212000Y-143510000D03*
X169672000Y-143510000D03*
X167132000Y-143510000D03*
X164592000Y-143510000D03*
X162052000Y-143510000D03*
X159512000Y-143510000D03*
X156972000Y-143510000D03*
X154432000Y-143510000D03*
X151892000Y-143510000D03*
X149352000Y-143510000D03*
X125222000Y-143510000D03*
X122682000Y-143510000D03*
X120142000Y-143510000D03*
X117602000Y-143510000D03*
X115062000Y-143510000D03*
X112522000Y-143510000D03*
X109982000Y-143510000D03*
D46*
X179339500Y-102395000D03*
X169795000Y-101045700D03*
X186330300Y-102861300D03*
X122950000Y-37722500D03*
X122855300Y-53340000D03*
X136366000Y-47417900D03*
X136548700Y-73047100D03*
X143273500Y-69684200D03*
X142885900Y-45126600D03*
X155547100Y-45071800D03*
X168402600Y-44185200D03*
X183062600Y-139847300D03*
X180422500Y-140246500D03*
X179190500Y-105431200D03*
X182851200Y-107052700D03*
X175442600Y-140083300D03*
X178450700Y-100745400D03*
X185805000Y-100683400D03*
X172684500Y-140246400D03*
X168027300Y-107700300D03*
X165100000Y-120412500D03*
X166851400Y-112135000D03*
X167673800Y-140287000D03*
X156770200Y-138313100D03*
X151834000Y-54702800D03*
X106453400Y-63102900D03*
X118898000Y-57642500D03*
X140281400Y-108724800D03*
X149694400Y-139961300D03*
X181742800Y-107578000D03*
X181210700Y-109046000D03*
X180324700Y-108070300D03*
X172844400Y-111792500D03*
X173718900Y-104489100D03*
X166228800Y-112725700D03*
X170180000Y-112725700D03*
X172783400Y-103879100D03*
X154253000Y-109493100D03*
X173521800Y-103294100D03*
X156658500Y-109267200D03*
X148971000Y-112475600D03*
X155325000Y-107630600D03*
X126443000Y-140390700D03*
X145165000Y-103271500D03*
X123369500Y-140246500D03*
X141265000Y-104454300D03*
X120832600Y-140300800D03*
X137804700Y-102077800D03*
X118292600Y-139889300D03*
X142565000Y-109258400D03*
X113179400Y-139845500D03*
X140615000Y-103378200D03*
X139360100Y-114599400D03*
X143215000Y-114014400D03*
X117720000Y-112015000D03*
X171745000Y-103321500D03*
X170989000Y-104866100D03*
X170445000Y-100511200D03*
X152595900Y-102867000D03*
X185653000Y-140246500D03*
X153375000Y-102882700D03*
X150744900Y-137638800D03*
X115631500Y-140246500D03*
X164835000Y-102872000D03*
X174995000Y-102866700D03*
X144515000Y-100589300D03*
X123203000Y-93710400D03*
X154675000Y-102872000D03*
X144606000Y-103827700D03*
X159635000Y-95256600D03*
X164602600Y-97066600D03*
X154675000Y-95256600D03*
X175095500Y-97500000D03*
X132366000Y-43840800D03*
X133858000Y-98725300D03*
X143107300Y-79623900D03*
X141065800Y-78932200D03*
X136908300Y-75330000D03*
X144515000Y-97088100D03*
X161017700Y-70734500D03*
X150870700Y-70709500D03*
X161659900Y-71320400D03*
X153057600Y-70992000D03*
X162744200Y-70509300D03*
X150149800Y-70130300D03*
X140391500Y-72927300D03*
X122950000Y-63175000D03*
X135488300Y-70302300D03*
X185960000Y-59437500D03*
X145688100Y-65796500D03*
X126670100Y-59438900D03*
X135491400Y-65066900D03*
X145878200Y-39247000D03*
X144298700Y-63995300D03*
X141851200Y-62862000D03*
X154427600Y-61940200D03*
X143433500Y-82390300D03*
X137330500Y-68652800D03*
X134357600Y-66196400D03*
X143215000Y-83017700D03*
X149691300Y-55287800D03*
X134430900Y-63110900D03*
X142524500Y-81435600D03*
X141968000Y-75805900D03*
X152415700Y-74224600D03*
X141402200Y-91464400D03*
X134887400Y-70903100D03*
X140615000Y-95156200D03*
X148854400Y-73953200D03*
X141279200Y-85254200D03*
X146198000Y-83498000D03*
X179789700Y-63260100D03*
X140002900Y-64634300D03*
X178382200Y-58791200D03*
X137961300Y-62598600D03*
X176480000Y-68001600D03*
X139310400Y-64804100D03*
X175895000Y-70596900D03*
X175895000Y-76862900D03*
X137410300Y-63031400D03*
X174625000Y-69412500D03*
X138609700Y-65295400D03*
X173355000Y-66770700D03*
X173990000Y-77392500D03*
X140866800Y-65588500D03*
X172635400Y-69097300D03*
X138722700Y-66826200D03*
X170815000Y-70032900D03*
X138706700Y-68203300D03*
X173593100Y-92177900D03*
X176001800Y-92970800D03*
X171837700Y-72700900D03*
X149622400Y-70544500D03*
X171920600Y-85961800D03*
X174670800Y-91639200D03*
X173355000Y-73138100D03*
X149024100Y-70922300D03*
X173355000Y-85786300D03*
X174080400Y-90467200D03*
X154099300Y-71425000D03*
X177195900Y-72048900D03*
X173695000Y-93010300D03*
X177884600Y-88833800D03*
X170219900Y-85638800D03*
X174625000Y-82766500D03*
X148319000Y-74502100D03*
X168994700Y-78051600D03*
X147673200Y-70609700D03*
X170782900Y-77392500D03*
X170264700Y-66280300D03*
X149800000Y-65405800D03*
X170067600Y-94451400D03*
X147782000Y-74835600D03*
X170471700Y-94896500D03*
X146622500Y-76198700D03*
X147892200Y-78864500D03*
X149935300Y-78864500D03*
X169405600Y-80662400D03*
X164124800Y-81351600D03*
X168577500Y-47938500D03*
X161828200Y-45818800D03*
X154588200Y-91357500D03*
X136757200Y-79298900D03*
X153375000Y-92342600D03*
X137424700Y-83740000D03*
X153487100Y-85942200D03*
X140500200Y-71122700D03*
X152941300Y-87367500D03*
X138579100Y-76983900D03*
X182231000Y-76573500D03*
X181218300Y-72315800D03*
X180975000Y-54356400D03*
X164194000Y-45711500D03*
X180975000Y-88753900D03*
X166771800Y-93437900D03*
X182329700Y-56935400D03*
X157311200Y-44291400D03*
X182245000Y-88764600D03*
X164185000Y-93580600D03*
X153016800Y-82755200D03*
X183515000Y-90935700D03*
X163535000Y-95255400D03*
X183515000Y-54624500D03*
X184785000Y-50937900D03*
X184785000Y-81907900D03*
X157377400Y-83377500D03*
X183515000Y-50423700D03*
X183430300Y-78588700D03*
X150746500Y-76039000D03*
X162230000Y-78532500D03*
X182245000Y-49851200D03*
X181610000Y-79120000D03*
X154624800Y-79120000D03*
X175144800Y-43551700D03*
X180975000Y-80077400D03*
X149378100Y-73509700D03*
X160935000Y-80808800D03*
X175643500Y-44077000D03*
X162371000Y-43315800D03*
X144049400Y-53023000D03*
X140760600Y-51681800D03*
X148850000Y-63952100D03*
X164767500Y-65219200D03*
X166413300Y-71463900D03*
X163608900Y-71245500D03*
X145907300Y-69615800D03*
X148047500Y-64011600D03*
X166500000Y-65830000D03*
X141168700Y-62654800D03*
X168275000Y-61432500D03*
X152858800Y-63079300D03*
X168275000Y-63079300D03*
X159231600Y-105057600D03*
X166969500Y-105057600D03*
X158958000Y-123183400D03*
X152926400Y-120001400D03*
X151733200Y-120001400D03*
X150295800Y-113938300D03*
X132932900Y-77370500D03*
X136060600Y-81821700D03*
X178269000Y-73780600D03*
X158126300Y-74100800D03*
X158296500Y-64895900D03*
X140868000Y-63703100D03*
X176530000Y-51902500D03*
X146766100Y-52312700D03*
X140235300Y-52312700D03*
X135753900Y-86228900D03*
X150775000Y-94554700D03*
X136096500Y-74452800D03*
X151850900Y-85056700D03*
X159907200Y-44577500D03*
X175895000Y-44828100D03*
X158462000Y-54482500D03*
X115865000Y-57073600D03*
X124135000Y-52767800D03*
X156135600Y-53698500D03*
X122329900Y-53920900D03*
X116515000Y-54701800D03*
M02*
