G04 #@! TF.FileFunction,Soldermask,Bot*
%FSLAX46Y46*%
G04 Gerber Fmt 4.6, Leading zero omitted, Abs format (unit mm)*
G04 Created by KiCad (PCBNEW 4.0.2+dfsg1-stable) date Fri 08 Feb 2019 16:08:27 CET*
%MOMM*%
G01*
G04 APERTURE LIST*
%ADD10C,0.100000*%
%ADD11C,1.524000*%
%ADD12R,1.524000X1.524000*%
%ADD13R,2.032000X2.032000*%
%ADD14O,2.032000X2.032000*%
%ADD15R,2.032000X1.727200*%
%ADD16O,2.032000X1.727200*%
%ADD17R,1.727200X2.032000*%
%ADD18O,1.727200X2.032000*%
%ADD19C,4.000000*%
%ADD20R,1.930400X5.588000*%
%ADD21R,2.235200X2.235200*%
%ADD22C,0.400000*%
G04 APERTURE END LIST*
D10*
D11*
X109220000Y-102984300D03*
X109220000Y-107835700D03*
X111760000Y-102984300D03*
X111760000Y-107835700D03*
X114300000Y-102984300D03*
X114300000Y-107835700D03*
X116840000Y-102984300D03*
X116840000Y-107835700D03*
X119380000Y-102984300D03*
X119380000Y-107835700D03*
X121920000Y-102984300D03*
X121920000Y-107835700D03*
D12*
X124460000Y-102984300D03*
D11*
X124460000Y-107835700D03*
D13*
X102870000Y-55880000D03*
D14*
X102870000Y-58420000D03*
D15*
X107950000Y-48260000D03*
D16*
X107950000Y-45720000D03*
X107950000Y-43180000D03*
X107950000Y-40640000D03*
D17*
X120650000Y-22860000D03*
D18*
X123190000Y-22860000D03*
X125730000Y-22860000D03*
D13*
X148590000Y-22860000D03*
D14*
X148590000Y-25400000D03*
D13*
X133350000Y-22860000D03*
D14*
X133350000Y-25400000D03*
D13*
X152400000Y-22860000D03*
D14*
X152400000Y-25400000D03*
D13*
X137160000Y-22860000D03*
D14*
X137160000Y-25400000D03*
D13*
X156210000Y-22860000D03*
D14*
X156210000Y-25400000D03*
D13*
X140970000Y-22860000D03*
D14*
X140970000Y-25400000D03*
D13*
X160020000Y-22860000D03*
D14*
X160020000Y-25400000D03*
D13*
X144780000Y-22860000D03*
D14*
X144780000Y-25400000D03*
D17*
X137160000Y-33020000D03*
D18*
X134620000Y-33020000D03*
X132080000Y-33020000D03*
D11*
X141986000Y-63500000D03*
D17*
X107950000Y-29210000D03*
D18*
X110490000Y-29210000D03*
X113030000Y-29210000D03*
X115570000Y-29210000D03*
D19*
X102870000Y-114808000D03*
X191770000Y-114808000D03*
X102870000Y-23368000D03*
D11*
X148590000Y-102984300D03*
X148590000Y-107835700D03*
X151130000Y-102984300D03*
X151130000Y-107835700D03*
X153670000Y-102984300D03*
X153670000Y-107835700D03*
X156210000Y-102984300D03*
X156210000Y-107835700D03*
X158750000Y-102984300D03*
X158750000Y-107835700D03*
X161290000Y-102984300D03*
X161290000Y-107835700D03*
X163830000Y-102984300D03*
X163830000Y-107835700D03*
X166370000Y-102984300D03*
X166370000Y-107835700D03*
X168910000Y-102984300D03*
X168910000Y-107835700D03*
X171450000Y-102984300D03*
X171450000Y-107835700D03*
X173990000Y-102984300D03*
X173990000Y-107835700D03*
X176530000Y-102984300D03*
X176530000Y-107835700D03*
X179070000Y-102984300D03*
X179070000Y-107835700D03*
X181610000Y-102984300D03*
X181610000Y-107835700D03*
D12*
X184150000Y-102984300D03*
D11*
X184150000Y-107835700D03*
D20*
X184912000Y-135890000D03*
X182372000Y-135890000D03*
X179832000Y-135890000D03*
X177292000Y-135890000D03*
X174752000Y-135890000D03*
X172212000Y-135890000D03*
X169672000Y-135890000D03*
X167132000Y-135890000D03*
X164592000Y-135890000D03*
X162052000Y-135890000D03*
X159512000Y-135890000D03*
X156972000Y-135890000D03*
X154432000Y-135890000D03*
X151892000Y-135890000D03*
X149352000Y-135890000D03*
X125222000Y-135890000D03*
X122682000Y-135890000D03*
X120142000Y-135890000D03*
X117602000Y-135890000D03*
X115062000Y-135890000D03*
X112522000Y-135890000D03*
X109982000Y-135890000D03*
D19*
X190500000Y-23368000D03*
D21*
X102362000Y-36576000D03*
D22*
X179339500Y-94775000D03*
X169795000Y-93425700D03*
X186330300Y-95241300D03*
X122950000Y-30102500D03*
X122855300Y-45720000D03*
X136366000Y-39797900D03*
X136548700Y-65427100D03*
X143273500Y-62064200D03*
X142885900Y-37506600D03*
X155547100Y-37451800D03*
X168402600Y-36565200D03*
X183062600Y-132227300D03*
X180422500Y-132626500D03*
X179190500Y-97811200D03*
X182851200Y-99432700D03*
X175442600Y-132463300D03*
X178450700Y-93125400D03*
X185805000Y-93063400D03*
X172684500Y-132626400D03*
X168027300Y-100080300D03*
X165100000Y-112792500D03*
X166851400Y-104515000D03*
X167673800Y-132667000D03*
X156770200Y-130693100D03*
X151834000Y-47082800D03*
X106453400Y-55482900D03*
X118898000Y-50022500D03*
X140281400Y-101104800D03*
X149694400Y-132341300D03*
X181742800Y-99958000D03*
X181210700Y-101426000D03*
X180324700Y-100450300D03*
X172844400Y-104172500D03*
X173718900Y-96869100D03*
X166228800Y-105105700D03*
X170180000Y-105105700D03*
X172783400Y-96259100D03*
X154253000Y-101873100D03*
X173521800Y-95674100D03*
X156658500Y-101647200D03*
X148971000Y-104855600D03*
X155325000Y-100010600D03*
X126443000Y-132770700D03*
X145165000Y-95651500D03*
X123369500Y-132626500D03*
X141265000Y-96834300D03*
X120832600Y-132680800D03*
X137804700Y-94457800D03*
X118292600Y-132269300D03*
X142565000Y-101638400D03*
X113179400Y-132225500D03*
X140615000Y-95758200D03*
X139360100Y-106979400D03*
X143215000Y-106394400D03*
X117720000Y-104395000D03*
X171745000Y-95701500D03*
X170989000Y-97246100D03*
X170445000Y-92891200D03*
X152595900Y-95247000D03*
X185653000Y-132626500D03*
X153375000Y-95262700D03*
X150744900Y-130018800D03*
X115631500Y-132626500D03*
X164835000Y-95252000D03*
X174995000Y-95246700D03*
X144515000Y-92969300D03*
X123203000Y-86090400D03*
X154675000Y-95252000D03*
X144606000Y-96207700D03*
X159635000Y-87636600D03*
X164602600Y-89446600D03*
X154675000Y-87636600D03*
X175095500Y-89880000D03*
X132366000Y-36220800D03*
X133858000Y-91105300D03*
X143107300Y-72003900D03*
X141065800Y-71312200D03*
X136908300Y-67710000D03*
X144515000Y-89468100D03*
X161017700Y-63114500D03*
X150870700Y-63089500D03*
X161659900Y-63700400D03*
X153057600Y-63372000D03*
X162744200Y-62889300D03*
X150149800Y-62510300D03*
X140391500Y-65307300D03*
X122950000Y-55555000D03*
X135488300Y-62682300D03*
X185960000Y-51817500D03*
X145688100Y-58176500D03*
X126670100Y-51818900D03*
X135491400Y-57446900D03*
X145878200Y-31627000D03*
X144298700Y-56375300D03*
X141851200Y-55242000D03*
X154427600Y-54320200D03*
X143433500Y-74770300D03*
X137330500Y-61032800D03*
X134357600Y-58576400D03*
X143215000Y-75397700D03*
X149691300Y-47667800D03*
X134430900Y-55490900D03*
X142524500Y-73815600D03*
X141968000Y-68185900D03*
X152415700Y-66604600D03*
X141402200Y-83844400D03*
X134887400Y-63283100D03*
X140615000Y-87536200D03*
X148854400Y-66333200D03*
X141279200Y-77634200D03*
X146198000Y-75878000D03*
X179789700Y-55640100D03*
X140002900Y-57014300D03*
X178382200Y-51171200D03*
X137961300Y-54978600D03*
X176480000Y-60381600D03*
X139310400Y-57184100D03*
X175895000Y-62976900D03*
X175895000Y-69242900D03*
X137410300Y-55411400D03*
X174625000Y-61792500D03*
X138609700Y-57675400D03*
X173355000Y-59150700D03*
X173990000Y-69772500D03*
X140866800Y-57968500D03*
X172635400Y-61477300D03*
X138722700Y-59206200D03*
X170815000Y-62412900D03*
X138706700Y-60583300D03*
X173593100Y-84557900D03*
X176001800Y-85350800D03*
X171837700Y-65080900D03*
X149622400Y-62924500D03*
X171920600Y-78341800D03*
X174670800Y-84019200D03*
X173355000Y-65518100D03*
X149024100Y-63302300D03*
X173355000Y-78166300D03*
X174080400Y-82847200D03*
X154099300Y-63805000D03*
X177195900Y-64428900D03*
X173695000Y-85390300D03*
X177884600Y-81213800D03*
X170219900Y-78018800D03*
X174625000Y-75146500D03*
X148319000Y-66882100D03*
X168994700Y-70431600D03*
X147673200Y-62989700D03*
X170782900Y-69772500D03*
X170264700Y-58660300D03*
X149800000Y-57785800D03*
X170067600Y-86831400D03*
X147782000Y-67215600D03*
X170471700Y-87276500D03*
X146622500Y-68578700D03*
X147892200Y-71244500D03*
X149935300Y-71244500D03*
X169405600Y-73042400D03*
X164124800Y-73731600D03*
X168577500Y-40318500D03*
X161828200Y-38198800D03*
X154588200Y-83737500D03*
X136757200Y-71678900D03*
X153375000Y-84722600D03*
X137424700Y-76120000D03*
X153487100Y-78322200D03*
X140500200Y-63502700D03*
X152941300Y-79747500D03*
X138579100Y-69363900D03*
X182231000Y-68953500D03*
X181218300Y-64695800D03*
X180975000Y-46736400D03*
X164194000Y-38091500D03*
X180975000Y-81133900D03*
X166771800Y-85817900D03*
X182329700Y-49315400D03*
X157311200Y-36671400D03*
X182245000Y-81144600D03*
X164185000Y-85960600D03*
X153016800Y-75135200D03*
X183515000Y-83315700D03*
X163535000Y-87635400D03*
X183515000Y-47004500D03*
X184785000Y-43317900D03*
X184785000Y-74287900D03*
X157377400Y-75757500D03*
X183515000Y-42803700D03*
X183430300Y-70968700D03*
X150746500Y-68419000D03*
X162230000Y-70912500D03*
X182245000Y-42231200D03*
X181610000Y-71500000D03*
X154624800Y-71500000D03*
X175144800Y-35931700D03*
X180975000Y-72457400D03*
X149378100Y-65889700D03*
X160935000Y-73188800D03*
X175643500Y-36457000D03*
X162371000Y-35695800D03*
X144049400Y-45403000D03*
X140760600Y-44061800D03*
X148850000Y-56332100D03*
X164767500Y-57599200D03*
X166413300Y-63843900D03*
X163608900Y-63625500D03*
X145907300Y-61995800D03*
X148047500Y-56391600D03*
X166500000Y-58210000D03*
X141168700Y-55034800D03*
X168275000Y-53812500D03*
X152858800Y-55459300D03*
X168275000Y-55459300D03*
X159231600Y-97437600D03*
X166969500Y-97437600D03*
X158958000Y-115563400D03*
X152926400Y-112381400D03*
X151733200Y-112381400D03*
X150295800Y-106318300D03*
X132932900Y-69750500D03*
X136060600Y-74201700D03*
X178269000Y-66160600D03*
X158126300Y-66480800D03*
X158296500Y-57275900D03*
X140868000Y-56083100D03*
X176530000Y-44282500D03*
X146766100Y-44692700D03*
X140235300Y-44692700D03*
X135753900Y-78608900D03*
X150775000Y-86934700D03*
X136096500Y-66832800D03*
X151850900Y-77436700D03*
X159907200Y-36957500D03*
X175895000Y-37208100D03*
X158462000Y-46862500D03*
X115865000Y-49453600D03*
X124135000Y-45147800D03*
X156135600Y-46078500D03*
X122329900Y-46300900D03*
X116515000Y-47081800D03*
M02*
