M48
;DRILL file {KiCad 4.0.2+dfsg1-stable} date Sun 20 Jan 2019 20:02:41 CET
;FORMAT={-:-/ absolute / metric / decimal}
FMAT,2
METRIC,TZ
T1C0.300
T2C1.016
T3C3.000
%
G90
G05
M71
T1
X83.508Y-91.419
X84.581Y-93.314
X84.734Y-84.502
X85.269Y-83.17
X87.337Y-82.681
X87.644Y-84.97
X88.182Y-95.28
X88.264Y-82.52
X88.744Y-84.47
X88.78Y-85.12
X88.885Y-86.471
X89.935Y-86.506
X95.91Y-56.134
X95.936Y-57.277
X98.805Y-104.993
X99.768Y-104.934
X99.77Y-93.983
X99.933Y-49.388
X100.273Y-72.137
X100.843Y-105.409
X100.863Y-46.888
X101.397Y-47.955
X101.632Y-49.435
X102.73Y-107.041
X103.958Y-104.407
X105.566Y-88.541
X107.431Y-100.946
X108.073Y-74.354
X108.658Y-78.305
X109.415Y-104.172
X109.942Y-78.735
X110.096Y-132.646
X110.954Y-97.53
X111.25Y-72.697
X111.25Y-80.274
X111.371Y-104.28
X112.109Y-80.568
X112.193Y-99.
X112.522Y-132.687
X112.898Y-89.52
X113.51Y-76.533
X114.105Y-79.808
X114.116Y-83.092
X114.757Y-93.983
X114.813Y-72.82
X115.062Y-132.667
X115.342Y-93.058
X116.019Y-72.633
X116.064Y-83.61
X116.581Y-74.572
X116.649Y-76.241
X116.787Y-70.975
X117.069Y-71.597
X117.602Y-132.686
X118.237Y-79.883
X118.482Y-116.059
X118.857Y-75.236
X118.966Y-103.062
X119.019Y-81.441
X119.471Y-72.573
X119.921Y-71.868
X119.989Y-77.868
X120.142Y-131.943
X120.16Y-93.845
X120.249Y-66.1
X120.371Y-79.781
X120.607Y-70.266
X120.846Y-73.364
X121.291Y-87.133
X121.594Y-72.524
X121.885Y-87.953
X122.002Y-116.522
X122.041Y-115.739
X122.227Y-71.98
X122.262Y-67.866
X122.438Y-84.385
X122.474Y-88.294
X122.503Y-66.221
X122.519Y-74.955
X122.535Y-76.375
X122.682Y-132.663
X122.762Y-71.444
X123.368Y-82.601
X123.375Y-70.329
X123.479Y-81.495
X124.107Y-86.364
X124.125Y-78.146
X124.184Y-73.298
X124.34Y-69.862
X124.595Y-74.729
X125.001Y-72.804
X125.161Y-60.564
X125.222Y-132.68
X125.247Y-85.115
X125.308Y-80.444
X125.493Y-73.296
X125.805Y-69.429
X126.279Y-105.268
X126.413Y-81.304
X126.613Y-82.864
X126.771Y-85.928
X126.964Y-70.733
X127.33Y-74.536
X127.61Y-85.141
X127.955Y-66.221
X128.117Y-60.572
X128.285Y-78.027
X128.555Y-86.02
X129.286Y-68.402
X129.94Y-56.203
X130.067Y-85.445
X130.081Y-83.674
X130.2Y-69.19
X130.219Y-79.884
X130.324Y-86.198
X130.847Y-84.333
X131.78Y-94.671
X132.117Y-105.908
X132.182Y-62.382
X132.309Y-61.112
X133.515Y-89.769
X133.566Y-73.444
X133.825Y-104.73
X134.01Y-59.563
X134.062Y-108.636
X134.091Y-70.341
X134.324Y-74.059
X134.468Y-86.422
X134.544Y-62.636
X134.679Y-90.72
X135.042Y-88.247
X135.243Y-86.617
X135.255Y-60.731
X135.712Y-46.05
X135.839Y-61.417
X136.115Y-75.951
X136.185Y-107.259
X136.421Y-84.319
X136.657Y-105.414
X137.033Y-46.66
X137.243Y-82.985
X137.719Y-77.111
X137.767Y-107.235
X138.05Y-53.352
X138.199Y-113.024
X138.275Y-72.105
X138.508Y-77.343
X138.59Y-53.894
X138.661Y-82.985
X138.709Y-54.495
X138.851Y-65.786
X138.892Y-105.389
X139.11Y-90.484
X139.435Y-105.058
X139.436Y-76.407
X139.477Y-101.316
X139.536Y-77.314
X139.669Y-84.816
X139.856Y-82.985
X139.983Y-88.983
X140.062Y-87.682
X140.329Y-93.534
X140.472Y-52.918
X140.695Y-89.335
X140.725Y-84.322
X141.067Y-113.518
X141.228Y-53.864
X141.562Y-59.186
X141.762Y-71.947
X141.838Y-52.296
X142.012Y-116.098
X142.447Y-75.944
X143.408Y-70.561
X143.506Y-77.776
X143.555Y-58.698
X143.667Y-115.506
X143.699Y-86.108
X143.807Y-110.092
X143.914Y-89.575
X144.052Y-97.814
X144.297Y-72.339
X144.827Y-91.454
X145.182Y-59.063
X145.609Y-109.935
X145.71Y-52.825
X145.747Y-111.344
X145.805Y-112.288
X146.006Y-54.148
X146.111Y-87.891
X146.157Y-94.272
X146.222Y-75.818
X147.331Y-76.822
X147.342Y-114.363
X148.125Y-96.669
X148.2Y-83.328
X148.327Y-117.121
X148.327Y-119.394
X149.176Y-67.624
X150.062Y-60.28
X150.165Y-72.187
X150.445Y-63.5
X150.775Y-95.232
X150.775Y-102.885
X150.875Y-101.039
X151.13Y-108.922
X151.155Y-73.939
X151.206Y-79.629
X151.666Y-93.722
X151.768Y-65.315
X151.829Y-102.867
X151.968Y-72.288
X151.994Y-97.076
X152.075Y-95.118
X152.121Y-70.434
X152.122Y-82.113
X152.222Y-90.037
X152.389Y-131.659
X152.5Y-132.654
X152.555Y-54.02
X152.667Y-94.844
X152.72Y-65.538
X152.933Y-80.01
X153.142Y-52.296
X153.289Y-71.78
X153.425Y-101.024
X153.467Y-70.358
X153.718Y-94.394
X154.102Y-82.144
X154.318Y-94.287
X154.326Y-72.993
X154.432Y-132.663
X155.653Y-72.42
X155.803Y-111.939
X156.033Y-84.368
X156.263Y-74.011
X156.548Y-104.145
X156.634Y-131.606
X156.997Y-85.129
X157.318Y-103.495
X157.593Y-50.12
X157.65Y-93.04
X157.869Y-96.065
X158.009Y-52.343
X158.016Y-102.835
X158.204Y-50.77
X158.215Y-60.984
X158.233Y-79.773
X158.235Y-85.744
X158.462Y-106.118
X158.546Y-69.921
X158.919Y-93.15
X158.952Y-73.934
X159.082Y-53.37
X159.296Y-69.638
X159.456Y-111.667
X159.512Y-132.675
X159.667Y-58.003
X159.721Y-70.47
X159.888Y-69.33
X160.867Y-51.42
X161.019Y-68.54
X161.192Y-109.263
X161.833Y-69.82
X161.85Y-94.377
X162.052Y-132.677
X162.104Y-50.77
X162.264Y-67.079
X162.434Y-95.335
X163.058Y-74.219
X163.28Y-105.385
X163.405Y-93.584
X163.463Y-103.298
X163.541Y-55.102
X164.041Y-102.21
X164.102Y-72.42
X164.323Y-86.671
X164.628Y-79.735
X164.656Y-132.007
X164.841Y-94.492
X165.243Y-98.993
X166.139Y-97.069
X166.38Y-95.257
X166.454Y-103.133
X166.77Y-100.376
X167.143Y-67.525
X167.67Y-132.672
X168.815Y-84.84
X169.034Y-101.031
X169.265Y-95.233
X169.672Y-132.637
X169.911Y-55.144
X170.288Y-56.271
X171.03Y-96.985
X171.083Y-86.533
X171.132Y-66.207
X171.167Y-102.785
X171.198Y-100.811
X171.524Y-67.529
X171.598Y-88.675
X171.659Y-83.698
X171.975Y-57.399
X171.982Y-53.178
X172.083Y-105.91
X172.212Y-132.643
X172.27Y-63.655
X172.29Y-84.553
X172.583Y-89.924
X172.694Y-68.411
X172.85Y-99.736
X173.021Y-102.389
X173.266Y-53.874
X173.324Y-66.212
X173.451Y-99.736
X173.597Y-101.96
X173.852Y-53.075
X173.99Y-74.16
X174.051Y-99.736
X174.625Y-86.517
X174.65Y-80.081
X174.752Y-132.63
X174.881Y-89.317
X175.268Y-75.935
X175.429Y-53.075
X175.691Y-86.434
X175.931Y-103.298
X176.028Y-63.668
X176.072Y-50.848
X176.087Y-73.782
X176.489Y-48.983
X177.292Y-132.666
X177.332Y-81.935
X177.5Y-73.794
X177.8Y-52.837
X177.8Y-87.942
X177.923Y-94.539
X178.435Y-65.917
X179.07Y-75.423
X179.07Y-87.611
X179.213Y-80.509
X179.213Y-86.625
X179.298Y-53.159
X179.298Y-55.144
X179.343Y-101.96
X179.832Y-132.667
X179.925Y-90.754
X179.962Y-60.14
X180.336Y-64.159
X180.51Y-83.623
X180.542Y-95.246
X180.909Y-73.79
X181.185Y-90.27
X181.227Y-94.942
X181.61Y-63.765
X181.796Y-54.061
X181.803Y-80.703
X181.84Y-116.098
X181.959Y-73.709
X182.103Y-94.822
X182.15Y-58.903
X182.862Y-76.372
X182.972Y-93.82
X182.983Y-53.734
X182.987Y-63.765
X183.088Y-55.331
X183.111Y-114.121
X183.31Y-95.249
X183.357Y-72.262
X183.945Y-95.245
X184.047Y-53.075
X184.778Y-63.668
X184.912Y-132.64
X185.06Y-79.175
X185.087Y-73.707
X185.22Y-93.983
X185.637Y-53.455
X185.886Y-76.748
X186.433Y-95.917
X187.352Y-76.028
X187.654Y-89.409
X187.801Y-51.025
X187.877Y-80.785
X188.271Y-50.391
X188.629Y-89.926
X188.809Y-63.681
X189.303Y-75.854
X189.303Y-80.261
X189.694Y-73.788
X189.758Y-90.368
X192.754Y-66.41
X193.774Y-62.676
X195.096Y-89.026
X201.286Y-84.87
X203.19Y-48.373
X203.311Y-84.799
X205.437Y-65.638
X205.888Y-66.309
X206.375Y-53.169
X206.417Y-71.12
X206.485Y-76.011
X207.01Y-74.91
X207.109Y-53.075
X207.454Y-86.543
X207.754Y-85.463
X207.841Y-76.011
X208.117Y-65.815
X208.505Y-54.33
X209.251Y-76.015
X209.55Y-53.075
X209.775Y-54.128
X209.784Y-65.882
X210.185Y-86.548
X210.82Y-74.577
X211.013Y-55.23
X211.794Y-92.562
X212.095Y-52.05
X212.133Y-91.999
X212.208Y-76.407
X212.506Y-88.78
X213.031Y-63.668
X213.073Y-95.25
X213.466Y-86.625
X213.72Y-65.916
X214.739Y-86.625
X215.265Y-65.934
X216.02Y-86.625
X216.228Y-76.038
X216.535Y-65.917
X217.17Y-52.112
X217.17Y-74.91
X217.17Y-87.796
X217.253Y-99.931
X217.269Y-53.075
X217.913Y-63.668
X218.653Y-65.929
X219.71Y-53.075
X219.71Y-73.885
X219.71Y-75.545
X219.71Y-86.896
X219.71Y-87.65
X220.71Y-65.915
X220.98Y-53.075
X220.98Y-87.158
X221.615Y-65.958
X222.865Y-67.704
X222.885Y-65.938
X222.942Y-72.984
X222.998Y-72.1
X223.166Y-73.779
X223.408Y-54.322
X223.52Y-52.112
X223.52Y-86.847
X223.867Y-53.286
X224.608Y-86.587
T2
X76.2Y-66.04
X76.2Y-68.58
X76.2Y-71.12
X76.2Y-78.74
X83.82Y-101.6
X83.82Y-104.14
X83.82Y-106.68
X83.82Y-109.22
X84.Y-53.38
X84.Y-55.92
X84.Y-58.46
X84.Y-61.
X91.44Y-54.61
X91.44Y-57.15
X91.44Y-59.69
X110.49Y-108.064
X110.49Y-112.916
X112.966Y-49.403
X113.03Y-108.064
X113.03Y-112.916
X115.506Y-49.403
X115.57Y-108.064
X115.57Y-112.916
X118.11Y-108.064
X118.11Y-112.916
X120.65Y-108.064
X120.65Y-112.916
X123.19Y-108.064
X123.19Y-112.916
X125.73Y-108.064
X125.73Y-112.916
X149.86Y-108.064
X149.86Y-112.916
X152.4Y-108.064
X152.4Y-112.916
X154.94Y-108.064
X154.94Y-112.916
X157.48Y-108.064
X157.48Y-112.916
X160.02Y-108.064
X160.02Y-112.916
X162.56Y-108.064
X162.56Y-112.916
X165.1Y-108.064
X165.1Y-112.916
X167.64Y-108.064
X167.64Y-112.916
X170.18Y-108.064
X170.18Y-112.916
X172.72Y-108.064
X172.72Y-112.916
X175.26Y-108.064
X175.26Y-112.916
X177.8Y-108.064
X177.8Y-112.916
X180.34Y-108.064
X180.34Y-112.916
X182.88Y-108.064
X182.88Y-112.916
X185.42Y-108.064
X185.42Y-112.916
T3
X76.2Y-48.768
X76.2Y-114.808
X231.14Y-48.768
X231.14Y-114.808
T0
M30
