G04 #@! TF.FileFunction,Legend,Bot*
%FSLAX46Y46*%
G04 Gerber Fmt 4.6, Leading zero omitted, Abs format (unit mm)*
G04 Created by KiCad (PCBNEW 4.0.2+dfsg1-stable) date Thu 10 Jan 2019 07:28:03 CET*
%MOMM*%
G01*
G04 APERTURE LIST*
%ADD10C,0.100000*%
%ADD11C,0.150000*%
%ADD12C,0.300000*%
%ADD13C,0.010000*%
G04 APERTURE END LIST*
D10*
D11*
X87946667Y-85408573D02*
X87480000Y-85408573D01*
X87246667Y-85408573D02*
X87280000Y-85360954D01*
X87313333Y-85408573D01*
X87280000Y-85456192D01*
X87246667Y-85408573D01*
X87313333Y-85408573D01*
X87480000Y-85884763D02*
X87946667Y-85884763D01*
X87546667Y-85884763D02*
X87513333Y-85932382D01*
X87480000Y-86027620D01*
X87480000Y-86170478D01*
X87513333Y-86265716D01*
X87580000Y-86313335D01*
X87946667Y-86313335D01*
X87946667Y-87551430D02*
X87480000Y-87551430D01*
X87546667Y-87551430D02*
X87513333Y-87599049D01*
X87480000Y-87694287D01*
X87480000Y-87837145D01*
X87513333Y-87932383D01*
X87580000Y-87980002D01*
X87946667Y-87980002D01*
X87580000Y-87980002D02*
X87513333Y-88027621D01*
X87480000Y-88122859D01*
X87480000Y-88265716D01*
X87513333Y-88360954D01*
X87580000Y-88408573D01*
X87946667Y-88408573D01*
X87913333Y-89265716D02*
X87946667Y-89170478D01*
X87946667Y-88980001D01*
X87913333Y-88884763D01*
X87846667Y-88837144D01*
X87580000Y-88837144D01*
X87513333Y-88884763D01*
X87480000Y-88980001D01*
X87480000Y-89170478D01*
X87513333Y-89265716D01*
X87580000Y-89313335D01*
X87646667Y-89313335D01*
X87713333Y-88837144D01*
X87946667Y-89741906D02*
X87480000Y-89741906D01*
X87546667Y-89741906D02*
X87513333Y-89789525D01*
X87480000Y-89884763D01*
X87480000Y-90027621D01*
X87513333Y-90122859D01*
X87580000Y-90170478D01*
X87946667Y-90170478D01*
X87580000Y-90170478D02*
X87513333Y-90218097D01*
X87480000Y-90313335D01*
X87480000Y-90456192D01*
X87513333Y-90551430D01*
X87580000Y-90599049D01*
X87946667Y-90599049D01*
X87946667Y-91218096D02*
X87913333Y-91122858D01*
X87880000Y-91075239D01*
X87813333Y-91027620D01*
X87613333Y-91027620D01*
X87546667Y-91075239D01*
X87513333Y-91122858D01*
X87480000Y-91218096D01*
X87480000Y-91360954D01*
X87513333Y-91456192D01*
X87546667Y-91503811D01*
X87613333Y-91551430D01*
X87813333Y-91551430D01*
X87880000Y-91503811D01*
X87913333Y-91456192D01*
X87946667Y-91360954D01*
X87946667Y-91218096D01*
X87946667Y-91980001D02*
X87480000Y-91980001D01*
X87613333Y-91980001D02*
X87546667Y-92027620D01*
X87513333Y-92075239D01*
X87480000Y-92170477D01*
X87480000Y-92265716D01*
X87946667Y-92599049D02*
X87480000Y-92599049D01*
X87246667Y-92599049D02*
X87280000Y-92551430D01*
X87313333Y-92599049D01*
X87280000Y-92646668D01*
X87246667Y-92599049D01*
X87313333Y-92599049D01*
X87946667Y-93503811D02*
X87580000Y-93503811D01*
X87513333Y-93456192D01*
X87480000Y-93360954D01*
X87480000Y-93170477D01*
X87513333Y-93075239D01*
X87913333Y-93503811D02*
X87946667Y-93408573D01*
X87946667Y-93170477D01*
X87913333Y-93075239D01*
X87846667Y-93027620D01*
X87780000Y-93027620D01*
X87713333Y-93075239D01*
X87680000Y-93170477D01*
X87680000Y-93408573D01*
X87646667Y-93503811D01*
X87946667Y-93980001D02*
X87480000Y-93980001D01*
X87546667Y-93980001D02*
X87513333Y-94027620D01*
X87480000Y-94122858D01*
X87480000Y-94265716D01*
X87513333Y-94360954D01*
X87580000Y-94408573D01*
X87946667Y-94408573D01*
X87580000Y-94408573D02*
X87513333Y-94456192D01*
X87480000Y-94551430D01*
X87480000Y-94694287D01*
X87513333Y-94789525D01*
X87580000Y-94837144D01*
X87946667Y-94837144D01*
X87746667Y-96027620D02*
X87746667Y-96503811D01*
X87946667Y-95932382D02*
X87246667Y-96265715D01*
X87946667Y-96599049D01*
X87880000Y-96932382D02*
X87913333Y-96980001D01*
X87946667Y-96932382D01*
X87913333Y-96884763D01*
X87880000Y-96932382D01*
X87946667Y-96932382D01*
X87913333Y-97360953D02*
X87946667Y-97503810D01*
X87946667Y-97741906D01*
X87913333Y-97837144D01*
X87880000Y-97884763D01*
X87813333Y-97932382D01*
X87746667Y-97932382D01*
X87680000Y-97884763D01*
X87646667Y-97837144D01*
X87613333Y-97741906D01*
X87580000Y-97551429D01*
X87546667Y-97456191D01*
X87513333Y-97408572D01*
X87446667Y-97360953D01*
X87380000Y-97360953D01*
X87313333Y-97408572D01*
X87280000Y-97456191D01*
X87246667Y-97551429D01*
X87246667Y-97789525D01*
X87280000Y-97932382D01*
X87880000Y-98360953D02*
X87913333Y-98408572D01*
X87946667Y-98360953D01*
X87913333Y-98313334D01*
X87880000Y-98360953D01*
X87946667Y-98360953D01*
X87680000Y-98837143D02*
X87680000Y-99599048D01*
X87280000Y-100599048D02*
X87246667Y-100503810D01*
X87246667Y-100360953D01*
X87280000Y-100218095D01*
X87346667Y-100122857D01*
X87413333Y-100075238D01*
X87546667Y-100027619D01*
X87646667Y-100027619D01*
X87780000Y-100075238D01*
X87846667Y-100122857D01*
X87913333Y-100218095D01*
X87946667Y-100360953D01*
X87946667Y-100456191D01*
X87913333Y-100599048D01*
X87880000Y-100646667D01*
X87646667Y-100646667D01*
X87646667Y-100456191D01*
X87880000Y-101075238D02*
X87913333Y-101122857D01*
X87946667Y-101075238D01*
X87913333Y-101027619D01*
X87880000Y-101075238D01*
X87946667Y-101075238D01*
X87946667Y-101551428D02*
X87246667Y-101551428D01*
X87246667Y-101789523D01*
X87280000Y-101932381D01*
X87346667Y-102027619D01*
X87413333Y-102075238D01*
X87546667Y-102122857D01*
X87646667Y-102122857D01*
X87780000Y-102075238D01*
X87846667Y-102027619D01*
X87913333Y-101932381D01*
X87946667Y-101789523D01*
X87946667Y-101551428D01*
X87880000Y-102551428D02*
X87913333Y-102599047D01*
X87946667Y-102551428D01*
X87913333Y-102503809D01*
X87880000Y-102551428D01*
X87946667Y-102551428D01*
D12*
X167420000Y-98468571D02*
X167420000Y-96968571D01*
X166848572Y-96968571D01*
X166705714Y-97040000D01*
X166634286Y-97111429D01*
X166562857Y-97254286D01*
X166562857Y-97468571D01*
X166634286Y-97611429D01*
X166705714Y-97682857D01*
X166848572Y-97754286D01*
X167420000Y-97754286D01*
X165705714Y-98468571D02*
X165848572Y-98397143D01*
X165920000Y-98325714D01*
X165991429Y-98182857D01*
X165991429Y-97754286D01*
X165920000Y-97611429D01*
X165848572Y-97540000D01*
X165705714Y-97468571D01*
X165491429Y-97468571D01*
X165348572Y-97540000D01*
X165277143Y-97611429D01*
X165205714Y-97754286D01*
X165205714Y-98182857D01*
X165277143Y-98325714D01*
X165348572Y-98397143D01*
X165491429Y-98468571D01*
X165705714Y-98468571D01*
X164705714Y-97468571D02*
X164420000Y-98468571D01*
X164134286Y-97754286D01*
X163848571Y-98468571D01*
X163562857Y-97468571D01*
X162420000Y-98397143D02*
X162562857Y-98468571D01*
X162848571Y-98468571D01*
X162991428Y-98397143D01*
X163062857Y-98254286D01*
X163062857Y-97682857D01*
X162991428Y-97540000D01*
X162848571Y-97468571D01*
X162562857Y-97468571D01*
X162420000Y-97540000D01*
X162348571Y-97682857D01*
X162348571Y-97825714D01*
X163062857Y-97968571D01*
X161705714Y-98468571D02*
X161705714Y-97468571D01*
X161705714Y-97754286D02*
X161634286Y-97611429D01*
X161562857Y-97540000D01*
X161420000Y-97468571D01*
X161277143Y-97468571D01*
X159777143Y-96968571D02*
X159420000Y-98468571D01*
X159134286Y-97397143D01*
X158848572Y-98468571D01*
X158491429Y-96968571D01*
X157920000Y-98468571D02*
X157920000Y-97468571D01*
X157920000Y-96968571D02*
X157991429Y-97040000D01*
X157920000Y-97111429D01*
X157848572Y-97040000D01*
X157920000Y-96968571D01*
X157920000Y-97111429D01*
X157420000Y-97468571D02*
X156848571Y-97468571D01*
X157205714Y-96968571D02*
X157205714Y-98254286D01*
X157134286Y-98397143D01*
X156991428Y-98468571D01*
X156848571Y-98468571D01*
X156348571Y-98468571D02*
X156348571Y-96968571D01*
X155705714Y-98468571D02*
X155705714Y-97682857D01*
X155777143Y-97540000D01*
X155920000Y-97468571D01*
X156134285Y-97468571D01*
X156277143Y-97540000D01*
X156348571Y-97611429D01*
X154777142Y-98468571D02*
X154920000Y-98397143D01*
X154991428Y-98325714D01*
X155062857Y-98182857D01*
X155062857Y-97754286D01*
X154991428Y-97611429D01*
X154920000Y-97540000D01*
X154777142Y-97468571D01*
X154562857Y-97468571D01*
X154420000Y-97540000D01*
X154348571Y-97611429D01*
X154277142Y-97754286D01*
X154277142Y-98182857D01*
X154348571Y-98325714D01*
X154420000Y-98397143D01*
X154562857Y-98468571D01*
X154777142Y-98468571D01*
X152991428Y-97468571D02*
X152991428Y-98468571D01*
X153634285Y-97468571D02*
X153634285Y-98254286D01*
X153562857Y-98397143D01*
X153419999Y-98468571D01*
X153205714Y-98468571D01*
X153062857Y-98397143D01*
X152991428Y-98325714D01*
X152491428Y-97468571D02*
X151919999Y-97468571D01*
X152277142Y-96968571D02*
X152277142Y-98254286D01*
X152205714Y-98397143D01*
X152062856Y-98468571D01*
X151919999Y-98468571D01*
X150491428Y-97468571D02*
X149919999Y-97468571D01*
X150277142Y-96968571D02*
X150277142Y-98254286D01*
X150205714Y-98397143D01*
X150062856Y-98468571D01*
X149919999Y-98468571D01*
X149419999Y-98468571D02*
X149419999Y-96968571D01*
X148777142Y-98468571D02*
X148777142Y-97682857D01*
X148848571Y-97540000D01*
X148991428Y-97468571D01*
X149205713Y-97468571D01*
X149348571Y-97540000D01*
X149419999Y-97611429D01*
X147491428Y-98397143D02*
X147634285Y-98468571D01*
X147919999Y-98468571D01*
X148062856Y-98397143D01*
X148134285Y-98254286D01*
X148134285Y-97682857D01*
X148062856Y-97540000D01*
X147919999Y-97468571D01*
X147634285Y-97468571D01*
X147491428Y-97540000D01*
X147419999Y-97682857D01*
X147419999Y-97825714D01*
X148134285Y-97968571D01*
X145634285Y-98468571D02*
X145634285Y-96968571D01*
X145062857Y-96968571D01*
X144919999Y-97040000D01*
X144848571Y-97111429D01*
X144777142Y-97254286D01*
X144777142Y-97468571D01*
X144848571Y-97611429D01*
X144919999Y-97682857D01*
X145062857Y-97754286D01*
X145634285Y-97754286D01*
X144134285Y-98468571D02*
X144134285Y-97468571D01*
X144134285Y-97754286D02*
X144062857Y-97611429D01*
X143991428Y-97540000D01*
X143848571Y-97468571D01*
X143705714Y-97468571D01*
X143205714Y-98468571D02*
X143205714Y-97468571D01*
X143205714Y-96968571D02*
X143277143Y-97040000D01*
X143205714Y-97111429D01*
X143134286Y-97040000D01*
X143205714Y-96968571D01*
X143205714Y-97111429D01*
X141848571Y-98397143D02*
X141991428Y-98468571D01*
X142277142Y-98468571D01*
X142420000Y-98397143D01*
X142491428Y-98325714D01*
X142562857Y-98182857D01*
X142562857Y-97754286D01*
X142491428Y-97611429D01*
X142420000Y-97540000D01*
X142277142Y-97468571D01*
X141991428Y-97468571D01*
X141848571Y-97540000D01*
X140634286Y-98397143D02*
X140777143Y-98468571D01*
X141062857Y-98468571D01*
X141205714Y-98397143D01*
X141277143Y-98254286D01*
X141277143Y-97682857D01*
X141205714Y-97540000D01*
X141062857Y-97468571D01*
X140777143Y-97468571D01*
X140634286Y-97540000D01*
X140562857Y-97682857D01*
X140562857Y-97825714D01*
X141277143Y-97968571D01*
X139920000Y-98325714D02*
X139848572Y-98397143D01*
X139920000Y-98468571D01*
X139991429Y-98397143D01*
X139920000Y-98325714D01*
X139920000Y-98468571D01*
X139920000Y-97897143D02*
X139991429Y-97040000D01*
X139920000Y-96968571D01*
X139848572Y-97040000D01*
X139920000Y-97897143D01*
X139920000Y-96968571D01*
X155784999Y-74751429D02*
X155927857Y-74680000D01*
X155999285Y-74608571D01*
X156070714Y-74465714D01*
X156070714Y-74394286D01*
X155999285Y-74251429D01*
X155927857Y-74180000D01*
X155784999Y-74108571D01*
X155499285Y-74108571D01*
X155356428Y-74180000D01*
X155284999Y-74251429D01*
X155213571Y-74394286D01*
X155213571Y-74465714D01*
X155284999Y-74608571D01*
X155356428Y-74680000D01*
X155499285Y-74751429D01*
X155784999Y-74751429D01*
X155927857Y-74822857D01*
X155999285Y-74894286D01*
X156070714Y-75037143D01*
X156070714Y-75322857D01*
X155999285Y-75465714D01*
X155927857Y-75537143D01*
X155784999Y-75608571D01*
X155499285Y-75608571D01*
X155356428Y-75537143D01*
X155284999Y-75465714D01*
X155213571Y-75322857D01*
X155213571Y-75037143D01*
X155284999Y-74894286D01*
X155356428Y-74822857D01*
X155499285Y-74751429D01*
X154570714Y-75037143D02*
X153427857Y-75037143D01*
X152213571Y-74822857D02*
X151999285Y-74894286D01*
X151927857Y-74965714D01*
X151856428Y-75108571D01*
X151856428Y-75322857D01*
X151927857Y-75465714D01*
X151999285Y-75537143D01*
X152142143Y-75608571D01*
X152713571Y-75608571D01*
X152713571Y-74108571D01*
X152213571Y-74108571D01*
X152070714Y-74180000D01*
X151999285Y-74251429D01*
X151927857Y-74394286D01*
X151927857Y-74537143D01*
X151999285Y-74680000D01*
X152070714Y-74751429D01*
X152213571Y-74822857D01*
X152713571Y-74822857D01*
X151213571Y-75608571D02*
X151213571Y-74108571D01*
X150713571Y-74108571D02*
X149856428Y-74108571D01*
X150284999Y-75608571D02*
X150284999Y-74108571D01*
D11*
X185117490Y-129603500D02*
G75*
G03X185117490Y-129603500I-141990J0D01*
G01*
X185039000Y-129603500D02*
G75*
G03X185039000Y-129603500I-63500J0D01*
G01*
D13*
G36*
X158611950Y-90333784D02*
X158420492Y-90441839D01*
X158276369Y-90619184D01*
X158196716Y-90810389D01*
X158169535Y-90903989D01*
X158123501Y-91064794D01*
X158060996Y-91284362D01*
X157984397Y-91554253D01*
X157896084Y-91866024D01*
X157798437Y-92211237D01*
X157693834Y-92581448D01*
X157584654Y-92968218D01*
X157473277Y-93363106D01*
X157362083Y-93757670D01*
X157253449Y-94143469D01*
X157149755Y-94512064D01*
X157053382Y-94855012D01*
X156966706Y-95163872D01*
X156892109Y-95430205D01*
X156831968Y-95645568D01*
X156788664Y-95801521D01*
X156764575Y-95889623D01*
X156760333Y-95906451D01*
X156799673Y-95915228D01*
X156905727Y-95922187D01*
X157060549Y-95926440D01*
X157182448Y-95927333D01*
X157604563Y-95927333D01*
X157687575Y-95641583D01*
X157736985Y-95470299D01*
X157798976Y-95253693D01*
X157863207Y-95027946D01*
X157890233Y-94932500D01*
X158009880Y-94509166D01*
X158831966Y-94497642D01*
X159088008Y-94495703D01*
X159314946Y-94497119D01*
X159499227Y-94501548D01*
X159627299Y-94508651D01*
X159685607Y-94518087D01*
X159687058Y-94519124D01*
X159708860Y-94569205D01*
X159748145Y-94686723D01*
X159800470Y-94857337D01*
X159861394Y-95066705D01*
X159906919Y-95229148D01*
X160093776Y-95906166D01*
X160522555Y-95918230D01*
X160701442Y-95921283D01*
X160843742Y-95919941D01*
X160931666Y-95914599D01*
X160951333Y-95908701D01*
X160940119Y-95862821D01*
X160908093Y-95744099D01*
X160857681Y-95561109D01*
X160791309Y-95322422D01*
X160711401Y-95036613D01*
X160620384Y-94712254D01*
X160520683Y-94357919D01*
X160414723Y-93982182D01*
X160314414Y-93627176D01*
X159457048Y-93627176D01*
X159450572Y-93649705D01*
X159404021Y-93665616D01*
X159306830Y-93675907D01*
X159148436Y-93681572D01*
X158918278Y-93683607D01*
X158857510Y-93683666D01*
X158616354Y-93682939D01*
X158447761Y-93679762D01*
X158339632Y-93672640D01*
X158279868Y-93660077D01*
X158256372Y-93640580D01*
X158257044Y-93612653D01*
X158257903Y-93609583D01*
X158276543Y-93545381D01*
X158314273Y-93415205D01*
X158366644Y-93234409D01*
X158429210Y-93018350D01*
X158475583Y-92858166D01*
X158549086Y-92604391D01*
X158621732Y-92353819D01*
X158687060Y-92128726D01*
X158738606Y-91951387D01*
X158757422Y-91886793D01*
X158807388Y-91731859D01*
X158845165Y-91654518D01*
X158873761Y-91649074D01*
X158878915Y-91656592D01*
X158900330Y-91714482D01*
X158940598Y-91841415D01*
X158995961Y-92024843D01*
X159062663Y-92252218D01*
X159136947Y-92510991D01*
X159175006Y-92645559D01*
X159250942Y-92914501D01*
X159320080Y-93157715D01*
X159378856Y-93362793D01*
X159423705Y-93517329D01*
X159451061Y-93608912D01*
X159457048Y-93627176D01*
X160314414Y-93627176D01*
X160304930Y-93593614D01*
X160193730Y-93200791D01*
X160083547Y-92812284D01*
X159976808Y-92436667D01*
X159875938Y-92082513D01*
X159783362Y-91758395D01*
X159701507Y-91472888D01*
X159632796Y-91234563D01*
X159579657Y-91051994D01*
X159544514Y-90933755D01*
X159536638Y-90908283D01*
X159438902Y-90654877D01*
X159324680Y-90476578D01*
X159183436Y-90364036D01*
X159004633Y-90307900D01*
X158848033Y-90297158D01*
X158611950Y-90333784D01*
X158611950Y-90333784D01*
G37*
X158611950Y-90333784D02*
X158420492Y-90441839D01*
X158276369Y-90619184D01*
X158196716Y-90810389D01*
X158169535Y-90903989D01*
X158123501Y-91064794D01*
X158060996Y-91284362D01*
X157984397Y-91554253D01*
X157896084Y-91866024D01*
X157798437Y-92211237D01*
X157693834Y-92581448D01*
X157584654Y-92968218D01*
X157473277Y-93363106D01*
X157362083Y-93757670D01*
X157253449Y-94143469D01*
X157149755Y-94512064D01*
X157053382Y-94855012D01*
X156966706Y-95163872D01*
X156892109Y-95430205D01*
X156831968Y-95645568D01*
X156788664Y-95801521D01*
X156764575Y-95889623D01*
X156760333Y-95906451D01*
X156799673Y-95915228D01*
X156905727Y-95922187D01*
X157060549Y-95926440D01*
X157182448Y-95927333D01*
X157604563Y-95927333D01*
X157687575Y-95641583D01*
X157736985Y-95470299D01*
X157798976Y-95253693D01*
X157863207Y-95027946D01*
X157890233Y-94932500D01*
X158009880Y-94509166D01*
X158831966Y-94497642D01*
X159088008Y-94495703D01*
X159314946Y-94497119D01*
X159499227Y-94501548D01*
X159627299Y-94508651D01*
X159685607Y-94518087D01*
X159687058Y-94519124D01*
X159708860Y-94569205D01*
X159748145Y-94686723D01*
X159800470Y-94857337D01*
X159861394Y-95066705D01*
X159906919Y-95229148D01*
X160093776Y-95906166D01*
X160522555Y-95918230D01*
X160701442Y-95921283D01*
X160843742Y-95919941D01*
X160931666Y-95914599D01*
X160951333Y-95908701D01*
X160940119Y-95862821D01*
X160908093Y-95744099D01*
X160857681Y-95561109D01*
X160791309Y-95322422D01*
X160711401Y-95036613D01*
X160620384Y-94712254D01*
X160520683Y-94357919D01*
X160414723Y-93982182D01*
X160314414Y-93627176D01*
X159457048Y-93627176D01*
X159450572Y-93649705D01*
X159404021Y-93665616D01*
X159306830Y-93675907D01*
X159148436Y-93681572D01*
X158918278Y-93683607D01*
X158857510Y-93683666D01*
X158616354Y-93682939D01*
X158447761Y-93679762D01*
X158339632Y-93672640D01*
X158279868Y-93660077D01*
X158256372Y-93640580D01*
X158257044Y-93612653D01*
X158257903Y-93609583D01*
X158276543Y-93545381D01*
X158314273Y-93415205D01*
X158366644Y-93234409D01*
X158429210Y-93018350D01*
X158475583Y-92858166D01*
X158549086Y-92604391D01*
X158621732Y-92353819D01*
X158687060Y-92128726D01*
X158738606Y-91951387D01*
X158757422Y-91886793D01*
X158807388Y-91731859D01*
X158845165Y-91654518D01*
X158873761Y-91649074D01*
X158878915Y-91656592D01*
X158900330Y-91714482D01*
X158940598Y-91841415D01*
X158995961Y-92024843D01*
X159062663Y-92252218D01*
X159136947Y-92510991D01*
X159175006Y-92645559D01*
X159250942Y-92914501D01*
X159320080Y-93157715D01*
X159378856Y-93362793D01*
X159423705Y-93517329D01*
X159451061Y-93608912D01*
X159457048Y-93627176D01*
X160314414Y-93627176D01*
X160304930Y-93593614D01*
X160193730Y-93200791D01*
X160083547Y-92812284D01*
X159976808Y-92436667D01*
X159875938Y-92082513D01*
X159783362Y-91758395D01*
X159701507Y-91472888D01*
X159632796Y-91234563D01*
X159579657Y-91051994D01*
X159544514Y-90933755D01*
X159536638Y-90908283D01*
X159438902Y-90654877D01*
X159324680Y-90476578D01*
X159183436Y-90364036D01*
X159004633Y-90307900D01*
X158848033Y-90297158D01*
X158611950Y-90333784D01*
G36*
X154135666Y-91101333D02*
X154340830Y-91101333D01*
X154479646Y-91104461D01*
X154668455Y-91112783D01*
X154872854Y-91124700D01*
X154933496Y-91128839D01*
X155321000Y-91156344D01*
X155321000Y-95927333D01*
X156167666Y-95927333D01*
X156167666Y-91101333D01*
X157353000Y-91101333D01*
X157353000Y-90297000D01*
X154135666Y-90297000D01*
X154135666Y-91101333D01*
X154135666Y-91101333D01*
G37*
X154135666Y-91101333D02*
X154340830Y-91101333D01*
X154479646Y-91104461D01*
X154668455Y-91112783D01*
X154872854Y-91124700D01*
X154933496Y-91128839D01*
X155321000Y-91156344D01*
X155321000Y-95927333D01*
X156167666Y-95927333D01*
X156167666Y-91101333D01*
X157353000Y-91101333D01*
X157353000Y-90297000D01*
X154135666Y-90297000D01*
X154135666Y-91101333D01*
G36*
X152346270Y-90329875D02*
X152248315Y-90365006D01*
X152125648Y-90450190D01*
X152024403Y-90563585D01*
X152020495Y-90569746D01*
X151997762Y-90628081D01*
X151954706Y-90759358D01*
X151893785Y-90955032D01*
X151817457Y-91206560D01*
X151728180Y-91505397D01*
X151628411Y-91842999D01*
X151520609Y-92210823D01*
X151407231Y-92600323D01*
X151290735Y-93002955D01*
X151173579Y-93410177D01*
X151058220Y-93813442D01*
X150947118Y-94204208D01*
X150842729Y-94573930D01*
X150747511Y-94914064D01*
X150663923Y-95216066D01*
X150594422Y-95471391D01*
X150541465Y-95671496D01*
X150507512Y-95807836D01*
X150495018Y-95871867D01*
X150495000Y-95872789D01*
X150518270Y-95899471D01*
X150595323Y-95916492D01*
X150737018Y-95925276D01*
X150910605Y-95927333D01*
X151326209Y-95927333D01*
X151506121Y-95281750D01*
X151569210Y-95055480D01*
X151625417Y-94854106D01*
X151670300Y-94693531D01*
X151699414Y-94589655D01*
X151707202Y-94562083D01*
X151721143Y-94536408D01*
X151753686Y-94517413D01*
X151816069Y-94504109D01*
X151919533Y-94495506D01*
X152075313Y-94490614D01*
X152294651Y-94488444D01*
X152548521Y-94488000D01*
X152855715Y-94489572D01*
X153086288Y-94494618D01*
X153248230Y-94503632D01*
X153349535Y-94517106D01*
X153398194Y-94535534D01*
X153402918Y-94540735D01*
X153425930Y-94597762D01*
X153467325Y-94721153D01*
X153522317Y-94895837D01*
X153586117Y-95106746D01*
X153628208Y-95249819D01*
X153819249Y-95906166D01*
X154231458Y-95918282D01*
X154428020Y-95921661D01*
X154553383Y-95916907D01*
X154620750Y-95902544D01*
X154643327Y-95877099D01*
X154643666Y-95872243D01*
X154632559Y-95819965D01*
X154600858Y-95695196D01*
X154550997Y-95506922D01*
X154485410Y-95264129D01*
X154406531Y-94975801D01*
X154316793Y-94650923D01*
X154218630Y-94298481D01*
X154181756Y-94166794D01*
X154032958Y-93636249D01*
X153162000Y-93636249D01*
X153127031Y-93657450D01*
X153019481Y-93672208D01*
X152835388Y-93680842D01*
X152570788Y-93683666D01*
X152569333Y-93683666D01*
X152356335Y-93681368D01*
X152177295Y-93675056D01*
X152047360Y-93665605D01*
X151981675Y-93653890D01*
X151976666Y-93649448D01*
X151988080Y-93593476D01*
X152019653Y-93471545D01*
X152067382Y-93297372D01*
X152127266Y-93084674D01*
X152195303Y-92847169D01*
X152267491Y-92598573D01*
X152339826Y-92352603D01*
X152408309Y-92122976D01*
X152468935Y-91923410D01*
X152517703Y-91767622D01*
X152550611Y-91669327D01*
X152562488Y-91641578D01*
X152580286Y-91673161D01*
X152617104Y-91773086D01*
X152668989Y-91928203D01*
X152731991Y-92125365D01*
X152802155Y-92351423D01*
X152875532Y-92593227D01*
X152948168Y-92837628D01*
X153016112Y-93071478D01*
X153075411Y-93281628D01*
X153122115Y-93454929D01*
X153152270Y-93578233D01*
X153162000Y-93636249D01*
X154032958Y-93636249D01*
X154004790Y-93535815D01*
X153848988Y-92981233D01*
X153712634Y-92497928D01*
X153594013Y-92080780D01*
X153491409Y-91724668D01*
X153403106Y-91424473D01*
X153327390Y-91175075D01*
X153262543Y-90971353D01*
X153206852Y-90808189D01*
X153158599Y-90680460D01*
X153116070Y-90583049D01*
X153077549Y-90510834D01*
X153041320Y-90458697D01*
X153005669Y-90421515D01*
X152968878Y-90394171D01*
X152929233Y-90371543D01*
X152906015Y-90359473D01*
X152742149Y-90310456D01*
X152542536Y-90300700D01*
X152346270Y-90329875D01*
X152346270Y-90329875D01*
G37*
X152346270Y-90329875D02*
X152248315Y-90365006D01*
X152125648Y-90450190D01*
X152024403Y-90563585D01*
X152020495Y-90569746D01*
X151997762Y-90628081D01*
X151954706Y-90759358D01*
X151893785Y-90955032D01*
X151817457Y-91206560D01*
X151728180Y-91505397D01*
X151628411Y-91842999D01*
X151520609Y-92210823D01*
X151407231Y-92600323D01*
X151290735Y-93002955D01*
X151173579Y-93410177D01*
X151058220Y-93813442D01*
X150947118Y-94204208D01*
X150842729Y-94573930D01*
X150747511Y-94914064D01*
X150663923Y-95216066D01*
X150594422Y-95471391D01*
X150541465Y-95671496D01*
X150507512Y-95807836D01*
X150495018Y-95871867D01*
X150495000Y-95872789D01*
X150518270Y-95899471D01*
X150595323Y-95916492D01*
X150737018Y-95925276D01*
X150910605Y-95927333D01*
X151326209Y-95927333D01*
X151506121Y-95281750D01*
X151569210Y-95055480D01*
X151625417Y-94854106D01*
X151670300Y-94693531D01*
X151699414Y-94589655D01*
X151707202Y-94562083D01*
X151721143Y-94536408D01*
X151753686Y-94517413D01*
X151816069Y-94504109D01*
X151919533Y-94495506D01*
X152075313Y-94490614D01*
X152294651Y-94488444D01*
X152548521Y-94488000D01*
X152855715Y-94489572D01*
X153086288Y-94494618D01*
X153248230Y-94503632D01*
X153349535Y-94517106D01*
X153398194Y-94535534D01*
X153402918Y-94540735D01*
X153425930Y-94597762D01*
X153467325Y-94721153D01*
X153522317Y-94895837D01*
X153586117Y-95106746D01*
X153628208Y-95249819D01*
X153819249Y-95906166D01*
X154231458Y-95918282D01*
X154428020Y-95921661D01*
X154553383Y-95916907D01*
X154620750Y-95902544D01*
X154643327Y-95877099D01*
X154643666Y-95872243D01*
X154632559Y-95819965D01*
X154600858Y-95695196D01*
X154550997Y-95506922D01*
X154485410Y-95264129D01*
X154406531Y-94975801D01*
X154316793Y-94650923D01*
X154218630Y-94298481D01*
X154181756Y-94166794D01*
X154032958Y-93636249D01*
X153162000Y-93636249D01*
X153127031Y-93657450D01*
X153019481Y-93672208D01*
X152835388Y-93680842D01*
X152570788Y-93683666D01*
X152569333Y-93683666D01*
X152356335Y-93681368D01*
X152177295Y-93675056D01*
X152047360Y-93665605D01*
X151981675Y-93653890D01*
X151976666Y-93649448D01*
X151988080Y-93593476D01*
X152019653Y-93471545D01*
X152067382Y-93297372D01*
X152127266Y-93084674D01*
X152195303Y-92847169D01*
X152267491Y-92598573D01*
X152339826Y-92352603D01*
X152408309Y-92122976D01*
X152468935Y-91923410D01*
X152517703Y-91767622D01*
X152550611Y-91669327D01*
X152562488Y-91641578D01*
X152580286Y-91673161D01*
X152617104Y-91773086D01*
X152668989Y-91928203D01*
X152731991Y-92125365D01*
X152802155Y-92351423D01*
X152875532Y-92593227D01*
X152948168Y-92837628D01*
X153016112Y-93071478D01*
X153075411Y-93281628D01*
X153122115Y-93454929D01*
X153152270Y-93578233D01*
X153162000Y-93636249D01*
X154032958Y-93636249D01*
X154004790Y-93535815D01*
X153848988Y-92981233D01*
X153712634Y-92497928D01*
X153594013Y-92080780D01*
X153491409Y-91724668D01*
X153403106Y-91424473D01*
X153327390Y-91175075D01*
X153262543Y-90971353D01*
X153206852Y-90808189D01*
X153158599Y-90680460D01*
X153116070Y-90583049D01*
X153077549Y-90510834D01*
X153041320Y-90458697D01*
X153005669Y-90421515D01*
X152968878Y-90394171D01*
X152929233Y-90371543D01*
X152906015Y-90359473D01*
X152742149Y-90310456D01*
X152542536Y-90300700D01*
X152346270Y-90329875D01*
G36*
X148966969Y-90301346D02*
X148694056Y-90305165D01*
X148674666Y-90305478D01*
X148397503Y-90310440D01*
X148189919Y-90316349D01*
X148036835Y-90325146D01*
X147923170Y-90338769D01*
X147833843Y-90359161D01*
X147753774Y-90388260D01*
X147667883Y-90428007D01*
X147648480Y-90437502D01*
X147348338Y-90630948D01*
X147101770Y-90889458D01*
X146922546Y-91186000D01*
X146866216Y-91308705D01*
X146828736Y-91411901D01*
X146806285Y-91518305D01*
X146795043Y-91650635D01*
X146791189Y-91831609D01*
X146790833Y-91969166D01*
X146792387Y-92191670D01*
X146799381Y-92351984D01*
X146815314Y-92472560D01*
X146843682Y-92575852D01*
X146887984Y-92684315D01*
X146909542Y-92731166D01*
X147028902Y-92948197D01*
X147174222Y-93130061D01*
X147365324Y-93298206D01*
X147558795Y-93433550D01*
X147690129Y-93525025D01*
X147791540Y-93606661D01*
X147842883Y-93662100D01*
X147844484Y-93665563D01*
X147853093Y-93703954D01*
X147848197Y-93752127D01*
X147825316Y-93818004D01*
X147779970Y-93909506D01*
X147707679Y-94034553D01*
X147603964Y-94201066D01*
X147464344Y-94416968D01*
X147284340Y-94690179D01*
X147153647Y-94887078D01*
X146985685Y-95141136D01*
X146834280Y-95372888D01*
X146705507Y-95572817D01*
X146605438Y-95731402D01*
X146540148Y-95839124D01*
X146515709Y-95886467D01*
X146515666Y-95886995D01*
X146555486Y-95904056D01*
X146664964Y-95917297D01*
X146829130Y-95925406D01*
X146976478Y-95927333D01*
X147437289Y-95927333D01*
X148127314Y-94879583D01*
X148325755Y-94577565D01*
X148482334Y-94336699D01*
X148602170Y-94147701D01*
X148690380Y-94001287D01*
X148752082Y-93888172D01*
X148792393Y-93799070D01*
X148816431Y-93724698D01*
X148829315Y-93655770D01*
X148835266Y-93595204D01*
X148838141Y-93414198D01*
X148807767Y-93274960D01*
X148732750Y-93161408D01*
X148601698Y-93057459D01*
X148403219Y-92947031D01*
X148361308Y-92926140D01*
X148087336Y-92767676D01*
X147869046Y-92592890D01*
X147715621Y-92410731D01*
X147636247Y-92230149D01*
X147633533Y-92216912D01*
X147621498Y-92092467D01*
X147619722Y-91928146D01*
X147624676Y-91818981D01*
X147663912Y-91593180D01*
X147753231Y-91419334D01*
X147906462Y-91272887D01*
X147949355Y-91242430D01*
X148085219Y-91182219D01*
X148277936Y-91137799D01*
X148500643Y-91112331D01*
X148726471Y-91108980D01*
X148916301Y-91128585D01*
X149041360Y-91157633D01*
X149107263Y-91197185D01*
X149139192Y-91265211D01*
X149145551Y-91292175D01*
X149150820Y-91357919D01*
X149155937Y-91499970D01*
X149160791Y-91709970D01*
X149165267Y-91979558D01*
X149169255Y-92300376D01*
X149172640Y-92664065D01*
X149175310Y-93062265D01*
X149177152Y-93486616D01*
X149177658Y-93673083D01*
X149182666Y-95927333D01*
X149987000Y-95927333D01*
X149987000Y-93354922D01*
X149987105Y-92801446D01*
X149986931Y-92326274D01*
X149985746Y-91923042D01*
X149982814Y-91585389D01*
X149977403Y-91306952D01*
X149968780Y-91081370D01*
X149956210Y-90902279D01*
X149938961Y-90763319D01*
X149916299Y-90658126D01*
X149887490Y-90580338D01*
X149851801Y-90523593D01*
X149808499Y-90481529D01*
X149756850Y-90447784D01*
X149696120Y-90415995D01*
X149645201Y-90390145D01*
X149574944Y-90355816D01*
X149506618Y-90330960D01*
X149425940Y-90314331D01*
X149318628Y-90304683D01*
X149170399Y-90300770D01*
X148966969Y-90301346D01*
X148966969Y-90301346D01*
G37*
X148966969Y-90301346D02*
X148694056Y-90305165D01*
X148674666Y-90305478D01*
X148397503Y-90310440D01*
X148189919Y-90316349D01*
X148036835Y-90325146D01*
X147923170Y-90338769D01*
X147833843Y-90359161D01*
X147753774Y-90388260D01*
X147667883Y-90428007D01*
X147648480Y-90437502D01*
X147348338Y-90630948D01*
X147101770Y-90889458D01*
X146922546Y-91186000D01*
X146866216Y-91308705D01*
X146828736Y-91411901D01*
X146806285Y-91518305D01*
X146795043Y-91650635D01*
X146791189Y-91831609D01*
X146790833Y-91969166D01*
X146792387Y-92191670D01*
X146799381Y-92351984D01*
X146815314Y-92472560D01*
X146843682Y-92575852D01*
X146887984Y-92684315D01*
X146909542Y-92731166D01*
X147028902Y-92948197D01*
X147174222Y-93130061D01*
X147365324Y-93298206D01*
X147558795Y-93433550D01*
X147690129Y-93525025D01*
X147791540Y-93606661D01*
X147842883Y-93662100D01*
X147844484Y-93665563D01*
X147853093Y-93703954D01*
X147848197Y-93752127D01*
X147825316Y-93818004D01*
X147779970Y-93909506D01*
X147707679Y-94034553D01*
X147603964Y-94201066D01*
X147464344Y-94416968D01*
X147284340Y-94690179D01*
X147153647Y-94887078D01*
X146985685Y-95141136D01*
X146834280Y-95372888D01*
X146705507Y-95572817D01*
X146605438Y-95731402D01*
X146540148Y-95839124D01*
X146515709Y-95886467D01*
X146515666Y-95886995D01*
X146555486Y-95904056D01*
X146664964Y-95917297D01*
X146829130Y-95925406D01*
X146976478Y-95927333D01*
X147437289Y-95927333D01*
X148127314Y-94879583D01*
X148325755Y-94577565D01*
X148482334Y-94336699D01*
X148602170Y-94147701D01*
X148690380Y-94001287D01*
X148752082Y-93888172D01*
X148792393Y-93799070D01*
X148816431Y-93724698D01*
X148829315Y-93655770D01*
X148835266Y-93595204D01*
X148838141Y-93414198D01*
X148807767Y-93274960D01*
X148732750Y-93161408D01*
X148601698Y-93057459D01*
X148403219Y-92947031D01*
X148361308Y-92926140D01*
X148087336Y-92767676D01*
X147869046Y-92592890D01*
X147715621Y-92410731D01*
X147636247Y-92230149D01*
X147633533Y-92216912D01*
X147621498Y-92092467D01*
X147619722Y-91928146D01*
X147624676Y-91818981D01*
X147663912Y-91593180D01*
X147753231Y-91419334D01*
X147906462Y-91272887D01*
X147949355Y-91242430D01*
X148085219Y-91182219D01*
X148277936Y-91137799D01*
X148500643Y-91112331D01*
X148726471Y-91108980D01*
X148916301Y-91128585D01*
X149041360Y-91157633D01*
X149107263Y-91197185D01*
X149139192Y-91265211D01*
X149145551Y-91292175D01*
X149150820Y-91357919D01*
X149155937Y-91499970D01*
X149160791Y-91709970D01*
X149165267Y-91979558D01*
X149169255Y-92300376D01*
X149172640Y-92664065D01*
X149175310Y-93062265D01*
X149177152Y-93486616D01*
X149177658Y-93673083D01*
X149182666Y-95927333D01*
X149987000Y-95927333D01*
X149987000Y-93354922D01*
X149987105Y-92801446D01*
X149986931Y-92326274D01*
X149985746Y-91923042D01*
X149982814Y-91585389D01*
X149977403Y-91306952D01*
X149968780Y-91081370D01*
X149956210Y-90902279D01*
X149938961Y-90763319D01*
X149916299Y-90658126D01*
X149887490Y-90580338D01*
X149851801Y-90523593D01*
X149808499Y-90481529D01*
X149756850Y-90447784D01*
X149696120Y-90415995D01*
X149645201Y-90390145D01*
X149574944Y-90355816D01*
X149506618Y-90330960D01*
X149425940Y-90314331D01*
X149318628Y-90304683D01*
X149170399Y-90300770D01*
X148966969Y-90301346D01*
G36*
X145161000Y-95927333D02*
X145556111Y-95927333D01*
X145731357Y-95924487D01*
X145873276Y-95916853D01*
X145961513Y-95905790D01*
X145979444Y-95899111D01*
X145984282Y-95853012D01*
X145988858Y-95729327D01*
X145993101Y-95535135D01*
X145996940Y-95277516D01*
X146000304Y-94963550D01*
X146003122Y-94600316D01*
X146005324Y-94194895D01*
X146006838Y-93754365D01*
X146007593Y-93285807D01*
X146007666Y-93083944D01*
X146007666Y-90297000D01*
X145161000Y-90297000D01*
X145161000Y-95927333D01*
X145161000Y-95927333D01*
G37*
X145161000Y-95927333D02*
X145556111Y-95927333D01*
X145731357Y-95924487D01*
X145873276Y-95916853D01*
X145961513Y-95905790D01*
X145979444Y-95899111D01*
X145984282Y-95853012D01*
X145988858Y-95729327D01*
X145993101Y-95535135D01*
X145996940Y-95277516D01*
X146000304Y-94963550D01*
X146003122Y-94600316D01*
X146005324Y-94194895D01*
X146006838Y-93754365D01*
X146007593Y-93285807D01*
X146007666Y-93083944D01*
X146007666Y-90297000D01*
X145161000Y-90297000D01*
X145161000Y-95927333D01*
G36*
X144474726Y-89435703D02*
X144432414Y-89465712D01*
X144352536Y-89562937D01*
X144299843Y-89692908D01*
X144289662Y-89814472D01*
X144294591Y-89835820D01*
X144360355Y-89936724D01*
X144471724Y-90027268D01*
X144592263Y-90080494D01*
X144631833Y-90085333D01*
X144730986Y-90059685D01*
X144837307Y-89997973D01*
X144837791Y-89997594D01*
X144928657Y-89877898D01*
X144953828Y-89730995D01*
X144912995Y-89583465D01*
X144843667Y-89492823D01*
X144767330Y-89432394D01*
X144718596Y-89414279D01*
X144715346Y-89416209D01*
X144730059Y-89451990D01*
X144796898Y-89507129D01*
X144799845Y-89509074D01*
X144882414Y-89607456D01*
X144913381Y-89739379D01*
X144891840Y-89872441D01*
X144816888Y-89974239D01*
X144812914Y-89977099D01*
X144672947Y-90036460D01*
X144543852Y-90026832D01*
X144437472Y-89963886D01*
X144365647Y-89863295D01*
X144340221Y-89740730D01*
X144373033Y-89611864D01*
X144457805Y-89507133D01*
X144528167Y-89435901D01*
X144532045Y-89409217D01*
X144474726Y-89435703D01*
X144474726Y-89435703D01*
G37*
X144474726Y-89435703D02*
X144432414Y-89465712D01*
X144352536Y-89562937D01*
X144299843Y-89692908D01*
X144289662Y-89814472D01*
X144294591Y-89835820D01*
X144360355Y-89936724D01*
X144471724Y-90027268D01*
X144592263Y-90080494D01*
X144631833Y-90085333D01*
X144730986Y-90059685D01*
X144837307Y-89997973D01*
X144837791Y-89997594D01*
X144928657Y-89877898D01*
X144953828Y-89730995D01*
X144912995Y-89583465D01*
X144843667Y-89492823D01*
X144767330Y-89432394D01*
X144718596Y-89414279D01*
X144715346Y-89416209D01*
X144730059Y-89451990D01*
X144796898Y-89507129D01*
X144799845Y-89509074D01*
X144882414Y-89607456D01*
X144913381Y-89739379D01*
X144891840Y-89872441D01*
X144816888Y-89974239D01*
X144812914Y-89977099D01*
X144672947Y-90036460D01*
X144543852Y-90026832D01*
X144437472Y-89963886D01*
X144365647Y-89863295D01*
X144340221Y-89740730D01*
X144373033Y-89611864D01*
X144457805Y-89507133D01*
X144528167Y-89435901D01*
X144532045Y-89409217D01*
X144474726Y-89435703D01*
G36*
X144581253Y-89567444D02*
X144551415Y-89617864D01*
X144545590Y-89704385D01*
X144535293Y-89823841D01*
X144512445Y-89912357D01*
X144510615Y-89916052D01*
X144510112Y-89933829D01*
X144552969Y-89893566D01*
X144561310Y-89884250D01*
X144627531Y-89816656D01*
X144667425Y-89789000D01*
X144690856Y-89824787D01*
X144706107Y-89884250D01*
X144722738Y-89946239D01*
X144744453Y-89930032D01*
X144754368Y-89909446D01*
X144772610Y-89819405D01*
X144772597Y-89699882D01*
X144772399Y-89697779D01*
X144765192Y-89662000D01*
X144695333Y-89662000D01*
X144675827Y-89729143D01*
X144642416Y-89736083D01*
X144593257Y-89684088D01*
X144589500Y-89662000D01*
X144622883Y-89598435D01*
X144642416Y-89587916D01*
X144684904Y-89607564D01*
X144695333Y-89662000D01*
X144765192Y-89662000D01*
X144752608Y-89599528D01*
X144705453Y-89560957D01*
X144653000Y-89556166D01*
X144581253Y-89567444D01*
X144581253Y-89567444D01*
G37*
X144581253Y-89567444D02*
X144551415Y-89617864D01*
X144545590Y-89704385D01*
X144535293Y-89823841D01*
X144512445Y-89912357D01*
X144510615Y-89916052D01*
X144510112Y-89933829D01*
X144552969Y-89893566D01*
X144561310Y-89884250D01*
X144627531Y-89816656D01*
X144667425Y-89789000D01*
X144690856Y-89824787D01*
X144706107Y-89884250D01*
X144722738Y-89946239D01*
X144744453Y-89930032D01*
X144754368Y-89909446D01*
X144772610Y-89819405D01*
X144772597Y-89699882D01*
X144772399Y-89697779D01*
X144765192Y-89662000D01*
X144695333Y-89662000D01*
X144675827Y-89729143D01*
X144642416Y-89736083D01*
X144593257Y-89684088D01*
X144589500Y-89662000D01*
X144622883Y-89598435D01*
X144642416Y-89587916D01*
X144684904Y-89607564D01*
X144695333Y-89662000D01*
X144765192Y-89662000D01*
X144752608Y-89599528D01*
X144705453Y-89560957D01*
X144653000Y-89556166D01*
X144581253Y-89567444D01*
G36*
X154236165Y-78708249D02*
X154249843Y-79513256D01*
X154267340Y-80240119D01*
X154289548Y-80895312D01*
X154317360Y-81485308D01*
X154351670Y-82016581D01*
X154393369Y-82495603D01*
X154443352Y-82928847D01*
X154502511Y-83322786D01*
X154571738Y-83683894D01*
X154651927Y-84018643D01*
X154743971Y-84333507D01*
X154848763Y-84634959D01*
X154967195Y-84929471D01*
X155100161Y-85223518D01*
X155148842Y-85324544D01*
X155396076Y-85782939D01*
X155671477Y-86195587D01*
X155994079Y-86588826D01*
X156276145Y-86884567D01*
X156865612Y-87417660D01*
X157498069Y-87890161D01*
X158164686Y-88297208D01*
X158856631Y-88633941D01*
X159565075Y-88895500D01*
X160246824Y-89070221D01*
X160426699Y-89105617D01*
X160575746Y-89133615D01*
X160674286Y-89150591D01*
X160701908Y-89154000D01*
X160712933Y-89113597D01*
X160722646Y-89000102D01*
X160730587Y-88825085D01*
X160736295Y-88600117D01*
X160739310Y-88336768D01*
X160739666Y-88204501D01*
X160739666Y-87255002D01*
X160496250Y-87205036D01*
X159936391Y-87055489D01*
X159371323Y-86839858D01*
X158828559Y-86570147D01*
X158350525Y-86268998D01*
X157949186Y-85953107D01*
X157545891Y-85578994D01*
X157156859Y-85165017D01*
X156798313Y-84729537D01*
X156486472Y-84290914D01*
X156250267Y-83891850D01*
X156039732Y-83440057D01*
X155852720Y-82927932D01*
X155688742Y-82352645D01*
X155547306Y-81711364D01*
X155427921Y-81001261D01*
X155330097Y-80219504D01*
X155253341Y-79363263D01*
X155197164Y-78429708D01*
X155167430Y-77649916D01*
X155138358Y-76665666D01*
X154207039Y-76665666D01*
X154236165Y-78708249D01*
X154236165Y-78708249D01*
G37*
X154236165Y-78708249D02*
X154249843Y-79513256D01*
X154267340Y-80240119D01*
X154289548Y-80895312D01*
X154317360Y-81485308D01*
X154351670Y-82016581D01*
X154393369Y-82495603D01*
X154443352Y-82928847D01*
X154502511Y-83322786D01*
X154571738Y-83683894D01*
X154651927Y-84018643D01*
X154743971Y-84333507D01*
X154848763Y-84634959D01*
X154967195Y-84929471D01*
X155100161Y-85223518D01*
X155148842Y-85324544D01*
X155396076Y-85782939D01*
X155671477Y-86195587D01*
X155994079Y-86588826D01*
X156276145Y-86884567D01*
X156865612Y-87417660D01*
X157498069Y-87890161D01*
X158164686Y-88297208D01*
X158856631Y-88633941D01*
X159565075Y-88895500D01*
X160246824Y-89070221D01*
X160426699Y-89105617D01*
X160575746Y-89133615D01*
X160674286Y-89150591D01*
X160701908Y-89154000D01*
X160712933Y-89113597D01*
X160722646Y-89000102D01*
X160730587Y-88825085D01*
X160736295Y-88600117D01*
X160739310Y-88336768D01*
X160739666Y-88204501D01*
X160739666Y-87255002D01*
X160496250Y-87205036D01*
X159936391Y-87055489D01*
X159371323Y-86839858D01*
X158828559Y-86570147D01*
X158350525Y-86268998D01*
X157949186Y-85953107D01*
X157545891Y-85578994D01*
X157156859Y-85165017D01*
X156798313Y-84729537D01*
X156486472Y-84290914D01*
X156250267Y-83891850D01*
X156039732Y-83440057D01*
X155852720Y-82927932D01*
X155688742Y-82352645D01*
X155547306Y-81711364D01*
X155427921Y-81001261D01*
X155330097Y-80219504D01*
X155253341Y-79363263D01*
X155197164Y-78429708D01*
X155167430Y-77649916D01*
X155138358Y-76665666D01*
X154207039Y-76665666D01*
X154236165Y-78708249D01*
G36*
X152019000Y-89154000D02*
X153839333Y-89154000D01*
X153839333Y-76665666D01*
X152019000Y-76665666D01*
X152019000Y-89154000D01*
X152019000Y-89154000D01*
G37*
X152019000Y-89154000D02*
X153839333Y-89154000D01*
X153839333Y-76665666D01*
X152019000Y-76665666D01*
X152019000Y-89154000D01*
G36*
X150706449Y-77311250D02*
X150691531Y-78191580D01*
X150648323Y-79061673D01*
X150578255Y-79907928D01*
X150482755Y-80716744D01*
X150363252Y-81474522D01*
X150221174Y-82167660D01*
X150177087Y-82350117D01*
X150017659Y-82919313D01*
X149836681Y-83426508D01*
X149624621Y-83888380D01*
X149371948Y-84321606D01*
X149069128Y-84742865D01*
X148706630Y-85168834D01*
X148357166Y-85534344D01*
X147848894Y-86001980D01*
X147331990Y-86390758D01*
X146796237Y-86706471D01*
X146231415Y-86954913D01*
X145627306Y-87141876D01*
X145445952Y-87184837D01*
X145117070Y-87257854D01*
X145128452Y-88194788D01*
X145132955Y-88505033D01*
X145138458Y-88740472D01*
X145145742Y-88910963D01*
X145155587Y-89026365D01*
X145168776Y-89096539D01*
X145186088Y-89131343D01*
X145203333Y-89140333D01*
X145270971Y-89135736D01*
X145398952Y-89116207D01*
X145565009Y-89085361D01*
X145653046Y-89067313D01*
X146394835Y-88867958D01*
X147121275Y-88588407D01*
X147825030Y-88232748D01*
X148498764Y-87805072D01*
X149135144Y-87309468D01*
X149628198Y-86850986D01*
X150016370Y-86429051D01*
X150338199Y-86007493D01*
X150609098Y-85564678D01*
X150765217Y-85255107D01*
X150902098Y-84947268D01*
X151023891Y-84637898D01*
X151131479Y-84320376D01*
X151225743Y-83988082D01*
X151307565Y-83634394D01*
X151377825Y-83252693D01*
X151437407Y-82836357D01*
X151487190Y-82378765D01*
X151528058Y-81873297D01*
X151560891Y-81313331D01*
X151586570Y-80692248D01*
X151605979Y-80003426D01*
X151619997Y-79240245D01*
X151625658Y-78792916D01*
X151649007Y-76665666D01*
X150706666Y-76665666D01*
X150706449Y-77311250D01*
X150706449Y-77311250D01*
G37*
X150706449Y-77311250D02*
X150691531Y-78191580D01*
X150648323Y-79061673D01*
X150578255Y-79907928D01*
X150482755Y-80716744D01*
X150363252Y-81474522D01*
X150221174Y-82167660D01*
X150177087Y-82350117D01*
X150017659Y-82919313D01*
X149836681Y-83426508D01*
X149624621Y-83888380D01*
X149371948Y-84321606D01*
X149069128Y-84742865D01*
X148706630Y-85168834D01*
X148357166Y-85534344D01*
X147848894Y-86001980D01*
X147331990Y-86390758D01*
X146796237Y-86706471D01*
X146231415Y-86954913D01*
X145627306Y-87141876D01*
X145445952Y-87184837D01*
X145117070Y-87257854D01*
X145128452Y-88194788D01*
X145132955Y-88505033D01*
X145138458Y-88740472D01*
X145145742Y-88910963D01*
X145155587Y-89026365D01*
X145168776Y-89096539D01*
X145186088Y-89131343D01*
X145203333Y-89140333D01*
X145270971Y-89135736D01*
X145398952Y-89116207D01*
X145565009Y-89085361D01*
X145653046Y-89067313D01*
X146394835Y-88867958D01*
X147121275Y-88588407D01*
X147825030Y-88232748D01*
X148498764Y-87805072D01*
X149135144Y-87309468D01*
X149628198Y-86850986D01*
X150016370Y-86429051D01*
X150338199Y-86007493D01*
X150609098Y-85564678D01*
X150765217Y-85255107D01*
X150902098Y-84947268D01*
X151023891Y-84637898D01*
X151131479Y-84320376D01*
X151225743Y-83988082D01*
X151307565Y-83634394D01*
X151377825Y-83252693D01*
X151437407Y-82836357D01*
X151487190Y-82378765D01*
X151528058Y-81873297D01*
X151560891Y-81313331D01*
X151586570Y-80692248D01*
X151605979Y-80003426D01*
X151619997Y-79240245D01*
X151625658Y-78792916D01*
X151649007Y-76665666D01*
X150706666Y-76665666D01*
X150706449Y-77311250D01*
D11*
X149494857Y-128101286D02*
X149923429Y-128101286D01*
X149709143Y-128101286D02*
X149709143Y-127351286D01*
X149780572Y-127458429D01*
X149852000Y-127529857D01*
X149923429Y-127565571D01*
X148816286Y-127351286D02*
X149173429Y-127351286D01*
X149209143Y-127708429D01*
X149173429Y-127672714D01*
X149102000Y-127637000D01*
X148923429Y-127637000D01*
X148852000Y-127672714D01*
X148816286Y-127708429D01*
X148780571Y-127779857D01*
X148780571Y-127958429D01*
X148816286Y-128029857D01*
X148852000Y-128065571D01*
X148923429Y-128101286D01*
X149102000Y-128101286D01*
X149173429Y-128065571D01*
X149209143Y-128029857D01*
X184697714Y-128101286D02*
X185126286Y-128101286D01*
X184912000Y-128101286D02*
X184912000Y-127351286D01*
X184983429Y-127458429D01*
X185054857Y-127529857D01*
X185126286Y-127565571D01*
X172020952Y-128706571D02*
X171878095Y-128754190D01*
X171830476Y-128801810D01*
X171782857Y-128897048D01*
X171782857Y-129039905D01*
X171830476Y-129135143D01*
X171878095Y-129182762D01*
X171973333Y-129230381D01*
X172354286Y-129230381D01*
X172354286Y-128230381D01*
X172020952Y-128230381D01*
X171925714Y-128278000D01*
X171878095Y-128325619D01*
X171830476Y-128420857D01*
X171830476Y-128516095D01*
X171878095Y-128611333D01*
X171925714Y-128658952D01*
X172020952Y-128706571D01*
X172354286Y-128706571D01*
X170925714Y-129230381D02*
X170925714Y-128706571D01*
X170973333Y-128611333D01*
X171068571Y-128563714D01*
X171259048Y-128563714D01*
X171354286Y-128611333D01*
X170925714Y-129182762D02*
X171020952Y-129230381D01*
X171259048Y-129230381D01*
X171354286Y-129182762D01*
X171401905Y-129087524D01*
X171401905Y-128992286D01*
X171354286Y-128897048D01*
X171259048Y-128849429D01*
X171020952Y-128849429D01*
X170925714Y-128801810D01*
X170020952Y-129182762D02*
X170116190Y-129230381D01*
X170306667Y-129230381D01*
X170401905Y-129182762D01*
X170449524Y-129135143D01*
X170497143Y-129039905D01*
X170497143Y-128754190D01*
X170449524Y-128658952D01*
X170401905Y-128611333D01*
X170306667Y-128563714D01*
X170116190Y-128563714D01*
X170020952Y-128611333D01*
X169592381Y-129230381D02*
X169592381Y-128230381D01*
X169497143Y-128849429D02*
X169211428Y-129230381D01*
X169211428Y-128563714D02*
X169592381Y-128944667D01*
X168068571Y-128182762D02*
X168925714Y-129468476D01*
X167401904Y-128706571D02*
X167259047Y-128754190D01*
X167211428Y-128801810D01*
X167163809Y-128897048D01*
X167163809Y-129039905D01*
X167211428Y-129135143D01*
X167259047Y-129182762D01*
X167354285Y-129230381D01*
X167735238Y-129230381D01*
X167735238Y-128230381D01*
X167401904Y-128230381D01*
X167306666Y-128278000D01*
X167259047Y-128325619D01*
X167211428Y-128420857D01*
X167211428Y-128516095D01*
X167259047Y-128611333D01*
X167306666Y-128658952D01*
X167401904Y-128706571D01*
X167735238Y-128706571D01*
X166592381Y-129230381D02*
X166687619Y-129182762D01*
X166735238Y-129135143D01*
X166782857Y-129039905D01*
X166782857Y-128754190D01*
X166735238Y-128658952D01*
X166687619Y-128611333D01*
X166592381Y-128563714D01*
X166449523Y-128563714D01*
X166354285Y-128611333D01*
X166306666Y-128658952D01*
X166259047Y-128754190D01*
X166259047Y-129039905D01*
X166306666Y-129135143D01*
X166354285Y-129182762D01*
X166449523Y-129230381D01*
X166592381Y-129230381D01*
X165973333Y-128563714D02*
X165592381Y-128563714D01*
X165830476Y-128230381D02*
X165830476Y-129087524D01*
X165782857Y-129182762D01*
X165687619Y-129230381D01*
X165592381Y-129230381D01*
X165401904Y-128563714D02*
X165020952Y-128563714D01*
X165259047Y-128230381D02*
X165259047Y-129087524D01*
X165211428Y-129182762D01*
X165116190Y-129230381D01*
X165020952Y-129230381D01*
X164544761Y-129230381D02*
X164639999Y-129182762D01*
X164687618Y-129135143D01*
X164735237Y-129039905D01*
X164735237Y-128754190D01*
X164687618Y-128658952D01*
X164639999Y-128611333D01*
X164544761Y-128563714D01*
X164401903Y-128563714D01*
X164306665Y-128611333D01*
X164259046Y-128658952D01*
X164211427Y-128754190D01*
X164211427Y-129039905D01*
X164259046Y-129135143D01*
X164306665Y-129182762D01*
X164401903Y-129230381D01*
X164544761Y-129230381D01*
X163782856Y-129230381D02*
X163782856Y-128563714D01*
X163782856Y-128658952D02*
X163735237Y-128611333D01*
X163639999Y-128563714D01*
X163497141Y-128563714D01*
X163401903Y-128611333D01*
X163354284Y-128706571D01*
X163354284Y-129230381D01*
X163354284Y-128706571D02*
X163306665Y-128611333D01*
X163211427Y-128563714D01*
X163068570Y-128563714D01*
X162973332Y-128611333D01*
X162925713Y-128706571D01*
X162925713Y-129230381D01*
X149709143Y-129833810D02*
X149756762Y-129786191D01*
X149804381Y-129643334D01*
X149804381Y-129548096D01*
X149756762Y-129405238D01*
X149661524Y-129310000D01*
X149566286Y-129262381D01*
X149375810Y-129214762D01*
X149232952Y-129214762D01*
X149042476Y-129262381D01*
X148947238Y-129310000D01*
X148852000Y-129405238D01*
X148804381Y-129548096D01*
X148804381Y-129643334D01*
X148852000Y-129786191D01*
X148899619Y-129833810D01*
X149709143Y-130833810D02*
X149756762Y-130786191D01*
X149804381Y-130643334D01*
X149804381Y-130548096D01*
X149756762Y-130405238D01*
X149661524Y-130310000D01*
X149566286Y-130262381D01*
X149375810Y-130214762D01*
X149232952Y-130214762D01*
X149042476Y-130262381D01*
X148947238Y-130310000D01*
X148852000Y-130405238D01*
X148804381Y-130548096D01*
X148804381Y-130643334D01*
X148852000Y-130786191D01*
X148899619Y-130833810D01*
X148804381Y-131119524D02*
X148804381Y-131690953D01*
X149804381Y-131405238D02*
X148804381Y-131405238D01*
X149804381Y-132500477D02*
X149804381Y-132024286D01*
X148804381Y-132024286D01*
X148632000Y-129024286D02*
X148632000Y-132595715D01*
X152344381Y-130651334D02*
X151868190Y-130318000D01*
X152344381Y-130079905D02*
X151344381Y-130079905D01*
X151344381Y-130460858D01*
X151392000Y-130556096D01*
X151439619Y-130603715D01*
X151534857Y-130651334D01*
X151677714Y-130651334D01*
X151772952Y-130603715D01*
X151820571Y-130556096D01*
X151868190Y-130460858D01*
X151868190Y-130079905D01*
X152344381Y-131079905D02*
X151344381Y-131079905D01*
X151344381Y-131318000D01*
X151392000Y-131460858D01*
X151487238Y-131556096D01*
X151582476Y-131603715D01*
X151772952Y-131651334D01*
X151915810Y-131651334D01*
X152106286Y-131603715D01*
X152201524Y-131556096D01*
X152296762Y-131460858D01*
X152344381Y-131318000D01*
X152344381Y-131079905D01*
X151344381Y-132556096D02*
X151344381Y-132079905D01*
X151820571Y-132032286D01*
X151772952Y-132079905D01*
X151725333Y-132175143D01*
X151725333Y-132413239D01*
X151772952Y-132508477D01*
X151820571Y-132556096D01*
X151915810Y-132603715D01*
X152153905Y-132603715D01*
X152249143Y-132556096D01*
X152296762Y-132508477D01*
X152344381Y-132413239D01*
X152344381Y-132175143D01*
X152296762Y-132079905D01*
X152249143Y-132032286D01*
X157376762Y-131064095D02*
X157424381Y-131206952D01*
X157424381Y-131445048D01*
X157376762Y-131540286D01*
X157329143Y-131587905D01*
X157233905Y-131635524D01*
X157138667Y-131635524D01*
X157043429Y-131587905D01*
X156995810Y-131540286D01*
X156948190Y-131445048D01*
X156900571Y-131254571D01*
X156852952Y-131159333D01*
X156805333Y-131111714D01*
X156710095Y-131064095D01*
X156614857Y-131064095D01*
X156519619Y-131111714D01*
X156472000Y-131159333D01*
X156424381Y-131254571D01*
X156424381Y-131492667D01*
X156472000Y-131635524D01*
X156424381Y-132540286D02*
X156424381Y-132064095D01*
X156900571Y-132016476D01*
X156852952Y-132064095D01*
X156805333Y-132159333D01*
X156805333Y-132397429D01*
X156852952Y-132492667D01*
X156900571Y-132540286D01*
X156995810Y-132587905D01*
X157233905Y-132587905D01*
X157329143Y-132540286D01*
X157376762Y-132492667D01*
X157424381Y-132397429D01*
X157424381Y-132159333D01*
X157376762Y-132064095D01*
X157329143Y-132016476D01*
X156252000Y-130873619D02*
X156252000Y-132778381D01*
X167584381Y-131087905D02*
X166584381Y-131087905D01*
X166584381Y-131326000D01*
X166632000Y-131468858D01*
X166727238Y-131564096D01*
X166822476Y-131611715D01*
X167012952Y-131659334D01*
X167155810Y-131659334D01*
X167346286Y-131611715D01*
X167441524Y-131564096D01*
X167536762Y-131468858D01*
X167584381Y-131326000D01*
X167584381Y-131087905D01*
X166679619Y-132040286D02*
X166632000Y-132087905D01*
X166584381Y-132183143D01*
X166584381Y-132421239D01*
X166632000Y-132516477D01*
X166679619Y-132564096D01*
X166774857Y-132611715D01*
X166870095Y-132611715D01*
X167012952Y-132564096D01*
X167584381Y-131992667D01*
X167584381Y-132611715D01*
X165044381Y-131087905D02*
X164044381Y-131087905D01*
X164044381Y-131326000D01*
X164092000Y-131468858D01*
X164187238Y-131564096D01*
X164282476Y-131611715D01*
X164472952Y-131659334D01*
X164615810Y-131659334D01*
X164806286Y-131611715D01*
X164901524Y-131564096D01*
X164996762Y-131468858D01*
X165044381Y-131326000D01*
X165044381Y-131087905D01*
X165044381Y-132611715D02*
X165044381Y-132040286D01*
X165044381Y-132326000D02*
X164044381Y-132326000D01*
X164187238Y-132230762D01*
X164282476Y-132135524D01*
X164330095Y-132040286D01*
X162504381Y-131087905D02*
X161504381Y-131087905D01*
X161504381Y-131326000D01*
X161552000Y-131468858D01*
X161647238Y-131564096D01*
X161742476Y-131611715D01*
X161932952Y-131659334D01*
X162075810Y-131659334D01*
X162266286Y-131611715D01*
X162361524Y-131564096D01*
X162456762Y-131468858D01*
X162504381Y-131326000D01*
X162504381Y-131087905D01*
X161504381Y-132278381D02*
X161504381Y-132373620D01*
X161552000Y-132468858D01*
X161599619Y-132516477D01*
X161694857Y-132564096D01*
X161885333Y-132611715D01*
X162123429Y-132611715D01*
X162313905Y-132564096D01*
X162409143Y-132516477D01*
X162456762Y-132468858D01*
X162504381Y-132373620D01*
X162504381Y-132278381D01*
X162456762Y-132183143D01*
X162409143Y-132135524D01*
X162313905Y-132087905D01*
X162123429Y-132040286D01*
X161885333Y-132040286D01*
X161694857Y-132087905D01*
X161599619Y-132135524D01*
X161552000Y-132183143D01*
X161504381Y-132278381D01*
X159964381Y-131087905D02*
X158964381Y-131087905D01*
X158964381Y-131326000D01*
X159012000Y-131468858D01*
X159107238Y-131564096D01*
X159202476Y-131611715D01*
X159392952Y-131659334D01*
X159535810Y-131659334D01*
X159726286Y-131611715D01*
X159821524Y-131564096D01*
X159916762Y-131468858D01*
X159964381Y-131326000D01*
X159964381Y-131087905D01*
X158964381Y-132516477D02*
X158964381Y-132326000D01*
X159012000Y-132230762D01*
X159059619Y-132183143D01*
X159202476Y-132087905D01*
X159392952Y-132040286D01*
X159773905Y-132040286D01*
X159869143Y-132087905D01*
X159916762Y-132135524D01*
X159964381Y-132230762D01*
X159964381Y-132421239D01*
X159916762Y-132516477D01*
X159869143Y-132564096D01*
X159773905Y-132611715D01*
X159535810Y-132611715D01*
X159440571Y-132564096D01*
X159392952Y-132516477D01*
X159345333Y-132421239D01*
X159345333Y-132230762D01*
X159392952Y-132135524D01*
X159440571Y-132087905D01*
X159535810Y-132040286D01*
X170124381Y-131087905D02*
X169124381Y-131087905D01*
X169124381Y-131326000D01*
X169172000Y-131468858D01*
X169267238Y-131564096D01*
X169362476Y-131611715D01*
X169552952Y-131659334D01*
X169695810Y-131659334D01*
X169886286Y-131611715D01*
X169981524Y-131564096D01*
X170076762Y-131468858D01*
X170124381Y-131326000D01*
X170124381Y-131087905D01*
X169124381Y-132564096D02*
X169124381Y-132087905D01*
X169600571Y-132040286D01*
X169552952Y-132087905D01*
X169505333Y-132183143D01*
X169505333Y-132421239D01*
X169552952Y-132516477D01*
X169600571Y-132564096D01*
X169695810Y-132611715D01*
X169933905Y-132611715D01*
X170029143Y-132564096D01*
X170076762Y-132516477D01*
X170124381Y-132421239D01*
X170124381Y-132183143D01*
X170076762Y-132087905D01*
X170029143Y-132040286D01*
X172664381Y-131087905D02*
X171664381Y-131087905D01*
X171664381Y-131326000D01*
X171712000Y-131468858D01*
X171807238Y-131564096D01*
X171902476Y-131611715D01*
X172092952Y-131659334D01*
X172235810Y-131659334D01*
X172426286Y-131611715D01*
X172521524Y-131564096D01*
X172616762Y-131468858D01*
X172664381Y-131326000D01*
X172664381Y-131087905D01*
X171997714Y-132516477D02*
X172664381Y-132516477D01*
X171616762Y-132278381D02*
X172331048Y-132040286D01*
X172331048Y-132659334D01*
X174918667Y-131111714D02*
X174918667Y-131587905D01*
X175204381Y-131016476D02*
X174204381Y-131349809D01*
X175204381Y-131683143D01*
X174204381Y-132206952D02*
X174204381Y-132302191D01*
X174252000Y-132397429D01*
X174299619Y-132445048D01*
X174394857Y-132492667D01*
X174585333Y-132540286D01*
X174823429Y-132540286D01*
X175013905Y-132492667D01*
X175109143Y-132445048D01*
X175156762Y-132397429D01*
X175204381Y-132302191D01*
X175204381Y-132206952D01*
X175156762Y-132111714D01*
X175109143Y-132064095D01*
X175013905Y-132016476D01*
X174823429Y-131968857D01*
X174585333Y-131968857D01*
X174394857Y-132016476D01*
X174299619Y-132064095D01*
X174252000Y-132111714D01*
X174204381Y-132206952D01*
X177458667Y-131111714D02*
X177458667Y-131587905D01*
X177744381Y-131016476D02*
X176744381Y-131349809D01*
X177744381Y-131683143D01*
X177744381Y-132540286D02*
X177744381Y-131968857D01*
X177744381Y-132254571D02*
X176744381Y-132254571D01*
X176887238Y-132159333D01*
X176982476Y-132064095D01*
X177030095Y-131968857D01*
X179998667Y-131111714D02*
X179998667Y-131587905D01*
X180284381Y-131016476D02*
X179284381Y-131349809D01*
X180284381Y-131683143D01*
X179379619Y-131968857D02*
X179332000Y-132016476D01*
X179284381Y-132111714D01*
X179284381Y-132349810D01*
X179332000Y-132445048D01*
X179379619Y-132492667D01*
X179474857Y-132540286D01*
X179570095Y-132540286D01*
X179712952Y-132492667D01*
X180284381Y-131921238D01*
X180284381Y-132540286D01*
X182538667Y-131111714D02*
X182538667Y-131587905D01*
X182824381Y-131016476D02*
X181824381Y-131349809D01*
X182824381Y-131683143D01*
X181824381Y-131921238D02*
X181824381Y-132540286D01*
X182205333Y-132206952D01*
X182205333Y-132349810D01*
X182252952Y-132445048D01*
X182300571Y-132492667D01*
X182395810Y-132540286D01*
X182633905Y-132540286D01*
X182729143Y-132492667D01*
X182776762Y-132445048D01*
X182824381Y-132349810D01*
X182824381Y-132064095D01*
X182776762Y-131968857D01*
X182729143Y-131921238D01*
X185316762Y-131064095D02*
X185364381Y-131206952D01*
X185364381Y-131445048D01*
X185316762Y-131540286D01*
X185269143Y-131587905D01*
X185173905Y-131635524D01*
X185078667Y-131635524D01*
X184983429Y-131587905D01*
X184935810Y-131540286D01*
X184888190Y-131445048D01*
X184840571Y-131254571D01*
X184792952Y-131159333D01*
X184745333Y-131111714D01*
X184650095Y-131064095D01*
X184554857Y-131064095D01*
X184459619Y-131111714D01*
X184412000Y-131159333D01*
X184364381Y-131254571D01*
X184364381Y-131492667D01*
X184412000Y-131635524D01*
X184697714Y-132492667D02*
X185364381Y-132492667D01*
X184316762Y-132254571D02*
X185031048Y-132016476D01*
X185031048Y-132635524D01*
X184192000Y-130873619D02*
X184192000Y-132778381D01*
X153884381Y-131635524D02*
X153884381Y-131159333D01*
X154360571Y-131111714D01*
X154312952Y-131159333D01*
X154265333Y-131254571D01*
X154265333Y-131492667D01*
X154312952Y-131587905D01*
X154360571Y-131635524D01*
X154455810Y-131683143D01*
X154693905Y-131683143D01*
X154789143Y-131635524D01*
X154836762Y-131587905D01*
X154884381Y-131492667D01*
X154884381Y-131254571D01*
X154836762Y-131159333D01*
X154789143Y-131111714D01*
X153884381Y-131968857D02*
X154884381Y-132302190D01*
X153884381Y-132635524D01*
X109978000Y-126081286D02*
X109478000Y-126081286D01*
X109799429Y-126831286D01*
X125007714Y-126831286D02*
X125436286Y-126831286D01*
X125222000Y-126831286D02*
X125222000Y-126081286D01*
X125293429Y-126188429D01*
X125364857Y-126259857D01*
X125436286Y-126295571D01*
X120887713Y-127200429D02*
X120780570Y-127236143D01*
X120744855Y-127271857D01*
X120709141Y-127343286D01*
X120709141Y-127450429D01*
X120744855Y-127521857D01*
X120780570Y-127557571D01*
X120851998Y-127593286D01*
X121137713Y-127593286D01*
X121137713Y-126843286D01*
X120887713Y-126843286D01*
X120816284Y-126879000D01*
X120780570Y-126914714D01*
X120744855Y-126986143D01*
X120744855Y-127057571D01*
X120780570Y-127129000D01*
X120816284Y-127164714D01*
X120887713Y-127200429D01*
X121137713Y-127200429D01*
X120066284Y-127593286D02*
X120066284Y-127200429D01*
X120101998Y-127129000D01*
X120173427Y-127093286D01*
X120316284Y-127093286D01*
X120387713Y-127129000D01*
X120066284Y-127557571D02*
X120137713Y-127593286D01*
X120316284Y-127593286D01*
X120387713Y-127557571D01*
X120423427Y-127486143D01*
X120423427Y-127414714D01*
X120387713Y-127343286D01*
X120316284Y-127307571D01*
X120137713Y-127307571D01*
X120066284Y-127271857D01*
X119387713Y-127557571D02*
X119459142Y-127593286D01*
X119601999Y-127593286D01*
X119673427Y-127557571D01*
X119709142Y-127521857D01*
X119744856Y-127450429D01*
X119744856Y-127236143D01*
X119709142Y-127164714D01*
X119673427Y-127129000D01*
X119601999Y-127093286D01*
X119459142Y-127093286D01*
X119387713Y-127129000D01*
X119066285Y-127593286D02*
X119066285Y-126843286D01*
X118994856Y-127307571D02*
X118780570Y-127593286D01*
X118780570Y-127093286D02*
X119066285Y-127379000D01*
X117923427Y-126807571D02*
X118566284Y-127771857D01*
X117423428Y-127200429D02*
X117316285Y-127236143D01*
X117280570Y-127271857D01*
X117244856Y-127343286D01*
X117244856Y-127450429D01*
X117280570Y-127521857D01*
X117316285Y-127557571D01*
X117387713Y-127593286D01*
X117673428Y-127593286D01*
X117673428Y-126843286D01*
X117423428Y-126843286D01*
X117351999Y-126879000D01*
X117316285Y-126914714D01*
X117280570Y-126986143D01*
X117280570Y-127057571D01*
X117316285Y-127129000D01*
X117351999Y-127164714D01*
X117423428Y-127200429D01*
X117673428Y-127200429D01*
X116816285Y-127593286D02*
X116887713Y-127557571D01*
X116923428Y-127521857D01*
X116959142Y-127450429D01*
X116959142Y-127236143D01*
X116923428Y-127164714D01*
X116887713Y-127129000D01*
X116816285Y-127093286D01*
X116709142Y-127093286D01*
X116637713Y-127129000D01*
X116601999Y-127164714D01*
X116566285Y-127236143D01*
X116566285Y-127450429D01*
X116601999Y-127521857D01*
X116637713Y-127557571D01*
X116709142Y-127593286D01*
X116816285Y-127593286D01*
X116351999Y-127093286D02*
X116066285Y-127093286D01*
X116244857Y-126843286D02*
X116244857Y-127486143D01*
X116209142Y-127557571D01*
X116137714Y-127593286D01*
X116066285Y-127593286D01*
X115923428Y-127093286D02*
X115637714Y-127093286D01*
X115816286Y-126843286D02*
X115816286Y-127486143D01*
X115780571Y-127557571D01*
X115709143Y-127593286D01*
X115637714Y-127593286D01*
X115280572Y-127593286D02*
X115352000Y-127557571D01*
X115387715Y-127521857D01*
X115423429Y-127450429D01*
X115423429Y-127236143D01*
X115387715Y-127164714D01*
X115352000Y-127129000D01*
X115280572Y-127093286D01*
X115173429Y-127093286D01*
X115102000Y-127129000D01*
X115066286Y-127164714D01*
X115030572Y-127236143D01*
X115030572Y-127450429D01*
X115066286Y-127521857D01*
X115102000Y-127557571D01*
X115173429Y-127593286D01*
X115280572Y-127593286D01*
X114709144Y-127593286D02*
X114709144Y-127093286D01*
X114709144Y-127164714D02*
X114673429Y-127129000D01*
X114602001Y-127093286D01*
X114494858Y-127093286D01*
X114423429Y-127129000D01*
X114387715Y-127200429D01*
X114387715Y-127593286D01*
X114387715Y-127200429D02*
X114352001Y-127129000D01*
X114280572Y-127093286D01*
X114173429Y-127093286D01*
X114102001Y-127129000D01*
X114066286Y-127200429D01*
X114066286Y-127593286D01*
X112974381Y-130492572D02*
X112498190Y-130159238D01*
X112974381Y-129921143D02*
X111974381Y-129921143D01*
X111974381Y-130302096D01*
X112022000Y-130397334D01*
X112069619Y-130444953D01*
X112164857Y-130492572D01*
X112307714Y-130492572D01*
X112402952Y-130444953D01*
X112450571Y-130397334D01*
X112498190Y-130302096D01*
X112498190Y-129921143D01*
X112450571Y-130921143D02*
X112450571Y-131254477D01*
X112974381Y-131397334D02*
X112974381Y-130921143D01*
X111974381Y-130921143D01*
X111974381Y-131397334D01*
X112450571Y-132159239D02*
X112450571Y-131825905D01*
X112974381Y-131825905D02*
X111974381Y-131825905D01*
X111974381Y-132302096D01*
X111802000Y-129683048D02*
X111802000Y-132444953D01*
X115228667Y-128532191D02*
X115228667Y-129008382D01*
X115514381Y-128436953D02*
X114514381Y-128770286D01*
X115514381Y-129103620D01*
X114514381Y-129436953D02*
X115323905Y-129436953D01*
X115419143Y-129484572D01*
X115466762Y-129532191D01*
X115514381Y-129627429D01*
X115514381Y-129817906D01*
X115466762Y-129913144D01*
X115419143Y-129960763D01*
X115323905Y-130008382D01*
X114514381Y-130008382D01*
X115514381Y-130484572D02*
X114514381Y-130484572D01*
X114514381Y-130722667D01*
X114562000Y-130865525D01*
X114657238Y-130960763D01*
X114752476Y-131008382D01*
X114942952Y-131056001D01*
X115085810Y-131056001D01*
X115276286Y-131008382D01*
X115371524Y-130960763D01*
X115466762Y-130865525D01*
X115514381Y-130722667D01*
X115514381Y-130484572D01*
X115514381Y-131484572D02*
X114514381Y-131484572D01*
X114514381Y-132151238D02*
X114514381Y-132341715D01*
X114562000Y-132436953D01*
X114657238Y-132532191D01*
X114847714Y-132579810D01*
X115181048Y-132579810D01*
X115371524Y-132532191D01*
X115466762Y-132436953D01*
X115514381Y-132341715D01*
X115514381Y-132151238D01*
X115466762Y-132056000D01*
X115371524Y-131960762D01*
X115181048Y-131913143D01*
X114847714Y-131913143D01*
X114657238Y-131960762D01*
X114562000Y-132056000D01*
X114514381Y-132151238D01*
X118054381Y-129730667D02*
X117054381Y-129730667D01*
X117768667Y-130064001D01*
X117054381Y-130397334D01*
X118054381Y-130397334D01*
X118054381Y-130873524D02*
X117054381Y-130873524D01*
X117054381Y-131254477D01*
X117102000Y-131349715D01*
X117149619Y-131397334D01*
X117244857Y-131444953D01*
X117387714Y-131444953D01*
X117482952Y-131397334D01*
X117530571Y-131349715D01*
X117578190Y-131254477D01*
X117578190Y-130873524D01*
X118054381Y-131873524D02*
X117054381Y-131873524D01*
X117054381Y-132111619D01*
X117102000Y-132254477D01*
X117197238Y-132349715D01*
X117292476Y-132397334D01*
X117482952Y-132444953D01*
X117625810Y-132444953D01*
X117816286Y-132397334D01*
X117911524Y-132349715D01*
X118006762Y-132254477D01*
X118054381Y-132111619D01*
X118054381Y-131873524D01*
X116882000Y-129492572D02*
X116882000Y-132635429D01*
X120594381Y-129119524D02*
X119594381Y-129119524D01*
X119594381Y-129357619D01*
X119642000Y-129500477D01*
X119737238Y-129595715D01*
X119832476Y-129643334D01*
X120022952Y-129690953D01*
X120165810Y-129690953D01*
X120356286Y-129643334D01*
X120451524Y-129595715D01*
X120546762Y-129500477D01*
X120594381Y-129357619D01*
X120594381Y-129119524D01*
X120594381Y-130643334D02*
X120594381Y-130071905D01*
X120594381Y-130357619D02*
X119594381Y-130357619D01*
X119737238Y-130262381D01*
X119832476Y-130167143D01*
X119880095Y-130071905D01*
X119594381Y-130976667D02*
X120594381Y-131643334D01*
X119594381Y-131643334D02*
X120594381Y-130976667D01*
X119594381Y-131929048D02*
X120594381Y-132595715D01*
X119594381Y-132595715D02*
X120594381Y-131929048D01*
X119422000Y-128881429D02*
X119422000Y-132738572D01*
X123134381Y-130770381D02*
X122658190Y-130437047D01*
X123134381Y-130198952D02*
X122134381Y-130198952D01*
X122134381Y-130579905D01*
X122182000Y-130675143D01*
X122229619Y-130722762D01*
X122324857Y-130770381D01*
X122467714Y-130770381D01*
X122562952Y-130722762D01*
X122610571Y-130675143D01*
X122658190Y-130579905D01*
X122658190Y-130198952D01*
X123086762Y-131151333D02*
X123134381Y-131294190D01*
X123134381Y-131532286D01*
X123086762Y-131627524D01*
X123039143Y-131675143D01*
X122943905Y-131722762D01*
X122848667Y-131722762D01*
X122753429Y-131675143D01*
X122705810Y-131627524D01*
X122658190Y-131532286D01*
X122610571Y-131341809D01*
X122562952Y-131246571D01*
X122515333Y-131198952D01*
X122420095Y-131151333D01*
X122324857Y-131151333D01*
X122229619Y-131198952D01*
X122182000Y-131246571D01*
X122134381Y-131341809D01*
X122134381Y-131579905D01*
X122182000Y-131722762D01*
X122134381Y-132008476D02*
X122134381Y-132579905D01*
X123134381Y-132294190D02*
X122134381Y-132294190D01*
X121962000Y-129960857D02*
X121962000Y-132675143D01*
X125150571Y-128532190D02*
X125150571Y-128865524D01*
X125674381Y-129008381D02*
X125674381Y-128532190D01*
X124674381Y-128532190D01*
X124674381Y-129008381D01*
X124674381Y-129341714D02*
X125674381Y-130008381D01*
X124674381Y-130008381D02*
X125674381Y-129341714D01*
X125626762Y-130341714D02*
X125674381Y-130484571D01*
X125674381Y-130722667D01*
X125626762Y-130817905D01*
X125579143Y-130865524D01*
X125483905Y-130913143D01*
X125388667Y-130913143D01*
X125293429Y-130865524D01*
X125245810Y-130817905D01*
X125198190Y-130722667D01*
X125150571Y-130532190D01*
X125102952Y-130436952D01*
X125055333Y-130389333D01*
X124960095Y-130341714D01*
X124864857Y-130341714D01*
X124769619Y-130389333D01*
X124722000Y-130436952D01*
X124674381Y-130532190D01*
X124674381Y-130770286D01*
X124722000Y-130913143D01*
X125150571Y-131341714D02*
X125150571Y-131675048D01*
X125674381Y-131817905D02*
X125674381Y-131341714D01*
X124674381Y-131341714D01*
X124674381Y-131817905D01*
X125674381Y-132722667D02*
X125674381Y-132246476D01*
X124674381Y-132246476D01*
X124502000Y-128294095D02*
X124502000Y-132817905D01*
X109434381Y-131381524D02*
X109434381Y-130905333D01*
X109910571Y-130857714D01*
X109862952Y-130905333D01*
X109815333Y-131000571D01*
X109815333Y-131238667D01*
X109862952Y-131333905D01*
X109910571Y-131381524D01*
X110005810Y-131429143D01*
X110243905Y-131429143D01*
X110339143Y-131381524D01*
X110386762Y-131333905D01*
X110434381Y-131238667D01*
X110434381Y-131000571D01*
X110386762Y-130905333D01*
X110339143Y-130857714D01*
X109434381Y-131714857D02*
X110434381Y-132048190D01*
X109434381Y-132381524D01*
M02*
