G04 #@! TF.FileFunction,Soldermask,Bot*
%FSLAX46Y46*%
G04 Gerber Fmt 4.6, Leading zero omitted, Abs format (unit mm)*
G04 Created by KiCad (PCBNEW 4.0.2+dfsg1-stable) date mar 15 gen 2019 12:05:05 CET*
%MOMM*%
G01*
G04 APERTURE LIST*
%ADD10C,0.100000*%
%ADD11R,1.930400X5.588000*%
%ADD12R,2.032000X1.727200*%
%ADD13O,2.032000X1.727200*%
%ADD14C,1.524000*%
%ADD15R,1.524000X1.524000*%
%ADD16R,1.727200X2.032000*%
%ADD17O,1.727200X2.032000*%
%ADD18C,4.064000*%
%ADD19R,2.235200X2.235200*%
%ADD20R,2.032000X2.032000*%
%ADD21O,2.032000X2.032000*%
%ADD22C,0.800000*%
%ADD23C,0.400000*%
G04 APERTURE END LIST*
D10*
D11*
X184912000Y-135890000D03*
X182372000Y-135890000D03*
X179832000Y-135890000D03*
X177292000Y-135890000D03*
X174752000Y-135890000D03*
X172212000Y-135890000D03*
X169672000Y-135890000D03*
X167132000Y-135890000D03*
X164592000Y-135890000D03*
X162052000Y-135890000D03*
X159512000Y-135890000D03*
X156972000Y-135890000D03*
X154432000Y-135890000D03*
X151892000Y-135890000D03*
X149352000Y-135890000D03*
D12*
X96520000Y-66040000D03*
D13*
X96520000Y-63500000D03*
X96520000Y-60960000D03*
X96520000Y-58420000D03*
D14*
X110490000Y-110604300D03*
X110490000Y-115455700D03*
X113030000Y-110604300D03*
X113030000Y-115455700D03*
X115570000Y-110604300D03*
X115570000Y-115455700D03*
X118110000Y-110604300D03*
X118110000Y-115455700D03*
X120650000Y-110604300D03*
X120650000Y-115455700D03*
X123190000Y-110604300D03*
X123190000Y-115455700D03*
D15*
X125730000Y-110604300D03*
D14*
X125730000Y-115455700D03*
D12*
X109220000Y-64770000D03*
D13*
X109220000Y-62230000D03*
X109220000Y-59690000D03*
D16*
X133350000Y-71120000D03*
D17*
X135890000Y-71120000D03*
X138430000Y-71120000D03*
D18*
X88900000Y-115570000D03*
X88900000Y-53340000D03*
X217170000Y-53340000D03*
X217170000Y-115570000D03*
D16*
X143510000Y-62230000D03*
D17*
X146050000Y-62230000D03*
X148590000Y-62230000D03*
X151130000Y-62230000D03*
D14*
X149860000Y-110604300D03*
X149860000Y-115455700D03*
X152400000Y-110604300D03*
X152400000Y-115455700D03*
X154940000Y-110604300D03*
X154940000Y-115455700D03*
X157480000Y-110604300D03*
X157480000Y-115455700D03*
X160020000Y-110604300D03*
X160020000Y-115455700D03*
X162560000Y-110604300D03*
X162560000Y-115455700D03*
X165100000Y-110604300D03*
X165100000Y-115455700D03*
X167640000Y-110604300D03*
X167640000Y-115455700D03*
X170180000Y-110604300D03*
X170180000Y-115455700D03*
X172720000Y-110604300D03*
X172720000Y-115455700D03*
X175260000Y-110604300D03*
X175260000Y-115455700D03*
X177800000Y-110604300D03*
X177800000Y-115455700D03*
X180340000Y-110604300D03*
X180340000Y-115455700D03*
X182880000Y-110604300D03*
X182880000Y-115455700D03*
D15*
X185420000Y-110604300D03*
D14*
X185420000Y-115455700D03*
D19*
X91440000Y-81280000D03*
D20*
X146050000Y-71120000D03*
D21*
X148590000Y-71120000D03*
D11*
X125222000Y-135890000D03*
X122682000Y-135890000D03*
X120142000Y-135890000D03*
X117602000Y-135890000D03*
X115062000Y-135890000D03*
X112522000Y-135890000D03*
X109982000Y-135890000D03*
D22*
X126443500Y-106310400D03*
X141141300Y-112286800D03*
X101763100Y-102354700D03*
X105926300Y-104367600D03*
X149280200Y-121940000D03*
D23*
X140385800Y-75361800D03*
X141757400Y-74853800D03*
X148615400Y-68859400D03*
D22*
X114639000Y-103043300D03*
X181963000Y-112112300D03*
X181699600Y-108621800D03*
D23*
X196399200Y-74985500D03*
X194891800Y-80611500D03*
X195209400Y-59572400D03*
X135492000Y-104257600D03*
X136378200Y-96479800D03*
X102728700Y-96604700D03*
X104195900Y-96511100D03*
X135163100Y-91520700D03*
X188262000Y-99405300D03*
X184386900Y-103280400D03*
X136378300Y-88659900D03*
X138915100Y-82006700D03*
X147900200Y-103140800D03*
X145126700Y-106279600D03*
X106666900Y-81820000D03*
X170387200Y-108908400D03*
X177607200Y-118900700D03*
X149268600Y-120251000D03*
X142717900Y-114607400D03*
X166075000Y-103577700D03*
X176104300Y-114579500D03*
X168600800Y-118509600D03*
X166774000Y-103574300D03*
X168372300Y-105406100D03*
D22*
X187803000Y-111322300D03*
X130567600Y-62230000D03*
D23*
X93074900Y-104135500D03*
X179832000Y-132658800D03*
X177292000Y-132663300D03*
X174752000Y-132646200D03*
X172212000Y-132645800D03*
X169672000Y-132693800D03*
X139430500Y-116663500D03*
X125561900Y-104403000D03*
X167132000Y-132680700D03*
X138590900Y-109854300D03*
X150580700Y-114348200D03*
X164592000Y-132673700D03*
X163658300Y-110047400D03*
X162756500Y-109440900D03*
X161715800Y-107900700D03*
X154177300Y-107427300D03*
X154232700Y-104363700D03*
X132963100Y-106133900D03*
X130471900Y-91910200D03*
X127081600Y-91860000D03*
X123164500Y-95797400D03*
X125374200Y-98007100D03*
X117625500Y-98995500D03*
X106833800Y-100671100D03*
X109697800Y-100883200D03*
X162052000Y-132665600D03*
X164554500Y-103575000D03*
X159512000Y-132667300D03*
X160899000Y-106260000D03*
X156972000Y-132644500D03*
X147846800Y-116022000D03*
X124222300Y-101925100D03*
X154432000Y-132649300D03*
X154638500Y-118820100D03*
X123877700Y-114189100D03*
X120286400Y-104143400D03*
X151892000Y-132686800D03*
X146967900Y-114513900D03*
X142751600Y-110297600D03*
X140032900Y-110352500D03*
X113316000Y-101940500D03*
X149352000Y-132679000D03*
X116420800Y-102285200D03*
X94275000Y-104136400D03*
X101960500Y-107546800D03*
X117650600Y-106281000D03*
X121625800Y-132669300D03*
X110679400Y-118226900D03*
X95686600Y-104139600D03*
X120489300Y-132669700D03*
X119891700Y-112130500D03*
X117466900Y-132674100D03*
X118331500Y-104166700D03*
X114134600Y-132668200D03*
X114997600Y-104639200D03*
X115263700Y-104055300D03*
X111511700Y-132674100D03*
X128887700Y-92385400D03*
X130210400Y-90752600D03*
X131930400Y-77266700D03*
X130767100Y-90227200D03*
X130573800Y-98420000D03*
X94380500Y-96499300D03*
X120445000Y-71895900D03*
X129640400Y-71440300D03*
X133396200Y-59257400D03*
X150089800Y-59257400D03*
X144171300Y-80314900D03*
X119909800Y-65654400D03*
X136836200Y-78533300D03*
X134575100Y-77660400D03*
X119253000Y-60960000D03*
X158728400Y-98198300D03*
X168111800Y-84700000D03*
X174706100Y-60891100D03*
X200660000Y-58644700D03*
X148638000Y-95414600D03*
X138491800Y-101209500D03*
X160050000Y-81898300D03*
X160888500Y-54580000D03*
X116754500Y-94984200D03*
X117152800Y-69338200D03*
X131890500Y-69880000D03*
X132235600Y-86471700D03*
X97712500Y-72442600D03*
X97994600Y-53340000D03*
X209830700Y-77536600D03*
X210820000Y-93168200D03*
X181414400Y-95602700D03*
X176110700Y-101014100D03*
X171576100Y-101907000D03*
X155387600Y-103592500D03*
X129853300Y-102489100D03*
X129786500Y-88620000D03*
X189961000Y-77220300D03*
X192436200Y-91430500D03*
X139559500Y-106221700D03*
X132318300Y-87155800D03*
X159678600Y-98198300D03*
X159673500Y-99699300D03*
X141624400Y-104854000D03*
X180975000Y-73554300D03*
X180941700Y-92886400D03*
X207366100Y-74573100D03*
X207645000Y-92874300D03*
X134467800Y-106073000D03*
X131092400Y-88933200D03*
X180841800Y-89026300D03*
X205597500Y-90826800D03*
X168630800Y-91782600D03*
X162135900Y-95112300D03*
X139952900Y-97559000D03*
X138515500Y-104954300D03*
X180142700Y-71351300D03*
X180188400Y-92715200D03*
X209465400Y-93043400D03*
X206817400Y-73515000D03*
X204327000Y-69020000D03*
X134664300Y-107463600D03*
X130994000Y-89626800D03*
X179469800Y-86796000D03*
X162085300Y-88351100D03*
X160291200Y-99574000D03*
X148655100Y-101519200D03*
X102792300Y-98255300D03*
X129020100Y-80610400D03*
X125564200Y-81013600D03*
X107037000Y-93687600D03*
X96413900Y-96279600D03*
X128447700Y-92947400D03*
X137938900Y-92383100D03*
X139126400Y-84479700D03*
X105178100Y-93843300D03*
X126543500Y-94608600D03*
X140092600Y-94668300D03*
X141529800Y-83498100D03*
X178435000Y-92885900D03*
X205593500Y-73435300D03*
X205012500Y-92882200D03*
X138180900Y-105469000D03*
X138385100Y-87354200D03*
X178704800Y-88574200D03*
X205012500Y-88317900D03*
X140097600Y-92331400D03*
X175250500Y-75342500D03*
X176688800Y-71384700D03*
X177135400Y-92874400D03*
X203835000Y-73534800D03*
X204470000Y-94806500D03*
X177210400Y-89853500D03*
X203633400Y-90580000D03*
X168537300Y-92696300D03*
X167076600Y-93384400D03*
X146430500Y-93367200D03*
X142938800Y-87608000D03*
X137606200Y-88112700D03*
X137623700Y-105760900D03*
X211455000Y-73532100D03*
X212090000Y-92974700D03*
X211083700Y-70504800D03*
X167939900Y-97573600D03*
X155760700Y-90893600D03*
X147506700Y-90754000D03*
X143183200Y-86978900D03*
X186069500Y-73515000D03*
X186505300Y-92778200D03*
X212712500Y-92898000D03*
X212855000Y-73515000D03*
X184569500Y-67723600D03*
X168732000Y-65096200D03*
X161669400Y-78385900D03*
X154374300Y-80619500D03*
X149187900Y-98630400D03*
X138547400Y-98535100D03*
X139528100Y-86215300D03*
X186690000Y-71897300D03*
X190203200Y-93081000D03*
X213995000Y-92893800D03*
X213641000Y-73515000D03*
X169531100Y-99149000D03*
X156236700Y-91343900D03*
X148436200Y-91343100D03*
X143310200Y-85764800D03*
X174821400Y-58114300D03*
X167870700Y-65065000D03*
X204633100Y-83465600D03*
X203153400Y-68467500D03*
X175572900Y-73779200D03*
X175260000Y-93168200D03*
X202028600Y-92974700D03*
X202230300Y-73531800D03*
X137173400Y-106291400D03*
X139732200Y-81922300D03*
X173825200Y-90164500D03*
X163844800Y-89720900D03*
X159285600Y-97024300D03*
X148522700Y-99158500D03*
X200758600Y-92974700D03*
X200762600Y-73435300D03*
X194426100Y-90719500D03*
X174600400Y-95102000D03*
X172729400Y-74143400D03*
X141147900Y-79434900D03*
X136573000Y-106187500D03*
X177158200Y-62946800D03*
X176272000Y-82700700D03*
X173020400Y-58562900D03*
X168107900Y-61629400D03*
X120841800Y-93929800D03*
X122677400Y-75074700D03*
X136615600Y-74852200D03*
X147853100Y-64155500D03*
X176530000Y-81260000D03*
X177165000Y-60779300D03*
X176328100Y-58551900D03*
X168386900Y-61002900D03*
X139896900Y-65029200D03*
X134629200Y-73130100D03*
X122197000Y-73130100D03*
X119736000Y-95485600D03*
X105781700Y-93302300D03*
X125881800Y-93885500D03*
X135467400Y-94097400D03*
X142220700Y-81340500D03*
X107057600Y-92595400D03*
X114825000Y-90314600D03*
X139638200Y-93526600D03*
X140407400Y-82480900D03*
X110611000Y-92174800D03*
X116567800Y-74537100D03*
X135510500Y-74537100D03*
X138374700Y-77401300D03*
X118093100Y-93912400D03*
X125546400Y-80404000D03*
X129723900Y-77312000D03*
X132974000Y-79229100D03*
X173291300Y-80150300D03*
X173348800Y-61614400D03*
X199288800Y-60695300D03*
X199088700Y-82427400D03*
X137765500Y-82376700D03*
X146746500Y-94958600D03*
X167573700Y-83499600D03*
X158056800Y-94947100D03*
X114959500Y-95070900D03*
X126498400Y-78687900D03*
X210734500Y-80234700D03*
X208195000Y-60695300D03*
X180736000Y-60775000D03*
X181388700Y-82605700D03*
X145283800Y-100100600D03*
X151060700Y-91928500D03*
X157130900Y-91851500D03*
X167133200Y-82962200D03*
X177994000Y-82318600D03*
X178485000Y-61650200D03*
X176711900Y-69875600D03*
X167085600Y-69433100D03*
X157398800Y-90837100D03*
X150719600Y-90414300D03*
X143158200Y-97118900D03*
X140496500Y-97118900D03*
X138465900Y-99996500D03*
X175101800Y-71384700D03*
X173229300Y-92872600D03*
X200025000Y-73516900D03*
X199629900Y-92877100D03*
X173389200Y-87076700D03*
X163254500Y-87017600D03*
X161075900Y-87625800D03*
X151169900Y-89936300D03*
X138491800Y-103863000D03*
X129804300Y-103240500D03*
X119462700Y-98815900D03*
X215162600Y-60797700D03*
X214197000Y-79334100D03*
X192187300Y-78796300D03*
X189171000Y-60610300D03*
X180340000Y-94492400D03*
X171213100Y-95810400D03*
X169196800Y-100600900D03*
X134416000Y-79854500D03*
X145210100Y-69495500D03*
X178562700Y-78205600D03*
X186690000Y-59569900D03*
X187846600Y-80234700D03*
X187846600Y-65390000D03*
X164775000Y-99610600D03*
X190428400Y-85709500D03*
X171018200Y-84675100D03*
X170183800Y-80505100D03*
X149846800Y-86819700D03*
X136754500Y-82775700D03*
X187208400Y-78820000D03*
X186690000Y-60610300D03*
X186690000Y-65065000D03*
X189601900Y-87249200D03*
X163994300Y-99609700D03*
X168084800Y-89194100D03*
X163994300Y-96381300D03*
X132744000Y-97975700D03*
X131044300Y-83091400D03*
X210978800Y-82285300D03*
X211319100Y-60775700D03*
X191512800Y-57760600D03*
X211047800Y-78299400D03*
X182917400Y-82247900D03*
X181325900Y-92125000D03*
X178729900Y-95285100D03*
X176668200Y-98313500D03*
X170399500Y-98655200D03*
X160129100Y-97574000D03*
X151661600Y-97306900D03*
X131454200Y-80969800D03*
X183984500Y-80234700D03*
X184149900Y-59569900D03*
X196850000Y-59140300D03*
X210947300Y-61890400D03*
X211063000Y-83059900D03*
X162825000Y-99614800D03*
X177491000Y-86983000D03*
X167521400Y-87918200D03*
X181901800Y-79038700D03*
X144513800Y-79786400D03*
X134156700Y-83229700D03*
X197706500Y-75001400D03*
X195476800Y-90437000D03*
X173914200Y-94936900D03*
X172279100Y-73517900D03*
X143447700Y-90655500D03*
X145090400Y-92810800D03*
X171378500Y-79208600D03*
X171245500Y-63707200D03*
X197908400Y-80180000D03*
X194857100Y-60691700D03*
X169106400Y-73478700D03*
X170377300Y-92542400D03*
X198120000Y-94000000D03*
X197789200Y-73515000D03*
X169598800Y-85816800D03*
X198231800Y-85991400D03*
X150343300Y-72725400D03*
X145640800Y-85793400D03*
X195691500Y-73765500D03*
X195644900Y-92995500D03*
X169147600Y-92875600D03*
X168853200Y-72588600D03*
X193860400Y-86200900D03*
X168623100Y-85268900D03*
X145423800Y-85140700D03*
X151582300Y-72120700D03*
X172085000Y-82400400D03*
X172918900Y-62033700D03*
X201189700Y-79425700D03*
X198315700Y-61145600D03*
X171830700Y-71084500D03*
X154367400Y-63765000D03*
X154209500Y-70404600D03*
X147461400Y-67250000D03*
X139067900Y-77380100D03*
X156889500Y-86294300D03*
X155270900Y-94896100D03*
X184912000Y-132682500D03*
X182531600Y-125860000D03*
X132966600Y-118348600D03*
X108307500Y-102312700D03*
X182268900Y-123900000D03*
X150442600Y-123563500D03*
X114282700Y-101367900D03*
X151275100Y-109160000D03*
X130208500Y-101483900D03*
X147174800Y-104287200D03*
X125131300Y-132677000D03*
X159399900Y-83916600D03*
X158366500Y-66130900D03*
X179070000Y-81772600D03*
X179809500Y-60799800D03*
X179070000Y-62409900D03*
X202353000Y-62560800D03*
X202841800Y-79420300D03*
X177314500Y-86370000D03*
X168236900Y-86370000D03*
X159870600Y-95173500D03*
X177211800Y-99600000D03*
X169952500Y-69958500D03*
X152198500Y-67859100D03*
X143546500Y-78116000D03*
X135996600Y-73957100D03*
X116726700Y-71570100D03*
X98594300Y-90908000D03*
X113521700Y-69230000D03*
X107435800Y-88785200D03*
X113652800Y-69880000D03*
X110026000Y-92540000D03*
X158303500Y-88668700D03*
X159956100Y-52875300D03*
X107046700Y-55847300D03*
X95801500Y-107918800D03*
X105525400Y-112569900D03*
X107458600Y-100804100D03*
X117939900Y-99597100D03*
X148646800Y-108695600D03*
X150407500Y-105788500D03*
X154014200Y-88171300D03*
X154146900Y-88884700D03*
X150299800Y-106652500D03*
X143275000Y-102715600D03*
X139389200Y-81416100D03*
X154293700Y-54580000D03*
X145576400Y-94964400D03*
X153759200Y-56530000D03*
X144219800Y-100847100D03*
X159312300Y-57830000D03*
X155953400Y-69270000D03*
X153759200Y-69270000D03*
X146050000Y-100852600D03*
X154209500Y-57227600D03*
X154270300Y-97748000D03*
M02*
