G04 #@! TF.FileFunction,Soldermask,Bot*
%FSLAX46Y46*%
G04 Gerber Fmt 4.6, Leading zero omitted, Abs format (unit mm)*
G04 Created by KiCad (PCBNEW 4.0.2+dfsg1-stable) date Thu 10 Jan 2019 07:37:44 CET*
%MOMM*%
G01*
G04 APERTURE LIST*
%ADD10C,0.100000*%
%ADD11R,1.930400X5.588000*%
%ADD12R,2.032000X1.727200*%
%ADD13O,2.032000X1.727200*%
%ADD14C,1.524000*%
%ADD15R,1.524000X1.524000*%
%ADD16R,1.727200X2.032000*%
%ADD17O,1.727200X2.032000*%
%ADD18C,4.064000*%
%ADD19R,2.235200X2.235200*%
%ADD20R,2.032000X2.032000*%
%ADD21O,2.032000X2.032000*%
%ADD22C,0.400000*%
G04 APERTURE END LIST*
D10*
D11*
X184912000Y-135890000D03*
X182372000Y-135890000D03*
X179832000Y-135890000D03*
X177292000Y-135890000D03*
X174752000Y-135890000D03*
X172212000Y-135890000D03*
X169672000Y-135890000D03*
X167132000Y-135890000D03*
X164592000Y-135890000D03*
X162052000Y-135890000D03*
X159512000Y-135890000D03*
X156972000Y-135890000D03*
X154432000Y-135890000D03*
X151892000Y-135890000D03*
X149352000Y-135890000D03*
D12*
X96520000Y-66040000D03*
D13*
X96520000Y-63500000D03*
X96520000Y-60960000D03*
X96520000Y-58420000D03*
D14*
X110490000Y-110604300D03*
X110490000Y-115455700D03*
X113030000Y-110604300D03*
X113030000Y-115455700D03*
X115570000Y-110604300D03*
X115570000Y-115455700D03*
X118110000Y-110604300D03*
X118110000Y-115455700D03*
X120650000Y-110604300D03*
X120650000Y-115455700D03*
X123190000Y-110604300D03*
X123190000Y-115455700D03*
D15*
X125730000Y-110604300D03*
D14*
X125730000Y-115455700D03*
D12*
X109220000Y-64770000D03*
D13*
X109220000Y-62230000D03*
X109220000Y-59690000D03*
D16*
X133350000Y-71120000D03*
D17*
X135890000Y-71120000D03*
X138430000Y-71120000D03*
D18*
X88900000Y-115570000D03*
X88900000Y-53340000D03*
X217170000Y-53340000D03*
X217170000Y-115570000D03*
D16*
X143510000Y-62230000D03*
D17*
X146050000Y-62230000D03*
X148590000Y-62230000D03*
X151130000Y-62230000D03*
D14*
X149860000Y-110604300D03*
X149860000Y-115455700D03*
X152400000Y-110604300D03*
X152400000Y-115455700D03*
X154940000Y-110604300D03*
X154940000Y-115455700D03*
X157480000Y-110604300D03*
X157480000Y-115455700D03*
X160020000Y-110604300D03*
X160020000Y-115455700D03*
X162560000Y-110604300D03*
X162560000Y-115455700D03*
X165100000Y-110604300D03*
X165100000Y-115455700D03*
X167640000Y-110604300D03*
X167640000Y-115455700D03*
X170180000Y-110604300D03*
X170180000Y-115455700D03*
X172720000Y-110604300D03*
X172720000Y-115455700D03*
X175260000Y-110604300D03*
X175260000Y-115455700D03*
X177800000Y-110604300D03*
X177800000Y-115455700D03*
X180340000Y-110604300D03*
X180340000Y-115455700D03*
X182880000Y-110604300D03*
X182880000Y-115455700D03*
D15*
X185420000Y-110604300D03*
D14*
X185420000Y-115455700D03*
D19*
X91440000Y-81280000D03*
D20*
X146050000Y-71120000D03*
D21*
X148590000Y-71120000D03*
D11*
X125222000Y-135890000D03*
X122682000Y-135890000D03*
X120142000Y-135890000D03*
X117602000Y-135890000D03*
X115062000Y-135890000D03*
X112522000Y-135890000D03*
X109982000Y-135890000D03*
D22*
X102415000Y-102576000D03*
X99489500Y-102494600D03*
X166040800Y-105763800D03*
X162721200Y-107829200D03*
X149315100Y-107829200D03*
X145297900Y-111846400D03*
X182756800Y-132385900D03*
X184587000Y-104300000D03*
X190504800Y-96464200D03*
X190504800Y-76628900D03*
X111623400Y-105651300D03*
X149239600Y-84270000D03*
X162266900Y-97776100D03*
X197862200Y-76200000D03*
X160899000Y-88706400D03*
X193830200Y-56903100D03*
X196320700Y-60789300D03*
X151539300Y-81088500D03*
X151539300Y-67305200D03*
X197862200Y-79426800D03*
X137992700Y-94500000D03*
X142550100Y-84900500D03*
X97637300Y-98350900D03*
X94342900Y-96503600D03*
X137887500Y-99672800D03*
X140145700Y-111893800D03*
X146267400Y-107370300D03*
X162005900Y-106757200D03*
X173876400Y-116598200D03*
X166392200Y-103596900D03*
X166625800Y-105424500D03*
X168112400Y-103587300D03*
X156659500Y-118298000D03*
X179832000Y-132658800D03*
X177292000Y-131943400D03*
X175115400Y-131527700D03*
X171574300Y-121940000D03*
X169312400Y-112273200D03*
X169672000Y-132686200D03*
X167060300Y-112327300D03*
X167132000Y-132666500D03*
X143311500Y-116934000D03*
X126605600Y-106988400D03*
X164592000Y-131943400D03*
X162052000Y-132019900D03*
X164443300Y-103545300D03*
X159512000Y-132667300D03*
X161602500Y-105611200D03*
X156611400Y-132346400D03*
X147495000Y-115597100D03*
X126405100Y-105404900D03*
X127233100Y-104656000D03*
X154432000Y-131943400D03*
X115149900Y-104533100D03*
X150932000Y-132673100D03*
X113432600Y-104003100D03*
X148675000Y-132673100D03*
X132647700Y-90767600D03*
X128303800Y-93108000D03*
X118900800Y-106627000D03*
X121318700Y-113646900D03*
X118332600Y-105622400D03*
X117705300Y-105622400D03*
X117105000Y-105622400D03*
X133238700Y-94201100D03*
X131262900Y-91868900D03*
X129424000Y-80201200D03*
X129540000Y-96600800D03*
X131877900Y-91343600D03*
X149164200Y-100954800D03*
X96108800Y-98809700D03*
X143210200Y-82367600D03*
X139787700Y-70452200D03*
X130431000Y-74187800D03*
X171405100Y-58561900D03*
X157974300Y-79754100D03*
X168029200Y-82285300D03*
X200660000Y-58890800D03*
X201164900Y-80147800D03*
X127684000Y-85916600D03*
X120055200Y-95121700D03*
X148082300Y-97242600D03*
X145858100Y-98607100D03*
X129147400Y-87257500D03*
X122419700Y-94092600D03*
X146328000Y-86816200D03*
X130672500Y-84413500D03*
X132750500Y-69020000D03*
X134139300Y-99135000D03*
X131006600Y-89749200D03*
X173460900Y-95529800D03*
X159301600Y-102335500D03*
X204327000Y-77185300D03*
X139875000Y-104773800D03*
X143888300Y-84388200D03*
X202774800Y-90021300D03*
X208221000Y-92974700D03*
X179176200Y-91436700D03*
X180759700Y-73511600D03*
X135249700Y-103177800D03*
X134034300Y-87944300D03*
X160522100Y-102865200D03*
X204612600Y-88973200D03*
X207736400Y-73515000D03*
X134977100Y-104773800D03*
X131417100Y-89279600D03*
X137868900Y-83366800D03*
X178631600Y-74695600D03*
X178640700Y-90875300D03*
X204697600Y-86829600D03*
X206719000Y-73515000D03*
X116724400Y-93660500D03*
X127991600Y-80218300D03*
X117096000Y-93116800D03*
X127934900Y-80922200D03*
X137627300Y-100413900D03*
X141659100Y-86883100D03*
X126882000Y-93567200D03*
X142616400Y-81711400D03*
X177378700Y-92146900D03*
X143576700Y-91895600D03*
X139132200Y-104773800D03*
X178169000Y-73515000D03*
X202983300Y-89402500D03*
X204772300Y-73516400D03*
X175041800Y-92331900D03*
X143031000Y-91074500D03*
X138428700Y-104773800D03*
X200193400Y-90470600D03*
X200579900Y-76466700D03*
X176833100Y-73767200D03*
X175512500Y-90929800D03*
X181200200Y-90174700D03*
X185225400Y-92931800D03*
X175077700Y-98276900D03*
X186458800Y-92601000D03*
X186516900Y-74854000D03*
X171283300Y-98907600D03*
X150050900Y-90466300D03*
X188487200Y-86686200D03*
X187966600Y-93056600D03*
X186693200Y-72635100D03*
X208309700Y-80323900D03*
X200896300Y-64713500D03*
X181735400Y-79677600D03*
X177373200Y-65238800D03*
X202588700Y-73515000D03*
X139971400Y-82821700D03*
X137001500Y-104773800D03*
X200935000Y-69479200D03*
X175824800Y-92298800D03*
X175195900Y-74174000D03*
X202030600Y-93042700D03*
X174456800Y-88456600D03*
X201603000Y-87478200D03*
X174464200Y-92875700D03*
X143438500Y-88688100D03*
X201715100Y-73489400D03*
X139446100Y-82316500D03*
X174290000Y-73515000D03*
X138338100Y-103198400D03*
X201218000Y-92889200D03*
X194457000Y-61846600D03*
X198462600Y-79477700D03*
X176020100Y-80155200D03*
X176077300Y-60778800D03*
X173240900Y-70324100D03*
X123946700Y-95207000D03*
X137468200Y-82311600D03*
X177418100Y-79469400D03*
X175124400Y-68911800D03*
X177165000Y-60798100D03*
X136249300Y-81688700D03*
X121458200Y-96414300D03*
X117612900Y-92045000D03*
X142123800Y-81206700D03*
X137182900Y-100948100D03*
X140573000Y-82836000D03*
X116242100Y-94146500D03*
X129660500Y-77845600D03*
X172985000Y-58099000D03*
X198884400Y-61227500D03*
X199963600Y-80154200D03*
X115654100Y-78820000D03*
X109575000Y-96511200D03*
X168364700Y-83102600D03*
X161237700Y-94900300D03*
X148876200Y-94518800D03*
X134596600Y-78455400D03*
X120677400Y-96452000D03*
X183513500Y-63844200D03*
X133712000Y-78571900D03*
X181210400Y-82459500D03*
X182792900Y-67577700D03*
X141972900Y-76397400D03*
X131410700Y-76683700D03*
X119843500Y-98348200D03*
X181408900Y-80201400D03*
X182267400Y-66493900D03*
X133959400Y-72834700D03*
X182806300Y-62790000D03*
X132758100Y-81485800D03*
X172911700Y-73518100D03*
X173173000Y-92877400D03*
X121226200Y-95084900D03*
X196886400Y-74911200D03*
X186910700Y-69417800D03*
X199323100Y-92974700D03*
X141058900Y-79794000D03*
X187961900Y-80747300D03*
X182899100Y-97051200D03*
X188398300Y-60791400D03*
X186161400Y-67032800D03*
X130888600Y-78444100D03*
X135210800Y-74121900D03*
X164775000Y-97746700D03*
X150504600Y-83460300D03*
X146651700Y-83460300D03*
X133249400Y-80175600D03*
X185764600Y-76810700D03*
X186690000Y-60385100D03*
X172076700Y-78672100D03*
X149421200Y-95899900D03*
X132649000Y-80285000D03*
X185761700Y-80138800D03*
X176631300Y-96580500D03*
X186076400Y-60867800D03*
X150263000Y-96642800D03*
X131301700Y-80876400D03*
X168342900Y-89336100D03*
X162734000Y-96750700D03*
X185267300Y-61118800D03*
X184562900Y-79132500D03*
X183923100Y-83594200D03*
X184973500Y-62298100D03*
X168655900Y-100641800D03*
X150203300Y-97432200D03*
X133175600Y-80792100D03*
X128617800Y-79664100D03*
X130040100Y-84666900D03*
X198313700Y-91351200D03*
X198762800Y-73534600D03*
X172321600Y-92868500D03*
X172720000Y-72635100D03*
X170815000Y-61096300D03*
X191931700Y-59480100D03*
X170887800Y-80145700D03*
X166504200Y-93809100D03*
X196773900Y-73386200D03*
X192438300Y-69104000D03*
X197387000Y-92891300D03*
X169687300Y-92025600D03*
X170186000Y-72676500D03*
X190878000Y-68545800D03*
X168547700Y-92527900D03*
X168912500Y-72676500D03*
X195930900Y-73540000D03*
X196109000Y-92868700D03*
X197737200Y-61320700D03*
X199363200Y-80180500D03*
X171463400Y-68582300D03*
X171583200Y-80234700D03*
X172580400Y-60695300D03*
X154585000Y-63765000D03*
X150516300Y-72798300D03*
X148663700Y-65868600D03*
X143644300Y-73216300D03*
X147506800Y-66265300D03*
X142805300Y-73413600D03*
X154245700Y-88404600D03*
X152022000Y-94978500D03*
X185268900Y-131345900D03*
X158284600Y-81881400D03*
X157314900Y-66419200D03*
X179538500Y-60777800D03*
X183985100Y-63343400D03*
X181101500Y-83109500D03*
X167002500Y-101167200D03*
M02*
