M48
;DRILL file {KiCad 4.0.2+dfsg1-stable} date Fri 08 Feb 2019 16:08:29 CET
;FORMAT={-:-/ absolute / metric / decimal}
FMAT,2
METRIC,TZ
T1C0.300
T2C1.016
T3C3.000
%
G90
G05
M71
T1
X106.453Y-55.483
X113.179Y-132.225
X115.631Y-132.626
X115.865Y-49.454
X116.515Y-47.082
X117.72Y-104.395
X118.293Y-132.269
X118.898Y-50.023
X120.833Y-132.681
X122.33Y-46.301
X122.855Y-45.72
X122.95Y-30.102
X122.95Y-55.555
X123.203Y-86.09
X123.369Y-132.626
X124.135Y-45.148
X126.443Y-132.771
X126.67Y-51.819
X132.366Y-36.221
X132.933Y-69.751
X133.858Y-91.105
X134.358Y-58.576
X134.431Y-55.491
X134.887Y-63.283
X135.488Y-62.682
X135.491Y-57.447
X135.754Y-78.609
X136.061Y-74.202
X136.096Y-66.833
X136.366Y-39.798
X136.549Y-65.427
X136.757Y-71.679
X136.908Y-67.71
X137.331Y-61.033
X137.41Y-55.411
X137.425Y-76.12
X137.805Y-94.458
X137.961Y-54.979
X138.579Y-69.364
X138.61Y-57.675
X138.707Y-60.583
X138.723Y-59.206
X139.31Y-57.184
X139.36Y-106.979
X140.003Y-57.014
X140.235Y-44.693
X140.281Y-101.105
X140.392Y-65.307
X140.5Y-63.503
X140.615Y-87.536
X140.615Y-95.758
X140.761Y-44.062
X140.867Y-57.968
X140.868Y-56.083
X141.066Y-71.312
X141.169Y-55.035
X141.265Y-96.834
X141.279Y-77.634
X141.402Y-83.844
X141.851Y-55.242
X141.968Y-68.186
X142.524Y-73.816
X142.565Y-101.638
X142.886Y-37.507
X143.107Y-72.004
X143.215Y-75.398
X143.215Y-106.394
X143.273Y-62.064
X143.433Y-74.77
X144.049Y-45.403
X144.299Y-56.375
X144.515Y-89.468
X144.515Y-92.969
X144.606Y-96.208
X145.165Y-95.651
X145.688Y-58.176
X145.878Y-31.627
X145.907Y-61.996
X146.198Y-75.878
X146.623Y-68.579
X146.766Y-44.693
X147.673Y-62.99
X147.782Y-67.216
X147.892Y-71.245
X148.047Y-56.392
X148.319Y-66.882
X148.85Y-56.332
X148.854Y-66.333
X148.971Y-104.856
X149.024Y-63.302
X149.378Y-65.89
X149.622Y-62.924
X149.691Y-47.668
X149.694Y-132.341
X149.8Y-57.786
X149.935Y-71.245
X150.15Y-62.51
X150.296Y-106.318
X150.745Y-130.019
X150.746Y-68.419
X150.775Y-86.935
X150.871Y-63.089
X151.733Y-112.381
X151.834Y-47.083
X151.851Y-77.437
X152.416Y-66.605
X152.596Y-95.247
X152.859Y-55.459
X152.926Y-112.381
X152.941Y-79.748
X153.017Y-75.135
X153.058Y-63.372
X153.375Y-84.723
X153.375Y-95.263
X153.487Y-78.322
X154.099Y-63.805
X154.253Y-101.873
X154.428Y-54.32
X154.588Y-83.737
X154.625Y-71.5
X154.675Y-87.637
X154.675Y-95.252
X155.325Y-100.011
X155.547Y-37.452
X156.136Y-46.078
X156.659Y-101.647
X156.77Y-130.693
X157.311Y-36.671
X157.377Y-75.757
X158.126Y-66.481
X158.296Y-57.276
X158.462Y-46.862
X158.958Y-115.563
X159.232Y-97.438
X159.635Y-87.637
X159.907Y-36.957
X160.935Y-73.189
X161.018Y-63.114
X161.66Y-63.7
X161.828Y-38.199
X162.23Y-70.912
X162.371Y-35.696
X162.744Y-62.889
X163.535Y-87.635
X163.609Y-63.625
X164.125Y-73.732
X164.185Y-85.961
X164.194Y-38.091
X164.603Y-89.447
X164.767Y-57.599
X164.835Y-95.252
X165.1Y-112.792
X166.229Y-105.106
X166.413Y-63.844
X166.5Y-58.21
X166.772Y-85.818
X166.851Y-104.515
X166.969Y-97.438
X167.674Y-132.667
X168.027Y-100.08
X168.275Y-53.812
X168.275Y-55.459
X168.403Y-36.565
X168.577Y-40.319
X168.995Y-70.432
X169.406Y-73.042
X169.795Y-93.426
X170.068Y-86.831
X170.18Y-105.106
X170.22Y-78.019
X170.265Y-58.66
X170.445Y-92.891
X170.472Y-87.276
X170.783Y-69.772
X170.815Y-62.413
X170.989Y-97.246
X171.745Y-95.701
X171.838Y-65.081
X171.921Y-78.342
X172.635Y-61.477
X172.684Y-132.626
X172.783Y-96.259
X172.844Y-104.172
X173.355Y-59.151
X173.355Y-65.518
X173.355Y-78.166
X173.522Y-95.674
X173.593Y-84.558
X173.695Y-85.39
X173.719Y-96.869
X173.99Y-69.772
X174.08Y-82.847
X174.625Y-61.792
X174.625Y-75.147
X174.671Y-84.019
X174.995Y-95.247
X175.095Y-89.88
X175.145Y-35.932
X175.443Y-132.463
X175.643Y-36.457
X175.895Y-37.208
X175.895Y-62.977
X175.895Y-69.243
X176.002Y-85.351
X176.48Y-60.382
X176.53Y-44.282
X177.196Y-64.429
X177.885Y-81.214
X178.269Y-66.161
X178.382Y-51.171
X178.451Y-93.125
X179.19Y-97.811
X179.339Y-94.775
X179.79Y-55.64
X180.325Y-100.45
X180.422Y-132.626
X180.975Y-46.736
X180.975Y-72.457
X180.975Y-81.134
X181.211Y-101.426
X181.218Y-64.696
X181.61Y-71.5
X181.743Y-99.958
X182.231Y-68.953
X182.245Y-42.231
X182.245Y-81.145
X182.33Y-49.315
X182.851Y-99.433
X183.063Y-132.227
X183.43Y-70.969
X183.515Y-42.804
X183.515Y-47.005
X183.515Y-83.316
X184.785Y-43.318
X184.785Y-74.288
X185.653Y-132.626
X185.805Y-93.063
X185.96Y-51.817
X186.33Y-95.241
T2
X102.362Y-36.576
X102.87Y-55.88
X102.87Y-58.42
X107.95Y-29.21
X107.95Y-40.64
X107.95Y-43.18
X107.95Y-45.72
X107.95Y-48.26
X109.22Y-102.984
X109.22Y-107.836
X110.49Y-29.21
X111.76Y-102.984
X111.76Y-107.836
X113.03Y-29.21
X114.3Y-102.984
X114.3Y-107.836
X115.57Y-29.21
X116.84Y-102.984
X116.84Y-107.836
X119.38Y-102.984
X119.38Y-107.836
X120.65Y-22.86
X121.92Y-102.984
X121.92Y-107.836
X123.19Y-22.86
X124.46Y-102.984
X124.46Y-107.836
X125.73Y-22.86
X132.08Y-33.02
X133.35Y-22.86
X133.35Y-25.4
X134.62Y-33.02
X137.16Y-22.86
X137.16Y-25.4
X137.16Y-33.02
X140.97Y-22.86
X140.97Y-25.4
X144.78Y-22.86
X144.78Y-25.4
X148.59Y-22.86
X148.59Y-25.4
X148.59Y-102.984
X148.59Y-107.836
X151.13Y-102.984
X151.13Y-107.836
X152.4Y-22.86
X152.4Y-25.4
X153.67Y-102.984
X153.67Y-107.836
X156.21Y-22.86
X156.21Y-25.4
X156.21Y-102.984
X156.21Y-107.836
X158.75Y-102.984
X158.75Y-107.836
X160.02Y-22.86
X160.02Y-25.4
X161.29Y-102.984
X161.29Y-107.836
X163.83Y-102.984
X163.83Y-107.836
X166.37Y-102.984
X166.37Y-107.836
X168.91Y-102.984
X168.91Y-107.836
X171.45Y-102.984
X171.45Y-107.836
X173.99Y-102.984
X173.99Y-107.836
X176.53Y-102.984
X176.53Y-107.836
X179.07Y-102.984
X179.07Y-107.836
X181.61Y-102.984
X181.61Y-107.836
X184.15Y-102.984
X184.15Y-107.836
T3
X102.87Y-23.368
X102.87Y-114.808
X190.5Y-23.368
X191.77Y-114.808
T0
M30
