G04 #@! TF.FileFunction,Paste,Top*
%FSLAX46Y46*%
G04 Gerber Fmt 4.6, Leading zero omitted, Abs format (unit mm)*
G04 Created by KiCad (PCBNEW 4.0.2+dfsg1-stable) date Fri 08 Feb 2019 16:08:27 CET*
%MOMM*%
G01*
G04 APERTURE LIST*
%ADD10C,0.100000*%
%ADD11R,1.600200X2.999740*%
%ADD12R,2.999740X1.600200*%
%ADD13R,2.000000X1.600000*%
%ADD14R,1.600000X2.000000*%
%ADD15R,1.597660X1.800860*%
%ADD16R,2.598420X1.198880*%
%ADD17R,2.600960X1.198880*%
%ADD18R,2.000000X1.700000*%
%ADD19R,1.700000X2.000000*%
%ADD20R,2.032000X3.657600*%
%ADD21R,2.032000X1.016000*%
%ADD22R,0.400000X1.000000*%
%ADD23R,1.200000X0.400000*%
%ADD24R,1.100000X0.400000*%
%ADD25R,0.400000X1.100000*%
%ADD26R,0.450000X1.400000*%
%ADD27R,0.700000X1.750000*%
%ADD28R,1.300000X1.500000*%
%ADD29R,0.800000X1.500000*%
%ADD30R,1.450000X1.000000*%
%ADD31R,0.800000X1.400000*%
%ADD32R,1.500000X1.500000*%
%ADD33R,1.000000X1.550000*%
%ADD34R,1.930400X5.588000*%
%ADD35R,2.180000X1.600000*%
G04 APERTURE END LIST*
D10*
G36*
X131979881Y-65472828D02*
X131781891Y-65274838D01*
X132842551Y-64214178D01*
X133040541Y-64412168D01*
X131979881Y-65472828D01*
X131979881Y-65472828D01*
G37*
G36*
X132333434Y-65826381D02*
X132135444Y-65628391D01*
X133196104Y-64567731D01*
X133394094Y-64765721D01*
X132333434Y-65826381D01*
X132333434Y-65826381D01*
G37*
G36*
X132686988Y-66179935D02*
X132488998Y-65981945D01*
X133549658Y-64921285D01*
X133747648Y-65119275D01*
X132686988Y-66179935D01*
X132686988Y-66179935D01*
G37*
G36*
X133040541Y-66533488D02*
X132842551Y-66335498D01*
X133903211Y-65274838D01*
X134101201Y-65472828D01*
X133040541Y-66533488D01*
X133040541Y-66533488D01*
G37*
G36*
X133394094Y-66887041D02*
X133196104Y-66689051D01*
X134256764Y-65628391D01*
X134454754Y-65826381D01*
X133394094Y-66887041D01*
X133394094Y-66887041D01*
G37*
G36*
X133747648Y-67240595D02*
X133549658Y-67042605D01*
X134610318Y-65981945D01*
X134808308Y-66179935D01*
X133747648Y-67240595D01*
X133747648Y-67240595D01*
G37*
G36*
X134101201Y-67594148D02*
X133903211Y-67396158D01*
X134963871Y-66335498D01*
X135161861Y-66533488D01*
X134101201Y-67594148D01*
X134101201Y-67594148D01*
G37*
G36*
X134454754Y-67947702D02*
X134256764Y-67749712D01*
X135317424Y-66689052D01*
X135515414Y-66887042D01*
X134454754Y-67947702D01*
X134454754Y-67947702D01*
G37*
G36*
X134808308Y-68301255D02*
X134610318Y-68103265D01*
X135670978Y-67042605D01*
X135868968Y-67240595D01*
X134808308Y-68301255D01*
X134808308Y-68301255D01*
G37*
G36*
X135161861Y-68654808D02*
X134963871Y-68456818D01*
X136024531Y-67396158D01*
X136222521Y-67594148D01*
X135161861Y-68654808D01*
X135161861Y-68654808D01*
G37*
G36*
X135515415Y-69008362D02*
X135317425Y-68810372D01*
X136378085Y-67749712D01*
X136576075Y-67947702D01*
X135515415Y-69008362D01*
X135515415Y-69008362D01*
G37*
G36*
X135868968Y-69361915D02*
X135670978Y-69163925D01*
X136731638Y-68103265D01*
X136929628Y-68301255D01*
X135868968Y-69361915D01*
X135868968Y-69361915D01*
G37*
G36*
X136222521Y-69715469D02*
X136024531Y-69517479D01*
X137085191Y-68456819D01*
X137283181Y-68654809D01*
X136222521Y-69715469D01*
X136222521Y-69715469D01*
G37*
G36*
X136576075Y-70069022D02*
X136378085Y-69871032D01*
X137438745Y-68810372D01*
X137636735Y-69008362D01*
X136576075Y-70069022D01*
X136576075Y-70069022D01*
G37*
G36*
X136929628Y-70422575D02*
X136731638Y-70224585D01*
X137792298Y-69163925D01*
X137990288Y-69361915D01*
X136929628Y-70422575D01*
X136929628Y-70422575D01*
G37*
G36*
X137283182Y-70776129D02*
X137085192Y-70578139D01*
X138145852Y-69517479D01*
X138343842Y-69715469D01*
X137283182Y-70776129D01*
X137283182Y-70776129D01*
G37*
G36*
X137636735Y-71129682D02*
X137438745Y-70931692D01*
X138499405Y-69871032D01*
X138697395Y-70069022D01*
X137636735Y-71129682D01*
X137636735Y-71129682D01*
G37*
G36*
X137990288Y-71483236D02*
X137792298Y-71285246D01*
X138852958Y-70224586D01*
X139050948Y-70422576D01*
X137990288Y-71483236D01*
X137990288Y-71483236D01*
G37*
G36*
X138343842Y-71836789D02*
X138145852Y-71638799D01*
X139206512Y-70578139D01*
X139404502Y-70776129D01*
X138343842Y-71836789D01*
X138343842Y-71836789D01*
G37*
G36*
X138697395Y-72190342D02*
X138499405Y-71992352D01*
X139560065Y-70931692D01*
X139758055Y-71129682D01*
X138697395Y-72190342D01*
X138697395Y-72190342D01*
G37*
G36*
X139050949Y-72543896D02*
X138852959Y-72345906D01*
X139913619Y-71285246D01*
X140111609Y-71483236D01*
X139050949Y-72543896D01*
X139050949Y-72543896D01*
G37*
G36*
X139404502Y-72897449D02*
X139206512Y-72699459D01*
X140267172Y-71638799D01*
X140465162Y-71836789D01*
X139404502Y-72897449D01*
X139404502Y-72897449D01*
G37*
G36*
X139758055Y-73251002D02*
X139560065Y-73053012D01*
X140620725Y-71992352D01*
X140818715Y-72190342D01*
X139758055Y-73251002D01*
X139758055Y-73251002D01*
G37*
G36*
X140111609Y-73604556D02*
X139913619Y-73406566D01*
X140974279Y-72345906D01*
X141172269Y-72543896D01*
X140111609Y-73604556D01*
X140111609Y-73604556D01*
G37*
G36*
X140465162Y-73958109D02*
X140267172Y-73760119D01*
X141327832Y-72699459D01*
X141525822Y-72897449D01*
X140465162Y-73958109D01*
X140465162Y-73958109D01*
G37*
G36*
X144212828Y-73760119D02*
X144014838Y-73958109D01*
X142954178Y-72897449D01*
X143152168Y-72699459D01*
X144212828Y-73760119D01*
X144212828Y-73760119D01*
G37*
G36*
X144566381Y-73406566D02*
X144368391Y-73604556D01*
X143307731Y-72543896D01*
X143505721Y-72345906D01*
X144566381Y-73406566D01*
X144566381Y-73406566D01*
G37*
G36*
X144919935Y-73053012D02*
X144721945Y-73251002D01*
X143661285Y-72190342D01*
X143859275Y-71992352D01*
X144919935Y-73053012D01*
X144919935Y-73053012D01*
G37*
G36*
X145273488Y-72699459D02*
X145075498Y-72897449D01*
X144014838Y-71836789D01*
X144212828Y-71638799D01*
X145273488Y-72699459D01*
X145273488Y-72699459D01*
G37*
G36*
X145627041Y-72345906D02*
X145429051Y-72543896D01*
X144368391Y-71483236D01*
X144566381Y-71285246D01*
X145627041Y-72345906D01*
X145627041Y-72345906D01*
G37*
G36*
X145980595Y-71992352D02*
X145782605Y-72190342D01*
X144721945Y-71129682D01*
X144919935Y-70931692D01*
X145980595Y-71992352D01*
X145980595Y-71992352D01*
G37*
G36*
X146334148Y-71638799D02*
X146136158Y-71836789D01*
X145075498Y-70776129D01*
X145273488Y-70578139D01*
X146334148Y-71638799D01*
X146334148Y-71638799D01*
G37*
G36*
X146687702Y-71285246D02*
X146489712Y-71483236D01*
X145429052Y-70422576D01*
X145627042Y-70224586D01*
X146687702Y-71285246D01*
X146687702Y-71285246D01*
G37*
G36*
X147041255Y-70931692D02*
X146843265Y-71129682D01*
X145782605Y-70069022D01*
X145980595Y-69871032D01*
X147041255Y-70931692D01*
X147041255Y-70931692D01*
G37*
G36*
X147394808Y-70578139D02*
X147196818Y-70776129D01*
X146136158Y-69715469D01*
X146334148Y-69517479D01*
X147394808Y-70578139D01*
X147394808Y-70578139D01*
G37*
G36*
X147748362Y-70224585D02*
X147550372Y-70422575D01*
X146489712Y-69361915D01*
X146687702Y-69163925D01*
X147748362Y-70224585D01*
X147748362Y-70224585D01*
G37*
G36*
X148101915Y-69871032D02*
X147903925Y-70069022D01*
X146843265Y-69008362D01*
X147041255Y-68810372D01*
X148101915Y-69871032D01*
X148101915Y-69871032D01*
G37*
G36*
X148455469Y-69517479D02*
X148257479Y-69715469D01*
X147196819Y-68654809D01*
X147394809Y-68456819D01*
X148455469Y-69517479D01*
X148455469Y-69517479D01*
G37*
G36*
X148809022Y-69163925D02*
X148611032Y-69361915D01*
X147550372Y-68301255D01*
X147748362Y-68103265D01*
X148809022Y-69163925D01*
X148809022Y-69163925D01*
G37*
G36*
X149162575Y-68810372D02*
X148964585Y-69008362D01*
X147903925Y-67947702D01*
X148101915Y-67749712D01*
X149162575Y-68810372D01*
X149162575Y-68810372D01*
G37*
G36*
X149516129Y-68456818D02*
X149318139Y-68654808D01*
X148257479Y-67594148D01*
X148455469Y-67396158D01*
X149516129Y-68456818D01*
X149516129Y-68456818D01*
G37*
G36*
X149869682Y-68103265D02*
X149671692Y-68301255D01*
X148611032Y-67240595D01*
X148809022Y-67042605D01*
X149869682Y-68103265D01*
X149869682Y-68103265D01*
G37*
G36*
X150223236Y-67749712D02*
X150025246Y-67947702D01*
X148964586Y-66887042D01*
X149162576Y-66689052D01*
X150223236Y-67749712D01*
X150223236Y-67749712D01*
G37*
G36*
X150576789Y-67396158D02*
X150378799Y-67594148D01*
X149318139Y-66533488D01*
X149516129Y-66335498D01*
X150576789Y-67396158D01*
X150576789Y-67396158D01*
G37*
G36*
X150930342Y-67042605D02*
X150732352Y-67240595D01*
X149671692Y-66179935D01*
X149869682Y-65981945D01*
X150930342Y-67042605D01*
X150930342Y-67042605D01*
G37*
G36*
X151283896Y-66689051D02*
X151085906Y-66887041D01*
X150025246Y-65826381D01*
X150223236Y-65628391D01*
X151283896Y-66689051D01*
X151283896Y-66689051D01*
G37*
G36*
X151637449Y-66335498D02*
X151439459Y-66533488D01*
X150378799Y-65472828D01*
X150576789Y-65274838D01*
X151637449Y-66335498D01*
X151637449Y-66335498D01*
G37*
G36*
X151991002Y-65981945D02*
X151793012Y-66179935D01*
X150732352Y-65119275D01*
X150930342Y-64921285D01*
X151991002Y-65981945D01*
X151991002Y-65981945D01*
G37*
G36*
X152344556Y-65628391D02*
X152146566Y-65826381D01*
X151085906Y-64765721D01*
X151283896Y-64567731D01*
X152344556Y-65628391D01*
X152344556Y-65628391D01*
G37*
G36*
X152698109Y-65274838D02*
X152500119Y-65472828D01*
X151439459Y-64412168D01*
X151637449Y-64214178D01*
X152698109Y-65274838D01*
X152698109Y-65274838D01*
G37*
G36*
X151637449Y-62785822D02*
X151439459Y-62587832D01*
X152500119Y-61527172D01*
X152698109Y-61725162D01*
X151637449Y-62785822D01*
X151637449Y-62785822D01*
G37*
G36*
X151283896Y-62432269D02*
X151085906Y-62234279D01*
X152146566Y-61173619D01*
X152344556Y-61371609D01*
X151283896Y-62432269D01*
X151283896Y-62432269D01*
G37*
G36*
X150930342Y-62078715D02*
X150732352Y-61880725D01*
X151793012Y-60820065D01*
X151991002Y-61018055D01*
X150930342Y-62078715D01*
X150930342Y-62078715D01*
G37*
G36*
X150576789Y-61725162D02*
X150378799Y-61527172D01*
X151439459Y-60466512D01*
X151637449Y-60664502D01*
X150576789Y-61725162D01*
X150576789Y-61725162D01*
G37*
G36*
X150223236Y-61371609D02*
X150025246Y-61173619D01*
X151085906Y-60112959D01*
X151283896Y-60310949D01*
X150223236Y-61371609D01*
X150223236Y-61371609D01*
G37*
G36*
X149869682Y-61018055D02*
X149671692Y-60820065D01*
X150732352Y-59759405D01*
X150930342Y-59957395D01*
X149869682Y-61018055D01*
X149869682Y-61018055D01*
G37*
G36*
X149516129Y-60664502D02*
X149318139Y-60466512D01*
X150378799Y-59405852D01*
X150576789Y-59603842D01*
X149516129Y-60664502D01*
X149516129Y-60664502D01*
G37*
G36*
X149162576Y-60310948D02*
X148964586Y-60112958D01*
X150025246Y-59052298D01*
X150223236Y-59250288D01*
X149162576Y-60310948D01*
X149162576Y-60310948D01*
G37*
G36*
X148809022Y-59957395D02*
X148611032Y-59759405D01*
X149671692Y-58698745D01*
X149869682Y-58896735D01*
X148809022Y-59957395D01*
X148809022Y-59957395D01*
G37*
G36*
X148455469Y-59603842D02*
X148257479Y-59405852D01*
X149318139Y-58345192D01*
X149516129Y-58543182D01*
X148455469Y-59603842D01*
X148455469Y-59603842D01*
G37*
G36*
X148101915Y-59250288D02*
X147903925Y-59052298D01*
X148964585Y-57991638D01*
X149162575Y-58189628D01*
X148101915Y-59250288D01*
X148101915Y-59250288D01*
G37*
G36*
X147748362Y-58896735D02*
X147550372Y-58698745D01*
X148611032Y-57638085D01*
X148809022Y-57836075D01*
X147748362Y-58896735D01*
X147748362Y-58896735D01*
G37*
G36*
X147394809Y-58543181D02*
X147196819Y-58345191D01*
X148257479Y-57284531D01*
X148455469Y-57482521D01*
X147394809Y-58543181D01*
X147394809Y-58543181D01*
G37*
G36*
X147041255Y-58189628D02*
X146843265Y-57991638D01*
X147903925Y-56930978D01*
X148101915Y-57128968D01*
X147041255Y-58189628D01*
X147041255Y-58189628D01*
G37*
G36*
X146687702Y-57836075D02*
X146489712Y-57638085D01*
X147550372Y-56577425D01*
X147748362Y-56775415D01*
X146687702Y-57836075D01*
X146687702Y-57836075D01*
G37*
G36*
X146334148Y-57482521D02*
X146136158Y-57284531D01*
X147196818Y-56223871D01*
X147394808Y-56421861D01*
X146334148Y-57482521D01*
X146334148Y-57482521D01*
G37*
G36*
X145980595Y-57128968D02*
X145782605Y-56930978D01*
X146843265Y-55870318D01*
X147041255Y-56068308D01*
X145980595Y-57128968D01*
X145980595Y-57128968D01*
G37*
G36*
X145627042Y-56775414D02*
X145429052Y-56577424D01*
X146489712Y-55516764D01*
X146687702Y-55714754D01*
X145627042Y-56775414D01*
X145627042Y-56775414D01*
G37*
G36*
X145273488Y-56421861D02*
X145075498Y-56223871D01*
X146136158Y-55163211D01*
X146334148Y-55361201D01*
X145273488Y-56421861D01*
X145273488Y-56421861D01*
G37*
G36*
X144919935Y-56068308D02*
X144721945Y-55870318D01*
X145782605Y-54809658D01*
X145980595Y-55007648D01*
X144919935Y-56068308D01*
X144919935Y-56068308D01*
G37*
G36*
X144566381Y-55714754D02*
X144368391Y-55516764D01*
X145429051Y-54456104D01*
X145627041Y-54654094D01*
X144566381Y-55714754D01*
X144566381Y-55714754D01*
G37*
G36*
X144212828Y-55361201D02*
X144014838Y-55163211D01*
X145075498Y-54102551D01*
X145273488Y-54300541D01*
X144212828Y-55361201D01*
X144212828Y-55361201D01*
G37*
G36*
X143859275Y-55007648D02*
X143661285Y-54809658D01*
X144721945Y-53748998D01*
X144919935Y-53946988D01*
X143859275Y-55007648D01*
X143859275Y-55007648D01*
G37*
G36*
X143505721Y-54654094D02*
X143307731Y-54456104D01*
X144368391Y-53395444D01*
X144566381Y-53593434D01*
X143505721Y-54654094D01*
X143505721Y-54654094D01*
G37*
G36*
X143152168Y-54300541D02*
X142954178Y-54102551D01*
X144014838Y-53041891D01*
X144212828Y-53239881D01*
X143152168Y-54300541D01*
X143152168Y-54300541D01*
G37*
G36*
X141525822Y-54102551D02*
X141327832Y-54300541D01*
X140267172Y-53239881D01*
X140465162Y-53041891D01*
X141525822Y-54102551D01*
X141525822Y-54102551D01*
G37*
G36*
X141172269Y-54456104D02*
X140974279Y-54654094D01*
X139913619Y-53593434D01*
X140111609Y-53395444D01*
X141172269Y-54456104D01*
X141172269Y-54456104D01*
G37*
G36*
X140818715Y-54809658D02*
X140620725Y-55007648D01*
X139560065Y-53946988D01*
X139758055Y-53748998D01*
X140818715Y-54809658D01*
X140818715Y-54809658D01*
G37*
G36*
X140465162Y-55163211D02*
X140267172Y-55361201D01*
X139206512Y-54300541D01*
X139404502Y-54102551D01*
X140465162Y-55163211D01*
X140465162Y-55163211D01*
G37*
G36*
X140111609Y-55516764D02*
X139913619Y-55714754D01*
X138852959Y-54654094D01*
X139050949Y-54456104D01*
X140111609Y-55516764D01*
X140111609Y-55516764D01*
G37*
G36*
X139758055Y-55870318D02*
X139560065Y-56068308D01*
X138499405Y-55007648D01*
X138697395Y-54809658D01*
X139758055Y-55870318D01*
X139758055Y-55870318D01*
G37*
G36*
X139404502Y-56223871D02*
X139206512Y-56421861D01*
X138145852Y-55361201D01*
X138343842Y-55163211D01*
X139404502Y-56223871D01*
X139404502Y-56223871D01*
G37*
G36*
X139050948Y-56577424D02*
X138852958Y-56775414D01*
X137792298Y-55714754D01*
X137990288Y-55516764D01*
X139050948Y-56577424D01*
X139050948Y-56577424D01*
G37*
G36*
X138697395Y-56930978D02*
X138499405Y-57128968D01*
X137438745Y-56068308D01*
X137636735Y-55870318D01*
X138697395Y-56930978D01*
X138697395Y-56930978D01*
G37*
G36*
X138343842Y-57284531D02*
X138145852Y-57482521D01*
X137085192Y-56421861D01*
X137283182Y-56223871D01*
X138343842Y-57284531D01*
X138343842Y-57284531D01*
G37*
G36*
X137990288Y-57638085D02*
X137792298Y-57836075D01*
X136731638Y-56775415D01*
X136929628Y-56577425D01*
X137990288Y-57638085D01*
X137990288Y-57638085D01*
G37*
G36*
X137636735Y-57991638D02*
X137438745Y-58189628D01*
X136378085Y-57128968D01*
X136576075Y-56930978D01*
X137636735Y-57991638D01*
X137636735Y-57991638D01*
G37*
G36*
X137283181Y-58345191D02*
X137085191Y-58543181D01*
X136024531Y-57482521D01*
X136222521Y-57284531D01*
X137283181Y-58345191D01*
X137283181Y-58345191D01*
G37*
G36*
X136929628Y-58698745D02*
X136731638Y-58896735D01*
X135670978Y-57836075D01*
X135868968Y-57638085D01*
X136929628Y-58698745D01*
X136929628Y-58698745D01*
G37*
G36*
X136576075Y-59052298D02*
X136378085Y-59250288D01*
X135317425Y-58189628D01*
X135515415Y-57991638D01*
X136576075Y-59052298D01*
X136576075Y-59052298D01*
G37*
G36*
X136222521Y-59405852D02*
X136024531Y-59603842D01*
X134963871Y-58543182D01*
X135161861Y-58345192D01*
X136222521Y-59405852D01*
X136222521Y-59405852D01*
G37*
G36*
X135868968Y-59759405D02*
X135670978Y-59957395D01*
X134610318Y-58896735D01*
X134808308Y-58698745D01*
X135868968Y-59759405D01*
X135868968Y-59759405D01*
G37*
G36*
X135515414Y-60112958D02*
X135317424Y-60310948D01*
X134256764Y-59250288D01*
X134454754Y-59052298D01*
X135515414Y-60112958D01*
X135515414Y-60112958D01*
G37*
G36*
X135161861Y-60466512D02*
X134963871Y-60664502D01*
X133903211Y-59603842D01*
X134101201Y-59405852D01*
X135161861Y-60466512D01*
X135161861Y-60466512D01*
G37*
G36*
X134808308Y-60820065D02*
X134610318Y-61018055D01*
X133549658Y-59957395D01*
X133747648Y-59759405D01*
X134808308Y-60820065D01*
X134808308Y-60820065D01*
G37*
G36*
X134454754Y-61173619D02*
X134256764Y-61371609D01*
X133196104Y-60310949D01*
X133394094Y-60112959D01*
X134454754Y-61173619D01*
X134454754Y-61173619D01*
G37*
G36*
X134101201Y-61527172D02*
X133903211Y-61725162D01*
X132842551Y-60664502D01*
X133040541Y-60466512D01*
X134101201Y-61527172D01*
X134101201Y-61527172D01*
G37*
G36*
X133747648Y-61880725D02*
X133549658Y-62078715D01*
X132488998Y-61018055D01*
X132686988Y-60820065D01*
X133747648Y-61880725D01*
X133747648Y-61880725D01*
G37*
G36*
X133394094Y-62234279D02*
X133196104Y-62432269D01*
X132135444Y-61371609D01*
X132333434Y-61173619D01*
X133394094Y-62234279D01*
X133394094Y-62234279D01*
G37*
G36*
X133040541Y-62587832D02*
X132842551Y-62785822D01*
X131781891Y-61725162D01*
X131979881Y-61527172D01*
X133040541Y-62587832D01*
X133040541Y-62587832D01*
G37*
D11*
X123190000Y-84160360D03*
X123190000Y-88559640D03*
D12*
X105831640Y-86360000D03*
X101432360Y-86360000D03*
X107101640Y-93726000D03*
X102702360Y-93726000D03*
D13*
X143986000Y-41402000D03*
X139986000Y-41402000D03*
X133636000Y-46990000D03*
X137636000Y-46990000D03*
D14*
X139700000Y-79280000D03*
X139700000Y-83280000D03*
D13*
X126460000Y-66040000D03*
X122460000Y-66040000D03*
X132366000Y-41402000D03*
X136366000Y-41402000D03*
X122460000Y-62230000D03*
X126460000Y-62230000D03*
D14*
X133858000Y-93694000D03*
X133858000Y-89694000D03*
D13*
X119158000Y-96774000D03*
X123158000Y-96774000D03*
X134080000Y-52070000D03*
X130080000Y-52070000D03*
D14*
X113030000Y-59150000D03*
X113030000Y-55150000D03*
X118110000Y-59150000D03*
X118110000Y-55150000D03*
X144272000Y-37052000D03*
X144272000Y-33052000D03*
D15*
X112118140Y-80264000D03*
X114957860Y-80264000D03*
X112118140Y-96774000D03*
X114957860Y-96774000D03*
X189379860Y-29210000D03*
X186540140Y-29210000D03*
X148739860Y-83820000D03*
X145900140Y-83820000D03*
X125879860Y-27940000D03*
X123040140Y-27940000D03*
D16*
X122951240Y-80518000D03*
D17*
X118348760Y-80518000D03*
D16*
X123967240Y-92710000D03*
D17*
X119364760Y-92710000D03*
D18*
X104172000Y-80264000D03*
X108172000Y-80264000D03*
X115030000Y-92710000D03*
X111030000Y-92710000D03*
X122460000Y-57150000D03*
X126460000Y-57150000D03*
X165640000Y-114300000D03*
X169640000Y-114300000D03*
X155480000Y-114300000D03*
X159480000Y-114300000D03*
D19*
X135890000Y-80550000D03*
X135890000Y-84550000D03*
D18*
X126460000Y-71120000D03*
X122460000Y-71120000D03*
D19*
X159766000Y-67532000D03*
X159766000Y-63532000D03*
D18*
X155416000Y-56134000D03*
X151416000Y-56134000D03*
X150908000Y-51816000D03*
X154908000Y-51816000D03*
D19*
X159766000Y-59150000D03*
X159766000Y-55150000D03*
D18*
X143034000Y-47244000D03*
X147034000Y-47244000D03*
X189960000Y-34290000D03*
X185960000Y-34290000D03*
X150590000Y-78740000D03*
X146590000Y-78740000D03*
X126460000Y-33020000D03*
X122460000Y-33020000D03*
D20*
X109728000Y-86360000D03*
D21*
X116332000Y-86360000D03*
X116332000Y-84074000D03*
X116332000Y-88646000D03*
D22*
X185805000Y-88540000D03*
X185155000Y-88540000D03*
X184505000Y-88540000D03*
X183855000Y-88540000D03*
X183205000Y-88540000D03*
X182555000Y-88540000D03*
X181905000Y-88540000D03*
X181255000Y-88540000D03*
X180605000Y-88540000D03*
X179955000Y-88540000D03*
X179955000Y-94340000D03*
X180605000Y-94340000D03*
X181255000Y-94340000D03*
X181905000Y-94340000D03*
X182555000Y-94340000D03*
X183205000Y-94340000D03*
X183855000Y-94340000D03*
X184505000Y-94340000D03*
X185155000Y-94340000D03*
X185805000Y-94340000D03*
X145165000Y-88540000D03*
X144515000Y-88540000D03*
X143865000Y-88540000D03*
X143215000Y-88540000D03*
X142565000Y-88540000D03*
X141915000Y-88540000D03*
X141265000Y-88540000D03*
X140615000Y-88540000D03*
X139965000Y-88540000D03*
X139315000Y-88540000D03*
X139315000Y-94340000D03*
X139965000Y-94340000D03*
X140615000Y-94340000D03*
X141265000Y-94340000D03*
X141915000Y-94340000D03*
X142565000Y-94340000D03*
X143215000Y-94340000D03*
X143865000Y-94340000D03*
X144515000Y-94340000D03*
X145165000Y-94340000D03*
X175645000Y-88540000D03*
X174995000Y-88540000D03*
X174345000Y-88540000D03*
X173695000Y-88540000D03*
X173045000Y-88540000D03*
X172395000Y-88540000D03*
X171745000Y-88540000D03*
X171095000Y-88540000D03*
X170445000Y-88540000D03*
X169795000Y-88540000D03*
X169795000Y-94340000D03*
X170445000Y-94340000D03*
X171095000Y-94340000D03*
X171745000Y-94340000D03*
X172395000Y-94340000D03*
X173045000Y-94340000D03*
X173695000Y-94340000D03*
X174345000Y-94340000D03*
X174995000Y-94340000D03*
X175645000Y-94340000D03*
X155325000Y-88540000D03*
X154675000Y-88540000D03*
X154025000Y-88540000D03*
X153375000Y-88540000D03*
X152725000Y-88540000D03*
X152075000Y-88540000D03*
X151425000Y-88540000D03*
X150775000Y-88540000D03*
X150125000Y-88540000D03*
X149475000Y-88540000D03*
X149475000Y-94340000D03*
X150125000Y-94340000D03*
X150775000Y-94340000D03*
X151425000Y-94340000D03*
X152075000Y-94340000D03*
X152725000Y-94340000D03*
X153375000Y-94340000D03*
X154025000Y-94340000D03*
X154675000Y-94340000D03*
X155325000Y-94340000D03*
X165485000Y-88540000D03*
X164835000Y-88540000D03*
X164185000Y-88540000D03*
X163535000Y-88540000D03*
X162885000Y-88540000D03*
X162235000Y-88540000D03*
X161585000Y-88540000D03*
X160935000Y-88540000D03*
X160285000Y-88540000D03*
X159635000Y-88540000D03*
X159635000Y-94340000D03*
X160285000Y-94340000D03*
X160935000Y-94340000D03*
X161585000Y-94340000D03*
X162235000Y-94340000D03*
X162885000Y-94340000D03*
X163535000Y-94340000D03*
X164185000Y-94340000D03*
X164835000Y-94340000D03*
X165485000Y-94340000D03*
D23*
X160930000Y-37510000D03*
X160930000Y-36860000D03*
X160930000Y-36210000D03*
X160930000Y-35560000D03*
X160930000Y-34910000D03*
X160930000Y-34260000D03*
X160930000Y-33610000D03*
X154030000Y-33610000D03*
X154030000Y-34260000D03*
X154030000Y-34910000D03*
X154030000Y-35560000D03*
X154030000Y-36210000D03*
X154030000Y-36860000D03*
X154030000Y-37510000D03*
D24*
X157090000Y-46695000D03*
X157090000Y-46045000D03*
X157090000Y-45395000D03*
X157090000Y-44745000D03*
X152790000Y-44745000D03*
X152790000Y-45395000D03*
X152790000Y-46045000D03*
X152790000Y-46695000D03*
D25*
X117815000Y-46110000D03*
X117165000Y-46110000D03*
X116515000Y-46110000D03*
X115865000Y-46110000D03*
X115865000Y-50410000D03*
X116515000Y-50410000D03*
X117165000Y-50410000D03*
X117815000Y-50410000D03*
X125435000Y-46110000D03*
X124785000Y-46110000D03*
X124135000Y-46110000D03*
X123485000Y-46110000D03*
X123485000Y-50410000D03*
X124135000Y-50410000D03*
X124785000Y-50410000D03*
X125435000Y-50410000D03*
D10*
G36*
X135476904Y-77189949D02*
X133991980Y-78674873D01*
X132082792Y-76765685D01*
X133567716Y-75280761D01*
X135476904Y-77189949D01*
X135476904Y-77189949D01*
G37*
G36*
X131729239Y-73442284D02*
X130244315Y-74927208D01*
X128335127Y-73018020D01*
X129820051Y-71533096D01*
X131729239Y-73442284D01*
X131729239Y-73442284D01*
G37*
G36*
X129537208Y-75634315D02*
X128052284Y-77119239D01*
X126143096Y-75210051D01*
X127628020Y-73725127D01*
X129537208Y-75634315D01*
X129537208Y-75634315D01*
G37*
G36*
X133284873Y-79381980D02*
X131799949Y-80866904D01*
X129890761Y-78957716D01*
X131375685Y-77472792D01*
X133284873Y-79381980D01*
X133284873Y-79381980D01*
G37*
D26*
X165735000Y-44430000D03*
X165735000Y-57170000D03*
X167005000Y-44430000D03*
X167005000Y-57170000D03*
X168275000Y-44430000D03*
X168275000Y-57170000D03*
X169545000Y-44430000D03*
X169545000Y-57170000D03*
X170815000Y-44430000D03*
X170815000Y-57170000D03*
X172085000Y-44430000D03*
X172085000Y-57170000D03*
X173355000Y-44430000D03*
X173355000Y-57170000D03*
X174625000Y-44430000D03*
X174625000Y-57170000D03*
X175895000Y-44430000D03*
X175895000Y-57170000D03*
X177165000Y-44430000D03*
X177165000Y-57170000D03*
X178435000Y-44430000D03*
X178435000Y-57170000D03*
X179705000Y-44430000D03*
X179705000Y-57170000D03*
X180975000Y-44430000D03*
X180975000Y-57170000D03*
X182245000Y-44430000D03*
X182245000Y-57170000D03*
X183515000Y-44430000D03*
X183515000Y-57170000D03*
X184785000Y-44430000D03*
X184785000Y-57170000D03*
X165735000Y-67290000D03*
X165735000Y-80030000D03*
X167005000Y-67290000D03*
X167005000Y-80030000D03*
X168275000Y-67290000D03*
X168275000Y-80030000D03*
X169545000Y-67290000D03*
X169545000Y-80030000D03*
X170815000Y-67290000D03*
X170815000Y-80030000D03*
X172085000Y-67290000D03*
X172085000Y-80030000D03*
X173355000Y-67290000D03*
X173355000Y-80030000D03*
X174625000Y-67290000D03*
X174625000Y-80030000D03*
X175895000Y-67290000D03*
X175895000Y-80030000D03*
X177165000Y-67290000D03*
X177165000Y-80030000D03*
X178435000Y-67290000D03*
X178435000Y-80030000D03*
X179705000Y-67290000D03*
X179705000Y-80030000D03*
X180975000Y-67290000D03*
X180975000Y-80030000D03*
X182245000Y-67290000D03*
X182245000Y-80030000D03*
X183515000Y-67290000D03*
X183515000Y-80030000D03*
X184785000Y-67290000D03*
X184785000Y-80030000D03*
D27*
X169465000Y-32020000D03*
D28*
X168265000Y-31895000D03*
D29*
X168015000Y-24295000D03*
D30*
X168340000Y-22795000D03*
D31*
X179965000Y-23645000D03*
D27*
X170565000Y-32020000D03*
X171665000Y-32020000D03*
X172765000Y-32020000D03*
X173865000Y-32020000D03*
X174965000Y-32020000D03*
X176065000Y-32020000D03*
X177165000Y-32020000D03*
D32*
X179615000Y-31895000D03*
D33*
X179565000Y-21220000D03*
D34*
X184912000Y-135890000D03*
X182372000Y-135890000D03*
X179832000Y-135890000D03*
X177292000Y-135890000D03*
X174752000Y-135890000D03*
X172212000Y-135890000D03*
X169672000Y-135890000D03*
X167132000Y-135890000D03*
X164592000Y-135890000D03*
X162052000Y-135890000D03*
X159512000Y-135890000D03*
X156972000Y-135890000D03*
X154432000Y-135890000D03*
X151892000Y-135890000D03*
X149352000Y-135890000D03*
X125222000Y-135890000D03*
X122682000Y-135890000D03*
X120142000Y-135890000D03*
X117602000Y-135890000D03*
X115062000Y-135890000D03*
X112522000Y-135890000D03*
X109982000Y-135890000D03*
D35*
X112250000Y-38100000D03*
X121430000Y-38100000D03*
M02*
