G04 #@! TF.FileFunction,Soldermask,Top*
%FSLAX46Y46*%
G04 Gerber Fmt 4.6, Leading zero omitted, Abs format (unit mm)*
G04 Created by KiCad (PCBNEW 4.0.2+dfsg1-stable) date Sun 20 Jan 2019 20:02:35 CET*
%MOMM*%
G01*
G04 APERTURE LIST*
%ADD10C,0.100000*%
%ADD11R,2.032000X1.727200*%
%ADD12O,2.032000X1.727200*%
%ADD13R,2.032000X2.032000*%
%ADD14O,2.032000X2.032000*%
%ADD15R,1.930400X5.588000*%
%ADD16R,1.600200X2.999740*%
%ADD17R,2.000000X1.600000*%
%ADD18R,1.600000X2.000000*%
%ADD19C,1.524000*%
%ADD20R,1.524000X1.524000*%
%ADD21R,1.597660X1.800860*%
%ADD22R,1.800860X1.597660*%
%ADD23R,2.598420X1.198880*%
%ADD24R,2.600960X1.198880*%
%ADD25C,4.000000*%
%ADD26R,2.000000X1.700000*%
%ADD27R,1.700000X2.000000*%
%ADD28R,2.180000X1.600000*%
%ADD29R,0.400000X1.000000*%
%ADD30R,1.450000X0.450000*%
%ADD31R,0.450000X1.400000*%
%ADD32R,1.200000X0.400000*%
%ADD33R,2.032000X3.657600*%
%ADD34R,2.032000X1.016000*%
%ADD35R,0.700000X1.750000*%
%ADD36R,1.300000X1.500000*%
%ADD37R,0.800000X1.500000*%
%ADD38R,1.450000X1.000000*%
%ADD39R,0.800000X1.400000*%
%ADD40R,1.500000X1.500000*%
%ADD41R,1.000000X1.550000*%
%ADD42R,2.235200X2.235200*%
%ADD43R,1.500000X0.450000*%
%ADD44C,0.400000*%
G04 APERTURE END LIST*
D10*
G36*
X116739881Y-81982828D02*
X116541891Y-81784838D01*
X117602551Y-80724178D01*
X117800541Y-80922168D01*
X116739881Y-81982828D01*
X116739881Y-81982828D01*
G37*
G36*
X117093434Y-82336381D02*
X116895444Y-82138391D01*
X117956104Y-81077731D01*
X118154094Y-81275721D01*
X117093434Y-82336381D01*
X117093434Y-82336381D01*
G37*
G36*
X117446988Y-82689935D02*
X117248998Y-82491945D01*
X118309658Y-81431285D01*
X118507648Y-81629275D01*
X117446988Y-82689935D01*
X117446988Y-82689935D01*
G37*
G36*
X117800541Y-83043488D02*
X117602551Y-82845498D01*
X118663211Y-81784838D01*
X118861201Y-81982828D01*
X117800541Y-83043488D01*
X117800541Y-83043488D01*
G37*
G36*
X118154094Y-83397041D02*
X117956104Y-83199051D01*
X119016764Y-82138391D01*
X119214754Y-82336381D01*
X118154094Y-83397041D01*
X118154094Y-83397041D01*
G37*
G36*
X118507648Y-83750595D02*
X118309658Y-83552605D01*
X119370318Y-82491945D01*
X119568308Y-82689935D01*
X118507648Y-83750595D01*
X118507648Y-83750595D01*
G37*
G36*
X118861201Y-84104148D02*
X118663211Y-83906158D01*
X119723871Y-82845498D01*
X119921861Y-83043488D01*
X118861201Y-84104148D01*
X118861201Y-84104148D01*
G37*
G36*
X119214754Y-84457702D02*
X119016764Y-84259712D01*
X120077424Y-83199052D01*
X120275414Y-83397042D01*
X119214754Y-84457702D01*
X119214754Y-84457702D01*
G37*
G36*
X119568308Y-84811255D02*
X119370318Y-84613265D01*
X120430978Y-83552605D01*
X120628968Y-83750595D01*
X119568308Y-84811255D01*
X119568308Y-84811255D01*
G37*
G36*
X119921861Y-85164808D02*
X119723871Y-84966818D01*
X120784531Y-83906158D01*
X120982521Y-84104148D01*
X119921861Y-85164808D01*
X119921861Y-85164808D01*
G37*
G36*
X120275415Y-85518362D02*
X120077425Y-85320372D01*
X121138085Y-84259712D01*
X121336075Y-84457702D01*
X120275415Y-85518362D01*
X120275415Y-85518362D01*
G37*
G36*
X120628968Y-85871915D02*
X120430978Y-85673925D01*
X121491638Y-84613265D01*
X121689628Y-84811255D01*
X120628968Y-85871915D01*
X120628968Y-85871915D01*
G37*
G36*
X120982521Y-86225469D02*
X120784531Y-86027479D01*
X121845191Y-84966819D01*
X122043181Y-85164809D01*
X120982521Y-86225469D01*
X120982521Y-86225469D01*
G37*
G36*
X121336075Y-86579022D02*
X121138085Y-86381032D01*
X122198745Y-85320372D01*
X122396735Y-85518362D01*
X121336075Y-86579022D01*
X121336075Y-86579022D01*
G37*
G36*
X121689628Y-86932575D02*
X121491638Y-86734585D01*
X122552298Y-85673925D01*
X122750288Y-85871915D01*
X121689628Y-86932575D01*
X121689628Y-86932575D01*
G37*
G36*
X122043182Y-87286129D02*
X121845192Y-87088139D01*
X122905852Y-86027479D01*
X123103842Y-86225469D01*
X122043182Y-87286129D01*
X122043182Y-87286129D01*
G37*
G36*
X122396735Y-87639682D02*
X122198745Y-87441692D01*
X123259405Y-86381032D01*
X123457395Y-86579022D01*
X122396735Y-87639682D01*
X122396735Y-87639682D01*
G37*
G36*
X122750288Y-87993236D02*
X122552298Y-87795246D01*
X123612958Y-86734586D01*
X123810948Y-86932576D01*
X122750288Y-87993236D01*
X122750288Y-87993236D01*
G37*
G36*
X123103842Y-88346789D02*
X122905852Y-88148799D01*
X123966512Y-87088139D01*
X124164502Y-87286129D01*
X123103842Y-88346789D01*
X123103842Y-88346789D01*
G37*
G36*
X123457395Y-88700342D02*
X123259405Y-88502352D01*
X124320065Y-87441692D01*
X124518055Y-87639682D01*
X123457395Y-88700342D01*
X123457395Y-88700342D01*
G37*
G36*
X123810949Y-89053896D02*
X123612959Y-88855906D01*
X124673619Y-87795246D01*
X124871609Y-87993236D01*
X123810949Y-89053896D01*
X123810949Y-89053896D01*
G37*
G36*
X124164502Y-89407449D02*
X123966512Y-89209459D01*
X125027172Y-88148799D01*
X125225162Y-88346789D01*
X124164502Y-89407449D01*
X124164502Y-89407449D01*
G37*
G36*
X124518055Y-89761002D02*
X124320065Y-89563012D01*
X125380725Y-88502352D01*
X125578715Y-88700342D01*
X124518055Y-89761002D01*
X124518055Y-89761002D01*
G37*
G36*
X124871609Y-90114556D02*
X124673619Y-89916566D01*
X125734279Y-88855906D01*
X125932269Y-89053896D01*
X124871609Y-90114556D01*
X124871609Y-90114556D01*
G37*
G36*
X125225162Y-90468109D02*
X125027172Y-90270119D01*
X126087832Y-89209459D01*
X126285822Y-89407449D01*
X125225162Y-90468109D01*
X125225162Y-90468109D01*
G37*
G36*
X128972828Y-90270119D02*
X128774838Y-90468109D01*
X127714178Y-89407449D01*
X127912168Y-89209459D01*
X128972828Y-90270119D01*
X128972828Y-90270119D01*
G37*
G36*
X129326381Y-89916566D02*
X129128391Y-90114556D01*
X128067731Y-89053896D01*
X128265721Y-88855906D01*
X129326381Y-89916566D01*
X129326381Y-89916566D01*
G37*
G36*
X129679935Y-89563012D02*
X129481945Y-89761002D01*
X128421285Y-88700342D01*
X128619275Y-88502352D01*
X129679935Y-89563012D01*
X129679935Y-89563012D01*
G37*
G36*
X130033488Y-89209459D02*
X129835498Y-89407449D01*
X128774838Y-88346789D01*
X128972828Y-88148799D01*
X130033488Y-89209459D01*
X130033488Y-89209459D01*
G37*
G36*
X130387041Y-88855906D02*
X130189051Y-89053896D01*
X129128391Y-87993236D01*
X129326381Y-87795246D01*
X130387041Y-88855906D01*
X130387041Y-88855906D01*
G37*
G36*
X130740595Y-88502352D02*
X130542605Y-88700342D01*
X129481945Y-87639682D01*
X129679935Y-87441692D01*
X130740595Y-88502352D01*
X130740595Y-88502352D01*
G37*
G36*
X131094148Y-88148799D02*
X130896158Y-88346789D01*
X129835498Y-87286129D01*
X130033488Y-87088139D01*
X131094148Y-88148799D01*
X131094148Y-88148799D01*
G37*
G36*
X131447702Y-87795246D02*
X131249712Y-87993236D01*
X130189052Y-86932576D01*
X130387042Y-86734586D01*
X131447702Y-87795246D01*
X131447702Y-87795246D01*
G37*
G36*
X131801255Y-87441692D02*
X131603265Y-87639682D01*
X130542605Y-86579022D01*
X130740595Y-86381032D01*
X131801255Y-87441692D01*
X131801255Y-87441692D01*
G37*
G36*
X132154808Y-87088139D02*
X131956818Y-87286129D01*
X130896158Y-86225469D01*
X131094148Y-86027479D01*
X132154808Y-87088139D01*
X132154808Y-87088139D01*
G37*
G36*
X132508362Y-86734585D02*
X132310372Y-86932575D01*
X131249712Y-85871915D01*
X131447702Y-85673925D01*
X132508362Y-86734585D01*
X132508362Y-86734585D01*
G37*
G36*
X132861915Y-86381032D02*
X132663925Y-86579022D01*
X131603265Y-85518362D01*
X131801255Y-85320372D01*
X132861915Y-86381032D01*
X132861915Y-86381032D01*
G37*
G36*
X133215469Y-86027479D02*
X133017479Y-86225469D01*
X131956819Y-85164809D01*
X132154809Y-84966819D01*
X133215469Y-86027479D01*
X133215469Y-86027479D01*
G37*
G36*
X133569022Y-85673925D02*
X133371032Y-85871915D01*
X132310372Y-84811255D01*
X132508362Y-84613265D01*
X133569022Y-85673925D01*
X133569022Y-85673925D01*
G37*
G36*
X133922575Y-85320372D02*
X133724585Y-85518362D01*
X132663925Y-84457702D01*
X132861915Y-84259712D01*
X133922575Y-85320372D01*
X133922575Y-85320372D01*
G37*
G36*
X134276129Y-84966818D02*
X134078139Y-85164808D01*
X133017479Y-84104148D01*
X133215469Y-83906158D01*
X134276129Y-84966818D01*
X134276129Y-84966818D01*
G37*
G36*
X134629682Y-84613265D02*
X134431692Y-84811255D01*
X133371032Y-83750595D01*
X133569022Y-83552605D01*
X134629682Y-84613265D01*
X134629682Y-84613265D01*
G37*
G36*
X134983236Y-84259712D02*
X134785246Y-84457702D01*
X133724586Y-83397042D01*
X133922576Y-83199052D01*
X134983236Y-84259712D01*
X134983236Y-84259712D01*
G37*
G36*
X135336789Y-83906158D02*
X135138799Y-84104148D01*
X134078139Y-83043488D01*
X134276129Y-82845498D01*
X135336789Y-83906158D01*
X135336789Y-83906158D01*
G37*
G36*
X135690342Y-83552605D02*
X135492352Y-83750595D01*
X134431692Y-82689935D01*
X134629682Y-82491945D01*
X135690342Y-83552605D01*
X135690342Y-83552605D01*
G37*
G36*
X136043896Y-83199051D02*
X135845906Y-83397041D01*
X134785246Y-82336381D01*
X134983236Y-82138391D01*
X136043896Y-83199051D01*
X136043896Y-83199051D01*
G37*
G36*
X136397449Y-82845498D02*
X136199459Y-83043488D01*
X135138799Y-81982828D01*
X135336789Y-81784838D01*
X136397449Y-82845498D01*
X136397449Y-82845498D01*
G37*
G36*
X136751002Y-82491945D02*
X136553012Y-82689935D01*
X135492352Y-81629275D01*
X135690342Y-81431285D01*
X136751002Y-82491945D01*
X136751002Y-82491945D01*
G37*
G36*
X137104556Y-82138391D02*
X136906566Y-82336381D01*
X135845906Y-81275721D01*
X136043896Y-81077731D01*
X137104556Y-82138391D01*
X137104556Y-82138391D01*
G37*
G36*
X137458109Y-81784838D02*
X137260119Y-81982828D01*
X136199459Y-80922168D01*
X136397449Y-80724178D01*
X137458109Y-81784838D01*
X137458109Y-81784838D01*
G37*
G36*
X136397449Y-79295822D02*
X136199459Y-79097832D01*
X137260119Y-78037172D01*
X137458109Y-78235162D01*
X136397449Y-79295822D01*
X136397449Y-79295822D01*
G37*
G36*
X136043896Y-78942269D02*
X135845906Y-78744279D01*
X136906566Y-77683619D01*
X137104556Y-77881609D01*
X136043896Y-78942269D01*
X136043896Y-78942269D01*
G37*
G36*
X135690342Y-78588715D02*
X135492352Y-78390725D01*
X136553012Y-77330065D01*
X136751002Y-77528055D01*
X135690342Y-78588715D01*
X135690342Y-78588715D01*
G37*
G36*
X135336789Y-78235162D02*
X135138799Y-78037172D01*
X136199459Y-76976512D01*
X136397449Y-77174502D01*
X135336789Y-78235162D01*
X135336789Y-78235162D01*
G37*
G36*
X134983236Y-77881609D02*
X134785246Y-77683619D01*
X135845906Y-76622959D01*
X136043896Y-76820949D01*
X134983236Y-77881609D01*
X134983236Y-77881609D01*
G37*
G36*
X134629682Y-77528055D02*
X134431692Y-77330065D01*
X135492352Y-76269405D01*
X135690342Y-76467395D01*
X134629682Y-77528055D01*
X134629682Y-77528055D01*
G37*
G36*
X134276129Y-77174502D02*
X134078139Y-76976512D01*
X135138799Y-75915852D01*
X135336789Y-76113842D01*
X134276129Y-77174502D01*
X134276129Y-77174502D01*
G37*
G36*
X133922576Y-76820948D02*
X133724586Y-76622958D01*
X134785246Y-75562298D01*
X134983236Y-75760288D01*
X133922576Y-76820948D01*
X133922576Y-76820948D01*
G37*
G36*
X133569022Y-76467395D02*
X133371032Y-76269405D01*
X134431692Y-75208745D01*
X134629682Y-75406735D01*
X133569022Y-76467395D01*
X133569022Y-76467395D01*
G37*
G36*
X133215469Y-76113842D02*
X133017479Y-75915852D01*
X134078139Y-74855192D01*
X134276129Y-75053182D01*
X133215469Y-76113842D01*
X133215469Y-76113842D01*
G37*
G36*
X132861915Y-75760288D02*
X132663925Y-75562298D01*
X133724585Y-74501638D01*
X133922575Y-74699628D01*
X132861915Y-75760288D01*
X132861915Y-75760288D01*
G37*
G36*
X132508362Y-75406735D02*
X132310372Y-75208745D01*
X133371032Y-74148085D01*
X133569022Y-74346075D01*
X132508362Y-75406735D01*
X132508362Y-75406735D01*
G37*
G36*
X132154809Y-75053181D02*
X131956819Y-74855191D01*
X133017479Y-73794531D01*
X133215469Y-73992521D01*
X132154809Y-75053181D01*
X132154809Y-75053181D01*
G37*
G36*
X131801255Y-74699628D02*
X131603265Y-74501638D01*
X132663925Y-73440978D01*
X132861915Y-73638968D01*
X131801255Y-74699628D01*
X131801255Y-74699628D01*
G37*
G36*
X131447702Y-74346075D02*
X131249712Y-74148085D01*
X132310372Y-73087425D01*
X132508362Y-73285415D01*
X131447702Y-74346075D01*
X131447702Y-74346075D01*
G37*
G36*
X131094148Y-73992521D02*
X130896158Y-73794531D01*
X131956818Y-72733871D01*
X132154808Y-72931861D01*
X131094148Y-73992521D01*
X131094148Y-73992521D01*
G37*
G36*
X130740595Y-73638968D02*
X130542605Y-73440978D01*
X131603265Y-72380318D01*
X131801255Y-72578308D01*
X130740595Y-73638968D01*
X130740595Y-73638968D01*
G37*
G36*
X130387042Y-73285414D02*
X130189052Y-73087424D01*
X131249712Y-72026764D01*
X131447702Y-72224754D01*
X130387042Y-73285414D01*
X130387042Y-73285414D01*
G37*
G36*
X130033488Y-72931861D02*
X129835498Y-72733871D01*
X130896158Y-71673211D01*
X131094148Y-71871201D01*
X130033488Y-72931861D01*
X130033488Y-72931861D01*
G37*
G36*
X129679935Y-72578308D02*
X129481945Y-72380318D01*
X130542605Y-71319658D01*
X130740595Y-71517648D01*
X129679935Y-72578308D01*
X129679935Y-72578308D01*
G37*
G36*
X129326381Y-72224754D02*
X129128391Y-72026764D01*
X130189051Y-70966104D01*
X130387041Y-71164094D01*
X129326381Y-72224754D01*
X129326381Y-72224754D01*
G37*
G36*
X128972828Y-71871201D02*
X128774838Y-71673211D01*
X129835498Y-70612551D01*
X130033488Y-70810541D01*
X128972828Y-71871201D01*
X128972828Y-71871201D01*
G37*
G36*
X128619275Y-71517648D02*
X128421285Y-71319658D01*
X129481945Y-70258998D01*
X129679935Y-70456988D01*
X128619275Y-71517648D01*
X128619275Y-71517648D01*
G37*
G36*
X128265721Y-71164094D02*
X128067731Y-70966104D01*
X129128391Y-69905444D01*
X129326381Y-70103434D01*
X128265721Y-71164094D01*
X128265721Y-71164094D01*
G37*
G36*
X127912168Y-70810541D02*
X127714178Y-70612551D01*
X128774838Y-69551891D01*
X128972828Y-69749881D01*
X127912168Y-70810541D01*
X127912168Y-70810541D01*
G37*
G36*
X126285822Y-70612551D02*
X126087832Y-70810541D01*
X125027172Y-69749881D01*
X125225162Y-69551891D01*
X126285822Y-70612551D01*
X126285822Y-70612551D01*
G37*
G36*
X125932269Y-70966104D02*
X125734279Y-71164094D01*
X124673619Y-70103434D01*
X124871609Y-69905444D01*
X125932269Y-70966104D01*
X125932269Y-70966104D01*
G37*
G36*
X125578715Y-71319658D02*
X125380725Y-71517648D01*
X124320065Y-70456988D01*
X124518055Y-70258998D01*
X125578715Y-71319658D01*
X125578715Y-71319658D01*
G37*
G36*
X125225162Y-71673211D02*
X125027172Y-71871201D01*
X123966512Y-70810541D01*
X124164502Y-70612551D01*
X125225162Y-71673211D01*
X125225162Y-71673211D01*
G37*
G36*
X124871609Y-72026764D02*
X124673619Y-72224754D01*
X123612959Y-71164094D01*
X123810949Y-70966104D01*
X124871609Y-72026764D01*
X124871609Y-72026764D01*
G37*
G36*
X124518055Y-72380318D02*
X124320065Y-72578308D01*
X123259405Y-71517648D01*
X123457395Y-71319658D01*
X124518055Y-72380318D01*
X124518055Y-72380318D01*
G37*
G36*
X124164502Y-72733871D02*
X123966512Y-72931861D01*
X122905852Y-71871201D01*
X123103842Y-71673211D01*
X124164502Y-72733871D01*
X124164502Y-72733871D01*
G37*
G36*
X123810948Y-73087424D02*
X123612958Y-73285414D01*
X122552298Y-72224754D01*
X122750288Y-72026764D01*
X123810948Y-73087424D01*
X123810948Y-73087424D01*
G37*
G36*
X123457395Y-73440978D02*
X123259405Y-73638968D01*
X122198745Y-72578308D01*
X122396735Y-72380318D01*
X123457395Y-73440978D01*
X123457395Y-73440978D01*
G37*
G36*
X123103842Y-73794531D02*
X122905852Y-73992521D01*
X121845192Y-72931861D01*
X122043182Y-72733871D01*
X123103842Y-73794531D01*
X123103842Y-73794531D01*
G37*
G36*
X122750288Y-74148085D02*
X122552298Y-74346075D01*
X121491638Y-73285415D01*
X121689628Y-73087425D01*
X122750288Y-74148085D01*
X122750288Y-74148085D01*
G37*
G36*
X122396735Y-74501638D02*
X122198745Y-74699628D01*
X121138085Y-73638968D01*
X121336075Y-73440978D01*
X122396735Y-74501638D01*
X122396735Y-74501638D01*
G37*
G36*
X122043181Y-74855191D02*
X121845191Y-75053181D01*
X120784531Y-73992521D01*
X120982521Y-73794531D01*
X122043181Y-74855191D01*
X122043181Y-74855191D01*
G37*
G36*
X121689628Y-75208745D02*
X121491638Y-75406735D01*
X120430978Y-74346075D01*
X120628968Y-74148085D01*
X121689628Y-75208745D01*
X121689628Y-75208745D01*
G37*
G36*
X121336075Y-75562298D02*
X121138085Y-75760288D01*
X120077425Y-74699628D01*
X120275415Y-74501638D01*
X121336075Y-75562298D01*
X121336075Y-75562298D01*
G37*
G36*
X120982521Y-75915852D02*
X120784531Y-76113842D01*
X119723871Y-75053182D01*
X119921861Y-74855192D01*
X120982521Y-75915852D01*
X120982521Y-75915852D01*
G37*
G36*
X120628968Y-76269405D02*
X120430978Y-76467395D01*
X119370318Y-75406735D01*
X119568308Y-75208745D01*
X120628968Y-76269405D01*
X120628968Y-76269405D01*
G37*
G36*
X120275414Y-76622958D02*
X120077424Y-76820948D01*
X119016764Y-75760288D01*
X119214754Y-75562298D01*
X120275414Y-76622958D01*
X120275414Y-76622958D01*
G37*
G36*
X119921861Y-76976512D02*
X119723871Y-77174502D01*
X118663211Y-76113842D01*
X118861201Y-75915852D01*
X119921861Y-76976512D01*
X119921861Y-76976512D01*
G37*
G36*
X119568308Y-77330065D02*
X119370318Y-77528055D01*
X118309658Y-76467395D01*
X118507648Y-76269405D01*
X119568308Y-77330065D01*
X119568308Y-77330065D01*
G37*
G36*
X119214754Y-77683619D02*
X119016764Y-77881609D01*
X117956104Y-76820949D01*
X118154094Y-76622959D01*
X119214754Y-77683619D01*
X119214754Y-77683619D01*
G37*
G36*
X118861201Y-78037172D02*
X118663211Y-78235162D01*
X117602551Y-77174502D01*
X117800541Y-76976512D01*
X118861201Y-78037172D01*
X118861201Y-78037172D01*
G37*
G36*
X118507648Y-78390725D02*
X118309658Y-78588715D01*
X117248998Y-77528055D01*
X117446988Y-77330065D01*
X118507648Y-78390725D01*
X118507648Y-78390725D01*
G37*
G36*
X118154094Y-78744279D02*
X117956104Y-78942269D01*
X116895444Y-77881609D01*
X117093434Y-77683619D01*
X118154094Y-78744279D01*
X118154094Y-78744279D01*
G37*
G36*
X117800541Y-79097832D02*
X117602551Y-79295822D01*
X116541891Y-78235162D01*
X116739881Y-78037172D01*
X117800541Y-79097832D01*
X117800541Y-79097832D01*
G37*
D11*
X84000000Y-61000000D03*
D12*
X84000000Y-58460000D03*
X84000000Y-55920000D03*
X84000000Y-53380000D03*
D11*
X76200000Y-66040000D03*
D12*
X76200000Y-68580000D03*
X76200000Y-71120000D03*
D11*
X91440000Y-54610000D03*
D12*
X91440000Y-57150000D03*
X91440000Y-59690000D03*
D11*
X83820000Y-109220000D03*
D12*
X83820000Y-106680000D03*
X83820000Y-104140000D03*
X83820000Y-101600000D03*
D13*
X112966000Y-49403000D03*
D14*
X115506000Y-49403000D03*
D15*
X125222000Y-135890000D03*
X122682000Y-135890000D03*
X120142000Y-135890000D03*
X117602000Y-135890000D03*
X115062000Y-135890000D03*
X112522000Y-135890000D03*
X109982000Y-135890000D03*
X184912000Y-135890000D03*
X182372000Y-135890000D03*
X179832000Y-135890000D03*
X177292000Y-135890000D03*
X174752000Y-135890000D03*
X172212000Y-135890000D03*
X169672000Y-135890000D03*
X167132000Y-135890000D03*
X164592000Y-135890000D03*
X162052000Y-135890000D03*
X159512000Y-135890000D03*
X156972000Y-135890000D03*
X154432000Y-135890000D03*
X151892000Y-135890000D03*
X149352000Y-135890000D03*
D16*
X213360000Y-110149640D03*
X213360000Y-105750360D03*
X213360000Y-93050360D03*
X213360000Y-97449640D03*
X219710000Y-99400360D03*
X219710000Y-103799640D03*
D17*
X170720000Y-71120000D03*
X174720000Y-71120000D03*
X205010000Y-48260000D03*
X209010000Y-48260000D03*
X169450000Y-48260000D03*
X173450000Y-48260000D03*
X205010000Y-71120000D03*
X209010000Y-71120000D03*
D10*
G36*
X111555635Y-84312994D02*
X112687006Y-85444365D01*
X111272793Y-86858578D01*
X110141422Y-85727207D01*
X111555635Y-84312994D01*
X111555635Y-84312994D01*
G37*
G36*
X108727207Y-87141422D02*
X109858578Y-88272793D01*
X108444365Y-89687006D01*
X107312994Y-88555635D01*
X108727207Y-87141422D01*
X108727207Y-87141422D01*
G37*
G36*
X121555635Y-94312994D02*
X122687006Y-95444365D01*
X121272793Y-96858578D01*
X120141422Y-95727207D01*
X121555635Y-94312994D01*
X121555635Y-94312994D01*
G37*
G36*
X118727207Y-97141422D02*
X119858578Y-98272793D01*
X118444365Y-99687006D01*
X117312994Y-98555635D01*
X118727207Y-97141422D01*
X118727207Y-97141422D01*
G37*
D17*
X141700000Y-63500000D03*
X137700000Y-63500000D03*
X135350000Y-67310000D03*
X131350000Y-67310000D03*
X140000000Y-72000000D03*
X136000000Y-72000000D03*
X141000000Y-77000000D03*
X145000000Y-77000000D03*
D18*
X137160000Y-93440000D03*
X137160000Y-89440000D03*
X132080000Y-97250000D03*
X132080000Y-93250000D03*
D17*
X114840000Y-69850000D03*
X118840000Y-69850000D03*
X109760000Y-74930000D03*
X113760000Y-74930000D03*
D19*
X149860000Y-108064300D03*
X149860000Y-112915700D03*
X152400000Y-108064300D03*
X152400000Y-112915700D03*
X154940000Y-108064300D03*
X154940000Y-112915700D03*
X157480000Y-108064300D03*
X157480000Y-112915700D03*
X160020000Y-108064300D03*
X160020000Y-112915700D03*
X162560000Y-108064300D03*
X162560000Y-112915700D03*
X165100000Y-108064300D03*
X165100000Y-112915700D03*
X167640000Y-108064300D03*
X167640000Y-112915700D03*
X170180000Y-108064300D03*
X170180000Y-112915700D03*
X172720000Y-108064300D03*
X172720000Y-112915700D03*
X175260000Y-108064300D03*
X175260000Y-112915700D03*
X177800000Y-108064300D03*
X177800000Y-112915700D03*
X180340000Y-108064300D03*
X180340000Y-112915700D03*
X182880000Y-108064300D03*
X182880000Y-112915700D03*
D20*
X185420000Y-108064300D03*
D19*
X185420000Y-112915700D03*
D21*
X199539860Y-113030000D03*
X196700140Y-113030000D03*
D22*
X226000000Y-103580140D03*
X226000000Y-106419860D03*
X123190000Y-50949860D03*
X123190000Y-48110140D03*
X128270000Y-50949860D03*
X128270000Y-48110140D03*
X133350000Y-50949860D03*
X133350000Y-48110140D03*
D19*
X110490000Y-108064300D03*
X110490000Y-112915700D03*
X113030000Y-108064300D03*
X113030000Y-112915700D03*
X115570000Y-108064300D03*
X115570000Y-112915700D03*
X118110000Y-108064300D03*
X118110000Y-112915700D03*
X120650000Y-108064300D03*
X120650000Y-112915700D03*
X123190000Y-108064300D03*
X123190000Y-112915700D03*
D20*
X125730000Y-108064300D03*
D19*
X125730000Y-112915700D03*
D23*
X202168760Y-107950000D03*
D24*
X206771240Y-107950000D03*
D23*
X202168760Y-95250000D03*
D24*
X206771240Y-95250000D03*
D25*
X76200000Y-48768000D03*
X231140000Y-48768000D03*
X231140000Y-114808000D03*
D26*
X206470000Y-113030000D03*
X202470000Y-113030000D03*
D27*
X226000000Y-96000000D03*
X226000000Y-100000000D03*
D26*
X103410000Y-48260000D03*
X107410000Y-48260000D03*
X99000000Y-100000000D03*
X95000000Y-100000000D03*
X99000000Y-96000000D03*
X95000000Y-96000000D03*
X99000000Y-92000000D03*
X95000000Y-92000000D03*
X99000000Y-88000000D03*
X95000000Y-88000000D03*
D10*
G36*
X109020280Y-81777638D02*
X110222362Y-82979720D01*
X108808148Y-84393934D01*
X107606066Y-83191852D01*
X109020280Y-81777638D01*
X109020280Y-81777638D01*
G37*
G36*
X106191852Y-84606066D02*
X107393934Y-85808148D01*
X105979720Y-87222362D01*
X104777638Y-86020280D01*
X106191852Y-84606066D01*
X106191852Y-84606066D01*
G37*
G36*
X124020280Y-96777638D02*
X125222362Y-97979720D01*
X123808148Y-99393934D01*
X122606066Y-98191852D01*
X124020280Y-96777638D01*
X124020280Y-96777638D01*
G37*
G36*
X121191852Y-99606066D02*
X122393934Y-100808148D01*
X120979720Y-102222362D01*
X119777638Y-101020280D01*
X121191852Y-99606066D01*
X121191852Y-99606066D01*
G37*
D26*
X147860000Y-63500000D03*
X151860000Y-63500000D03*
X102330000Y-57150000D03*
X98330000Y-57150000D03*
X102330000Y-59690000D03*
X98330000Y-59690000D03*
D27*
X142000000Y-88000000D03*
X142000000Y-84000000D03*
D26*
X88000000Y-69000000D03*
X84000000Y-69000000D03*
X88000000Y-74000000D03*
X84000000Y-74000000D03*
X93000000Y-69000000D03*
X97000000Y-69000000D03*
X93000000Y-74000000D03*
X97000000Y-74000000D03*
D27*
X123190000Y-53880000D03*
X123190000Y-57880000D03*
X128270000Y-53880000D03*
X128270000Y-57880000D03*
X133350000Y-53880000D03*
X133350000Y-57880000D03*
D28*
X89377570Y-48257680D03*
X98582430Y-48262320D03*
D29*
X155325000Y-96160000D03*
X154675000Y-96160000D03*
X154025000Y-96160000D03*
X153375000Y-96160000D03*
X152725000Y-96160000D03*
X152075000Y-96160000D03*
X151425000Y-96160000D03*
X150775000Y-96160000D03*
X150125000Y-96160000D03*
X149475000Y-96160000D03*
X149475000Y-101960000D03*
X150125000Y-101960000D03*
X150775000Y-101960000D03*
X151425000Y-101960000D03*
X152075000Y-101960000D03*
X152725000Y-101960000D03*
X153375000Y-101960000D03*
X154025000Y-101960000D03*
X154675000Y-101960000D03*
X155325000Y-101960000D03*
X101985000Y-106320000D03*
X101335000Y-106320000D03*
X100685000Y-106320000D03*
X100035000Y-106320000D03*
X99385000Y-106320000D03*
X98735000Y-106320000D03*
X98085000Y-106320000D03*
X97435000Y-106320000D03*
X96785000Y-106320000D03*
X96135000Y-106320000D03*
X96135000Y-112120000D03*
X96785000Y-112120000D03*
X97435000Y-112120000D03*
X98085000Y-112120000D03*
X98735000Y-112120000D03*
X99385000Y-112120000D03*
X100035000Y-112120000D03*
X100685000Y-112120000D03*
X101335000Y-112120000D03*
X101985000Y-112120000D03*
X170565000Y-96160000D03*
X169915000Y-96160000D03*
X169265000Y-96160000D03*
X168615000Y-96160000D03*
X167965000Y-96160000D03*
X167315000Y-96160000D03*
X166665000Y-96160000D03*
X166015000Y-96160000D03*
X165365000Y-96160000D03*
X164715000Y-96160000D03*
X164715000Y-101960000D03*
X165365000Y-101960000D03*
X166015000Y-101960000D03*
X166665000Y-101960000D03*
X167315000Y-101960000D03*
X167965000Y-101960000D03*
X168615000Y-101960000D03*
X169265000Y-101960000D03*
X169915000Y-101960000D03*
X170565000Y-101960000D03*
D30*
X157070000Y-60280000D03*
X157070000Y-60930000D03*
X157070000Y-61580000D03*
X157070000Y-62230000D03*
X157070000Y-62880000D03*
X157070000Y-63530000D03*
X157070000Y-64180000D03*
X162970000Y-64180000D03*
X162970000Y-63530000D03*
X162970000Y-62880000D03*
X162970000Y-62230000D03*
X162970000Y-61580000D03*
X162970000Y-60930000D03*
X162970000Y-60280000D03*
D29*
X140085000Y-106320000D03*
X139435000Y-106320000D03*
X138785000Y-106320000D03*
X138135000Y-106320000D03*
X137485000Y-106320000D03*
X136835000Y-106320000D03*
X136185000Y-106320000D03*
X135535000Y-106320000D03*
X134885000Y-106320000D03*
X134235000Y-106320000D03*
X134235000Y-112120000D03*
X134885000Y-112120000D03*
X135535000Y-112120000D03*
X136185000Y-112120000D03*
X136835000Y-112120000D03*
X137485000Y-112120000D03*
X138135000Y-112120000D03*
X138785000Y-112120000D03*
X139435000Y-112120000D03*
X140085000Y-112120000D03*
D31*
X206375000Y-52050000D03*
X206375000Y-64790000D03*
X207645000Y-52050000D03*
X207645000Y-64790000D03*
X208915000Y-52050000D03*
X208915000Y-64790000D03*
X210185000Y-52050000D03*
X210185000Y-64790000D03*
X211455000Y-52050000D03*
X211455000Y-64790000D03*
X212725000Y-52050000D03*
X212725000Y-64790000D03*
X213995000Y-52050000D03*
X213995000Y-64790000D03*
X215265000Y-52050000D03*
X215265000Y-64790000D03*
X216535000Y-52050000D03*
X216535000Y-64790000D03*
X217805000Y-52050000D03*
X217805000Y-64790000D03*
X219075000Y-52050000D03*
X219075000Y-64790000D03*
X220345000Y-52050000D03*
X220345000Y-64790000D03*
X221615000Y-52050000D03*
X221615000Y-64790000D03*
X222885000Y-52050000D03*
X222885000Y-64790000D03*
X224155000Y-52050000D03*
X224155000Y-64790000D03*
X225425000Y-52050000D03*
X225425000Y-64790000D03*
X170815000Y-52050000D03*
X170815000Y-64790000D03*
X172085000Y-52050000D03*
X172085000Y-64790000D03*
X173355000Y-52050000D03*
X173355000Y-64790000D03*
X174625000Y-52050000D03*
X174625000Y-64790000D03*
X175895000Y-52050000D03*
X175895000Y-64790000D03*
X177165000Y-52050000D03*
X177165000Y-64790000D03*
X178435000Y-52050000D03*
X178435000Y-64790000D03*
X179705000Y-52050000D03*
X179705000Y-64790000D03*
X180975000Y-52050000D03*
X180975000Y-64790000D03*
X182245000Y-52050000D03*
X182245000Y-64790000D03*
X183515000Y-52050000D03*
X183515000Y-64790000D03*
X184785000Y-52050000D03*
X184785000Y-64790000D03*
X186055000Y-52050000D03*
X186055000Y-64790000D03*
X187325000Y-52050000D03*
X187325000Y-64790000D03*
X188595000Y-52050000D03*
X188595000Y-64790000D03*
X189865000Y-52050000D03*
X189865000Y-64790000D03*
X206375000Y-74910000D03*
X206375000Y-87650000D03*
X207645000Y-74910000D03*
X207645000Y-87650000D03*
X208915000Y-74910000D03*
X208915000Y-87650000D03*
X210185000Y-74910000D03*
X210185000Y-87650000D03*
X211455000Y-74910000D03*
X211455000Y-87650000D03*
X212725000Y-74910000D03*
X212725000Y-87650000D03*
X213995000Y-74910000D03*
X213995000Y-87650000D03*
X215265000Y-74910000D03*
X215265000Y-87650000D03*
X216535000Y-74910000D03*
X216535000Y-87650000D03*
X217805000Y-74910000D03*
X217805000Y-87650000D03*
X219075000Y-74910000D03*
X219075000Y-87650000D03*
X220345000Y-74910000D03*
X220345000Y-87650000D03*
X221615000Y-74910000D03*
X221615000Y-87650000D03*
X222885000Y-74910000D03*
X222885000Y-87650000D03*
X224155000Y-74910000D03*
X224155000Y-87650000D03*
X225425000Y-74910000D03*
X225425000Y-87650000D03*
D32*
X82910000Y-81870000D03*
X82910000Y-82520000D03*
X82910000Y-83170000D03*
X82910000Y-83820000D03*
X82910000Y-84470000D03*
X82910000Y-85120000D03*
X82910000Y-85770000D03*
X89810000Y-85770000D03*
X89810000Y-85120000D03*
X89810000Y-84470000D03*
X89810000Y-83820000D03*
X89810000Y-83170000D03*
X89810000Y-82520000D03*
X89810000Y-81870000D03*
X82910000Y-92030000D03*
X82910000Y-92680000D03*
X82910000Y-93330000D03*
X82910000Y-93980000D03*
X82910000Y-94630000D03*
X82910000Y-95280000D03*
X82910000Y-95930000D03*
X89810000Y-95930000D03*
X89810000Y-95280000D03*
X89810000Y-94630000D03*
X89810000Y-93980000D03*
X89810000Y-93330000D03*
X89810000Y-92680000D03*
X89810000Y-92030000D03*
D33*
X201168000Y-101600000D03*
D34*
X207772000Y-101600000D03*
X207772000Y-99314000D03*
X207772000Y-103886000D03*
D35*
X140255000Y-57420000D03*
D36*
X139055000Y-57295000D03*
D37*
X138805000Y-49695000D03*
D38*
X139130000Y-48195000D03*
D39*
X150755000Y-49045000D03*
D35*
X141355000Y-57420000D03*
X142455000Y-57420000D03*
X143555000Y-57420000D03*
X144655000Y-57420000D03*
X145755000Y-57420000D03*
X146855000Y-57420000D03*
X147955000Y-57420000D03*
D40*
X150405000Y-57295000D03*
D41*
X150355000Y-46620000D03*
D42*
X76200000Y-78740000D03*
D19*
X111000000Y-99000000D03*
D25*
X76200000Y-114808000D03*
D43*
X157070000Y-77735000D03*
X157070000Y-78385000D03*
X157070000Y-79035000D03*
X157070000Y-79685000D03*
X157070000Y-80335000D03*
X157070000Y-80985000D03*
X157070000Y-81635000D03*
X157070000Y-82285000D03*
X162970000Y-82285000D03*
X162970000Y-81635000D03*
X162970000Y-80985000D03*
X162970000Y-80335000D03*
X162970000Y-79685000D03*
X162970000Y-79035000D03*
X162970000Y-78385000D03*
X162970000Y-77735000D03*
D30*
X157070000Y-69170000D03*
X157070000Y-69820000D03*
X157070000Y-70470000D03*
X157070000Y-71120000D03*
X157070000Y-71770000D03*
X157070000Y-72420000D03*
X157070000Y-73070000D03*
X162970000Y-73070000D03*
X162970000Y-72420000D03*
X162970000Y-71770000D03*
X162970000Y-71120000D03*
X162970000Y-70470000D03*
X162970000Y-69820000D03*
X162970000Y-69170000D03*
D29*
X185805000Y-96160000D03*
X185155000Y-96160000D03*
X184505000Y-96160000D03*
X183855000Y-96160000D03*
X183205000Y-96160000D03*
X182555000Y-96160000D03*
X181905000Y-96160000D03*
X181255000Y-96160000D03*
X180605000Y-96160000D03*
X179955000Y-96160000D03*
X179955000Y-101960000D03*
X180605000Y-101960000D03*
X181255000Y-101960000D03*
X181905000Y-101960000D03*
X182555000Y-101960000D03*
X183205000Y-101960000D03*
X183855000Y-101960000D03*
X184505000Y-101960000D03*
X185155000Y-101960000D03*
X185805000Y-101960000D03*
D31*
X170815000Y-74910000D03*
X170815000Y-87650000D03*
X172085000Y-74910000D03*
X172085000Y-87650000D03*
X173355000Y-74910000D03*
X173355000Y-87650000D03*
X174625000Y-74910000D03*
X174625000Y-87650000D03*
X175895000Y-74910000D03*
X175895000Y-87650000D03*
X177165000Y-74910000D03*
X177165000Y-87650000D03*
X178435000Y-74910000D03*
X178435000Y-87650000D03*
X179705000Y-74910000D03*
X179705000Y-87650000D03*
X180975000Y-74910000D03*
X180975000Y-87650000D03*
X182245000Y-74910000D03*
X182245000Y-87650000D03*
X183515000Y-74910000D03*
X183515000Y-87650000D03*
X184785000Y-74910000D03*
X184785000Y-87650000D03*
X186055000Y-74910000D03*
X186055000Y-87650000D03*
X187325000Y-74910000D03*
X187325000Y-87650000D03*
X188595000Y-74910000D03*
X188595000Y-87650000D03*
X189865000Y-74910000D03*
X189865000Y-87650000D03*
D32*
X156570000Y-50120000D03*
X156570000Y-50770000D03*
X156570000Y-51420000D03*
X156570000Y-52070000D03*
X156570000Y-52720000D03*
X156570000Y-53370000D03*
X156570000Y-54020000D03*
X163470000Y-54020000D03*
X163470000Y-53370000D03*
X163470000Y-52720000D03*
X163470000Y-52070000D03*
X163470000Y-51420000D03*
X163470000Y-50770000D03*
X163470000Y-50120000D03*
D10*
G36*
X110833096Y-91010051D02*
X112318020Y-89525127D01*
X114227208Y-91434315D01*
X112742284Y-92919239D01*
X110833096Y-91010051D01*
X110833096Y-91010051D01*
G37*
G36*
X114580761Y-94757716D02*
X116065685Y-93272792D01*
X117974873Y-95181980D01*
X116489949Y-96666904D01*
X114580761Y-94757716D01*
X114580761Y-94757716D01*
G37*
G36*
X116772792Y-92565685D02*
X118257716Y-91080761D01*
X120166904Y-92989949D01*
X118681980Y-94474873D01*
X116772792Y-92565685D01*
X116772792Y-92565685D01*
G37*
G36*
X113025127Y-88818020D02*
X114510051Y-87333096D01*
X116419239Y-89242284D01*
X114934315Y-90727208D01*
X113025127Y-88818020D01*
X113025127Y-88818020D01*
G37*
D44*
X151968200Y-72288400D03*
X153289000Y-71780400D03*
X153466800Y-70358000D03*
X152120600Y-70434200D03*
X150164800Y-72186800D03*
X144297400Y-72339200D03*
X143408400Y-70561200D03*
X154101800Y-82143600D03*
X152933400Y-80010000D03*
X151206200Y-79629000D03*
X151155400Y-73939400D03*
X130200400Y-69189600D03*
X129286000Y-68402200D03*
X132181600Y-62382400D03*
X134543800Y-62636400D03*
X179343400Y-101960000D03*
X110095800Y-132645700D03*
X110953600Y-97530100D03*
X173596600Y-101960000D03*
X164040700Y-102210100D03*
X157318000Y-103494700D03*
X139536400Y-77314100D03*
X141762200Y-71947500D03*
X152555000Y-54020400D03*
X151768200Y-65314900D03*
X165242600Y-98993100D03*
X153425000Y-101024200D03*
X173450900Y-99735700D03*
X172850500Y-99735700D03*
X151130000Y-108922200D03*
X155803000Y-111939000D03*
X148327000Y-117120800D03*
X148327000Y-119393900D03*
X179832000Y-132667100D03*
X174051200Y-99735700D03*
X177292000Y-132666000D03*
X151829300Y-102866900D03*
X163279900Y-105385100D03*
X175930600Y-103297600D03*
X174752000Y-132629600D03*
X150775000Y-102884900D03*
X159455800Y-111667300D03*
X172212000Y-132642800D03*
X150874800Y-101039300D03*
X143667500Y-115506000D03*
X171167200Y-102785300D03*
X169672000Y-132637300D03*
X169034300Y-101031300D03*
X167670400Y-132672300D03*
X164656000Y-132007400D03*
X166454300Y-103133100D03*
X162052000Y-132677000D03*
X171197800Y-100811300D03*
X159512000Y-132675300D03*
X173021200Y-102388700D03*
X172083500Y-105910400D03*
X161192400Y-109262700D03*
X156634300Y-131605700D03*
X158461500Y-106117900D03*
X154432000Y-132662700D03*
X152500300Y-132653600D03*
X145804800Y-112288400D03*
X147342200Y-114363300D03*
X145747200Y-111343700D03*
X152388700Y-131659500D03*
X122041200Y-115739200D03*
X122002200Y-116521900D03*
X122682000Y-132662800D03*
X118481600Y-116059300D03*
X120142000Y-131943400D03*
X117602000Y-132685700D03*
X115062000Y-132667400D03*
X112522000Y-132687000D03*
X163463100Y-103298100D03*
X156547900Y-104145000D03*
X118965600Y-103062000D03*
X184912000Y-132640000D03*
X141066900Y-113518200D03*
X142011900Y-116098400D03*
X181840300Y-116098400D03*
X183111000Y-114121400D03*
X138198700Y-113024200D03*
X145609500Y-109935000D03*
X125222000Y-132680100D03*
X158015500Y-102835300D03*
X166770000Y-100376400D03*
X143807400Y-110092400D03*
X213072800Y-95250000D03*
X217253400Y-99931500D03*
X127610000Y-85140800D03*
X126771000Y-85928200D03*
X125247000Y-85115400D03*
X123368000Y-82600800D03*
X118237000Y-79883000D03*
X120371000Y-79781400D03*
X206484800Y-76011200D03*
X206417400Y-71120000D03*
X206375000Y-53169000D03*
X203190200Y-48373500D03*
X116648800Y-76240700D03*
X132117100Y-105908100D03*
X131780200Y-94670700D03*
X138507700Y-77342800D03*
X138275300Y-72104500D03*
X138851300Y-65786000D03*
X144052500Y-97814000D03*
X139435000Y-105057900D03*
X125804600Y-69428700D03*
X120607400Y-70266400D03*
X150445100Y-63500000D03*
X139436300Y-76406800D03*
X141561800Y-59185900D03*
X137718700Y-77110800D03*
X143555000Y-58697800D03*
X142446600Y-75944100D03*
X145181600Y-59062600D03*
X112192700Y-99000000D03*
X122474500Y-88293600D03*
X99932600Y-49387600D03*
X101631700Y-49435300D03*
X125161200Y-60564500D03*
X122438200Y-84385400D03*
X130067500Y-85445400D03*
X120249000Y-66100000D03*
X128116500Y-60572500D03*
X127955400Y-66220500D03*
X122502600Y-66220500D03*
X122262300Y-67865700D03*
X129939800Y-56202700D03*
X105566100Y-88540600D03*
X115341900Y-93057900D03*
X128555100Y-86019900D03*
X100863000Y-46888400D03*
X101397000Y-47955200D03*
X95910400Y-56134000D03*
X95935800Y-57277000D03*
X119920800Y-71867900D03*
X130081200Y-83673800D03*
X117068700Y-71597400D03*
X123479200Y-81495100D03*
X116787400Y-70975300D03*
X124125400Y-78145700D03*
X111250400Y-72696900D03*
X133565800Y-73444200D03*
X138661300Y-82985000D03*
X125493300Y-73295900D03*
X139855900Y-82985000D03*
X125001400Y-72804000D03*
X112109100Y-80567800D03*
X143506100Y-77775700D03*
X158233500Y-79773300D03*
X158215300Y-60984000D03*
X147331100Y-76821500D03*
X124339900Y-69862000D03*
X171974700Y-57398800D03*
X164627800Y-79735000D03*
X185059800Y-79174900D03*
X188271000Y-50391200D03*
X102730400Y-107041400D03*
X119989500Y-77868300D03*
X100842900Y-105409100D03*
X114812900Y-72819700D03*
X111371400Y-104280400D03*
X118856700Y-75236000D03*
X99768500Y-104933700D03*
X108073500Y-74353600D03*
X98805200Y-104993300D03*
X114115600Y-83092200D03*
X111250400Y-80274300D03*
X134091100Y-70341100D03*
X116581500Y-74571800D03*
X103957800Y-104406800D03*
X125308400Y-80444400D03*
X109415000Y-104172000D03*
X133825300Y-104730400D03*
X133515100Y-89768700D03*
X219710000Y-87650000D03*
X220709700Y-65915400D03*
X181185500Y-90270200D03*
X184778100Y-63668000D03*
X123374600Y-70329300D03*
X154317900Y-94286600D03*
X219710000Y-86895800D03*
X218652600Y-65928600D03*
X179925200Y-90754400D03*
X182986600Y-63764700D03*
X122762300Y-71443700D03*
X153717500Y-94394000D03*
X217170000Y-87796100D03*
X217912800Y-63668000D03*
X212133000Y-91999500D03*
X151994500Y-97075700D03*
X124184200Y-73297900D03*
X216019600Y-86624700D03*
X216535000Y-65917300D03*
X179212900Y-86624700D03*
X181610000Y-63764700D03*
X122227000Y-71980500D03*
X152666800Y-94844300D03*
X179212900Y-80509200D03*
X156997100Y-85129100D03*
X214738900Y-86624700D03*
X215265000Y-65934500D03*
X179070000Y-87611400D03*
X180336200Y-64158800D03*
X177332400Y-81935200D03*
X121593800Y-72523600D03*
X152075000Y-95118400D03*
X213465900Y-86624700D03*
X213719900Y-65915700D03*
X148125400Y-96668600D03*
X124595200Y-74729400D03*
X177800000Y-87942500D03*
X178435000Y-65916800D03*
X212506500Y-88780300D03*
X213031200Y-63668000D03*
X150775000Y-95232200D03*
X151665900Y-93722300D03*
X122518800Y-74955100D03*
X193774000Y-62675800D03*
X195095900Y-89026500D03*
X146157500Y-94272300D03*
X140061800Y-87682100D03*
X135042200Y-88246800D03*
X120845700Y-73363700D03*
X163541200Y-55101700D03*
X164101900Y-72420000D03*
X171029800Y-96985300D03*
X162103700Y-50770000D03*
X136114800Y-75951200D03*
X169265000Y-95233300D03*
X159295700Y-69638100D03*
X158952100Y-73933700D03*
X83508400Y-91419000D03*
X99769900Y-93982500D03*
X114756900Y-93982500D03*
X126613400Y-82864000D03*
X163404700Y-93584100D03*
X154325900Y-72993200D03*
X161849500Y-94376800D03*
X158008700Y-52343200D03*
X164841100Y-94492000D03*
X164323300Y-86671400D03*
X140694500Y-89334700D03*
X130218900Y-79884100D03*
X161833500Y-69820000D03*
X166138600Y-97069300D03*
X162264000Y-67078700D03*
X158203900Y-50770000D03*
X166380200Y-95257400D03*
X145710400Y-52824800D03*
X134324400Y-74059500D03*
X162434500Y-95334700D03*
X157592700Y-50120000D03*
X157868900Y-96064600D03*
X126413000Y-81304100D03*
X158546500Y-69920600D03*
X159082400Y-53370000D03*
X209251000Y-76015100D03*
X209550000Y-53075300D03*
X130323900Y-86198400D03*
X138892200Y-105389500D03*
X161019400Y-68540200D03*
X159720700Y-70470000D03*
X173266500Y-53874000D03*
X172694400Y-68410900D03*
X216228500Y-76037900D03*
X217170000Y-52111600D03*
X211013200Y-55229800D03*
X180908500Y-73790000D03*
X181796000Y-54061400D03*
X179962400Y-60140000D03*
X160867200Y-51420000D03*
X155652900Y-72420000D03*
X87644400Y-84969900D03*
X100273100Y-72136900D03*
X119470500Y-72573100D03*
X146222200Y-75817800D03*
X156262800Y-74011000D03*
X152121700Y-82113200D03*
X137243500Y-82985000D03*
X127330400Y-74535800D03*
X85269500Y-83170000D03*
X138049900Y-53352100D03*
X159667400Y-58003200D03*
X159887600Y-69330200D03*
X163058100Y-74219500D03*
X153142300Y-52296500D03*
X141837500Y-52296500D03*
X88743600Y-84470000D03*
X134062200Y-108636100D03*
X121290800Y-87133400D03*
X137766500Y-107235200D03*
X121885300Y-87953200D03*
X126279000Y-105267900D03*
X120160300Y-93844900D03*
X112898500Y-89520000D03*
X116019300Y-72633100D03*
X124107100Y-86364200D03*
X136656900Y-105413800D03*
X136184900Y-107258600D03*
X134679400Y-90719800D03*
X88181800Y-95280000D03*
X141228100Y-53863600D03*
X146006500Y-54148000D03*
X150062500Y-60280000D03*
X220980000Y-87158000D03*
X221615000Y-65958200D03*
X211794000Y-92562400D03*
X130846800Y-84333400D03*
X158919200Y-93150400D03*
X177923200Y-94539300D03*
X186432600Y-95917100D03*
X223520000Y-86846900D03*
X222885000Y-65937500D03*
X187653600Y-89409000D03*
X188808800Y-63681200D03*
X187877400Y-80785400D03*
X158234800Y-85744400D03*
X134468200Y-86421600D03*
X188629200Y-89926200D03*
X183945100Y-95244600D03*
X224608300Y-86587200D03*
X222864800Y-67704000D03*
X192753700Y-66409800D03*
X189758500Y-90367800D03*
X135242900Y-86616500D03*
X139110200Y-90483800D03*
X174881200Y-89317400D03*
X223407600Y-54322500D03*
X222998300Y-72100100D03*
X183310100Y-95249000D03*
X189694400Y-73787900D03*
X182972300Y-93820400D03*
X157649800Y-93039600D03*
X143698900Y-86107600D03*
X222941600Y-72984100D03*
X223866900Y-53285700D03*
X189303400Y-75854000D03*
X185220400Y-93982500D03*
X189303400Y-80261500D03*
X223165600Y-73778600D03*
X223520000Y-52111600D03*
X187801300Y-51024700D03*
X187352100Y-76028400D03*
X182103500Y-94821500D03*
X172290300Y-84553000D03*
X143913800Y-89575400D03*
X139668900Y-84816200D03*
X219710000Y-73884700D03*
X220980000Y-53075300D03*
X185885800Y-76748100D03*
X181226900Y-94942100D03*
X181803400Y-80703000D03*
X156033100Y-84368500D03*
X152221700Y-90037200D03*
X144827000Y-91454200D03*
X136421400Y-84318700D03*
X185087300Y-73707300D03*
X219710000Y-75545000D03*
X219710000Y-53075300D03*
X185637000Y-53455200D03*
X183356800Y-72262300D03*
X180542300Y-95246500D03*
X180510200Y-83623000D03*
X146111300Y-87890600D03*
X140725300Y-84322300D03*
X171083500Y-86533200D03*
X171131600Y-66206900D03*
X203311400Y-84799100D03*
X205437100Y-65638100D03*
X173990000Y-74159900D03*
X171981900Y-53178400D03*
X207010000Y-74910000D03*
X207108600Y-53075300D03*
X168815100Y-84840400D03*
X207453800Y-86543500D03*
X208117000Y-65815300D03*
X171524400Y-67529000D03*
X171597900Y-88675300D03*
X171659100Y-83698100D03*
X139982600Y-88982800D03*
X128285300Y-78027300D03*
X175268100Y-75935300D03*
X173852500Y-53075300D03*
X182982600Y-53734500D03*
X208505200Y-54329700D03*
X207840600Y-76010800D03*
X126964300Y-70733300D03*
X148199500Y-83328000D03*
X174649600Y-80080900D03*
X207753800Y-85463500D03*
X175690900Y-86433700D03*
X176028400Y-63668000D03*
X201286300Y-84869900D03*
X205888500Y-66309400D03*
X116063800Y-83610400D03*
X149176400Y-67624100D03*
X167142900Y-67525200D03*
X172269800Y-63655000D03*
X210185000Y-86547700D03*
X209784500Y-65882300D03*
X173324200Y-66212200D03*
X174625000Y-86516900D03*
X172582900Y-89924400D03*
X140329300Y-93533900D03*
X139477200Y-101315900D03*
X107431200Y-100946300D03*
X119019400Y-81441500D03*
X176087400Y-73782100D03*
X175428600Y-53075300D03*
X209774800Y-54128300D03*
X210820000Y-74576800D03*
X109942000Y-78735400D03*
X176072100Y-50847600D03*
X177499700Y-73793600D03*
X177800000Y-52837200D03*
X212095300Y-52050000D03*
X212207600Y-76406800D03*
X170288400Y-56271500D03*
X113510100Y-76533300D03*
X181959200Y-73709000D03*
X183088100Y-55331500D03*
X182150000Y-58903400D03*
X152720400Y-65538400D03*
X122534900Y-76374600D03*
X179070000Y-75422600D03*
X179297800Y-53158800D03*
X114105000Y-79808200D03*
X169910600Y-55144300D03*
X179297800Y-55144300D03*
X217170000Y-74910000D03*
X217268600Y-53075300D03*
X184047100Y-53075300D03*
X182862400Y-76371800D03*
X176489000Y-48983500D03*
X108658500Y-78305400D03*
X88884700Y-86470900D03*
X87337300Y-82681400D03*
X138709200Y-54494600D03*
X88263700Y-82520000D03*
X84580800Y-93314500D03*
X89935000Y-86506000D03*
X134010000Y-59563000D03*
X135255000Y-60731400D03*
X135712000Y-46050200D03*
X132309000Y-61112400D03*
X135839000Y-61417200D03*
X137033000Y-46659800D03*
X88779900Y-85120000D03*
X140472400Y-52918500D03*
X138590300Y-53894200D03*
X84733900Y-84502000D03*
M02*
