M48
;DRILL file {KiCad 4.0.2+dfsg1-stable} date Thu 10 Jan 2019 07:28:06 CET
;FORMAT={-:-/ absolute / metric / decimal}
FMAT,2
METRIC,TZ
T1C0.300
T2C1.016
T3C3.048
%
G90
G05
M71
T1
X94.343Y-96.504
X96.109Y-98.81
X97.637Y-98.351
X99.489Y-102.495
X102.415Y-102.576
X109.575Y-96.511
X111.623Y-105.651
X113.433Y-104.003
X115.15Y-104.533
X115.654Y-78.82
X116.242Y-94.146
X116.724Y-93.66
X117.096Y-93.117
X117.105Y-105.622
X117.613Y-92.045
X117.705Y-105.622
X118.333Y-105.622
X118.901Y-106.627
X119.843Y-98.348
X120.055Y-95.122
X120.677Y-96.452
X121.226Y-95.085
X121.319Y-113.647
X121.458Y-96.414
X122.42Y-94.093
X123.947Y-95.207
X126.405Y-105.405
X126.606Y-106.988
X126.882Y-93.567
X127.233Y-104.656
X127.684Y-85.917
X127.935Y-80.922
X127.992Y-80.218
X128.304Y-93.108
X128.618Y-79.664
X129.147Y-87.257
X129.424Y-80.201
X129.54Y-96.601
X129.66Y-77.846
X130.04Y-84.667
X130.431Y-74.188
X130.672Y-84.413
X130.889Y-78.444
X131.007Y-89.749
X131.263Y-91.869
X131.302Y-80.876
X131.411Y-76.684
X131.417Y-89.28
X131.878Y-91.344
X132.648Y-90.768
X132.649Y-80.285
X132.75Y-69.02
X132.758Y-81.486
X133.176Y-80.792
X133.239Y-94.201
X133.249Y-80.176
X133.712Y-78.572
X133.959Y-72.835
X134.034Y-87.944
X134.139Y-99.135
X134.597Y-78.455
X134.977Y-104.774
X135.211Y-74.122
X135.25Y-103.178
X136.249Y-81.689
X137.001Y-104.774
X137.183Y-100.948
X137.468Y-82.312
X137.627Y-100.414
X137.869Y-83.367
X137.887Y-99.673
X137.993Y-94.5
X138.338Y-103.198
X138.429Y-104.774
X139.132Y-104.774
X139.446Y-82.316
X139.788Y-70.452
X139.875Y-104.774
X139.971Y-82.822
X140.146Y-111.894
X140.573Y-82.836
X141.059Y-79.794
X141.659Y-86.883
X141.973Y-76.397
X142.124Y-81.207
X142.55Y-84.9
X142.616Y-81.711
X142.805Y-73.414
X143.031Y-91.075
X143.21Y-82.368
X143.311Y-116.934
X143.439Y-88.688
X143.577Y-91.896
X143.644Y-73.216
X143.888Y-84.388
X145.298Y-111.846
X145.858Y-98.607
X146.267Y-107.37
X146.328Y-86.816
X146.652Y-83.46
X147.495Y-115.597
X147.507Y-66.265
X148.082Y-97.243
X148.664Y-65.869
X148.675Y-132.673
X148.876Y-94.519
X149.164Y-100.955
X149.24Y-84.27
X149.315Y-107.829
X149.421Y-95.9
X150.051Y-90.466
X150.203Y-97.432
X150.263Y-96.643
X150.505Y-83.46
X150.516Y-72.798
X150.932Y-132.673
X151.539Y-67.305
X151.539Y-81.088
X152.022Y-94.978
X154.246Y-88.405
X154.432Y-131.943
X154.585Y-63.765
X156.611Y-132.346
X156.659Y-118.298
X157.315Y-66.419
X157.974Y-79.754
X158.285Y-81.881
X159.302Y-102.335
X159.512Y-132.667
X160.522Y-102.865
X160.899Y-88.706
X161.238Y-94.9
X161.602Y-105.611
X162.006Y-106.757
X162.052Y-132.02
X162.267Y-97.776
X162.721Y-107.829
X162.734Y-96.751
X164.443Y-103.545
X164.592Y-131.943
X164.775Y-97.747
X166.041Y-105.764
X166.392Y-103.597
X166.504Y-93.809
X166.626Y-105.424
X167.002Y-101.167
X167.06Y-112.327
X167.132Y-132.666
X168.029Y-82.285
X168.112Y-103.587
X168.343Y-89.336
X168.365Y-83.103
X168.548Y-92.528
X168.656Y-100.642
X168.912Y-72.676
X169.312Y-112.273
X169.672Y-132.686
X169.687Y-92.026
X170.186Y-72.676
X170.815Y-61.096
X170.888Y-80.146
X171.283Y-98.908
X171.405Y-58.562
X171.463Y-68.582
X171.574Y-121.94
X171.583Y-80.235
X172.077Y-78.672
X172.322Y-92.868
X172.58Y-60.695
X172.72Y-72.635
X172.912Y-73.518
X172.985Y-58.099
X173.173Y-92.877
X173.241Y-70.324
X173.461Y-95.53
X173.876Y-116.598
X174.29Y-73.515
X174.457Y-88.457
X174.464Y-92.876
X175.042Y-92.332
X175.078Y-98.277
X175.115Y-131.528
X175.124Y-68.912
X175.196Y-74.174
X175.512Y-90.93
X175.825Y-92.299
X176.02Y-80.155
X176.077Y-60.779
X176.631Y-96.581
X176.833Y-73.767
X177.165Y-60.798
X177.292Y-131.943
X177.373Y-65.239
X177.379Y-92.147
X177.418Y-79.469
X178.169Y-73.515
X178.632Y-74.696
X178.641Y-90.875
X179.176Y-91.437
X179.538Y-60.778
X179.832Y-132.659
X180.76Y-73.512
X181.101Y-83.109
X181.2Y-90.175
X181.21Y-82.459
X181.409Y-80.201
X181.735Y-79.678
X182.267Y-66.494
X182.757Y-132.386
X182.793Y-67.578
X182.806Y-62.79
X182.899Y-97.051
X183.513Y-63.844
X183.923Y-83.594
X183.985Y-63.343
X184.563Y-79.132
X184.587Y-104.3
X184.974Y-62.298
X185.225Y-92.932
X185.267Y-61.119
X185.269Y-131.346
X185.762Y-80.139
X185.765Y-76.811
X186.076Y-60.868
X186.161Y-67.033
X186.459Y-92.601
X186.517Y-74.854
X186.69Y-60.385
X186.693Y-72.635
X186.911Y-69.418
X187.962Y-80.747
X187.967Y-93.057
X188.398Y-60.791
X188.487Y-86.686
X190.505Y-76.629
X190.505Y-96.464
X190.878Y-68.546
X191.932Y-59.48
X192.438Y-69.104
X193.83Y-56.903
X194.457Y-61.847
X195.931Y-73.54
X196.109Y-92.869
X196.321Y-60.789
X196.774Y-73.386
X196.886Y-74.911
X197.387Y-92.891
X197.737Y-61.321
X197.862Y-76.2
X197.862Y-79.427
X198.314Y-91.351
X198.463Y-79.478
X198.763Y-73.535
X198.884Y-61.227
X199.323Y-92.975
X199.363Y-80.18
X199.964Y-80.154
X200.193Y-90.471
X200.58Y-76.467
X200.66Y-58.891
X200.896Y-64.713
X200.935Y-69.479
X201.165Y-80.148
X201.218Y-92.889
X201.603Y-87.478
X201.715Y-73.489
X202.031Y-93.043
X202.589Y-73.515
X202.775Y-90.021
X202.983Y-89.402
X204.327Y-77.185
X204.613Y-88.973
X204.698Y-86.83
X204.772Y-73.516
X206.719Y-73.515
X207.736Y-73.515
X208.221Y-92.975
X208.31Y-80.324
T2
X91.44Y-81.28
X96.52Y-58.42
X96.52Y-60.96
X96.52Y-63.5
X96.52Y-66.04
X109.22Y-59.69
X109.22Y-62.23
X109.22Y-64.77
X110.49Y-110.604
X110.49Y-115.456
X113.03Y-110.604
X113.03Y-115.456
X115.57Y-110.604
X115.57Y-115.456
X118.11Y-110.604
X118.11Y-115.456
X120.65Y-110.604
X120.65Y-115.456
X123.19Y-110.604
X123.19Y-115.456
X125.73Y-110.604
X125.73Y-115.456
X133.35Y-71.12
X135.89Y-71.12
X138.43Y-71.12
X143.51Y-62.23
X146.05Y-62.23
X146.05Y-71.12
X148.59Y-62.23
X148.59Y-71.12
X149.86Y-110.604
X149.86Y-115.456
X151.13Y-62.23
X152.4Y-110.604
X152.4Y-115.456
X154.94Y-110.604
X154.94Y-115.456
X157.48Y-110.604
X157.48Y-115.456
X160.02Y-110.604
X160.02Y-115.456
X162.56Y-110.604
X162.56Y-115.456
X165.1Y-110.604
X165.1Y-115.456
X167.64Y-110.604
X167.64Y-115.456
X170.18Y-110.604
X170.18Y-115.456
X172.72Y-110.604
X172.72Y-115.456
X175.26Y-110.604
X175.26Y-115.456
X177.8Y-110.604
X177.8Y-115.456
X180.34Y-110.604
X180.34Y-115.456
X182.88Y-110.604
X182.88Y-115.456
X185.42Y-110.604
X185.42Y-115.456
T3
X88.9Y-53.34
X88.9Y-115.57
X217.17Y-53.34
X217.17Y-115.57
T0
M30
