G04 #@! TF.FileFunction,Legend,Bot*
%FSLAX46Y46*%
G04 Gerber Fmt 4.6, Leading zero omitted, Abs format (unit mm)*
G04 Created by KiCad (PCBNEW 4.0.2+dfsg1-stable) date Fri 08 Feb 2019 16:08:27 CET*
%MOMM*%
G01*
G04 APERTURE LIST*
%ADD10C,0.100000*%
%ADD11C,0.300000*%
%ADD12C,0.150000*%
%ADD13C,0.010000*%
G04 APERTURE END LIST*
D10*
D11*
X128704286Y-60638571D02*
X128704286Y-62138571D01*
X128704286Y-60710000D02*
X128847143Y-60638571D01*
X129132857Y-60638571D01*
X129275714Y-60710000D01*
X129347143Y-60781429D01*
X129418572Y-60924286D01*
X129418572Y-61352857D01*
X129347143Y-61495714D01*
X129275714Y-61567143D01*
X129132857Y-61638571D01*
X128847143Y-61638571D01*
X128704286Y-61567143D01*
X130275715Y-61638571D02*
X130132857Y-61567143D01*
X130061429Y-61495714D01*
X129990000Y-61352857D01*
X129990000Y-60924286D01*
X130061429Y-60781429D01*
X130132857Y-60710000D01*
X130275715Y-60638571D01*
X130490000Y-60638571D01*
X130632857Y-60710000D01*
X130704286Y-60781429D01*
X130775715Y-60924286D01*
X130775715Y-61352857D01*
X130704286Y-61495714D01*
X130632857Y-61567143D01*
X130490000Y-61638571D01*
X130275715Y-61638571D01*
X131275715Y-60638571D02*
X131561429Y-61638571D01*
X131847143Y-60924286D01*
X132132858Y-61638571D01*
X132418572Y-60638571D01*
X133561429Y-61567143D02*
X133418572Y-61638571D01*
X133132858Y-61638571D01*
X132990001Y-61567143D01*
X132918572Y-61424286D01*
X132918572Y-60852857D01*
X132990001Y-60710000D01*
X133132858Y-60638571D01*
X133418572Y-60638571D01*
X133561429Y-60710000D01*
X133632858Y-60852857D01*
X133632858Y-60995714D01*
X132918572Y-61138571D01*
X134275715Y-61638571D02*
X134275715Y-60638571D01*
X134275715Y-60924286D02*
X134347143Y-60781429D01*
X134418572Y-60710000D01*
X134561429Y-60638571D01*
X134704286Y-60638571D01*
X136204286Y-60638571D02*
X136490000Y-61638571D01*
X136775714Y-60924286D01*
X137061429Y-61638571D01*
X137347143Y-60638571D01*
X137918572Y-61638571D02*
X137918572Y-60638571D01*
X137918572Y-60138571D02*
X137847143Y-60210000D01*
X137918572Y-60281429D01*
X137990000Y-60210000D01*
X137918572Y-60138571D01*
X137918572Y-60281429D01*
X138418572Y-60638571D02*
X138990001Y-60638571D01*
X138632858Y-60138571D02*
X138632858Y-61424286D01*
X138704286Y-61567143D01*
X138847144Y-61638571D01*
X138990001Y-61638571D01*
X139490001Y-61638571D02*
X139490001Y-60138571D01*
X140132858Y-61638571D02*
X140132858Y-60852857D01*
X140061429Y-60710000D01*
X139918572Y-60638571D01*
X139704287Y-60638571D01*
X139561429Y-60710000D01*
X139490001Y-60781429D01*
X141061430Y-61638571D02*
X140918572Y-61567143D01*
X140847144Y-61495714D01*
X140775715Y-61352857D01*
X140775715Y-60924286D01*
X140847144Y-60781429D01*
X140918572Y-60710000D01*
X141061430Y-60638571D01*
X141275715Y-60638571D01*
X141418572Y-60710000D01*
X141490001Y-60781429D01*
X141561430Y-60924286D01*
X141561430Y-61352857D01*
X141490001Y-61495714D01*
X141418572Y-61567143D01*
X141275715Y-61638571D01*
X141061430Y-61638571D01*
X142847144Y-60638571D02*
X142847144Y-61638571D01*
X142204287Y-60638571D02*
X142204287Y-61424286D01*
X142275715Y-61567143D01*
X142418573Y-61638571D01*
X142632858Y-61638571D01*
X142775715Y-61567143D01*
X142847144Y-61495714D01*
X143347144Y-60638571D02*
X143918573Y-60638571D01*
X143561430Y-60138571D02*
X143561430Y-61424286D01*
X143632858Y-61567143D01*
X143775716Y-61638571D01*
X143918573Y-61638571D01*
X145347144Y-60638571D02*
X145918573Y-60638571D01*
X145561430Y-60138571D02*
X145561430Y-61424286D01*
X145632858Y-61567143D01*
X145775716Y-61638571D01*
X145918573Y-61638571D01*
X146418573Y-61638571D02*
X146418573Y-60138571D01*
X147061430Y-61638571D02*
X147061430Y-60852857D01*
X146990001Y-60710000D01*
X146847144Y-60638571D01*
X146632859Y-60638571D01*
X146490001Y-60710000D01*
X146418573Y-60781429D01*
X148347144Y-61567143D02*
X148204287Y-61638571D01*
X147918573Y-61638571D01*
X147775716Y-61567143D01*
X147704287Y-61424286D01*
X147704287Y-60852857D01*
X147775716Y-60710000D01*
X147918573Y-60638571D01*
X148204287Y-60638571D01*
X148347144Y-60710000D01*
X148418573Y-60852857D01*
X148418573Y-60995714D01*
X147704287Y-61138571D01*
X150204287Y-60638571D02*
X150204287Y-62138571D01*
X150204287Y-60710000D02*
X150347144Y-60638571D01*
X150632858Y-60638571D01*
X150775715Y-60710000D01*
X150847144Y-60781429D01*
X150918573Y-60924286D01*
X150918573Y-61352857D01*
X150847144Y-61495714D01*
X150775715Y-61567143D01*
X150632858Y-61638571D01*
X150347144Y-61638571D01*
X150204287Y-61567143D01*
X151561430Y-61638571D02*
X151561430Y-60638571D01*
X151561430Y-60924286D02*
X151632858Y-60781429D01*
X151704287Y-60710000D01*
X151847144Y-60638571D01*
X151990001Y-60638571D01*
X152490001Y-61638571D02*
X152490001Y-60638571D01*
X152490001Y-60138571D02*
X152418572Y-60210000D01*
X152490001Y-60281429D01*
X152561429Y-60210000D01*
X152490001Y-60138571D01*
X152490001Y-60281429D01*
X153847144Y-61567143D02*
X153704287Y-61638571D01*
X153418573Y-61638571D01*
X153275715Y-61567143D01*
X153204287Y-61495714D01*
X153132858Y-61352857D01*
X153132858Y-60924286D01*
X153204287Y-60781429D01*
X153275715Y-60710000D01*
X153418573Y-60638571D01*
X153704287Y-60638571D01*
X153847144Y-60710000D01*
X155061429Y-61567143D02*
X154918572Y-61638571D01*
X154632858Y-61638571D01*
X154490001Y-61567143D01*
X154418572Y-61424286D01*
X154418572Y-60852857D01*
X154490001Y-60710000D01*
X154632858Y-60638571D01*
X154918572Y-60638571D01*
X155061429Y-60710000D01*
X155132858Y-60852857D01*
X155132858Y-60995714D01*
X154418572Y-61138571D01*
X155775715Y-61495714D02*
X155847143Y-61567143D01*
X155775715Y-61638571D01*
X155704286Y-61567143D01*
X155775715Y-61495714D01*
X155775715Y-61638571D01*
X155775715Y-61067143D02*
X155704286Y-60210000D01*
X155775715Y-60138571D01*
X155847143Y-60210000D01*
X155775715Y-61067143D01*
X155775715Y-60138571D01*
X153512857Y-123868571D02*
X153512857Y-122868571D01*
X153512857Y-122368571D02*
X153441428Y-122440000D01*
X153512857Y-122511429D01*
X153584285Y-122440000D01*
X153512857Y-122368571D01*
X153512857Y-122511429D01*
X154227143Y-122868571D02*
X154227143Y-123868571D01*
X154227143Y-123011429D02*
X154298571Y-122940000D01*
X154441429Y-122868571D01*
X154655714Y-122868571D01*
X154798571Y-122940000D01*
X154870000Y-123082857D01*
X154870000Y-123868571D01*
X156727143Y-123868571D02*
X156727143Y-122868571D01*
X156727143Y-123011429D02*
X156798571Y-122940000D01*
X156941429Y-122868571D01*
X157155714Y-122868571D01*
X157298571Y-122940000D01*
X157370000Y-123082857D01*
X157370000Y-123868571D01*
X157370000Y-123082857D02*
X157441429Y-122940000D01*
X157584286Y-122868571D01*
X157798571Y-122868571D01*
X157941429Y-122940000D01*
X158012857Y-123082857D01*
X158012857Y-123868571D01*
X159298571Y-123797143D02*
X159155714Y-123868571D01*
X158870000Y-123868571D01*
X158727143Y-123797143D01*
X158655714Y-123654286D01*
X158655714Y-123082857D01*
X158727143Y-122940000D01*
X158870000Y-122868571D01*
X159155714Y-122868571D01*
X159298571Y-122940000D01*
X159370000Y-123082857D01*
X159370000Y-123225714D01*
X158655714Y-123368571D01*
X160012857Y-123868571D02*
X160012857Y-122868571D01*
X160012857Y-123011429D02*
X160084285Y-122940000D01*
X160227143Y-122868571D01*
X160441428Y-122868571D01*
X160584285Y-122940000D01*
X160655714Y-123082857D01*
X160655714Y-123868571D01*
X160655714Y-123082857D02*
X160727143Y-122940000D01*
X160870000Y-122868571D01*
X161084285Y-122868571D01*
X161227143Y-122940000D01*
X161298571Y-123082857D01*
X161298571Y-123868571D01*
X162227143Y-123868571D02*
X162084285Y-123797143D01*
X162012857Y-123725714D01*
X161941428Y-123582857D01*
X161941428Y-123154286D01*
X162012857Y-123011429D01*
X162084285Y-122940000D01*
X162227143Y-122868571D01*
X162441428Y-122868571D01*
X162584285Y-122940000D01*
X162655714Y-123011429D01*
X162727143Y-123154286D01*
X162727143Y-123582857D01*
X162655714Y-123725714D01*
X162584285Y-123797143D01*
X162441428Y-123868571D01*
X162227143Y-123868571D01*
X163370000Y-123868571D02*
X163370000Y-122868571D01*
X163370000Y-123154286D02*
X163441428Y-123011429D01*
X163512857Y-122940000D01*
X163655714Y-122868571D01*
X163798571Y-122868571D01*
X164298571Y-123868571D02*
X164298571Y-122868571D01*
X164298571Y-122368571D02*
X164227142Y-122440000D01*
X164298571Y-122511429D01*
X164369999Y-122440000D01*
X164298571Y-122368571D01*
X164298571Y-122511429D01*
X165655714Y-123868571D02*
X165655714Y-123082857D01*
X165584285Y-122940000D01*
X165441428Y-122868571D01*
X165155714Y-122868571D01*
X165012857Y-122940000D01*
X165655714Y-123797143D02*
X165512857Y-123868571D01*
X165155714Y-123868571D01*
X165012857Y-123797143D01*
X164941428Y-123654286D01*
X164941428Y-123511429D01*
X165012857Y-123368571D01*
X165155714Y-123297143D01*
X165512857Y-123297143D01*
X165655714Y-123225714D01*
X166370000Y-123868571D02*
X166370000Y-122868571D01*
X166370000Y-123011429D02*
X166441428Y-122940000D01*
X166584286Y-122868571D01*
X166798571Y-122868571D01*
X166941428Y-122940000D01*
X167012857Y-123082857D01*
X167012857Y-123868571D01*
X167012857Y-123082857D02*
X167084286Y-122940000D01*
X167227143Y-122868571D01*
X167441428Y-122868571D01*
X167584286Y-122940000D01*
X167655714Y-123082857D01*
X167655714Y-123868571D01*
X169441428Y-123440000D02*
X170155714Y-123440000D01*
X169298571Y-123868571D02*
X169798571Y-122368571D01*
X170298571Y-123868571D01*
X170798571Y-123725714D02*
X170869999Y-123797143D01*
X170798571Y-123868571D01*
X170727142Y-123797143D01*
X170798571Y-123725714D01*
X170798571Y-123868571D01*
X171441428Y-123797143D02*
X171655714Y-123868571D01*
X172012857Y-123868571D01*
X172155714Y-123797143D01*
X172227143Y-123725714D01*
X172298571Y-123582857D01*
X172298571Y-123440000D01*
X172227143Y-123297143D01*
X172155714Y-123225714D01*
X172012857Y-123154286D01*
X171727143Y-123082857D01*
X171584285Y-123011429D01*
X171512857Y-122940000D01*
X171441428Y-122797143D01*
X171441428Y-122654286D01*
X171512857Y-122511429D01*
X171584285Y-122440000D01*
X171727143Y-122368571D01*
X172084285Y-122368571D01*
X172298571Y-122440000D01*
X172941428Y-123725714D02*
X173012856Y-123797143D01*
X172941428Y-123868571D01*
X172869999Y-123797143D01*
X172941428Y-123725714D01*
X172941428Y-123868571D01*
X173655714Y-123297143D02*
X174798571Y-123297143D01*
X176298571Y-122440000D02*
X176155714Y-122368571D01*
X175941428Y-122368571D01*
X175727143Y-122440000D01*
X175584285Y-122582857D01*
X175512857Y-122725714D01*
X175441428Y-123011429D01*
X175441428Y-123225714D01*
X175512857Y-123511429D01*
X175584285Y-123654286D01*
X175727143Y-123797143D01*
X175941428Y-123868571D01*
X176084285Y-123868571D01*
X176298571Y-123797143D01*
X176370000Y-123725714D01*
X176370000Y-123225714D01*
X176084285Y-123225714D01*
X177012857Y-123725714D02*
X177084285Y-123797143D01*
X177012857Y-123868571D01*
X176941428Y-123797143D01*
X177012857Y-123725714D01*
X177012857Y-123868571D01*
X177727143Y-123868571D02*
X177727143Y-122368571D01*
X178084286Y-122368571D01*
X178298571Y-122440000D01*
X178441429Y-122582857D01*
X178512857Y-122725714D01*
X178584286Y-123011429D01*
X178584286Y-123225714D01*
X178512857Y-123511429D01*
X178441429Y-123654286D01*
X178298571Y-123797143D01*
X178084286Y-123868571D01*
X177727143Y-123868571D01*
X179227143Y-123725714D02*
X179298571Y-123797143D01*
X179227143Y-123868571D01*
X179155714Y-123797143D01*
X179227143Y-123725714D01*
X179227143Y-123868571D01*
D12*
X185117490Y-129603500D02*
G75*
G03X185117490Y-129603500I-141990J0D01*
G01*
X185039000Y-129603500D02*
G75*
G03X185039000Y-129603500I-63500J0D01*
G01*
D13*
G36*
X148642614Y-56271583D02*
X148653500Y-59076166D01*
X149066250Y-59088282D01*
X149479000Y-59100399D01*
X149479000Y-53467000D01*
X148631729Y-53467000D01*
X148642614Y-56271583D01*
X148642614Y-56271583D01*
G37*
X148642614Y-56271583D02*
X148653500Y-59076166D01*
X149066250Y-59088282D01*
X149479000Y-59100399D01*
X149479000Y-53467000D01*
X148631729Y-53467000D01*
X148642614Y-56271583D01*
G36*
X145329168Y-53474290D02*
X145219750Y-53483549D01*
X145137845Y-53499712D01*
X145069171Y-53524025D01*
X144999446Y-53557735D01*
X144994799Y-53560145D01*
X144926918Y-53594558D01*
X144868657Y-53626245D01*
X144819284Y-53661569D01*
X144778063Y-53706892D01*
X144744263Y-53768576D01*
X144717148Y-53852983D01*
X144695987Y-53966476D01*
X144680045Y-54115416D01*
X144668589Y-54306166D01*
X144660885Y-54545089D01*
X144656201Y-54838546D01*
X144653801Y-55192900D01*
X144652954Y-55614512D01*
X144652925Y-56109746D01*
X144653000Y-56524922D01*
X144653000Y-59097333D01*
X145457333Y-59097333D01*
X145462342Y-56843083D01*
X145463798Y-56410138D01*
X145466130Y-55999787D01*
X145469224Y-55620390D01*
X145472969Y-55280307D01*
X145477251Y-54987896D01*
X145481958Y-54751516D01*
X145486977Y-54579528D01*
X145492195Y-54480289D01*
X145494448Y-54462175D01*
X145521325Y-54382803D01*
X145575035Y-54337001D01*
X145680759Y-54306800D01*
X145723699Y-54298585D01*
X145928215Y-54278449D01*
X146154674Y-54283381D01*
X146376210Y-54310218D01*
X146565959Y-54355795D01*
X146690645Y-54412430D01*
X146859518Y-54556180D01*
X146961489Y-54722019D01*
X147010385Y-54934501D01*
X147015324Y-54988981D01*
X147020886Y-55155337D01*
X147015536Y-55311147D01*
X147006466Y-55386912D01*
X146933019Y-55567014D01*
X146784832Y-55749365D01*
X146571091Y-55925015D01*
X146300978Y-56085014D01*
X146278691Y-56096140D01*
X146067423Y-56209313D01*
X145925548Y-56313232D01*
X145841674Y-56423978D01*
X145804409Y-56557635D01*
X145802359Y-56730284D01*
X145804733Y-56765204D01*
X145812197Y-56836740D01*
X145826511Y-56905912D01*
X145852793Y-56982005D01*
X145896161Y-57074302D01*
X145961733Y-57192088D01*
X146054627Y-57344649D01*
X146179959Y-57541268D01*
X146342849Y-57791231D01*
X146512686Y-58049583D01*
X147202711Y-59097333D01*
X147663522Y-59097333D01*
X147858427Y-59093847D01*
X148009684Y-59084264D01*
X148102322Y-59069893D01*
X148124333Y-59056995D01*
X148101755Y-59012415D01*
X148038068Y-58907052D01*
X147939347Y-58750425D01*
X147811665Y-58552052D01*
X147661094Y-58321452D01*
X147493708Y-58068144D01*
X147486352Y-58057078D01*
X147279683Y-57745265D01*
X147116113Y-57495563D01*
X146991164Y-57300052D01*
X146900356Y-57150809D01*
X146839209Y-57039915D01*
X146803242Y-56959448D01*
X146787977Y-56901487D01*
X146788933Y-56858110D01*
X146795516Y-56835563D01*
X146840764Y-56783632D01*
X146938088Y-56703873D01*
X147067343Y-56612645D01*
X147081205Y-56603550D01*
X147321748Y-56431225D01*
X147501054Y-56261898D01*
X147638947Y-56074124D01*
X147730458Y-55901166D01*
X147781675Y-55784926D01*
X147815640Y-55682321D01*
X147835850Y-55570898D01*
X147845803Y-55428203D01*
X147848997Y-55231782D01*
X147849166Y-55139166D01*
X147847864Y-54919187D01*
X147841409Y-54761146D01*
X147825982Y-54642326D01*
X147797761Y-54540009D01*
X147752927Y-54431479D01*
X147717454Y-54356000D01*
X147522506Y-54038967D01*
X147272058Y-53785014D01*
X146991519Y-53607502D01*
X146902621Y-53565368D01*
X146822591Y-53534275D01*
X146736350Y-53512281D01*
X146628817Y-53497446D01*
X146484912Y-53487831D01*
X146289554Y-53481495D01*
X146027662Y-53476498D01*
X145965333Y-53475478D01*
X145687677Y-53471500D01*
X145480383Y-53470689D01*
X145329168Y-53474290D01*
X145329168Y-53474290D01*
G37*
X145329168Y-53474290D02*
X145219750Y-53483549D01*
X145137845Y-53499712D01*
X145069171Y-53524025D01*
X144999446Y-53557735D01*
X144994799Y-53560145D01*
X144926918Y-53594558D01*
X144868657Y-53626245D01*
X144819284Y-53661569D01*
X144778063Y-53706892D01*
X144744263Y-53768576D01*
X144717148Y-53852983D01*
X144695987Y-53966476D01*
X144680045Y-54115416D01*
X144668589Y-54306166D01*
X144660885Y-54545089D01*
X144656201Y-54838546D01*
X144653801Y-55192900D01*
X144652954Y-55614512D01*
X144652925Y-56109746D01*
X144653000Y-56524922D01*
X144653000Y-59097333D01*
X145457333Y-59097333D01*
X145462342Y-56843083D01*
X145463798Y-56410138D01*
X145466130Y-55999787D01*
X145469224Y-55620390D01*
X145472969Y-55280307D01*
X145477251Y-54987896D01*
X145481958Y-54751516D01*
X145486977Y-54579528D01*
X145492195Y-54480289D01*
X145494448Y-54462175D01*
X145521325Y-54382803D01*
X145575035Y-54337001D01*
X145680759Y-54306800D01*
X145723699Y-54298585D01*
X145928215Y-54278449D01*
X146154674Y-54283381D01*
X146376210Y-54310218D01*
X146565959Y-54355795D01*
X146690645Y-54412430D01*
X146859518Y-54556180D01*
X146961489Y-54722019D01*
X147010385Y-54934501D01*
X147015324Y-54988981D01*
X147020886Y-55155337D01*
X147015536Y-55311147D01*
X147006466Y-55386912D01*
X146933019Y-55567014D01*
X146784832Y-55749365D01*
X146571091Y-55925015D01*
X146300978Y-56085014D01*
X146278691Y-56096140D01*
X146067423Y-56209313D01*
X145925548Y-56313232D01*
X145841674Y-56423978D01*
X145804409Y-56557635D01*
X145802359Y-56730284D01*
X145804733Y-56765204D01*
X145812197Y-56836740D01*
X145826511Y-56905912D01*
X145852793Y-56982005D01*
X145896161Y-57074302D01*
X145961733Y-57192088D01*
X146054627Y-57344649D01*
X146179959Y-57541268D01*
X146342849Y-57791231D01*
X146512686Y-58049583D01*
X147202711Y-59097333D01*
X147663522Y-59097333D01*
X147858427Y-59093847D01*
X148009684Y-59084264D01*
X148102322Y-59069893D01*
X148124333Y-59056995D01*
X148101755Y-59012415D01*
X148038068Y-58907052D01*
X147939347Y-58750425D01*
X147811665Y-58552052D01*
X147661094Y-58321452D01*
X147493708Y-58068144D01*
X147486352Y-58057078D01*
X147279683Y-57745265D01*
X147116113Y-57495563D01*
X146991164Y-57300052D01*
X146900356Y-57150809D01*
X146839209Y-57039915D01*
X146803242Y-56959448D01*
X146787977Y-56901487D01*
X146788933Y-56858110D01*
X146795516Y-56835563D01*
X146840764Y-56783632D01*
X146938088Y-56703873D01*
X147067343Y-56612645D01*
X147081205Y-56603550D01*
X147321748Y-56431225D01*
X147501054Y-56261898D01*
X147638947Y-56074124D01*
X147730458Y-55901166D01*
X147781675Y-55784926D01*
X147815640Y-55682321D01*
X147835850Y-55570898D01*
X147845803Y-55428203D01*
X147848997Y-55231782D01*
X147849166Y-55139166D01*
X147847864Y-54919187D01*
X147841409Y-54761146D01*
X147825982Y-54642326D01*
X147797761Y-54540009D01*
X147752927Y-54431479D01*
X147717454Y-54356000D01*
X147522506Y-54038967D01*
X147272058Y-53785014D01*
X146991519Y-53607502D01*
X146902621Y-53565368D01*
X146822591Y-53534275D01*
X146736350Y-53512281D01*
X146628817Y-53497446D01*
X146484912Y-53487831D01*
X146289554Y-53481495D01*
X146027662Y-53476498D01*
X145965333Y-53475478D01*
X145687677Y-53471500D01*
X145480383Y-53470689D01*
X145329168Y-53474290D01*
G36*
X141823619Y-53495920D02*
X141733985Y-53529473D01*
X141692083Y-53551683D01*
X141653963Y-53575843D01*
X141617908Y-53607072D01*
X141582205Y-53650491D01*
X141545135Y-53711220D01*
X141504986Y-53794379D01*
X141460039Y-53905087D01*
X141408581Y-54048466D01*
X141348895Y-54229634D01*
X141279266Y-54453711D01*
X141197978Y-54725819D01*
X141103316Y-55051076D01*
X140993564Y-55434603D01*
X140867006Y-55881520D01*
X140721927Y-56396946D01*
X140556612Y-56986003D01*
X140458244Y-57336794D01*
X140357647Y-57696948D01*
X140264600Y-58032768D01*
X140181538Y-58335267D01*
X140110893Y-58595462D01*
X140055100Y-58804366D01*
X140016592Y-58952995D01*
X139997802Y-59032363D01*
X139996333Y-59042243D01*
X140013338Y-59069475D01*
X140073157Y-59085403D01*
X140188992Y-59091503D01*
X140374051Y-59089248D01*
X140408542Y-59088282D01*
X140820751Y-59076166D01*
X141011792Y-58419819D01*
X141078659Y-58193960D01*
X141139701Y-57994934D01*
X141190131Y-57837812D01*
X141225160Y-57737664D01*
X141237082Y-57710735D01*
X141274323Y-57691048D01*
X141362296Y-57676433D01*
X141508993Y-57666397D01*
X141722407Y-57660445D01*
X142010530Y-57658086D01*
X142091479Y-57658000D01*
X142375885Y-57658596D01*
X142586868Y-57661045D01*
X142735665Y-57666337D01*
X142833515Y-57675461D01*
X142891657Y-57689406D01*
X142921329Y-57709162D01*
X142932797Y-57732083D01*
X142951068Y-57797000D01*
X142987611Y-57927577D01*
X143037983Y-58107915D01*
X143097740Y-58322110D01*
X143133879Y-58451750D01*
X143313790Y-59097333D01*
X143729395Y-59097333D01*
X143932703Y-59094279D01*
X144062392Y-59084167D01*
X144129325Y-59065571D01*
X144145000Y-59042789D01*
X144133402Y-58981780D01*
X144100247Y-58848125D01*
X144047992Y-58650369D01*
X143979095Y-58397056D01*
X143896015Y-58096730D01*
X143801209Y-57757936D01*
X143697134Y-57389217D01*
X143586250Y-56999118D01*
X143534866Y-56819448D01*
X142663333Y-56819448D01*
X142623528Y-56831745D01*
X142514208Y-56842083D01*
X142350519Y-56849585D01*
X142147608Y-56853377D01*
X142070666Y-56853666D01*
X141805675Y-56850868D01*
X141621209Y-56842264D01*
X141513305Y-56827535D01*
X141478001Y-56806365D01*
X141478000Y-56806249D01*
X141489412Y-56740645D01*
X141521013Y-56612929D01*
X141568851Y-56436251D01*
X141628974Y-56223759D01*
X141697431Y-55988601D01*
X141770268Y-55743927D01*
X141843535Y-55502886D01*
X141913280Y-55278627D01*
X141975549Y-55084297D01*
X142026392Y-54933047D01*
X142061856Y-54838025D01*
X142077512Y-54811578D01*
X142095868Y-54857640D01*
X142133092Y-54971504D01*
X142185181Y-55139454D01*
X142248133Y-55347772D01*
X142317947Y-55582741D01*
X142390619Y-55830645D01*
X142462149Y-56077765D01*
X142528533Y-56310386D01*
X142585770Y-56514790D01*
X142629858Y-56677260D01*
X142656794Y-56784079D01*
X142663333Y-56819448D01*
X143534866Y-56819448D01*
X143471013Y-56596183D01*
X143353881Y-56188956D01*
X143237313Y-55785981D01*
X143123765Y-55395803D01*
X143015697Y-55026964D01*
X142915565Y-54688011D01*
X142825829Y-54387486D01*
X142748944Y-54133934D01*
X142687370Y-53935900D01*
X142643564Y-53801926D01*
X142619985Y-53740558D01*
X142619504Y-53739746D01*
X142521078Y-53626234D01*
X142398156Y-53538173D01*
X142391685Y-53535006D01*
X142215595Y-53483129D01*
X142013209Y-53469991D01*
X141823619Y-53495920D01*
X141823619Y-53495920D01*
G37*
X141823619Y-53495920D02*
X141733985Y-53529473D01*
X141692083Y-53551683D01*
X141653963Y-53575843D01*
X141617908Y-53607072D01*
X141582205Y-53650491D01*
X141545135Y-53711220D01*
X141504986Y-53794379D01*
X141460039Y-53905087D01*
X141408581Y-54048466D01*
X141348895Y-54229634D01*
X141279266Y-54453711D01*
X141197978Y-54725819D01*
X141103316Y-55051076D01*
X140993564Y-55434603D01*
X140867006Y-55881520D01*
X140721927Y-56396946D01*
X140556612Y-56986003D01*
X140458244Y-57336794D01*
X140357647Y-57696948D01*
X140264600Y-58032768D01*
X140181538Y-58335267D01*
X140110893Y-58595462D01*
X140055100Y-58804366D01*
X140016592Y-58952995D01*
X139997802Y-59032363D01*
X139996333Y-59042243D01*
X140013338Y-59069475D01*
X140073157Y-59085403D01*
X140188992Y-59091503D01*
X140374051Y-59089248D01*
X140408542Y-59088282D01*
X140820751Y-59076166D01*
X141011792Y-58419819D01*
X141078659Y-58193960D01*
X141139701Y-57994934D01*
X141190131Y-57837812D01*
X141225160Y-57737664D01*
X141237082Y-57710735D01*
X141274323Y-57691048D01*
X141362296Y-57676433D01*
X141508993Y-57666397D01*
X141722407Y-57660445D01*
X142010530Y-57658086D01*
X142091479Y-57658000D01*
X142375885Y-57658596D01*
X142586868Y-57661045D01*
X142735665Y-57666337D01*
X142833515Y-57675461D01*
X142891657Y-57689406D01*
X142921329Y-57709162D01*
X142932797Y-57732083D01*
X142951068Y-57797000D01*
X142987611Y-57927577D01*
X143037983Y-58107915D01*
X143097740Y-58322110D01*
X143133879Y-58451750D01*
X143313790Y-59097333D01*
X143729395Y-59097333D01*
X143932703Y-59094279D01*
X144062392Y-59084167D01*
X144129325Y-59065571D01*
X144145000Y-59042789D01*
X144133402Y-58981780D01*
X144100247Y-58848125D01*
X144047992Y-58650369D01*
X143979095Y-58397056D01*
X143896015Y-58096730D01*
X143801209Y-57757936D01*
X143697134Y-57389217D01*
X143586250Y-56999118D01*
X143534866Y-56819448D01*
X142663333Y-56819448D01*
X142623528Y-56831745D01*
X142514208Y-56842083D01*
X142350519Y-56849585D01*
X142147608Y-56853377D01*
X142070666Y-56853666D01*
X141805675Y-56850868D01*
X141621209Y-56842264D01*
X141513305Y-56827535D01*
X141478001Y-56806365D01*
X141478000Y-56806249D01*
X141489412Y-56740645D01*
X141521013Y-56612929D01*
X141568851Y-56436251D01*
X141628974Y-56223759D01*
X141697431Y-55988601D01*
X141770268Y-55743927D01*
X141843535Y-55502886D01*
X141913280Y-55278627D01*
X141975549Y-55084297D01*
X142026392Y-54933047D01*
X142061856Y-54838025D01*
X142077512Y-54811578D01*
X142095868Y-54857640D01*
X142133092Y-54971504D01*
X142185181Y-55139454D01*
X142248133Y-55347772D01*
X142317947Y-55582741D01*
X142390619Y-55830645D01*
X142462149Y-56077765D01*
X142528533Y-56310386D01*
X142585770Y-56514790D01*
X142629858Y-56677260D01*
X142656794Y-56784079D01*
X142663333Y-56819448D01*
X143534866Y-56819448D01*
X143471013Y-56596183D01*
X143353881Y-56188956D01*
X143237313Y-55785981D01*
X143123765Y-55395803D01*
X143015697Y-55026964D01*
X142915565Y-54688011D01*
X142825829Y-54387486D01*
X142748944Y-54133934D01*
X142687370Y-53935900D01*
X142643564Y-53801926D01*
X142619985Y-53740558D01*
X142619504Y-53739746D01*
X142521078Y-53626234D01*
X142398156Y-53538173D01*
X142391685Y-53535006D01*
X142215595Y-53483129D01*
X142013209Y-53469991D01*
X141823619Y-53495920D01*
G36*
X137287000Y-54271333D02*
X138472333Y-54271333D01*
X138472333Y-59097333D01*
X139319000Y-59097333D01*
X139319000Y-54326344D01*
X139706503Y-54298839D01*
X139908782Y-54286137D01*
X140106045Y-54276540D01*
X140263889Y-54271646D01*
X140299170Y-54271333D01*
X140504333Y-54271333D01*
X140504333Y-53467000D01*
X137287000Y-53467000D01*
X137287000Y-54271333D01*
X137287000Y-54271333D01*
G37*
X137287000Y-54271333D02*
X138472333Y-54271333D01*
X138472333Y-59097333D01*
X139319000Y-59097333D01*
X139319000Y-54326344D01*
X139706503Y-54298839D01*
X139908782Y-54286137D01*
X140106045Y-54276540D01*
X140263889Y-54271646D01*
X140299170Y-54271333D01*
X140504333Y-54271333D01*
X140504333Y-53467000D01*
X137287000Y-53467000D01*
X137287000Y-54271333D01*
G36*
X135579875Y-53488719D02*
X135412869Y-53560005D01*
X135280414Y-53690366D01*
X135171973Y-53889154D01*
X135103362Y-54078283D01*
X135075400Y-54170875D01*
X135028556Y-54330930D01*
X134965254Y-54549874D01*
X134887921Y-54819133D01*
X134798981Y-55130136D01*
X134700861Y-55474307D01*
X134595985Y-55843075D01*
X134486780Y-56227866D01*
X134375670Y-56620106D01*
X134265082Y-57011223D01*
X134157440Y-57392643D01*
X134055171Y-57755793D01*
X133960699Y-58092100D01*
X133876450Y-58392990D01*
X133804850Y-58649891D01*
X133748325Y-58854228D01*
X133709299Y-58997430D01*
X133690198Y-59070922D01*
X133688666Y-59078701D01*
X133728002Y-59086603D01*
X133834152Y-59090783D01*
X133989327Y-59090845D01*
X134117445Y-59088230D01*
X134546224Y-59076166D01*
X134733080Y-58399148D01*
X134797389Y-58171140D01*
X134856216Y-57971816D01*
X134905121Y-57815518D01*
X134939662Y-57716587D01*
X134952942Y-57689124D01*
X135003688Y-57679478D01*
X135125524Y-57672131D01*
X135304898Y-57667425D01*
X135528256Y-57665699D01*
X135782046Y-57667295D01*
X135808034Y-57667642D01*
X136630120Y-57679166D01*
X136749766Y-58102500D01*
X136811613Y-58320491D01*
X136875899Y-58545716D01*
X136932283Y-58741993D01*
X136952425Y-58811583D01*
X137035437Y-59097333D01*
X137457552Y-59097333D01*
X137634982Y-59095387D01*
X137775651Y-59090140D01*
X137861614Y-59082481D01*
X137879666Y-59076451D01*
X137868536Y-59034127D01*
X137836732Y-58918776D01*
X137786633Y-58738840D01*
X137720617Y-58502758D01*
X137641066Y-58218973D01*
X137550356Y-57895925D01*
X137450869Y-57542055D01*
X137344982Y-57165803D01*
X137244302Y-56808367D01*
X136384397Y-56808367D01*
X136363652Y-56828583D01*
X136307762Y-56841726D01*
X136204628Y-56849290D01*
X136042153Y-56852771D01*
X135808237Y-56853662D01*
X135782490Y-56853666D01*
X135535276Y-56852291D01*
X135362132Y-56847503D01*
X135252493Y-56838306D01*
X135195798Y-56823705D01*
X135181482Y-56802704D01*
X135182952Y-56797176D01*
X135200279Y-56741524D01*
X135236873Y-56616749D01*
X135289167Y-56435260D01*
X135353597Y-56209463D01*
X135426598Y-55951767D01*
X135464994Y-55815559D01*
X135541623Y-55545974D01*
X135612512Y-55301634D01*
X135673905Y-55095086D01*
X135722045Y-54938881D01*
X135753175Y-54845565D01*
X135761085Y-54826592D01*
X135788124Y-54817565D01*
X135823709Y-54879229D01*
X135870848Y-55017283D01*
X135882578Y-55056793D01*
X135924659Y-55201386D01*
X135983803Y-55405035D01*
X136053544Y-55645464D01*
X136127420Y-55900398D01*
X136164416Y-56028166D01*
X136231392Y-56259503D01*
X136291217Y-56466079D01*
X136339443Y-56632538D01*
X136371621Y-56743526D01*
X136382096Y-56779583D01*
X136384397Y-56808367D01*
X137244302Y-56808367D01*
X137235075Y-56775612D01*
X137123528Y-56379922D01*
X137012719Y-55987173D01*
X136905028Y-55605808D01*
X136802833Y-55244266D01*
X136708515Y-54910989D01*
X136624451Y-54614418D01*
X136553022Y-54362993D01*
X136496607Y-54165156D01*
X136457584Y-54029348D01*
X136443283Y-53980389D01*
X136339152Y-53748930D01*
X136185505Y-53585045D01*
X135985055Y-53490870D01*
X135791967Y-53467158D01*
X135579875Y-53488719D01*
X135579875Y-53488719D01*
G37*
X135579875Y-53488719D02*
X135412869Y-53560005D01*
X135280414Y-53690366D01*
X135171973Y-53889154D01*
X135103362Y-54078283D01*
X135075400Y-54170875D01*
X135028556Y-54330930D01*
X134965254Y-54549874D01*
X134887921Y-54819133D01*
X134798981Y-55130136D01*
X134700861Y-55474307D01*
X134595985Y-55843075D01*
X134486780Y-56227866D01*
X134375670Y-56620106D01*
X134265082Y-57011223D01*
X134157440Y-57392643D01*
X134055171Y-57755793D01*
X133960699Y-58092100D01*
X133876450Y-58392990D01*
X133804850Y-58649891D01*
X133748325Y-58854228D01*
X133709299Y-58997430D01*
X133690198Y-59070922D01*
X133688666Y-59078701D01*
X133728002Y-59086603D01*
X133834152Y-59090783D01*
X133989327Y-59090845D01*
X134117445Y-59088230D01*
X134546224Y-59076166D01*
X134733080Y-58399148D01*
X134797389Y-58171140D01*
X134856216Y-57971816D01*
X134905121Y-57815518D01*
X134939662Y-57716587D01*
X134952942Y-57689124D01*
X135003688Y-57679478D01*
X135125524Y-57672131D01*
X135304898Y-57667425D01*
X135528256Y-57665699D01*
X135782046Y-57667295D01*
X135808034Y-57667642D01*
X136630120Y-57679166D01*
X136749766Y-58102500D01*
X136811613Y-58320491D01*
X136875899Y-58545716D01*
X136932283Y-58741993D01*
X136952425Y-58811583D01*
X137035437Y-59097333D01*
X137457552Y-59097333D01*
X137634982Y-59095387D01*
X137775651Y-59090140D01*
X137861614Y-59082481D01*
X137879666Y-59076451D01*
X137868536Y-59034127D01*
X137836732Y-58918776D01*
X137786633Y-58738840D01*
X137720617Y-58502758D01*
X137641066Y-58218973D01*
X137550356Y-57895925D01*
X137450869Y-57542055D01*
X137344982Y-57165803D01*
X137244302Y-56808367D01*
X136384397Y-56808367D01*
X136363652Y-56828583D01*
X136307762Y-56841726D01*
X136204628Y-56849290D01*
X136042153Y-56852771D01*
X135808237Y-56853662D01*
X135782490Y-56853666D01*
X135535276Y-56852291D01*
X135362132Y-56847503D01*
X135252493Y-56838306D01*
X135195798Y-56823705D01*
X135181482Y-56802704D01*
X135182952Y-56797176D01*
X135200279Y-56741524D01*
X135236873Y-56616749D01*
X135289167Y-56435260D01*
X135353597Y-56209463D01*
X135426598Y-55951767D01*
X135464994Y-55815559D01*
X135541623Y-55545974D01*
X135612512Y-55301634D01*
X135673905Y-55095086D01*
X135722045Y-54938881D01*
X135753175Y-54845565D01*
X135761085Y-54826592D01*
X135788124Y-54817565D01*
X135823709Y-54879229D01*
X135870848Y-55017283D01*
X135882578Y-55056793D01*
X135924659Y-55201386D01*
X135983803Y-55405035D01*
X136053544Y-55645464D01*
X136127420Y-55900398D01*
X136164416Y-56028166D01*
X136231392Y-56259503D01*
X136291217Y-56466079D01*
X136339443Y-56632538D01*
X136371621Y-56743526D01*
X136382096Y-56779583D01*
X136384397Y-56808367D01*
X137244302Y-56808367D01*
X137235075Y-56775612D01*
X137123528Y-56379922D01*
X137012719Y-55987173D01*
X136905028Y-55605808D01*
X136802833Y-55244266D01*
X136708515Y-54910989D01*
X136624451Y-54614418D01*
X136553022Y-54362993D01*
X136496607Y-54165156D01*
X136457584Y-54029348D01*
X136443283Y-53980389D01*
X136339152Y-53748930D01*
X136185505Y-53585045D01*
X135985055Y-53490870D01*
X135791967Y-53467158D01*
X135579875Y-53488719D01*
G36*
X150102314Y-52588418D02*
X150143340Y-52641485D01*
X150182195Y-52677133D01*
X150275101Y-52798776D01*
X150299499Y-52927708D01*
X150267229Y-53048257D01*
X150190134Y-53144752D01*
X150080056Y-53201521D01*
X149948836Y-53202891D01*
X149827086Y-53147099D01*
X149750055Y-53047157D01*
X149726470Y-52914700D01*
X149755428Y-52782132D01*
X149836022Y-52681855D01*
X149840154Y-52679074D01*
X149908399Y-52623683D01*
X149925238Y-52586861D01*
X149924654Y-52586209D01*
X149882393Y-52596589D01*
X149808466Y-52651708D01*
X149796333Y-52662823D01*
X149708395Y-52794635D01*
X149686681Y-52944715D01*
X149730882Y-53086482D01*
X149802209Y-53167594D01*
X149949642Y-53244115D01*
X150094131Y-53236442D01*
X150211622Y-53169562D01*
X150296284Y-53085612D01*
X150345409Y-53005820D01*
X150346530Y-52891552D01*
X150301800Y-52759906D01*
X150226542Y-52652035D01*
X150207586Y-52635712D01*
X150125491Y-52583619D01*
X150102314Y-52588418D01*
X150102314Y-52588418D01*
G37*
X150102314Y-52588418D02*
X150143340Y-52641485D01*
X150182195Y-52677133D01*
X150275101Y-52798776D01*
X150299499Y-52927708D01*
X150267229Y-53048257D01*
X150190134Y-53144752D01*
X150080056Y-53201521D01*
X149948836Y-53202891D01*
X149827086Y-53147099D01*
X149750055Y-53047157D01*
X149726470Y-52914700D01*
X149755428Y-52782132D01*
X149836022Y-52681855D01*
X149840154Y-52679074D01*
X149908399Y-52623683D01*
X149925238Y-52586861D01*
X149924654Y-52586209D01*
X149882393Y-52596589D01*
X149808466Y-52651708D01*
X149796333Y-52662823D01*
X149708395Y-52794635D01*
X149686681Y-52944715D01*
X149730882Y-53086482D01*
X149802209Y-53167594D01*
X149949642Y-53244115D01*
X150094131Y-53236442D01*
X150211622Y-53169562D01*
X150296284Y-53085612D01*
X150345409Y-53005820D01*
X150346530Y-52891552D01*
X150301800Y-52759906D01*
X150226542Y-52652035D01*
X150207586Y-52635712D01*
X150125491Y-52583619D01*
X150102314Y-52588418D01*
G36*
X149916760Y-52737336D02*
X149882551Y-52786727D01*
X149867695Y-52890495D01*
X149869809Y-53007791D01*
X149892076Y-53090174D01*
X149899445Y-53100045D01*
X149934616Y-53112291D01*
X149944666Y-53052133D01*
X149954735Y-52975988D01*
X149991008Y-52970657D01*
X150062584Y-53036285D01*
X150078689Y-53054250D01*
X150126465Y-53101682D01*
X150132335Y-53091986D01*
X150129385Y-53086052D01*
X150105976Y-53001526D01*
X150094546Y-52882594D01*
X150094410Y-52874385D01*
X150093077Y-52859718D01*
X150055705Y-52859718D01*
X150009359Y-52911566D01*
X149984501Y-52916666D01*
X149952129Y-52881187D01*
X149944666Y-52832000D01*
X149967005Y-52759964D01*
X150016709Y-52754298D01*
X150050500Y-52789666D01*
X150055705Y-52859718D01*
X150093077Y-52859718D01*
X150085290Y-52774072D01*
X150048852Y-52733035D01*
X149987000Y-52726166D01*
X149916760Y-52737336D01*
X149916760Y-52737336D01*
G37*
X149916760Y-52737336D02*
X149882551Y-52786727D01*
X149867695Y-52890495D01*
X149869809Y-53007791D01*
X149892076Y-53090174D01*
X149899445Y-53100045D01*
X149934616Y-53112291D01*
X149944666Y-53052133D01*
X149954735Y-52975988D01*
X149991008Y-52970657D01*
X150062584Y-53036285D01*
X150078689Y-53054250D01*
X150126465Y-53101682D01*
X150132335Y-53091986D01*
X150129385Y-53086052D01*
X150105976Y-53001526D01*
X150094546Y-52882594D01*
X150094410Y-52874385D01*
X150093077Y-52859718D01*
X150055705Y-52859718D01*
X150009359Y-52911566D01*
X149984501Y-52916666D01*
X149952129Y-52881187D01*
X149944666Y-52832000D01*
X149967005Y-52759964D01*
X150016709Y-52754298D01*
X150050500Y-52789666D01*
X150055705Y-52859718D01*
X150093077Y-52859718D01*
X150085290Y-52774072D01*
X150048852Y-52733035D01*
X149987000Y-52726166D01*
X149916760Y-52737336D01*
G36*
X143014342Y-41962916D02*
X143025806Y-42769192D01*
X143042182Y-43497519D01*
X143064351Y-44154516D01*
X143093195Y-44746805D01*
X143129596Y-45281006D01*
X143174435Y-45763740D01*
X143228593Y-46201628D01*
X143292953Y-46601291D01*
X143368396Y-46969349D01*
X143455803Y-47312424D01*
X143556055Y-47637135D01*
X143670035Y-47950104D01*
X143798625Y-48257952D01*
X143874782Y-48425107D01*
X144120836Y-48893348D01*
X144407798Y-49326266D01*
X144751081Y-49745496D01*
X145011802Y-50020986D01*
X145614281Y-50572869D01*
X146256832Y-51057673D01*
X146932919Y-51471573D01*
X147636010Y-51810741D01*
X148359570Y-52071352D01*
X148651348Y-52152258D01*
X148966675Y-52229129D01*
X149205365Y-52279970D01*
X149371141Y-52305412D01*
X149467725Y-52306088D01*
X149493652Y-52295236D01*
X149501766Y-52246551D01*
X149508941Y-52125852D01*
X149514806Y-51945786D01*
X149518994Y-51719004D01*
X149521133Y-51458155D01*
X149521333Y-51347527D01*
X149521333Y-50427498D01*
X149193250Y-50354659D01*
X148576033Y-50184149D01*
X148000893Y-49953681D01*
X147457659Y-49657489D01*
X146936162Y-49289807D01*
X146426232Y-48844866D01*
X146282833Y-48704344D01*
X145864128Y-48262008D01*
X145512938Y-47838095D01*
X145219732Y-47415927D01*
X144974977Y-46978826D01*
X144769141Y-46510115D01*
X144592691Y-45993115D01*
X144462913Y-45520117D01*
X144314709Y-44847731D01*
X144188675Y-44106858D01*
X144086241Y-43311100D01*
X144008834Y-42474055D01*
X143957883Y-41609326D01*
X143934818Y-40730512D01*
X143933551Y-40481250D01*
X143933333Y-39835666D01*
X142990993Y-39835666D01*
X143014342Y-41962916D01*
X143014342Y-41962916D01*
G37*
X143014342Y-41962916D02*
X143025806Y-42769192D01*
X143042182Y-43497519D01*
X143064351Y-44154516D01*
X143093195Y-44746805D01*
X143129596Y-45281006D01*
X143174435Y-45763740D01*
X143228593Y-46201628D01*
X143292953Y-46601291D01*
X143368396Y-46969349D01*
X143455803Y-47312424D01*
X143556055Y-47637135D01*
X143670035Y-47950104D01*
X143798625Y-48257952D01*
X143874782Y-48425107D01*
X144120836Y-48893348D01*
X144407798Y-49326266D01*
X144751081Y-49745496D01*
X145011802Y-50020986D01*
X145614281Y-50572869D01*
X146256832Y-51057673D01*
X146932919Y-51471573D01*
X147636010Y-51810741D01*
X148359570Y-52071352D01*
X148651348Y-52152258D01*
X148966675Y-52229129D01*
X149205365Y-52279970D01*
X149371141Y-52305412D01*
X149467725Y-52306088D01*
X149493652Y-52295236D01*
X149501766Y-52246551D01*
X149508941Y-52125852D01*
X149514806Y-51945786D01*
X149518994Y-51719004D01*
X149521133Y-51458155D01*
X149521333Y-51347527D01*
X149521333Y-50427498D01*
X149193250Y-50354659D01*
X148576033Y-50184149D01*
X148000893Y-49953681D01*
X147457659Y-49657489D01*
X146936162Y-49289807D01*
X146426232Y-48844866D01*
X146282833Y-48704344D01*
X145864128Y-48262008D01*
X145512938Y-47838095D01*
X145219732Y-47415927D01*
X144974977Y-46978826D01*
X144769141Y-46510115D01*
X144592691Y-45993115D01*
X144462913Y-45520117D01*
X144314709Y-44847731D01*
X144188675Y-44106858D01*
X144086241Y-43311100D01*
X144008834Y-42474055D01*
X143957883Y-41609326D01*
X143934818Y-40730512D01*
X143933551Y-40481250D01*
X143933333Y-39835666D01*
X142990993Y-39835666D01*
X143014342Y-41962916D01*
G36*
X140800666Y-52324000D02*
X142621000Y-52324000D01*
X142621000Y-39835666D01*
X140800666Y-39835666D01*
X140800666Y-52324000D01*
X140800666Y-52324000D01*
G37*
X140800666Y-52324000D02*
X142621000Y-52324000D01*
X142621000Y-39835666D01*
X140800666Y-39835666D01*
X140800666Y-52324000D01*
G36*
X139472570Y-40819916D02*
X139432028Y-41815439D01*
X139371290Y-42731450D01*
X139289863Y-43570780D01*
X139187257Y-44336260D01*
X139062981Y-45030719D01*
X138916544Y-45656989D01*
X138747456Y-46217899D01*
X138555224Y-46716279D01*
X138389733Y-47061850D01*
X138136636Y-47486672D01*
X137821575Y-47925621D01*
X137460769Y-48360338D01*
X137070440Y-48772463D01*
X136666808Y-49143637D01*
X136289475Y-49438998D01*
X135794486Y-49749611D01*
X135250568Y-50017758D01*
X134685237Y-50231435D01*
X134143750Y-50375036D01*
X133900333Y-50425002D01*
X133900333Y-51374501D01*
X133900760Y-51682217D01*
X133902572Y-51915423D01*
X133906565Y-52084274D01*
X133913534Y-52198927D01*
X133924276Y-52269535D01*
X133939585Y-52306254D01*
X133960257Y-52319239D01*
X133974416Y-52319932D01*
X134047802Y-52309769D01*
X134180173Y-52286127D01*
X134347746Y-52253349D01*
X134419094Y-52238697D01*
X135135477Y-52047903D01*
X135844033Y-51777650D01*
X136535381Y-51433130D01*
X137200143Y-51019538D01*
X137828939Y-50542066D01*
X138363855Y-50054567D01*
X138733945Y-49658676D01*
X139042668Y-49262981D01*
X139309056Y-48841143D01*
X139491158Y-48494544D01*
X139629269Y-48199182D01*
X139752542Y-47905554D01*
X139861872Y-47607188D01*
X139958150Y-47297611D01*
X140042270Y-46970350D01*
X140115125Y-46618931D01*
X140177607Y-46236881D01*
X140230609Y-45817728D01*
X140275025Y-45354998D01*
X140311747Y-44842218D01*
X140341669Y-44272915D01*
X140365682Y-43640617D01*
X140384681Y-42938849D01*
X140399557Y-42161140D01*
X140403835Y-41878250D01*
X140432961Y-39835666D01*
X139501642Y-39835666D01*
X139472570Y-40819916D01*
X139472570Y-40819916D01*
G37*
X139472570Y-40819916D02*
X139432028Y-41815439D01*
X139371290Y-42731450D01*
X139289863Y-43570780D01*
X139187257Y-44336260D01*
X139062981Y-45030719D01*
X138916544Y-45656989D01*
X138747456Y-46217899D01*
X138555224Y-46716279D01*
X138389733Y-47061850D01*
X138136636Y-47486672D01*
X137821575Y-47925621D01*
X137460769Y-48360338D01*
X137070440Y-48772463D01*
X136666808Y-49143637D01*
X136289475Y-49438998D01*
X135794486Y-49749611D01*
X135250568Y-50017758D01*
X134685237Y-50231435D01*
X134143750Y-50375036D01*
X133900333Y-50425002D01*
X133900333Y-51374501D01*
X133900760Y-51682217D01*
X133902572Y-51915423D01*
X133906565Y-52084274D01*
X133913534Y-52198927D01*
X133924276Y-52269535D01*
X133939585Y-52306254D01*
X133960257Y-52319239D01*
X133974416Y-52319932D01*
X134047802Y-52309769D01*
X134180173Y-52286127D01*
X134347746Y-52253349D01*
X134419094Y-52238697D01*
X135135477Y-52047903D01*
X135844033Y-51777650D01*
X136535381Y-51433130D01*
X137200143Y-51019538D01*
X137828939Y-50542066D01*
X138363855Y-50054567D01*
X138733945Y-49658676D01*
X139042668Y-49262981D01*
X139309056Y-48841143D01*
X139491158Y-48494544D01*
X139629269Y-48199182D01*
X139752542Y-47905554D01*
X139861872Y-47607188D01*
X139958150Y-47297611D01*
X140042270Y-46970350D01*
X140115125Y-46618931D01*
X140177607Y-46236881D01*
X140230609Y-45817728D01*
X140275025Y-45354998D01*
X140311747Y-44842218D01*
X140341669Y-44272915D01*
X140365682Y-43640617D01*
X140384681Y-42938849D01*
X140399557Y-42161140D01*
X140403835Y-41878250D01*
X140432961Y-39835666D01*
X139501642Y-39835666D01*
X139472570Y-40819916D01*
G36*
X145605500Y-66700671D02*
X145302950Y-66735559D01*
X145148888Y-66793440D01*
X145118667Y-66852169D01*
X145043439Y-66941883D01*
X144814407Y-66971333D01*
X144591547Y-66996621D01*
X144484835Y-67087924D01*
X144465866Y-67140666D01*
X144444651Y-67195471D01*
X144399384Y-67236975D01*
X144308941Y-67267024D01*
X144152194Y-67287462D01*
X143908018Y-67300133D01*
X143555287Y-67306883D01*
X143072875Y-67309556D01*
X142526459Y-67310000D01*
X141913558Y-67310546D01*
X141449356Y-67313416D01*
X141113220Y-67320452D01*
X140884515Y-67333499D01*
X140742609Y-67354399D01*
X140666867Y-67384996D01*
X140636655Y-67427135D01*
X140631334Y-67479333D01*
X140598186Y-67596041D01*
X140468778Y-67643131D01*
X140335000Y-67648666D01*
X140111122Y-67678671D01*
X140038667Y-67769961D01*
X139966874Y-67892931D01*
X139796275Y-67958055D01*
X139594043Y-67941033D01*
X139579877Y-67935923D01*
X139449945Y-67942247D01*
X139388742Y-68061003D01*
X139310621Y-68191235D01*
X139136658Y-68238965D01*
X139055126Y-68241333D01*
X138855060Y-68261734D01*
X138776444Y-68340606D01*
X138768667Y-68410666D01*
X138740267Y-68521450D01*
X138625478Y-68570412D01*
X138430000Y-68580000D01*
X138208432Y-68594200D01*
X138110508Y-68651594D01*
X138091334Y-68749333D01*
X138057342Y-68867011D01*
X137925437Y-68913722D01*
X137801209Y-68918666D01*
X137577618Y-68950123D01*
X137485535Y-69052724D01*
X137483389Y-69062471D01*
X137397665Y-69171051D01*
X137179993Y-69210200D01*
X137159681Y-69210637D01*
X136863667Y-69215000D01*
X136839323Y-69998166D01*
X136814979Y-70781333D01*
X137122416Y-70781333D01*
X137346278Y-70805970D01*
X137453854Y-70895245D01*
X137474135Y-70950666D01*
X137556371Y-71074588D01*
X137743891Y-71118679D01*
X137804875Y-71120000D01*
X138004941Y-71140400D01*
X138083557Y-71219273D01*
X138091334Y-71289333D01*
X138058186Y-71406041D01*
X137928778Y-71453131D01*
X137795000Y-71458666D01*
X137590761Y-71439724D01*
X137508354Y-71365777D01*
X137498667Y-71289333D01*
X137470843Y-71179330D01*
X137357889Y-71130171D01*
X137153792Y-71120000D01*
X136932570Y-71132933D01*
X136841287Y-71183652D01*
X136836997Y-71268166D01*
X136927209Y-71383904D01*
X137156067Y-71440262D01*
X137181871Y-71442610D01*
X137410542Y-71490669D01*
X137498410Y-71579190D01*
X137498667Y-71585072D01*
X137571270Y-71700377D01*
X137741212Y-71775265D01*
X137929371Y-71779089D01*
X138036335Y-71826936D01*
X138071347Y-71903166D01*
X138060743Y-72003729D01*
X137943919Y-72045675D01*
X137801209Y-72051333D01*
X137571504Y-72020873D01*
X137498667Y-71933391D01*
X137429517Y-71812270D01*
X137264612Y-71750046D01*
X137067770Y-71748960D01*
X136902809Y-71811251D01*
X136836292Y-71910149D01*
X136851959Y-72002297D01*
X136971028Y-72043737D01*
X137153792Y-72051333D01*
X137377831Y-72064995D01*
X137477952Y-72120455D01*
X137498667Y-72220666D01*
X137470843Y-72330669D01*
X137357889Y-72379828D01*
X137153792Y-72390000D01*
X136932570Y-72402933D01*
X136841287Y-72453652D01*
X136836997Y-72538166D01*
X136927209Y-72653904D01*
X137156067Y-72710262D01*
X137181871Y-72712610D01*
X137391510Y-72716678D01*
X137481470Y-72667059D01*
X137498667Y-72564444D01*
X137529957Y-72444648D01*
X137654450Y-72396138D01*
X137795000Y-72390000D01*
X137999240Y-72408941D01*
X138081647Y-72482888D01*
X138091334Y-72559333D01*
X138058186Y-72676041D01*
X137928778Y-72723131D01*
X137795000Y-72728666D01*
X137575827Y-72756206D01*
X137499203Y-72844100D01*
X137498667Y-72855666D01*
X137425450Y-72958040D01*
X137293925Y-72982666D01*
X137008439Y-73018785D01*
X136847840Y-73119697D01*
X136821334Y-73203391D01*
X136890918Y-73288126D01*
X137108219Y-73320669D01*
X137160000Y-73321333D01*
X137400004Y-73298464D01*
X137495248Y-73225346D01*
X137498667Y-73200038D01*
X137570475Y-73077400D01*
X137740368Y-73011516D01*
X137940051Y-73027658D01*
X137952406Y-73032138D01*
X138087668Y-73128876D01*
X138077407Y-73231481D01*
X137940506Y-73305262D01*
X137795000Y-73321333D01*
X137590761Y-73340275D01*
X137508354Y-73414222D01*
X137498667Y-73490666D01*
X137470267Y-73601450D01*
X137355478Y-73650412D01*
X137160000Y-73660000D01*
X136821334Y-73660000D01*
X136821334Y-74125666D01*
X136828684Y-74394774D01*
X136860462Y-74534964D01*
X136931260Y-74586366D01*
X136990667Y-74591333D01*
X137132171Y-74651201D01*
X137160000Y-74760666D01*
X137219869Y-74902170D01*
X137329334Y-74930000D01*
X137470838Y-74989868D01*
X137498667Y-75099333D01*
X137547803Y-75236650D01*
X137616609Y-75268666D01*
X137747314Y-75336961D01*
X137783285Y-75395666D01*
X137769519Y-75500081D01*
X137665343Y-75522666D01*
X137529538Y-75469098D01*
X137498667Y-75395666D01*
X137442744Y-75307359D01*
X137257365Y-75270971D01*
X137160000Y-75268666D01*
X136916687Y-75292899D01*
X136823239Y-75368575D01*
X136821334Y-75386608D01*
X136744873Y-75518547D01*
X136540771Y-75595495D01*
X136391076Y-75607333D01*
X136257611Y-75659981D01*
X136228667Y-75729222D01*
X136148193Y-75826576D01*
X135912690Y-75877262D01*
X135911167Y-75877389D01*
X135593667Y-75903666D01*
X135569728Y-76856166D01*
X135545788Y-77808666D01*
X135887228Y-77808666D01*
X136131561Y-77832507D01*
X136226426Y-77907128D01*
X136228667Y-77926608D01*
X136299147Y-78056967D01*
X136465584Y-78114315D01*
X136614718Y-78091346D01*
X136740278Y-78111082D01*
X136793926Y-78221003D01*
X136869775Y-78349578D01*
X137038797Y-78398172D01*
X137135468Y-78401333D01*
X137355247Y-78428815D01*
X137459251Y-78526881D01*
X137474135Y-78570666D01*
X137559725Y-78696737D01*
X137754133Y-78739361D01*
X137795001Y-78740000D01*
X138009345Y-78772216D01*
X138108307Y-78884415D01*
X138115866Y-78909333D01*
X138205167Y-79047398D01*
X138327422Y-79071626D01*
X138417405Y-78983078D01*
X138430000Y-78904222D01*
X138454669Y-78790098D01*
X138559898Y-78749687D01*
X138740956Y-78756055D01*
X138962659Y-78806306D01*
X139080667Y-78892602D01*
X139074751Y-78985899D01*
X138946921Y-79051801D01*
X138878158Y-79077675D01*
X138829802Y-79130883D01*
X138798272Y-79237695D01*
X138779982Y-79424381D01*
X138771350Y-79717209D01*
X138768792Y-80142449D01*
X138768667Y-80358541D01*
X138768667Y-81618666D01*
X139055126Y-81618666D01*
X139276291Y-81650139D01*
X139376902Y-81757201D01*
X139383282Y-81778117D01*
X139454881Y-81888663D01*
X139619133Y-81912806D01*
X139697602Y-81905826D01*
X139899262Y-81906305D01*
X139994777Y-81986590D01*
X140014320Y-82042708D01*
X140096879Y-82166234D01*
X140285390Y-82210076D01*
X140344875Y-82211333D01*
X140544941Y-82231734D01*
X140623557Y-82310606D01*
X140631334Y-82380666D01*
X140659734Y-82491450D01*
X140774523Y-82540412D01*
X140970000Y-82550000D01*
X141191569Y-82564200D01*
X141289493Y-82621594D01*
X141308667Y-82719333D01*
X141343179Y-82837597D01*
X141476606Y-82884069D01*
X141595126Y-82888666D01*
X141810357Y-82916997D01*
X141912587Y-83019442D01*
X141927661Y-83064862D01*
X142028216Y-83205119D01*
X142170369Y-83224824D01*
X142421664Y-83216781D01*
X142545089Y-83254835D01*
X142578651Y-83351040D01*
X142578667Y-83354333D01*
X142642927Y-83448264D01*
X142848012Y-83481103D01*
X142875000Y-83481333D01*
X143079240Y-83500275D01*
X143161647Y-83574222D01*
X143171334Y-83650666D01*
X143199734Y-83761450D01*
X143314523Y-83810412D01*
X143510000Y-83820000D01*
X143731569Y-83834200D01*
X143829493Y-83891594D01*
X143848667Y-83989333D01*
X143901607Y-84127237D01*
X143975667Y-84158666D01*
X144083313Y-84087706D01*
X144113250Y-83989333D01*
X144127877Y-83766119D01*
X144134417Y-83671833D01*
X144096070Y-83564490D01*
X143938050Y-83509517D01*
X143836174Y-83497906D01*
X143604405Y-83448590D01*
X143494406Y-83335580D01*
X143481343Y-83296223D01*
X143400597Y-83167049D01*
X143252836Y-83168026D01*
X143018223Y-83183735D01*
X142866406Y-83105234D01*
X142832667Y-83006608D01*
X142754063Y-82916610D01*
X142536334Y-82888666D01*
X142332095Y-82869724D01*
X142249687Y-82795777D01*
X142240000Y-82719333D01*
X142205489Y-82601069D01*
X142072061Y-82554597D01*
X141953542Y-82550000D01*
X141736202Y-82520544D01*
X141634409Y-82416511D01*
X141622802Y-82380666D01*
X141543046Y-82258381D01*
X141360771Y-82213308D01*
X141284135Y-82211333D01*
X141062980Y-82183147D01*
X140959230Y-82084009D01*
X140946509Y-82045980D01*
X140866581Y-81925724D01*
X140691606Y-81919016D01*
X140688048Y-81919654D01*
X140512943Y-81927055D01*
X140433241Y-81894507D01*
X140417149Y-81792564D01*
X140400476Y-81565914D01*
X140384880Y-81259168D01*
X140372019Y-80916936D01*
X140363553Y-80583832D01*
X140361139Y-80304465D01*
X140366435Y-80123446D01*
X140367116Y-80115833D01*
X140444954Y-80019589D01*
X140494459Y-80010000D01*
X140608183Y-79939064D01*
X140655866Y-79840666D01*
X140732776Y-79720315D01*
X140908887Y-79674214D01*
X141004407Y-79671333D01*
X141226700Y-79645252D01*
X141307484Y-79561311D01*
X141308667Y-79544333D01*
X141329594Y-79463215D01*
X141420486Y-79417457D01*
X141623510Y-79390957D01*
X141730870Y-79383118D01*
X141852042Y-79304740D01*
X141885245Y-79226681D01*
X141963144Y-79118267D01*
X142162402Y-79079453D01*
X142211802Y-79078666D01*
X142432719Y-79052031D01*
X142449986Y-79036333D01*
X140631334Y-79036333D01*
X140594477Y-79241980D01*
X140507209Y-79338477D01*
X140404486Y-79305026D01*
X140346716Y-79205666D01*
X140233565Y-79093036D01*
X140168324Y-79078666D01*
X140061956Y-79007927D01*
X140038667Y-78909333D01*
X140071815Y-78792625D01*
X140201223Y-78745535D01*
X140335000Y-78740000D01*
X140533612Y-78753106D01*
X140615065Y-78827052D01*
X140631297Y-79013777D01*
X140631334Y-79036333D01*
X142449986Y-79036333D01*
X142537734Y-78956559D01*
X142554135Y-78909333D01*
X142639725Y-78783262D01*
X142834133Y-78740638D01*
X142875000Y-78740000D01*
X143089345Y-78707783D01*
X143188307Y-78595584D01*
X143195866Y-78570666D01*
X143275622Y-78448381D01*
X143457896Y-78403308D01*
X143534533Y-78401333D01*
X143752720Y-78374671D01*
X143856944Y-78277811D01*
X143874564Y-78226781D01*
X143955997Y-78093458D01*
X144032605Y-78067479D01*
X144295430Y-78069359D01*
X144428209Y-77990938D01*
X144441334Y-77935666D01*
X144503816Y-77842880D01*
X144704919Y-77809160D01*
X144745594Y-77808666D01*
X144968454Y-77783378D01*
X145075166Y-77692075D01*
X145094135Y-77639333D01*
X145179725Y-77513262D01*
X145374133Y-77470638D01*
X145415001Y-77470000D01*
X145629345Y-77437783D01*
X145728307Y-77325584D01*
X145735866Y-77300666D01*
X145812776Y-77180315D01*
X145988887Y-77134214D01*
X146084407Y-77131333D01*
X146306700Y-77105252D01*
X146387484Y-77021311D01*
X146388667Y-77004333D01*
X146462395Y-76893916D01*
X146672875Y-76861638D01*
X146797396Y-76872520D01*
X146905437Y-76814857D01*
X146955437Y-76713218D01*
X147033152Y-76587981D01*
X147208743Y-76541201D01*
X147295468Y-76538666D01*
X147515247Y-76511184D01*
X147619251Y-76413118D01*
X147634135Y-76369333D01*
X147637604Y-76364222D01*
X146050000Y-76364222D01*
X146011020Y-76479821D01*
X145866726Y-76538344D01*
X145732500Y-76554722D01*
X145530224Y-76594202D01*
X145434298Y-76659395D01*
X145432743Y-76676559D01*
X145369794Y-76748127D01*
X145190931Y-76811046D01*
X145115243Y-76825727D01*
X144871821Y-76895213D01*
X144780339Y-76997859D01*
X144780000Y-77005333D01*
X144711893Y-77100331D01*
X144498503Y-77131324D01*
X144493542Y-77131333D01*
X144276202Y-77160788D01*
X144174409Y-77264821D01*
X144162802Y-77300666D01*
X144085892Y-77421017D01*
X143909781Y-77467118D01*
X143814260Y-77470000D01*
X143606709Y-77452116D01*
X143521312Y-77381791D01*
X143510000Y-77300666D01*
X143543548Y-77183496D01*
X143674141Y-77136584D01*
X143803355Y-77131333D01*
X144054325Y-77088969D01*
X144187878Y-76960983D01*
X144320384Y-76833878D01*
X144496158Y-76830002D01*
X144673565Y-76825747D01*
X144754976Y-76709726D01*
X144756509Y-76704019D01*
X144844140Y-76580166D01*
X145044456Y-76539055D01*
X145076334Y-76538666D01*
X145290679Y-76506449D01*
X145389641Y-76394251D01*
X145397199Y-76369333D01*
X145496599Y-76247645D01*
X145673187Y-76189694D01*
X145864885Y-76195966D01*
X146009614Y-76266946D01*
X146050000Y-76364222D01*
X147637604Y-76364222D01*
X147719725Y-76243262D01*
X147914133Y-76200638D01*
X147955000Y-76200000D01*
X148169345Y-76167783D01*
X148268307Y-76055584D01*
X148275866Y-76030666D01*
X148355622Y-75908381D01*
X148537896Y-75863308D01*
X148614533Y-75861333D01*
X148835688Y-75833147D01*
X148897433Y-75774146D01*
X145412601Y-75774146D01*
X145304451Y-75842501D01*
X145062223Y-75861333D01*
X144863965Y-75882412D01*
X144787001Y-75963551D01*
X144780000Y-76030666D01*
X144746079Y-76148264D01*
X144614380Y-76195008D01*
X144489373Y-76200000D01*
X144265615Y-76230865D01*
X144156512Y-76338460D01*
X144145000Y-76369333D01*
X144050115Y-76495391D01*
X143846962Y-76538074D01*
X143806836Y-76538666D01*
X143584517Y-76571947D01*
X143495383Y-76679131D01*
X143494889Y-76681605D01*
X143407568Y-76790162D01*
X143186211Y-76829431D01*
X143171181Y-76829772D01*
X142950139Y-76862730D01*
X142875178Y-76955419D01*
X142875000Y-76962000D01*
X142798178Y-77063309D01*
X142564175Y-77114711D01*
X142557500Y-77115277D01*
X142340244Y-77153420D01*
X142250186Y-77235508D01*
X142240000Y-77305777D01*
X142209734Y-77413595D01*
X142089884Y-77461149D01*
X141901334Y-77470000D01*
X141691983Y-77484006D01*
X141579351Y-77519018D01*
X141572693Y-77533500D01*
X141562703Y-77711205D01*
X141440043Y-77793805D01*
X141266334Y-77808666D01*
X141047161Y-77836206D01*
X140970536Y-77924100D01*
X140970000Y-77935666D01*
X140900100Y-78047979D01*
X140821834Y-78072432D01*
X140645316Y-78091619D01*
X140589000Y-78101870D01*
X140426926Y-78130689D01*
X140398500Y-78134437D01*
X140314053Y-78210655D01*
X140313834Y-78253166D01*
X140252684Y-78334350D01*
X140047242Y-78382502D01*
X140017500Y-78385277D01*
X139801445Y-78422591D01*
X139711321Y-78503462D01*
X139700000Y-78580888D01*
X139674491Y-78690986D01*
X139567255Y-78730284D01*
X139382500Y-78723944D01*
X139145121Y-78673568D01*
X139065034Y-78573339D01*
X139065000Y-78570666D01*
X139144245Y-78467756D01*
X139373827Y-78417906D01*
X139606751Y-78367910D01*
X139716500Y-78253926D01*
X139727962Y-78218887D01*
X139800830Y-78101699D01*
X139869334Y-78105000D01*
X139963519Y-78086795D01*
X140011907Y-77986518D01*
X140062938Y-77881731D01*
X140175187Y-77828148D01*
X140393872Y-77809757D01*
X140514209Y-77808666D01*
X140780449Y-77800674D01*
X140917818Y-77767068D01*
X140966412Y-77693401D01*
X140970000Y-77644444D01*
X140971723Y-77639333D01*
X140038667Y-77639333D01*
X140006534Y-77754844D01*
X139880174Y-77802371D01*
X139734407Y-77808666D01*
X139511547Y-77783378D01*
X139404835Y-77692075D01*
X139385866Y-77639333D01*
X139303253Y-77501774D01*
X139230165Y-77470000D01*
X139120658Y-77399131D01*
X139049324Y-77241551D01*
X139049064Y-77079801D01*
X139062821Y-77050193D01*
X139040567Y-76948977D01*
X138941286Y-76859736D01*
X138806701Y-76735635D01*
X138768667Y-76645300D01*
X138697983Y-76558765D01*
X138599334Y-76538666D01*
X138457830Y-76478798D01*
X138430000Y-76369333D01*
X138370132Y-76227829D01*
X138260667Y-76200000D01*
X138118094Y-76139278D01*
X138091334Y-76040541D01*
X138019823Y-75891556D01*
X137922000Y-75836801D01*
X137784585Y-75762215D01*
X137752667Y-75699926D01*
X137823503Y-75624726D01*
X137922000Y-75607333D01*
X138059905Y-75660272D01*
X138091334Y-75734333D01*
X138161920Y-75837761D01*
X138260667Y-75861333D01*
X138402171Y-75921201D01*
X138430000Y-76030666D01*
X138489869Y-76172170D01*
X138599334Y-76200000D01*
X138739843Y-76258804D01*
X138768667Y-76375541D01*
X138814074Y-76510338D01*
X138916834Y-76522575D01*
X138954436Y-76505798D01*
X138985295Y-76460896D01*
X139010196Y-76372211D01*
X139029923Y-76224086D01*
X139045261Y-76000864D01*
X139056995Y-75686887D01*
X139065910Y-75266498D01*
X139072789Y-74724040D01*
X139078418Y-74043856D01*
X139079746Y-73829333D01*
X138091334Y-73829333D01*
X138058186Y-73946041D01*
X137928778Y-73993131D01*
X137795000Y-73998666D01*
X137590761Y-73979724D01*
X137508354Y-73905777D01*
X137498667Y-73829333D01*
X137531815Y-73712625D01*
X137661223Y-73665535D01*
X137795000Y-73660000D01*
X137999240Y-73678941D01*
X138081647Y-73752888D01*
X138091334Y-73829333D01*
X139079746Y-73829333D01*
X139083581Y-73210288D01*
X139083678Y-73193200D01*
X139089113Y-72349311D01*
X139095390Y-71659547D01*
X139103185Y-71108702D01*
X139113175Y-70681568D01*
X139126039Y-70362937D01*
X139142452Y-70137602D01*
X139163091Y-69990356D01*
X139188635Y-69905991D01*
X139219759Y-69869299D01*
X139231845Y-69864958D01*
X139262725Y-69873302D01*
X139288344Y-69921904D01*
X139309180Y-70024763D01*
X139325712Y-70195880D01*
X139338418Y-70449254D01*
X139347778Y-70798886D01*
X139354268Y-71258775D01*
X139358369Y-71842922D01*
X139360557Y-72565326D01*
X139361313Y-73439988D01*
X139361334Y-73653791D01*
X139361334Y-77470000D01*
X139700000Y-77470000D01*
X139921569Y-77484200D01*
X140019493Y-77541594D01*
X140038667Y-77639333D01*
X140971723Y-77639333D01*
X141008981Y-77528844D01*
X141153275Y-77470321D01*
X141287500Y-77453944D01*
X141524880Y-77403568D01*
X141604967Y-77303339D01*
X141605000Y-77300666D01*
X141684245Y-77197756D01*
X141913827Y-77147906D01*
X142155129Y-77093009D01*
X142261742Y-76972027D01*
X142264060Y-76963807D01*
X142354716Y-76844530D01*
X142529805Y-76830095D01*
X142750223Y-76793100D01*
X142838718Y-76696694D01*
X142993050Y-76570123D01*
X143216646Y-76538666D01*
X143419632Y-76519301D01*
X143500904Y-76443919D01*
X143510000Y-76369333D01*
X143538401Y-76258549D01*
X143653190Y-76209587D01*
X143848667Y-76200000D01*
X144070235Y-76185799D01*
X144168160Y-76128405D01*
X144187334Y-76030666D01*
X144221845Y-75912402D01*
X144355273Y-75865930D01*
X144473792Y-75861333D01*
X144691132Y-75831877D01*
X144792925Y-75727845D01*
X144804533Y-75692000D01*
X144908258Y-75573109D01*
X145091464Y-75520073D01*
X145279645Y-75539225D01*
X145398293Y-75636895D01*
X145400108Y-75641389D01*
X145412601Y-75774146D01*
X148897433Y-75774146D01*
X148939438Y-75734009D01*
X148952158Y-75695980D01*
X149027358Y-75577997D01*
X149193557Y-75566985D01*
X149223187Y-75571933D01*
X149403242Y-75572997D01*
X149487616Y-75469546D01*
X149496029Y-75440953D01*
X149574585Y-75317005D01*
X149752982Y-75270957D01*
X149835468Y-75268666D01*
X150055247Y-75241184D01*
X150159251Y-75143118D01*
X150174135Y-75099333D01*
X150178386Y-75092926D01*
X146695002Y-75092926D01*
X146631011Y-75186531D01*
X146413911Y-75248316D01*
X146376174Y-75252093D01*
X146125258Y-75312629D01*
X146028927Y-75424773D01*
X145925654Y-75530301D01*
X145734158Y-75563546D01*
X145522883Y-75516489D01*
X145472844Y-75489919D01*
X145400428Y-75396314D01*
X145472152Y-75317414D01*
X145662887Y-75272670D01*
X145758664Y-75268666D01*
X145960050Y-75249543D01*
X146040570Y-75173829D01*
X146050000Y-75094222D01*
X146074137Y-74980873D01*
X146177612Y-74939874D01*
X146367500Y-74946055D01*
X146606844Y-75001451D01*
X146695002Y-75092926D01*
X150178386Y-75092926D01*
X150256371Y-74975411D01*
X150443891Y-74931320D01*
X150504875Y-74930000D01*
X150698213Y-74915751D01*
X150776522Y-74838153D01*
X150791331Y-74644928D01*
X150791334Y-74639372D01*
X150760321Y-74415322D01*
X150652504Y-74306292D01*
X150622758Y-74295240D01*
X150443720Y-74275704D01*
X150363059Y-74298053D01*
X150274239Y-74275464D01*
X150225427Y-74176518D01*
X150121895Y-74031006D01*
X150019459Y-73998666D01*
X149885201Y-73934185D01*
X149860000Y-73829333D01*
X149792865Y-73704924D01*
X149632833Y-73648789D01*
X149441969Y-73660927D01*
X149282336Y-73741339D01*
X149225000Y-73829333D01*
X149128665Y-73956238D01*
X148922710Y-73998274D01*
X148890503Y-73998666D01*
X148676007Y-74029069D01*
X148575521Y-74136875D01*
X148564584Y-74171380D01*
X148493476Y-74293672D01*
X148341847Y-74298901D01*
X148307666Y-74290948D01*
X148120870Y-74287147D01*
X148001312Y-74414567D01*
X147861125Y-74550481D01*
X147614139Y-74591333D01*
X147613355Y-74591333D01*
X147410369Y-74610698D01*
X147329097Y-74686080D01*
X147320000Y-74760666D01*
X147290870Y-74872420D01*
X147173770Y-74921123D01*
X146988825Y-74930000D01*
X146771866Y-74915301D01*
X146683970Y-74858882D01*
X146678923Y-74781833D01*
X146760664Y-74666618D01*
X146979160Y-74610320D01*
X147010098Y-74607389D01*
X147240980Y-74556317D01*
X147320000Y-74459222D01*
X147391004Y-74355705D01*
X147489334Y-74326750D01*
X147672172Y-74307892D01*
X147743334Y-74295000D01*
X147883336Y-74264660D01*
X147891500Y-74263249D01*
X147905219Y-74179218D01*
X147917210Y-73944147D01*
X147927198Y-73576322D01*
X147934909Y-73094030D01*
X147940066Y-72515559D01*
X147942396Y-71859194D01*
X147941624Y-71143222D01*
X147941514Y-71113791D01*
X146981334Y-71113791D01*
X146980557Y-71897639D01*
X146977755Y-72528197D01*
X146972222Y-73021505D01*
X146963252Y-73393603D01*
X146950139Y-73660529D01*
X146932177Y-73838323D01*
X146908659Y-73943024D01*
X146878881Y-73990670D01*
X146854334Y-73998666D01*
X146740751Y-73941664D01*
X146725474Y-73892833D01*
X146724339Y-73783627D01*
X146722054Y-73527584D01*
X146718808Y-73147196D01*
X146714790Y-72664953D01*
X146712626Y-72400742D01*
X145408932Y-72400742D01*
X145387787Y-72585476D01*
X145336453Y-72677298D01*
X145269944Y-72708856D01*
X145155614Y-72802436D01*
X145118735Y-73021168D01*
X145118667Y-73034874D01*
X145098266Y-73234940D01*
X145019394Y-73313556D01*
X144949334Y-73321333D01*
X144838550Y-73349733D01*
X144789588Y-73464522D01*
X144780000Y-73660000D01*
X144764830Y-73883202D01*
X144705925Y-73981394D01*
X144620542Y-73998666D01*
X144468587Y-74068034D01*
X144421462Y-74150180D01*
X144320510Y-74260292D01*
X144144624Y-74296074D01*
X143968340Y-74258954D01*
X143866198Y-74150363D01*
X143863626Y-74139484D01*
X143768667Y-74022700D01*
X143673126Y-73998666D01*
X143536077Y-73935815D01*
X143510000Y-73829333D01*
X143450132Y-73687829D01*
X143340667Y-73660000D01*
X143198094Y-73599278D01*
X143171334Y-73500541D01*
X143100639Y-73348607D01*
X143015716Y-73300388D01*
X142929537Y-73249865D01*
X142878269Y-73129112D01*
X142851083Y-72900213D01*
X142841693Y-72691146D01*
X142837398Y-72383871D01*
X142855856Y-72205583D01*
X142906687Y-72116442D01*
X142989483Y-72079138D01*
X143145883Y-71974575D01*
X143195459Y-71883557D01*
X143297739Y-71775845D01*
X143482247Y-71737083D01*
X143677680Y-71764795D01*
X143812734Y-71856503D01*
X143833039Y-71905712D01*
X143915288Y-72030174D01*
X143981875Y-72051333D01*
X144083407Y-72007596D01*
X144116159Y-71854998D01*
X144106035Y-71685242D01*
X144164141Y-71537401D01*
X144265618Y-71484867D01*
X144409355Y-71381323D01*
X144441334Y-71279458D01*
X144473555Y-71174365D01*
X144598660Y-71128132D01*
X144780000Y-71120000D01*
X145002533Y-71134785D01*
X145100629Y-71193073D01*
X145118667Y-71283125D01*
X145179993Y-71430571D01*
X145257032Y-71473625D01*
X145333711Y-71523111D01*
X145379427Y-71656732D01*
X145402619Y-71908599D01*
X145408309Y-72085148D01*
X145408932Y-72400742D01*
X146712626Y-72400742D01*
X146710190Y-72103346D01*
X146705195Y-71484866D01*
X146704307Y-71374000D01*
X146698606Y-70661374D01*
X142863649Y-70661374D01*
X142764285Y-70743325D01*
X142545180Y-70781171D01*
X142527275Y-70781333D01*
X142326863Y-70801607D01*
X142247930Y-70880053D01*
X142240000Y-70950666D01*
X142206079Y-71068264D01*
X142074380Y-71115008D01*
X141949373Y-71120000D01*
X141725615Y-71150865D01*
X141616512Y-71258460D01*
X141605000Y-71289333D01*
X141512460Y-71413997D01*
X141313932Y-71457668D01*
X141260628Y-71458666D01*
X141058794Y-71438902D01*
X140978567Y-71362168D01*
X140970000Y-71289333D01*
X140998053Y-71179018D01*
X141111737Y-71129936D01*
X141312379Y-71120000D01*
X141533225Y-71106573D01*
X141624474Y-71054333D01*
X141629879Y-70971833D01*
X141651450Y-70868072D01*
X141785671Y-70813933D01*
X141922500Y-70797389D01*
X142152601Y-70749067D01*
X142239796Y-70659549D01*
X142240000Y-70654219D01*
X142293138Y-70513185D01*
X142463475Y-70471202D01*
X142648398Y-70494712D01*
X142829582Y-70567706D01*
X142863649Y-70661374D01*
X146698606Y-70661374D01*
X146688218Y-69363166D01*
X145420736Y-69363166D01*
X145402264Y-69461153D01*
X145282666Y-69504103D01*
X145111176Y-69511333D01*
X144891819Y-69526720D01*
X144796449Y-69587330D01*
X144780000Y-69675555D01*
X144741020Y-69791155D01*
X144596726Y-69849678D01*
X144462500Y-69866055D01*
X144225121Y-69916431D01*
X144145034Y-70016660D01*
X144145000Y-70019333D01*
X144068178Y-70120643D01*
X143834175Y-70172044D01*
X143827500Y-70172610D01*
X143599034Y-70220390D01*
X143510318Y-70308100D01*
X143510000Y-70314569D01*
X143439858Y-70431124D01*
X143361834Y-70468970D01*
X143229526Y-70506419D01*
X143199425Y-70517511D01*
X143120757Y-70500510D01*
X143051259Y-70475941D01*
X142919188Y-70380241D01*
X142931703Y-70278225D01*
X143069126Y-70204698D01*
X143213667Y-70188666D01*
X143417906Y-70169724D01*
X143500314Y-70095777D01*
X143510000Y-70019333D01*
X143538401Y-69908549D01*
X143653190Y-69859587D01*
X143848667Y-69850000D01*
X144058018Y-69835993D01*
X144170650Y-69800981D01*
X144177308Y-69786500D01*
X144188222Y-69606972D01*
X144313869Y-69524680D01*
X144473792Y-69511333D01*
X144693722Y-69480509D01*
X144794772Y-69374440D01*
X144802707Y-69348981D01*
X144904552Y-69234530D01*
X145084913Y-69191236D01*
X145274145Y-69217501D01*
X145402602Y-69311726D01*
X145420736Y-69363166D01*
X146688218Y-69363166D01*
X146685000Y-68961000D01*
X146367500Y-68934722D01*
X146145149Y-68936205D01*
X146055472Y-68995957D01*
X146050000Y-69030680D01*
X145977777Y-69144045D01*
X145808788Y-69213028D01*
X145614551Y-69212050D01*
X145576168Y-69200150D01*
X145453761Y-69107616D01*
X145473050Y-69007406D01*
X145611896Y-68934630D01*
X145753667Y-68918666D01*
X145958769Y-68899140D01*
X146041143Y-68824397D01*
X146050000Y-68754444D01*
X146088981Y-68638844D01*
X146233275Y-68580321D01*
X146367500Y-68563944D01*
X146606140Y-68512834D01*
X146685000Y-68411826D01*
X146755386Y-68291291D01*
X146833167Y-68257451D01*
X146873014Y-68258689D01*
X146905023Y-68290330D01*
X146930046Y-68368814D01*
X146948938Y-68510579D01*
X146962550Y-68732065D01*
X146971735Y-69049713D01*
X146977346Y-69479961D01*
X146980235Y-70039250D01*
X146981257Y-70744018D01*
X146981334Y-71113791D01*
X147941514Y-71113791D01*
X147940978Y-70971832D01*
X147936800Y-70133411D01*
X147931674Y-69448897D01*
X147924910Y-68902863D01*
X147915816Y-68479884D01*
X147903702Y-68164532D01*
X147887876Y-67941381D01*
X147867648Y-67795006D01*
X147842326Y-67709979D01*
X147811221Y-67670875D01*
X147792811Y-67663625D01*
X147681498Y-67568537D01*
X147658667Y-67473125D01*
X147627970Y-67365938D01*
X147506959Y-67318688D01*
X147320000Y-67310000D01*
X147098432Y-67295799D01*
X147000508Y-67238405D01*
X146981334Y-67140666D01*
X146948186Y-67023958D01*
X146818778Y-66976868D01*
X146685000Y-66971333D01*
X146459619Y-66940273D01*
X146388667Y-66854208D01*
X146344230Y-66755190D01*
X146195959Y-66700801D01*
X145921412Y-66686641D01*
X145605500Y-66700671D01*
X145605500Y-66700671D01*
G37*
X145605500Y-66700671D02*
X145302950Y-66735559D01*
X145148888Y-66793440D01*
X145118667Y-66852169D01*
X145043439Y-66941883D01*
X144814407Y-66971333D01*
X144591547Y-66996621D01*
X144484835Y-67087924D01*
X144465866Y-67140666D01*
X144444651Y-67195471D01*
X144399384Y-67236975D01*
X144308941Y-67267024D01*
X144152194Y-67287462D01*
X143908018Y-67300133D01*
X143555287Y-67306883D01*
X143072875Y-67309556D01*
X142526459Y-67310000D01*
X141913558Y-67310546D01*
X141449356Y-67313416D01*
X141113220Y-67320452D01*
X140884515Y-67333499D01*
X140742609Y-67354399D01*
X140666867Y-67384996D01*
X140636655Y-67427135D01*
X140631334Y-67479333D01*
X140598186Y-67596041D01*
X140468778Y-67643131D01*
X140335000Y-67648666D01*
X140111122Y-67678671D01*
X140038667Y-67769961D01*
X139966874Y-67892931D01*
X139796275Y-67958055D01*
X139594043Y-67941033D01*
X139579877Y-67935923D01*
X139449945Y-67942247D01*
X139388742Y-68061003D01*
X139310621Y-68191235D01*
X139136658Y-68238965D01*
X139055126Y-68241333D01*
X138855060Y-68261734D01*
X138776444Y-68340606D01*
X138768667Y-68410666D01*
X138740267Y-68521450D01*
X138625478Y-68570412D01*
X138430000Y-68580000D01*
X138208432Y-68594200D01*
X138110508Y-68651594D01*
X138091334Y-68749333D01*
X138057342Y-68867011D01*
X137925437Y-68913722D01*
X137801209Y-68918666D01*
X137577618Y-68950123D01*
X137485535Y-69052724D01*
X137483389Y-69062471D01*
X137397665Y-69171051D01*
X137179993Y-69210200D01*
X137159681Y-69210637D01*
X136863667Y-69215000D01*
X136839323Y-69998166D01*
X136814979Y-70781333D01*
X137122416Y-70781333D01*
X137346278Y-70805970D01*
X137453854Y-70895245D01*
X137474135Y-70950666D01*
X137556371Y-71074588D01*
X137743891Y-71118679D01*
X137804875Y-71120000D01*
X138004941Y-71140400D01*
X138083557Y-71219273D01*
X138091334Y-71289333D01*
X138058186Y-71406041D01*
X137928778Y-71453131D01*
X137795000Y-71458666D01*
X137590761Y-71439724D01*
X137508354Y-71365777D01*
X137498667Y-71289333D01*
X137470843Y-71179330D01*
X137357889Y-71130171D01*
X137153792Y-71120000D01*
X136932570Y-71132933D01*
X136841287Y-71183652D01*
X136836997Y-71268166D01*
X136927209Y-71383904D01*
X137156067Y-71440262D01*
X137181871Y-71442610D01*
X137410542Y-71490669D01*
X137498410Y-71579190D01*
X137498667Y-71585072D01*
X137571270Y-71700377D01*
X137741212Y-71775265D01*
X137929371Y-71779089D01*
X138036335Y-71826936D01*
X138071347Y-71903166D01*
X138060743Y-72003729D01*
X137943919Y-72045675D01*
X137801209Y-72051333D01*
X137571504Y-72020873D01*
X137498667Y-71933391D01*
X137429517Y-71812270D01*
X137264612Y-71750046D01*
X137067770Y-71748960D01*
X136902809Y-71811251D01*
X136836292Y-71910149D01*
X136851959Y-72002297D01*
X136971028Y-72043737D01*
X137153792Y-72051333D01*
X137377831Y-72064995D01*
X137477952Y-72120455D01*
X137498667Y-72220666D01*
X137470843Y-72330669D01*
X137357889Y-72379828D01*
X137153792Y-72390000D01*
X136932570Y-72402933D01*
X136841287Y-72453652D01*
X136836997Y-72538166D01*
X136927209Y-72653904D01*
X137156067Y-72710262D01*
X137181871Y-72712610D01*
X137391510Y-72716678D01*
X137481470Y-72667059D01*
X137498667Y-72564444D01*
X137529957Y-72444648D01*
X137654450Y-72396138D01*
X137795000Y-72390000D01*
X137999240Y-72408941D01*
X138081647Y-72482888D01*
X138091334Y-72559333D01*
X138058186Y-72676041D01*
X137928778Y-72723131D01*
X137795000Y-72728666D01*
X137575827Y-72756206D01*
X137499203Y-72844100D01*
X137498667Y-72855666D01*
X137425450Y-72958040D01*
X137293925Y-72982666D01*
X137008439Y-73018785D01*
X136847840Y-73119697D01*
X136821334Y-73203391D01*
X136890918Y-73288126D01*
X137108219Y-73320669D01*
X137160000Y-73321333D01*
X137400004Y-73298464D01*
X137495248Y-73225346D01*
X137498667Y-73200038D01*
X137570475Y-73077400D01*
X137740368Y-73011516D01*
X137940051Y-73027658D01*
X137952406Y-73032138D01*
X138087668Y-73128876D01*
X138077407Y-73231481D01*
X137940506Y-73305262D01*
X137795000Y-73321333D01*
X137590761Y-73340275D01*
X137508354Y-73414222D01*
X137498667Y-73490666D01*
X137470267Y-73601450D01*
X137355478Y-73650412D01*
X137160000Y-73660000D01*
X136821334Y-73660000D01*
X136821334Y-74125666D01*
X136828684Y-74394774D01*
X136860462Y-74534964D01*
X136931260Y-74586366D01*
X136990667Y-74591333D01*
X137132171Y-74651201D01*
X137160000Y-74760666D01*
X137219869Y-74902170D01*
X137329334Y-74930000D01*
X137470838Y-74989868D01*
X137498667Y-75099333D01*
X137547803Y-75236650D01*
X137616609Y-75268666D01*
X137747314Y-75336961D01*
X137783285Y-75395666D01*
X137769519Y-75500081D01*
X137665343Y-75522666D01*
X137529538Y-75469098D01*
X137498667Y-75395666D01*
X137442744Y-75307359D01*
X137257365Y-75270971D01*
X137160000Y-75268666D01*
X136916687Y-75292899D01*
X136823239Y-75368575D01*
X136821334Y-75386608D01*
X136744873Y-75518547D01*
X136540771Y-75595495D01*
X136391076Y-75607333D01*
X136257611Y-75659981D01*
X136228667Y-75729222D01*
X136148193Y-75826576D01*
X135912690Y-75877262D01*
X135911167Y-75877389D01*
X135593667Y-75903666D01*
X135569728Y-76856166D01*
X135545788Y-77808666D01*
X135887228Y-77808666D01*
X136131561Y-77832507D01*
X136226426Y-77907128D01*
X136228667Y-77926608D01*
X136299147Y-78056967D01*
X136465584Y-78114315D01*
X136614718Y-78091346D01*
X136740278Y-78111082D01*
X136793926Y-78221003D01*
X136869775Y-78349578D01*
X137038797Y-78398172D01*
X137135468Y-78401333D01*
X137355247Y-78428815D01*
X137459251Y-78526881D01*
X137474135Y-78570666D01*
X137559725Y-78696737D01*
X137754133Y-78739361D01*
X137795001Y-78740000D01*
X138009345Y-78772216D01*
X138108307Y-78884415D01*
X138115866Y-78909333D01*
X138205167Y-79047398D01*
X138327422Y-79071626D01*
X138417405Y-78983078D01*
X138430000Y-78904222D01*
X138454669Y-78790098D01*
X138559898Y-78749687D01*
X138740956Y-78756055D01*
X138962659Y-78806306D01*
X139080667Y-78892602D01*
X139074751Y-78985899D01*
X138946921Y-79051801D01*
X138878158Y-79077675D01*
X138829802Y-79130883D01*
X138798272Y-79237695D01*
X138779982Y-79424381D01*
X138771350Y-79717209D01*
X138768792Y-80142449D01*
X138768667Y-80358541D01*
X138768667Y-81618666D01*
X139055126Y-81618666D01*
X139276291Y-81650139D01*
X139376902Y-81757201D01*
X139383282Y-81778117D01*
X139454881Y-81888663D01*
X139619133Y-81912806D01*
X139697602Y-81905826D01*
X139899262Y-81906305D01*
X139994777Y-81986590D01*
X140014320Y-82042708D01*
X140096879Y-82166234D01*
X140285390Y-82210076D01*
X140344875Y-82211333D01*
X140544941Y-82231734D01*
X140623557Y-82310606D01*
X140631334Y-82380666D01*
X140659734Y-82491450D01*
X140774523Y-82540412D01*
X140970000Y-82550000D01*
X141191569Y-82564200D01*
X141289493Y-82621594D01*
X141308667Y-82719333D01*
X141343179Y-82837597D01*
X141476606Y-82884069D01*
X141595126Y-82888666D01*
X141810357Y-82916997D01*
X141912587Y-83019442D01*
X141927661Y-83064862D01*
X142028216Y-83205119D01*
X142170369Y-83224824D01*
X142421664Y-83216781D01*
X142545089Y-83254835D01*
X142578651Y-83351040D01*
X142578667Y-83354333D01*
X142642927Y-83448264D01*
X142848012Y-83481103D01*
X142875000Y-83481333D01*
X143079240Y-83500275D01*
X143161647Y-83574222D01*
X143171334Y-83650666D01*
X143199734Y-83761450D01*
X143314523Y-83810412D01*
X143510000Y-83820000D01*
X143731569Y-83834200D01*
X143829493Y-83891594D01*
X143848667Y-83989333D01*
X143901607Y-84127237D01*
X143975667Y-84158666D01*
X144083313Y-84087706D01*
X144113250Y-83989333D01*
X144127877Y-83766119D01*
X144134417Y-83671833D01*
X144096070Y-83564490D01*
X143938050Y-83509517D01*
X143836174Y-83497906D01*
X143604405Y-83448590D01*
X143494406Y-83335580D01*
X143481343Y-83296223D01*
X143400597Y-83167049D01*
X143252836Y-83168026D01*
X143018223Y-83183735D01*
X142866406Y-83105234D01*
X142832667Y-83006608D01*
X142754063Y-82916610D01*
X142536334Y-82888666D01*
X142332095Y-82869724D01*
X142249687Y-82795777D01*
X142240000Y-82719333D01*
X142205489Y-82601069D01*
X142072061Y-82554597D01*
X141953542Y-82550000D01*
X141736202Y-82520544D01*
X141634409Y-82416511D01*
X141622802Y-82380666D01*
X141543046Y-82258381D01*
X141360771Y-82213308D01*
X141284135Y-82211333D01*
X141062980Y-82183147D01*
X140959230Y-82084009D01*
X140946509Y-82045980D01*
X140866581Y-81925724D01*
X140691606Y-81919016D01*
X140688048Y-81919654D01*
X140512943Y-81927055D01*
X140433241Y-81894507D01*
X140417149Y-81792564D01*
X140400476Y-81565914D01*
X140384880Y-81259168D01*
X140372019Y-80916936D01*
X140363553Y-80583832D01*
X140361139Y-80304465D01*
X140366435Y-80123446D01*
X140367116Y-80115833D01*
X140444954Y-80019589D01*
X140494459Y-80010000D01*
X140608183Y-79939064D01*
X140655866Y-79840666D01*
X140732776Y-79720315D01*
X140908887Y-79674214D01*
X141004407Y-79671333D01*
X141226700Y-79645252D01*
X141307484Y-79561311D01*
X141308667Y-79544333D01*
X141329594Y-79463215D01*
X141420486Y-79417457D01*
X141623510Y-79390957D01*
X141730870Y-79383118D01*
X141852042Y-79304740D01*
X141885245Y-79226681D01*
X141963144Y-79118267D01*
X142162402Y-79079453D01*
X142211802Y-79078666D01*
X142432719Y-79052031D01*
X142449986Y-79036333D01*
X140631334Y-79036333D01*
X140594477Y-79241980D01*
X140507209Y-79338477D01*
X140404486Y-79305026D01*
X140346716Y-79205666D01*
X140233565Y-79093036D01*
X140168324Y-79078666D01*
X140061956Y-79007927D01*
X140038667Y-78909333D01*
X140071815Y-78792625D01*
X140201223Y-78745535D01*
X140335000Y-78740000D01*
X140533612Y-78753106D01*
X140615065Y-78827052D01*
X140631297Y-79013777D01*
X140631334Y-79036333D01*
X142449986Y-79036333D01*
X142537734Y-78956559D01*
X142554135Y-78909333D01*
X142639725Y-78783262D01*
X142834133Y-78740638D01*
X142875000Y-78740000D01*
X143089345Y-78707783D01*
X143188307Y-78595584D01*
X143195866Y-78570666D01*
X143275622Y-78448381D01*
X143457896Y-78403308D01*
X143534533Y-78401333D01*
X143752720Y-78374671D01*
X143856944Y-78277811D01*
X143874564Y-78226781D01*
X143955997Y-78093458D01*
X144032605Y-78067479D01*
X144295430Y-78069359D01*
X144428209Y-77990938D01*
X144441334Y-77935666D01*
X144503816Y-77842880D01*
X144704919Y-77809160D01*
X144745594Y-77808666D01*
X144968454Y-77783378D01*
X145075166Y-77692075D01*
X145094135Y-77639333D01*
X145179725Y-77513262D01*
X145374133Y-77470638D01*
X145415001Y-77470000D01*
X145629345Y-77437783D01*
X145728307Y-77325584D01*
X145735866Y-77300666D01*
X145812776Y-77180315D01*
X145988887Y-77134214D01*
X146084407Y-77131333D01*
X146306700Y-77105252D01*
X146387484Y-77021311D01*
X146388667Y-77004333D01*
X146462395Y-76893916D01*
X146672875Y-76861638D01*
X146797396Y-76872520D01*
X146905437Y-76814857D01*
X146955437Y-76713218D01*
X147033152Y-76587981D01*
X147208743Y-76541201D01*
X147295468Y-76538666D01*
X147515247Y-76511184D01*
X147619251Y-76413118D01*
X147634135Y-76369333D01*
X147637604Y-76364222D01*
X146050000Y-76364222D01*
X146011020Y-76479821D01*
X145866726Y-76538344D01*
X145732500Y-76554722D01*
X145530224Y-76594202D01*
X145434298Y-76659395D01*
X145432743Y-76676559D01*
X145369794Y-76748127D01*
X145190931Y-76811046D01*
X145115243Y-76825727D01*
X144871821Y-76895213D01*
X144780339Y-76997859D01*
X144780000Y-77005333D01*
X144711893Y-77100331D01*
X144498503Y-77131324D01*
X144493542Y-77131333D01*
X144276202Y-77160788D01*
X144174409Y-77264821D01*
X144162802Y-77300666D01*
X144085892Y-77421017D01*
X143909781Y-77467118D01*
X143814260Y-77470000D01*
X143606709Y-77452116D01*
X143521312Y-77381791D01*
X143510000Y-77300666D01*
X143543548Y-77183496D01*
X143674141Y-77136584D01*
X143803355Y-77131333D01*
X144054325Y-77088969D01*
X144187878Y-76960983D01*
X144320384Y-76833878D01*
X144496158Y-76830002D01*
X144673565Y-76825747D01*
X144754976Y-76709726D01*
X144756509Y-76704019D01*
X144844140Y-76580166D01*
X145044456Y-76539055D01*
X145076334Y-76538666D01*
X145290679Y-76506449D01*
X145389641Y-76394251D01*
X145397199Y-76369333D01*
X145496599Y-76247645D01*
X145673187Y-76189694D01*
X145864885Y-76195966D01*
X146009614Y-76266946D01*
X146050000Y-76364222D01*
X147637604Y-76364222D01*
X147719725Y-76243262D01*
X147914133Y-76200638D01*
X147955000Y-76200000D01*
X148169345Y-76167783D01*
X148268307Y-76055584D01*
X148275866Y-76030666D01*
X148355622Y-75908381D01*
X148537896Y-75863308D01*
X148614533Y-75861333D01*
X148835688Y-75833147D01*
X148897433Y-75774146D01*
X145412601Y-75774146D01*
X145304451Y-75842501D01*
X145062223Y-75861333D01*
X144863965Y-75882412D01*
X144787001Y-75963551D01*
X144780000Y-76030666D01*
X144746079Y-76148264D01*
X144614380Y-76195008D01*
X144489373Y-76200000D01*
X144265615Y-76230865D01*
X144156512Y-76338460D01*
X144145000Y-76369333D01*
X144050115Y-76495391D01*
X143846962Y-76538074D01*
X143806836Y-76538666D01*
X143584517Y-76571947D01*
X143495383Y-76679131D01*
X143494889Y-76681605D01*
X143407568Y-76790162D01*
X143186211Y-76829431D01*
X143171181Y-76829772D01*
X142950139Y-76862730D01*
X142875178Y-76955419D01*
X142875000Y-76962000D01*
X142798178Y-77063309D01*
X142564175Y-77114711D01*
X142557500Y-77115277D01*
X142340244Y-77153420D01*
X142250186Y-77235508D01*
X142240000Y-77305777D01*
X142209734Y-77413595D01*
X142089884Y-77461149D01*
X141901334Y-77470000D01*
X141691983Y-77484006D01*
X141579351Y-77519018D01*
X141572693Y-77533500D01*
X141562703Y-77711205D01*
X141440043Y-77793805D01*
X141266334Y-77808666D01*
X141047161Y-77836206D01*
X140970536Y-77924100D01*
X140970000Y-77935666D01*
X140900100Y-78047979D01*
X140821834Y-78072432D01*
X140645316Y-78091619D01*
X140589000Y-78101870D01*
X140426926Y-78130689D01*
X140398500Y-78134437D01*
X140314053Y-78210655D01*
X140313834Y-78253166D01*
X140252684Y-78334350D01*
X140047242Y-78382502D01*
X140017500Y-78385277D01*
X139801445Y-78422591D01*
X139711321Y-78503462D01*
X139700000Y-78580888D01*
X139674491Y-78690986D01*
X139567255Y-78730284D01*
X139382500Y-78723944D01*
X139145121Y-78673568D01*
X139065034Y-78573339D01*
X139065000Y-78570666D01*
X139144245Y-78467756D01*
X139373827Y-78417906D01*
X139606751Y-78367910D01*
X139716500Y-78253926D01*
X139727962Y-78218887D01*
X139800830Y-78101699D01*
X139869334Y-78105000D01*
X139963519Y-78086795D01*
X140011907Y-77986518D01*
X140062938Y-77881731D01*
X140175187Y-77828148D01*
X140393872Y-77809757D01*
X140514209Y-77808666D01*
X140780449Y-77800674D01*
X140917818Y-77767068D01*
X140966412Y-77693401D01*
X140970000Y-77644444D01*
X140971723Y-77639333D01*
X140038667Y-77639333D01*
X140006534Y-77754844D01*
X139880174Y-77802371D01*
X139734407Y-77808666D01*
X139511547Y-77783378D01*
X139404835Y-77692075D01*
X139385866Y-77639333D01*
X139303253Y-77501774D01*
X139230165Y-77470000D01*
X139120658Y-77399131D01*
X139049324Y-77241551D01*
X139049064Y-77079801D01*
X139062821Y-77050193D01*
X139040567Y-76948977D01*
X138941286Y-76859736D01*
X138806701Y-76735635D01*
X138768667Y-76645300D01*
X138697983Y-76558765D01*
X138599334Y-76538666D01*
X138457830Y-76478798D01*
X138430000Y-76369333D01*
X138370132Y-76227829D01*
X138260667Y-76200000D01*
X138118094Y-76139278D01*
X138091334Y-76040541D01*
X138019823Y-75891556D01*
X137922000Y-75836801D01*
X137784585Y-75762215D01*
X137752667Y-75699926D01*
X137823503Y-75624726D01*
X137922000Y-75607333D01*
X138059905Y-75660272D01*
X138091334Y-75734333D01*
X138161920Y-75837761D01*
X138260667Y-75861333D01*
X138402171Y-75921201D01*
X138430000Y-76030666D01*
X138489869Y-76172170D01*
X138599334Y-76200000D01*
X138739843Y-76258804D01*
X138768667Y-76375541D01*
X138814074Y-76510338D01*
X138916834Y-76522575D01*
X138954436Y-76505798D01*
X138985295Y-76460896D01*
X139010196Y-76372211D01*
X139029923Y-76224086D01*
X139045261Y-76000864D01*
X139056995Y-75686887D01*
X139065910Y-75266498D01*
X139072789Y-74724040D01*
X139078418Y-74043856D01*
X139079746Y-73829333D01*
X138091334Y-73829333D01*
X138058186Y-73946041D01*
X137928778Y-73993131D01*
X137795000Y-73998666D01*
X137590761Y-73979724D01*
X137508354Y-73905777D01*
X137498667Y-73829333D01*
X137531815Y-73712625D01*
X137661223Y-73665535D01*
X137795000Y-73660000D01*
X137999240Y-73678941D01*
X138081647Y-73752888D01*
X138091334Y-73829333D01*
X139079746Y-73829333D01*
X139083581Y-73210288D01*
X139083678Y-73193200D01*
X139089113Y-72349311D01*
X139095390Y-71659547D01*
X139103185Y-71108702D01*
X139113175Y-70681568D01*
X139126039Y-70362937D01*
X139142452Y-70137602D01*
X139163091Y-69990356D01*
X139188635Y-69905991D01*
X139219759Y-69869299D01*
X139231845Y-69864958D01*
X139262725Y-69873302D01*
X139288344Y-69921904D01*
X139309180Y-70024763D01*
X139325712Y-70195880D01*
X139338418Y-70449254D01*
X139347778Y-70798886D01*
X139354268Y-71258775D01*
X139358369Y-71842922D01*
X139360557Y-72565326D01*
X139361313Y-73439988D01*
X139361334Y-73653791D01*
X139361334Y-77470000D01*
X139700000Y-77470000D01*
X139921569Y-77484200D01*
X140019493Y-77541594D01*
X140038667Y-77639333D01*
X140971723Y-77639333D01*
X141008981Y-77528844D01*
X141153275Y-77470321D01*
X141287500Y-77453944D01*
X141524880Y-77403568D01*
X141604967Y-77303339D01*
X141605000Y-77300666D01*
X141684245Y-77197756D01*
X141913827Y-77147906D01*
X142155129Y-77093009D01*
X142261742Y-76972027D01*
X142264060Y-76963807D01*
X142354716Y-76844530D01*
X142529805Y-76830095D01*
X142750223Y-76793100D01*
X142838718Y-76696694D01*
X142993050Y-76570123D01*
X143216646Y-76538666D01*
X143419632Y-76519301D01*
X143500904Y-76443919D01*
X143510000Y-76369333D01*
X143538401Y-76258549D01*
X143653190Y-76209587D01*
X143848667Y-76200000D01*
X144070235Y-76185799D01*
X144168160Y-76128405D01*
X144187334Y-76030666D01*
X144221845Y-75912402D01*
X144355273Y-75865930D01*
X144473792Y-75861333D01*
X144691132Y-75831877D01*
X144792925Y-75727845D01*
X144804533Y-75692000D01*
X144908258Y-75573109D01*
X145091464Y-75520073D01*
X145279645Y-75539225D01*
X145398293Y-75636895D01*
X145400108Y-75641389D01*
X145412601Y-75774146D01*
X148897433Y-75774146D01*
X148939438Y-75734009D01*
X148952158Y-75695980D01*
X149027358Y-75577997D01*
X149193557Y-75566985D01*
X149223187Y-75571933D01*
X149403242Y-75572997D01*
X149487616Y-75469546D01*
X149496029Y-75440953D01*
X149574585Y-75317005D01*
X149752982Y-75270957D01*
X149835468Y-75268666D01*
X150055247Y-75241184D01*
X150159251Y-75143118D01*
X150174135Y-75099333D01*
X150178386Y-75092926D01*
X146695002Y-75092926D01*
X146631011Y-75186531D01*
X146413911Y-75248316D01*
X146376174Y-75252093D01*
X146125258Y-75312629D01*
X146028927Y-75424773D01*
X145925654Y-75530301D01*
X145734158Y-75563546D01*
X145522883Y-75516489D01*
X145472844Y-75489919D01*
X145400428Y-75396314D01*
X145472152Y-75317414D01*
X145662887Y-75272670D01*
X145758664Y-75268666D01*
X145960050Y-75249543D01*
X146040570Y-75173829D01*
X146050000Y-75094222D01*
X146074137Y-74980873D01*
X146177612Y-74939874D01*
X146367500Y-74946055D01*
X146606844Y-75001451D01*
X146695002Y-75092926D01*
X150178386Y-75092926D01*
X150256371Y-74975411D01*
X150443891Y-74931320D01*
X150504875Y-74930000D01*
X150698213Y-74915751D01*
X150776522Y-74838153D01*
X150791331Y-74644928D01*
X150791334Y-74639372D01*
X150760321Y-74415322D01*
X150652504Y-74306292D01*
X150622758Y-74295240D01*
X150443720Y-74275704D01*
X150363059Y-74298053D01*
X150274239Y-74275464D01*
X150225427Y-74176518D01*
X150121895Y-74031006D01*
X150019459Y-73998666D01*
X149885201Y-73934185D01*
X149860000Y-73829333D01*
X149792865Y-73704924D01*
X149632833Y-73648789D01*
X149441969Y-73660927D01*
X149282336Y-73741339D01*
X149225000Y-73829333D01*
X149128665Y-73956238D01*
X148922710Y-73998274D01*
X148890503Y-73998666D01*
X148676007Y-74029069D01*
X148575521Y-74136875D01*
X148564584Y-74171380D01*
X148493476Y-74293672D01*
X148341847Y-74298901D01*
X148307666Y-74290948D01*
X148120870Y-74287147D01*
X148001312Y-74414567D01*
X147861125Y-74550481D01*
X147614139Y-74591333D01*
X147613355Y-74591333D01*
X147410369Y-74610698D01*
X147329097Y-74686080D01*
X147320000Y-74760666D01*
X147290870Y-74872420D01*
X147173770Y-74921123D01*
X146988825Y-74930000D01*
X146771866Y-74915301D01*
X146683970Y-74858882D01*
X146678923Y-74781833D01*
X146760664Y-74666618D01*
X146979160Y-74610320D01*
X147010098Y-74607389D01*
X147240980Y-74556317D01*
X147320000Y-74459222D01*
X147391004Y-74355705D01*
X147489334Y-74326750D01*
X147672172Y-74307892D01*
X147743334Y-74295000D01*
X147883336Y-74264660D01*
X147891500Y-74263249D01*
X147905219Y-74179218D01*
X147917210Y-73944147D01*
X147927198Y-73576322D01*
X147934909Y-73094030D01*
X147940066Y-72515559D01*
X147942396Y-71859194D01*
X147941624Y-71143222D01*
X147941514Y-71113791D01*
X146981334Y-71113791D01*
X146980557Y-71897639D01*
X146977755Y-72528197D01*
X146972222Y-73021505D01*
X146963252Y-73393603D01*
X146950139Y-73660529D01*
X146932177Y-73838323D01*
X146908659Y-73943024D01*
X146878881Y-73990670D01*
X146854334Y-73998666D01*
X146740751Y-73941664D01*
X146725474Y-73892833D01*
X146724339Y-73783627D01*
X146722054Y-73527584D01*
X146718808Y-73147196D01*
X146714790Y-72664953D01*
X146712626Y-72400742D01*
X145408932Y-72400742D01*
X145387787Y-72585476D01*
X145336453Y-72677298D01*
X145269944Y-72708856D01*
X145155614Y-72802436D01*
X145118735Y-73021168D01*
X145118667Y-73034874D01*
X145098266Y-73234940D01*
X145019394Y-73313556D01*
X144949334Y-73321333D01*
X144838550Y-73349733D01*
X144789588Y-73464522D01*
X144780000Y-73660000D01*
X144764830Y-73883202D01*
X144705925Y-73981394D01*
X144620542Y-73998666D01*
X144468587Y-74068034D01*
X144421462Y-74150180D01*
X144320510Y-74260292D01*
X144144624Y-74296074D01*
X143968340Y-74258954D01*
X143866198Y-74150363D01*
X143863626Y-74139484D01*
X143768667Y-74022700D01*
X143673126Y-73998666D01*
X143536077Y-73935815D01*
X143510000Y-73829333D01*
X143450132Y-73687829D01*
X143340667Y-73660000D01*
X143198094Y-73599278D01*
X143171334Y-73500541D01*
X143100639Y-73348607D01*
X143015716Y-73300388D01*
X142929537Y-73249865D01*
X142878269Y-73129112D01*
X142851083Y-72900213D01*
X142841693Y-72691146D01*
X142837398Y-72383871D01*
X142855856Y-72205583D01*
X142906687Y-72116442D01*
X142989483Y-72079138D01*
X143145883Y-71974575D01*
X143195459Y-71883557D01*
X143297739Y-71775845D01*
X143482247Y-71737083D01*
X143677680Y-71764795D01*
X143812734Y-71856503D01*
X143833039Y-71905712D01*
X143915288Y-72030174D01*
X143981875Y-72051333D01*
X144083407Y-72007596D01*
X144116159Y-71854998D01*
X144106035Y-71685242D01*
X144164141Y-71537401D01*
X144265618Y-71484867D01*
X144409355Y-71381323D01*
X144441334Y-71279458D01*
X144473555Y-71174365D01*
X144598660Y-71128132D01*
X144780000Y-71120000D01*
X145002533Y-71134785D01*
X145100629Y-71193073D01*
X145118667Y-71283125D01*
X145179993Y-71430571D01*
X145257032Y-71473625D01*
X145333711Y-71523111D01*
X145379427Y-71656732D01*
X145402619Y-71908599D01*
X145408309Y-72085148D01*
X145408932Y-72400742D01*
X146712626Y-72400742D01*
X146710190Y-72103346D01*
X146705195Y-71484866D01*
X146704307Y-71374000D01*
X146698606Y-70661374D01*
X142863649Y-70661374D01*
X142764285Y-70743325D01*
X142545180Y-70781171D01*
X142527275Y-70781333D01*
X142326863Y-70801607D01*
X142247930Y-70880053D01*
X142240000Y-70950666D01*
X142206079Y-71068264D01*
X142074380Y-71115008D01*
X141949373Y-71120000D01*
X141725615Y-71150865D01*
X141616512Y-71258460D01*
X141605000Y-71289333D01*
X141512460Y-71413997D01*
X141313932Y-71457668D01*
X141260628Y-71458666D01*
X141058794Y-71438902D01*
X140978567Y-71362168D01*
X140970000Y-71289333D01*
X140998053Y-71179018D01*
X141111737Y-71129936D01*
X141312379Y-71120000D01*
X141533225Y-71106573D01*
X141624474Y-71054333D01*
X141629879Y-70971833D01*
X141651450Y-70868072D01*
X141785671Y-70813933D01*
X141922500Y-70797389D01*
X142152601Y-70749067D01*
X142239796Y-70659549D01*
X142240000Y-70654219D01*
X142293138Y-70513185D01*
X142463475Y-70471202D01*
X142648398Y-70494712D01*
X142829582Y-70567706D01*
X142863649Y-70661374D01*
X146698606Y-70661374D01*
X146688218Y-69363166D01*
X145420736Y-69363166D01*
X145402264Y-69461153D01*
X145282666Y-69504103D01*
X145111176Y-69511333D01*
X144891819Y-69526720D01*
X144796449Y-69587330D01*
X144780000Y-69675555D01*
X144741020Y-69791155D01*
X144596726Y-69849678D01*
X144462500Y-69866055D01*
X144225121Y-69916431D01*
X144145034Y-70016660D01*
X144145000Y-70019333D01*
X144068178Y-70120643D01*
X143834175Y-70172044D01*
X143827500Y-70172610D01*
X143599034Y-70220390D01*
X143510318Y-70308100D01*
X143510000Y-70314569D01*
X143439858Y-70431124D01*
X143361834Y-70468970D01*
X143229526Y-70506419D01*
X143199425Y-70517511D01*
X143120757Y-70500510D01*
X143051259Y-70475941D01*
X142919188Y-70380241D01*
X142931703Y-70278225D01*
X143069126Y-70204698D01*
X143213667Y-70188666D01*
X143417906Y-70169724D01*
X143500314Y-70095777D01*
X143510000Y-70019333D01*
X143538401Y-69908549D01*
X143653190Y-69859587D01*
X143848667Y-69850000D01*
X144058018Y-69835993D01*
X144170650Y-69800981D01*
X144177308Y-69786500D01*
X144188222Y-69606972D01*
X144313869Y-69524680D01*
X144473792Y-69511333D01*
X144693722Y-69480509D01*
X144794772Y-69374440D01*
X144802707Y-69348981D01*
X144904552Y-69234530D01*
X145084913Y-69191236D01*
X145274145Y-69217501D01*
X145402602Y-69311726D01*
X145420736Y-69363166D01*
X146688218Y-69363166D01*
X146685000Y-68961000D01*
X146367500Y-68934722D01*
X146145149Y-68936205D01*
X146055472Y-68995957D01*
X146050000Y-69030680D01*
X145977777Y-69144045D01*
X145808788Y-69213028D01*
X145614551Y-69212050D01*
X145576168Y-69200150D01*
X145453761Y-69107616D01*
X145473050Y-69007406D01*
X145611896Y-68934630D01*
X145753667Y-68918666D01*
X145958769Y-68899140D01*
X146041143Y-68824397D01*
X146050000Y-68754444D01*
X146088981Y-68638844D01*
X146233275Y-68580321D01*
X146367500Y-68563944D01*
X146606140Y-68512834D01*
X146685000Y-68411826D01*
X146755386Y-68291291D01*
X146833167Y-68257451D01*
X146873014Y-68258689D01*
X146905023Y-68290330D01*
X146930046Y-68368814D01*
X146948938Y-68510579D01*
X146962550Y-68732065D01*
X146971735Y-69049713D01*
X146977346Y-69479961D01*
X146980235Y-70039250D01*
X146981257Y-70744018D01*
X146981334Y-71113791D01*
X147941514Y-71113791D01*
X147940978Y-70971832D01*
X147936800Y-70133411D01*
X147931674Y-69448897D01*
X147924910Y-68902863D01*
X147915816Y-68479884D01*
X147903702Y-68164532D01*
X147887876Y-67941381D01*
X147867648Y-67795006D01*
X147842326Y-67709979D01*
X147811221Y-67670875D01*
X147792811Y-67663625D01*
X147681498Y-67568537D01*
X147658667Y-67473125D01*
X147627970Y-67365938D01*
X147506959Y-67318688D01*
X147320000Y-67310000D01*
X147098432Y-67295799D01*
X147000508Y-67238405D01*
X146981334Y-67140666D01*
X146948186Y-67023958D01*
X146818778Y-66976868D01*
X146685000Y-66971333D01*
X146459619Y-66940273D01*
X146388667Y-66854208D01*
X146344230Y-66755190D01*
X146195959Y-66700801D01*
X145921412Y-66686641D01*
X145605500Y-66700671D01*
G36*
X154986446Y-78175863D02*
X154940000Y-78278280D01*
X154861494Y-78364525D01*
X154647918Y-78415031D01*
X154622500Y-78417389D01*
X154385121Y-78467764D01*
X154305034Y-78567993D01*
X154305000Y-78570666D01*
X154228178Y-78671976D01*
X153994175Y-78723378D01*
X153987501Y-78723944D01*
X153770244Y-78762087D01*
X153680186Y-78844175D01*
X153670001Y-78914444D01*
X153635828Y-79026925D01*
X153504085Y-79073022D01*
X153365741Y-79078666D01*
X153142719Y-79104034D01*
X153036019Y-79195461D01*
X153017332Y-79247491D01*
X152949596Y-79364218D01*
X152800095Y-79383405D01*
X152721650Y-79372001D01*
X152532570Y-79363445D01*
X152443377Y-79444710D01*
X152425184Y-79499510D01*
X152342159Y-79626065D01*
X152154111Y-79670229D01*
X152099498Y-79671333D01*
X151878360Y-79705143D01*
X151771793Y-79821316D01*
X151765000Y-79840666D01*
X151672460Y-79965330D01*
X151473932Y-80009001D01*
X151420628Y-80010000D01*
X151218794Y-80029764D01*
X151138567Y-80106498D01*
X151130000Y-80179333D01*
X151097868Y-80294844D01*
X150971507Y-80342371D01*
X150825741Y-80348666D01*
X150600651Y-80375045D01*
X150494185Y-80468083D01*
X150478883Y-80511561D01*
X150380444Y-80637342D01*
X150271318Y-80642686D01*
X150039711Y-80643872D01*
X149890248Y-80732113D01*
X149860000Y-80823391D01*
X149782325Y-80912690D01*
X149555741Y-80941333D01*
X149332880Y-80966621D01*
X149226168Y-81057924D01*
X149207199Y-81110666D01*
X149124964Y-81234588D01*
X148937443Y-81278679D01*
X148876459Y-81280000D01*
X148675509Y-81301017D01*
X148596989Y-81380700D01*
X148590000Y-81444222D01*
X148551020Y-81559821D01*
X148406726Y-81618344D01*
X148272500Y-81634722D01*
X148052925Y-81678691D01*
X147975106Y-81756822D01*
X147976167Y-81766833D01*
X147925776Y-81860303D01*
X147849167Y-81882432D01*
X147672649Y-81901619D01*
X147616334Y-81911870D01*
X147454259Y-81940689D01*
X147425834Y-81944437D01*
X147330462Y-82025263D01*
X147320000Y-82079222D01*
X147239527Y-82176576D01*
X147004024Y-82227262D01*
X147002500Y-82227389D01*
X146765121Y-82277764D01*
X146685034Y-82377993D01*
X146685000Y-82380666D01*
X146608178Y-82481976D01*
X146374175Y-82533378D01*
X146367500Y-82533944D01*
X146150244Y-82572087D01*
X146060186Y-82654175D01*
X146050000Y-82724444D01*
X146015828Y-82836925D01*
X145884085Y-82883022D01*
X145745741Y-82888666D01*
X145520651Y-82915045D01*
X145414185Y-83008083D01*
X145398883Y-83051561D01*
X145300444Y-83177342D01*
X145191318Y-83182686D01*
X144963918Y-83183129D01*
X144812652Y-83265451D01*
X144780000Y-83353516D01*
X144709151Y-83459818D01*
X144610667Y-83505865D01*
X144472967Y-83598510D01*
X144441334Y-83685073D01*
X144488922Y-83777057D01*
X144653822Y-83816141D01*
X144780000Y-83820000D01*
X145001569Y-83805799D01*
X145099493Y-83748405D01*
X145118667Y-83650666D01*
X145151815Y-83533958D01*
X145281223Y-83486868D01*
X145415000Y-83481333D01*
X145641123Y-83450048D01*
X145711334Y-83363391D01*
X145783738Y-83230588D01*
X145972348Y-83173513D01*
X146139599Y-83185949D01*
X146302972Y-83163423D01*
X146364965Y-83054825D01*
X146448709Y-82932669D01*
X146640794Y-82889705D01*
X146694875Y-82888666D01*
X146894941Y-82868265D01*
X146973557Y-82789393D01*
X146981334Y-82719333D01*
X147009734Y-82608549D01*
X147124523Y-82559587D01*
X147320000Y-82550000D01*
X147541569Y-82535799D01*
X147639493Y-82478405D01*
X147658667Y-82380666D01*
X147691815Y-82263958D01*
X147821223Y-82216868D01*
X147955000Y-82211333D01*
X148174174Y-82183793D01*
X148250798Y-82095899D01*
X148251334Y-82084333D01*
X148297800Y-81965273D01*
X148336000Y-81946750D01*
X148486207Y-81927974D01*
X148590000Y-81915000D01*
X148772275Y-81892215D01*
X148844000Y-81883250D01*
X148919501Y-81804112D01*
X148928667Y-81745666D01*
X148992927Y-81651735D01*
X149198012Y-81618896D01*
X149225000Y-81618666D01*
X149429240Y-81599724D01*
X149511647Y-81525777D01*
X149521334Y-81449333D01*
X149549734Y-81338549D01*
X149664523Y-81289587D01*
X149860000Y-81280000D01*
X150081569Y-81265799D01*
X150179493Y-81208405D01*
X150198667Y-81110666D01*
X150233179Y-80992402D01*
X150366606Y-80945930D01*
X150485126Y-80941333D01*
X150702636Y-80911787D01*
X150804387Y-80807622D01*
X150815734Y-80772504D01*
X150877063Y-80659272D01*
X151011427Y-80638571D01*
X151126844Y-80657068D01*
X151319223Y-80676111D01*
X151411111Y-80612653D01*
X151441111Y-80529563D01*
X151519059Y-80398999D01*
X151692405Y-80351090D01*
X151774875Y-80348666D01*
X151974941Y-80328265D01*
X152053557Y-80249393D01*
X152061334Y-80179333D01*
X152089734Y-80068549D01*
X152204523Y-80019587D01*
X152400000Y-80010000D01*
X152621569Y-79995799D01*
X152719493Y-79938405D01*
X152738667Y-79840666D01*
X152773179Y-79722402D01*
X152906606Y-79675930D01*
X153025126Y-79671333D01*
X153249005Y-79638439D01*
X153348442Y-79529173D01*
X153351816Y-79517485D01*
X153432411Y-79407316D01*
X153620250Y-79380251D01*
X153667976Y-79382740D01*
X153876768Y-79369648D01*
X153973953Y-79277358D01*
X153986160Y-79240255D01*
X154072391Y-79120588D01*
X154271663Y-79079331D01*
X154314875Y-79078666D01*
X154514941Y-79058265D01*
X154593557Y-78979393D01*
X154601334Y-78909333D01*
X154661202Y-78767829D01*
X154770667Y-78740000D01*
X154912171Y-78680131D01*
X154940000Y-78570666D01*
X154999869Y-78429162D01*
X155109334Y-78401333D01*
X155248797Y-78340347D01*
X155277113Y-78207380D01*
X155228056Y-78124944D01*
X155110720Y-78102843D01*
X154986446Y-78175863D01*
X154986446Y-78175863D01*
G37*
X154986446Y-78175863D02*
X154940000Y-78278280D01*
X154861494Y-78364525D01*
X154647918Y-78415031D01*
X154622500Y-78417389D01*
X154385121Y-78467764D01*
X154305034Y-78567993D01*
X154305000Y-78570666D01*
X154228178Y-78671976D01*
X153994175Y-78723378D01*
X153987501Y-78723944D01*
X153770244Y-78762087D01*
X153680186Y-78844175D01*
X153670001Y-78914444D01*
X153635828Y-79026925D01*
X153504085Y-79073022D01*
X153365741Y-79078666D01*
X153142719Y-79104034D01*
X153036019Y-79195461D01*
X153017332Y-79247491D01*
X152949596Y-79364218D01*
X152800095Y-79383405D01*
X152721650Y-79372001D01*
X152532570Y-79363445D01*
X152443377Y-79444710D01*
X152425184Y-79499510D01*
X152342159Y-79626065D01*
X152154111Y-79670229D01*
X152099498Y-79671333D01*
X151878360Y-79705143D01*
X151771793Y-79821316D01*
X151765000Y-79840666D01*
X151672460Y-79965330D01*
X151473932Y-80009001D01*
X151420628Y-80010000D01*
X151218794Y-80029764D01*
X151138567Y-80106498D01*
X151130000Y-80179333D01*
X151097868Y-80294844D01*
X150971507Y-80342371D01*
X150825741Y-80348666D01*
X150600651Y-80375045D01*
X150494185Y-80468083D01*
X150478883Y-80511561D01*
X150380444Y-80637342D01*
X150271318Y-80642686D01*
X150039711Y-80643872D01*
X149890248Y-80732113D01*
X149860000Y-80823391D01*
X149782325Y-80912690D01*
X149555741Y-80941333D01*
X149332880Y-80966621D01*
X149226168Y-81057924D01*
X149207199Y-81110666D01*
X149124964Y-81234588D01*
X148937443Y-81278679D01*
X148876459Y-81280000D01*
X148675509Y-81301017D01*
X148596989Y-81380700D01*
X148590000Y-81444222D01*
X148551020Y-81559821D01*
X148406726Y-81618344D01*
X148272500Y-81634722D01*
X148052925Y-81678691D01*
X147975106Y-81756822D01*
X147976167Y-81766833D01*
X147925776Y-81860303D01*
X147849167Y-81882432D01*
X147672649Y-81901619D01*
X147616334Y-81911870D01*
X147454259Y-81940689D01*
X147425834Y-81944437D01*
X147330462Y-82025263D01*
X147320000Y-82079222D01*
X147239527Y-82176576D01*
X147004024Y-82227262D01*
X147002500Y-82227389D01*
X146765121Y-82277764D01*
X146685034Y-82377993D01*
X146685000Y-82380666D01*
X146608178Y-82481976D01*
X146374175Y-82533378D01*
X146367500Y-82533944D01*
X146150244Y-82572087D01*
X146060186Y-82654175D01*
X146050000Y-82724444D01*
X146015828Y-82836925D01*
X145884085Y-82883022D01*
X145745741Y-82888666D01*
X145520651Y-82915045D01*
X145414185Y-83008083D01*
X145398883Y-83051561D01*
X145300444Y-83177342D01*
X145191318Y-83182686D01*
X144963918Y-83183129D01*
X144812652Y-83265451D01*
X144780000Y-83353516D01*
X144709151Y-83459818D01*
X144610667Y-83505865D01*
X144472967Y-83598510D01*
X144441334Y-83685073D01*
X144488922Y-83777057D01*
X144653822Y-83816141D01*
X144780000Y-83820000D01*
X145001569Y-83805799D01*
X145099493Y-83748405D01*
X145118667Y-83650666D01*
X145151815Y-83533958D01*
X145281223Y-83486868D01*
X145415000Y-83481333D01*
X145641123Y-83450048D01*
X145711334Y-83363391D01*
X145783738Y-83230588D01*
X145972348Y-83173513D01*
X146139599Y-83185949D01*
X146302972Y-83163423D01*
X146364965Y-83054825D01*
X146448709Y-82932669D01*
X146640794Y-82889705D01*
X146694875Y-82888666D01*
X146894941Y-82868265D01*
X146973557Y-82789393D01*
X146981334Y-82719333D01*
X147009734Y-82608549D01*
X147124523Y-82559587D01*
X147320000Y-82550000D01*
X147541569Y-82535799D01*
X147639493Y-82478405D01*
X147658667Y-82380666D01*
X147691815Y-82263958D01*
X147821223Y-82216868D01*
X147955000Y-82211333D01*
X148174174Y-82183793D01*
X148250798Y-82095899D01*
X148251334Y-82084333D01*
X148297800Y-81965273D01*
X148336000Y-81946750D01*
X148486207Y-81927974D01*
X148590000Y-81915000D01*
X148772275Y-81892215D01*
X148844000Y-81883250D01*
X148919501Y-81804112D01*
X148928667Y-81745666D01*
X148992927Y-81651735D01*
X149198012Y-81618896D01*
X149225000Y-81618666D01*
X149429240Y-81599724D01*
X149511647Y-81525777D01*
X149521334Y-81449333D01*
X149549734Y-81338549D01*
X149664523Y-81289587D01*
X149860000Y-81280000D01*
X150081569Y-81265799D01*
X150179493Y-81208405D01*
X150198667Y-81110666D01*
X150233179Y-80992402D01*
X150366606Y-80945930D01*
X150485126Y-80941333D01*
X150702636Y-80911787D01*
X150804387Y-80807622D01*
X150815734Y-80772504D01*
X150877063Y-80659272D01*
X151011427Y-80638571D01*
X151126844Y-80657068D01*
X151319223Y-80676111D01*
X151411111Y-80612653D01*
X151441111Y-80529563D01*
X151519059Y-80398999D01*
X151692405Y-80351090D01*
X151774875Y-80348666D01*
X151974941Y-80328265D01*
X152053557Y-80249393D01*
X152061334Y-80179333D01*
X152089734Y-80068549D01*
X152204523Y-80019587D01*
X152400000Y-80010000D01*
X152621569Y-79995799D01*
X152719493Y-79938405D01*
X152738667Y-79840666D01*
X152773179Y-79722402D01*
X152906606Y-79675930D01*
X153025126Y-79671333D01*
X153249005Y-79638439D01*
X153348442Y-79529173D01*
X153351816Y-79517485D01*
X153432411Y-79407316D01*
X153620250Y-79380251D01*
X153667976Y-79382740D01*
X153876768Y-79369648D01*
X153973953Y-79277358D01*
X153986160Y-79240255D01*
X154072391Y-79120588D01*
X154271663Y-79079331D01*
X154314875Y-79078666D01*
X154514941Y-79058265D01*
X154593557Y-78979393D01*
X154601334Y-78909333D01*
X154661202Y-78767829D01*
X154770667Y-78740000D01*
X154912171Y-78680131D01*
X154940000Y-78570666D01*
X154999869Y-78429162D01*
X155109334Y-78401333D01*
X155248797Y-78340347D01*
X155277113Y-78207380D01*
X155228056Y-78124944D01*
X155110720Y-78102843D01*
X154986446Y-78175863D01*
G36*
X144725613Y-81914676D02*
X144560694Y-81943164D01*
X144504834Y-81950855D01*
X144433689Y-82010109D01*
X144458749Y-82115834D01*
X144552098Y-82199318D01*
X144610667Y-82211333D01*
X144752171Y-82271201D01*
X144780000Y-82380666D01*
X144839869Y-82522170D01*
X144949334Y-82550000D01*
X145067466Y-82515605D01*
X145113993Y-82382520D01*
X145118667Y-82262725D01*
X145073812Y-82018704D01*
X144930934Y-81909774D01*
X144725613Y-81914676D01*
X144725613Y-81914676D01*
G37*
X144725613Y-81914676D02*
X144560694Y-81943164D01*
X144504834Y-81950855D01*
X144433689Y-82010109D01*
X144458749Y-82115834D01*
X144552098Y-82199318D01*
X144610667Y-82211333D01*
X144752171Y-82271201D01*
X144780000Y-82380666D01*
X144839869Y-82522170D01*
X144949334Y-82550000D01*
X145067466Y-82515605D01*
X145113993Y-82382520D01*
X145118667Y-82262725D01*
X145073812Y-82018704D01*
X144930934Y-81909774D01*
X144725613Y-81914676D01*
G36*
X145819119Y-81298959D02*
X145721018Y-81364656D01*
X145711334Y-81414926D01*
X145782138Y-81544923D01*
X145872839Y-81592087D01*
X146028548Y-81702554D01*
X146076580Y-81795827D01*
X146164512Y-81939531D01*
X146292345Y-81933368D01*
X146332223Y-81900888D01*
X146370966Y-81784696D01*
X146388569Y-81578986D01*
X146388667Y-81562222D01*
X146377518Y-81381471D01*
X146311566Y-81301137D01*
X146142051Y-81280587D01*
X146050000Y-81280000D01*
X145819119Y-81298959D01*
X145819119Y-81298959D01*
G37*
X145819119Y-81298959D02*
X145721018Y-81364656D01*
X145711334Y-81414926D01*
X145782138Y-81544923D01*
X145872839Y-81592087D01*
X146028548Y-81702554D01*
X146076580Y-81795827D01*
X146164512Y-81939531D01*
X146292345Y-81933368D01*
X146332223Y-81900888D01*
X146370966Y-81784696D01*
X146388569Y-81578986D01*
X146388667Y-81562222D01*
X146377518Y-81381471D01*
X146311566Y-81301137D01*
X146142051Y-81280587D01*
X146050000Y-81280000D01*
X145819119Y-81298959D01*
G36*
X143596546Y-80961692D02*
X143517827Y-81040426D01*
X143510000Y-81110666D01*
X143569869Y-81252170D01*
X143679334Y-81280000D01*
X143820838Y-81339868D01*
X143848667Y-81449333D01*
X143903090Y-81581069D01*
X144016489Y-81617448D01*
X144114055Y-81538957D01*
X144121293Y-81520454D01*
X144133909Y-81369070D01*
X144118739Y-81181788D01*
X144071219Y-81016324D01*
X143957345Y-80950905D01*
X143796724Y-80941333D01*
X143596546Y-80961692D01*
X143596546Y-80961692D01*
G37*
X143596546Y-80961692D02*
X143517827Y-81040426D01*
X143510000Y-81110666D01*
X143569869Y-81252170D01*
X143679334Y-81280000D01*
X143820838Y-81339868D01*
X143848667Y-81449333D01*
X143903090Y-81581069D01*
X144016489Y-81617448D01*
X144114055Y-81538957D01*
X144121293Y-81520454D01*
X144133909Y-81369070D01*
X144118739Y-81181788D01*
X144071219Y-81016324D01*
X143957345Y-80950905D01*
X143796724Y-80941333D01*
X143596546Y-80961692D01*
G36*
X149923500Y-79370308D02*
X149681339Y-79393374D01*
X149563338Y-79422309D01*
X149524859Y-79476427D01*
X149521334Y-79544333D01*
X149457074Y-79638264D01*
X149251989Y-79671103D01*
X149225000Y-79671333D01*
X149020761Y-79690275D01*
X148938354Y-79764222D01*
X148928667Y-79840666D01*
X148900267Y-79951450D01*
X148785478Y-80000412D01*
X148590000Y-80010000D01*
X148368432Y-80024200D01*
X148270508Y-80081594D01*
X148251334Y-80179333D01*
X148218186Y-80296041D01*
X148088778Y-80343131D01*
X147955000Y-80348666D01*
X147735827Y-80376206D01*
X147659203Y-80464100D01*
X147658667Y-80475666D01*
X147637988Y-80555999D01*
X147549142Y-80601771D01*
X147351922Y-80626905D01*
X147194577Y-80636369D01*
X147043689Y-80708017D01*
X146997869Y-80793166D01*
X147009014Y-80889212D01*
X147118049Y-80932557D01*
X147313792Y-80941333D01*
X147551608Y-80921111D01*
X147651334Y-80853786D01*
X147658667Y-80814333D01*
X147700572Y-80709034D01*
X147848458Y-80673947D01*
X148024758Y-80683965D01*
X148172599Y-80625859D01*
X148225133Y-80524382D01*
X148302441Y-80398478D01*
X148476643Y-80351327D01*
X148565468Y-80348666D01*
X148785247Y-80321184D01*
X148889251Y-80223118D01*
X148904135Y-80179333D01*
X148986371Y-80055411D01*
X149173891Y-80011320D01*
X149234875Y-80010000D01*
X149434941Y-79989599D01*
X149513557Y-79910726D01*
X149521334Y-79840666D01*
X149549734Y-79729882D01*
X149664523Y-79680920D01*
X149860000Y-79671333D01*
X150082736Y-79656429D01*
X150180863Y-79597954D01*
X150198667Y-79509365D01*
X150165775Y-79398379D01*
X150036924Y-79365073D01*
X149923500Y-79370308D01*
X149923500Y-79370308D01*
G37*
X149923500Y-79370308D02*
X149681339Y-79393374D01*
X149563338Y-79422309D01*
X149524859Y-79476427D01*
X149521334Y-79544333D01*
X149457074Y-79638264D01*
X149251989Y-79671103D01*
X149225000Y-79671333D01*
X149020761Y-79690275D01*
X148938354Y-79764222D01*
X148928667Y-79840666D01*
X148900267Y-79951450D01*
X148785478Y-80000412D01*
X148590000Y-80010000D01*
X148368432Y-80024200D01*
X148270508Y-80081594D01*
X148251334Y-80179333D01*
X148218186Y-80296041D01*
X148088778Y-80343131D01*
X147955000Y-80348666D01*
X147735827Y-80376206D01*
X147659203Y-80464100D01*
X147658667Y-80475666D01*
X147637988Y-80555999D01*
X147549142Y-80601771D01*
X147351922Y-80626905D01*
X147194577Y-80636369D01*
X147043689Y-80708017D01*
X146997869Y-80793166D01*
X147009014Y-80889212D01*
X147118049Y-80932557D01*
X147313792Y-80941333D01*
X147551608Y-80921111D01*
X147651334Y-80853786D01*
X147658667Y-80814333D01*
X147700572Y-80709034D01*
X147848458Y-80673947D01*
X148024758Y-80683965D01*
X148172599Y-80625859D01*
X148225133Y-80524382D01*
X148302441Y-80398478D01*
X148476643Y-80351327D01*
X148565468Y-80348666D01*
X148785247Y-80321184D01*
X148889251Y-80223118D01*
X148904135Y-80179333D01*
X148986371Y-80055411D01*
X149173891Y-80011320D01*
X149234875Y-80010000D01*
X149434941Y-79989599D01*
X149513557Y-79910726D01*
X149521334Y-79840666D01*
X149549734Y-79729882D01*
X149664523Y-79680920D01*
X149860000Y-79671333D01*
X150082736Y-79656429D01*
X150180863Y-79597954D01*
X150198667Y-79509365D01*
X150165775Y-79398379D01*
X150036924Y-79365073D01*
X149923500Y-79370308D01*
G36*
X144875149Y-80366205D02*
X144785472Y-80425957D01*
X144780000Y-80460680D01*
X144850981Y-80578592D01*
X144949334Y-80627198D01*
X145087034Y-80719844D01*
X145118667Y-80806406D01*
X145179601Y-80913024D01*
X145301646Y-80942169D01*
X145390525Y-80877833D01*
X145411398Y-80751429D01*
X145416688Y-80602666D01*
X145391892Y-80460126D01*
X145288272Y-80391798D01*
X145097500Y-80364722D01*
X144875149Y-80366205D01*
X144875149Y-80366205D01*
G37*
X144875149Y-80366205D02*
X144785472Y-80425957D01*
X144780000Y-80460680D01*
X144850981Y-80578592D01*
X144949334Y-80627198D01*
X145087034Y-80719844D01*
X145118667Y-80806406D01*
X145179601Y-80913024D01*
X145301646Y-80942169D01*
X145390525Y-80877833D01*
X145411398Y-80751429D01*
X145416688Y-80602666D01*
X145391892Y-80460126D01*
X145288272Y-80391798D01*
X145097500Y-80364722D01*
X144875149Y-80366205D01*
G36*
X142668959Y-80030138D02*
X142586666Y-80105764D01*
X142578667Y-80169458D01*
X142651700Y-80319020D01*
X142756519Y-80375426D01*
X142874268Y-80445629D01*
X142878523Y-80512301D01*
X142898944Y-80584641D01*
X142997004Y-80602666D01*
X143116730Y-80571337D01*
X143165209Y-80446739D01*
X143171334Y-80306333D01*
X143158227Y-80107721D01*
X143084281Y-80026269D01*
X142897556Y-80010036D01*
X142875000Y-80010000D01*
X142668959Y-80030138D01*
X142668959Y-80030138D01*
G37*
X142668959Y-80030138D02*
X142586666Y-80105764D01*
X142578667Y-80169458D01*
X142651700Y-80319020D01*
X142756519Y-80375426D01*
X142874268Y-80445629D01*
X142878523Y-80512301D01*
X142898944Y-80584641D01*
X142997004Y-80602666D01*
X143116730Y-80571337D01*
X143165209Y-80446739D01*
X143171334Y-80306333D01*
X143158227Y-80107721D01*
X143084281Y-80026269D01*
X142897556Y-80010036D01*
X142875000Y-80010000D01*
X142668959Y-80030138D01*
G36*
X146067354Y-79732661D02*
X146050000Y-79835555D01*
X146107287Y-79980501D01*
X146219334Y-80010000D01*
X146360838Y-80069868D01*
X146388667Y-80179333D01*
X146443599Y-80306204D01*
X146558159Y-80354050D01*
X146656995Y-80293597D01*
X146661104Y-80285166D01*
X146680831Y-80161839D01*
X146687267Y-79967666D01*
X146668564Y-79799084D01*
X146583123Y-79720673D01*
X146380833Y-79688509D01*
X146367500Y-79687389D01*
X146157563Y-79683274D01*
X146067354Y-79732661D01*
X146067354Y-79732661D01*
G37*
X146067354Y-79732661D02*
X146050000Y-79835555D01*
X146107287Y-79980501D01*
X146219334Y-80010000D01*
X146360838Y-80069868D01*
X146388667Y-80179333D01*
X146443599Y-80306204D01*
X146558159Y-80354050D01*
X146656995Y-80293597D01*
X146661104Y-80285166D01*
X146680831Y-80161839D01*
X146687267Y-79967666D01*
X146668564Y-79799084D01*
X146583123Y-79720673D01*
X146380833Y-79688509D01*
X146367500Y-79687389D01*
X146157563Y-79683274D01*
X146067354Y-79732661D01*
G36*
X144077207Y-79363414D02*
X144055522Y-79368642D01*
X143911050Y-79448810D01*
X143848940Y-79561718D01*
X143885718Y-79651611D01*
X143965792Y-79671333D01*
X144079516Y-79742268D01*
X144127199Y-79840666D01*
X144219845Y-79978366D01*
X144306407Y-80010000D01*
X144404730Y-79954204D01*
X144440541Y-79768433D01*
X144441334Y-79718663D01*
X144407703Y-79466841D01*
X144293154Y-79354618D01*
X144077207Y-79363414D01*
X144077207Y-79363414D01*
G37*
X144077207Y-79363414D02*
X144055522Y-79368642D01*
X143911050Y-79448810D01*
X143848940Y-79561718D01*
X143885718Y-79651611D01*
X143965792Y-79671333D01*
X144079516Y-79742268D01*
X144127199Y-79840666D01*
X144219845Y-79978366D01*
X144306407Y-80010000D01*
X144404730Y-79954204D01*
X144440541Y-79768433D01*
X144441334Y-79718663D01*
X144407703Y-79466841D01*
X144293154Y-79354618D01*
X144077207Y-79363414D01*
G36*
X147421141Y-79112762D02*
X147317308Y-79193317D01*
X147343313Y-79287818D01*
X147489334Y-79357198D01*
X147627034Y-79449844D01*
X147658667Y-79536406D01*
X147729054Y-79648598D01*
X147823067Y-79671333D01*
X147933986Y-79640155D01*
X147973065Y-79516441D01*
X147971234Y-79375029D01*
X147948028Y-79180809D01*
X147872171Y-79097790D01*
X147690666Y-79078915D01*
X147637500Y-79078696D01*
X147421141Y-79112762D01*
X147421141Y-79112762D01*
G37*
X147421141Y-79112762D02*
X147317308Y-79193317D01*
X147343313Y-79287818D01*
X147489334Y-79357198D01*
X147627034Y-79449844D01*
X147658667Y-79536406D01*
X147729054Y-79648598D01*
X147823067Y-79671333D01*
X147933986Y-79640155D01*
X147973065Y-79516441D01*
X147971234Y-79375029D01*
X147948028Y-79180809D01*
X147872171Y-79097790D01*
X147690666Y-79078915D01*
X147637500Y-79078696D01*
X147421141Y-79112762D01*
G36*
X150908432Y-78754200D02*
X150810508Y-78811594D01*
X150791334Y-78909333D01*
X150758186Y-79026041D01*
X150628778Y-79073131D01*
X150495000Y-79078666D01*
X150287603Y-79117439D01*
X150188452Y-79211412D01*
X150222130Y-79327064D01*
X150279440Y-79372593D01*
X150430086Y-79396472D01*
X150614814Y-79351868D01*
X150757374Y-79265014D01*
X150791334Y-79196488D01*
X150848481Y-79096231D01*
X150974541Y-79085865D01*
X151101444Y-79155734D01*
X151154533Y-79248000D01*
X151242124Y-79397251D01*
X151368440Y-79395883D01*
X151412223Y-79360888D01*
X151450966Y-79244696D01*
X151468569Y-79038986D01*
X151468667Y-79022222D01*
X151457518Y-78841471D01*
X151391566Y-78761137D01*
X151222051Y-78740587D01*
X151130000Y-78740000D01*
X150908432Y-78754200D01*
X150908432Y-78754200D01*
G37*
X150908432Y-78754200D02*
X150810508Y-78811594D01*
X150791334Y-78909333D01*
X150758186Y-79026041D01*
X150628778Y-79073131D01*
X150495000Y-79078666D01*
X150287603Y-79117439D01*
X150188452Y-79211412D01*
X150222130Y-79327064D01*
X150279440Y-79372593D01*
X150430086Y-79396472D01*
X150614814Y-79351868D01*
X150757374Y-79265014D01*
X150791334Y-79196488D01*
X150848481Y-79096231D01*
X150974541Y-79085865D01*
X151101444Y-79155734D01*
X151154533Y-79248000D01*
X151242124Y-79397251D01*
X151368440Y-79395883D01*
X151412223Y-79360888D01*
X151450966Y-79244696D01*
X151468569Y-79038986D01*
X151468667Y-79022222D01*
X151457518Y-78841471D01*
X151391566Y-78761137D01*
X151222051Y-78740587D01*
X151130000Y-78740000D01*
X150908432Y-78754200D01*
G36*
X145210761Y-78758941D02*
X145128354Y-78832888D01*
X145118667Y-78909333D01*
X145167286Y-79046661D01*
X145235340Y-79078666D01*
X145367996Y-79142912D01*
X145468749Y-79254480D01*
X145577238Y-79364656D01*
X145648409Y-79367368D01*
X145691686Y-79246277D01*
X145711239Y-79037857D01*
X145711334Y-79022222D01*
X145697249Y-78832961D01*
X145620462Y-78755336D01*
X145429176Y-78740015D01*
X145415000Y-78740000D01*
X145210761Y-78758941D01*
X145210761Y-78758941D01*
G37*
X145210761Y-78758941D02*
X145128354Y-78832888D01*
X145118667Y-78909333D01*
X145167286Y-79046661D01*
X145235340Y-79078666D01*
X145367996Y-79142912D01*
X145468749Y-79254480D01*
X145577238Y-79364656D01*
X145648409Y-79367368D01*
X145691686Y-79246277D01*
X145711239Y-79037857D01*
X145711334Y-79022222D01*
X145697249Y-78832961D01*
X145620462Y-78755336D01*
X145429176Y-78740015D01*
X145415000Y-78740000D01*
X145210761Y-78758941D01*
G36*
X148676745Y-78421638D02*
X148597892Y-78500191D01*
X148590000Y-78570666D01*
X148649869Y-78712170D01*
X148759334Y-78740000D01*
X148900838Y-78799868D01*
X148928667Y-78909333D01*
X148988081Y-79046125D01*
X149115649Y-79082081D01*
X149194190Y-79038921D01*
X149211724Y-78936595D01*
X149203010Y-78737125D01*
X149199038Y-78700254D01*
X149160242Y-78499920D01*
X149071468Y-78417418D01*
X148877337Y-78401333D01*
X148877071Y-78401333D01*
X148676745Y-78421638D01*
X148676745Y-78421638D01*
G37*
X148676745Y-78421638D02*
X148597892Y-78500191D01*
X148590000Y-78570666D01*
X148649869Y-78712170D01*
X148759334Y-78740000D01*
X148900838Y-78799868D01*
X148928667Y-78909333D01*
X148988081Y-79046125D01*
X149115649Y-79082081D01*
X149194190Y-79038921D01*
X149211724Y-78936595D01*
X149203010Y-78737125D01*
X149199038Y-78700254D01*
X149160242Y-78499920D01*
X149071468Y-78417418D01*
X148877337Y-78401333D01*
X148877071Y-78401333D01*
X148676745Y-78421638D01*
G36*
X152400871Y-78106498D02*
X152176550Y-78137398D01*
X152081536Y-78236577D01*
X152077163Y-78254665D01*
X152108771Y-78374837D01*
X152224459Y-78401333D01*
X152370119Y-78458058D01*
X152400000Y-78570666D01*
X152459016Y-78711365D01*
X152574445Y-78740000D01*
X152687793Y-78715863D01*
X152728793Y-78612388D01*
X152722611Y-78422500D01*
X152693211Y-78214525D01*
X152618149Y-78125838D01*
X152446555Y-78106474D01*
X152400871Y-78106498D01*
X152400871Y-78106498D01*
G37*
X152400871Y-78106498D02*
X152176550Y-78137398D01*
X152081536Y-78236577D01*
X152077163Y-78254665D01*
X152108771Y-78374837D01*
X152224459Y-78401333D01*
X152370119Y-78458058D01*
X152400000Y-78570666D01*
X152459016Y-78711365D01*
X152574445Y-78740000D01*
X152687793Y-78715863D01*
X152728793Y-78612388D01*
X152722611Y-78422500D01*
X152693211Y-78214525D01*
X152618149Y-78125838D01*
X152446555Y-78106474D01*
X152400871Y-78106498D01*
G36*
X146460672Y-78165562D02*
X146401737Y-78280020D01*
X146429287Y-78377431D01*
X146503754Y-78401333D01*
X146629578Y-78471925D01*
X146685000Y-78570666D01*
X146777588Y-78724746D01*
X146882473Y-78732287D01*
X146961618Y-78608427D01*
X146981334Y-78452725D01*
X146937194Y-78209581D01*
X146793819Y-78099313D01*
X146588280Y-78097986D01*
X146460672Y-78165562D01*
X146460672Y-78165562D01*
G37*
X146460672Y-78165562D02*
X146401737Y-78280020D01*
X146429287Y-78377431D01*
X146503754Y-78401333D01*
X146629578Y-78471925D01*
X146685000Y-78570666D01*
X146777588Y-78724746D01*
X146882473Y-78732287D01*
X146961618Y-78608427D01*
X146981334Y-78452725D01*
X146937194Y-78209581D01*
X146793819Y-78099313D01*
X146588280Y-78097986D01*
X146460672Y-78165562D01*
G36*
X149948888Y-77844904D02*
X149856433Y-77929484D01*
X149895472Y-78026210D01*
X150029334Y-78087198D01*
X150167034Y-78179844D01*
X150198667Y-78266406D01*
X150261594Y-78376003D01*
X150390482Y-78398367D01*
X150484909Y-78332995D01*
X150506271Y-78200471D01*
X150496383Y-78100162D01*
X150467522Y-77932520D01*
X150459145Y-77872166D01*
X150380026Y-77830098D01*
X150194027Y-77809180D01*
X150156334Y-77808666D01*
X149948888Y-77844904D01*
X149948888Y-77844904D01*
G37*
X149948888Y-77844904D02*
X149856433Y-77929484D01*
X149895472Y-78026210D01*
X150029334Y-78087198D01*
X150167034Y-78179844D01*
X150198667Y-78266406D01*
X150261594Y-78376003D01*
X150390482Y-78398367D01*
X150484909Y-78332995D01*
X150506271Y-78200471D01*
X150496383Y-78100162D01*
X150467522Y-77932520D01*
X150459145Y-77872166D01*
X150380026Y-77830098D01*
X150194027Y-77809180D01*
X150156334Y-77808666D01*
X149948888Y-77844904D01*
G36*
X153439119Y-77488959D02*
X153341018Y-77554656D01*
X153331334Y-77604926D01*
X153402138Y-77734923D01*
X153492839Y-77782087D01*
X153648548Y-77892554D01*
X153696580Y-77985827D01*
X153784512Y-78129531D01*
X153912345Y-78123368D01*
X153952223Y-78090888D01*
X153990966Y-77974696D01*
X154008569Y-77768986D01*
X154008667Y-77752222D01*
X153997518Y-77571471D01*
X153931566Y-77491137D01*
X153762051Y-77470587D01*
X153670000Y-77470000D01*
X153439119Y-77488959D01*
X153439119Y-77488959D01*
G37*
X153439119Y-77488959D02*
X153341018Y-77554656D01*
X153331334Y-77604926D01*
X153402138Y-77734923D01*
X153492839Y-77782087D01*
X153648548Y-77892554D01*
X153696580Y-77985827D01*
X153784512Y-78129531D01*
X153912345Y-78123368D01*
X153952223Y-78090888D01*
X153990966Y-77974696D01*
X154008569Y-77768986D01*
X154008667Y-77752222D01*
X153997518Y-77571471D01*
X153931566Y-77491137D01*
X153762051Y-77470587D01*
X153670000Y-77470000D01*
X153439119Y-77488959D01*
G36*
X147750761Y-77488941D02*
X147668354Y-77562888D01*
X147658667Y-77639333D01*
X147697264Y-77776861D01*
X147750929Y-77808666D01*
X147868650Y-77868476D01*
X147985011Y-77983806D01*
X148108789Y-78092069D01*
X148189082Y-78096695D01*
X148231887Y-77976113D01*
X148251238Y-77767974D01*
X148251334Y-77752222D01*
X148237249Y-77562961D01*
X148160462Y-77485336D01*
X147969176Y-77470015D01*
X147955000Y-77470000D01*
X147750761Y-77488941D01*
X147750761Y-77488941D01*
G37*
X147750761Y-77488941D02*
X147668354Y-77562888D01*
X147658667Y-77639333D01*
X147697264Y-77776861D01*
X147750929Y-77808666D01*
X147868650Y-77868476D01*
X147985011Y-77983806D01*
X148108789Y-78092069D01*
X148189082Y-78096695D01*
X148231887Y-77976113D01*
X148251238Y-77767974D01*
X148251334Y-77752222D01*
X148237249Y-77562961D01*
X148160462Y-77485336D01*
X147969176Y-77470015D01*
X147955000Y-77470000D01*
X147750761Y-77488941D01*
G36*
X151145405Y-77196355D02*
X151130000Y-77295555D01*
X151187287Y-77440501D01*
X151299334Y-77470000D01*
X151440838Y-77529868D01*
X151468667Y-77639333D01*
X151527547Y-77772363D01*
X151651979Y-77809940D01*
X151755813Y-77738866D01*
X151778958Y-77610993D01*
X151773017Y-77421366D01*
X151733665Y-77253292D01*
X151626988Y-77175804D01*
X151438541Y-77147389D01*
X151232429Y-77143897D01*
X151145405Y-77196355D01*
X151145405Y-77196355D01*
G37*
X151145405Y-77196355D02*
X151130000Y-77295555D01*
X151187287Y-77440501D01*
X151299334Y-77470000D01*
X151440838Y-77529868D01*
X151468667Y-77639333D01*
X151527547Y-77772363D01*
X151651979Y-77809940D01*
X151755813Y-77738866D01*
X151778958Y-77610993D01*
X151773017Y-77421366D01*
X151733665Y-77253292D01*
X151626988Y-77175804D01*
X151438541Y-77147389D01*
X151232429Y-77143897D01*
X151145405Y-77196355D01*
G36*
X149017222Y-76876929D02*
X148944785Y-76983166D01*
X148976102Y-77108963D01*
X149043754Y-77131333D01*
X149169578Y-77201925D01*
X149225000Y-77300666D01*
X149321276Y-77438006D01*
X149405150Y-77470000D01*
X149488878Y-77422528D01*
X149511216Y-77258256D01*
X149505278Y-77152500D01*
X149474374Y-76943629D01*
X149399740Y-76854376D01*
X149237672Y-76835024D01*
X149226160Y-76835000D01*
X149017222Y-76876929D01*
X149017222Y-76876929D01*
G37*
X149017222Y-76876929D02*
X148944785Y-76983166D01*
X148976102Y-77108963D01*
X149043754Y-77131333D01*
X149169578Y-77201925D01*
X149225000Y-77300666D01*
X149321276Y-77438006D01*
X149405150Y-77470000D01*
X149488878Y-77422528D01*
X149511216Y-77258256D01*
X149505278Y-77152500D01*
X149474374Y-76943629D01*
X149399740Y-76854376D01*
X149237672Y-76835024D01*
X149226160Y-76835000D01*
X149017222Y-76876929D01*
G36*
X152485361Y-76575582D02*
X152396368Y-76661406D01*
X152439358Y-76758754D01*
X152569334Y-76817198D01*
X152707034Y-76909844D01*
X152738667Y-76996406D01*
X152790938Y-77110902D01*
X152900238Y-77118384D01*
X152995295Y-77022352D01*
X153008343Y-76983166D01*
X153025718Y-76726462D01*
X152920166Y-76582479D01*
X152690126Y-76538666D01*
X152485361Y-76575582D01*
X152485361Y-76575582D01*
G37*
X152485361Y-76575582D02*
X152396368Y-76661406D01*
X152439358Y-76758754D01*
X152569334Y-76817198D01*
X152707034Y-76909844D01*
X152738667Y-76996406D01*
X152790938Y-77110902D01*
X152900238Y-77118384D01*
X152995295Y-77022352D01*
X153008343Y-76983166D01*
X153025718Y-76726462D01*
X152920166Y-76582479D01*
X152690126Y-76538666D01*
X152485361Y-76575582D01*
G36*
X150290761Y-76218941D02*
X150208354Y-76292888D01*
X150198667Y-76369333D01*
X150252831Y-76508250D01*
X150328324Y-76538666D01*
X150469596Y-76607163D01*
X150506716Y-76665666D01*
X150600969Y-76793310D01*
X150702163Y-76777681D01*
X150775343Y-76639577D01*
X150791334Y-76496333D01*
X150778227Y-76297721D01*
X150704281Y-76216269D01*
X150517556Y-76200036D01*
X150495000Y-76200000D01*
X150290761Y-76218941D01*
X150290761Y-76218941D01*
G37*
X150290761Y-76218941D02*
X150208354Y-76292888D01*
X150198667Y-76369333D01*
X150252831Y-76508250D01*
X150328324Y-76538666D01*
X150469596Y-76607163D01*
X150506716Y-76665666D01*
X150600969Y-76793310D01*
X150702163Y-76777681D01*
X150775343Y-76639577D01*
X150791334Y-76496333D01*
X150778227Y-76297721D01*
X150704281Y-76216269D01*
X150517556Y-76200036D01*
X150495000Y-76200000D01*
X150290761Y-76218941D01*
G36*
X151701018Y-75582657D02*
X151521071Y-75659273D01*
X151476207Y-75767312D01*
X151575254Y-75864302D01*
X151638000Y-75885865D01*
X151775700Y-75978510D01*
X151807334Y-76065073D01*
X151871697Y-76182331D01*
X151934334Y-76200000D01*
X152029010Y-76134562D01*
X152061225Y-75926909D01*
X152061334Y-75908663D01*
X152041621Y-75673149D01*
X151957894Y-75571409D01*
X151773269Y-75570072D01*
X151701018Y-75582657D01*
X151701018Y-75582657D01*
G37*
X151701018Y-75582657D02*
X151521071Y-75659273D01*
X151476207Y-75767312D01*
X151575254Y-75864302D01*
X151638000Y-75885865D01*
X151775700Y-75978510D01*
X151807334Y-76065073D01*
X151871697Y-76182331D01*
X151934334Y-76200000D01*
X152029010Y-76134562D01*
X152061225Y-75926909D01*
X152061334Y-75908663D01*
X152041621Y-75673149D01*
X151957894Y-75571409D01*
X151773269Y-75570072D01*
X151701018Y-75582657D01*
D12*
X142724095Y-66492381D02*
X142724095Y-65492381D01*
X142343142Y-65492381D01*
X142247904Y-65540000D01*
X142200285Y-65587619D01*
X142152666Y-65682857D01*
X142152666Y-65825714D01*
X142200285Y-65920952D01*
X142247904Y-65968571D01*
X142343142Y-66016190D01*
X142724095Y-66016190D01*
X141295523Y-65492381D02*
X141486000Y-65492381D01*
X141581238Y-65540000D01*
X141628857Y-65587619D01*
X141724095Y-65730476D01*
X141771714Y-65920952D01*
X141771714Y-66301905D01*
X141724095Y-66397143D01*
X141676476Y-66444762D01*
X141581238Y-66492381D01*
X141390761Y-66492381D01*
X141295523Y-66444762D01*
X141247904Y-66397143D01*
X141200285Y-66301905D01*
X141200285Y-66063810D01*
X141247904Y-65968571D01*
X141295523Y-65920952D01*
X141390761Y-65873333D01*
X141581238Y-65873333D01*
X141676476Y-65920952D01*
X141724095Y-65968571D01*
X141771714Y-66063810D01*
X149494857Y-128101286D02*
X149923429Y-128101286D01*
X149709143Y-128101286D02*
X149709143Y-127351286D01*
X149780572Y-127458429D01*
X149852000Y-127529857D01*
X149923429Y-127565571D01*
X148816286Y-127351286D02*
X149173429Y-127351286D01*
X149209143Y-127708429D01*
X149173429Y-127672714D01*
X149102000Y-127637000D01*
X148923429Y-127637000D01*
X148852000Y-127672714D01*
X148816286Y-127708429D01*
X148780571Y-127779857D01*
X148780571Y-127958429D01*
X148816286Y-128029857D01*
X148852000Y-128065571D01*
X148923429Y-128101286D01*
X149102000Y-128101286D01*
X149173429Y-128065571D01*
X149209143Y-128029857D01*
X184697714Y-128101286D02*
X185126286Y-128101286D01*
X184912000Y-128101286D02*
X184912000Y-127351286D01*
X184983429Y-127458429D01*
X185054857Y-127529857D01*
X185126286Y-127565571D01*
X172020952Y-128706571D02*
X171878095Y-128754190D01*
X171830476Y-128801810D01*
X171782857Y-128897048D01*
X171782857Y-129039905D01*
X171830476Y-129135143D01*
X171878095Y-129182762D01*
X171973333Y-129230381D01*
X172354286Y-129230381D01*
X172354286Y-128230381D01*
X172020952Y-128230381D01*
X171925714Y-128278000D01*
X171878095Y-128325619D01*
X171830476Y-128420857D01*
X171830476Y-128516095D01*
X171878095Y-128611333D01*
X171925714Y-128658952D01*
X172020952Y-128706571D01*
X172354286Y-128706571D01*
X170925714Y-129230381D02*
X170925714Y-128706571D01*
X170973333Y-128611333D01*
X171068571Y-128563714D01*
X171259048Y-128563714D01*
X171354286Y-128611333D01*
X170925714Y-129182762D02*
X171020952Y-129230381D01*
X171259048Y-129230381D01*
X171354286Y-129182762D01*
X171401905Y-129087524D01*
X171401905Y-128992286D01*
X171354286Y-128897048D01*
X171259048Y-128849429D01*
X171020952Y-128849429D01*
X170925714Y-128801810D01*
X170020952Y-129182762D02*
X170116190Y-129230381D01*
X170306667Y-129230381D01*
X170401905Y-129182762D01*
X170449524Y-129135143D01*
X170497143Y-129039905D01*
X170497143Y-128754190D01*
X170449524Y-128658952D01*
X170401905Y-128611333D01*
X170306667Y-128563714D01*
X170116190Y-128563714D01*
X170020952Y-128611333D01*
X169592381Y-129230381D02*
X169592381Y-128230381D01*
X169497143Y-128849429D02*
X169211428Y-129230381D01*
X169211428Y-128563714D02*
X169592381Y-128944667D01*
X168068571Y-128182762D02*
X168925714Y-129468476D01*
X167401904Y-128706571D02*
X167259047Y-128754190D01*
X167211428Y-128801810D01*
X167163809Y-128897048D01*
X167163809Y-129039905D01*
X167211428Y-129135143D01*
X167259047Y-129182762D01*
X167354285Y-129230381D01*
X167735238Y-129230381D01*
X167735238Y-128230381D01*
X167401904Y-128230381D01*
X167306666Y-128278000D01*
X167259047Y-128325619D01*
X167211428Y-128420857D01*
X167211428Y-128516095D01*
X167259047Y-128611333D01*
X167306666Y-128658952D01*
X167401904Y-128706571D01*
X167735238Y-128706571D01*
X166592381Y-129230381D02*
X166687619Y-129182762D01*
X166735238Y-129135143D01*
X166782857Y-129039905D01*
X166782857Y-128754190D01*
X166735238Y-128658952D01*
X166687619Y-128611333D01*
X166592381Y-128563714D01*
X166449523Y-128563714D01*
X166354285Y-128611333D01*
X166306666Y-128658952D01*
X166259047Y-128754190D01*
X166259047Y-129039905D01*
X166306666Y-129135143D01*
X166354285Y-129182762D01*
X166449523Y-129230381D01*
X166592381Y-129230381D01*
X165973333Y-128563714D02*
X165592381Y-128563714D01*
X165830476Y-128230381D02*
X165830476Y-129087524D01*
X165782857Y-129182762D01*
X165687619Y-129230381D01*
X165592381Y-129230381D01*
X165401904Y-128563714D02*
X165020952Y-128563714D01*
X165259047Y-128230381D02*
X165259047Y-129087524D01*
X165211428Y-129182762D01*
X165116190Y-129230381D01*
X165020952Y-129230381D01*
X164544761Y-129230381D02*
X164639999Y-129182762D01*
X164687618Y-129135143D01*
X164735237Y-129039905D01*
X164735237Y-128754190D01*
X164687618Y-128658952D01*
X164639999Y-128611333D01*
X164544761Y-128563714D01*
X164401903Y-128563714D01*
X164306665Y-128611333D01*
X164259046Y-128658952D01*
X164211427Y-128754190D01*
X164211427Y-129039905D01*
X164259046Y-129135143D01*
X164306665Y-129182762D01*
X164401903Y-129230381D01*
X164544761Y-129230381D01*
X163782856Y-129230381D02*
X163782856Y-128563714D01*
X163782856Y-128658952D02*
X163735237Y-128611333D01*
X163639999Y-128563714D01*
X163497141Y-128563714D01*
X163401903Y-128611333D01*
X163354284Y-128706571D01*
X163354284Y-129230381D01*
X163354284Y-128706571D02*
X163306665Y-128611333D01*
X163211427Y-128563714D01*
X163068570Y-128563714D01*
X162973332Y-128611333D01*
X162925713Y-128706571D01*
X162925713Y-129230381D01*
X149709143Y-129833810D02*
X149756762Y-129786191D01*
X149804381Y-129643334D01*
X149804381Y-129548096D01*
X149756762Y-129405238D01*
X149661524Y-129310000D01*
X149566286Y-129262381D01*
X149375810Y-129214762D01*
X149232952Y-129214762D01*
X149042476Y-129262381D01*
X148947238Y-129310000D01*
X148852000Y-129405238D01*
X148804381Y-129548096D01*
X148804381Y-129643334D01*
X148852000Y-129786191D01*
X148899619Y-129833810D01*
X149709143Y-130833810D02*
X149756762Y-130786191D01*
X149804381Y-130643334D01*
X149804381Y-130548096D01*
X149756762Y-130405238D01*
X149661524Y-130310000D01*
X149566286Y-130262381D01*
X149375810Y-130214762D01*
X149232952Y-130214762D01*
X149042476Y-130262381D01*
X148947238Y-130310000D01*
X148852000Y-130405238D01*
X148804381Y-130548096D01*
X148804381Y-130643334D01*
X148852000Y-130786191D01*
X148899619Y-130833810D01*
X148804381Y-131119524D02*
X148804381Y-131690953D01*
X149804381Y-131405238D02*
X148804381Y-131405238D01*
X149804381Y-132500477D02*
X149804381Y-132024286D01*
X148804381Y-132024286D01*
X148632000Y-129024286D02*
X148632000Y-132595715D01*
X152344381Y-130651334D02*
X151868190Y-130318000D01*
X152344381Y-130079905D02*
X151344381Y-130079905D01*
X151344381Y-130460858D01*
X151392000Y-130556096D01*
X151439619Y-130603715D01*
X151534857Y-130651334D01*
X151677714Y-130651334D01*
X151772952Y-130603715D01*
X151820571Y-130556096D01*
X151868190Y-130460858D01*
X151868190Y-130079905D01*
X152344381Y-131079905D02*
X151344381Y-131079905D01*
X151344381Y-131318000D01*
X151392000Y-131460858D01*
X151487238Y-131556096D01*
X151582476Y-131603715D01*
X151772952Y-131651334D01*
X151915810Y-131651334D01*
X152106286Y-131603715D01*
X152201524Y-131556096D01*
X152296762Y-131460858D01*
X152344381Y-131318000D01*
X152344381Y-131079905D01*
X151344381Y-132556096D02*
X151344381Y-132079905D01*
X151820571Y-132032286D01*
X151772952Y-132079905D01*
X151725333Y-132175143D01*
X151725333Y-132413239D01*
X151772952Y-132508477D01*
X151820571Y-132556096D01*
X151915810Y-132603715D01*
X152153905Y-132603715D01*
X152249143Y-132556096D01*
X152296762Y-132508477D01*
X152344381Y-132413239D01*
X152344381Y-132175143D01*
X152296762Y-132079905D01*
X152249143Y-132032286D01*
X157376762Y-131064095D02*
X157424381Y-131206952D01*
X157424381Y-131445048D01*
X157376762Y-131540286D01*
X157329143Y-131587905D01*
X157233905Y-131635524D01*
X157138667Y-131635524D01*
X157043429Y-131587905D01*
X156995810Y-131540286D01*
X156948190Y-131445048D01*
X156900571Y-131254571D01*
X156852952Y-131159333D01*
X156805333Y-131111714D01*
X156710095Y-131064095D01*
X156614857Y-131064095D01*
X156519619Y-131111714D01*
X156472000Y-131159333D01*
X156424381Y-131254571D01*
X156424381Y-131492667D01*
X156472000Y-131635524D01*
X156424381Y-132540286D02*
X156424381Y-132064095D01*
X156900571Y-132016476D01*
X156852952Y-132064095D01*
X156805333Y-132159333D01*
X156805333Y-132397429D01*
X156852952Y-132492667D01*
X156900571Y-132540286D01*
X156995810Y-132587905D01*
X157233905Y-132587905D01*
X157329143Y-132540286D01*
X157376762Y-132492667D01*
X157424381Y-132397429D01*
X157424381Y-132159333D01*
X157376762Y-132064095D01*
X157329143Y-132016476D01*
X156252000Y-130873619D02*
X156252000Y-132778381D01*
X167584381Y-131087905D02*
X166584381Y-131087905D01*
X166584381Y-131326000D01*
X166632000Y-131468858D01*
X166727238Y-131564096D01*
X166822476Y-131611715D01*
X167012952Y-131659334D01*
X167155810Y-131659334D01*
X167346286Y-131611715D01*
X167441524Y-131564096D01*
X167536762Y-131468858D01*
X167584381Y-131326000D01*
X167584381Y-131087905D01*
X166679619Y-132040286D02*
X166632000Y-132087905D01*
X166584381Y-132183143D01*
X166584381Y-132421239D01*
X166632000Y-132516477D01*
X166679619Y-132564096D01*
X166774857Y-132611715D01*
X166870095Y-132611715D01*
X167012952Y-132564096D01*
X167584381Y-131992667D01*
X167584381Y-132611715D01*
X165044381Y-131087905D02*
X164044381Y-131087905D01*
X164044381Y-131326000D01*
X164092000Y-131468858D01*
X164187238Y-131564096D01*
X164282476Y-131611715D01*
X164472952Y-131659334D01*
X164615810Y-131659334D01*
X164806286Y-131611715D01*
X164901524Y-131564096D01*
X164996762Y-131468858D01*
X165044381Y-131326000D01*
X165044381Y-131087905D01*
X165044381Y-132611715D02*
X165044381Y-132040286D01*
X165044381Y-132326000D02*
X164044381Y-132326000D01*
X164187238Y-132230762D01*
X164282476Y-132135524D01*
X164330095Y-132040286D01*
X162504381Y-131087905D02*
X161504381Y-131087905D01*
X161504381Y-131326000D01*
X161552000Y-131468858D01*
X161647238Y-131564096D01*
X161742476Y-131611715D01*
X161932952Y-131659334D01*
X162075810Y-131659334D01*
X162266286Y-131611715D01*
X162361524Y-131564096D01*
X162456762Y-131468858D01*
X162504381Y-131326000D01*
X162504381Y-131087905D01*
X161504381Y-132278381D02*
X161504381Y-132373620D01*
X161552000Y-132468858D01*
X161599619Y-132516477D01*
X161694857Y-132564096D01*
X161885333Y-132611715D01*
X162123429Y-132611715D01*
X162313905Y-132564096D01*
X162409143Y-132516477D01*
X162456762Y-132468858D01*
X162504381Y-132373620D01*
X162504381Y-132278381D01*
X162456762Y-132183143D01*
X162409143Y-132135524D01*
X162313905Y-132087905D01*
X162123429Y-132040286D01*
X161885333Y-132040286D01*
X161694857Y-132087905D01*
X161599619Y-132135524D01*
X161552000Y-132183143D01*
X161504381Y-132278381D01*
X159964381Y-131087905D02*
X158964381Y-131087905D01*
X158964381Y-131326000D01*
X159012000Y-131468858D01*
X159107238Y-131564096D01*
X159202476Y-131611715D01*
X159392952Y-131659334D01*
X159535810Y-131659334D01*
X159726286Y-131611715D01*
X159821524Y-131564096D01*
X159916762Y-131468858D01*
X159964381Y-131326000D01*
X159964381Y-131087905D01*
X158964381Y-132516477D02*
X158964381Y-132326000D01*
X159012000Y-132230762D01*
X159059619Y-132183143D01*
X159202476Y-132087905D01*
X159392952Y-132040286D01*
X159773905Y-132040286D01*
X159869143Y-132087905D01*
X159916762Y-132135524D01*
X159964381Y-132230762D01*
X159964381Y-132421239D01*
X159916762Y-132516477D01*
X159869143Y-132564096D01*
X159773905Y-132611715D01*
X159535810Y-132611715D01*
X159440571Y-132564096D01*
X159392952Y-132516477D01*
X159345333Y-132421239D01*
X159345333Y-132230762D01*
X159392952Y-132135524D01*
X159440571Y-132087905D01*
X159535810Y-132040286D01*
X170124381Y-131087905D02*
X169124381Y-131087905D01*
X169124381Y-131326000D01*
X169172000Y-131468858D01*
X169267238Y-131564096D01*
X169362476Y-131611715D01*
X169552952Y-131659334D01*
X169695810Y-131659334D01*
X169886286Y-131611715D01*
X169981524Y-131564096D01*
X170076762Y-131468858D01*
X170124381Y-131326000D01*
X170124381Y-131087905D01*
X169124381Y-132564096D02*
X169124381Y-132087905D01*
X169600571Y-132040286D01*
X169552952Y-132087905D01*
X169505333Y-132183143D01*
X169505333Y-132421239D01*
X169552952Y-132516477D01*
X169600571Y-132564096D01*
X169695810Y-132611715D01*
X169933905Y-132611715D01*
X170029143Y-132564096D01*
X170076762Y-132516477D01*
X170124381Y-132421239D01*
X170124381Y-132183143D01*
X170076762Y-132087905D01*
X170029143Y-132040286D01*
X172664381Y-131087905D02*
X171664381Y-131087905D01*
X171664381Y-131326000D01*
X171712000Y-131468858D01*
X171807238Y-131564096D01*
X171902476Y-131611715D01*
X172092952Y-131659334D01*
X172235810Y-131659334D01*
X172426286Y-131611715D01*
X172521524Y-131564096D01*
X172616762Y-131468858D01*
X172664381Y-131326000D01*
X172664381Y-131087905D01*
X171997714Y-132516477D02*
X172664381Y-132516477D01*
X171616762Y-132278381D02*
X172331048Y-132040286D01*
X172331048Y-132659334D01*
X174918667Y-131111714D02*
X174918667Y-131587905D01*
X175204381Y-131016476D02*
X174204381Y-131349809D01*
X175204381Y-131683143D01*
X174204381Y-132206952D02*
X174204381Y-132302191D01*
X174252000Y-132397429D01*
X174299619Y-132445048D01*
X174394857Y-132492667D01*
X174585333Y-132540286D01*
X174823429Y-132540286D01*
X175013905Y-132492667D01*
X175109143Y-132445048D01*
X175156762Y-132397429D01*
X175204381Y-132302191D01*
X175204381Y-132206952D01*
X175156762Y-132111714D01*
X175109143Y-132064095D01*
X175013905Y-132016476D01*
X174823429Y-131968857D01*
X174585333Y-131968857D01*
X174394857Y-132016476D01*
X174299619Y-132064095D01*
X174252000Y-132111714D01*
X174204381Y-132206952D01*
X177458667Y-131111714D02*
X177458667Y-131587905D01*
X177744381Y-131016476D02*
X176744381Y-131349809D01*
X177744381Y-131683143D01*
X177744381Y-132540286D02*
X177744381Y-131968857D01*
X177744381Y-132254571D02*
X176744381Y-132254571D01*
X176887238Y-132159333D01*
X176982476Y-132064095D01*
X177030095Y-131968857D01*
X179998667Y-131111714D02*
X179998667Y-131587905D01*
X180284381Y-131016476D02*
X179284381Y-131349809D01*
X180284381Y-131683143D01*
X179379619Y-131968857D02*
X179332000Y-132016476D01*
X179284381Y-132111714D01*
X179284381Y-132349810D01*
X179332000Y-132445048D01*
X179379619Y-132492667D01*
X179474857Y-132540286D01*
X179570095Y-132540286D01*
X179712952Y-132492667D01*
X180284381Y-131921238D01*
X180284381Y-132540286D01*
X182538667Y-131111714D02*
X182538667Y-131587905D01*
X182824381Y-131016476D02*
X181824381Y-131349809D01*
X182824381Y-131683143D01*
X181824381Y-131921238D02*
X181824381Y-132540286D01*
X182205333Y-132206952D01*
X182205333Y-132349810D01*
X182252952Y-132445048D01*
X182300571Y-132492667D01*
X182395810Y-132540286D01*
X182633905Y-132540286D01*
X182729143Y-132492667D01*
X182776762Y-132445048D01*
X182824381Y-132349810D01*
X182824381Y-132064095D01*
X182776762Y-131968857D01*
X182729143Y-131921238D01*
X185316762Y-131064095D02*
X185364381Y-131206952D01*
X185364381Y-131445048D01*
X185316762Y-131540286D01*
X185269143Y-131587905D01*
X185173905Y-131635524D01*
X185078667Y-131635524D01*
X184983429Y-131587905D01*
X184935810Y-131540286D01*
X184888190Y-131445048D01*
X184840571Y-131254571D01*
X184792952Y-131159333D01*
X184745333Y-131111714D01*
X184650095Y-131064095D01*
X184554857Y-131064095D01*
X184459619Y-131111714D01*
X184412000Y-131159333D01*
X184364381Y-131254571D01*
X184364381Y-131492667D01*
X184412000Y-131635524D01*
X184697714Y-132492667D02*
X185364381Y-132492667D01*
X184316762Y-132254571D02*
X185031048Y-132016476D01*
X185031048Y-132635524D01*
X184192000Y-130873619D02*
X184192000Y-132778381D01*
X153884381Y-131635524D02*
X153884381Y-131159333D01*
X154360571Y-131111714D01*
X154312952Y-131159333D01*
X154265333Y-131254571D01*
X154265333Y-131492667D01*
X154312952Y-131587905D01*
X154360571Y-131635524D01*
X154455810Y-131683143D01*
X154693905Y-131683143D01*
X154789143Y-131635524D01*
X154836762Y-131587905D01*
X154884381Y-131492667D01*
X154884381Y-131254571D01*
X154836762Y-131159333D01*
X154789143Y-131111714D01*
X153884381Y-131968857D02*
X154884381Y-132302190D01*
X153884381Y-132635524D01*
X109978000Y-126081286D02*
X109478000Y-126081286D01*
X109799429Y-126831286D01*
X125007714Y-126831286D02*
X125436286Y-126831286D01*
X125222000Y-126831286D02*
X125222000Y-126081286D01*
X125293429Y-126188429D01*
X125364857Y-126259857D01*
X125436286Y-126295571D01*
X120887713Y-127200429D02*
X120780570Y-127236143D01*
X120744855Y-127271857D01*
X120709141Y-127343286D01*
X120709141Y-127450429D01*
X120744855Y-127521857D01*
X120780570Y-127557571D01*
X120851998Y-127593286D01*
X121137713Y-127593286D01*
X121137713Y-126843286D01*
X120887713Y-126843286D01*
X120816284Y-126879000D01*
X120780570Y-126914714D01*
X120744855Y-126986143D01*
X120744855Y-127057571D01*
X120780570Y-127129000D01*
X120816284Y-127164714D01*
X120887713Y-127200429D01*
X121137713Y-127200429D01*
X120066284Y-127593286D02*
X120066284Y-127200429D01*
X120101998Y-127129000D01*
X120173427Y-127093286D01*
X120316284Y-127093286D01*
X120387713Y-127129000D01*
X120066284Y-127557571D02*
X120137713Y-127593286D01*
X120316284Y-127593286D01*
X120387713Y-127557571D01*
X120423427Y-127486143D01*
X120423427Y-127414714D01*
X120387713Y-127343286D01*
X120316284Y-127307571D01*
X120137713Y-127307571D01*
X120066284Y-127271857D01*
X119387713Y-127557571D02*
X119459142Y-127593286D01*
X119601999Y-127593286D01*
X119673427Y-127557571D01*
X119709142Y-127521857D01*
X119744856Y-127450429D01*
X119744856Y-127236143D01*
X119709142Y-127164714D01*
X119673427Y-127129000D01*
X119601999Y-127093286D01*
X119459142Y-127093286D01*
X119387713Y-127129000D01*
X119066285Y-127593286D02*
X119066285Y-126843286D01*
X118994856Y-127307571D02*
X118780570Y-127593286D01*
X118780570Y-127093286D02*
X119066285Y-127379000D01*
X117923427Y-126807571D02*
X118566284Y-127771857D01*
X117423428Y-127200429D02*
X117316285Y-127236143D01*
X117280570Y-127271857D01*
X117244856Y-127343286D01*
X117244856Y-127450429D01*
X117280570Y-127521857D01*
X117316285Y-127557571D01*
X117387713Y-127593286D01*
X117673428Y-127593286D01*
X117673428Y-126843286D01*
X117423428Y-126843286D01*
X117351999Y-126879000D01*
X117316285Y-126914714D01*
X117280570Y-126986143D01*
X117280570Y-127057571D01*
X117316285Y-127129000D01*
X117351999Y-127164714D01*
X117423428Y-127200429D01*
X117673428Y-127200429D01*
X116816285Y-127593286D02*
X116887713Y-127557571D01*
X116923428Y-127521857D01*
X116959142Y-127450429D01*
X116959142Y-127236143D01*
X116923428Y-127164714D01*
X116887713Y-127129000D01*
X116816285Y-127093286D01*
X116709142Y-127093286D01*
X116637713Y-127129000D01*
X116601999Y-127164714D01*
X116566285Y-127236143D01*
X116566285Y-127450429D01*
X116601999Y-127521857D01*
X116637713Y-127557571D01*
X116709142Y-127593286D01*
X116816285Y-127593286D01*
X116351999Y-127093286D02*
X116066285Y-127093286D01*
X116244857Y-126843286D02*
X116244857Y-127486143D01*
X116209142Y-127557571D01*
X116137714Y-127593286D01*
X116066285Y-127593286D01*
X115923428Y-127093286D02*
X115637714Y-127093286D01*
X115816286Y-126843286D02*
X115816286Y-127486143D01*
X115780571Y-127557571D01*
X115709143Y-127593286D01*
X115637714Y-127593286D01*
X115280572Y-127593286D02*
X115352000Y-127557571D01*
X115387715Y-127521857D01*
X115423429Y-127450429D01*
X115423429Y-127236143D01*
X115387715Y-127164714D01*
X115352000Y-127129000D01*
X115280572Y-127093286D01*
X115173429Y-127093286D01*
X115102000Y-127129000D01*
X115066286Y-127164714D01*
X115030572Y-127236143D01*
X115030572Y-127450429D01*
X115066286Y-127521857D01*
X115102000Y-127557571D01*
X115173429Y-127593286D01*
X115280572Y-127593286D01*
X114709144Y-127593286D02*
X114709144Y-127093286D01*
X114709144Y-127164714D02*
X114673429Y-127129000D01*
X114602001Y-127093286D01*
X114494858Y-127093286D01*
X114423429Y-127129000D01*
X114387715Y-127200429D01*
X114387715Y-127593286D01*
X114387715Y-127200429D02*
X114352001Y-127129000D01*
X114280572Y-127093286D01*
X114173429Y-127093286D01*
X114102001Y-127129000D01*
X114066286Y-127200429D01*
X114066286Y-127593286D01*
X112974381Y-130492572D02*
X112498190Y-130159238D01*
X112974381Y-129921143D02*
X111974381Y-129921143D01*
X111974381Y-130302096D01*
X112022000Y-130397334D01*
X112069619Y-130444953D01*
X112164857Y-130492572D01*
X112307714Y-130492572D01*
X112402952Y-130444953D01*
X112450571Y-130397334D01*
X112498190Y-130302096D01*
X112498190Y-129921143D01*
X112450571Y-130921143D02*
X112450571Y-131254477D01*
X112974381Y-131397334D02*
X112974381Y-130921143D01*
X111974381Y-130921143D01*
X111974381Y-131397334D01*
X112450571Y-132159239D02*
X112450571Y-131825905D01*
X112974381Y-131825905D02*
X111974381Y-131825905D01*
X111974381Y-132302096D01*
X111802000Y-129683048D02*
X111802000Y-132444953D01*
X115228667Y-128532191D02*
X115228667Y-129008382D01*
X115514381Y-128436953D02*
X114514381Y-128770286D01*
X115514381Y-129103620D01*
X114514381Y-129436953D02*
X115323905Y-129436953D01*
X115419143Y-129484572D01*
X115466762Y-129532191D01*
X115514381Y-129627429D01*
X115514381Y-129817906D01*
X115466762Y-129913144D01*
X115419143Y-129960763D01*
X115323905Y-130008382D01*
X114514381Y-130008382D01*
X115514381Y-130484572D02*
X114514381Y-130484572D01*
X114514381Y-130722667D01*
X114562000Y-130865525D01*
X114657238Y-130960763D01*
X114752476Y-131008382D01*
X114942952Y-131056001D01*
X115085810Y-131056001D01*
X115276286Y-131008382D01*
X115371524Y-130960763D01*
X115466762Y-130865525D01*
X115514381Y-130722667D01*
X115514381Y-130484572D01*
X115514381Y-131484572D02*
X114514381Y-131484572D01*
X114514381Y-132151238D02*
X114514381Y-132341715D01*
X114562000Y-132436953D01*
X114657238Y-132532191D01*
X114847714Y-132579810D01*
X115181048Y-132579810D01*
X115371524Y-132532191D01*
X115466762Y-132436953D01*
X115514381Y-132341715D01*
X115514381Y-132151238D01*
X115466762Y-132056000D01*
X115371524Y-131960762D01*
X115181048Y-131913143D01*
X114847714Y-131913143D01*
X114657238Y-131960762D01*
X114562000Y-132056000D01*
X114514381Y-132151238D01*
X118054381Y-129730667D02*
X117054381Y-129730667D01*
X117768667Y-130064001D01*
X117054381Y-130397334D01*
X118054381Y-130397334D01*
X118054381Y-130873524D02*
X117054381Y-130873524D01*
X117054381Y-131254477D01*
X117102000Y-131349715D01*
X117149619Y-131397334D01*
X117244857Y-131444953D01*
X117387714Y-131444953D01*
X117482952Y-131397334D01*
X117530571Y-131349715D01*
X117578190Y-131254477D01*
X117578190Y-130873524D01*
X118054381Y-131873524D02*
X117054381Y-131873524D01*
X117054381Y-132111619D01*
X117102000Y-132254477D01*
X117197238Y-132349715D01*
X117292476Y-132397334D01*
X117482952Y-132444953D01*
X117625810Y-132444953D01*
X117816286Y-132397334D01*
X117911524Y-132349715D01*
X118006762Y-132254477D01*
X118054381Y-132111619D01*
X118054381Y-131873524D01*
X116882000Y-129492572D02*
X116882000Y-132635429D01*
X120594381Y-129119524D02*
X119594381Y-129119524D01*
X119594381Y-129357619D01*
X119642000Y-129500477D01*
X119737238Y-129595715D01*
X119832476Y-129643334D01*
X120022952Y-129690953D01*
X120165810Y-129690953D01*
X120356286Y-129643334D01*
X120451524Y-129595715D01*
X120546762Y-129500477D01*
X120594381Y-129357619D01*
X120594381Y-129119524D01*
X120594381Y-130643334D02*
X120594381Y-130071905D01*
X120594381Y-130357619D02*
X119594381Y-130357619D01*
X119737238Y-130262381D01*
X119832476Y-130167143D01*
X119880095Y-130071905D01*
X119594381Y-130976667D02*
X120594381Y-131643334D01*
X119594381Y-131643334D02*
X120594381Y-130976667D01*
X119594381Y-131929048D02*
X120594381Y-132595715D01*
X119594381Y-132595715D02*
X120594381Y-131929048D01*
X119422000Y-128881429D02*
X119422000Y-132738572D01*
X123134381Y-130770381D02*
X122658190Y-130437047D01*
X123134381Y-130198952D02*
X122134381Y-130198952D01*
X122134381Y-130579905D01*
X122182000Y-130675143D01*
X122229619Y-130722762D01*
X122324857Y-130770381D01*
X122467714Y-130770381D01*
X122562952Y-130722762D01*
X122610571Y-130675143D01*
X122658190Y-130579905D01*
X122658190Y-130198952D01*
X123086762Y-131151333D02*
X123134381Y-131294190D01*
X123134381Y-131532286D01*
X123086762Y-131627524D01*
X123039143Y-131675143D01*
X122943905Y-131722762D01*
X122848667Y-131722762D01*
X122753429Y-131675143D01*
X122705810Y-131627524D01*
X122658190Y-131532286D01*
X122610571Y-131341809D01*
X122562952Y-131246571D01*
X122515333Y-131198952D01*
X122420095Y-131151333D01*
X122324857Y-131151333D01*
X122229619Y-131198952D01*
X122182000Y-131246571D01*
X122134381Y-131341809D01*
X122134381Y-131579905D01*
X122182000Y-131722762D01*
X122134381Y-132008476D02*
X122134381Y-132579905D01*
X123134381Y-132294190D02*
X122134381Y-132294190D01*
X121962000Y-129960857D02*
X121962000Y-132675143D01*
X125150571Y-128532190D02*
X125150571Y-128865524D01*
X125674381Y-129008381D02*
X125674381Y-128532190D01*
X124674381Y-128532190D01*
X124674381Y-129008381D01*
X124674381Y-129341714D02*
X125674381Y-130008381D01*
X124674381Y-130008381D02*
X125674381Y-129341714D01*
X125626762Y-130341714D02*
X125674381Y-130484571D01*
X125674381Y-130722667D01*
X125626762Y-130817905D01*
X125579143Y-130865524D01*
X125483905Y-130913143D01*
X125388667Y-130913143D01*
X125293429Y-130865524D01*
X125245810Y-130817905D01*
X125198190Y-130722667D01*
X125150571Y-130532190D01*
X125102952Y-130436952D01*
X125055333Y-130389333D01*
X124960095Y-130341714D01*
X124864857Y-130341714D01*
X124769619Y-130389333D01*
X124722000Y-130436952D01*
X124674381Y-130532190D01*
X124674381Y-130770286D01*
X124722000Y-130913143D01*
X125150571Y-131341714D02*
X125150571Y-131675048D01*
X125674381Y-131817905D02*
X125674381Y-131341714D01*
X124674381Y-131341714D01*
X124674381Y-131817905D01*
X125674381Y-132722667D02*
X125674381Y-132246476D01*
X124674381Y-132246476D01*
X124502000Y-128294095D02*
X124502000Y-132817905D01*
X109434381Y-131381524D02*
X109434381Y-130905333D01*
X109910571Y-130857714D01*
X109862952Y-130905333D01*
X109815333Y-131000571D01*
X109815333Y-131238667D01*
X109862952Y-131333905D01*
X109910571Y-131381524D01*
X110005810Y-131429143D01*
X110243905Y-131429143D01*
X110339143Y-131381524D01*
X110386762Y-131333905D01*
X110434381Y-131238667D01*
X110434381Y-131000571D01*
X110386762Y-130905333D01*
X110339143Y-130857714D01*
X109434381Y-131714857D02*
X110434381Y-132048190D01*
X109434381Y-132381524D01*
M02*
