G04 #@! TF.FileFunction,Copper,L2,Bot,Signal*
%FSLAX46Y46*%
G04 Gerber Fmt 4.6, Leading zero omitted, Abs format (unit mm)*
G04 Created by KiCad (PCBNEW 4.0.2+dfsg1-stable) date Mon 11 Feb 2019 22:19:24 CET*
%MOMM*%
G01*
G04 APERTURE LIST*
%ADD10C,0.100000*%
%ADD11C,1.524000*%
%ADD12R,1.524000X1.524000*%
%ADD13R,2.032000X2.032000*%
%ADD14O,2.032000X2.032000*%
%ADD15R,2.032000X1.727200*%
%ADD16O,2.032000X1.727200*%
%ADD17R,1.727200X2.032000*%
%ADD18O,1.727200X2.032000*%
%ADD19C,4.000000*%
%ADD20R,2.235200X2.235200*%
%ADD21R,1.930400X5.588000*%
%ADD22C,0.400000*%
%ADD23C,0.250000*%
%ADD24C,0.254000*%
G04 APERTURE END LIST*
D10*
D11*
X109220000Y-110604300D03*
X109220000Y-115455700D03*
X111760000Y-110604300D03*
X111760000Y-115455700D03*
X114300000Y-110604300D03*
X114300000Y-115455700D03*
X116840000Y-110604300D03*
X116840000Y-115455700D03*
X119380000Y-110604300D03*
X119380000Y-115455700D03*
X121920000Y-110604300D03*
X121920000Y-115455700D03*
D12*
X124460000Y-110604300D03*
D11*
X124460000Y-115455700D03*
D13*
X102870000Y-63500000D03*
D14*
X102870000Y-66040000D03*
D15*
X107950000Y-55880000D03*
D16*
X107950000Y-53340000D03*
X107950000Y-50800000D03*
X107950000Y-48260000D03*
D17*
X120650000Y-30480000D03*
D18*
X123190000Y-30480000D03*
X125730000Y-30480000D03*
D13*
X148590000Y-30480000D03*
D14*
X148590000Y-33020000D03*
D13*
X133350000Y-30480000D03*
D14*
X133350000Y-33020000D03*
D13*
X152400000Y-30480000D03*
D14*
X152400000Y-33020000D03*
D13*
X137160000Y-30480000D03*
D14*
X137160000Y-33020000D03*
D13*
X156210000Y-30480000D03*
D14*
X156210000Y-33020000D03*
D13*
X140970000Y-30480000D03*
D14*
X140970000Y-33020000D03*
D13*
X160020000Y-30480000D03*
D14*
X160020000Y-33020000D03*
D13*
X144780000Y-30480000D03*
D14*
X144780000Y-33020000D03*
D17*
X137160000Y-40640000D03*
D18*
X134620000Y-40640000D03*
X132080000Y-40640000D03*
D11*
X141986000Y-71120000D03*
D17*
X107950000Y-36830000D03*
D18*
X110490000Y-36830000D03*
X113030000Y-36830000D03*
X115570000Y-36830000D03*
D19*
X102870000Y-122428000D03*
X191770000Y-122428000D03*
X102870000Y-30988000D03*
D11*
X148590000Y-110604300D03*
X148590000Y-115455700D03*
X151130000Y-110604300D03*
X151130000Y-115455700D03*
X153670000Y-110604300D03*
X153670000Y-115455700D03*
X156210000Y-110604300D03*
X156210000Y-115455700D03*
X158750000Y-110604300D03*
X158750000Y-115455700D03*
X161290000Y-110604300D03*
X161290000Y-115455700D03*
X163830000Y-110604300D03*
X163830000Y-115455700D03*
X166370000Y-110604300D03*
X166370000Y-115455700D03*
X168910000Y-110604300D03*
X168910000Y-115455700D03*
X171450000Y-110604300D03*
X171450000Y-115455700D03*
X173990000Y-110604300D03*
X173990000Y-115455700D03*
X176530000Y-110604300D03*
X176530000Y-115455700D03*
X179070000Y-110604300D03*
X179070000Y-115455700D03*
X181610000Y-110604300D03*
X181610000Y-115455700D03*
D12*
X184150000Y-110604300D03*
D11*
X184150000Y-115455700D03*
D19*
X190500000Y-30988000D03*
D20*
X102362000Y-44196000D03*
D21*
X184912000Y-143510000D03*
X182372000Y-143510000D03*
X179832000Y-143510000D03*
X177292000Y-143510000D03*
X174752000Y-143510000D03*
X172212000Y-143510000D03*
X169672000Y-143510000D03*
X167132000Y-143510000D03*
X164592000Y-143510000D03*
X162052000Y-143510000D03*
X159512000Y-143510000D03*
X156972000Y-143510000D03*
X154432000Y-143510000D03*
X151892000Y-143510000D03*
X149352000Y-143510000D03*
X125222000Y-143510000D03*
X122682000Y-143510000D03*
X120142000Y-143510000D03*
X117602000Y-143510000D03*
X115062000Y-143510000D03*
X112522000Y-143510000D03*
X109982000Y-143510000D03*
D22*
X179339500Y-102395000D03*
X169795000Y-101045700D03*
X186330300Y-102861300D03*
X122950000Y-37722500D03*
X122855300Y-53340000D03*
X136366000Y-47417900D03*
X136548700Y-73047100D03*
X143273500Y-69684200D03*
X142885900Y-45126600D03*
X155547100Y-45071800D03*
X168402600Y-44185200D03*
X183062600Y-139847300D03*
X180422500Y-140246500D03*
X179190500Y-105431200D03*
X182851200Y-107052700D03*
X175442600Y-140083300D03*
X178450700Y-100745400D03*
X185805000Y-100683400D03*
X172684500Y-140246400D03*
X168027300Y-107700300D03*
X165100000Y-120412500D03*
X166851400Y-112135000D03*
X167673800Y-140287000D03*
X156770200Y-138313100D03*
X151834000Y-54702800D03*
X106453400Y-63102900D03*
X118898000Y-57642500D03*
X140281400Y-108724800D03*
X149694400Y-139961300D03*
X181742800Y-107578000D03*
X181210700Y-109046000D03*
X180324700Y-108070300D03*
X172844400Y-111792500D03*
X173718900Y-104489100D03*
X166228800Y-112725700D03*
X170180000Y-112725700D03*
X172783400Y-103879100D03*
X154253000Y-109493100D03*
X173521800Y-103294100D03*
X156658500Y-109267200D03*
X148971000Y-112475600D03*
X155325000Y-107630600D03*
X126443000Y-140390700D03*
X145165000Y-103271500D03*
X123369500Y-140246500D03*
X141265000Y-104454300D03*
X120832600Y-140300800D03*
X137804700Y-102077800D03*
X118292600Y-139889300D03*
X142565000Y-109258400D03*
X113179400Y-139845500D03*
X140615000Y-103378200D03*
X139360100Y-114599400D03*
X143215000Y-114014400D03*
X117720000Y-112015000D03*
X171745000Y-103321500D03*
X170989000Y-104866100D03*
X170445000Y-100511200D03*
X152595900Y-102867000D03*
X185653000Y-140246500D03*
X153375000Y-102882700D03*
X150744900Y-137638800D03*
X115631500Y-140246500D03*
X164835000Y-102872000D03*
X174995000Y-102866700D03*
X144515000Y-100589300D03*
X123203000Y-93710400D03*
X154675000Y-102872000D03*
X144606000Y-103827700D03*
X159635000Y-95256600D03*
X164602600Y-97066600D03*
X154675000Y-95256600D03*
X175095500Y-97500000D03*
X132366000Y-43840800D03*
X133858000Y-98725300D03*
X143107300Y-79623900D03*
X141065800Y-78932200D03*
X136908300Y-75330000D03*
X144515000Y-97088100D03*
X161017700Y-70734500D03*
X150870700Y-70709500D03*
X161659900Y-71320400D03*
X153057600Y-70992000D03*
X162744200Y-70509300D03*
X150149800Y-70130300D03*
X140391500Y-72927300D03*
X122950000Y-63175000D03*
X135488300Y-70302300D03*
X185960000Y-59437500D03*
X145688100Y-65796500D03*
X126670100Y-59438900D03*
X135491400Y-65066900D03*
X145878200Y-39247000D03*
X144298700Y-63995300D03*
X141851200Y-62862000D03*
X154427600Y-61940200D03*
X143433500Y-82390300D03*
X137330500Y-68652800D03*
X134357600Y-66196400D03*
X143215000Y-83017700D03*
X149691300Y-55287800D03*
X134430900Y-63110900D03*
X142524500Y-81435600D03*
X141968000Y-75805900D03*
X152415700Y-74224600D03*
X141402200Y-91464400D03*
X134887400Y-70903100D03*
X140615000Y-95156200D03*
X148854400Y-73953200D03*
X141279200Y-85254200D03*
X146198000Y-83498000D03*
X179789700Y-63260100D03*
X140002900Y-64634300D03*
X178382200Y-58791200D03*
X137961300Y-62598600D03*
X176480000Y-68001600D03*
X139310400Y-64804100D03*
X175895000Y-70596900D03*
X175895000Y-76862900D03*
X137410300Y-63031400D03*
X174625000Y-69412500D03*
X138609700Y-65295400D03*
X173355000Y-66770700D03*
X173990000Y-77392500D03*
X140866800Y-65588500D03*
X172635400Y-69097300D03*
X138722700Y-66826200D03*
X170815000Y-70032900D03*
X138706700Y-68203300D03*
X173593100Y-92177900D03*
X176001800Y-92970800D03*
X171837700Y-72700900D03*
X149622400Y-70544500D03*
X171920600Y-85961800D03*
X174670800Y-91639200D03*
X173355000Y-73138100D03*
X149024100Y-70922300D03*
X173355000Y-85786300D03*
X174080400Y-90467200D03*
X154099300Y-71425000D03*
X177195900Y-72048900D03*
X173695000Y-93010300D03*
X177884600Y-88833800D03*
X170219900Y-85638800D03*
X174625000Y-82766500D03*
X148319000Y-74502100D03*
X168994700Y-78051600D03*
X147673200Y-70609700D03*
X170782900Y-77392500D03*
X170264700Y-66280300D03*
X149800000Y-65405800D03*
X170067600Y-94451400D03*
X147782000Y-74835600D03*
X170471700Y-94896500D03*
X146622500Y-76198700D03*
X147892200Y-78864500D03*
X149935300Y-78864500D03*
X169405600Y-80662400D03*
X164124800Y-81351600D03*
X168577500Y-47938500D03*
X161828200Y-45818800D03*
X154588200Y-91357500D03*
X136757200Y-79298900D03*
X153375000Y-92342600D03*
X137424700Y-83740000D03*
X153487100Y-85942200D03*
X140500200Y-71122700D03*
X152941300Y-87367500D03*
X138579100Y-76983900D03*
X182231000Y-76573500D03*
X181218300Y-72315800D03*
X180975000Y-54356400D03*
X164194000Y-45711500D03*
X180975000Y-88753900D03*
X166771800Y-93437900D03*
X182329700Y-56935400D03*
X157311200Y-44291400D03*
X182245000Y-88764600D03*
X164185000Y-93580600D03*
X153016800Y-82755200D03*
X183515000Y-90935700D03*
X163535000Y-95255400D03*
X183515000Y-54624500D03*
X184785000Y-50937900D03*
X184785000Y-81907900D03*
X157377400Y-83377500D03*
X183515000Y-50423700D03*
X183430300Y-78588700D03*
X150746500Y-76039000D03*
X162230000Y-78532500D03*
X182245000Y-49851200D03*
X181610000Y-79120000D03*
X154624800Y-79120000D03*
X175144800Y-43551700D03*
X180975000Y-80077400D03*
X149378100Y-73509700D03*
X160935000Y-80808800D03*
X175643500Y-44077000D03*
X162371000Y-43315800D03*
X144049400Y-53023000D03*
X140760600Y-51681800D03*
X148850000Y-63952100D03*
X164767500Y-65219200D03*
X166413300Y-71463900D03*
X163608900Y-71245500D03*
X145907300Y-69615800D03*
X148047500Y-64011600D03*
X166500000Y-65830000D03*
X141168700Y-62654800D03*
X168275000Y-61432500D03*
X152858800Y-63079300D03*
X168275000Y-63079300D03*
X159231600Y-105057600D03*
X166969500Y-105057600D03*
X158958000Y-123183400D03*
X152926400Y-120001400D03*
X151733200Y-120001400D03*
X150295800Y-113938300D03*
X132932900Y-77370500D03*
X136060600Y-81821700D03*
X178269000Y-73780600D03*
X158126300Y-74100800D03*
X158296500Y-64895900D03*
X140868000Y-63703100D03*
X176530000Y-51902500D03*
X146766100Y-52312700D03*
X140235300Y-52312700D03*
X135753900Y-86228900D03*
X150775000Y-94554700D03*
X136096500Y-74452800D03*
X151850900Y-85056700D03*
X159907200Y-44577500D03*
X175895000Y-44828100D03*
X158462000Y-54482500D03*
X115865000Y-57073600D03*
X124135000Y-52767800D03*
X156135600Y-53698500D03*
X122329900Y-53920900D03*
X116515000Y-54701800D03*
D23*
X106334200Y-49611100D02*
X107950000Y-49611100D01*
X102362000Y-45638900D02*
X106334200Y-49611100D01*
X102362000Y-44196000D02*
X102362000Y-45638900D01*
X107950000Y-50800000D02*
X107950000Y-49611100D01*
X109138900Y-36309900D02*
X109138900Y-36830000D01*
X114968800Y-30480000D02*
X109138900Y-36309900D01*
X120650000Y-30480000D02*
X114968800Y-30480000D01*
X107950000Y-36830000D02*
X109138900Y-36830000D01*
X177990200Y-101045700D02*
X179339500Y-102395000D01*
X169795000Y-101045700D02*
X177990200Y-101045700D01*
X179805800Y-102861300D02*
X186330300Y-102861300D01*
X179339500Y-102395000D02*
X179805800Y-102861300D01*
X127973600Y-37722500D02*
X130891100Y-40640000D01*
X122950000Y-37722500D02*
X127973600Y-37722500D01*
X132080000Y-40640000D02*
X130891100Y-40640000D01*
X122855300Y-53340000D02*
X107950000Y-53340000D01*
X139911600Y-69684200D02*
X136548700Y-73047100D01*
X143273500Y-69684200D02*
X139911600Y-69684200D01*
X142940700Y-45071800D02*
X155547100Y-45071800D01*
X142885900Y-45126600D02*
X142940700Y-45071800D01*
X138657300Y-45126600D02*
X136366000Y-47417900D01*
X142885900Y-45126600D02*
X138657300Y-45126600D01*
X162497500Y-44185200D02*
X168402600Y-44185200D01*
X162078400Y-43766100D02*
X162497500Y-44185200D01*
X156852800Y-43766100D02*
X162078400Y-43766100D01*
X155547100Y-45071800D02*
X156852800Y-43766100D01*
X182519200Y-140390700D02*
X183062600Y-139847300D01*
X182372000Y-140390700D02*
X182519200Y-140390700D01*
X182372000Y-143510000D02*
X182372000Y-140390700D01*
X180278300Y-140390700D02*
X180422500Y-140246500D01*
X179832000Y-140390700D02*
X180278300Y-140390700D01*
X179832000Y-143510000D02*
X179832000Y-140390700D01*
X180812000Y-107052700D02*
X179190500Y-105431200D01*
X182851200Y-107052700D02*
X180812000Y-107052700D01*
X174395400Y-112738900D02*
X176530000Y-110604300D01*
X172606100Y-112738900D02*
X174395400Y-112738900D01*
X170334400Y-115010600D02*
X172606100Y-112738900D01*
X170334400Y-118085100D02*
X170334400Y-115010600D01*
X177292000Y-125042700D02*
X170334400Y-118085100D01*
X177292000Y-143510000D02*
X177292000Y-125042700D01*
X175135200Y-140390700D02*
X175442600Y-140083300D01*
X174752000Y-140390700D02*
X175135200Y-140390700D01*
X174752000Y-143510000D02*
X174752000Y-140390700D01*
X178512700Y-100683400D02*
X178450700Y-100745400D01*
X185805000Y-100683400D02*
X178512700Y-100683400D01*
X172540200Y-140390700D02*
X172684500Y-140246400D01*
X172212000Y-140390700D02*
X172540200Y-140390700D01*
X172212000Y-143510000D02*
X172212000Y-140390700D01*
X168546000Y-107700300D02*
X168027300Y-107700300D01*
X171450000Y-110604300D02*
X168546000Y-107700300D01*
X169672000Y-124984500D02*
X165100000Y-120412500D01*
X169672000Y-143510000D02*
X169672000Y-124984500D01*
X167379300Y-112135000D02*
X166851400Y-112135000D01*
X168910000Y-110604300D02*
X167379300Y-112135000D01*
X167570100Y-140390700D02*
X167673800Y-140287000D01*
X167132000Y-140390700D02*
X167570100Y-140390700D01*
X167132000Y-143510000D02*
X167132000Y-140390700D01*
X164592000Y-143510000D02*
X164592000Y-140390700D01*
X164539300Y-140338000D02*
X164592000Y-140390700D01*
X164539300Y-120037000D02*
X164539300Y-140338000D01*
X167460500Y-117115800D02*
X164539300Y-120037000D01*
X167460500Y-114700300D02*
X167460500Y-117115800D01*
X163830000Y-111069800D02*
X167460500Y-114700300D01*
X163830000Y-110604300D02*
X163830000Y-111069800D01*
X161290000Y-113396200D02*
X161290000Y-110604300D01*
X162431100Y-114537300D02*
X161290000Y-113396200D01*
X162431100Y-140011600D02*
X162431100Y-114537300D01*
X162052000Y-140390700D02*
X162431100Y-140011600D01*
X162052000Y-143510000D02*
X162052000Y-140390700D01*
X155101300Y-114253000D02*
X158750000Y-110604300D01*
X155101300Y-118121700D02*
X155101300Y-114253000D01*
X159512000Y-122532400D02*
X155101300Y-118121700D01*
X159512000Y-143510000D02*
X159512000Y-122532400D01*
X154432000Y-143510000D02*
X154432000Y-140390700D01*
X154692600Y-140390700D02*
X156770200Y-138313100D01*
X154432000Y-140390700D02*
X154692600Y-140390700D01*
X107950000Y-55880000D02*
X107950000Y-57068900D01*
X106453400Y-59712700D02*
X106453400Y-63102900D01*
X108523600Y-57642500D02*
X106453400Y-59712700D01*
X107950000Y-57068900D02*
X108523600Y-57642500D01*
X108523600Y-57642500D02*
X118898000Y-57642500D01*
X114120600Y-113001100D02*
X112868700Y-114253000D01*
X149746200Y-113001100D02*
X114120600Y-113001100D01*
X149821400Y-112925900D02*
X149746200Y-113001100D01*
X151348400Y-112925900D02*
X149821400Y-112925900D01*
X153670000Y-110604300D02*
X151348400Y-112925900D01*
X112868700Y-117923600D02*
X112868700Y-114253000D01*
X109982000Y-120810300D02*
X112868700Y-117923600D01*
X109982000Y-143510000D02*
X109982000Y-120810300D01*
X112868700Y-114253000D02*
X109220000Y-110604300D01*
X139095400Y-54702800D02*
X151834000Y-54702800D01*
X136155700Y-57642500D02*
X139095400Y-54702800D01*
X118898000Y-57642500D02*
X136155700Y-57642500D01*
X146710500Y-108724800D02*
X140281400Y-108724800D01*
X148590000Y-110604300D02*
X146710500Y-108724800D01*
X149352000Y-140303700D02*
X149694400Y-139961300D01*
X149352000Y-143510000D02*
X149352000Y-140303700D01*
X183109800Y-107578000D02*
X181742800Y-107578000D01*
X185237400Y-109705600D02*
X183109800Y-107578000D01*
X185237400Y-111527000D02*
X185237400Y-109705600D01*
X184727500Y-112036900D02*
X185237400Y-111527000D01*
X182488800Y-112036900D02*
X184727500Y-112036900D01*
X179070000Y-115455700D02*
X182488800Y-112036900D01*
X180157400Y-110099300D02*
X181210700Y-109046000D01*
X180157400Y-111134300D02*
X180157400Y-110099300D01*
X179580500Y-111711200D02*
X180157400Y-111134300D01*
X177734500Y-111711200D02*
X179580500Y-111711200D01*
X173990000Y-115455700D02*
X177734500Y-111711200D01*
X180055100Y-108070300D02*
X180324700Y-108070300D01*
X177800000Y-110325400D02*
X180055100Y-108070300D01*
X177800000Y-110940500D02*
X177800000Y-110325400D01*
X175551200Y-113189300D02*
X177800000Y-110940500D01*
X173716400Y-113189300D02*
X175551200Y-113189300D01*
X171450000Y-115455700D02*
X173716400Y-113189300D01*
X172573200Y-111792500D02*
X172844400Y-111792500D01*
X168910000Y-115455700D02*
X172573200Y-111792500D01*
X171050500Y-107157500D02*
X173718900Y-104489100D01*
X165721500Y-107157500D02*
X171050500Y-107157500D01*
X162710400Y-110168600D02*
X165721500Y-107157500D01*
X162710400Y-111796100D02*
X162710400Y-110168600D01*
X166370000Y-115455700D02*
X162710400Y-111796100D01*
X166228800Y-112725700D02*
X170180000Y-112725700D01*
X170489700Y-106172800D02*
X172783400Y-103879100D01*
X164171300Y-106172800D02*
X170489700Y-106172800D01*
X160020000Y-110324100D02*
X164171300Y-106172800D01*
X160020000Y-111645700D02*
X160020000Y-110324100D01*
X156210000Y-115455700D02*
X160020000Y-111645700D01*
X172526000Y-103294100D02*
X173521800Y-103294100D01*
X171653700Y-104166400D02*
X172526000Y-103294100D01*
X159379900Y-104166400D02*
X171653700Y-104166400D01*
X157989200Y-105557100D02*
X159379900Y-104166400D01*
X157989200Y-105756900D02*
X157989200Y-105557100D01*
X154253000Y-109493100D02*
X157989200Y-105756900D01*
X157297400Y-109906100D02*
X156658500Y-109267200D01*
X157297400Y-111080200D02*
X157297400Y-109906100D01*
X155298400Y-113079200D02*
X157297400Y-111080200D01*
X154384500Y-113079200D02*
X155298400Y-113079200D01*
X152008000Y-115455700D02*
X154384500Y-113079200D01*
X151130000Y-115455700D02*
X152008000Y-115455700D01*
X155066700Y-107630600D02*
X155325000Y-107630600D01*
X152400000Y-110297300D02*
X155066700Y-107630600D01*
X152400000Y-110904300D02*
X152400000Y-110297300D01*
X150828700Y-112475600D02*
X152400000Y-110904300D01*
X148971000Y-112475600D02*
X150828700Y-112475600D01*
X125222000Y-140390700D02*
X126443000Y-140390700D01*
X125222000Y-143510000D02*
X125222000Y-140390700D01*
X137022100Y-110604300D02*
X124460000Y-110604300D01*
X144354900Y-103271500D02*
X137022100Y-110604300D01*
X145165000Y-103271500D02*
X144354900Y-103271500D01*
X123225300Y-140390700D02*
X123369500Y-140246500D01*
X122682000Y-140390700D02*
X123225300Y-140390700D01*
X122682000Y-143510000D02*
X122682000Y-140390700D01*
X128070000Y-104454300D02*
X141265000Y-104454300D01*
X121920000Y-110604300D02*
X128070000Y-104454300D01*
X120742700Y-140390700D02*
X120832600Y-140300800D01*
X120142000Y-140390700D02*
X120742700Y-140390700D01*
X120142000Y-143510000D02*
X120142000Y-140390700D01*
X127906500Y-102077800D02*
X137804700Y-102077800D01*
X119380000Y-110604300D02*
X127906500Y-102077800D01*
X117791200Y-140390700D02*
X118292600Y-139889300D01*
X117602000Y-140390700D02*
X117791200Y-140390700D01*
X117602000Y-143510000D02*
X117602000Y-140390700D01*
X139283100Y-112540300D02*
X142565000Y-109258400D01*
X117494400Y-112540300D02*
X139283100Y-112540300D01*
X116840000Y-111885900D02*
X117494400Y-112540300D01*
X116840000Y-110604300D02*
X116840000Y-111885900D01*
X112634200Y-140390700D02*
X113179400Y-139845500D01*
X112522000Y-140390700D02*
X112634200Y-140390700D01*
X112522000Y-143510000D02*
X112522000Y-140390700D01*
X139848100Y-103378200D02*
X140615000Y-103378200D01*
X138022400Y-101552500D02*
X139848100Y-103378200D01*
X120811800Y-101552500D02*
X138022400Y-101552500D01*
X111760000Y-110604300D02*
X120811800Y-101552500D01*
X137388100Y-116571400D02*
X139360100Y-114599400D01*
X123035700Y-116571400D02*
X137388100Y-116571400D01*
X121920000Y-115455700D02*
X123035700Y-116571400D01*
X120821300Y-114014400D02*
X143215000Y-114014400D01*
X119380000Y-115455700D02*
X120821300Y-114014400D01*
X171656800Y-103409700D02*
X171745000Y-103321500D01*
X157332700Y-103409700D02*
X171656800Y-103409700D01*
X153637200Y-107105200D02*
X157332700Y-103409700D01*
X141158100Y-107105200D02*
X153637200Y-107105200D01*
X136248300Y-112015000D02*
X141158100Y-107105200D01*
X117720000Y-112015000D02*
X136248300Y-112015000D01*
X170132600Y-105722500D02*
X170989000Y-104866100D01*
X159460300Y-105722500D02*
X170132600Y-105722500D01*
X154775500Y-110407300D02*
X159460300Y-105722500D01*
X154775500Y-111084700D02*
X154775500Y-110407300D01*
X152447200Y-113413000D02*
X154775500Y-111084700D01*
X150078200Y-113413000D02*
X152447200Y-113413000D01*
X150039600Y-113451600D02*
X150078200Y-113413000D01*
X116304100Y-113451600D02*
X150039600Y-113451600D01*
X114300000Y-115455700D02*
X116304100Y-113451600D01*
X108119200Y-111814900D02*
X111760000Y-115455700D01*
X108119200Y-110069900D02*
X108119200Y-111814900D01*
X117086900Y-101102200D02*
X108119200Y-110069900D01*
X138209000Y-101102200D02*
X117086900Y-101102200D01*
X138758200Y-101651400D02*
X138209000Y-101102200D01*
X151492000Y-101651400D02*
X138758200Y-101651400D01*
X152632200Y-100511200D02*
X151492000Y-101651400D01*
X170445000Y-100511200D02*
X152632200Y-100511200D01*
X153594900Y-101868000D02*
X152595900Y-102867000D01*
X178036700Y-101868000D02*
X153594900Y-101868000D01*
X182696100Y-106527400D02*
X178036700Y-101868000D01*
X183068900Y-106527400D02*
X182696100Y-106527400D01*
X185687700Y-109146200D02*
X183068900Y-106527400D01*
X185687700Y-113918000D02*
X185687700Y-109146200D01*
X184150000Y-115455700D02*
X185687700Y-113918000D01*
X185508800Y-140390700D02*
X185653000Y-140246500D01*
X184912000Y-140390700D02*
X185508800Y-140390700D01*
X184912000Y-143510000D02*
X184912000Y-140390700D01*
X184150000Y-110604300D02*
X183062700Y-110604300D01*
X153939400Y-102318300D02*
X153375000Y-102882700D01*
X175325500Y-102318300D02*
X153939400Y-102318300D01*
X183062700Y-110055500D02*
X175325500Y-102318300D01*
X183062700Y-110604300D02*
X183062700Y-110055500D01*
X156972000Y-143510000D02*
X156972000Y-140390700D01*
X152634600Y-114179700D02*
X156210000Y-110604300D01*
X150856100Y-114179700D02*
X152634600Y-114179700D01*
X150034900Y-115000900D02*
X150856100Y-114179700D01*
X150034900Y-117560100D02*
X150034900Y-115000900D01*
X152258500Y-119783700D02*
X150034900Y-117560100D01*
X152258500Y-120160800D02*
X152258500Y-119783700D01*
X157295600Y-125197900D02*
X152258500Y-120160800D01*
X157295600Y-140067100D02*
X157295600Y-125197900D01*
X156972000Y-140390700D02*
X157295600Y-140067100D01*
X151892000Y-138785900D02*
X150744900Y-137638800D01*
X151892000Y-143510000D02*
X151892000Y-138785900D01*
X115487300Y-140390700D02*
X115631500Y-140246500D01*
X115062000Y-140390700D02*
X115487300Y-140390700D01*
X115062000Y-143510000D02*
X115062000Y-140390700D01*
X137636100Y-93710400D02*
X144515000Y-100589300D01*
X123203000Y-93710400D02*
X137636100Y-93710400D01*
X164835000Y-102872000D02*
X154675000Y-102872000D01*
X153719300Y-103827700D02*
X144606000Y-103827700D01*
X154675000Y-102872000D02*
X153719300Y-103827700D01*
X174896900Y-102768600D02*
X174995000Y-102866700D01*
X164938400Y-102768600D02*
X174896900Y-102768600D01*
X164835000Y-102872000D02*
X164938400Y-102768600D01*
X161445000Y-97066600D02*
X159635000Y-95256600D01*
X164602600Y-97066600D02*
X161445000Y-97066600D01*
X165036000Y-97500000D02*
X175095500Y-97500000D01*
X164602600Y-97066600D02*
X165036000Y-97500000D01*
X137160000Y-40640000D02*
X136647700Y-40640000D01*
X115570000Y-36830000D02*
X116758900Y-36830000D01*
X133446900Y-43840800D02*
X132366000Y-43840800D01*
X136647700Y-40640000D02*
X133446900Y-43840800D01*
X123769700Y-43840800D02*
X116758900Y-36830000D01*
X132366000Y-43840800D02*
X123769700Y-43840800D01*
X137714500Y-75330000D02*
X136908300Y-75330000D01*
X141065800Y-78681300D02*
X137714500Y-75330000D01*
X141065800Y-78932200D02*
X141065800Y-78681300D01*
X142415600Y-78932200D02*
X143107300Y-79623900D01*
X141065800Y-78932200D02*
X142415600Y-78932200D01*
X159635000Y-95256600D02*
X154675000Y-95256600D01*
X152843500Y-97088100D02*
X145042100Y-97088100D01*
X154675000Y-95256600D02*
X152843500Y-97088100D01*
X145042100Y-100873900D02*
X145042100Y-97088100D01*
X144783400Y-101132600D02*
X145042100Y-100873900D01*
X138876300Y-101132600D02*
X144783400Y-101132600D01*
X136469000Y-98725300D02*
X138876300Y-101132600D01*
X133858000Y-98725300D02*
X136469000Y-98725300D01*
X145042100Y-97088100D02*
X144515000Y-97088100D01*
X151130900Y-70449300D02*
X150870700Y-70709500D01*
X160732500Y-70449300D02*
X151130900Y-70449300D01*
X161017700Y-70734500D02*
X160732500Y-70449300D01*
X159751300Y-71320400D02*
X161659900Y-71320400D01*
X159330600Y-70899700D02*
X159751300Y-71320400D01*
X153149900Y-70899700D02*
X159330600Y-70899700D01*
X153057600Y-70992000D02*
X153149900Y-70899700D01*
X150281100Y-69999000D02*
X150149800Y-70130300D01*
X162210000Y-69999000D02*
X150281100Y-69999000D01*
X162720300Y-70509300D02*
X162210000Y-69999000D01*
X162744200Y-70509300D02*
X162720300Y-70509300D01*
X140391500Y-72714500D02*
X140391500Y-72927300D01*
X141986000Y-71120000D02*
X140391500Y-72714500D01*
X122496800Y-63628200D02*
X122950000Y-63175000D01*
X104339500Y-63628200D02*
X122496800Y-63628200D01*
X104211300Y-63500000D02*
X104339500Y-63628200D01*
X102870000Y-63500000D02*
X104211300Y-63500000D01*
X128361000Y-63175000D02*
X135488300Y-70302300D01*
X122950000Y-63175000D02*
X128361000Y-63175000D01*
X145822800Y-65931200D02*
X145688100Y-65796500D01*
X163874500Y-65931200D02*
X145822800Y-65931200D01*
X164324800Y-66381500D02*
X163874500Y-65931200D01*
X165188700Y-66381500D02*
X164324800Y-66381500D01*
X165612900Y-66805700D02*
X165188700Y-66381500D01*
X170828600Y-66805700D02*
X165612900Y-66805700D01*
X178196800Y-59437500D02*
X170828600Y-66805700D01*
X185960000Y-59437500D02*
X178196800Y-59437500D01*
X129863400Y-59438900D02*
X126670100Y-59438900D01*
X135491400Y-65066900D02*
X129863400Y-59438900D01*
X123190000Y-30480000D02*
X124378900Y-30480000D01*
X132625800Y-39247000D02*
X145878200Y-39247000D01*
X124378900Y-31000100D02*
X132625800Y-39247000D01*
X124378900Y-30480000D02*
X124378900Y-31000100D01*
X143165400Y-62862000D02*
X141851200Y-62862000D01*
X144298700Y-63995300D02*
X143165400Y-62862000D01*
X146353800Y-61940200D02*
X144298700Y-63995300D01*
X154427600Y-61940200D02*
X146353800Y-61940200D01*
X143433400Y-82390300D02*
X143433500Y-82390300D01*
X143433400Y-81601200D02*
X143433400Y-82390300D01*
X142678400Y-80846200D02*
X143433400Y-81601200D01*
X141592100Y-80846200D02*
X142678400Y-80846200D01*
X135554900Y-74809000D02*
X141592100Y-80846200D01*
X135554900Y-72889500D02*
X135554900Y-74809000D01*
X137330500Y-71113900D02*
X135554900Y-72889500D01*
X137330500Y-68652800D02*
X137330500Y-71113900D01*
X142404100Y-83017700D02*
X143215000Y-83017700D01*
X134654200Y-75267800D02*
X142404100Y-83017700D01*
X134654200Y-72516400D02*
X134654200Y-75267800D01*
X136019500Y-71151100D02*
X134654200Y-72516400D01*
X136019500Y-67858300D02*
X136019500Y-71151100D01*
X134357600Y-66196400D02*
X136019500Y-67858300D01*
X142254000Y-55287800D02*
X149691300Y-55287800D01*
X134430900Y-63110900D02*
X142254000Y-55287800D01*
X141465100Y-81435600D02*
X142524500Y-81435600D01*
X135104500Y-75075000D02*
X141465100Y-81435600D01*
X135104500Y-72703000D02*
X135104500Y-75075000D01*
X136482800Y-71324700D02*
X135104500Y-72703000D01*
X136482800Y-65162800D02*
X136482800Y-71324700D01*
X134430900Y-63110900D02*
X136482800Y-65162800D01*
X144833700Y-72940200D02*
X141968000Y-75805900D01*
X149635900Y-72940200D02*
X144833700Y-72940200D01*
X150920300Y-74224600D02*
X149635900Y-72940200D01*
X152415700Y-74224600D02*
X150920300Y-74224600D01*
X136586000Y-86648200D02*
X141402200Y-91464400D01*
X136586000Y-79870600D02*
X136586000Y-86648200D01*
X134178800Y-77463400D02*
X136586000Y-79870600D01*
X134178800Y-71611700D02*
X134178800Y-77463400D01*
X134887400Y-70903100D02*
X134178800Y-71611700D01*
X151558200Y-95156200D02*
X140615000Y-95156200D01*
X155151300Y-91563100D02*
X151558200Y-95156200D01*
X155151300Y-86800800D02*
X155151300Y-91563100D01*
X152531600Y-84181100D02*
X155151300Y-86800800D01*
X152426000Y-84181100D02*
X152531600Y-84181100D01*
X151485300Y-83240400D02*
X152426000Y-84181100D01*
X149614500Y-83240400D02*
X151485300Y-83240400D01*
X146016000Y-79641900D02*
X149614500Y-83240400D01*
X146016000Y-75802800D02*
X146016000Y-79641900D01*
X147865600Y-73953200D02*
X146016000Y-75802800D01*
X148854400Y-73953200D02*
X147865600Y-73953200D01*
X144441800Y-85254200D02*
X141279200Y-85254200D01*
X146198000Y-83498000D02*
X144441800Y-85254200D01*
X140726600Y-64634300D02*
X140002900Y-64634300D01*
X142473800Y-66381500D02*
X140726600Y-64634300D01*
X163687700Y-66381500D02*
X142473800Y-66381500D01*
X164138000Y-66831800D02*
X163687700Y-66381500D01*
X165002100Y-66831800D02*
X164138000Y-66831800D01*
X165426300Y-67256000D02*
X165002100Y-66831800D01*
X171015200Y-67256000D02*
X165426300Y-67256000D01*
X175011100Y-63260100D02*
X171015200Y-67256000D01*
X179789700Y-63260100D02*
X175011100Y-63260100D01*
X141768700Y-58791200D02*
X178382200Y-58791200D01*
X137961300Y-62598600D02*
X141768700Y-58791200D01*
X141788400Y-67282100D02*
X139310400Y-64804100D01*
X163314500Y-67282100D02*
X141788400Y-67282100D01*
X163764800Y-67732400D02*
X163314500Y-67282100D01*
X164628900Y-67732400D02*
X163764800Y-67732400D01*
X165053100Y-68156600D02*
X164628900Y-67732400D01*
X171388400Y-68156600D02*
X165053100Y-68156600D01*
X171883800Y-67661200D02*
X171388400Y-68156600D01*
X176139600Y-67661200D02*
X171883800Y-67661200D01*
X176480000Y-68001600D02*
X176139600Y-67661200D01*
X137410400Y-63031400D02*
X137410300Y-63031400D01*
X137410400Y-64844700D02*
X137410400Y-63031400D01*
X138866500Y-66300800D02*
X137410400Y-64844700D01*
X138978200Y-66300800D02*
X138866500Y-66300800D01*
X140860100Y-68182700D02*
X138978200Y-66300800D01*
X162941300Y-68182700D02*
X140860100Y-68182700D01*
X163391600Y-68633000D02*
X162941300Y-68182700D01*
X164255700Y-68633000D02*
X163391600Y-68633000D01*
X164679900Y-69057200D02*
X164255700Y-68633000D01*
X171761600Y-69057200D02*
X164679900Y-69057200D01*
X172246900Y-68571900D02*
X171761600Y-69057200D01*
X172983900Y-68571900D02*
X172246900Y-68571900D01*
X175008900Y-70596900D02*
X172983900Y-68571900D01*
X175895000Y-70596900D02*
X175008900Y-70596900D01*
X176503600Y-70596900D02*
X175895000Y-70596900D01*
X178849100Y-72942400D02*
X176503600Y-70596900D01*
X178849100Y-74018700D02*
X178849100Y-72942400D01*
X176004900Y-76862900D02*
X178849100Y-74018700D01*
X175895000Y-76862900D02*
X176004900Y-76862900D01*
X141046700Y-67732400D02*
X138609700Y-65295400D01*
X163127900Y-67732400D02*
X141046700Y-67732400D01*
X163578200Y-68182700D02*
X163127900Y-67732400D01*
X164442300Y-68182700D02*
X163578200Y-68182700D01*
X164866500Y-68606900D02*
X164442300Y-68182700D01*
X171575000Y-68606900D02*
X164866500Y-68606900D01*
X172060300Y-68121600D02*
X171575000Y-68606900D01*
X173334100Y-68121600D02*
X172060300Y-68121600D01*
X174625000Y-69412500D02*
X173334100Y-68121600D01*
X142110100Y-66831800D02*
X140866800Y-65588500D01*
X163501100Y-66831800D02*
X142110100Y-66831800D01*
X163951400Y-67282100D02*
X163501100Y-66831800D01*
X164815500Y-67282100D02*
X163951400Y-67282100D01*
X165239700Y-67706300D02*
X164815500Y-67282100D01*
X171201800Y-67706300D02*
X165239700Y-67706300D01*
X172137400Y-66770700D02*
X171201800Y-67706300D01*
X173355000Y-66770700D02*
X172137400Y-66770700D01*
X175992100Y-66770700D02*
X173355000Y-66770700D01*
X179327400Y-70106000D02*
X175992100Y-66770700D01*
X179327400Y-74177600D02*
X179327400Y-70106000D01*
X176112500Y-77392500D02*
X179327400Y-74177600D01*
X173990000Y-77392500D02*
X176112500Y-77392500D01*
X140529500Y-68633000D02*
X138722700Y-66826200D01*
X162754700Y-68633000D02*
X140529500Y-68633000D01*
X163205000Y-69083300D02*
X162754700Y-68633000D01*
X164069100Y-69083300D02*
X163205000Y-69083300D01*
X164493300Y-69507500D02*
X164069100Y-69083300D01*
X172225200Y-69507500D02*
X164493300Y-69507500D01*
X172635400Y-69097300D02*
X172225200Y-69507500D01*
X139586700Y-69083300D02*
X138706700Y-68203300D01*
X162568100Y-69083300D02*
X139586700Y-69083300D01*
X163018400Y-69533600D02*
X162568100Y-69083300D01*
X163882500Y-69533600D02*
X163018400Y-69533600D01*
X164381800Y-70032900D02*
X163882500Y-69533600D01*
X170815000Y-70032900D02*
X164381800Y-70032900D01*
X175414500Y-93558100D02*
X176001800Y-92970800D01*
X173498400Y-93558100D02*
X175414500Y-93558100D01*
X173169600Y-93229300D02*
X173498400Y-93558100D01*
X173169600Y-92601400D02*
X173169600Y-93229300D01*
X173593100Y-92177900D02*
X173169600Y-92601400D01*
X151778800Y-72700900D02*
X149622400Y-70544500D01*
X171837700Y-72700900D02*
X151778800Y-72700900D01*
X171920600Y-89072000D02*
X171920600Y-85961800D01*
X174487800Y-91639200D02*
X171920600Y-89072000D01*
X174670800Y-91639200D02*
X174487800Y-91639200D01*
X173266900Y-73226200D02*
X173355000Y-73138100D01*
X151328000Y-73226200D02*
X173266900Y-73226200D01*
X149024100Y-70922300D02*
X151328000Y-73226200D01*
X174080400Y-86511700D02*
X174080400Y-90467200D01*
X173355000Y-85786300D02*
X174080400Y-86511700D01*
X154723200Y-72048900D02*
X154099300Y-71425000D01*
X177195900Y-72048900D02*
X154723200Y-72048900D01*
X177884600Y-89268100D02*
X177884600Y-88833800D01*
X174142400Y-93010300D02*
X177884600Y-89268100D01*
X173695000Y-93010300D02*
X174142400Y-93010300D01*
X148319000Y-77694800D02*
X148319000Y-74502100D01*
X147366900Y-78646900D02*
X148319000Y-77694800D01*
X147366900Y-79082100D02*
X147366900Y-78646900D01*
X149301800Y-81017000D02*
X147366900Y-79082100D01*
X153061800Y-81017000D02*
X149301800Y-81017000D01*
X157167800Y-85123000D02*
X153061800Y-81017000D01*
X170219900Y-85123000D02*
X157167800Y-85123000D01*
X172576400Y-82766500D02*
X170219900Y-85123000D01*
X174625000Y-82766500D02*
X172576400Y-82766500D01*
X170219900Y-85123000D02*
X170219900Y-85638800D01*
X147944100Y-70609700D02*
X147673200Y-70609700D01*
X151010900Y-73676500D02*
X147944100Y-70609700D01*
X154507200Y-73676500D02*
X151010900Y-73676500D01*
X156082700Y-75252000D02*
X154507200Y-73676500D01*
X166195100Y-75252000D02*
X156082700Y-75252000D01*
X168994700Y-78051600D02*
X166195100Y-75252000D01*
X169653800Y-77392500D02*
X170782900Y-77392500D01*
X168994700Y-78051600D02*
X169653800Y-77392500D01*
X149875100Y-65480900D02*
X149800000Y-65405800D01*
X164286100Y-65480900D02*
X149875100Y-65480900D01*
X164736400Y-65931200D02*
X164286100Y-65480900D01*
X165375300Y-65931200D02*
X164736400Y-65931200D01*
X165799500Y-66355400D02*
X165375300Y-65931200D01*
X170189600Y-66355400D02*
X165799500Y-66355400D01*
X170264700Y-66280300D02*
X170189600Y-66355400D01*
X164286000Y-94451400D02*
X170067600Y-94451400D01*
X153115100Y-83280500D02*
X164286000Y-94451400D01*
X152799200Y-83280500D02*
X153115100Y-83280500D01*
X151627700Y-82109000D02*
X152799200Y-83280500D01*
X149756900Y-82109000D02*
X151627700Y-82109000D01*
X146916600Y-79268700D02*
X149756900Y-82109000D01*
X146916600Y-78460300D02*
X146916600Y-79268700D01*
X147782000Y-77594900D02*
X146916600Y-78460300D01*
X147782000Y-74835600D02*
X147782000Y-77594900D01*
X170391500Y-94976700D02*
X170471700Y-94896500D01*
X164174400Y-94976700D02*
X170391500Y-94976700D01*
X152928500Y-83730800D02*
X164174400Y-94976700D01*
X152612600Y-83730800D02*
X152928500Y-83730800D01*
X151441100Y-82559300D02*
X152612600Y-83730800D01*
X149570300Y-82559300D02*
X151441100Y-82559300D01*
X146466300Y-79455300D02*
X149570300Y-82559300D01*
X146466300Y-76354900D02*
X146466300Y-79455300D01*
X146622500Y-76198700D02*
X146466300Y-76354900D01*
X149935300Y-78864500D02*
X147892200Y-78864500D01*
X152116400Y-78864500D02*
X149935300Y-78864500D01*
X154603500Y-81351600D02*
X152116400Y-78864500D01*
X164124800Y-81351600D02*
X154603500Y-81351600D01*
X163947900Y-47938500D02*
X161828200Y-45818800D01*
X168577500Y-47938500D02*
X163947900Y-47938500D01*
X164814000Y-80662400D02*
X169405600Y-80662400D01*
X164124800Y-81351600D02*
X164814000Y-80662400D01*
X140236100Y-82777800D02*
X136757200Y-79298900D01*
X140236100Y-84961000D02*
X140236100Y-82777800D01*
X146632600Y-91357500D02*
X140236100Y-84961000D01*
X154588200Y-91357500D02*
X146632600Y-91357500D01*
X146027300Y-92342600D02*
X153375000Y-92342600D01*
X137424700Y-83740000D02*
X146027300Y-92342600D01*
X152068900Y-84524000D02*
X153487100Y-85942200D01*
X149943200Y-84524000D02*
X152068900Y-84524000D01*
X139866100Y-74446900D02*
X149943200Y-84524000D01*
X139866100Y-71756800D02*
X139866100Y-74446900D01*
X140500200Y-71122700D02*
X139866100Y-71756800D01*
X138579100Y-77196300D02*
X138579100Y-76983900D01*
X141778600Y-80395800D02*
X138579100Y-77196300D01*
X143852200Y-80395800D02*
X141778600Y-80395800D01*
X150823900Y-87367500D02*
X143852200Y-80395800D01*
X152941300Y-87367500D02*
X150823900Y-87367500D01*
X181218300Y-75560800D02*
X181218300Y-72315800D01*
X182231000Y-76573500D02*
X181218300Y-75560800D01*
X172330100Y-45711500D02*
X180975000Y-54356400D01*
X164194000Y-45711500D02*
X172330100Y-45711500D01*
X175720500Y-94008400D02*
X180975000Y-88753900D01*
X172983000Y-94008400D02*
X175720500Y-94008400D01*
X172412500Y-93437900D02*
X172983000Y-94008400D01*
X166771800Y-93437900D02*
X172412500Y-93437900D01*
X174034500Y-48640200D02*
X182329700Y-56935400D01*
X161660000Y-48640200D02*
X174034500Y-48640200D01*
X157311200Y-44291400D02*
X161660000Y-48640200D01*
X153359600Y-82755200D02*
X153016800Y-82755200D01*
X164185000Y-93580600D02*
X153359600Y-82755200D01*
X176550900Y-94458700D02*
X182245000Y-88764600D01*
X172796400Y-94458700D02*
X176550900Y-94458700D01*
X172236400Y-93898700D02*
X172796400Y-94458700D01*
X169872000Y-93898700D02*
X172236400Y-93898700D01*
X169807500Y-93963200D02*
X169872000Y-93898700D01*
X164567600Y-93963200D02*
X169807500Y-93963200D01*
X164185000Y-93580600D02*
X164567600Y-93963200D01*
X152400000Y-33020000D02*
X153741300Y-33020000D01*
X155082600Y-34361300D02*
X153741300Y-33020000D01*
X168992500Y-34361300D02*
X155082600Y-34361300D01*
X185324200Y-50693000D02*
X168992500Y-34361300D01*
X185324200Y-52815300D02*
X185324200Y-50693000D01*
X183515000Y-54624500D02*
X185324200Y-52815300D01*
X179023700Y-95427000D02*
X183515000Y-90935700D01*
X163706600Y-95427000D02*
X179023700Y-95427000D01*
X163535000Y-95255400D02*
X163706600Y-95427000D01*
X148590000Y-33020000D02*
X149931300Y-33020000D01*
X153287400Y-36376100D02*
X149931300Y-33020000D01*
X170223200Y-36376100D02*
X153287400Y-36376100D01*
X184785000Y-50937900D02*
X170223200Y-36376100D01*
X158847000Y-81907900D02*
X184785000Y-81907900D01*
X157377400Y-83377500D02*
X158847000Y-81907900D01*
X183515000Y-50304800D02*
X183515000Y-50423700D01*
X173593600Y-40383400D02*
X183515000Y-50304800D01*
X153484700Y-40383400D02*
X173593600Y-40383400D01*
X146121300Y-33020000D02*
X153484700Y-40383400D01*
X144780000Y-33020000D02*
X146121300Y-33020000D01*
X159736500Y-76039000D02*
X162230000Y-78532500D01*
X150746500Y-76039000D02*
X159736500Y-76039000D01*
X162286200Y-78588700D02*
X183430300Y-78588700D01*
X162230000Y-78532500D02*
X162286200Y-78588700D01*
X140970000Y-33020000D02*
X142311300Y-33020000D01*
X151490700Y-42199400D02*
X142311300Y-33020000D01*
X174593200Y-42199400D02*
X151490700Y-42199400D01*
X182245000Y-49851200D02*
X174593200Y-42199400D01*
X154624800Y-79120000D02*
X181610000Y-79120000D01*
X137160000Y-33020000D02*
X138501300Y-33020000D01*
X139842600Y-34361300D02*
X138501300Y-33020000D01*
X142977400Y-34361300D02*
X139842600Y-34361300D01*
X151406600Y-42790500D02*
X142977400Y-34361300D01*
X174383600Y-42790500D02*
X151406600Y-42790500D01*
X175144800Y-43551700D02*
X174383600Y-42790500D01*
X150057500Y-74189100D02*
X149378100Y-73509700D01*
X150057500Y-76168700D02*
X150057500Y-74189100D01*
X154697600Y-80808800D02*
X150057500Y-76168700D01*
X160935000Y-80808800D02*
X154697600Y-80808800D01*
X161666400Y-80077400D02*
X180975000Y-80077400D01*
X160935000Y-80808800D02*
X161666400Y-80077400D01*
X133350000Y-33020000D02*
X134691300Y-33020000D01*
X151295000Y-43315800D02*
X162371000Y-43315800D01*
X142790800Y-34811600D02*
X151295000Y-43315800D01*
X136482900Y-34811600D02*
X142790800Y-34811600D01*
X134691300Y-33020000D02*
X136482900Y-34811600D01*
X169051100Y-44077000D02*
X175643500Y-44077000D01*
X168289900Y-43315800D02*
X169051100Y-44077000D01*
X162371000Y-43315800D02*
X168289900Y-43315800D01*
X110490000Y-36830000D02*
X111678900Y-36830000D01*
X127351800Y-53023000D02*
X144049400Y-53023000D01*
X111678900Y-37350100D02*
X127351800Y-53023000D01*
X111678900Y-36830000D02*
X111678900Y-37350100D01*
X113030000Y-36830000D02*
X114218900Y-36830000D01*
X128550600Y-51681800D02*
X140760600Y-51681800D01*
X114218900Y-37350100D02*
X128550600Y-51681800D01*
X114218900Y-36830000D02*
X114218900Y-37350100D01*
X149027900Y-64130000D02*
X148850000Y-63952100D01*
X163678300Y-64130000D02*
X149027900Y-64130000D01*
X164767500Y-65219200D02*
X163678300Y-64130000D01*
X166194900Y-71245500D02*
X166413300Y-71463900D01*
X163608900Y-71245500D02*
X166194900Y-71245500D01*
X145978400Y-69544700D02*
X145907300Y-69615800D01*
X162392600Y-69544700D02*
X145978400Y-69544700D01*
X162831800Y-69983900D02*
X162392600Y-69544700D01*
X163010100Y-69983900D02*
X162831800Y-69983900D01*
X163608900Y-70582700D02*
X163010100Y-69983900D01*
X163608900Y-71245500D02*
X163608900Y-70582700D01*
X148632300Y-63426800D02*
X148047500Y-64011600D01*
X151568700Y-63426800D02*
X148632300Y-63426800D01*
X151821600Y-63679700D02*
X151568700Y-63426800D01*
X164349700Y-63679700D02*
X151821600Y-63679700D01*
X166500000Y-65830000D02*
X164349700Y-63679700D01*
X142408600Y-61414900D02*
X141168700Y-62654800D01*
X168257400Y-61414900D02*
X142408600Y-61414900D01*
X168275000Y-61432500D02*
X168257400Y-61414900D01*
X168275000Y-63079300D02*
X152858800Y-63079300D01*
X140970000Y-30480000D02*
X137160000Y-30480000D01*
X137160000Y-30480000D02*
X133350000Y-30480000D01*
X152400000Y-30480000D02*
X148590000Y-30480000D01*
X140970000Y-30480000D02*
X144780000Y-30480000D01*
X144780000Y-30480000D02*
X148590000Y-30480000D01*
X152400000Y-30480000D02*
X156210000Y-30480000D01*
X156210000Y-30480000D02*
X160020000Y-30480000D01*
X159231600Y-105057600D02*
X166969500Y-105057600D01*
X148560700Y-113938300D02*
X150295800Y-113938300D01*
X147475900Y-115023100D02*
X148560700Y-113938300D01*
X147475900Y-115891100D02*
X147475900Y-115023100D01*
X151586200Y-120001400D02*
X147475900Y-115891100D01*
X151733200Y-120001400D02*
X151586200Y-120001400D01*
X155776000Y-120001400D02*
X158958000Y-123183400D01*
X152926400Y-120001400D02*
X155776000Y-120001400D01*
X132933000Y-77370500D02*
X132932900Y-77370500D01*
X132933000Y-78694100D02*
X132933000Y-77370500D01*
X136060600Y-81821700D02*
X132933000Y-78694100D01*
X157997200Y-64596600D02*
X158296500Y-64895900D01*
X141761500Y-64596600D02*
X157997200Y-64596600D01*
X140868000Y-63703100D02*
X141761500Y-64596600D01*
X158446500Y-73780600D02*
X178269000Y-73780600D01*
X158126300Y-74100800D02*
X158446500Y-73780600D01*
X147176300Y-51902500D02*
X146766100Y-52312700D01*
X176530000Y-51902500D02*
X147176300Y-51902500D01*
X146766100Y-52312700D02*
X140235300Y-52312700D01*
X135753900Y-86574700D02*
X135753900Y-86228900D01*
X143733900Y-94554700D02*
X135753900Y-86574700D01*
X150775000Y-94554700D02*
X143733900Y-94554700D01*
X149604100Y-85056700D02*
X151850900Y-85056700D01*
X139000200Y-74452800D02*
X149604100Y-85056700D01*
X136096500Y-74452800D02*
X139000200Y-74452800D01*
X160157800Y-44828100D02*
X175895000Y-44828100D01*
X159907200Y-44577500D02*
X160157800Y-44828100D01*
X122001400Y-57073600D02*
X115865000Y-57073600D01*
X124926100Y-54148900D02*
X122001400Y-57073600D01*
X155843000Y-54148900D02*
X124926100Y-54148900D01*
X156176600Y-54482500D02*
X155843000Y-54148900D01*
X158462000Y-54482500D02*
X156176600Y-54482500D01*
X125065700Y-53698500D02*
X156135600Y-53698500D01*
X124135000Y-52767800D02*
X125065700Y-53698500D01*
X121549000Y-54701800D02*
X122329900Y-53920900D01*
X116515000Y-54701800D02*
X121549000Y-54701800D01*
D24*
G36*
X195815000Y-125493000D02*
X186000000Y-125493000D01*
X185950590Y-125503006D01*
X185908965Y-125531447D01*
X185881685Y-125573841D01*
X185873000Y-125620000D01*
X185873000Y-126349096D01*
X185867143Y-126357862D01*
X185815000Y-126620000D01*
X185815000Y-139411641D01*
X185487637Y-139411355D01*
X185180628Y-139538208D01*
X185087975Y-139630700D01*
X184912000Y-139630700D01*
X184621161Y-139688552D01*
X184374599Y-139853299D01*
X184230767Y-140068560D01*
X183946800Y-140068560D01*
X183868752Y-140083246D01*
X183897455Y-140014121D01*
X183897745Y-139681937D01*
X183770892Y-139374928D01*
X183536207Y-139139834D01*
X183229421Y-139012445D01*
X182897237Y-139012155D01*
X182590228Y-139139008D01*
X182355134Y-139373693D01*
X182279671Y-139555427D01*
X182162781Y-139672317D01*
X182081161Y-139688552D01*
X181834599Y-139853299D01*
X181690767Y-140068560D01*
X181406800Y-140068560D01*
X181257631Y-140096628D01*
X181257645Y-140081137D01*
X181130792Y-139774128D01*
X180896107Y-139539034D01*
X180589321Y-139411645D01*
X180257137Y-139411355D01*
X179950128Y-139538208D01*
X179857475Y-139630700D01*
X179832000Y-139630700D01*
X179541161Y-139688552D01*
X179294599Y-139853299D01*
X179150767Y-140068560D01*
X178866800Y-140068560D01*
X178631483Y-140112838D01*
X178563378Y-140156662D01*
X178509090Y-140119569D01*
X178257200Y-140068560D01*
X178052000Y-140068560D01*
X178052000Y-125042700D01*
X178040423Y-124984500D01*
X177994148Y-124751860D01*
X177829401Y-124505299D01*
X176273936Y-122949834D01*
X189134543Y-122949834D01*
X189534853Y-123918658D01*
X190275443Y-124660542D01*
X191243567Y-125062542D01*
X192291834Y-125063457D01*
X193260658Y-124663147D01*
X194002542Y-123922557D01*
X194404542Y-122954433D01*
X194405457Y-121906166D01*
X194005147Y-120937342D01*
X193264557Y-120195458D01*
X192296433Y-119793458D01*
X191248166Y-119792543D01*
X190279342Y-120192853D01*
X189537458Y-120933443D01*
X189135458Y-121901567D01*
X189134543Y-122949834D01*
X176273936Y-122949834D01*
X171094400Y-117770298D01*
X171094400Y-116820691D01*
X171170900Y-116852457D01*
X171726661Y-116852942D01*
X172240303Y-116640710D01*
X172633629Y-116248070D01*
X172719949Y-116040188D01*
X172804990Y-116246003D01*
X173197630Y-116639329D01*
X173710900Y-116852457D01*
X174266661Y-116852942D01*
X174780303Y-116640710D01*
X175173629Y-116248070D01*
X175259949Y-116040188D01*
X175344990Y-116246003D01*
X175737630Y-116639329D01*
X176250900Y-116852457D01*
X176806661Y-116852942D01*
X177320303Y-116640710D01*
X177713629Y-116248070D01*
X177799949Y-116040188D01*
X177884990Y-116246003D01*
X178277630Y-116639329D01*
X178790900Y-116852457D01*
X179346661Y-116852942D01*
X179860303Y-116640710D01*
X180065457Y-116435913D01*
X180809392Y-116435913D01*
X180878857Y-116678097D01*
X181402302Y-116864844D01*
X181957368Y-116837062D01*
X182341143Y-116678097D01*
X182410608Y-116435913D01*
X181610000Y-115635305D01*
X180809392Y-116435913D01*
X180065457Y-116435913D01*
X180253629Y-116248070D01*
X180333395Y-116055973D01*
X180387603Y-116186843D01*
X180629787Y-116256308D01*
X181430395Y-115455700D01*
X181416253Y-115441558D01*
X181595858Y-115261953D01*
X181610000Y-115276095D01*
X182410608Y-114475487D01*
X182341143Y-114233303D01*
X181817698Y-114046556D01*
X181540049Y-114060453D01*
X182803602Y-112796900D01*
X184727500Y-112796900D01*
X184927700Y-112757077D01*
X184927700Y-113603198D01*
X184459381Y-114071517D01*
X184429100Y-114058943D01*
X183873339Y-114058458D01*
X183359697Y-114270690D01*
X182966371Y-114663330D01*
X182886605Y-114855427D01*
X182832397Y-114724557D01*
X182590213Y-114655092D01*
X181789605Y-115455700D01*
X182590213Y-116256308D01*
X182832397Y-116186843D01*
X182882509Y-116046382D01*
X182964990Y-116246003D01*
X183357630Y-116639329D01*
X183870900Y-116852457D01*
X184426661Y-116852942D01*
X184940303Y-116640710D01*
X185333629Y-116248070D01*
X185546757Y-115734800D01*
X185547242Y-115179039D01*
X185533857Y-115146645D01*
X186225101Y-114455401D01*
X186389848Y-114208840D01*
X186447700Y-113918000D01*
X186447700Y-109146200D01*
X186389848Y-108855361D01*
X186389848Y-108855360D01*
X186225101Y-108608799D01*
X183606301Y-105989999D01*
X183359739Y-105825252D01*
X183068900Y-105767400D01*
X183010902Y-105767400D01*
X178763236Y-101519734D01*
X178923072Y-101453692D01*
X178933382Y-101443400D01*
X185457909Y-101443400D01*
X185638179Y-101518255D01*
X185970363Y-101518545D01*
X186277372Y-101391692D01*
X186512466Y-101157007D01*
X186639855Y-100850221D01*
X186640145Y-100518037D01*
X186513292Y-100211028D01*
X186278607Y-99975934D01*
X185971821Y-99848545D01*
X185639637Y-99848255D01*
X185457771Y-99923400D01*
X178648479Y-99923400D01*
X178617521Y-99910545D01*
X178285337Y-99910255D01*
X177978328Y-100037108D01*
X177743234Y-100271793D01*
X177615845Y-100578579D01*
X177615555Y-100910763D01*
X177697051Y-101108000D01*
X171029058Y-101108000D01*
X171152466Y-100984807D01*
X171279855Y-100678021D01*
X171280145Y-100345837D01*
X171153292Y-100038828D01*
X170918607Y-99803734D01*
X170611821Y-99676345D01*
X170279637Y-99676055D01*
X170097771Y-99751200D01*
X152632200Y-99751200D01*
X152341360Y-99809052D01*
X152094799Y-99973799D01*
X151177198Y-100891400D01*
X145798619Y-100891400D01*
X145802100Y-100873900D01*
X145802100Y-97848100D01*
X152843500Y-97848100D01*
X153134339Y-97790248D01*
X153380901Y-97625501D01*
X154966970Y-96039432D01*
X155022229Y-96016600D01*
X159287909Y-96016600D01*
X159343127Y-96039529D01*
X160907599Y-97604001D01*
X161154161Y-97768748D01*
X161445000Y-97826600D01*
X164255509Y-97826600D01*
X164310727Y-97849529D01*
X164498599Y-98037401D01*
X164745161Y-98202148D01*
X165036000Y-98260000D01*
X174748409Y-98260000D01*
X174928679Y-98334855D01*
X175260863Y-98335145D01*
X175567872Y-98208292D01*
X175802966Y-97973607D01*
X175930355Y-97666821D01*
X175930645Y-97334637D01*
X175803792Y-97027628D01*
X175569107Y-96792534D01*
X175262321Y-96665145D01*
X174930137Y-96664855D01*
X174748271Y-96740000D01*
X165371124Y-96740000D01*
X165310892Y-96594228D01*
X165076207Y-96359134D01*
X164769421Y-96231745D01*
X164437237Y-96231455D01*
X164255371Y-96306600D01*
X161759802Y-96306600D01*
X160417832Y-94964630D01*
X160343292Y-94784228D01*
X160108607Y-94549134D01*
X159801821Y-94421745D01*
X159469637Y-94421455D01*
X159287771Y-94496600D01*
X155022091Y-94496600D01*
X154841821Y-94421745D01*
X154509637Y-94421455D01*
X154202628Y-94548308D01*
X153967534Y-94782993D01*
X153892071Y-94964727D01*
X152528698Y-96328100D01*
X144862091Y-96328100D01*
X144681821Y-96253245D01*
X144349637Y-96252955D01*
X144042628Y-96379808D01*
X143807534Y-96614493D01*
X143680145Y-96921279D01*
X143679855Y-97253463D01*
X143806708Y-97560472D01*
X144041393Y-97795566D01*
X144282100Y-97895517D01*
X144282100Y-99281598D01*
X140930013Y-95929511D01*
X140962229Y-95916200D01*
X151558200Y-95916200D01*
X151849039Y-95858348D01*
X152095601Y-95693601D01*
X155688701Y-92100501D01*
X155853448Y-91853939D01*
X155911300Y-91563100D01*
X155911300Y-87788402D01*
X162866146Y-94743248D01*
X162827534Y-94781793D01*
X162700145Y-95088579D01*
X162699855Y-95420763D01*
X162826708Y-95727772D01*
X163061393Y-95962866D01*
X163340110Y-96078600D01*
X163415761Y-96129148D01*
X163706600Y-96187000D01*
X179023700Y-96187000D01*
X179314539Y-96129148D01*
X179561101Y-95964401D01*
X183806970Y-91718532D01*
X183987372Y-91643992D01*
X184222466Y-91409307D01*
X184349855Y-91102521D01*
X184350145Y-90770337D01*
X184223292Y-90463328D01*
X183988607Y-90228234D01*
X183681821Y-90100845D01*
X183349637Y-90100555D01*
X183042628Y-90227408D01*
X182807534Y-90462093D01*
X182732071Y-90643827D01*
X178708898Y-94667000D01*
X177417402Y-94667000D01*
X182536970Y-89547432D01*
X182717372Y-89472892D01*
X182952466Y-89238207D01*
X183079855Y-88931421D01*
X183080145Y-88599237D01*
X182953292Y-88292228D01*
X182718607Y-88057134D01*
X182411821Y-87929745D01*
X182079637Y-87929455D01*
X181772628Y-88056308D01*
X181615272Y-88213390D01*
X181448607Y-88046434D01*
X181141821Y-87919045D01*
X180809637Y-87918755D01*
X180502628Y-88045608D01*
X180267534Y-88280293D01*
X180192071Y-88462027D01*
X176415599Y-92238499D01*
X176168621Y-92135945D01*
X176091624Y-92135878D01*
X178422001Y-89805501D01*
X178586748Y-89558939D01*
X178644600Y-89268100D01*
X178644600Y-89180891D01*
X178719455Y-89000621D01*
X178719745Y-88668437D01*
X178592892Y-88361428D01*
X178358207Y-88126334D01*
X178051421Y-87998945D01*
X177719237Y-87998655D01*
X177412228Y-88125508D01*
X177177134Y-88360193D01*
X177049745Y-88666979D01*
X177049455Y-88999163D01*
X177058016Y-89019882D01*
X175145285Y-90932613D01*
X175144407Y-90931734D01*
X174843514Y-90806792D01*
X174915255Y-90634021D01*
X174915545Y-90301837D01*
X174840400Y-90119971D01*
X174840400Y-86511700D01*
X174782548Y-86220861D01*
X174617801Y-85974299D01*
X174137832Y-85494330D01*
X174063292Y-85313928D01*
X173828607Y-85078834D01*
X173521821Y-84951445D01*
X173189637Y-84951155D01*
X172882628Y-85078008D01*
X172647534Y-85312693D01*
X172590229Y-85450698D01*
X172394207Y-85254334D01*
X172087421Y-85126945D01*
X171755237Y-85126655D01*
X171448228Y-85253508D01*
X171213134Y-85488193D01*
X171085745Y-85794979D01*
X171085455Y-86127163D01*
X171160600Y-86309029D01*
X171160600Y-89072000D01*
X171218452Y-89362839D01*
X171383199Y-89609401D01*
X173207537Y-91433739D01*
X173120728Y-91469608D01*
X172885634Y-91704293D01*
X172810171Y-91886027D01*
X172632199Y-92063999D01*
X172467452Y-92310561D01*
X172409600Y-92601400D01*
X172409600Y-92677900D01*
X167118891Y-92677900D01*
X166938621Y-92603045D01*
X166606437Y-92602755D01*
X166299428Y-92729608D01*
X166064334Y-92964293D01*
X165965131Y-93203200D01*
X164932533Y-93203200D01*
X164893292Y-93108228D01*
X164658607Y-92873134D01*
X164476875Y-92797672D01*
X157562202Y-85883000D01*
X169417330Y-85883000D01*
X169511608Y-86111172D01*
X169746293Y-86346266D01*
X170053079Y-86473655D01*
X170385263Y-86473945D01*
X170692272Y-86347092D01*
X170927366Y-86112407D01*
X171054755Y-85805621D01*
X171055045Y-85473437D01*
X171022655Y-85395047D01*
X172891202Y-83526500D01*
X174277909Y-83526500D01*
X174458179Y-83601355D01*
X174790363Y-83601645D01*
X175097372Y-83474792D01*
X175332466Y-83240107D01*
X175459855Y-82933321D01*
X175460087Y-82667900D01*
X184437909Y-82667900D01*
X184618179Y-82742755D01*
X184950363Y-82743045D01*
X185257372Y-82616192D01*
X185492466Y-82381507D01*
X185619855Y-82074721D01*
X185620145Y-81742537D01*
X185493292Y-81435528D01*
X185258607Y-81200434D01*
X184951821Y-81073045D01*
X184619637Y-81072755D01*
X184437771Y-81147900D01*
X170101152Y-81147900D01*
X170113066Y-81136007D01*
X170237059Y-80837400D01*
X180627909Y-80837400D01*
X180808179Y-80912255D01*
X181140363Y-80912545D01*
X181447372Y-80785692D01*
X181682466Y-80551007D01*
X181809855Y-80244221D01*
X181810120Y-79940784D01*
X182082372Y-79828292D01*
X182317466Y-79593607D01*
X182419161Y-79348700D01*
X183083209Y-79348700D01*
X183263479Y-79423555D01*
X183595663Y-79423845D01*
X183902672Y-79296992D01*
X184137766Y-79062307D01*
X184265155Y-78755521D01*
X184265445Y-78423337D01*
X184138592Y-78116328D01*
X183903907Y-77881234D01*
X183597121Y-77753845D01*
X183264937Y-77753555D01*
X183083071Y-77828700D01*
X176751102Y-77828700D01*
X179864801Y-74715001D01*
X180029548Y-74468440D01*
X180087400Y-74177600D01*
X180087400Y-72481163D01*
X180383155Y-72481163D01*
X180458300Y-72663029D01*
X180458300Y-75560800D01*
X180516152Y-75851639D01*
X180680899Y-76098201D01*
X181448168Y-76865470D01*
X181522708Y-77045872D01*
X181757393Y-77280966D01*
X182064179Y-77408355D01*
X182396363Y-77408645D01*
X182703372Y-77281792D01*
X182938466Y-77047107D01*
X183065855Y-76740321D01*
X183066145Y-76408137D01*
X182939292Y-76101128D01*
X182704607Y-75866034D01*
X182522873Y-75790571D01*
X181978300Y-75245998D01*
X181978300Y-72662891D01*
X182053155Y-72482621D01*
X182053445Y-72150437D01*
X181926592Y-71843428D01*
X181691907Y-71608334D01*
X181385121Y-71480945D01*
X181052937Y-71480655D01*
X180745928Y-71607508D01*
X180510834Y-71842193D01*
X180383445Y-72148979D01*
X180383155Y-72481163D01*
X180087400Y-72481163D01*
X180087400Y-70106000D01*
X180029548Y-69815161D01*
X179968131Y-69723243D01*
X179864801Y-69568598D01*
X176529501Y-66233299D01*
X176282939Y-66068552D01*
X175992100Y-66010700D01*
X173702091Y-66010700D01*
X173521821Y-65935845D01*
X173410254Y-65935748D01*
X175325902Y-64020100D01*
X179442609Y-64020100D01*
X179622879Y-64094955D01*
X179955063Y-64095245D01*
X180262072Y-63968392D01*
X180497166Y-63733707D01*
X180624555Y-63426921D01*
X180624845Y-63094737D01*
X180497992Y-62787728D01*
X180263307Y-62552634D01*
X179956521Y-62425245D01*
X179624337Y-62424955D01*
X179442471Y-62500100D01*
X176209002Y-62500100D01*
X178511602Y-60197500D01*
X185612909Y-60197500D01*
X185793179Y-60272355D01*
X186125363Y-60272645D01*
X186432372Y-60145792D01*
X186667466Y-59911107D01*
X186794855Y-59604321D01*
X186795145Y-59272137D01*
X186668292Y-58965128D01*
X186433607Y-58730034D01*
X186126821Y-58602645D01*
X185794637Y-58602355D01*
X185612771Y-58677500D01*
X179217300Y-58677500D01*
X179217345Y-58625837D01*
X179090492Y-58318828D01*
X178855807Y-58083734D01*
X178549021Y-57956345D01*
X178216837Y-57956055D01*
X178034971Y-58031200D01*
X141768700Y-58031200D01*
X141477861Y-58089052D01*
X141231299Y-58253799D01*
X137669330Y-61815768D01*
X137488928Y-61890308D01*
X137253834Y-62124993D01*
X137219958Y-62206576D01*
X136937928Y-62323108D01*
X136702834Y-62557793D01*
X136575445Y-62864579D01*
X136575155Y-63196763D01*
X136650400Y-63378871D01*
X136650400Y-64255598D01*
X135505702Y-63110900D01*
X142568802Y-56047800D01*
X149344209Y-56047800D01*
X149524479Y-56122655D01*
X149856663Y-56122945D01*
X150163672Y-55996092D01*
X150398766Y-55761407D01*
X150522759Y-55462800D01*
X151486909Y-55462800D01*
X151667179Y-55537655D01*
X151999363Y-55537945D01*
X152306372Y-55411092D01*
X152541466Y-55176407D01*
X152652545Y-54908900D01*
X155528198Y-54908900D01*
X155639199Y-55019901D01*
X155885761Y-55184648D01*
X156176600Y-55242500D01*
X158114909Y-55242500D01*
X158295179Y-55317355D01*
X158627363Y-55317645D01*
X158934372Y-55190792D01*
X159169466Y-54956107D01*
X159296855Y-54649321D01*
X159297145Y-54317137D01*
X159170292Y-54010128D01*
X158935607Y-53775034D01*
X158628821Y-53647645D01*
X158296637Y-53647355D01*
X158114771Y-53722500D01*
X156970580Y-53722500D01*
X156970745Y-53533137D01*
X156843892Y-53226128D01*
X156609207Y-52991034D01*
X156302421Y-52863645D01*
X155970237Y-52863355D01*
X155788371Y-52938500D01*
X147321108Y-52938500D01*
X147473566Y-52786307D01*
X147524975Y-52662500D01*
X176182909Y-52662500D01*
X176363179Y-52737355D01*
X176695363Y-52737645D01*
X176951365Y-52631867D01*
X181546868Y-57227370D01*
X181621408Y-57407772D01*
X181856093Y-57642866D01*
X182162879Y-57770255D01*
X182495063Y-57770545D01*
X182802072Y-57643692D01*
X183037166Y-57409007D01*
X183164555Y-57102221D01*
X183164845Y-56770037D01*
X183037992Y-56463028D01*
X182803307Y-56227934D01*
X182621573Y-56152471D01*
X181490621Y-55021519D01*
X181682466Y-54830007D01*
X181809855Y-54523221D01*
X181810145Y-54191037D01*
X181683292Y-53884028D01*
X181448607Y-53648934D01*
X181266873Y-53573471D01*
X173281502Y-45588100D01*
X175547909Y-45588100D01*
X175728179Y-45662955D01*
X176060363Y-45663245D01*
X176367372Y-45536392D01*
X176602466Y-45301707D01*
X176607817Y-45288819D01*
X181462168Y-50143170D01*
X181536708Y-50323572D01*
X181771393Y-50558666D01*
X182078179Y-50686055D01*
X182410363Y-50686345D01*
X182679867Y-50574989D01*
X182679855Y-50589063D01*
X182806708Y-50896072D01*
X183041393Y-51131166D01*
X183348179Y-51258555D01*
X183680363Y-51258845D01*
X183928582Y-51156284D01*
X184002168Y-51229870D01*
X184076708Y-51410272D01*
X184311393Y-51645366D01*
X184564200Y-51750341D01*
X184564200Y-52500498D01*
X183223030Y-53841668D01*
X183042628Y-53916208D01*
X182807534Y-54150893D01*
X182680145Y-54457679D01*
X182679855Y-54789863D01*
X182806708Y-55096872D01*
X183041393Y-55331966D01*
X183348179Y-55459355D01*
X183680363Y-55459645D01*
X183987372Y-55332792D01*
X184222466Y-55098107D01*
X184297929Y-54916373D01*
X185861601Y-53352701D01*
X186026348Y-53106140D01*
X186084200Y-52815300D01*
X186084200Y-50693000D01*
X186026348Y-50402161D01*
X185861601Y-50155599D01*
X169529901Y-33823899D01*
X169283339Y-33659152D01*
X168992500Y-33601300D01*
X161587717Y-33601300D01*
X161703345Y-33020000D01*
X161577670Y-32388190D01*
X161350501Y-32048208D01*
X161487441Y-31960090D01*
X161632431Y-31747890D01*
X161680638Y-31509834D01*
X187864543Y-31509834D01*
X188264853Y-32478658D01*
X189005443Y-33220542D01*
X189973567Y-33622542D01*
X191021834Y-33623457D01*
X191990658Y-33223147D01*
X192732542Y-32482557D01*
X193134542Y-31514433D01*
X193135457Y-30466166D01*
X192735147Y-29497342D01*
X191994557Y-28755458D01*
X191026433Y-28353458D01*
X189978166Y-28352543D01*
X189009342Y-28752853D01*
X188267458Y-29493443D01*
X187865458Y-30461567D01*
X187864543Y-31509834D01*
X161680638Y-31509834D01*
X161683440Y-31496000D01*
X161683440Y-29464000D01*
X161639162Y-29228683D01*
X161500090Y-29012559D01*
X161287890Y-28867569D01*
X161036000Y-28816560D01*
X159004000Y-28816560D01*
X158768683Y-28860838D01*
X158552559Y-28999910D01*
X158407569Y-29212110D01*
X158356560Y-29464000D01*
X158356560Y-29720000D01*
X157873440Y-29720000D01*
X157873440Y-29464000D01*
X157829162Y-29228683D01*
X157690090Y-29012559D01*
X157477890Y-28867569D01*
X157226000Y-28816560D01*
X155194000Y-28816560D01*
X154958683Y-28860838D01*
X154742559Y-28999910D01*
X154597569Y-29212110D01*
X154546560Y-29464000D01*
X154546560Y-29720000D01*
X154063440Y-29720000D01*
X154063440Y-29464000D01*
X154019162Y-29228683D01*
X153880090Y-29012559D01*
X153667890Y-28867569D01*
X153416000Y-28816560D01*
X151384000Y-28816560D01*
X151148683Y-28860838D01*
X150932559Y-28999910D01*
X150787569Y-29212110D01*
X150736560Y-29464000D01*
X150736560Y-29720000D01*
X150253440Y-29720000D01*
X150253440Y-29464000D01*
X150209162Y-29228683D01*
X150070090Y-29012559D01*
X149857890Y-28867569D01*
X149606000Y-28816560D01*
X147574000Y-28816560D01*
X147338683Y-28860838D01*
X147122559Y-28999910D01*
X146977569Y-29212110D01*
X146926560Y-29464000D01*
X146926560Y-29720000D01*
X146443440Y-29720000D01*
X146443440Y-29464000D01*
X146399162Y-29228683D01*
X146260090Y-29012559D01*
X146047890Y-28867569D01*
X145796000Y-28816560D01*
X143764000Y-28816560D01*
X143528683Y-28860838D01*
X143312559Y-28999910D01*
X143167569Y-29212110D01*
X143116560Y-29464000D01*
X143116560Y-29720000D01*
X142633440Y-29720000D01*
X142633440Y-29464000D01*
X142589162Y-29228683D01*
X142450090Y-29012559D01*
X142237890Y-28867569D01*
X141986000Y-28816560D01*
X139954000Y-28816560D01*
X139718683Y-28860838D01*
X139502559Y-28999910D01*
X139357569Y-29212110D01*
X139306560Y-29464000D01*
X139306560Y-29720000D01*
X138823440Y-29720000D01*
X138823440Y-29464000D01*
X138779162Y-29228683D01*
X138640090Y-29012559D01*
X138427890Y-28867569D01*
X138176000Y-28816560D01*
X136144000Y-28816560D01*
X135908683Y-28860838D01*
X135692559Y-28999910D01*
X135547569Y-29212110D01*
X135496560Y-29464000D01*
X135496560Y-29720000D01*
X135013440Y-29720000D01*
X135013440Y-29464000D01*
X134969162Y-29228683D01*
X134830090Y-29012559D01*
X134617890Y-28867569D01*
X134366000Y-28816560D01*
X132334000Y-28816560D01*
X132098683Y-28860838D01*
X131882559Y-28999910D01*
X131737569Y-29212110D01*
X131686560Y-29464000D01*
X131686560Y-31496000D01*
X131730838Y-31731317D01*
X131869910Y-31947441D01*
X132018837Y-32049198D01*
X131792330Y-32388190D01*
X131666655Y-33020000D01*
X131792330Y-33651810D01*
X132150222Y-34187433D01*
X132685845Y-34545325D01*
X133317655Y-34671000D01*
X133382345Y-34671000D01*
X134014155Y-34545325D01*
X134549778Y-34187433D01*
X134643567Y-34047069D01*
X135945499Y-35349001D01*
X136192061Y-35513748D01*
X136482900Y-35571600D01*
X142475998Y-35571600D01*
X145391398Y-38487000D01*
X132940602Y-38487000D01*
X126423011Y-31969409D01*
X126789670Y-31724415D01*
X127114526Y-31238234D01*
X127228600Y-30664745D01*
X127228600Y-30295255D01*
X127114526Y-29721766D01*
X126789670Y-29235585D01*
X126303489Y-28910729D01*
X125730000Y-28796655D01*
X125156511Y-28910729D01*
X124670330Y-29235585D01*
X124460000Y-29550366D01*
X124249670Y-29235585D01*
X123763489Y-28910729D01*
X123190000Y-28796655D01*
X122616511Y-28910729D01*
X122130330Y-29235585D01*
X122115500Y-29257780D01*
X122051927Y-29104302D01*
X121873299Y-28925673D01*
X121639910Y-28829000D01*
X120935750Y-28829000D01*
X120777000Y-28987750D01*
X120777000Y-30353000D01*
X120797000Y-30353000D01*
X120797000Y-30607000D01*
X120777000Y-30607000D01*
X120777000Y-31972250D01*
X120935750Y-32131000D01*
X121639910Y-32131000D01*
X121873299Y-32034327D01*
X122051927Y-31855698D01*
X122115500Y-31702220D01*
X122130330Y-31724415D01*
X122616511Y-32049271D01*
X123190000Y-32163345D01*
X123763489Y-32049271D01*
X124117036Y-31813038D01*
X131458250Y-39154252D01*
X131177964Y-39289268D01*
X130788046Y-39725680D01*
X130594816Y-40278087D01*
X130739076Y-40513000D01*
X131953000Y-40513000D01*
X131953000Y-40493000D01*
X132207000Y-40493000D01*
X132207000Y-40513000D01*
X132227000Y-40513000D01*
X132227000Y-40767000D01*
X132207000Y-40767000D01*
X132207000Y-42126217D01*
X132439026Y-42247358D01*
X132454791Y-42244709D01*
X132982036Y-41990732D01*
X133353539Y-41574931D01*
X133560330Y-41884415D01*
X134020804Y-42192094D01*
X133132098Y-43080800D01*
X132713091Y-43080800D01*
X132532821Y-43005945D01*
X132200637Y-43005655D01*
X132018771Y-43080800D01*
X124084502Y-43080800D01*
X122005615Y-41001913D01*
X130594816Y-41001913D01*
X130788046Y-41554320D01*
X131177964Y-41990732D01*
X131705209Y-42244709D01*
X131720974Y-42247358D01*
X131953000Y-42126217D01*
X131953000Y-40767000D01*
X130739076Y-40767000D01*
X130594816Y-41001913D01*
X122005615Y-41001913D01*
X117296301Y-36292599D01*
X117049739Y-36127852D01*
X116962219Y-36110443D01*
X116954526Y-36071766D01*
X116629670Y-35585585D01*
X116143489Y-35260729D01*
X115570000Y-35146655D01*
X114996511Y-35260729D01*
X114510330Y-35585585D01*
X114300000Y-35900366D01*
X114089670Y-35585585D01*
X113603489Y-35260729D01*
X113030000Y-35146655D01*
X112456511Y-35260729D01*
X111970330Y-35585585D01*
X111760000Y-35900366D01*
X111549670Y-35585585D01*
X111063489Y-35260729D01*
X110490000Y-35146655D01*
X109916511Y-35260729D01*
X109430330Y-35585585D01*
X109415500Y-35607780D01*
X109351927Y-35454302D01*
X109173299Y-35275673D01*
X108939910Y-35179000D01*
X108235750Y-35179000D01*
X108077000Y-35337750D01*
X108077000Y-36703000D01*
X108097000Y-36703000D01*
X108097000Y-36957000D01*
X108077000Y-36957000D01*
X108077000Y-38322250D01*
X108235750Y-38481000D01*
X108939910Y-38481000D01*
X109173299Y-38384327D01*
X109351927Y-38205698D01*
X109415500Y-38052220D01*
X109430330Y-38074415D01*
X109916511Y-38399271D01*
X110490000Y-38513345D01*
X111063489Y-38399271D01*
X111417036Y-38163038D01*
X126192498Y-52938500D01*
X125380502Y-52938500D01*
X124917832Y-52475830D01*
X124843292Y-52295428D01*
X124608607Y-52060334D01*
X124301821Y-51932945D01*
X123969637Y-51932655D01*
X123662628Y-52059508D01*
X123427534Y-52294193D01*
X123300145Y-52600979D01*
X123299855Y-52933163D01*
X123426708Y-53240172D01*
X123661393Y-53475266D01*
X123843127Y-53550729D01*
X124146298Y-53853900D01*
X121686598Y-56313600D01*
X116212091Y-56313600D01*
X116031821Y-56238745D01*
X115699637Y-56238455D01*
X115392628Y-56365308D01*
X115157534Y-56599993D01*
X115040227Y-56882500D01*
X109585312Y-56882500D01*
X109613440Y-56743600D01*
X109613440Y-55016400D01*
X109585360Y-54867163D01*
X115679855Y-54867163D01*
X115806708Y-55174172D01*
X116041393Y-55409266D01*
X116348179Y-55536655D01*
X116680363Y-55536945D01*
X116862229Y-55461800D01*
X121549000Y-55461800D01*
X121839839Y-55403948D01*
X122086401Y-55239201D01*
X122621870Y-54703732D01*
X122802272Y-54629192D01*
X123037366Y-54394507D01*
X123164755Y-54087721D01*
X123165045Y-53755537D01*
X123038192Y-53448528D01*
X122803507Y-53213434D01*
X122496721Y-53086045D01*
X122164537Y-53085755D01*
X121857528Y-53212608D01*
X121622434Y-53447293D01*
X121546971Y-53629027D01*
X121234198Y-53941800D01*
X116862091Y-53941800D01*
X116681821Y-53866945D01*
X116349637Y-53866655D01*
X116042628Y-53993508D01*
X115807534Y-54228193D01*
X115680145Y-54534979D01*
X115679855Y-54867163D01*
X109585360Y-54867163D01*
X109569162Y-54781083D01*
X109430090Y-54564959D01*
X109217890Y-54419969D01*
X109123073Y-54400768D01*
X109300732Y-54242036D01*
X109554709Y-53714791D01*
X109557358Y-53699026D01*
X109436217Y-53467000D01*
X108077000Y-53467000D01*
X108077000Y-53487000D01*
X107823000Y-53487000D01*
X107823000Y-53467000D01*
X106463783Y-53467000D01*
X106342642Y-53699026D01*
X106345291Y-53714791D01*
X106599268Y-54242036D01*
X106774845Y-54398907D01*
X106698683Y-54413238D01*
X106482559Y-54552310D01*
X106337569Y-54764510D01*
X106286560Y-55016400D01*
X106286560Y-56743600D01*
X106330838Y-56978917D01*
X106469910Y-57195041D01*
X106682110Y-57340031D01*
X106934000Y-57391040D01*
X107268767Y-57391040D01*
X107412599Y-57606301D01*
X107448798Y-57642500D01*
X105915999Y-59175299D01*
X105751252Y-59421861D01*
X105693400Y-59712700D01*
X105693400Y-62755809D01*
X105646731Y-62868200D01*
X104607423Y-62868200D01*
X104533440Y-62818767D01*
X104533440Y-62484000D01*
X104489162Y-62248683D01*
X104350090Y-62032559D01*
X104137890Y-61887569D01*
X103886000Y-61836560D01*
X101854000Y-61836560D01*
X101618683Y-61880838D01*
X101402559Y-62019910D01*
X101257569Y-62232110D01*
X101206560Y-62484000D01*
X101206560Y-64516000D01*
X101250838Y-64751317D01*
X101389910Y-64967441D01*
X101552948Y-65078840D01*
X101463615Y-65175182D01*
X101264025Y-65657056D01*
X101383164Y-65913000D01*
X102743000Y-65913000D01*
X102743000Y-65893000D01*
X102997000Y-65893000D01*
X102997000Y-65913000D01*
X104356836Y-65913000D01*
X104475975Y-65657056D01*
X104276385Y-65175182D01*
X104185903Y-65077602D01*
X104337441Y-64980090D01*
X104482431Y-64767890D01*
X104533440Y-64516000D01*
X104533440Y-64388200D01*
X122496800Y-64388200D01*
X122787639Y-64330348D01*
X123034201Y-64165601D01*
X123241970Y-63957832D01*
X123297229Y-63935000D01*
X128046198Y-63935000D01*
X134360470Y-70249272D01*
X134179934Y-70429493D01*
X134104471Y-70611227D01*
X133641399Y-71074299D01*
X133476652Y-71320861D01*
X133418800Y-71611700D01*
X133418800Y-76675348D01*
X133406507Y-76663034D01*
X133099721Y-76535645D01*
X132767537Y-76535355D01*
X132460528Y-76662208D01*
X132225434Y-76896893D01*
X132098045Y-77203679D01*
X132097755Y-77535863D01*
X132173000Y-77717971D01*
X132173000Y-78694100D01*
X132230852Y-78984939D01*
X132395599Y-79231501D01*
X135277768Y-82113670D01*
X135352308Y-82294072D01*
X135586993Y-82529166D01*
X135826000Y-82628411D01*
X135826000Y-85393962D01*
X135588537Y-85393755D01*
X135281528Y-85520608D01*
X135046434Y-85755293D01*
X134919045Y-86062079D01*
X134918755Y-86394263D01*
X134994448Y-86577455D01*
X135051752Y-86865539D01*
X135216499Y-87112101D01*
X142500598Y-94396200D01*
X140962091Y-94396200D01*
X140781821Y-94321345D01*
X140449637Y-94321055D01*
X140142628Y-94447908D01*
X139907534Y-94682593D01*
X139841683Y-94841181D01*
X138173501Y-93172999D01*
X137926939Y-93008252D01*
X137636100Y-92950400D01*
X123550091Y-92950400D01*
X123369821Y-92875545D01*
X123037637Y-92875255D01*
X122730628Y-93002108D01*
X122495534Y-93236793D01*
X122368145Y-93543579D01*
X122367855Y-93875763D01*
X122494708Y-94182772D01*
X122729393Y-94417866D01*
X123036179Y-94545255D01*
X123368363Y-94545545D01*
X123550229Y-94470400D01*
X137321298Y-94470400D01*
X143223498Y-100372600D01*
X139191102Y-100372600D01*
X137006401Y-98187899D01*
X136759839Y-98023152D01*
X136469000Y-97965300D01*
X134205091Y-97965300D01*
X134024821Y-97890445D01*
X133692637Y-97890155D01*
X133385628Y-98017008D01*
X133150534Y-98251693D01*
X133023145Y-98558479D01*
X133022855Y-98890663D01*
X133149708Y-99197672D01*
X133384393Y-99432766D01*
X133691179Y-99560155D01*
X134023363Y-99560445D01*
X134205229Y-99485300D01*
X136154198Y-99485300D01*
X137011098Y-100342200D01*
X117086900Y-100342200D01*
X116796061Y-100400052D01*
X116549499Y-100564799D01*
X107581799Y-109532499D01*
X107417052Y-109779061D01*
X107359200Y-110069900D01*
X107359200Y-111814900D01*
X107417052Y-112105739D01*
X107581799Y-112352301D01*
X109283282Y-114053784D01*
X108872632Y-114074338D01*
X108488857Y-114233303D01*
X108419392Y-114475487D01*
X109220000Y-115276095D01*
X109234143Y-115261953D01*
X109413748Y-115441558D01*
X109399605Y-115455700D01*
X110200213Y-116256308D01*
X110442397Y-116186843D01*
X110492509Y-116046382D01*
X110574990Y-116246003D01*
X110967630Y-116639329D01*
X111480900Y-116852457D01*
X112036661Y-116852942D01*
X112108700Y-116823176D01*
X112108700Y-117608798D01*
X109444599Y-120272899D01*
X109279852Y-120519461D01*
X109222000Y-120810300D01*
X109222000Y-140068560D01*
X109185000Y-140068560D01*
X109185000Y-126620000D01*
X109132857Y-126357862D01*
X109127000Y-126349096D01*
X109127000Y-125620000D01*
X109116994Y-125570590D01*
X109088553Y-125528965D01*
X109046159Y-125501685D01*
X109000000Y-125493000D01*
X99185000Y-125493000D01*
X99185000Y-122949834D01*
X100234543Y-122949834D01*
X100634853Y-123918658D01*
X101375443Y-124660542D01*
X102343567Y-125062542D01*
X103391834Y-125063457D01*
X104360658Y-124663147D01*
X105102542Y-123922557D01*
X105504542Y-122954433D01*
X105505457Y-121906166D01*
X105105147Y-120937342D01*
X104364557Y-120195458D01*
X103396433Y-119793458D01*
X102348166Y-119792543D01*
X101379342Y-120192853D01*
X100637458Y-120933443D01*
X100235458Y-121901567D01*
X100234543Y-122949834D01*
X99185000Y-122949834D01*
X99185000Y-116435913D01*
X108419392Y-116435913D01*
X108488857Y-116678097D01*
X109012302Y-116864844D01*
X109567368Y-116837062D01*
X109951143Y-116678097D01*
X110020608Y-116435913D01*
X109220000Y-115635305D01*
X108419392Y-116435913D01*
X99185000Y-116435913D01*
X99185000Y-115248002D01*
X107810856Y-115248002D01*
X107838638Y-115803068D01*
X107997603Y-116186843D01*
X108239787Y-116256308D01*
X109040395Y-115455700D01*
X108239787Y-114655092D01*
X107997603Y-114724557D01*
X107810856Y-115248002D01*
X99185000Y-115248002D01*
X99185000Y-66422944D01*
X101264025Y-66422944D01*
X101463615Y-66904818D01*
X101901621Y-67377188D01*
X102487054Y-67645983D01*
X102743000Y-67527367D01*
X102743000Y-66167000D01*
X102997000Y-66167000D01*
X102997000Y-67527367D01*
X103252946Y-67645983D01*
X103838379Y-67377188D01*
X104276385Y-66904818D01*
X104475975Y-66422944D01*
X104356836Y-66167000D01*
X102997000Y-66167000D01*
X102743000Y-66167000D01*
X101383164Y-66167000D01*
X101264025Y-66422944D01*
X99185000Y-66422944D01*
X99185000Y-51159026D01*
X106342642Y-51159026D01*
X106345291Y-51174791D01*
X106599268Y-51702036D01*
X107011108Y-52070000D01*
X106599268Y-52437964D01*
X106345291Y-52965209D01*
X106342642Y-52980974D01*
X106463783Y-53213000D01*
X107823000Y-53213000D01*
X107823000Y-50927000D01*
X108077000Y-50927000D01*
X108077000Y-53213000D01*
X109436217Y-53213000D01*
X109557358Y-52980974D01*
X109554709Y-52965209D01*
X109300732Y-52437964D01*
X108888892Y-52070000D01*
X109300732Y-51702036D01*
X109554709Y-51174791D01*
X109557358Y-51159026D01*
X109436217Y-50927000D01*
X108077000Y-50927000D01*
X107823000Y-50927000D01*
X106463783Y-50927000D01*
X106342642Y-51159026D01*
X99185000Y-51159026D01*
X99185000Y-48260000D01*
X106266655Y-48260000D01*
X106380729Y-48833489D01*
X106705585Y-49319670D01*
X107015069Y-49526461D01*
X106599268Y-49897964D01*
X106345291Y-50425209D01*
X106342642Y-50440974D01*
X106463783Y-50673000D01*
X107823000Y-50673000D01*
X107823000Y-50653000D01*
X108077000Y-50653000D01*
X108077000Y-50673000D01*
X109436217Y-50673000D01*
X109557358Y-50440974D01*
X109554709Y-50425209D01*
X109300732Y-49897964D01*
X108884931Y-49526461D01*
X109194415Y-49319670D01*
X109519271Y-48833489D01*
X109633345Y-48260000D01*
X109519271Y-47686511D01*
X109194415Y-47200330D01*
X108708234Y-46875474D01*
X108134745Y-46761400D01*
X107765255Y-46761400D01*
X107191766Y-46875474D01*
X106705585Y-47200330D01*
X106380729Y-47686511D01*
X106266655Y-48260000D01*
X99185000Y-48260000D01*
X99185000Y-44481750D01*
X100609400Y-44481750D01*
X100609400Y-45439910D01*
X100706073Y-45673299D01*
X100884702Y-45851927D01*
X101118091Y-45948600D01*
X102076250Y-45948600D01*
X102235000Y-45789850D01*
X102235000Y-44323000D01*
X102489000Y-44323000D01*
X102489000Y-45789850D01*
X102647750Y-45948600D01*
X103605909Y-45948600D01*
X103839298Y-45851927D01*
X104017927Y-45673299D01*
X104114600Y-45439910D01*
X104114600Y-44481750D01*
X103955850Y-44323000D01*
X102489000Y-44323000D01*
X102235000Y-44323000D01*
X100768150Y-44323000D01*
X100609400Y-44481750D01*
X99185000Y-44481750D01*
X99185000Y-42952090D01*
X100609400Y-42952090D01*
X100609400Y-43910250D01*
X100768150Y-44069000D01*
X102235000Y-44069000D01*
X102235000Y-42602150D01*
X102489000Y-42602150D01*
X102489000Y-44069000D01*
X103955850Y-44069000D01*
X104114600Y-43910250D01*
X104114600Y-42952090D01*
X104017927Y-42718701D01*
X103839298Y-42540073D01*
X103605909Y-42443400D01*
X102647750Y-42443400D01*
X102489000Y-42602150D01*
X102235000Y-42602150D01*
X102076250Y-42443400D01*
X101118091Y-42443400D01*
X100884702Y-42540073D01*
X100706073Y-42718701D01*
X100609400Y-42952090D01*
X99185000Y-42952090D01*
X99185000Y-37115750D01*
X106451400Y-37115750D01*
X106451400Y-37972309D01*
X106548073Y-38205698D01*
X106726701Y-38384327D01*
X106960090Y-38481000D01*
X107664250Y-38481000D01*
X107823000Y-38322250D01*
X107823000Y-36957000D01*
X106610150Y-36957000D01*
X106451400Y-37115750D01*
X99185000Y-37115750D01*
X99185000Y-35687691D01*
X106451400Y-35687691D01*
X106451400Y-36544250D01*
X106610150Y-36703000D01*
X107823000Y-36703000D01*
X107823000Y-35337750D01*
X107664250Y-35179000D01*
X106960090Y-35179000D01*
X106726701Y-35275673D01*
X106548073Y-35454302D01*
X106451400Y-35687691D01*
X99185000Y-35687691D01*
X99185000Y-31509834D01*
X100234543Y-31509834D01*
X100634853Y-32478658D01*
X101375443Y-33220542D01*
X102343567Y-33622542D01*
X103391834Y-33623457D01*
X104360658Y-33223147D01*
X105102542Y-32482557D01*
X105504542Y-31514433D01*
X105505195Y-30765750D01*
X119151400Y-30765750D01*
X119151400Y-31622309D01*
X119248073Y-31855698D01*
X119426701Y-32034327D01*
X119660090Y-32131000D01*
X120364250Y-32131000D01*
X120523000Y-31972250D01*
X120523000Y-30607000D01*
X119310150Y-30607000D01*
X119151400Y-30765750D01*
X105505195Y-30765750D01*
X105505457Y-30466166D01*
X105105147Y-29497342D01*
X104945775Y-29337691D01*
X119151400Y-29337691D01*
X119151400Y-30194250D01*
X119310150Y-30353000D01*
X120523000Y-30353000D01*
X120523000Y-28987750D01*
X120364250Y-28829000D01*
X119660090Y-28829000D01*
X119426701Y-28925673D01*
X119248073Y-29104302D01*
X119151400Y-29337691D01*
X104945775Y-29337691D01*
X104364557Y-28755458D01*
X103396433Y-28353458D01*
X102348166Y-28352543D01*
X101379342Y-28752853D01*
X100637458Y-29493443D01*
X100235458Y-30461567D01*
X100234543Y-31509834D01*
X99185000Y-31509834D01*
X99185000Y-27747000D01*
X195815000Y-27747000D01*
X195815000Y-125493000D01*
X195815000Y-125493000D01*
G37*
X195815000Y-125493000D02*
X186000000Y-125493000D01*
X185950590Y-125503006D01*
X185908965Y-125531447D01*
X185881685Y-125573841D01*
X185873000Y-125620000D01*
X185873000Y-126349096D01*
X185867143Y-126357862D01*
X185815000Y-126620000D01*
X185815000Y-139411641D01*
X185487637Y-139411355D01*
X185180628Y-139538208D01*
X185087975Y-139630700D01*
X184912000Y-139630700D01*
X184621161Y-139688552D01*
X184374599Y-139853299D01*
X184230767Y-140068560D01*
X183946800Y-140068560D01*
X183868752Y-140083246D01*
X183897455Y-140014121D01*
X183897745Y-139681937D01*
X183770892Y-139374928D01*
X183536207Y-139139834D01*
X183229421Y-139012445D01*
X182897237Y-139012155D01*
X182590228Y-139139008D01*
X182355134Y-139373693D01*
X182279671Y-139555427D01*
X182162781Y-139672317D01*
X182081161Y-139688552D01*
X181834599Y-139853299D01*
X181690767Y-140068560D01*
X181406800Y-140068560D01*
X181257631Y-140096628D01*
X181257645Y-140081137D01*
X181130792Y-139774128D01*
X180896107Y-139539034D01*
X180589321Y-139411645D01*
X180257137Y-139411355D01*
X179950128Y-139538208D01*
X179857475Y-139630700D01*
X179832000Y-139630700D01*
X179541161Y-139688552D01*
X179294599Y-139853299D01*
X179150767Y-140068560D01*
X178866800Y-140068560D01*
X178631483Y-140112838D01*
X178563378Y-140156662D01*
X178509090Y-140119569D01*
X178257200Y-140068560D01*
X178052000Y-140068560D01*
X178052000Y-125042700D01*
X178040423Y-124984500D01*
X177994148Y-124751860D01*
X177829401Y-124505299D01*
X176273936Y-122949834D01*
X189134543Y-122949834D01*
X189534853Y-123918658D01*
X190275443Y-124660542D01*
X191243567Y-125062542D01*
X192291834Y-125063457D01*
X193260658Y-124663147D01*
X194002542Y-123922557D01*
X194404542Y-122954433D01*
X194405457Y-121906166D01*
X194005147Y-120937342D01*
X193264557Y-120195458D01*
X192296433Y-119793458D01*
X191248166Y-119792543D01*
X190279342Y-120192853D01*
X189537458Y-120933443D01*
X189135458Y-121901567D01*
X189134543Y-122949834D01*
X176273936Y-122949834D01*
X171094400Y-117770298D01*
X171094400Y-116820691D01*
X171170900Y-116852457D01*
X171726661Y-116852942D01*
X172240303Y-116640710D01*
X172633629Y-116248070D01*
X172719949Y-116040188D01*
X172804990Y-116246003D01*
X173197630Y-116639329D01*
X173710900Y-116852457D01*
X174266661Y-116852942D01*
X174780303Y-116640710D01*
X175173629Y-116248070D01*
X175259949Y-116040188D01*
X175344990Y-116246003D01*
X175737630Y-116639329D01*
X176250900Y-116852457D01*
X176806661Y-116852942D01*
X177320303Y-116640710D01*
X177713629Y-116248070D01*
X177799949Y-116040188D01*
X177884990Y-116246003D01*
X178277630Y-116639329D01*
X178790900Y-116852457D01*
X179346661Y-116852942D01*
X179860303Y-116640710D01*
X180065457Y-116435913D01*
X180809392Y-116435913D01*
X180878857Y-116678097D01*
X181402302Y-116864844D01*
X181957368Y-116837062D01*
X182341143Y-116678097D01*
X182410608Y-116435913D01*
X181610000Y-115635305D01*
X180809392Y-116435913D01*
X180065457Y-116435913D01*
X180253629Y-116248070D01*
X180333395Y-116055973D01*
X180387603Y-116186843D01*
X180629787Y-116256308D01*
X181430395Y-115455700D01*
X181416253Y-115441558D01*
X181595858Y-115261953D01*
X181610000Y-115276095D01*
X182410608Y-114475487D01*
X182341143Y-114233303D01*
X181817698Y-114046556D01*
X181540049Y-114060453D01*
X182803602Y-112796900D01*
X184727500Y-112796900D01*
X184927700Y-112757077D01*
X184927700Y-113603198D01*
X184459381Y-114071517D01*
X184429100Y-114058943D01*
X183873339Y-114058458D01*
X183359697Y-114270690D01*
X182966371Y-114663330D01*
X182886605Y-114855427D01*
X182832397Y-114724557D01*
X182590213Y-114655092D01*
X181789605Y-115455700D01*
X182590213Y-116256308D01*
X182832397Y-116186843D01*
X182882509Y-116046382D01*
X182964990Y-116246003D01*
X183357630Y-116639329D01*
X183870900Y-116852457D01*
X184426661Y-116852942D01*
X184940303Y-116640710D01*
X185333629Y-116248070D01*
X185546757Y-115734800D01*
X185547242Y-115179039D01*
X185533857Y-115146645D01*
X186225101Y-114455401D01*
X186389848Y-114208840D01*
X186447700Y-113918000D01*
X186447700Y-109146200D01*
X186389848Y-108855361D01*
X186389848Y-108855360D01*
X186225101Y-108608799D01*
X183606301Y-105989999D01*
X183359739Y-105825252D01*
X183068900Y-105767400D01*
X183010902Y-105767400D01*
X178763236Y-101519734D01*
X178923072Y-101453692D01*
X178933382Y-101443400D01*
X185457909Y-101443400D01*
X185638179Y-101518255D01*
X185970363Y-101518545D01*
X186277372Y-101391692D01*
X186512466Y-101157007D01*
X186639855Y-100850221D01*
X186640145Y-100518037D01*
X186513292Y-100211028D01*
X186278607Y-99975934D01*
X185971821Y-99848545D01*
X185639637Y-99848255D01*
X185457771Y-99923400D01*
X178648479Y-99923400D01*
X178617521Y-99910545D01*
X178285337Y-99910255D01*
X177978328Y-100037108D01*
X177743234Y-100271793D01*
X177615845Y-100578579D01*
X177615555Y-100910763D01*
X177697051Y-101108000D01*
X171029058Y-101108000D01*
X171152466Y-100984807D01*
X171279855Y-100678021D01*
X171280145Y-100345837D01*
X171153292Y-100038828D01*
X170918607Y-99803734D01*
X170611821Y-99676345D01*
X170279637Y-99676055D01*
X170097771Y-99751200D01*
X152632200Y-99751200D01*
X152341360Y-99809052D01*
X152094799Y-99973799D01*
X151177198Y-100891400D01*
X145798619Y-100891400D01*
X145802100Y-100873900D01*
X145802100Y-97848100D01*
X152843500Y-97848100D01*
X153134339Y-97790248D01*
X153380901Y-97625501D01*
X154966970Y-96039432D01*
X155022229Y-96016600D01*
X159287909Y-96016600D01*
X159343127Y-96039529D01*
X160907599Y-97604001D01*
X161154161Y-97768748D01*
X161445000Y-97826600D01*
X164255509Y-97826600D01*
X164310727Y-97849529D01*
X164498599Y-98037401D01*
X164745161Y-98202148D01*
X165036000Y-98260000D01*
X174748409Y-98260000D01*
X174928679Y-98334855D01*
X175260863Y-98335145D01*
X175567872Y-98208292D01*
X175802966Y-97973607D01*
X175930355Y-97666821D01*
X175930645Y-97334637D01*
X175803792Y-97027628D01*
X175569107Y-96792534D01*
X175262321Y-96665145D01*
X174930137Y-96664855D01*
X174748271Y-96740000D01*
X165371124Y-96740000D01*
X165310892Y-96594228D01*
X165076207Y-96359134D01*
X164769421Y-96231745D01*
X164437237Y-96231455D01*
X164255371Y-96306600D01*
X161759802Y-96306600D01*
X160417832Y-94964630D01*
X160343292Y-94784228D01*
X160108607Y-94549134D01*
X159801821Y-94421745D01*
X159469637Y-94421455D01*
X159287771Y-94496600D01*
X155022091Y-94496600D01*
X154841821Y-94421745D01*
X154509637Y-94421455D01*
X154202628Y-94548308D01*
X153967534Y-94782993D01*
X153892071Y-94964727D01*
X152528698Y-96328100D01*
X144862091Y-96328100D01*
X144681821Y-96253245D01*
X144349637Y-96252955D01*
X144042628Y-96379808D01*
X143807534Y-96614493D01*
X143680145Y-96921279D01*
X143679855Y-97253463D01*
X143806708Y-97560472D01*
X144041393Y-97795566D01*
X144282100Y-97895517D01*
X144282100Y-99281598D01*
X140930013Y-95929511D01*
X140962229Y-95916200D01*
X151558200Y-95916200D01*
X151849039Y-95858348D01*
X152095601Y-95693601D01*
X155688701Y-92100501D01*
X155853448Y-91853939D01*
X155911300Y-91563100D01*
X155911300Y-87788402D01*
X162866146Y-94743248D01*
X162827534Y-94781793D01*
X162700145Y-95088579D01*
X162699855Y-95420763D01*
X162826708Y-95727772D01*
X163061393Y-95962866D01*
X163340110Y-96078600D01*
X163415761Y-96129148D01*
X163706600Y-96187000D01*
X179023700Y-96187000D01*
X179314539Y-96129148D01*
X179561101Y-95964401D01*
X183806970Y-91718532D01*
X183987372Y-91643992D01*
X184222466Y-91409307D01*
X184349855Y-91102521D01*
X184350145Y-90770337D01*
X184223292Y-90463328D01*
X183988607Y-90228234D01*
X183681821Y-90100845D01*
X183349637Y-90100555D01*
X183042628Y-90227408D01*
X182807534Y-90462093D01*
X182732071Y-90643827D01*
X178708898Y-94667000D01*
X177417402Y-94667000D01*
X182536970Y-89547432D01*
X182717372Y-89472892D01*
X182952466Y-89238207D01*
X183079855Y-88931421D01*
X183080145Y-88599237D01*
X182953292Y-88292228D01*
X182718607Y-88057134D01*
X182411821Y-87929745D01*
X182079637Y-87929455D01*
X181772628Y-88056308D01*
X181615272Y-88213390D01*
X181448607Y-88046434D01*
X181141821Y-87919045D01*
X180809637Y-87918755D01*
X180502628Y-88045608D01*
X180267534Y-88280293D01*
X180192071Y-88462027D01*
X176415599Y-92238499D01*
X176168621Y-92135945D01*
X176091624Y-92135878D01*
X178422001Y-89805501D01*
X178586748Y-89558939D01*
X178644600Y-89268100D01*
X178644600Y-89180891D01*
X178719455Y-89000621D01*
X178719745Y-88668437D01*
X178592892Y-88361428D01*
X178358207Y-88126334D01*
X178051421Y-87998945D01*
X177719237Y-87998655D01*
X177412228Y-88125508D01*
X177177134Y-88360193D01*
X177049745Y-88666979D01*
X177049455Y-88999163D01*
X177058016Y-89019882D01*
X175145285Y-90932613D01*
X175144407Y-90931734D01*
X174843514Y-90806792D01*
X174915255Y-90634021D01*
X174915545Y-90301837D01*
X174840400Y-90119971D01*
X174840400Y-86511700D01*
X174782548Y-86220861D01*
X174617801Y-85974299D01*
X174137832Y-85494330D01*
X174063292Y-85313928D01*
X173828607Y-85078834D01*
X173521821Y-84951445D01*
X173189637Y-84951155D01*
X172882628Y-85078008D01*
X172647534Y-85312693D01*
X172590229Y-85450698D01*
X172394207Y-85254334D01*
X172087421Y-85126945D01*
X171755237Y-85126655D01*
X171448228Y-85253508D01*
X171213134Y-85488193D01*
X171085745Y-85794979D01*
X171085455Y-86127163D01*
X171160600Y-86309029D01*
X171160600Y-89072000D01*
X171218452Y-89362839D01*
X171383199Y-89609401D01*
X173207537Y-91433739D01*
X173120728Y-91469608D01*
X172885634Y-91704293D01*
X172810171Y-91886027D01*
X172632199Y-92063999D01*
X172467452Y-92310561D01*
X172409600Y-92601400D01*
X172409600Y-92677900D01*
X167118891Y-92677900D01*
X166938621Y-92603045D01*
X166606437Y-92602755D01*
X166299428Y-92729608D01*
X166064334Y-92964293D01*
X165965131Y-93203200D01*
X164932533Y-93203200D01*
X164893292Y-93108228D01*
X164658607Y-92873134D01*
X164476875Y-92797672D01*
X157562202Y-85883000D01*
X169417330Y-85883000D01*
X169511608Y-86111172D01*
X169746293Y-86346266D01*
X170053079Y-86473655D01*
X170385263Y-86473945D01*
X170692272Y-86347092D01*
X170927366Y-86112407D01*
X171054755Y-85805621D01*
X171055045Y-85473437D01*
X171022655Y-85395047D01*
X172891202Y-83526500D01*
X174277909Y-83526500D01*
X174458179Y-83601355D01*
X174790363Y-83601645D01*
X175097372Y-83474792D01*
X175332466Y-83240107D01*
X175459855Y-82933321D01*
X175460087Y-82667900D01*
X184437909Y-82667900D01*
X184618179Y-82742755D01*
X184950363Y-82743045D01*
X185257372Y-82616192D01*
X185492466Y-82381507D01*
X185619855Y-82074721D01*
X185620145Y-81742537D01*
X185493292Y-81435528D01*
X185258607Y-81200434D01*
X184951821Y-81073045D01*
X184619637Y-81072755D01*
X184437771Y-81147900D01*
X170101152Y-81147900D01*
X170113066Y-81136007D01*
X170237059Y-80837400D01*
X180627909Y-80837400D01*
X180808179Y-80912255D01*
X181140363Y-80912545D01*
X181447372Y-80785692D01*
X181682466Y-80551007D01*
X181809855Y-80244221D01*
X181810120Y-79940784D01*
X182082372Y-79828292D01*
X182317466Y-79593607D01*
X182419161Y-79348700D01*
X183083209Y-79348700D01*
X183263479Y-79423555D01*
X183595663Y-79423845D01*
X183902672Y-79296992D01*
X184137766Y-79062307D01*
X184265155Y-78755521D01*
X184265445Y-78423337D01*
X184138592Y-78116328D01*
X183903907Y-77881234D01*
X183597121Y-77753845D01*
X183264937Y-77753555D01*
X183083071Y-77828700D01*
X176751102Y-77828700D01*
X179864801Y-74715001D01*
X180029548Y-74468440D01*
X180087400Y-74177600D01*
X180087400Y-72481163D01*
X180383155Y-72481163D01*
X180458300Y-72663029D01*
X180458300Y-75560800D01*
X180516152Y-75851639D01*
X180680899Y-76098201D01*
X181448168Y-76865470D01*
X181522708Y-77045872D01*
X181757393Y-77280966D01*
X182064179Y-77408355D01*
X182396363Y-77408645D01*
X182703372Y-77281792D01*
X182938466Y-77047107D01*
X183065855Y-76740321D01*
X183066145Y-76408137D01*
X182939292Y-76101128D01*
X182704607Y-75866034D01*
X182522873Y-75790571D01*
X181978300Y-75245998D01*
X181978300Y-72662891D01*
X182053155Y-72482621D01*
X182053445Y-72150437D01*
X181926592Y-71843428D01*
X181691907Y-71608334D01*
X181385121Y-71480945D01*
X181052937Y-71480655D01*
X180745928Y-71607508D01*
X180510834Y-71842193D01*
X180383445Y-72148979D01*
X180383155Y-72481163D01*
X180087400Y-72481163D01*
X180087400Y-70106000D01*
X180029548Y-69815161D01*
X179968131Y-69723243D01*
X179864801Y-69568598D01*
X176529501Y-66233299D01*
X176282939Y-66068552D01*
X175992100Y-66010700D01*
X173702091Y-66010700D01*
X173521821Y-65935845D01*
X173410254Y-65935748D01*
X175325902Y-64020100D01*
X179442609Y-64020100D01*
X179622879Y-64094955D01*
X179955063Y-64095245D01*
X180262072Y-63968392D01*
X180497166Y-63733707D01*
X180624555Y-63426921D01*
X180624845Y-63094737D01*
X180497992Y-62787728D01*
X180263307Y-62552634D01*
X179956521Y-62425245D01*
X179624337Y-62424955D01*
X179442471Y-62500100D01*
X176209002Y-62500100D01*
X178511602Y-60197500D01*
X185612909Y-60197500D01*
X185793179Y-60272355D01*
X186125363Y-60272645D01*
X186432372Y-60145792D01*
X186667466Y-59911107D01*
X186794855Y-59604321D01*
X186795145Y-59272137D01*
X186668292Y-58965128D01*
X186433607Y-58730034D01*
X186126821Y-58602645D01*
X185794637Y-58602355D01*
X185612771Y-58677500D01*
X179217300Y-58677500D01*
X179217345Y-58625837D01*
X179090492Y-58318828D01*
X178855807Y-58083734D01*
X178549021Y-57956345D01*
X178216837Y-57956055D01*
X178034971Y-58031200D01*
X141768700Y-58031200D01*
X141477861Y-58089052D01*
X141231299Y-58253799D01*
X137669330Y-61815768D01*
X137488928Y-61890308D01*
X137253834Y-62124993D01*
X137219958Y-62206576D01*
X136937928Y-62323108D01*
X136702834Y-62557793D01*
X136575445Y-62864579D01*
X136575155Y-63196763D01*
X136650400Y-63378871D01*
X136650400Y-64255598D01*
X135505702Y-63110900D01*
X142568802Y-56047800D01*
X149344209Y-56047800D01*
X149524479Y-56122655D01*
X149856663Y-56122945D01*
X150163672Y-55996092D01*
X150398766Y-55761407D01*
X150522759Y-55462800D01*
X151486909Y-55462800D01*
X151667179Y-55537655D01*
X151999363Y-55537945D01*
X152306372Y-55411092D01*
X152541466Y-55176407D01*
X152652545Y-54908900D01*
X155528198Y-54908900D01*
X155639199Y-55019901D01*
X155885761Y-55184648D01*
X156176600Y-55242500D01*
X158114909Y-55242500D01*
X158295179Y-55317355D01*
X158627363Y-55317645D01*
X158934372Y-55190792D01*
X159169466Y-54956107D01*
X159296855Y-54649321D01*
X159297145Y-54317137D01*
X159170292Y-54010128D01*
X158935607Y-53775034D01*
X158628821Y-53647645D01*
X158296637Y-53647355D01*
X158114771Y-53722500D01*
X156970580Y-53722500D01*
X156970745Y-53533137D01*
X156843892Y-53226128D01*
X156609207Y-52991034D01*
X156302421Y-52863645D01*
X155970237Y-52863355D01*
X155788371Y-52938500D01*
X147321108Y-52938500D01*
X147473566Y-52786307D01*
X147524975Y-52662500D01*
X176182909Y-52662500D01*
X176363179Y-52737355D01*
X176695363Y-52737645D01*
X176951365Y-52631867D01*
X181546868Y-57227370D01*
X181621408Y-57407772D01*
X181856093Y-57642866D01*
X182162879Y-57770255D01*
X182495063Y-57770545D01*
X182802072Y-57643692D01*
X183037166Y-57409007D01*
X183164555Y-57102221D01*
X183164845Y-56770037D01*
X183037992Y-56463028D01*
X182803307Y-56227934D01*
X182621573Y-56152471D01*
X181490621Y-55021519D01*
X181682466Y-54830007D01*
X181809855Y-54523221D01*
X181810145Y-54191037D01*
X181683292Y-53884028D01*
X181448607Y-53648934D01*
X181266873Y-53573471D01*
X173281502Y-45588100D01*
X175547909Y-45588100D01*
X175728179Y-45662955D01*
X176060363Y-45663245D01*
X176367372Y-45536392D01*
X176602466Y-45301707D01*
X176607817Y-45288819D01*
X181462168Y-50143170D01*
X181536708Y-50323572D01*
X181771393Y-50558666D01*
X182078179Y-50686055D01*
X182410363Y-50686345D01*
X182679867Y-50574989D01*
X182679855Y-50589063D01*
X182806708Y-50896072D01*
X183041393Y-51131166D01*
X183348179Y-51258555D01*
X183680363Y-51258845D01*
X183928582Y-51156284D01*
X184002168Y-51229870D01*
X184076708Y-51410272D01*
X184311393Y-51645366D01*
X184564200Y-51750341D01*
X184564200Y-52500498D01*
X183223030Y-53841668D01*
X183042628Y-53916208D01*
X182807534Y-54150893D01*
X182680145Y-54457679D01*
X182679855Y-54789863D01*
X182806708Y-55096872D01*
X183041393Y-55331966D01*
X183348179Y-55459355D01*
X183680363Y-55459645D01*
X183987372Y-55332792D01*
X184222466Y-55098107D01*
X184297929Y-54916373D01*
X185861601Y-53352701D01*
X186026348Y-53106140D01*
X186084200Y-52815300D01*
X186084200Y-50693000D01*
X186026348Y-50402161D01*
X185861601Y-50155599D01*
X169529901Y-33823899D01*
X169283339Y-33659152D01*
X168992500Y-33601300D01*
X161587717Y-33601300D01*
X161703345Y-33020000D01*
X161577670Y-32388190D01*
X161350501Y-32048208D01*
X161487441Y-31960090D01*
X161632431Y-31747890D01*
X161680638Y-31509834D01*
X187864543Y-31509834D01*
X188264853Y-32478658D01*
X189005443Y-33220542D01*
X189973567Y-33622542D01*
X191021834Y-33623457D01*
X191990658Y-33223147D01*
X192732542Y-32482557D01*
X193134542Y-31514433D01*
X193135457Y-30466166D01*
X192735147Y-29497342D01*
X191994557Y-28755458D01*
X191026433Y-28353458D01*
X189978166Y-28352543D01*
X189009342Y-28752853D01*
X188267458Y-29493443D01*
X187865458Y-30461567D01*
X187864543Y-31509834D01*
X161680638Y-31509834D01*
X161683440Y-31496000D01*
X161683440Y-29464000D01*
X161639162Y-29228683D01*
X161500090Y-29012559D01*
X161287890Y-28867569D01*
X161036000Y-28816560D01*
X159004000Y-28816560D01*
X158768683Y-28860838D01*
X158552559Y-28999910D01*
X158407569Y-29212110D01*
X158356560Y-29464000D01*
X158356560Y-29720000D01*
X157873440Y-29720000D01*
X157873440Y-29464000D01*
X157829162Y-29228683D01*
X157690090Y-29012559D01*
X157477890Y-28867569D01*
X157226000Y-28816560D01*
X155194000Y-28816560D01*
X154958683Y-28860838D01*
X154742559Y-28999910D01*
X154597569Y-29212110D01*
X154546560Y-29464000D01*
X154546560Y-29720000D01*
X154063440Y-29720000D01*
X154063440Y-29464000D01*
X154019162Y-29228683D01*
X153880090Y-29012559D01*
X153667890Y-28867569D01*
X153416000Y-28816560D01*
X151384000Y-28816560D01*
X151148683Y-28860838D01*
X150932559Y-28999910D01*
X150787569Y-29212110D01*
X150736560Y-29464000D01*
X150736560Y-29720000D01*
X150253440Y-29720000D01*
X150253440Y-29464000D01*
X150209162Y-29228683D01*
X150070090Y-29012559D01*
X149857890Y-28867569D01*
X149606000Y-28816560D01*
X147574000Y-28816560D01*
X147338683Y-28860838D01*
X147122559Y-28999910D01*
X146977569Y-29212110D01*
X146926560Y-29464000D01*
X146926560Y-29720000D01*
X146443440Y-29720000D01*
X146443440Y-29464000D01*
X146399162Y-29228683D01*
X146260090Y-29012559D01*
X146047890Y-28867569D01*
X145796000Y-28816560D01*
X143764000Y-28816560D01*
X143528683Y-28860838D01*
X143312559Y-28999910D01*
X143167569Y-29212110D01*
X143116560Y-29464000D01*
X143116560Y-29720000D01*
X142633440Y-29720000D01*
X142633440Y-29464000D01*
X142589162Y-29228683D01*
X142450090Y-29012559D01*
X142237890Y-28867569D01*
X141986000Y-28816560D01*
X139954000Y-28816560D01*
X139718683Y-28860838D01*
X139502559Y-28999910D01*
X139357569Y-29212110D01*
X139306560Y-29464000D01*
X139306560Y-29720000D01*
X138823440Y-29720000D01*
X138823440Y-29464000D01*
X138779162Y-29228683D01*
X138640090Y-29012559D01*
X138427890Y-28867569D01*
X138176000Y-28816560D01*
X136144000Y-28816560D01*
X135908683Y-28860838D01*
X135692559Y-28999910D01*
X135547569Y-29212110D01*
X135496560Y-29464000D01*
X135496560Y-29720000D01*
X135013440Y-29720000D01*
X135013440Y-29464000D01*
X134969162Y-29228683D01*
X134830090Y-29012559D01*
X134617890Y-28867569D01*
X134366000Y-28816560D01*
X132334000Y-28816560D01*
X132098683Y-28860838D01*
X131882559Y-28999910D01*
X131737569Y-29212110D01*
X131686560Y-29464000D01*
X131686560Y-31496000D01*
X131730838Y-31731317D01*
X131869910Y-31947441D01*
X132018837Y-32049198D01*
X131792330Y-32388190D01*
X131666655Y-33020000D01*
X131792330Y-33651810D01*
X132150222Y-34187433D01*
X132685845Y-34545325D01*
X133317655Y-34671000D01*
X133382345Y-34671000D01*
X134014155Y-34545325D01*
X134549778Y-34187433D01*
X134643567Y-34047069D01*
X135945499Y-35349001D01*
X136192061Y-35513748D01*
X136482900Y-35571600D01*
X142475998Y-35571600D01*
X145391398Y-38487000D01*
X132940602Y-38487000D01*
X126423011Y-31969409D01*
X126789670Y-31724415D01*
X127114526Y-31238234D01*
X127228600Y-30664745D01*
X127228600Y-30295255D01*
X127114526Y-29721766D01*
X126789670Y-29235585D01*
X126303489Y-28910729D01*
X125730000Y-28796655D01*
X125156511Y-28910729D01*
X124670330Y-29235585D01*
X124460000Y-29550366D01*
X124249670Y-29235585D01*
X123763489Y-28910729D01*
X123190000Y-28796655D01*
X122616511Y-28910729D01*
X122130330Y-29235585D01*
X122115500Y-29257780D01*
X122051927Y-29104302D01*
X121873299Y-28925673D01*
X121639910Y-28829000D01*
X120935750Y-28829000D01*
X120777000Y-28987750D01*
X120777000Y-30353000D01*
X120797000Y-30353000D01*
X120797000Y-30607000D01*
X120777000Y-30607000D01*
X120777000Y-31972250D01*
X120935750Y-32131000D01*
X121639910Y-32131000D01*
X121873299Y-32034327D01*
X122051927Y-31855698D01*
X122115500Y-31702220D01*
X122130330Y-31724415D01*
X122616511Y-32049271D01*
X123190000Y-32163345D01*
X123763489Y-32049271D01*
X124117036Y-31813038D01*
X131458250Y-39154252D01*
X131177964Y-39289268D01*
X130788046Y-39725680D01*
X130594816Y-40278087D01*
X130739076Y-40513000D01*
X131953000Y-40513000D01*
X131953000Y-40493000D01*
X132207000Y-40493000D01*
X132207000Y-40513000D01*
X132227000Y-40513000D01*
X132227000Y-40767000D01*
X132207000Y-40767000D01*
X132207000Y-42126217D01*
X132439026Y-42247358D01*
X132454791Y-42244709D01*
X132982036Y-41990732D01*
X133353539Y-41574931D01*
X133560330Y-41884415D01*
X134020804Y-42192094D01*
X133132098Y-43080800D01*
X132713091Y-43080800D01*
X132532821Y-43005945D01*
X132200637Y-43005655D01*
X132018771Y-43080800D01*
X124084502Y-43080800D01*
X122005615Y-41001913D01*
X130594816Y-41001913D01*
X130788046Y-41554320D01*
X131177964Y-41990732D01*
X131705209Y-42244709D01*
X131720974Y-42247358D01*
X131953000Y-42126217D01*
X131953000Y-40767000D01*
X130739076Y-40767000D01*
X130594816Y-41001913D01*
X122005615Y-41001913D01*
X117296301Y-36292599D01*
X117049739Y-36127852D01*
X116962219Y-36110443D01*
X116954526Y-36071766D01*
X116629670Y-35585585D01*
X116143489Y-35260729D01*
X115570000Y-35146655D01*
X114996511Y-35260729D01*
X114510330Y-35585585D01*
X114300000Y-35900366D01*
X114089670Y-35585585D01*
X113603489Y-35260729D01*
X113030000Y-35146655D01*
X112456511Y-35260729D01*
X111970330Y-35585585D01*
X111760000Y-35900366D01*
X111549670Y-35585585D01*
X111063489Y-35260729D01*
X110490000Y-35146655D01*
X109916511Y-35260729D01*
X109430330Y-35585585D01*
X109415500Y-35607780D01*
X109351927Y-35454302D01*
X109173299Y-35275673D01*
X108939910Y-35179000D01*
X108235750Y-35179000D01*
X108077000Y-35337750D01*
X108077000Y-36703000D01*
X108097000Y-36703000D01*
X108097000Y-36957000D01*
X108077000Y-36957000D01*
X108077000Y-38322250D01*
X108235750Y-38481000D01*
X108939910Y-38481000D01*
X109173299Y-38384327D01*
X109351927Y-38205698D01*
X109415500Y-38052220D01*
X109430330Y-38074415D01*
X109916511Y-38399271D01*
X110490000Y-38513345D01*
X111063489Y-38399271D01*
X111417036Y-38163038D01*
X126192498Y-52938500D01*
X125380502Y-52938500D01*
X124917832Y-52475830D01*
X124843292Y-52295428D01*
X124608607Y-52060334D01*
X124301821Y-51932945D01*
X123969637Y-51932655D01*
X123662628Y-52059508D01*
X123427534Y-52294193D01*
X123300145Y-52600979D01*
X123299855Y-52933163D01*
X123426708Y-53240172D01*
X123661393Y-53475266D01*
X123843127Y-53550729D01*
X124146298Y-53853900D01*
X121686598Y-56313600D01*
X116212091Y-56313600D01*
X116031821Y-56238745D01*
X115699637Y-56238455D01*
X115392628Y-56365308D01*
X115157534Y-56599993D01*
X115040227Y-56882500D01*
X109585312Y-56882500D01*
X109613440Y-56743600D01*
X109613440Y-55016400D01*
X109585360Y-54867163D01*
X115679855Y-54867163D01*
X115806708Y-55174172D01*
X116041393Y-55409266D01*
X116348179Y-55536655D01*
X116680363Y-55536945D01*
X116862229Y-55461800D01*
X121549000Y-55461800D01*
X121839839Y-55403948D01*
X122086401Y-55239201D01*
X122621870Y-54703732D01*
X122802272Y-54629192D01*
X123037366Y-54394507D01*
X123164755Y-54087721D01*
X123165045Y-53755537D01*
X123038192Y-53448528D01*
X122803507Y-53213434D01*
X122496721Y-53086045D01*
X122164537Y-53085755D01*
X121857528Y-53212608D01*
X121622434Y-53447293D01*
X121546971Y-53629027D01*
X121234198Y-53941800D01*
X116862091Y-53941800D01*
X116681821Y-53866945D01*
X116349637Y-53866655D01*
X116042628Y-53993508D01*
X115807534Y-54228193D01*
X115680145Y-54534979D01*
X115679855Y-54867163D01*
X109585360Y-54867163D01*
X109569162Y-54781083D01*
X109430090Y-54564959D01*
X109217890Y-54419969D01*
X109123073Y-54400768D01*
X109300732Y-54242036D01*
X109554709Y-53714791D01*
X109557358Y-53699026D01*
X109436217Y-53467000D01*
X108077000Y-53467000D01*
X108077000Y-53487000D01*
X107823000Y-53487000D01*
X107823000Y-53467000D01*
X106463783Y-53467000D01*
X106342642Y-53699026D01*
X106345291Y-53714791D01*
X106599268Y-54242036D01*
X106774845Y-54398907D01*
X106698683Y-54413238D01*
X106482559Y-54552310D01*
X106337569Y-54764510D01*
X106286560Y-55016400D01*
X106286560Y-56743600D01*
X106330838Y-56978917D01*
X106469910Y-57195041D01*
X106682110Y-57340031D01*
X106934000Y-57391040D01*
X107268767Y-57391040D01*
X107412599Y-57606301D01*
X107448798Y-57642500D01*
X105915999Y-59175299D01*
X105751252Y-59421861D01*
X105693400Y-59712700D01*
X105693400Y-62755809D01*
X105646731Y-62868200D01*
X104607423Y-62868200D01*
X104533440Y-62818767D01*
X104533440Y-62484000D01*
X104489162Y-62248683D01*
X104350090Y-62032559D01*
X104137890Y-61887569D01*
X103886000Y-61836560D01*
X101854000Y-61836560D01*
X101618683Y-61880838D01*
X101402559Y-62019910D01*
X101257569Y-62232110D01*
X101206560Y-62484000D01*
X101206560Y-64516000D01*
X101250838Y-64751317D01*
X101389910Y-64967441D01*
X101552948Y-65078840D01*
X101463615Y-65175182D01*
X101264025Y-65657056D01*
X101383164Y-65913000D01*
X102743000Y-65913000D01*
X102743000Y-65893000D01*
X102997000Y-65893000D01*
X102997000Y-65913000D01*
X104356836Y-65913000D01*
X104475975Y-65657056D01*
X104276385Y-65175182D01*
X104185903Y-65077602D01*
X104337441Y-64980090D01*
X104482431Y-64767890D01*
X104533440Y-64516000D01*
X104533440Y-64388200D01*
X122496800Y-64388200D01*
X122787639Y-64330348D01*
X123034201Y-64165601D01*
X123241970Y-63957832D01*
X123297229Y-63935000D01*
X128046198Y-63935000D01*
X134360470Y-70249272D01*
X134179934Y-70429493D01*
X134104471Y-70611227D01*
X133641399Y-71074299D01*
X133476652Y-71320861D01*
X133418800Y-71611700D01*
X133418800Y-76675348D01*
X133406507Y-76663034D01*
X133099721Y-76535645D01*
X132767537Y-76535355D01*
X132460528Y-76662208D01*
X132225434Y-76896893D01*
X132098045Y-77203679D01*
X132097755Y-77535863D01*
X132173000Y-77717971D01*
X132173000Y-78694100D01*
X132230852Y-78984939D01*
X132395599Y-79231501D01*
X135277768Y-82113670D01*
X135352308Y-82294072D01*
X135586993Y-82529166D01*
X135826000Y-82628411D01*
X135826000Y-85393962D01*
X135588537Y-85393755D01*
X135281528Y-85520608D01*
X135046434Y-85755293D01*
X134919045Y-86062079D01*
X134918755Y-86394263D01*
X134994448Y-86577455D01*
X135051752Y-86865539D01*
X135216499Y-87112101D01*
X142500598Y-94396200D01*
X140962091Y-94396200D01*
X140781821Y-94321345D01*
X140449637Y-94321055D01*
X140142628Y-94447908D01*
X139907534Y-94682593D01*
X139841683Y-94841181D01*
X138173501Y-93172999D01*
X137926939Y-93008252D01*
X137636100Y-92950400D01*
X123550091Y-92950400D01*
X123369821Y-92875545D01*
X123037637Y-92875255D01*
X122730628Y-93002108D01*
X122495534Y-93236793D01*
X122368145Y-93543579D01*
X122367855Y-93875763D01*
X122494708Y-94182772D01*
X122729393Y-94417866D01*
X123036179Y-94545255D01*
X123368363Y-94545545D01*
X123550229Y-94470400D01*
X137321298Y-94470400D01*
X143223498Y-100372600D01*
X139191102Y-100372600D01*
X137006401Y-98187899D01*
X136759839Y-98023152D01*
X136469000Y-97965300D01*
X134205091Y-97965300D01*
X134024821Y-97890445D01*
X133692637Y-97890155D01*
X133385628Y-98017008D01*
X133150534Y-98251693D01*
X133023145Y-98558479D01*
X133022855Y-98890663D01*
X133149708Y-99197672D01*
X133384393Y-99432766D01*
X133691179Y-99560155D01*
X134023363Y-99560445D01*
X134205229Y-99485300D01*
X136154198Y-99485300D01*
X137011098Y-100342200D01*
X117086900Y-100342200D01*
X116796061Y-100400052D01*
X116549499Y-100564799D01*
X107581799Y-109532499D01*
X107417052Y-109779061D01*
X107359200Y-110069900D01*
X107359200Y-111814900D01*
X107417052Y-112105739D01*
X107581799Y-112352301D01*
X109283282Y-114053784D01*
X108872632Y-114074338D01*
X108488857Y-114233303D01*
X108419392Y-114475487D01*
X109220000Y-115276095D01*
X109234143Y-115261953D01*
X109413748Y-115441558D01*
X109399605Y-115455700D01*
X110200213Y-116256308D01*
X110442397Y-116186843D01*
X110492509Y-116046382D01*
X110574990Y-116246003D01*
X110967630Y-116639329D01*
X111480900Y-116852457D01*
X112036661Y-116852942D01*
X112108700Y-116823176D01*
X112108700Y-117608798D01*
X109444599Y-120272899D01*
X109279852Y-120519461D01*
X109222000Y-120810300D01*
X109222000Y-140068560D01*
X109185000Y-140068560D01*
X109185000Y-126620000D01*
X109132857Y-126357862D01*
X109127000Y-126349096D01*
X109127000Y-125620000D01*
X109116994Y-125570590D01*
X109088553Y-125528965D01*
X109046159Y-125501685D01*
X109000000Y-125493000D01*
X99185000Y-125493000D01*
X99185000Y-122949834D01*
X100234543Y-122949834D01*
X100634853Y-123918658D01*
X101375443Y-124660542D01*
X102343567Y-125062542D01*
X103391834Y-125063457D01*
X104360658Y-124663147D01*
X105102542Y-123922557D01*
X105504542Y-122954433D01*
X105505457Y-121906166D01*
X105105147Y-120937342D01*
X104364557Y-120195458D01*
X103396433Y-119793458D01*
X102348166Y-119792543D01*
X101379342Y-120192853D01*
X100637458Y-120933443D01*
X100235458Y-121901567D01*
X100234543Y-122949834D01*
X99185000Y-122949834D01*
X99185000Y-116435913D01*
X108419392Y-116435913D01*
X108488857Y-116678097D01*
X109012302Y-116864844D01*
X109567368Y-116837062D01*
X109951143Y-116678097D01*
X110020608Y-116435913D01*
X109220000Y-115635305D01*
X108419392Y-116435913D01*
X99185000Y-116435913D01*
X99185000Y-115248002D01*
X107810856Y-115248002D01*
X107838638Y-115803068D01*
X107997603Y-116186843D01*
X108239787Y-116256308D01*
X109040395Y-115455700D01*
X108239787Y-114655092D01*
X107997603Y-114724557D01*
X107810856Y-115248002D01*
X99185000Y-115248002D01*
X99185000Y-66422944D01*
X101264025Y-66422944D01*
X101463615Y-66904818D01*
X101901621Y-67377188D01*
X102487054Y-67645983D01*
X102743000Y-67527367D01*
X102743000Y-66167000D01*
X102997000Y-66167000D01*
X102997000Y-67527367D01*
X103252946Y-67645983D01*
X103838379Y-67377188D01*
X104276385Y-66904818D01*
X104475975Y-66422944D01*
X104356836Y-66167000D01*
X102997000Y-66167000D01*
X102743000Y-66167000D01*
X101383164Y-66167000D01*
X101264025Y-66422944D01*
X99185000Y-66422944D01*
X99185000Y-51159026D01*
X106342642Y-51159026D01*
X106345291Y-51174791D01*
X106599268Y-51702036D01*
X107011108Y-52070000D01*
X106599268Y-52437964D01*
X106345291Y-52965209D01*
X106342642Y-52980974D01*
X106463783Y-53213000D01*
X107823000Y-53213000D01*
X107823000Y-50927000D01*
X108077000Y-50927000D01*
X108077000Y-53213000D01*
X109436217Y-53213000D01*
X109557358Y-52980974D01*
X109554709Y-52965209D01*
X109300732Y-52437964D01*
X108888892Y-52070000D01*
X109300732Y-51702036D01*
X109554709Y-51174791D01*
X109557358Y-51159026D01*
X109436217Y-50927000D01*
X108077000Y-50927000D01*
X107823000Y-50927000D01*
X106463783Y-50927000D01*
X106342642Y-51159026D01*
X99185000Y-51159026D01*
X99185000Y-48260000D01*
X106266655Y-48260000D01*
X106380729Y-48833489D01*
X106705585Y-49319670D01*
X107015069Y-49526461D01*
X106599268Y-49897964D01*
X106345291Y-50425209D01*
X106342642Y-50440974D01*
X106463783Y-50673000D01*
X107823000Y-50673000D01*
X107823000Y-50653000D01*
X108077000Y-50653000D01*
X108077000Y-50673000D01*
X109436217Y-50673000D01*
X109557358Y-50440974D01*
X109554709Y-50425209D01*
X109300732Y-49897964D01*
X108884931Y-49526461D01*
X109194415Y-49319670D01*
X109519271Y-48833489D01*
X109633345Y-48260000D01*
X109519271Y-47686511D01*
X109194415Y-47200330D01*
X108708234Y-46875474D01*
X108134745Y-46761400D01*
X107765255Y-46761400D01*
X107191766Y-46875474D01*
X106705585Y-47200330D01*
X106380729Y-47686511D01*
X106266655Y-48260000D01*
X99185000Y-48260000D01*
X99185000Y-44481750D01*
X100609400Y-44481750D01*
X100609400Y-45439910D01*
X100706073Y-45673299D01*
X100884702Y-45851927D01*
X101118091Y-45948600D01*
X102076250Y-45948600D01*
X102235000Y-45789850D01*
X102235000Y-44323000D01*
X102489000Y-44323000D01*
X102489000Y-45789850D01*
X102647750Y-45948600D01*
X103605909Y-45948600D01*
X103839298Y-45851927D01*
X104017927Y-45673299D01*
X104114600Y-45439910D01*
X104114600Y-44481750D01*
X103955850Y-44323000D01*
X102489000Y-44323000D01*
X102235000Y-44323000D01*
X100768150Y-44323000D01*
X100609400Y-44481750D01*
X99185000Y-44481750D01*
X99185000Y-42952090D01*
X100609400Y-42952090D01*
X100609400Y-43910250D01*
X100768150Y-44069000D01*
X102235000Y-44069000D01*
X102235000Y-42602150D01*
X102489000Y-42602150D01*
X102489000Y-44069000D01*
X103955850Y-44069000D01*
X104114600Y-43910250D01*
X104114600Y-42952090D01*
X104017927Y-42718701D01*
X103839298Y-42540073D01*
X103605909Y-42443400D01*
X102647750Y-42443400D01*
X102489000Y-42602150D01*
X102235000Y-42602150D01*
X102076250Y-42443400D01*
X101118091Y-42443400D01*
X100884702Y-42540073D01*
X100706073Y-42718701D01*
X100609400Y-42952090D01*
X99185000Y-42952090D01*
X99185000Y-37115750D01*
X106451400Y-37115750D01*
X106451400Y-37972309D01*
X106548073Y-38205698D01*
X106726701Y-38384327D01*
X106960090Y-38481000D01*
X107664250Y-38481000D01*
X107823000Y-38322250D01*
X107823000Y-36957000D01*
X106610150Y-36957000D01*
X106451400Y-37115750D01*
X99185000Y-37115750D01*
X99185000Y-35687691D01*
X106451400Y-35687691D01*
X106451400Y-36544250D01*
X106610150Y-36703000D01*
X107823000Y-36703000D01*
X107823000Y-35337750D01*
X107664250Y-35179000D01*
X106960090Y-35179000D01*
X106726701Y-35275673D01*
X106548073Y-35454302D01*
X106451400Y-35687691D01*
X99185000Y-35687691D01*
X99185000Y-31509834D01*
X100234543Y-31509834D01*
X100634853Y-32478658D01*
X101375443Y-33220542D01*
X102343567Y-33622542D01*
X103391834Y-33623457D01*
X104360658Y-33223147D01*
X105102542Y-32482557D01*
X105504542Y-31514433D01*
X105505195Y-30765750D01*
X119151400Y-30765750D01*
X119151400Y-31622309D01*
X119248073Y-31855698D01*
X119426701Y-32034327D01*
X119660090Y-32131000D01*
X120364250Y-32131000D01*
X120523000Y-31972250D01*
X120523000Y-30607000D01*
X119310150Y-30607000D01*
X119151400Y-30765750D01*
X105505195Y-30765750D01*
X105505457Y-30466166D01*
X105105147Y-29497342D01*
X104945775Y-29337691D01*
X119151400Y-29337691D01*
X119151400Y-30194250D01*
X119310150Y-30353000D01*
X120523000Y-30353000D01*
X120523000Y-28987750D01*
X120364250Y-28829000D01*
X119660090Y-28829000D01*
X119426701Y-28925673D01*
X119248073Y-29104302D01*
X119151400Y-29337691D01*
X104945775Y-29337691D01*
X104364557Y-28755458D01*
X103396433Y-28353458D01*
X102348166Y-28352543D01*
X101379342Y-28752853D01*
X100637458Y-29493443D01*
X100235458Y-30461567D01*
X100234543Y-31509834D01*
X99185000Y-31509834D01*
X99185000Y-27747000D01*
X195815000Y-27747000D01*
X195815000Y-125493000D01*
G36*
X138233093Y-68910766D02*
X138414827Y-68986229D01*
X139049299Y-69620701D01*
X139295861Y-69785448D01*
X139586700Y-69843300D01*
X141417604Y-69843300D01*
X141195697Y-69934990D01*
X140802371Y-70327630D01*
X140796556Y-70341633D01*
X140667021Y-70287845D01*
X140334837Y-70287555D01*
X140027828Y-70414408D01*
X139792734Y-70649093D01*
X139717271Y-70830827D01*
X139328699Y-71219399D01*
X139163952Y-71465961D01*
X139106100Y-71756800D01*
X139106100Y-73713865D01*
X139000200Y-73692800D01*
X136443591Y-73692800D01*
X136314900Y-73639363D01*
X136314900Y-73204302D01*
X137867901Y-71651301D01*
X138032648Y-71404739D01*
X138090500Y-71113900D01*
X138090500Y-68999891D01*
X138158525Y-68836068D01*
X138233093Y-68910766D01*
X138233093Y-68910766D01*
G37*
X138233093Y-68910766D02*
X138414827Y-68986229D01*
X139049299Y-69620701D01*
X139295861Y-69785448D01*
X139586700Y-69843300D01*
X141417604Y-69843300D01*
X141195697Y-69934990D01*
X140802371Y-70327630D01*
X140796556Y-70341633D01*
X140667021Y-70287845D01*
X140334837Y-70287555D01*
X140027828Y-70414408D01*
X139792734Y-70649093D01*
X139717271Y-70830827D01*
X139328699Y-71219399D01*
X139163952Y-71465961D01*
X139106100Y-71756800D01*
X139106100Y-73713865D01*
X139000200Y-73692800D01*
X136443591Y-73692800D01*
X136314900Y-73639363D01*
X136314900Y-73204302D01*
X137867901Y-71651301D01*
X138032648Y-71404739D01*
X138090500Y-71113900D01*
X138090500Y-68999891D01*
X138158525Y-68836068D01*
X138233093Y-68910766D01*
G36*
X123232299Y-44378201D02*
X123478860Y-44542948D01*
X123511156Y-44549372D01*
X123769700Y-44600800D01*
X132018909Y-44600800D01*
X132199179Y-44675655D01*
X132531363Y-44675945D01*
X132713229Y-44600800D01*
X133446900Y-44600800D01*
X133737739Y-44542948D01*
X133984301Y-44378201D01*
X136099030Y-42263472D01*
X136296400Y-42303440D01*
X138023600Y-42303440D01*
X138258917Y-42259162D01*
X138475041Y-42120090D01*
X138620031Y-41907890D01*
X138671040Y-41656000D01*
X138671040Y-40007000D01*
X145531109Y-40007000D01*
X145711379Y-40081855D01*
X146043563Y-40082145D01*
X146350572Y-39955292D01*
X146585666Y-39720607D01*
X146597208Y-39692810D01*
X150757599Y-43853201D01*
X151004161Y-44017948D01*
X151295000Y-44075800D01*
X156496600Y-44075800D01*
X156476345Y-44124579D01*
X156476055Y-44456763D01*
X156602908Y-44763772D01*
X156837593Y-44998866D01*
X157019327Y-45074329D01*
X161122599Y-49177601D01*
X161369161Y-49342348D01*
X161660000Y-49400200D01*
X173719698Y-49400200D01*
X175461998Y-51142500D01*
X147176300Y-51142500D01*
X146933714Y-51190754D01*
X146885460Y-51200352D01*
X146638899Y-51365099D01*
X146474130Y-51529868D01*
X146418871Y-51552700D01*
X141595713Y-51552700D01*
X141595745Y-51516437D01*
X141468892Y-51209428D01*
X141234207Y-50974334D01*
X140927421Y-50846945D01*
X140595237Y-50846655D01*
X140413371Y-50921800D01*
X128865402Y-50921800D01*
X116263011Y-38319409D01*
X116629670Y-38074415D01*
X116749370Y-37895272D01*
X123232299Y-44378201D01*
X123232299Y-44378201D01*
G37*
X123232299Y-44378201D02*
X123478860Y-44542948D01*
X123511156Y-44549372D01*
X123769700Y-44600800D01*
X132018909Y-44600800D01*
X132199179Y-44675655D01*
X132531363Y-44675945D01*
X132713229Y-44600800D01*
X133446900Y-44600800D01*
X133737739Y-44542948D01*
X133984301Y-44378201D01*
X136099030Y-42263472D01*
X136296400Y-42303440D01*
X138023600Y-42303440D01*
X138258917Y-42259162D01*
X138475041Y-42120090D01*
X138620031Y-41907890D01*
X138671040Y-41656000D01*
X138671040Y-40007000D01*
X145531109Y-40007000D01*
X145711379Y-40081855D01*
X146043563Y-40082145D01*
X146350572Y-39955292D01*
X146585666Y-39720607D01*
X146597208Y-39692810D01*
X150757599Y-43853201D01*
X151004161Y-44017948D01*
X151295000Y-44075800D01*
X156496600Y-44075800D01*
X156476345Y-44124579D01*
X156476055Y-44456763D01*
X156602908Y-44763772D01*
X156837593Y-44998866D01*
X157019327Y-45074329D01*
X161122599Y-49177601D01*
X161369161Y-49342348D01*
X161660000Y-49400200D01*
X173719698Y-49400200D01*
X175461998Y-51142500D01*
X147176300Y-51142500D01*
X146933714Y-51190754D01*
X146885460Y-51200352D01*
X146638899Y-51365099D01*
X146474130Y-51529868D01*
X146418871Y-51552700D01*
X141595713Y-51552700D01*
X141595745Y-51516437D01*
X141468892Y-51209428D01*
X141234207Y-50974334D01*
X140927421Y-50846945D01*
X140595237Y-50846655D01*
X140413371Y-50921800D01*
X128865402Y-50921800D01*
X116263011Y-38319409D01*
X116629670Y-38074415D01*
X116749370Y-37895272D01*
X123232299Y-44378201D01*
M02*
