G04 #@! TF.FileFunction,Paste,Top*
%FSLAX46Y46*%
G04 Gerber Fmt 4.6, Leading zero omitted, Abs format (unit mm)*
G04 Created by KiCad (PCBNEW 4.0.2+dfsg1-stable) date Mon 11 Feb 2019 22:19:24 CET*
%MOMM*%
G01*
G04 APERTURE LIST*
%ADD10C,0.100000*%
%ADD11R,1.600200X2.999740*%
%ADD12R,2.999740X1.600200*%
%ADD13R,2.000000X1.600000*%
%ADD14R,1.600000X2.000000*%
%ADD15R,1.597660X1.800860*%
%ADD16R,2.598420X1.198880*%
%ADD17R,2.600960X1.198880*%
%ADD18R,2.000000X1.700000*%
%ADD19R,1.700000X2.000000*%
%ADD20R,2.032000X3.657600*%
%ADD21R,2.032000X1.016000*%
%ADD22R,0.400000X1.000000*%
%ADD23R,1.200000X0.400000*%
%ADD24R,1.100000X0.400000*%
%ADD25R,0.400000X1.100000*%
%ADD26R,0.450000X1.400000*%
%ADD27R,0.700000X1.750000*%
%ADD28R,1.300000X1.500000*%
%ADD29R,0.800000X1.500000*%
%ADD30R,1.450000X1.000000*%
%ADD31R,0.800000X1.400000*%
%ADD32R,1.500000X1.500000*%
%ADD33R,1.000000X1.550000*%
%ADD34R,2.180000X1.600000*%
%ADD35R,1.930400X5.588000*%
G04 APERTURE END LIST*
D10*
G36*
X131979881Y-73092828D02*
X131781891Y-72894838D01*
X132842551Y-71834178D01*
X133040541Y-72032168D01*
X131979881Y-73092828D01*
X131979881Y-73092828D01*
G37*
G36*
X132333434Y-73446381D02*
X132135444Y-73248391D01*
X133196104Y-72187731D01*
X133394094Y-72385721D01*
X132333434Y-73446381D01*
X132333434Y-73446381D01*
G37*
G36*
X132686988Y-73799935D02*
X132488998Y-73601945D01*
X133549658Y-72541285D01*
X133747648Y-72739275D01*
X132686988Y-73799935D01*
X132686988Y-73799935D01*
G37*
G36*
X133040541Y-74153488D02*
X132842551Y-73955498D01*
X133903211Y-72894838D01*
X134101201Y-73092828D01*
X133040541Y-74153488D01*
X133040541Y-74153488D01*
G37*
G36*
X133394094Y-74507041D02*
X133196104Y-74309051D01*
X134256764Y-73248391D01*
X134454754Y-73446381D01*
X133394094Y-74507041D01*
X133394094Y-74507041D01*
G37*
G36*
X133747648Y-74860595D02*
X133549658Y-74662605D01*
X134610318Y-73601945D01*
X134808308Y-73799935D01*
X133747648Y-74860595D01*
X133747648Y-74860595D01*
G37*
G36*
X134101201Y-75214148D02*
X133903211Y-75016158D01*
X134963871Y-73955498D01*
X135161861Y-74153488D01*
X134101201Y-75214148D01*
X134101201Y-75214148D01*
G37*
G36*
X134454754Y-75567702D02*
X134256764Y-75369712D01*
X135317424Y-74309052D01*
X135515414Y-74507042D01*
X134454754Y-75567702D01*
X134454754Y-75567702D01*
G37*
G36*
X134808308Y-75921255D02*
X134610318Y-75723265D01*
X135670978Y-74662605D01*
X135868968Y-74860595D01*
X134808308Y-75921255D01*
X134808308Y-75921255D01*
G37*
G36*
X135161861Y-76274808D02*
X134963871Y-76076818D01*
X136024531Y-75016158D01*
X136222521Y-75214148D01*
X135161861Y-76274808D01*
X135161861Y-76274808D01*
G37*
G36*
X135515415Y-76628362D02*
X135317425Y-76430372D01*
X136378085Y-75369712D01*
X136576075Y-75567702D01*
X135515415Y-76628362D01*
X135515415Y-76628362D01*
G37*
G36*
X135868968Y-76981915D02*
X135670978Y-76783925D01*
X136731638Y-75723265D01*
X136929628Y-75921255D01*
X135868968Y-76981915D01*
X135868968Y-76981915D01*
G37*
G36*
X136222521Y-77335469D02*
X136024531Y-77137479D01*
X137085191Y-76076819D01*
X137283181Y-76274809D01*
X136222521Y-77335469D01*
X136222521Y-77335469D01*
G37*
G36*
X136576075Y-77689022D02*
X136378085Y-77491032D01*
X137438745Y-76430372D01*
X137636735Y-76628362D01*
X136576075Y-77689022D01*
X136576075Y-77689022D01*
G37*
G36*
X136929628Y-78042575D02*
X136731638Y-77844585D01*
X137792298Y-76783925D01*
X137990288Y-76981915D01*
X136929628Y-78042575D01*
X136929628Y-78042575D01*
G37*
G36*
X137283182Y-78396129D02*
X137085192Y-78198139D01*
X138145852Y-77137479D01*
X138343842Y-77335469D01*
X137283182Y-78396129D01*
X137283182Y-78396129D01*
G37*
G36*
X137636735Y-78749682D02*
X137438745Y-78551692D01*
X138499405Y-77491032D01*
X138697395Y-77689022D01*
X137636735Y-78749682D01*
X137636735Y-78749682D01*
G37*
G36*
X137990288Y-79103236D02*
X137792298Y-78905246D01*
X138852958Y-77844586D01*
X139050948Y-78042576D01*
X137990288Y-79103236D01*
X137990288Y-79103236D01*
G37*
G36*
X138343842Y-79456789D02*
X138145852Y-79258799D01*
X139206512Y-78198139D01*
X139404502Y-78396129D01*
X138343842Y-79456789D01*
X138343842Y-79456789D01*
G37*
G36*
X138697395Y-79810342D02*
X138499405Y-79612352D01*
X139560065Y-78551692D01*
X139758055Y-78749682D01*
X138697395Y-79810342D01*
X138697395Y-79810342D01*
G37*
G36*
X139050949Y-80163896D02*
X138852959Y-79965906D01*
X139913619Y-78905246D01*
X140111609Y-79103236D01*
X139050949Y-80163896D01*
X139050949Y-80163896D01*
G37*
G36*
X139404502Y-80517449D02*
X139206512Y-80319459D01*
X140267172Y-79258799D01*
X140465162Y-79456789D01*
X139404502Y-80517449D01*
X139404502Y-80517449D01*
G37*
G36*
X139758055Y-80871002D02*
X139560065Y-80673012D01*
X140620725Y-79612352D01*
X140818715Y-79810342D01*
X139758055Y-80871002D01*
X139758055Y-80871002D01*
G37*
G36*
X140111609Y-81224556D02*
X139913619Y-81026566D01*
X140974279Y-79965906D01*
X141172269Y-80163896D01*
X140111609Y-81224556D01*
X140111609Y-81224556D01*
G37*
G36*
X140465162Y-81578109D02*
X140267172Y-81380119D01*
X141327832Y-80319459D01*
X141525822Y-80517449D01*
X140465162Y-81578109D01*
X140465162Y-81578109D01*
G37*
G36*
X144212828Y-81380119D02*
X144014838Y-81578109D01*
X142954178Y-80517449D01*
X143152168Y-80319459D01*
X144212828Y-81380119D01*
X144212828Y-81380119D01*
G37*
G36*
X144566381Y-81026566D02*
X144368391Y-81224556D01*
X143307731Y-80163896D01*
X143505721Y-79965906D01*
X144566381Y-81026566D01*
X144566381Y-81026566D01*
G37*
G36*
X144919935Y-80673012D02*
X144721945Y-80871002D01*
X143661285Y-79810342D01*
X143859275Y-79612352D01*
X144919935Y-80673012D01*
X144919935Y-80673012D01*
G37*
G36*
X145273488Y-80319459D02*
X145075498Y-80517449D01*
X144014838Y-79456789D01*
X144212828Y-79258799D01*
X145273488Y-80319459D01*
X145273488Y-80319459D01*
G37*
G36*
X145627041Y-79965906D02*
X145429051Y-80163896D01*
X144368391Y-79103236D01*
X144566381Y-78905246D01*
X145627041Y-79965906D01*
X145627041Y-79965906D01*
G37*
G36*
X145980595Y-79612352D02*
X145782605Y-79810342D01*
X144721945Y-78749682D01*
X144919935Y-78551692D01*
X145980595Y-79612352D01*
X145980595Y-79612352D01*
G37*
G36*
X146334148Y-79258799D02*
X146136158Y-79456789D01*
X145075498Y-78396129D01*
X145273488Y-78198139D01*
X146334148Y-79258799D01*
X146334148Y-79258799D01*
G37*
G36*
X146687702Y-78905246D02*
X146489712Y-79103236D01*
X145429052Y-78042576D01*
X145627042Y-77844586D01*
X146687702Y-78905246D01*
X146687702Y-78905246D01*
G37*
G36*
X147041255Y-78551692D02*
X146843265Y-78749682D01*
X145782605Y-77689022D01*
X145980595Y-77491032D01*
X147041255Y-78551692D01*
X147041255Y-78551692D01*
G37*
G36*
X147394808Y-78198139D02*
X147196818Y-78396129D01*
X146136158Y-77335469D01*
X146334148Y-77137479D01*
X147394808Y-78198139D01*
X147394808Y-78198139D01*
G37*
G36*
X147748362Y-77844585D02*
X147550372Y-78042575D01*
X146489712Y-76981915D01*
X146687702Y-76783925D01*
X147748362Y-77844585D01*
X147748362Y-77844585D01*
G37*
G36*
X148101915Y-77491032D02*
X147903925Y-77689022D01*
X146843265Y-76628362D01*
X147041255Y-76430372D01*
X148101915Y-77491032D01*
X148101915Y-77491032D01*
G37*
G36*
X148455469Y-77137479D02*
X148257479Y-77335469D01*
X147196819Y-76274809D01*
X147394809Y-76076819D01*
X148455469Y-77137479D01*
X148455469Y-77137479D01*
G37*
G36*
X148809022Y-76783925D02*
X148611032Y-76981915D01*
X147550372Y-75921255D01*
X147748362Y-75723265D01*
X148809022Y-76783925D01*
X148809022Y-76783925D01*
G37*
G36*
X149162575Y-76430372D02*
X148964585Y-76628362D01*
X147903925Y-75567702D01*
X148101915Y-75369712D01*
X149162575Y-76430372D01*
X149162575Y-76430372D01*
G37*
G36*
X149516129Y-76076818D02*
X149318139Y-76274808D01*
X148257479Y-75214148D01*
X148455469Y-75016158D01*
X149516129Y-76076818D01*
X149516129Y-76076818D01*
G37*
G36*
X149869682Y-75723265D02*
X149671692Y-75921255D01*
X148611032Y-74860595D01*
X148809022Y-74662605D01*
X149869682Y-75723265D01*
X149869682Y-75723265D01*
G37*
G36*
X150223236Y-75369712D02*
X150025246Y-75567702D01*
X148964586Y-74507042D01*
X149162576Y-74309052D01*
X150223236Y-75369712D01*
X150223236Y-75369712D01*
G37*
G36*
X150576789Y-75016158D02*
X150378799Y-75214148D01*
X149318139Y-74153488D01*
X149516129Y-73955498D01*
X150576789Y-75016158D01*
X150576789Y-75016158D01*
G37*
G36*
X150930342Y-74662605D02*
X150732352Y-74860595D01*
X149671692Y-73799935D01*
X149869682Y-73601945D01*
X150930342Y-74662605D01*
X150930342Y-74662605D01*
G37*
G36*
X151283896Y-74309051D02*
X151085906Y-74507041D01*
X150025246Y-73446381D01*
X150223236Y-73248391D01*
X151283896Y-74309051D01*
X151283896Y-74309051D01*
G37*
G36*
X151637449Y-73955498D02*
X151439459Y-74153488D01*
X150378799Y-73092828D01*
X150576789Y-72894838D01*
X151637449Y-73955498D01*
X151637449Y-73955498D01*
G37*
G36*
X151991002Y-73601945D02*
X151793012Y-73799935D01*
X150732352Y-72739275D01*
X150930342Y-72541285D01*
X151991002Y-73601945D01*
X151991002Y-73601945D01*
G37*
G36*
X152344556Y-73248391D02*
X152146566Y-73446381D01*
X151085906Y-72385721D01*
X151283896Y-72187731D01*
X152344556Y-73248391D01*
X152344556Y-73248391D01*
G37*
G36*
X152698109Y-72894838D02*
X152500119Y-73092828D01*
X151439459Y-72032168D01*
X151637449Y-71834178D01*
X152698109Y-72894838D01*
X152698109Y-72894838D01*
G37*
G36*
X151637449Y-70405822D02*
X151439459Y-70207832D01*
X152500119Y-69147172D01*
X152698109Y-69345162D01*
X151637449Y-70405822D01*
X151637449Y-70405822D01*
G37*
G36*
X151283896Y-70052269D02*
X151085906Y-69854279D01*
X152146566Y-68793619D01*
X152344556Y-68991609D01*
X151283896Y-70052269D01*
X151283896Y-70052269D01*
G37*
G36*
X150930342Y-69698715D02*
X150732352Y-69500725D01*
X151793012Y-68440065D01*
X151991002Y-68638055D01*
X150930342Y-69698715D01*
X150930342Y-69698715D01*
G37*
G36*
X150576789Y-69345162D02*
X150378799Y-69147172D01*
X151439459Y-68086512D01*
X151637449Y-68284502D01*
X150576789Y-69345162D01*
X150576789Y-69345162D01*
G37*
G36*
X150223236Y-68991609D02*
X150025246Y-68793619D01*
X151085906Y-67732959D01*
X151283896Y-67930949D01*
X150223236Y-68991609D01*
X150223236Y-68991609D01*
G37*
G36*
X149869682Y-68638055D02*
X149671692Y-68440065D01*
X150732352Y-67379405D01*
X150930342Y-67577395D01*
X149869682Y-68638055D01*
X149869682Y-68638055D01*
G37*
G36*
X149516129Y-68284502D02*
X149318139Y-68086512D01*
X150378799Y-67025852D01*
X150576789Y-67223842D01*
X149516129Y-68284502D01*
X149516129Y-68284502D01*
G37*
G36*
X149162576Y-67930948D02*
X148964586Y-67732958D01*
X150025246Y-66672298D01*
X150223236Y-66870288D01*
X149162576Y-67930948D01*
X149162576Y-67930948D01*
G37*
G36*
X148809022Y-67577395D02*
X148611032Y-67379405D01*
X149671692Y-66318745D01*
X149869682Y-66516735D01*
X148809022Y-67577395D01*
X148809022Y-67577395D01*
G37*
G36*
X148455469Y-67223842D02*
X148257479Y-67025852D01*
X149318139Y-65965192D01*
X149516129Y-66163182D01*
X148455469Y-67223842D01*
X148455469Y-67223842D01*
G37*
G36*
X148101915Y-66870288D02*
X147903925Y-66672298D01*
X148964585Y-65611638D01*
X149162575Y-65809628D01*
X148101915Y-66870288D01*
X148101915Y-66870288D01*
G37*
G36*
X147748362Y-66516735D02*
X147550372Y-66318745D01*
X148611032Y-65258085D01*
X148809022Y-65456075D01*
X147748362Y-66516735D01*
X147748362Y-66516735D01*
G37*
G36*
X147394809Y-66163181D02*
X147196819Y-65965191D01*
X148257479Y-64904531D01*
X148455469Y-65102521D01*
X147394809Y-66163181D01*
X147394809Y-66163181D01*
G37*
G36*
X147041255Y-65809628D02*
X146843265Y-65611638D01*
X147903925Y-64550978D01*
X148101915Y-64748968D01*
X147041255Y-65809628D01*
X147041255Y-65809628D01*
G37*
G36*
X146687702Y-65456075D02*
X146489712Y-65258085D01*
X147550372Y-64197425D01*
X147748362Y-64395415D01*
X146687702Y-65456075D01*
X146687702Y-65456075D01*
G37*
G36*
X146334148Y-65102521D02*
X146136158Y-64904531D01*
X147196818Y-63843871D01*
X147394808Y-64041861D01*
X146334148Y-65102521D01*
X146334148Y-65102521D01*
G37*
G36*
X145980595Y-64748968D02*
X145782605Y-64550978D01*
X146843265Y-63490318D01*
X147041255Y-63688308D01*
X145980595Y-64748968D01*
X145980595Y-64748968D01*
G37*
G36*
X145627042Y-64395414D02*
X145429052Y-64197424D01*
X146489712Y-63136764D01*
X146687702Y-63334754D01*
X145627042Y-64395414D01*
X145627042Y-64395414D01*
G37*
G36*
X145273488Y-64041861D02*
X145075498Y-63843871D01*
X146136158Y-62783211D01*
X146334148Y-62981201D01*
X145273488Y-64041861D01*
X145273488Y-64041861D01*
G37*
G36*
X144919935Y-63688308D02*
X144721945Y-63490318D01*
X145782605Y-62429658D01*
X145980595Y-62627648D01*
X144919935Y-63688308D01*
X144919935Y-63688308D01*
G37*
G36*
X144566381Y-63334754D02*
X144368391Y-63136764D01*
X145429051Y-62076104D01*
X145627041Y-62274094D01*
X144566381Y-63334754D01*
X144566381Y-63334754D01*
G37*
G36*
X144212828Y-62981201D02*
X144014838Y-62783211D01*
X145075498Y-61722551D01*
X145273488Y-61920541D01*
X144212828Y-62981201D01*
X144212828Y-62981201D01*
G37*
G36*
X143859275Y-62627648D02*
X143661285Y-62429658D01*
X144721945Y-61368998D01*
X144919935Y-61566988D01*
X143859275Y-62627648D01*
X143859275Y-62627648D01*
G37*
G36*
X143505721Y-62274094D02*
X143307731Y-62076104D01*
X144368391Y-61015444D01*
X144566381Y-61213434D01*
X143505721Y-62274094D01*
X143505721Y-62274094D01*
G37*
G36*
X143152168Y-61920541D02*
X142954178Y-61722551D01*
X144014838Y-60661891D01*
X144212828Y-60859881D01*
X143152168Y-61920541D01*
X143152168Y-61920541D01*
G37*
G36*
X141525822Y-61722551D02*
X141327832Y-61920541D01*
X140267172Y-60859881D01*
X140465162Y-60661891D01*
X141525822Y-61722551D01*
X141525822Y-61722551D01*
G37*
G36*
X141172269Y-62076104D02*
X140974279Y-62274094D01*
X139913619Y-61213434D01*
X140111609Y-61015444D01*
X141172269Y-62076104D01*
X141172269Y-62076104D01*
G37*
G36*
X140818715Y-62429658D02*
X140620725Y-62627648D01*
X139560065Y-61566988D01*
X139758055Y-61368998D01*
X140818715Y-62429658D01*
X140818715Y-62429658D01*
G37*
G36*
X140465162Y-62783211D02*
X140267172Y-62981201D01*
X139206512Y-61920541D01*
X139404502Y-61722551D01*
X140465162Y-62783211D01*
X140465162Y-62783211D01*
G37*
G36*
X140111609Y-63136764D02*
X139913619Y-63334754D01*
X138852959Y-62274094D01*
X139050949Y-62076104D01*
X140111609Y-63136764D01*
X140111609Y-63136764D01*
G37*
G36*
X139758055Y-63490318D02*
X139560065Y-63688308D01*
X138499405Y-62627648D01*
X138697395Y-62429658D01*
X139758055Y-63490318D01*
X139758055Y-63490318D01*
G37*
G36*
X139404502Y-63843871D02*
X139206512Y-64041861D01*
X138145852Y-62981201D01*
X138343842Y-62783211D01*
X139404502Y-63843871D01*
X139404502Y-63843871D01*
G37*
G36*
X139050948Y-64197424D02*
X138852958Y-64395414D01*
X137792298Y-63334754D01*
X137990288Y-63136764D01*
X139050948Y-64197424D01*
X139050948Y-64197424D01*
G37*
G36*
X138697395Y-64550978D02*
X138499405Y-64748968D01*
X137438745Y-63688308D01*
X137636735Y-63490318D01*
X138697395Y-64550978D01*
X138697395Y-64550978D01*
G37*
G36*
X138343842Y-64904531D02*
X138145852Y-65102521D01*
X137085192Y-64041861D01*
X137283182Y-63843871D01*
X138343842Y-64904531D01*
X138343842Y-64904531D01*
G37*
G36*
X137990288Y-65258085D02*
X137792298Y-65456075D01*
X136731638Y-64395415D01*
X136929628Y-64197425D01*
X137990288Y-65258085D01*
X137990288Y-65258085D01*
G37*
G36*
X137636735Y-65611638D02*
X137438745Y-65809628D01*
X136378085Y-64748968D01*
X136576075Y-64550978D01*
X137636735Y-65611638D01*
X137636735Y-65611638D01*
G37*
G36*
X137283181Y-65965191D02*
X137085191Y-66163181D01*
X136024531Y-65102521D01*
X136222521Y-64904531D01*
X137283181Y-65965191D01*
X137283181Y-65965191D01*
G37*
G36*
X136929628Y-66318745D02*
X136731638Y-66516735D01*
X135670978Y-65456075D01*
X135868968Y-65258085D01*
X136929628Y-66318745D01*
X136929628Y-66318745D01*
G37*
G36*
X136576075Y-66672298D02*
X136378085Y-66870288D01*
X135317425Y-65809628D01*
X135515415Y-65611638D01*
X136576075Y-66672298D01*
X136576075Y-66672298D01*
G37*
G36*
X136222521Y-67025852D02*
X136024531Y-67223842D01*
X134963871Y-66163182D01*
X135161861Y-65965192D01*
X136222521Y-67025852D01*
X136222521Y-67025852D01*
G37*
G36*
X135868968Y-67379405D02*
X135670978Y-67577395D01*
X134610318Y-66516735D01*
X134808308Y-66318745D01*
X135868968Y-67379405D01*
X135868968Y-67379405D01*
G37*
G36*
X135515414Y-67732958D02*
X135317424Y-67930948D01*
X134256764Y-66870288D01*
X134454754Y-66672298D01*
X135515414Y-67732958D01*
X135515414Y-67732958D01*
G37*
G36*
X135161861Y-68086512D02*
X134963871Y-68284502D01*
X133903211Y-67223842D01*
X134101201Y-67025852D01*
X135161861Y-68086512D01*
X135161861Y-68086512D01*
G37*
G36*
X134808308Y-68440065D02*
X134610318Y-68638055D01*
X133549658Y-67577395D01*
X133747648Y-67379405D01*
X134808308Y-68440065D01*
X134808308Y-68440065D01*
G37*
G36*
X134454754Y-68793619D02*
X134256764Y-68991609D01*
X133196104Y-67930949D01*
X133394094Y-67732959D01*
X134454754Y-68793619D01*
X134454754Y-68793619D01*
G37*
G36*
X134101201Y-69147172D02*
X133903211Y-69345162D01*
X132842551Y-68284502D01*
X133040541Y-68086512D01*
X134101201Y-69147172D01*
X134101201Y-69147172D01*
G37*
G36*
X133747648Y-69500725D02*
X133549658Y-69698715D01*
X132488998Y-68638055D01*
X132686988Y-68440065D01*
X133747648Y-69500725D01*
X133747648Y-69500725D01*
G37*
G36*
X133394094Y-69854279D02*
X133196104Y-70052269D01*
X132135444Y-68991609D01*
X132333434Y-68793619D01*
X133394094Y-69854279D01*
X133394094Y-69854279D01*
G37*
G36*
X133040541Y-70207832D02*
X132842551Y-70405822D01*
X131781891Y-69345162D01*
X131979881Y-69147172D01*
X133040541Y-70207832D01*
X133040541Y-70207832D01*
G37*
D11*
X123190000Y-91780360D03*
X123190000Y-96179640D03*
D12*
X105831640Y-93980000D03*
X101432360Y-93980000D03*
X107101640Y-101346000D03*
X102702360Y-101346000D03*
D13*
X143986000Y-49022000D03*
X139986000Y-49022000D03*
X133636000Y-54610000D03*
X137636000Y-54610000D03*
D14*
X139700000Y-86900000D03*
X139700000Y-90900000D03*
D13*
X126460000Y-73660000D03*
X122460000Y-73660000D03*
X132366000Y-49022000D03*
X136366000Y-49022000D03*
X122460000Y-69850000D03*
X126460000Y-69850000D03*
D14*
X133858000Y-101314000D03*
X133858000Y-97314000D03*
D13*
X119158000Y-104394000D03*
X123158000Y-104394000D03*
X134080000Y-59690000D03*
X130080000Y-59690000D03*
D14*
X113030000Y-66770000D03*
X113030000Y-62770000D03*
X118110000Y-66770000D03*
X118110000Y-62770000D03*
X144272000Y-44672000D03*
X144272000Y-40672000D03*
D15*
X112118140Y-87884000D03*
X114957860Y-87884000D03*
X112118140Y-104394000D03*
X114957860Y-104394000D03*
X189379860Y-36830000D03*
X186540140Y-36830000D03*
X148739860Y-91440000D03*
X145900140Y-91440000D03*
X125879860Y-35560000D03*
X123040140Y-35560000D03*
D16*
X122951240Y-88138000D03*
D17*
X118348760Y-88138000D03*
D16*
X123967240Y-100330000D03*
D17*
X119364760Y-100330000D03*
D18*
X104172000Y-87884000D03*
X108172000Y-87884000D03*
X115030000Y-100330000D03*
X111030000Y-100330000D03*
X122460000Y-64770000D03*
X126460000Y-64770000D03*
X165640000Y-121920000D03*
X169640000Y-121920000D03*
X155480000Y-121920000D03*
X159480000Y-121920000D03*
D19*
X135890000Y-88170000D03*
X135890000Y-92170000D03*
D18*
X126460000Y-78740000D03*
X122460000Y-78740000D03*
D19*
X159766000Y-75152000D03*
X159766000Y-71152000D03*
D18*
X155416000Y-63754000D03*
X151416000Y-63754000D03*
X150908000Y-59436000D03*
X154908000Y-59436000D03*
D19*
X159766000Y-66770000D03*
X159766000Y-62770000D03*
D18*
X143034000Y-54864000D03*
X147034000Y-54864000D03*
X189960000Y-41910000D03*
X185960000Y-41910000D03*
X150590000Y-86360000D03*
X146590000Y-86360000D03*
X126460000Y-40640000D03*
X122460000Y-40640000D03*
D20*
X109728000Y-93980000D03*
D21*
X116332000Y-93980000D03*
X116332000Y-91694000D03*
X116332000Y-96266000D03*
D22*
X185805000Y-96160000D03*
X185155000Y-96160000D03*
X184505000Y-96160000D03*
X183855000Y-96160000D03*
X183205000Y-96160000D03*
X182555000Y-96160000D03*
X181905000Y-96160000D03*
X181255000Y-96160000D03*
X180605000Y-96160000D03*
X179955000Y-96160000D03*
X179955000Y-101960000D03*
X180605000Y-101960000D03*
X181255000Y-101960000D03*
X181905000Y-101960000D03*
X182555000Y-101960000D03*
X183205000Y-101960000D03*
X183855000Y-101960000D03*
X184505000Y-101960000D03*
X185155000Y-101960000D03*
X185805000Y-101960000D03*
X145165000Y-96160000D03*
X144515000Y-96160000D03*
X143865000Y-96160000D03*
X143215000Y-96160000D03*
X142565000Y-96160000D03*
X141915000Y-96160000D03*
X141265000Y-96160000D03*
X140615000Y-96160000D03*
X139965000Y-96160000D03*
X139315000Y-96160000D03*
X139315000Y-101960000D03*
X139965000Y-101960000D03*
X140615000Y-101960000D03*
X141265000Y-101960000D03*
X141915000Y-101960000D03*
X142565000Y-101960000D03*
X143215000Y-101960000D03*
X143865000Y-101960000D03*
X144515000Y-101960000D03*
X145165000Y-101960000D03*
X175645000Y-96160000D03*
X174995000Y-96160000D03*
X174345000Y-96160000D03*
X173695000Y-96160000D03*
X173045000Y-96160000D03*
X172395000Y-96160000D03*
X171745000Y-96160000D03*
X171095000Y-96160000D03*
X170445000Y-96160000D03*
X169795000Y-96160000D03*
X169795000Y-101960000D03*
X170445000Y-101960000D03*
X171095000Y-101960000D03*
X171745000Y-101960000D03*
X172395000Y-101960000D03*
X173045000Y-101960000D03*
X173695000Y-101960000D03*
X174345000Y-101960000D03*
X174995000Y-101960000D03*
X175645000Y-101960000D03*
X155325000Y-96160000D03*
X154675000Y-96160000D03*
X154025000Y-96160000D03*
X153375000Y-96160000D03*
X152725000Y-96160000D03*
X152075000Y-96160000D03*
X151425000Y-96160000D03*
X150775000Y-96160000D03*
X150125000Y-96160000D03*
X149475000Y-96160000D03*
X149475000Y-101960000D03*
X150125000Y-101960000D03*
X150775000Y-101960000D03*
X151425000Y-101960000D03*
X152075000Y-101960000D03*
X152725000Y-101960000D03*
X153375000Y-101960000D03*
X154025000Y-101960000D03*
X154675000Y-101960000D03*
X155325000Y-101960000D03*
X165485000Y-96160000D03*
X164835000Y-96160000D03*
X164185000Y-96160000D03*
X163535000Y-96160000D03*
X162885000Y-96160000D03*
X162235000Y-96160000D03*
X161585000Y-96160000D03*
X160935000Y-96160000D03*
X160285000Y-96160000D03*
X159635000Y-96160000D03*
X159635000Y-101960000D03*
X160285000Y-101960000D03*
X160935000Y-101960000D03*
X161585000Y-101960000D03*
X162235000Y-101960000D03*
X162885000Y-101960000D03*
X163535000Y-101960000D03*
X164185000Y-101960000D03*
X164835000Y-101960000D03*
X165485000Y-101960000D03*
D23*
X160930000Y-45130000D03*
X160930000Y-44480000D03*
X160930000Y-43830000D03*
X160930000Y-43180000D03*
X160930000Y-42530000D03*
X160930000Y-41880000D03*
X160930000Y-41230000D03*
X154030000Y-41230000D03*
X154030000Y-41880000D03*
X154030000Y-42530000D03*
X154030000Y-43180000D03*
X154030000Y-43830000D03*
X154030000Y-44480000D03*
X154030000Y-45130000D03*
D24*
X157090000Y-54315000D03*
X157090000Y-53665000D03*
X157090000Y-53015000D03*
X157090000Y-52365000D03*
X152790000Y-52365000D03*
X152790000Y-53015000D03*
X152790000Y-53665000D03*
X152790000Y-54315000D03*
D25*
X117815000Y-53730000D03*
X117165000Y-53730000D03*
X116515000Y-53730000D03*
X115865000Y-53730000D03*
X115865000Y-58030000D03*
X116515000Y-58030000D03*
X117165000Y-58030000D03*
X117815000Y-58030000D03*
X125435000Y-53730000D03*
X124785000Y-53730000D03*
X124135000Y-53730000D03*
X123485000Y-53730000D03*
X123485000Y-58030000D03*
X124135000Y-58030000D03*
X124785000Y-58030000D03*
X125435000Y-58030000D03*
D10*
G36*
X135476904Y-84809949D02*
X133991980Y-86294873D01*
X132082792Y-84385685D01*
X133567716Y-82900761D01*
X135476904Y-84809949D01*
X135476904Y-84809949D01*
G37*
G36*
X131729239Y-81062284D02*
X130244315Y-82547208D01*
X128335127Y-80638020D01*
X129820051Y-79153096D01*
X131729239Y-81062284D01*
X131729239Y-81062284D01*
G37*
G36*
X129537208Y-83254315D02*
X128052284Y-84739239D01*
X126143096Y-82830051D01*
X127628020Y-81345127D01*
X129537208Y-83254315D01*
X129537208Y-83254315D01*
G37*
G36*
X133284873Y-87001980D02*
X131799949Y-88486904D01*
X129890761Y-86577716D01*
X131375685Y-85092792D01*
X133284873Y-87001980D01*
X133284873Y-87001980D01*
G37*
D26*
X165735000Y-52050000D03*
X165735000Y-64790000D03*
X167005000Y-52050000D03*
X167005000Y-64790000D03*
X168275000Y-52050000D03*
X168275000Y-64790000D03*
X169545000Y-52050000D03*
X169545000Y-64790000D03*
X170815000Y-52050000D03*
X170815000Y-64790000D03*
X172085000Y-52050000D03*
X172085000Y-64790000D03*
X173355000Y-52050000D03*
X173355000Y-64790000D03*
X174625000Y-52050000D03*
X174625000Y-64790000D03*
X175895000Y-52050000D03*
X175895000Y-64790000D03*
X177165000Y-52050000D03*
X177165000Y-64790000D03*
X178435000Y-52050000D03*
X178435000Y-64790000D03*
X179705000Y-52050000D03*
X179705000Y-64790000D03*
X180975000Y-52050000D03*
X180975000Y-64790000D03*
X182245000Y-52050000D03*
X182245000Y-64790000D03*
X183515000Y-52050000D03*
X183515000Y-64790000D03*
X184785000Y-52050000D03*
X184785000Y-64790000D03*
X165735000Y-74910000D03*
X165735000Y-87650000D03*
X167005000Y-74910000D03*
X167005000Y-87650000D03*
X168275000Y-74910000D03*
X168275000Y-87650000D03*
X169545000Y-74910000D03*
X169545000Y-87650000D03*
X170815000Y-74910000D03*
X170815000Y-87650000D03*
X172085000Y-74910000D03*
X172085000Y-87650000D03*
X173355000Y-74910000D03*
X173355000Y-87650000D03*
X174625000Y-74910000D03*
X174625000Y-87650000D03*
X175895000Y-74910000D03*
X175895000Y-87650000D03*
X177165000Y-74910000D03*
X177165000Y-87650000D03*
X178435000Y-74910000D03*
X178435000Y-87650000D03*
X179705000Y-74910000D03*
X179705000Y-87650000D03*
X180975000Y-74910000D03*
X180975000Y-87650000D03*
X182245000Y-74910000D03*
X182245000Y-87650000D03*
X183515000Y-74910000D03*
X183515000Y-87650000D03*
X184785000Y-74910000D03*
X184785000Y-87650000D03*
D27*
X169465000Y-39640000D03*
D28*
X168265000Y-39515000D03*
D29*
X168015000Y-31915000D03*
D30*
X168340000Y-30415000D03*
D31*
X179965000Y-31265000D03*
D27*
X170565000Y-39640000D03*
X171665000Y-39640000D03*
X172765000Y-39640000D03*
X173865000Y-39640000D03*
X174965000Y-39640000D03*
X176065000Y-39640000D03*
X177165000Y-39640000D03*
D32*
X179615000Y-39515000D03*
D33*
X179565000Y-28840000D03*
D34*
X112250000Y-45720000D03*
X121430000Y-45720000D03*
D35*
X184912000Y-143510000D03*
X182372000Y-143510000D03*
X179832000Y-143510000D03*
X177292000Y-143510000D03*
X174752000Y-143510000D03*
X172212000Y-143510000D03*
X169672000Y-143510000D03*
X167132000Y-143510000D03*
X164592000Y-143510000D03*
X162052000Y-143510000D03*
X159512000Y-143510000D03*
X156972000Y-143510000D03*
X154432000Y-143510000D03*
X151892000Y-143510000D03*
X149352000Y-143510000D03*
X125222000Y-143510000D03*
X122682000Y-143510000D03*
X120142000Y-143510000D03*
X117602000Y-143510000D03*
X115062000Y-143510000D03*
X112522000Y-143510000D03*
X109982000Y-143510000D03*
M02*
