M48
;DRILL file {KiCad 4.0.2+dfsg1-stable} date Mon 11 Feb 2019 22:19:28 CET
;FORMAT={-:-/ absolute / metric / decimal}
FMAT,2
METRIC,TZ
T1C0.300
T2C1.016
T3C3.000
%
G90
G05
M71
T1
X106.453Y-63.103
X113.179Y-139.845
X115.631Y-140.246
X115.865Y-57.074
X116.515Y-54.702
X117.72Y-112.015
X118.293Y-139.889
X118.898Y-57.642
X120.833Y-140.301
X122.33Y-53.921
X122.855Y-53.34
X122.95Y-37.722
X122.95Y-63.175
X123.203Y-93.71
X123.369Y-140.246
X124.135Y-52.768
X126.443Y-140.391
X126.67Y-59.439
X132.366Y-43.841
X132.933Y-77.37
X133.858Y-98.725
X134.358Y-66.196
X134.431Y-63.111
X134.887Y-70.903
X135.488Y-70.302
X135.491Y-65.067
X135.754Y-86.229
X136.061Y-81.822
X136.096Y-74.453
X136.366Y-47.418
X136.549Y-73.047
X136.757Y-79.299
X136.908Y-75.33
X137.331Y-68.653
X137.41Y-63.031
X137.425Y-83.74
X137.805Y-102.078
X137.961Y-62.599
X138.579Y-76.984
X138.61Y-65.295
X138.707Y-68.203
X138.723Y-66.826
X139.31Y-64.804
X139.36Y-114.599
X140.003Y-64.634
X140.235Y-52.313
X140.281Y-108.725
X140.392Y-72.927
X140.5Y-71.123
X140.615Y-95.156
X140.615Y-103.378
X140.761Y-51.682
X140.867Y-65.588
X140.868Y-63.703
X141.066Y-78.932
X141.169Y-62.655
X141.265Y-104.454
X141.279Y-85.254
X141.402Y-91.464
X141.851Y-62.862
X141.968Y-75.806
X142.524Y-81.436
X142.565Y-109.258
X142.886Y-45.127
X143.107Y-79.624
X143.215Y-83.018
X143.215Y-114.014
X143.273Y-69.684
X143.433Y-82.39
X144.049Y-53.023
X144.299Y-63.995
X144.515Y-97.088
X144.515Y-100.589
X144.606Y-103.828
X145.165Y-103.271
X145.688Y-65.796
X145.878Y-39.247
X145.907Y-69.616
X146.198Y-83.498
X146.623Y-76.199
X146.766Y-52.313
X147.673Y-70.61
X147.782Y-74.836
X147.892Y-78.864
X148.047Y-64.012
X148.319Y-74.502
X148.85Y-63.952
X148.854Y-73.953
X148.971Y-112.476
X149.024Y-70.922
X149.378Y-73.51
X149.622Y-70.544
X149.691Y-55.288
X149.694Y-139.961
X149.8Y-65.406
X149.935Y-78.864
X150.15Y-70.13
X150.296Y-113.938
X150.745Y-137.639
X150.746Y-76.039
X150.775Y-94.555
X150.871Y-70.709
X151.733Y-120.001
X151.834Y-54.703
X151.851Y-85.057
X152.416Y-74.225
X152.596Y-102.867
X152.859Y-63.079
X152.926Y-120.001
X152.941Y-87.367
X153.017Y-82.755
X153.058Y-70.992
X153.375Y-92.343
X153.375Y-102.883
X153.487Y-85.942
X154.099Y-71.425
X154.253Y-109.493
X154.428Y-61.94
X154.588Y-91.358
X154.625Y-79.12
X154.675Y-95.257
X154.675Y-102.872
X155.325Y-107.631
X155.547Y-45.072
X156.136Y-53.698
X156.659Y-109.267
X156.77Y-138.313
X157.311Y-44.291
X157.377Y-83.377
X158.126Y-74.101
X158.296Y-64.896
X158.462Y-54.482
X158.958Y-123.183
X159.232Y-105.058
X159.635Y-95.257
X159.907Y-44.578
X160.935Y-80.809
X161.018Y-70.734
X161.66Y-71.32
X161.828Y-45.819
X162.23Y-78.532
X162.371Y-43.316
X162.744Y-70.509
X163.535Y-95.255
X163.609Y-71.245
X164.125Y-81.352
X164.185Y-93.581
X164.194Y-45.712
X164.603Y-97.067
X164.767Y-65.219
X164.835Y-102.872
X165.1Y-120.412
X166.229Y-112.726
X166.413Y-71.464
X166.5Y-65.83
X166.772Y-93.438
X166.851Y-112.135
X166.969Y-105.058
X167.674Y-140.287
X168.027Y-107.7
X168.275Y-61.432
X168.275Y-63.079
X168.403Y-44.185
X168.577Y-47.938
X168.995Y-78.052
X169.406Y-80.662
X169.795Y-101.046
X170.068Y-94.451
X170.18Y-112.726
X170.22Y-85.639
X170.265Y-66.28
X170.445Y-100.511
X170.472Y-94.896
X170.783Y-77.392
X170.815Y-70.033
X170.989Y-104.866
X171.745Y-103.322
X171.838Y-72.701
X171.921Y-85.962
X172.635Y-69.097
X172.684Y-140.246
X172.783Y-103.879
X172.844Y-111.792
X173.355Y-66.771
X173.355Y-73.138
X173.355Y-85.786
X173.522Y-103.294
X173.593Y-92.178
X173.695Y-93.01
X173.719Y-104.489
X173.99Y-77.392
X174.08Y-90.467
X174.625Y-69.412
X174.625Y-82.766
X174.671Y-91.639
X174.995Y-102.867
X175.095Y-97.5
X175.145Y-43.552
X175.443Y-140.083
X175.643Y-44.077
X175.895Y-44.828
X175.895Y-70.597
X175.895Y-76.863
X176.002Y-92.971
X176.48Y-68.002
X176.53Y-51.902
X177.196Y-72.049
X177.885Y-88.834
X178.269Y-73.781
X178.382Y-58.791
X178.451Y-100.745
X179.19Y-105.431
X179.339Y-102.395
X179.79Y-63.26
X180.325Y-108.07
X180.422Y-140.246
X180.975Y-54.356
X180.975Y-80.077
X180.975Y-88.754
X181.211Y-109.046
X181.218Y-72.316
X181.61Y-79.12
X181.743Y-107.578
X182.231Y-76.573
X182.245Y-49.851
X182.245Y-88.765
X182.33Y-56.935
X182.851Y-107.053
X183.063Y-139.847
X183.43Y-78.589
X183.515Y-50.424
X183.515Y-54.624
X183.515Y-90.936
X184.785Y-50.938
X184.785Y-81.908
X185.653Y-140.246
X185.805Y-100.683
X185.96Y-59.438
X186.33Y-102.861
T2
X102.362Y-44.196
X102.87Y-63.5
X102.87Y-66.04
X107.95Y-36.83
X107.95Y-48.26
X107.95Y-50.8
X107.95Y-53.34
X107.95Y-55.88
X109.22Y-110.604
X109.22Y-115.456
X110.49Y-36.83
X111.76Y-110.604
X111.76Y-115.456
X113.03Y-36.83
X114.3Y-110.604
X114.3Y-115.456
X115.57Y-36.83
X116.84Y-110.604
X116.84Y-115.456
X119.38Y-110.604
X119.38Y-115.456
X120.65Y-30.48
X121.92Y-110.604
X121.92Y-115.456
X123.19Y-30.48
X124.46Y-110.604
X124.46Y-115.456
X125.73Y-30.48
X132.08Y-40.64
X133.35Y-30.48
X133.35Y-33.02
X134.62Y-40.64
X137.16Y-30.48
X137.16Y-33.02
X137.16Y-40.64
X140.97Y-30.48
X140.97Y-33.02
X144.78Y-30.48
X144.78Y-33.02
X148.59Y-30.48
X148.59Y-33.02
X148.59Y-110.604
X148.59Y-115.456
X151.13Y-110.604
X151.13Y-115.456
X152.4Y-30.48
X152.4Y-33.02
X153.67Y-110.604
X153.67Y-115.456
X156.21Y-30.48
X156.21Y-33.02
X156.21Y-110.604
X156.21Y-115.456
X158.75Y-110.604
X158.75Y-115.456
X160.02Y-30.48
X160.02Y-33.02
X161.29Y-110.604
X161.29Y-115.456
X163.83Y-110.604
X163.83Y-115.456
X166.37Y-110.604
X166.37Y-115.456
X168.91Y-110.604
X168.91Y-115.456
X171.45Y-110.604
X171.45Y-115.456
X173.99Y-110.604
X173.99Y-115.456
X176.53Y-110.604
X176.53Y-115.456
X179.07Y-110.604
X179.07Y-115.456
X181.61Y-110.604
X181.61Y-115.456
X184.15Y-110.604
X184.15Y-115.456
T3
X102.87Y-30.988
X102.87Y-122.428
X190.5Y-30.988
X191.77Y-122.428
T0
M30
